<svg width="69" height="15" viewBox="0 0 69 15" fill="none" xmlns="http://www.w3.org/2000/svg">
<path fill-rule="evenodd" clip-rule="evenodd" d="M5.34839 13.109C5.88386 13.109 6.37867 13.0116 6.8477 12.8283C6.85171 12.8375 7.80639 14.3208 7.82014 14.3311C6.95594 14.7955 6.0528 15 5.06548 15C2.13042 15 0 13.066 0 9.97862C0 6.86889 2.23923 4.9349 5.06548 4.9349C6.0717 4.9349 6.86488 5.1531 7.66379 5.58033C7.5756 5.72694 6.75321 7.12317 6.75034 7.12889C6.27651 6.94036 5.77073 6.84507 5.26077 6.84827C3.5215 6.84827 2.17395 7.95701 2.17395 9.97862C2.17395 11.8914 3.47797 13.109 5.34839 13.109ZM12.751 4.9349C15.6426 4.9349 17.7295 6.97885 17.7295 9.97862C17.7295 12.9566 15.6426 15 12.751 15C9.88183 15 7.79494 12.9572 7.79494 9.97862C7.79494 6.97885 9.88183 4.9349 12.751 4.9349V4.9349ZM12.751 6.78299C11.1429 6.78299 9.96831 8.0223 9.96831 9.97862C9.96831 11.9138 11.1423 13.1525 12.7516 13.1525C14.4038 13.1525 15.5561 11.9138 15.5561 9.97862C15.5561 8.0223 14.4038 6.78299 12.751 6.78299V6.78299ZM19.0993 14.7829V5.15195H21.251V14.7829H19.0993ZM18.8164 2.19514C18.8164 1.45636 19.4475 0.869922 20.1646 0.869922C20.8821 0.869922 21.5121 1.45636 21.5121 2.19571C21.5121 2.95682 20.8821 3.56559 20.1646 3.56559C19.4475 3.56559 18.8164 2.95682 18.8164 2.19571V2.19514ZM23.1288 5.7613C24.4764 5.23958 26.1297 4.9349 27.542 4.9349C29.9989 4.9349 31.564 5.86954 31.564 8.58697V14.7829H29.4336V8.78283C29.4336 7.39176 28.5643 6.89123 27.3679 6.89123C26.6068 6.89123 25.8468 7.00004 25.281 7.17414V14.7829H23.1288V5.7613ZM33.3663 0H35.5179V5.41368C35.9743 5.17429 36.8655 4.9349 37.713 4.9349C40.4963 4.9349 42.5827 6.71713 42.5827 9.80452C42.5827 12.9131 40.5181 15 36.9531 15C35.7303 14.9964 34.5171 14.7834 33.3663 14.37V0ZM35.5179 12.9572C35.9308 13.0872 36.4743 13.1519 37.0178 13.1519C38.9959 13.1519 40.4093 12.0655 40.4093 9.84747C40.4093 7.9782 39.0835 6.86946 37.453 6.86946C36.6055 6.86946 35.9526 7.08709 35.5173 7.32647L35.5179 12.9572ZM48.7998 8.32582C48.7998 7.28238 48.017 6.80475 46.9517 6.80475C45.843 6.80475 44.9737 7.13061 44.1696 7.58705V5.7172C45.0172 5.23958 46.1036 4.9349 47.2999 4.9349C49.408 4.9349 50.9079 5.80425 50.9079 8.21701V14.5871C49.995 14.8259 48.6916 14.9788 47.6046 14.9788C45.1042 14.9788 43.2779 14.2177 43.2779 12.0438C43.2779 10.0874 44.9513 9.13103 47.734 9.13103H48.7993L48.7998 8.32582ZM48.7998 10.5651H47.8869C46.3865 10.5651 45.4083 11.0003 45.4083 11.9785C45.4083 12.9784 46.3218 13.3695 47.6258 13.3695C47.9522 13.3695 48.4087 13.326 48.7998 13.2607V10.5651ZM52.4731 12.1743C53.3648 12.8478 54.4294 13.2607 55.4076 13.2607C56.3645 13.2607 56.9951 12.9349 56.9951 12.1743C56.9951 11.3909 56.4298 11.1085 55.1911 10.7827C53.1907 10.3262 52.3425 9.52218 52.3425 7.8482C52.3425 5.8913 53.8212 4.9349 55.7775 4.9349C56.8645 4.9349 57.7338 5.17429 58.5379 5.67368V7.65234C57.6903 7.04414 56.8645 6.67418 55.8428 6.67418C54.9082 6.67418 54.4082 7.13061 54.4082 7.76115C54.4082 8.39111 54.8206 8.71755 55.9299 9.02108C58.1261 9.49985 59.082 10.3268 59.082 12.0655C59.082 14.0871 57.5386 15 55.4517 15C54.3212 15 53.1907 14.6965 52.4737 14.2177L52.4731 12.1743ZM62.0279 10.4568V10.5003C62.1585 12.2173 63.636 13.1519 65.1359 13.1519C66.4623 13.1519 67.4192 12.8478 68.3751 12.2173V14.1095C67.5057 14.7177 66.2229 15 64.9847 15C61.9844 15 59.941 13.0872 59.941 10.0439C59.941 6.97885 61.9403 4.93548 64.593 4.93548C67.3969 4.93548 68.7233 6.73946 68.7233 9.36927V10.4574L62.0279 10.4568ZM66.7011 9.06517C66.6581 7.56471 65.9194 6.73946 64.5277 6.73946C63.2884 6.73946 62.3755 7.60938 62.0932 9.06575L66.7011 9.06517Z" fill="#1652F0"/>
</svg>
