<svg width="147" height="121" viewBox="0 0 147 121" fill="none" xmlns="http://www.w3.org/2000/svg">
<path d="M36.35 105.26V99.26C36.385 98.7554 36.312 98.2491 36.136 97.7749C35.9599 97.3007 35.6849 96.8695 35.3291 96.5099C34.9733 96.1504 34.545 95.8708 34.0727 95.6897C33.6004 95.5087 33.095 95.4304 32.59 95.46C31.9291 95.4167 31.2686 95.5515 30.6776 95.8506C30.0865 96.1496 29.5866 96.6018 29.23 97.16C28.9049 96.6186 28.4398 96.1749 27.8837 95.8757C27.3275 95.5765 26.7009 95.4329 26.07 95.46C25.52 95.4322 24.9723 95.5486 24.4812 95.7977C23.99 96.0467 23.5725 96.4198 23.27 96.88V95.7H21.19V105.26H23.29V100C23.2453 99.6731 23.2734 99.3403 23.3723 99.0255C23.4712 98.7107 23.6384 98.4217 23.8619 98.179C24.0855 97.9363 24.3599 97.746 24.6656 97.6217C24.9712 97.4975 25.3005 97.4422 25.63 97.46C27.01 97.46 27.71 98.36 27.71 99.98V105.3H29.81V100C29.7672 99.6734 29.7965 99.3414 29.8961 99.0274C29.9956 98.7134 30.1629 98.4251 30.3861 98.1828C30.6093 97.9406 30.8829 97.7503 31.1877 97.6254C31.4925 97.5005 31.821 97.444 32.15 97.46C33.57 97.46 34.25 98.36 34.25 99.98V105.3L36.35 105.26ZM67.42 95.7H64V92.8H61.9V95.7H60V97.6H61.94V102C61.94 104.22 62.8 105.54 65.26 105.54C66.1791 105.543 67.0803 105.287 67.86 104.8L67.26 103.02C66.7022 103.353 66.0691 103.538 65.42 103.56C64.42 103.56 64.04 102.92 64.04 101.96V97.6H67.44L67.42 95.7ZM85.16 95.46C84.6529 95.4451 84.1511 95.5673 83.7076 95.8136C83.2641 96.06 82.8953 96.4215 82.64 96.86V95.7H80.58V105.26H82.66V99.9C82.66 98.32 83.34 97.44 84.66 97.44C85.1049 97.4339 85.5466 97.5155 85.96 97.68L86.6 95.68C86.125 95.51 85.6245 95.4221 85.12 95.42L85.16 95.46ZM58.34 96.46C57.1626 95.76 55.809 95.4129 54.44 95.46C52.02 95.46 50.44 96.62 50.44 98.52C50.44 100.08 51.6 101.04 53.74 101.34L54.74 101.48C55.88 101.64 56.42 101.94 56.42 102.48C56.42 103.22 55.66 103.64 54.24 103.64C53.0978 103.673 51.9777 103.321 51.06 102.64L50.06 104.26C51.2716 105.106 52.7228 105.541 54.2 105.5C56.96 105.5 58.56 104.2 58.56 102.38C58.56 100.56 57.3 99.82 55.22 99.52L54.22 99.38C53.32 99.26 52.6 99.08 52.6 98.44C52.6 97.8 53.28 97.32 54.42 97.32C55.4737 97.3322 56.5066 97.6146 57.42 98.14L58.34 96.46ZM114.05 95.46C113.543 95.4451 113.041 95.5673 112.598 95.8136C112.154 96.06 111.785 96.4215 111.53 96.86V95.7H109.47V105.26H111.55V99.9C111.55 98.32 112.23 97.44 113.55 97.44C113.995 97.4339 114.437 97.5155 114.85 97.68L115.49 95.68C115.015 95.51 114.515 95.4221 114.01 95.42L114.05 95.46ZM87.25 100.46C87.2253 101.132 87.341 101.801 87.5899 102.426C87.8388 103.05 88.2153 103.616 88.6954 104.087C89.1754 104.557 89.7484 104.923 90.3778 105.159C91.0071 105.396 91.6788 105.498 92.35 105.46C93.5989 105.524 94.8262 105.117 95.79 104.32L94.79 102.64C94.071 103.188 93.1942 103.49 92.29 103.5C91.5212 103.438 90.8039 103.088 90.2809 102.521C89.758 101.954 89.4676 101.211 89.4676 100.44C89.4676 99.6686 89.758 98.9255 90.2809 98.3585C90.8039 97.7915 91.5212 97.4422 92.29 97.38C93.1942 97.3901 94.071 97.6917 94.79 98.24L95.79 96.56C94.8262 95.7632 93.5989 95.3564 92.35 95.42C91.6788 95.3819 91.0071 95.4845 90.3778 95.7209C89.7484 95.9574 89.1754 96.3226 88.6954 96.7933C88.2153 97.2639 87.8388 97.8296 87.5899 98.4541C87.341 99.0786 87.2253 99.7482 87.25 100.42V100.46ZM106.73 100.46V95.7H104.65V96.86C104.297 96.4055 103.841 96.0415 103.319 95.7981C102.797 95.5546 102.225 95.4388 101.65 95.46C100.324 95.46 99.0521 95.9868 98.1145 96.9245C97.1768 97.8621 96.65 99.1339 96.65 100.46C96.65 101.786 97.1768 103.058 98.1145 103.996C99.0521 104.933 100.324 105.46 101.65 105.46C102.225 105.481 102.797 105.365 103.319 105.122C103.841 104.878 104.297 104.514 104.65 104.06V105.22H106.73V100.46ZM98.99 100.46C99.0232 99.8973 99.2202 99.3565 99.5568 98.9043C99.8934 98.4522 100.355 98.1083 100.884 97.9151C101.414 97.7219 101.989 97.6877 102.537 97.8169C103.086 97.9461 103.585 98.2329 103.973 98.6421C104.36 99.0512 104.62 99.5648 104.72 100.12C104.819 100.675 104.754 101.246 104.533 101.765C104.312 102.283 103.943 102.726 103.474 103.037C103.004 103.349 102.454 103.517 101.89 103.52C101.494 103.525 101.101 103.448 100.737 103.294C100.372 103.14 100.043 102.912 99.7706 102.624C99.4982 102.337 99.2882 101.996 99.1539 101.624C99.0196 101.251 98.9638 100.855 98.99 100.46ZM73.89 95.46C72.5639 95.4785 71.2995 96.0231 70.375 96.9739C69.4504 97.9248 68.9414 99.2039 68.96 100.53C68.9786 101.856 69.5232 103.12 70.474 104.045C71.4248 104.97 72.7039 105.479 74.03 105.46C75.4687 105.534 76.8836 105.071 78 104.16L77 102.62C76.2104 103.253 75.2321 103.605 74.22 103.62C73.5325 103.679 72.849 103.468 72.3149 103.031C71.7808 102.594 71.4382 101.966 71.36 101.28H78.46C78.46 101.02 78.46 100.76 78.46 100.48C78.46 97.48 76.6 95.48 73.92 95.48L73.89 95.46ZM73.89 97.32C74.2013 97.3133 74.5108 97.3681 74.8008 97.4811C75.0909 97.5941 75.3559 97.7632 75.5806 97.9786C75.8054 98.1941 75.9855 98.4517 76.1106 98.7367C76.2357 99.0218 76.3035 99.3287 76.31 99.64H71.31C71.3462 98.998 71.6323 98.3958 72.1071 97.9622C72.5818 97.5286 73.2074 97.2981 73.85 97.32H73.89ZM126 100.48V91.86H124V96.86C123.647 96.4055 123.191 96.0415 122.669 95.7981C122.147 95.5546 121.575 95.4388 121 95.46C119.674 95.46 118.402 95.9868 117.464 96.9245C116.527 97.8621 116 99.1339 116 100.46C116 101.786 116.527 103.058 117.464 103.996C118.402 104.933 119.674 105.46 121 105.46C121.575 105.481 122.147 105.365 122.669 105.122C123.191 104.878 123.647 104.514 124 104.06V105.22H126V100.48ZM129.47 103.87C129.6 103.868 129.729 103.892 129.85 103.94C129.965 103.987 130.07 104.055 130.16 104.14C130.248 104.226 130.319 104.328 130.37 104.44C130.421 104.557 130.447 104.683 130.447 104.81C130.447 104.937 130.421 105.063 130.37 105.18C130.319 105.292 130.248 105.394 130.16 105.48C130.07 105.565 129.965 105.633 129.85 105.68C129.73 105.733 129.601 105.76 129.47 105.76C129.28 105.759 129.095 105.703 128.936 105.601C128.776 105.498 128.65 105.352 128.57 105.18C128.52 105.063 128.494 104.937 128.494 104.81C128.494 104.683 128.52 104.557 128.57 104.44C128.621 104.328 128.692 104.226 128.78 104.14C128.87 104.055 128.975 103.987 129.09 103.94C129.22 103.888 129.36 103.864 129.5 103.87H129.47ZM129.47 105.56C129.57 105.561 129.669 105.54 129.76 105.5C129.846 105.462 129.924 105.407 129.99 105.34C130.115 105.204 130.184 105.025 130.184 104.84C130.184 104.655 130.115 104.476 129.99 104.34C129.924 104.272 129.846 104.218 129.76 104.18C129.669 104.14 129.57 104.12 129.47 104.12C129.37 104.121 129.272 104.141 129.18 104.18C129.09 104.217 129.009 104.271 128.94 104.34C128.815 104.476 128.746 104.655 128.746 104.84C128.746 105.025 128.815 105.204 128.94 105.34C129.009 105.409 129.09 105.463 129.18 105.5C129.281 105.543 129.39 105.564 129.5 105.56H129.47ZM129.53 104.37C129.623 104.365 129.715 104.394 129.79 104.45C129.821 104.475 129.845 104.508 129.86 104.544C129.876 104.581 129.883 104.62 129.88 104.66C129.881 104.693 129.876 104.726 129.864 104.757C129.852 104.788 129.833 104.816 129.81 104.84C129.752 104.893 129.678 104.924 129.6 104.93L129.89 105.26H129.66L129.39 104.93H129.3V105.26H129.11V104.38L129.53 104.37ZM129.31 104.54V104.78H129.53C129.569 104.792 129.611 104.792 129.65 104.78C129.657 104.766 129.661 104.751 129.661 104.735C129.661 104.719 129.657 104.704 129.65 104.69C129.657 104.676 129.661 104.661 129.661 104.645C129.661 104.629 129.657 104.614 129.65 104.6C129.611 104.588 129.569 104.588 129.53 104.6L129.31 104.54ZM118.31 100.48C118.343 99.9173 118.54 99.3765 118.877 98.9243C119.213 98.4722 119.675 98.1283 120.204 97.9351C120.734 97.7419 121.309 97.7078 121.857 97.8369C122.406 97.9661 122.905 98.2529 123.293 98.6621C123.68 99.0712 123.94 99.5848 124.04 100.14C124.139 100.695 124.074 101.266 123.853 101.785C123.632 102.303 123.263 102.746 122.794 103.057C122.324 103.369 121.774 103.537 121.21 103.54C120.814 103.545 120.421 103.468 120.057 103.314C119.692 103.16 119.363 102.932 119.091 102.644C118.818 102.357 118.608 102.016 118.474 101.644C118.34 101.271 118.284 100.875 118.31 100.48ZM48.08 100.48V95.7H46V96.86C45.6468 96.4055 45.1905 96.0415 44.6689 95.7981C44.1473 95.5546 43.5752 95.4388 43 95.46C41.6739 95.46 40.4021 95.9868 39.4645 96.9245C38.5268 97.8621 38 99.1339 38 100.46C38 101.786 38.5268 103.058 39.4645 103.996C40.4021 104.933 41.6739 105.46 43 105.46C43.5752 105.481 44.1473 105.365 44.6689 105.122C45.1905 104.878 45.6468 104.514 46 104.06V105.22H48.08V100.48ZM40.34 100.48C40.3732 99.9173 40.5702 99.3765 40.9068 98.9243C41.2434 98.4722 41.7049 98.1283 42.2344 97.9351C42.764 97.7419 43.3385 97.7078 43.8872 97.8369C44.4359 97.9661 44.9349 98.2529 45.3226 98.6621C45.7104 99.0712 45.97 99.5848 46.0696 100.14C46.1691 100.695 46.1042 101.266 45.8829 101.785C45.6615 102.303 45.2934 102.746 44.8238 103.057C44.3542 103.369 43.8037 103.537 43.24 103.54C42.8424 103.548 42.4475 103.473 42.0804 103.32C41.7132 103.167 41.3819 102.94 41.1073 102.652C40.8328 102.364 40.621 102.023 40.4855 101.649C40.35 101.275 40.2936 100.877 40.32 100.48H40.34Z" fill="white"/>
<path d="M89.15 22.85H57.65V79.46H89.15V22.85Z" fill="#FF5F00"/>
<path d="M59.65 51.16C59.6442 45.7073 60.8792 40.3247 63.2614 35.4199C65.6437 30.5151 69.1107 26.2166 73.4 22.85C68.0891 18.6762 61.7111 16.0808 54.995 15.3603C48.2788 14.6399 41.4954 15.8235 35.4201 18.7759C29.3448 21.7283 24.2227 26.3304 20.6392 32.0561C17.0557 37.7819 15.1553 44.4003 15.1553 51.155C15.1553 57.9097 17.0557 64.5281 20.6392 70.2539C24.2227 75.9796 29.3448 80.5817 35.4201 83.5341C41.4954 86.4865 48.2788 87.6701 54.995 86.9496C61.7111 86.2292 68.0891 83.6338 73.4 79.46C69.112 76.0944 65.6458 71.7976 63.2636 66.8946C60.8814 61.9916 59.6457 56.611 59.65 51.16Z" fill="#EB001B"/>
<path d="M131.65 51.16C131.65 57.9152 129.749 64.534 126.165 70.26C122.581 75.9859 117.458 80.5879 111.382 83.5399C105.306 86.4919 98.5217 87.6747 91.8051 86.9532C85.0886 86.2318 78.7105 83.6351 73.4 79.46C77.6863 76.0914 81.1516 71.7934 83.5344 66.8902C85.9172 61.9869 87.1553 56.6066 87.1553 51.155C87.1553 45.7034 85.9172 40.3231 83.5344 35.4198C81.1516 30.5166 77.6863 26.2186 73.4 22.85C78.7105 18.6749 85.0886 16.0782 91.8051 15.3567C98.5217 14.6353 105.306 15.8181 111.382 18.7701C117.458 21.7221 122.581 26.3241 126.165 32.05C129.749 37.7759 131.65 44.3948 131.65 51.15V51.16Z" fill="#F79E1B"/>
<path d="M128.21 73.46V72.3H128.68V72.06H127.49V72.3H128V73.46H128.21ZM130.52 73.46V72.06H130.16L129.74 73.06L129.32 72.06H129V73.46H129.26V72.41L129.65 73.32H129.92L130.31 72.41V73.47L130.52 73.46Z" fill="#F79E1B"/>
</svg>
