<svg width="504" height="130" viewBox="0 0 504 130" fill="none" xmlns="http://www.w3.org/2000/svg">
<path d="M389.6 34.2H362.4C360.8 34.2 359.2 35.7999 358.4 37.3999L347.2 107.8C347.2 109.4 348 110.2 349.6 110.2H364C365.6 110.2 366.4 109.4 366.4 107.8L369.6 87.7999C369.6 86.1999 371.2 84.6 373.6 84.6H382.4C400.8 84.6 411.2 75.8 413.6 58.2C415.2 51 413.6 44.6 410.4 40.6C405.6 36.6 398.4 34.2 389.6 34.2ZM392.8 60.6C391.2 70.2 384 70.2 376.8 70.2H372L375.2 51.8C375.2 51 376 50.2 377.6 50.2H379.2C384 50.2 388.8 50.1999 391.2 53.3999C392.8 54.1999 392.8 56.6 392.8 60.6Z" fill="#139AD6"/>
<path d="M193.6 34.2H166.4C164.8 34.2 163.2 35.7999 162.4 37.3999L151.2 107.8C151.2 109.4 152 110.2 153.6 110.2H166.4C168 110.2 169.6 108.6 170.4 107L173.6 87.7999C173.6 86.1999 175.2 84.6 177.6 84.6H186.4C204.8 84.6 215.2 75.8 217.6 58.2C219.2 51 217.6 44.6 214.4 40.6C209.6 36.6 203.2 34.2 193.6 34.2ZM196.8 60.6C195.2 70.2 188 70.2 180.8 70.2H176.8L180 51.8C180 51 180.8 50.2 182.4 50.2H184C188.8 50.2 193.6 50.1999 196 53.3999C196.8 54.1999 197.6 56.6 196.8 60.6Z" fill="#263B80"/>
<path d="M276 59.8H263.2C262.4 59.8 260.8 60.5999 260.8 61.3999L260 65.3999L259.2 63.8C256 59.8 250.4 58.2 244 58.2C229.6 58.2 216.8 69.4 214.4 84.6C212.8 92.6 215.2 99.8 219.2 104.6C223.2 109.4 228.8 111 236 111C248 111 254.4 103.8 254.4 103.8L253.6 107.8C253.6 109.4 254.4 110.2 256 110.2H268C269.6 110.2 271.2 108.6 272 107L279.2 62.2C278.4 61.4 276.8 59.8 276 59.8ZM257.6 85.3999C256 92.5999 250.4 98.2 242.4 98.2C238.4 98.2 235.2 96.6 233.6 95C232 92.6 231.2 89.3999 231.2 85.3999C232 78.1999 238.4 72.6 245.6 72.6C249.6 72.6 252 74.1999 254.4 75.7999C256.8 78.1999 257.6 82.1999 257.6 85.3999Z" fill="#263B80"/>
<path d="M471.2 59.8H458.4C457.6 59.8 456 60.5999 456 61.3999L455.2 65.3999L454.4 63.8C451.2 59.8 445.6 58.2 439.2 58.2C424.8 58.2 412 69.4 409.6 84.6C408 92.6 410.4 99.8 414.4 104.6C418.4 109.4 424 111 431.2 111C443.2 111 449.6 103.8 449.6 103.8L448.8 107.8C448.8 109.4 449.6 110.2 451.2 110.2H463.2C464.8 110.2 466.4 108.6 467.2 107L474.4 62.2C473.6 61.4 472.8 59.8 471.2 59.8ZM452.8 85.3999C451.2 92.5999 445.6 98.2 437.6 98.2C433.6 98.2 430.4 96.6 428.8 95C427.2 92.6 426.4 89.3999 426.4 85.3999C427.2 78.1999 433.6 72.6 440.8 72.6C444.8 72.6 447.2 74.1999 449.6 75.7999C452.8 78.1999 453.6 82.1999 452.8 85.3999Z" fill="#139AD6"/>
<path d="M345.6 59.8H332C330.4 59.8 329.6 60.6 328.8 61.4L311.2 88.6001L303.2 63C302.4 61.4 301.6 60.6001 299.2 60.6001H286.4C284.8 60.6001 284 62.2 284 63.8L298.4 106.2L284.8 125.4C284 127 284.8 129.4 286.4 129.4H299.2C300.8 129.4 301.6 128.6 302.4 127.8L346.4 64.6001C348.8 62.2001 347.2 59.8 345.6 59.8Z" fill="#263B80"/>
<path d="M486.4 36.6L475.2 108.6C475.2 110.2 476 111 477.6 111H488.8C490.4 111 492 109.4 492.8 107.8L504 37.4C504 35.8 503.2 35 501.6 35H488.8C488 34.2 487.2 35 486.4 36.6Z" fill="#139AD6"/>
<path d="M92 10.2C86.4 3.79997 76 0.599976 61.6 0.599976H21.6C19.2 0.599976 16.8 2.99996 16 5.39996L0 110.2C0 112.6 1.6 114.2 3.2 114.2H28L34.4 75V76.6C35.2 74.2 37.6 71.8 40 71.8H52C75.2 71.8 92.8 62.2 98.4 35.8C98.4 35 98.4 34.2 98.4 33.4C97.6 33.4 97.6 33.4 98.4 33.4C99.2 23 97.6 16.6 92 10.2Z" fill="#263B80"/>
<path d="M97.6 33.4C97.6 34.2 97.6 35 97.6 35.8C92 63 74.4 71.8 51.2 71.8H39.2C36.8 71.8 34.4 74.2 33.6 76.6L25.6 125.4C25.6 127 26.4 128.6 28.8 128.6H49.6C52 128.6 54.4 127 54.4 124.6V123.8L58.4 99V97.4C58.4 95 60.8 93.4 63.2 93.4H66.4C86.4 93.4 102.4 85.4 106.4 61.4C108 51.8 107.2 43 102.4 37.4C101.6 35.8 100 34.2 97.6 33.4Z" fill="#139AD6"/>
<path d="M92 31C91.2 31 90.4 30.2 89.6 30.2C88.8 30.2 88 30.2 87.2 29.4C84 28.6 80.8 28.6 76.8 28.6H45.6C44.8 28.6 44 28.6 43.2 29.4C41.6 30.2 40.8 31.8 40.8 33.4L34.4 75V76.6C35.2 74.2 37.6 71.8 40 71.8H52C75.2 71.8 92.8 62.2 98.4 35.8C98.4 35 98.4 34.2 99.2 33.4C97.6 32.6 96.8 31.8 95.2 31.8C92.8 31 92.8 31 92 31Z" fill="#232C65"/>
</svg>
