<svg width="160" height="100" viewBox="0 0 160 100" fill="none" xmlns="http://www.w3.org/2000/svg">
<path d="M160 9H0V89H160V9Z" fill="#F6F6F6"/>
<path fill-rule="evenodd" clip-rule="evenodd" d="M148 1.01147e-06C140 1.76645e-06 55.3008 -1.60318e-06 8 1.01147e-06C4 1.23258e-06 0 4 0 8V20H160C160 20 160 38.5719 160 12C160 4 156 1.01147e-06 148 1.01147e-06Z" fill="#1A1F71"/>
<path fill-rule="evenodd" clip-rule="evenodd" d="M0 80C0 80 9.66373e-07 80 0 88C-4.6284e-07 96 4 100 12 100C56.6232 100 140 100 148 100C156 100 160 96 160 88V80H0Z" fill="#F7B600"/>
<path fill-rule="evenodd" clip-rule="evenodd" d="M111.615 29.7821C109.372 28.9225 105.858 28 101.47 28C90.2864 28 82.4084 33.7551 82.3412 42.0028C82.2782 48.0998 87.9654 51.5008 92.2587 53.5306C96.6645 55.6103 98.1455 56.9368 98.1243 58.7939C98.0965 61.6381 94.606 62.9375 91.3529 62.9375C86.8227 62.9375 84.4159 62.2944 80.6987 60.7102L79.2402 60.0359L77.6516 69.5345C80.2951 70.7188 85.1838 71.7451 90.2597 71.7982C102.157 71.7982 109.881 66.1092 109.969 57.3016C110.012 52.4746 106.996 48.8014 100.466 45.7732C96.5098 43.8103 94.087 42.5005 94.1126 40.5129C94.1126 38.7492 96.1634 36.8633 100.594 36.8633C104.296 36.8046 106.977 37.6293 109.066 38.4889L110.08 38.9785L111.615 29.7821Z" fill="#1A1F71"/>
<path fill-rule="evenodd" clip-rule="evenodd" d="M140.638 28.7779H131.892C129.183 28.7779 127.156 29.5335 125.966 32.2966L109.156 71.182H121.041C121.041 71.182 122.985 65.9536 123.424 64.8057C124.723 64.8057 136.269 64.8239 137.92 64.8239C138.258 66.3092 139.297 71.182 139.297 71.182H149.799L140.638 28.7779ZM126.682 56.1268C127.618 53.6821 131.191 44.2655 131.191 44.2655C131.124 44.3784 132.12 41.8088 132.692 40.2157L133.457 43.874C133.457 43.874 135.624 54.0025 136.077 56.1264L126.682 56.1268Z" fill="#1A1F71"/>
<path fill-rule="evenodd" clip-rule="evenodd" d="M59.2499 71.1685L66.3265 28.7374H77.645L70.5636 71.1685H59.2499Z" fill="#1A1F71"/>
<path fill-rule="evenodd" clip-rule="evenodd" d="M49.7568 28.7684L38.6756 57.7032L37.4949 51.8231C35.4321 45.0447 29.0048 37.7006 21.8194 34.0239L31.9518 71.1319L43.9271 71.118L61.7461 28.7684H49.7568Z" fill="#1A1F71"/>
<path fill-rule="evenodd" clip-rule="evenodd" d="M28.3956 28.7421H10.1445L10 29.6249C24.1992 33.1371 33.5947 41.6248 37.4947 51.8231L33.5261 32.3243C32.841 29.6375 30.8538 28.8358 28.3956 28.7421Z" fill="#F7B600"/>
</svg>
