<?xml version="1.0" encoding="UTF-8" standalone="no"?><!-- Generator: Gravit.io --><svg xmlns="http://www.w3.org/2000/svg" xmlns:xlink="http://www.w3.org/1999/xlink" style="isolation:isolate" viewBox="0 0 385 671" width="385pt" height="671pt"><defs><clipPath id="_clipPath_rpnipDHYP38St5bFDUU8tQglwzshFf7d"><rect width="385" height="671"/></clipPath></defs><g clip-path="url(#_clipPath_rpnipDHYP38St5bFDUU8tQglwzshFf7d)"><g><path d=" M 378.784 169.336 L 378.851 127.712 L 378.919 127.712 C 382.297 127.712 385.066 129.887 384.999 132.545 L 384.864 164.624 C 384.931 167.221 382.161 169.336 378.784 169.336 L 378.784 169.336 Z " fill="rgb(206,200,196)"/><g opacity="0.35"><path d=" M 315.484 671 L 57.49 670.215 C 27.495 670.154 3.31 648.345 3.378 621.522 L 5.472 53.223 C 5.54 26.4 29.927 4.773 59.922 4.833 L 315.214 5.558 C 345.209 5.618 369.393 27.427 369.326 54.25 L 367.232 624.966 C 367.164 650.46 343.993 671.06 315.484 671 L 315.484 671 Z " fill="rgb(0,0,0)"/></g><path d=" M 327.644 666.167 L 69.65 665.382 C 39.655 665.321 15.47 643.512 15.538 616.689 L 17.632 48.39 C 17.7 21.567 42.087 -0.06 72.082 0 L 327.374 0.725 C 357.369 0.785 381.553 22.594 381.486 49.417 L 379.392 620.133 C 379.324 645.627 356.153 666.227 327.644 666.167 Z " fill="rgb(229,184,147)"/><rect x="21.003" y="46.086" width="8.377" height="10.633" transform="matrix(1,0,0,1,0,0)" fill="rgb(224,224,226)"/><rect x="372.494" y="53.051" width="8.377" height="10.633" transform="matrix(-1,0,0,-1,753.365,116.735)" fill="rgb(224,224,226)"/><rect x="20.996" y="594.158" width="8.377" height="10.633" transform="matrix(1,0,0,1,0,0)" fill="rgb(224,224,226)"/><rect x="370.305" y="601.115" width="8.377" height="10.633" transform="matrix(-1,0,0,-1,748.988,1212.862)" fill="rgb(224,224,226)"/><path d=" M 312.985 659.642 L 81.202 658.978 C 38.101 660.186 19.456 633.544 20.942 603.701 L 22.969 56.667 C 21.753 16.311 44.722 1.088 83.634 1.752 L 315.417 2.417 C 363.719 2.417 375.811 27.246 375.676 57.694 L 373.649 604.728 C 374.933 635.961 360.138 659.703 312.985 659.642 Z " fill="rgb(238,239,246)"/><rect x="48.474" y="65.079" width="308.931" height="508.675" transform="matrix(1,0,0,1,0,0)" fill="rgb(255,255,255)"/><path d=" M 168.281 618.199 C 168.281 603.528 181.599 591.618 198.005 591.618 C 214.411 591.618 227.73 603.528 227.73 618.199 C 227.73 632.871 214.411 644.781 198.005 644.781 C 181.599 644.781 168.281 632.871 168.281 618.199 Z " fill="rgb(209,209,211)"/><path d=" M 170.578 618.199 C 170.583 604.655 182.86 593.677 198.005 593.672 C 213.151 593.677 225.427 604.655 225.433 618.199 C 225.427 631.744 213.151 642.722 198.005 642.727 C 182.86 642.722 170.583 631.744 170.578 618.199 Z " fill="rgb(245,245,247)"/><path d=" M 172.131 618.199 C 172.137 605.423 183.718 595.067 198.005 595.062 C 212.293 595.067 223.873 605.423 223.879 618.199 C 223.873 630.976 212.293 641.332 198.005 641.337 C 183.718 641.332 172.137 630.976 172.131 618.199 Z " fill="rgb(219,155,99)"/><path d=" M 175.509 618.199 C 175.515 607.091 185.583 598.087 198.005 598.082 C 210.427 598.087 220.496 607.091 220.501 618.199 C 220.496 629.308 210.427 638.312 198.005 638.317 C 185.583 638.312 175.515 629.308 175.509 618.199 L 175.509 618.199 Z " fill="rgb(238,239,246)"/><path d=" M 224.69 36.852 L 174.023 36.731 C 172.402 36.731 171.118 36.006 171.118 35.1 L 171.118 35.039 C 171.118 34.133 172.402 33.408 174.023 33.408 L 224.69 33.529 C 226.311 33.529 227.594 34.254 227.594 35.16 L 227.594 35.221 C 227.594 36.127 226.311 36.852 224.69 36.852 Z  M 194.425 16.734 C 194.426 14.265 196.665 12.263 199.427 12.264 C 202.189 12.265 204.427 14.268 204.426 16.737 C 204.425 19.207 202.186 21.209 199.424 21.208 C 196.662 21.207 194.424 19.204 194.425 16.734 L 194.425 16.734 Z  M 155.715 38.302 C 155.715 37.401 156.532 36.67 157.539 36.67 C 158.547 36.67 159.363 37.401 159.363 38.302 C 159.363 39.202 158.547 39.933 157.539 39.933 C 156.532 39.933 155.715 39.202 155.715 38.302 Z " fill="rgb(47,50,57)"/><g opacity="0.35"><path d=" M 4.729 168.611 L 4.932 126.987 L 4.864 126.987 C 2.229 126.987 0.135 129.101 0.135 131.759 L 0 163.838 C 0 166.497 2.094 168.611 4.729 168.611 Z " fill="rgb(0,0,0)"/></g><path d=" M 16.889 163.778 L 17.092 122.154 L 17.024 122.154 C 14.389 122.154 12.295 124.268 12.295 126.926 L 12.16 159.005 C 12.16 161.664 14.254 163.778 16.889 163.778 Z " fill="rgb(206,200,196)"/><g opacity="0.35"><path d=" M 4.594 222.801 L 4.796 181.177 L 4.729 181.177 C 2.77 181.177 1.216 183.291 1.216 185.949 L 1.081 218.028 C 1.081 220.626 2.635 222.801 4.594 222.801 Z " fill="rgb(0,0,0)"/></g><path d=" M 16.754 217.968 L 16.956 176.344 L 16.889 176.344 C 14.93 176.344 13.376 178.458 13.376 181.116 L 13.241 213.195 C 13.241 215.793 14.795 217.968 16.754 217.968 Z " fill="rgb(206,200,196)"/><g opacity="0.35"><path d=" M 4.864 120.704 L 4.999 92.793 C 3.513 92.793 2.297 94.243 2.297 95.995 L 2.229 117.502 C 2.162 119.254 3.378 120.704 4.864 120.704 Z " fill="rgb(0,0,0)"/></g><path d=" M 17.024 115.871 L 17.159 87.96 C 15.673 87.96 14.457 89.41 14.457 91.162 L 14.389 112.669 C 14.322 114.421 15.538 115.871 17.024 115.871 Z " fill="rgb(206,200,196)"/></g></g></svg>