<svg xmlns="http://www.w3.org/2000/svg" height="666.667" width="666.667"><path d="M666.667 666.667H0V0h666.667v666.667" fill="#fdfcde"/><path d="M255.948 524.716c81.617 0 147.748 1.87 147.748 4.19 0 2.28-66.13 4.153-147.748 4.153-81.577 0-147.709-1.872-147.709-4.152 0-2.32 66.132-4.191 147.709-4.191M236.51 441.316h28.697l18.917 74.688h-67.17l19.557-74.688" fill="#464648" fill-rule="evenodd"/><path d="M269.397 457.963l5.07 19.902h-47.534l5.228-19.902h37.236" fill="#2f2d2e" fill-rule="evenodd"/><path d="M124.802 293.772h251.515c12.054 0 21.951 10.053 21.951 22.385v125.77c0 12.332-9.897 22.428-21.95 22.428H124.801c-12.093 0-21.99-10.096-21.99-22.428v-125.77c0-12.332 9.897-22.385 21.99-22.385" fill="#464648" fill-rule="evenodd"/><path d="M135.057 306.919h231.006c9.297 0 16.961 7.774 16.961 17.297v109.693c0 9.484-7.664 17.298-16.961 17.298H135.057c-9.338 0-17-7.814-17-17.298V324.216c0-9.523 7.662-17.297 17-17.297" fill="#949595" fill-rule="evenodd"/><path d="M136.256 311.803h228.608c7.621 0 13.888 6.389 13.888 14.165v106.15c0 7.774-6.267 14.163-13.888 14.163H136.256c-7.664 0-13.889-6.389-13.889-14.164V325.968c0-7.776 6.225-14.165 13.889-14.165" fill="#7ed2b3" fill-rule="evenodd"/><path d="M190.415 507.905h120.25c5.228 0 9.459 4.355 9.459 9.646 0 5.332-4.23 9.646-9.459 9.646h-120.25c-5.188 0-9.459-4.314-9.459-9.646 0-5.291 4.27-9.646 9.459-9.646" fill="#5f6062" fill-rule="evenodd"/><path d="M359.755 455.073c1.237 0 2.274 1.059 2.274 2.32 0 1.303-1.037 2.362-2.274 2.362-1.276 0-2.314-1.059-2.314-2.362 0-1.261 1.038-2.32 2.314-2.32" fill="#efee0f" fill-rule="evenodd"/><path d="M152.06 346.36l38.435-21.613a2.502 2.502 0 0 1 3.392.974c.64 1.223.198 2.77-.998 3.462l-38.433 21.572a2.415 2.415 0 0 1-3.353-.976c-.679-1.222-.24-2.767.957-3.419M144.477 366.67l66.97-37.61c2.076-1.18 4.71-.407 5.868 1.75 1.157 2.117.398 4.805-1.676 5.943l-66.971 37.65c-2.075 1.14-4.75.365-5.867-1.751-1.157-2.117-.4-4.803 1.676-5.983M363.147 401.063l-59.984 33.698c-1.876 1.059-4.231.37-5.27-1.545-.997-1.912-.318-4.315 1.518-5.372l60.025-33.701c1.836-1.016 4.19-.324 5.227 1.588 1.037 1.872.361 4.273-1.516 5.332M356.363 419.296l-34.444 19.335a2.155 2.155 0 0 1-2.992-.896c-.599-1.099-.2-2.483.837-3.052l34.443-19.376a2.286 2.286 0 0 1 3.034.897c.559 1.099.2 2.483-.878 3.092" fill="#5f6062" fill-rule="evenodd"/><path d="M341.915 311.803h22.949c7.621 0 13.888 6.389 13.888 14.165v33.66c-13.01 5.25-27.019 6.553-30.89 4.924l-1.954.57-5.71 3.013 7.546 13.594-22.232 12.862 1.956 3.541-83.375 48.15H135.537a14.374 14.374 0 0 1-2.953-8.71v-25.928L285.8 323.117l1.995 3.542 22.23-12.862 7.583 13.676 19.198-10.094.677 1.302 4.272-6.308.159-.57" fill="#55af90" fill-rule="evenodd"/><path d="M318.288 318.477l16.963 38.262s10.734 7.406 33.166-.488c22.47-7.856 44.26-18.072 44.26-18.072l-18.798-52.142s-12.372-14.449-30.572-6.633c-18.199 7.773-31.011 16.525-31.011 16.525l-14.008 22.548" fill="#f9ab7c" fill-rule="evenodd"/><path d="M331.659 348.679l3.592 8.06s10.734 7.406 33.166-.488c22.47-7.856 44.26-18.072 44.26-18.072l-6.545-18.195-74.473 28.695" fill="#c78057" fill-rule="evenodd"/><path d="M279.136 337.039l47.413-24.871 20.992 41.519-47.412 24.908-20.993-41.556" fill="#f9ab7c" fill-rule="evenodd"/><path d="M342.795 344.324l4.746 9.363-47.412 24.908-4.75-9.362 47.416-24.909" fill="#c78057" fill-rule="evenodd"/><path d="M299.77 308.587l-30.213 17.461 37.716 67.932 30.252-17.461-37.756-67.932" fill="#d2c9e9" fill-rule="evenodd"/><path d="M294.183 370.372l13.09 23.608 30.252-17.461-13.132-23.607-30.21 17.46" fill="#beb4e0" fill-rule="evenodd"/><path d="M316.89 371.84c2.515-1.468 5.709-.572 7.145 1.993 1.437 2.563.558 5.862-1.996 7.286-2.514 1.465-5.706.57-7.143-1.995-1.436-2.565-.52-5.861 1.995-7.284" fill="#d2c9e9" fill-rule="evenodd"/><path d="M122.367 406.393l153.217-88.485 41.667 75.013-92.832 53.606h-88.163c-7.664 0-13.889-6.391-13.889-14.166v-25.968" fill="#612b2f" fill-rule="evenodd"/><path d="M302.164 365.773l15.087 27.108-92.832 53.646h-62.062l139.807-80.754" fill="#4c2123" fill-rule="evenodd"/><path d="M317.41 372.775c1.995-1.14 4.509-.408 5.667 1.628 1.118 2.036.439 4.64-1.557 5.78a4.169 4.169 0 0 1-5.707-1.588c-1.117-2.036-.398-4.639 1.598-5.82" fill="#7a7c7d" fill-rule="evenodd"/><path d="M318.528 374.81a.765.765 0 0 1 1.037.285c.199.365.079.854-.28 1.057-.398.244-.837.081-1.077-.285a.773.773 0 0 1 .32-1.058M319.644 376.804c.36-.203.839-.081 1.039.284a.82.82 0 0 1-.32 1.1c-.359.203-.798.081-1.038-.327a.772.772 0 0 1 .319-1.057" fill="#602e15" fill-rule="evenodd"/><path d="M488.188 178.301c11.813-3.46 24.185 3.5 27.617 15.548 3.392 12.088-3.432 24.706-15.245 28.166-.759.244-1.517.406-2.275.569l-5.109-18.112-3.033-10.745-4.15-14.652c.716-.286 1.436-.53 2.195-.774" fill="#ed1f24" fill-rule="evenodd"/><path d="M350.017 271.468l45.139 98.904 42.864-12.617-70.643-94.143-17.36 7.856" fill="#d2c9e9" fill-rule="evenodd"/><path d="M392.563 371.147l49.368-14.531c2.434-.733 4.989.733 5.706 3.216.679 2.481-.717 5.128-3.152 5.82l-49.329 14.53c-2.433.734-5.028-.733-5.747-3.215-.68-2.483.719-5.127 3.154-5.82" fill="#5f6062" fill-rule="evenodd"/><path d="M371.328 202.275l101.175-70.822 17.64 62.274 3.033 10.745 17.641 62.273-122.645-4.884-6.905-24.42-3.034-10.746-6.905-24.42" fill="#d2c9e9" fill-rule="evenodd"/><path d="M493.216 204.553l17.601 62.192-122.645-4.884-6.905-24.34 111.949-32.968" fill="#b0a5d9" fill-rule="evenodd"/><path d="M475.615 121.075c3.074-.896 6.306.934 7.185 4.068L522.83 266.5c.878 3.136-.878 6.432-3.951 7.368-3.074.896-6.306-.936-7.224-4.07L471.665 128.4c-.917-3.133.878-6.43 3.95-7.325" fill="#5f6062" fill-rule="evenodd"/><path d="M504.35 201.256l18.48 65.244c.878 3.136-.878 6.432-3.951 7.368-3.074.896-6.306-.936-7.224-4.07l-18.439-65.245 11.135-3.297" fill="#464648" fill-rule="evenodd"/><path d="M327.827 211.432l39.709-11.681c5.23-1.547 10.737 1.546 12.215 6.878l13.289 46.93c1.519 5.33-1.515 10.908-6.744 12.454l-39.71 11.682c-5.19 1.546-10.698-1.547-12.214-6.879l-13.25-46.93c-1.517-5.291 1.517-10.907 6.705-12.454" fill="#978ecf" fill-rule="evenodd"/><path d="M387.932 235.528l5.108 18.03c1.519 5.331-1.515 10.909-6.744 12.455l-39.71 11.682c-5.19 1.546-10.698-1.547-12.214-6.879l-5.068-17.99 58.628-17.298" fill="#827bc5" fill-rule="evenodd"/><path d="M312.861 224.579l7.902-2.32c.08.529.2 1.098.358 1.628l13.251 46.929c.159.57.36 1.099.599 1.587l-7.943 2.361c-3.95 1.139-8.101-1.18-9.219-5.21l-10.058-35.533c-1.156-4.029 1.158-8.262 5.11-9.442" fill="#5f6062" fill-rule="evenodd"/><path d="M329.304 252.827l5.068 17.989c.159.57.36 1.099.599 1.587l-7.943 2.361c-3.95 1.139-8.101-1.18-9.219-5.21l-3.512-12.331 15.007-4.396" fill="#464648" fill-rule="evenodd"/><path d="M414.992 177.935l35.88-24.096c1.956-1.303 4.59-.732 5.865 1.261 1.318 1.995.759 4.681-1.196 5.984l-35.88 24.136c-1.956 1.303-4.589.732-5.866-1.261-1.319-1.995-.759-4.682 1.197-6.024M404.493 185.016l.642-.447c1.954-1.304 4.628-.733 5.905 1.262 1.277 1.953.76 4.68-1.196 5.982l-.68.448a4.185 4.185 0 0 1-5.865-1.221c-1.318-1.993-.76-4.721 1.194-6.024" fill="#fff" fill-rule="evenodd"/><path d="M532.41 185.545l33.443-9.646c3.072-.895 6.266.937 7.144 4.07.878 3.135-.917 6.431-3.99 7.286l-33.446 9.688c-3.033.854-6.264-.978-7.144-4.071-.837-3.135.958-6.43 3.992-7.327M536.44 232.637l33.684 8.711c3.113.773 4.988 4.03 4.23 7.163-.798 3.133-3.951 5.088-7.065 4.273l-33.684-8.67c-3.073-.813-4.95-4.029-4.189-7.162.799-3.175 3.948-5.088 7.024-4.315M514.45 151.681l24.185-25.398c2.234-2.319 2.194-6.064-.119-8.343-2.276-2.279-5.948-2.199-8.183.121l-24.225 25.399c-2.195 2.32-2.157 6.105.119 8.344 2.314 2.279 5.986 2.239 8.222-.123" fill="#ed1f24" fill-rule="evenodd"/><path d="M387.493 331.34l.559-.244c-3.393 1.343-7.263-.45-8.58-3.947l-1.199-3.217c-1.276-3.501.479-7.448 3.912-8.75-3.433 1.302-7.304-.489-8.581-3.95l-1.196-3.255c-1.319-3.501.439-7.449 3.87-8.752l-.438.163c-3.195 1.221-6.785-.407-7.981-3.664l-1.119-3.05c-1.199-3.257.399-6.92 3.592-8.142l28.896-11.112c3.19-1.221 6.784.408 7.98 3.664l1.119 3.052c1.198 3.256-.4 6.92-3.592 8.141l2.514-.977c3.432-1.343 7.304.448 8.58 3.95l1.199 3.253c1.317 3.461-.441 7.408-3.872 8.712 3.43-1.304 7.303.488 8.581 3.988l1.195 3.216c1.28 3.5-.437 7.448-3.87 8.75l-3.351 1.303c3.112-1.221 6.624.408 7.781 3.581l1.119 2.974c1.157 3.173-.44 6.756-3.552 7.936L392.88 345.83c-3.114 1.181-6.626-.408-7.822-3.58l-1.079-2.974c-1.196-3.174.4-6.757 3.513-7.937" fill="#f9ab7c" fill-rule="evenodd"/><path d="M387.493 331.34l.559-.244c-3.232 1.261-6.864-.287-8.341-3.379l43.424-16.729c.917 3.337-.84 6.92-4.072 8.181l-3.352 1.303a7.73 7.73 0 0 1 1.317-.365l-30.732 11.844a5.522 5.522 0 0 1 1.197-.611M381.667 315.547l.557-.244c-3.232 1.261-6.864-.284-8.34-3.378l43.383-16.729c.918 3.337-.798 6.92-4.072 8.181l-3.351 1.302c.439-.16.917-.284 1.356-.366l-30.77 11.844c.36-.242.797-.446 1.237-.61M375.24 299.308l.56-.204c-3.035 1.179-6.505-.408-7.984-3.541l40.67-15.671c.918 3.337-.638 6.879-3.671 8.019l-3.154 1.221c.399-.163.839-.244 1.276-.327l-28.813 11.112c.317-.244.717-.448 1.116-.609M390.087 346.196c-2.115-.243-4.151-1.71-5.148-3.907l39.792-15.305c.837 3.012-.32 6.147-2.755 7.572-.28.163-.517.284-.797.365-8.223 3.176-17.642 7-26.82 10.502-1.319.53-1.796 1.098-4.272.773" fill="#c78057" fill-rule="evenodd"/><path d="M325.95 315.099s5.549-25.723 14.289-30.607c8.74-4.884 22.908-11.356 30.253-9.076 7.383 2.279 16.88 29.55 11.773 31.992-5.109 2.481-5.428 4.72-9.738 1.259-4.311-3.459-8.9-17.827-8.9-17.827s-8.46.49-9.58 7.043c-1.595 9.564 17.801 18.478-5.107 27.8-12.652 5.126-16.963 4.598-16.963 4.598l-6.026-15.182" fill="#c78057" fill-rule="evenodd"/><path d="M322.639 312.78s5.586-25.684 14.286-30.61c8.743-4.883 22.911-11.354 30.294-9.074 7.342 2.279 16.842 29.55 11.734 32.03-5.109 2.485-5.429 4.682-9.74 1.222-4.27-3.459-8.898-17.827-8.898-17.827s-8.462.488-9.54 7.042c-1.636 9.564 17.761 18.478-5.107 27.798-12.653 5.171-17.003 4.64-17.003 4.64l-6.026-15.221" fill="#f9ab7c" fill-rule="evenodd"/><path d="M262.71 169.912h-71.511c-11.568 0-21.068 8.584-21.068 19.079v33.112c0 10.496 9.5 19.078 21.068 19.078h56.088l30.844 36.9-14.628-36.934c11.21-.36 20.233-8.8 20.233-19.044V188.99c0-10.495-9.46-19.079-21.027-19.079" fill="#4969bb" fill-rule="evenodd"/><path d="M265.85 182.572h-77.83c-2.307 0-4.213 1.73-4.213 3.823 0 2.092 1.906 3.825 4.213 3.825h77.83c2.305 0 4.213-1.733 4.213-3.825s-1.908-3.823-4.214-3.823M265.85 200.533h-77.83c-2.307 0-4.213 1.732-4.213 3.824 0 2.092 1.906 3.823 4.213 3.823h77.83c2.305 0 4.213-1.73 4.213-3.823 0-2.092-1.908-3.824-4.214-3.824M265.85 218.53h-77.83c-2.307 0-4.213 1.698-4.213 3.826 0 2.092 1.906 3.785 4.213 3.785h77.83c2.305 0 4.213-1.693 4.213-3.785 0-2.128-1.908-3.825-4.214-3.825" fill="#fff" fill-rule="evenodd"/><path d="M138.61 221.69H97.25c-6.69 0-12.185 4.965-12.185 11.034v19.15c0 6.071 5.494 11.035 12.185 11.035h32.44l17.838 21.342-8.46-21.362c6.484-.209 11.703-5.09 11.703-11.014v-19.151c0-6.07-5.472-11.035-12.162-11.035" fill="#80cc28" fill-rule="evenodd"/><path d="M140.425 229.01H95.412c-1.334 0-2.437 1.002-2.437 2.213 0 1.209 1.103 2.212 2.437 2.212h45.013c1.334 0 2.436-1.003 2.436-2.212 0-1.211-1.102-2.212-2.436-2.212M140.425 239.4H95.412c-1.334 0-2.437 1.001-2.437 2.21 0 1.211 1.103 2.213 2.437 2.213h45.013c1.334 0 2.436-1.002 2.436-2.212 0-1.21-1.102-2.211-2.436-2.211M140.425 249.81H95.412c-1.334 0-2.437.98-2.437 2.211 0 1.21 1.103 2.19 2.437 2.19h45.013c1.334 0 2.436-.98 2.436-2.19 0-1.23-1.102-2.212-2.436-2.212" fill="#fff" fill-rule="evenodd"/><path d="M494.08 296.133h57.917c9.37 0 17.064 6.952 17.064 15.452v26.819c0 8.501-7.694 15.453-17.064 15.453h-45.426l-24.983 29.886 11.848-29.915c-9.079-.292-16.387-7.128-16.387-15.424v-26.819c0-8.5 7.662-15.452 17.031-15.452" fill="#fddd10" fill-rule="evenodd"/><path d="M491.536 306.387h63.036c1.868 0 3.412 1.402 3.412 3.096 0 1.694-1.544 3.098-3.412 3.098h-63.036c-1.867 0-3.412-1.404-3.412-3.098s1.545-3.096 3.412-3.096M491.536 320.935h63.036c1.868 0 3.412 1.402 3.412 3.096 0 1.696-1.544 3.097-3.412 3.097h-63.036c-1.867 0-3.412-1.401-3.412-3.097 0-1.694 1.545-3.096 3.412-3.096M491.536 335.512h63.036c1.868 0 3.412 1.373 3.412 3.097 0 1.695-1.544 3.067-3.412 3.067h-63.036c-1.867 0-3.412-1.372-3.412-3.067 0-1.724 1.545-3.097 3.412-3.097" fill="#fff" fill-rule="evenodd"/><path d="M429.441 399.216h36.712c5.939 0 10.818 4.407 10.818 9.795v16.998c0 5.388-4.879 9.796-10.818 9.796H437.36l-15.835 18.943 7.508-18.961c-5.754-.186-10.386-4.519-10.386-9.778v-16.998c0-5.388 4.857-9.795 10.794-9.795" fill="#f1511b" fill-rule="evenodd"/><path d="M427.83 405.715h39.955c1.186 0 2.164.888 2.164 1.962 0 1.074-.978 1.963-2.164 1.963H427.83c-1.184 0-2.162-.89-2.162-1.963 0-1.074.978-1.962 2.162-1.962M427.83 414.936h39.955c1.186 0 2.164.89 2.164 1.963 0 1.074-.978 1.962-2.164 1.962H427.83c-1.184 0-2.162-.888-2.162-1.962 0-1.074.978-1.963 2.162-1.963M427.83 424.176h39.955c1.186 0 2.164.87 2.164 1.963 0 1.074-.978 1.945-2.164 1.945H427.83c-1.184 0-2.162-.87-2.162-1.945 0-1.092.978-1.963 2.162-1.963" fill="#fff" fill-rule="evenodd"/><path d="M231.712 631.99c0 .614.096 1.134.287 1.563.189.43.45.755.78.974.333.217.693.329 1.085.329.397 0 .76-.105 1.088-.313.328-.206.592-.523.787-.95.196-.428.294-.964.294-1.604 0-.601-.098-1.118-.294-1.555-.195-.429-.46-.76-.795-.99a1.904 1.904 0 0 0-1.096-.343c-.413 0-.784.118-1.11.35-.325.237-.578.571-.757 1.012-.18.44-.269.947-.269 1.526zm4.444 3.32v-.226c-.303.35-.601.632-.897.848a3.32 3.32 0 0 1-.96.497c-.346.116-.722.17-1.13.17a3.327 3.327 0 0 1-1.502-.342 3.498 3.498 0 0 1-1.196-.981 4.435 4.435 0 0 1-.767-1.499 6.407 6.407 0 0 1-.26-1.862c0-1.41.345-2.514 1.035-3.303.69-.788 1.597-1.183 2.724-1.183.649 0 1.2.112 1.645.335.45.221.883.568 1.308 1.03v-3.335c0-.464.093-.814.279-1.05.184-.237.448-.356.789-.356.343 0 .607.11.792.327.184.218.277.539.277.964v9.966c0 .43-.1.753-.298.967a.999.999 0 0 1-.771.321.979.979 0 0 1-.764-.333c-.203-.222-.304-.543-.304-.955M241.701 631.28h4.099c-.056-.773-.265-1.353-.625-1.735-.363-.385-.839-.574-1.427-.574-.564 0-1.027.193-1.388.58-.361.392-.581.965-.659 1.73zm4.42 1.283h-4.42c.006.512.108.965.312 1.356.2.391.468.688.802.886a2.12 2.12 0 0 0 1.105.296c.27 0 .516-.03.74-.092.225-.066.44-.164.65-.3.211-.134.403-.28.58-.436.177-.153.406-.365.687-.63.116-.096.282-.147.498-.147.232 0 .418.063.561.192.143.127.216.304.216.537 0 .204-.08.442-.24.715-.16.274-.403.535-.724.788a4.195 4.195 0 0 1-1.219.624c-.485.167-1.048.246-1.684.246-1.45 0-2.578-.412-3.384-1.238-.806-.83-1.209-1.95-1.209-3.37 0-.669.1-1.287.299-1.858.198-.57.488-1.059.868-1.47.381-.407.85-.72 1.408-.94a5.065 5.065 0 0 1 1.854-.326c.882 0 1.64.187 2.271.559.632.373 1.105.853 1.42 1.443.315.591.472 1.193.472 1.805 0 .57-.163.936-.488 1.105-.324.168-.784.255-1.375.255M256.417 633.644c0 .624-.15 1.159-.454 1.604-.303.444-.751.781-1.347 1.01-.59.228-1.313.34-2.163.34-.81 0-1.506-.123-2.085-.37-.58-.25-1.008-.559-1.284-.93-.276-.376-.413-.749-.413-1.123 0-.251.086-.46.265-.639a.911.911 0 0 1 .67-.261c.237 0 .42.056.546.172.127.117.248.278.364.487.232.406.51.703.832.905.323.197.763.297 1.32.297.453 0 .824-.103 1.115-.301.288-.204.433-.434.433-.694 0-.396-.15-.684-.45-.866-.302-.184-.797-.358-1.487-.524-.779-.191-1.411-.395-1.899-.61-.49-.21-.88-.492-1.172-.837-.292-.348-.437-.777-.437-1.284 0-.45.134-.88.404-1.283.272-.402.669-.723 1.198-.965.526-.24 1.16-.36 1.906-.36.585 0 1.11.061 1.576.184.468.119.857.284 1.169.488.31.204.548.43.71.677.163.25.245.49.245.728a.85.85 0 0 1-.26.64c-.175.163-.422.247-.742.247a.902.902 0 0 1-.59-.199 3.956 3.956 0 0 1-.559-.594 2.068 2.068 0 0 0-.605-.532c-.231-.132-.547-.196-.944-.196-.408 0-.747.084-1.019.259-.268.174-.404.389-.404.647 0 .239.099.434.296.586.2.151.468.278.805.377.336.1.799.22 1.391.362.7.171 1.272.38 1.716.612.444.238.78.518 1.012.843.227.323.341.69.341 1.103M259.844 628.695v6.532c0 .452-.108.794-.323 1.025a1.07 1.07 0 0 1-.821.346c-.33 0-.599-.115-.807-.354-.206-.236-.309-.577-.309-1.017v-6.466c0-.446.103-.782.31-1.01.207-.224.475-.339.806-.339.333 0 .605.115.821.339.215.228.323.542.323.944zm-1.117-2.332c-.316 0-.584-.099-.807-.291-.225-.192-.336-.465-.336-.821 0-.32.113-.582.343-.788.229-.208.496-.312.8-.312.293 0 .55.094.777.282.225.188.34.46.34.818 0 .35-.11.62-.332.817-.22.195-.481.295-.785.295M263.195 631.932c0 .917.2 1.61.6 2.077.4.47.917.705 1.553.705.375 0 .73-.1 1.063-.302.334-.203.605-.507.816-.91.208-.407.314-.898.314-1.477 0-.924-.204-1.641-.609-2.154-.404-.512-.939-.77-1.601-.77-.646 0-1.163.247-1.552.74-.39.488-.584 1.187-.584 2.09zm6.549-2.865v6.566c0 .748-.081 1.395-.243 1.938-.158.537-.416.986-.769 1.34-.353.35-.815.616-1.387.785-.568.172-1.281.257-2.13.257-.778 0-1.474-.11-2.086-.328-.612-.217-1.084-.5-1.416-.842-.329-.347-.496-.7-.496-1.064a.87.87 0 0 1 .282-.675.954.954 0 0 1 .677-.263c.332 0 .621.148.87.44.12.148.246.301.375.452.132.152.275.28.431.388.159.108.348.19.568.242.221.052.475.076.761.076.586 0 1.039-.08 1.362-.243.324-.163.55-.39.68-.684.129-.29.205-.603.226-.938.023-.333.04-.873.051-1.61-.35.487-.75.855-1.205 1.11-.455.251-.998.38-1.627.38-.756 0-1.416-.196-1.983-.58-.565-.387-1-.926-1.301-1.622-.305-.696-.456-1.497-.456-2.408 0-.68.092-1.293.276-1.839a3.86 3.86 0 0 1 .792-1.381 3.382 3.382 0 0 1 1.183-.85 3.753 3.753 0 0 1 1.472-.285c.641 0 1.196.124 1.665.368.468.246.905.631 1.308 1.156v-.308c0-.39.095-.693.29-.91a.968.968 0 0 1 .745-.323c.434 0 .725.143.868.427.144.283.217.693.217 1.228M273.333 628.663v.273c.398-.524.834-.91 1.304-1.155.472-.245 1.014-.369 1.626-.369.597 0 1.129.13 1.598.39.47.26.82.626 1.052 1.1.148.277.246.575.29.894.042.321.066.73.066 1.226v4.205c0 .452-.102.794-.31 1.025a1.032 1.032 0 0 1-.807.346c-.339 0-.61-.115-.82-.354-.21-.236-.313-.577-.313-1.017v-3.768c0-.743-.106-1.314-.312-1.708-.207-.394-.62-.592-1.238-.592-.402 0-.77.12-1.101.36a2.06 2.06 0 0 0-.728.99c-.11.335-.165.963-.165 1.887v2.83c0 .458-.107.803-.319 1.031-.212.23-.488.341-.823.341a1.02 1.02 0 0 1-.804-.354c-.209-.236-.314-.577-.314-1.017v-6.532c0-.43.093-.752.282-.964.187-.212.443-.319.77-.319.198 0 .377.048.538.143.159.093.288.233.384.418.096.19.144.42.144.69M282.663 631.28h4.096c-.056-.773-.264-1.353-.626-1.735-.361-.385-.836-.574-1.428-.574-.562 0-1.025.193-1.386.58-.362.392-.579.965-.656 1.73zm4.418 1.283h-4.418c.004.512.108.965.309 1.356.203.391.47.688.804.886.332.2.701.296 1.104.296.27 0 .517-.03.74-.092.224-.066.44-.164.65-.3.21-.134.402-.28.58-.436.177-.153.405-.365.686-.63.117-.096.281-.147.497-.147.232 0 .42.063.563.192.144.127.215.304.215.537 0 .204-.08.442-.24.715-.16.274-.402.535-.724.788a4.178 4.178 0 0 1-1.216.624c-.49.167-1.051.246-1.686.246-1.45 0-2.578-.412-3.385-1.238-.804-.83-1.208-1.95-1.208-3.37 0-.669.099-1.287.297-1.858.199-.57.49-1.059.871-1.47.38-.407.85-.72 1.405-.94a5.075 5.075 0 0 1 1.855-.326c.884 0 1.64.187 2.272.559.632.373 1.105.853 1.42 1.443.313.591.472 1.193.472 1.805 0 .57-.163.936-.488 1.105-.325.168-.784.255-1.375.255M291.848 631.99c0 .614.095 1.134.285 1.563.191.43.452.755.784.974.331.217.691.329 1.083.329a1.99 1.99 0 0 0 1.088-.313c.33-.206.59-.523.787-.95.196-.428.293-.964.293-1.604 0-.601-.097-1.118-.293-1.555-.196-.429-.46-.76-.794-.99a1.912 1.912 0 0 0-1.098-.343c-.414 0-.783.118-1.108.35-.326.237-.579.571-.759 1.012-.179.44-.268.947-.268 1.526zm4.444 3.32v-.226c-.303.35-.603.632-.897.848a3.348 3.348 0 0 1-.959.497 3.53 3.53 0 0 1-1.13.17 3.323 3.323 0 0 1-1.503-.342 3.51 3.51 0 0 1-1.196-.981 4.433 4.433 0 0 1-.766-1.499 6.362 6.362 0 0 1-.26-1.862c0-1.41.343-2.514 1.034-3.303.689-.788 1.598-1.183 2.722-1.183.652 0 1.202.112 1.648.335.447.221.883.568 1.307 1.03v-3.335c0-.464.093-.814.279-1.05.184-.237.448-.356.79-.356s.604.11.791.327c.184.218.276.539.276.964v9.966c0 .43-.097.753-.296.967-.2.215-.456.321-.77.321a.986.986 0 0 1-.767-.333c-.202-.222-.303-.543-.303-.955M305.637 632.057c0 .899.204 1.588.616 2.072.411.485.95.727 1.618.727.568 0 1.058-.25 1.469-.742.41-.495.617-1.2.617-2.125 0-.594-.084-1.109-.257-1.537-.17-.432-.413-.764-.728-1.001a1.808 1.808 0 0 0-1.101-.35c-.43 0-.814.118-1.151.35-.336.237-.601.576-.795 1.018-.192.447-.288.974-.288 1.588zm-.108-6.713v3.45c.424-.442.859-.78 1.3-1.013.44-.237.987-.352 1.639-.352.75 0 1.408.178 1.973.535.564.355 1.004.872 1.316 1.546.312.676.468 1.48.468 2.405 0 .686-.086 1.313-.26 1.885a4.484 4.484 0 0 1-.758 1.484c-.331.419-.734.745-1.204.973a3.52 3.52 0 0 1-1.56.341c-.348 0-.676-.04-.982-.123a2.769 2.769 0 0 1-.782-.327 3.462 3.462 0 0 1-.55-.416 8.874 8.874 0 0 1-.6-.648v.226c0 .423-.104.743-.306.965a1.015 1.015 0 0 1-.779.323c-.32 0-.575-.106-.765-.323-.191-.222-.287-.542-.287-.965v-9.867c0-.46.093-.804.277-1.039.187-.236.444-.35.775-.35.348 0 .616.109.804.332.187.224.281.54.281.958M315.155 636.883l.206-.506-2.781-7.004c-.17-.401-.256-.693-.256-.876 0-.193.05-.373.15-.538.1-.167.234-.3.409-.398.173-.098.354-.149.541-.149.327 0 .57.104.737.31.167.209.312.503.439.89l1.912 5.563 1.812-5.173c.144-.42.273-.747.39-.986.117-.236.238-.397.369-.479.129-.084.312-.125.549-.125.172 0 .336.048.493.139.156.09.279.212.364.366.084.155.128.317.128.49-.022.103-.057.252-.108.448-.05.19-.11.39-.181.585l-2.945 7.713c-.256.68-.503 1.211-.746 1.598a2.43 2.43 0 0 1-.965.89c-.4.208-.94.312-1.619.312-.661 0-1.158-.072-1.488-.213-.332-.147-.498-.408-.498-.788 0-.259.077-.46.237-.601.156-.14.39-.214.699-.214.121 0 .24.019.357.052.143.033.267.051.37.051.26 0 .465-.04.614-.118.15-.077.283-.207.401-.4.119-.191.255-.471.41-.84M347.89 627.608h.54v-.677c0-.712.086-1.272.265-1.688a1.71 1.71 0 0 1 .914-.912c.427-.188 1.012-.286 1.755-.286 1.325 0 1.983.32 1.983.971 0 .21-.07.39-.21.537a.637.637 0 0 1-.488.223c-.085 0-.24-.016-.457-.05a4.11 4.11 0 0 0-.544-.05c-.407 0-.668.124-.788.361-.11.242-.17.583-.17 1.034v.537h.551c.864 0 1.291.257 1.291.781 0 .363-.113.6-.343.7-.228.1-.545.151-.948.151h-.55v5.987c0 .444-.107.785-.326 1.017-.209.239-.48.353-.82.353-.32 0-.584-.114-.798-.353-.214-.232-.318-.573-.318-1.017v-5.987h-.622c-.338 0-.595-.075-.779-.23a.728.728 0 0 1-.275-.59c0-.544.38-.812 1.138-.812M355.288 633.337v1.89c0 .456-.115.801-.327 1.028a1.06 1.06 0 0 1-.816.342c-.334 0-.6-.113-.808-.346-.205-.231-.313-.574-.313-1.024v-6.295c0-1.015.364-1.524 1.097-1.524.379 0 .648.119.815.356.167.239.257.588.276 1.052.267-.464.544-.813.827-1.052.289-.237.664-.356 1.141-.356.476 0 .935.119 1.381.356.45.239.674.555.674.944a.897.897 0 0 1-.286.683c-.19.18-.396.27-.614.27-.087 0-.29-.054-.604-.156a2.92 2.92 0 0 0-.84-.15c-.331 0-.602.089-.811.26-.212.178-.376.432-.492.771a5.731 5.731 0 0 0-.237 1.223c-.044.474-.063 1.05-.063 1.728M361.255 631.275h4.098c-.054-.77-.262-1.35-.624-1.731-.365-.385-.836-.575-1.429-.575-.563 0-1.025.19-1.385.582-.364.39-.584.963-.66 1.724m4.421 1.285h-4.421c.006.512.106.968.309 1.357.204.39.47.686.804.888.336.197.701.295 1.107.295.272 0 .517-.028.74-.097.222-.062.44-.162.649-.298a4.09 4.09 0 0 0 .579-.436c.178-.15.408-.361.689-.626a.771.771 0 0 1 .496-.152c.233 0 .417.065.565.194.146.128.212.306.212.537 0 .207-.078.445-.232.715-.165.277-.406.536-.728.791a4.296 4.296 0 0 1-1.22.623c-.485.165-1.049.246-1.684.246-1.454 0-2.582-.41-3.386-1.236-.804-.832-1.211-1.956-1.211-3.373 0-.67.101-1.288.303-1.859a3.96 3.96 0 0 1 .87-1.472c.378-.41.846-.721 1.403-.94a5.05 5.05 0 0 1 1.855-.326c.88 0 1.641.188 2.27.564.634.367 1.112.85 1.422 1.442.316.592.472 1.191.472 1.807 0 .564-.166.933-.49 1.101-.325.17-.782.255-1.373.255M370.657 631.275h4.096c-.056-.77-.266-1.35-.622-1.731-.368-.385-.839-.575-1.432-.575-.562 0-1.024.19-1.39.582-.358.39-.578.963-.652 1.724m4.42 1.285h-4.42c.004.512.108.968.31 1.357.2.39.468.686.801.888.335.197.703.295 1.108.295a2.463 2.463 0 0 0 1.388-.395c.212-.133.403-.276.58-.436.173-.15.404-.361.687-.626.117-.096.284-.152.497-.152.232 0 .42.065.567.194.141.128.209.306.209.537 0 .207-.076.445-.24.715-.155.277-.396.536-.723.791a4.217 4.217 0 0 1-1.218.623c-.483.165-1.051.246-1.683.246-1.455 0-2.58-.41-3.388-1.236-.805-.832-1.21-1.956-1.21-3.373 0-.67.1-1.288.303-1.859a4.008 4.008 0 0 1 .868-1.472c.378-.41.847-.721 1.406-.94a5.061 5.061 0 0 1 1.856-.326c.878 0 1.636.188 2.277.564.627.367 1.103.85 1.412 1.442.315.592.476 1.191.476 1.807 0 .564-.167.933-.49 1.101-.327.17-.785.255-1.373.255M384.459 631.964c0-.597-.095-1.11-.275-1.537-.181-.431-.435-.756-.755-.983a1.808 1.808 0 0 0-1.074-.347c-.622 0-1.15.25-1.576.738-.428.492-.646 1.214-.646 2.17 0 .896.216 1.6.643 2.098.424.5.945.75 1.579.75.373 0 .725-.112 1.044-.326.322-.22.578-.547.769-.98.193-.44.29-.967.29-1.583m-4.431-3.284v.272c.424-.527.866-.91 1.329-1.155.452-.248.975-.373 1.553-.373.692 0 1.338.181 1.923.54.585.358 1.044.883 1.384 1.572.343.695.512 1.508.512 2.452 0 .695-.099 1.336-.293 1.919a4.272 4.272 0 0 1-.81 1.462 3.61 3.61 0 0 1-1.209.914c-.473.21-.97.314-1.507.314-.644 0-1.189-.126-1.625-.388-.439-.254-.857-.638-1.257-1.137v3.392c0 .99-.362 1.49-1.084 1.49-.428 0-.704-.129-.846-.385-.132-.26-.205-.63-.205-1.124v-9.756c0-.43.093-.748.28-.964.188-.209.445-.317.77-.317.32 0 .58.108.782.326.204.22.303.533.303.946M390.123 628.69v6.54c0 .447-.107.79-.322 1.02-.218.234-.49.347-.821.347-.332 0-.597-.114-.808-.353-.204-.24-.31-.579-.31-1.015v-6.474c0-.445.106-.782.31-1.004.21-.232.476-.343.808-.343.33 0 .603.11.821.343.215.222.322.541.322.938m-1.12-2.333a1.19 1.19 0 0 1-.806-.29c-.224-.198-.336-.465-.336-.817 0-.322.114-.584.346-.794.229-.204.492-.31.796-.31.297 0 .554.094.78.277.225.193.34.469.34.827 0 .347-.111.619-.33.815a1.16 1.16 0 0 1-.79.292M397.408 635.568l-1.99-3.283-1.227 1.159v1.8c0 .433-.116.768-.346 1-.224.239-.493.353-.79.353-.348 0-.623-.113-.819-.346-.2-.231-.301-.574-.301-1.024v-9.643c0-.5.1-.881.289-1.144.195-.265.473-.395.83-.395.35 0 .62.12.829.36.201.234.308.586.308 1.048v5.483l2.54-2.668c.316-.33.553-.559.721-.679a.986.986 0 0 1 .6-.181c.285 0 .519.09.712.27a.907.907 0 0 1 .277.674c0 .33-.308.775-.917 1.325l-1.201 1.102 2.318 3.643c.168.273.295.474.368.615a.89.89 0 0 1 .115.403c0 .362-.1.64-.299.85-.193.207-.456.307-.77.307-.278 0-.492-.069-.639-.224-.15-.146-.357-.418-.608-.805M402.317 636.597a1.28 1.28 0 0 1-.884-.332c-.245-.216-.372-.525-.372-.926 0-.336.12-.627.356-.867.24-.244.531-.365.88-.365.346 0 .64.121.892.358.243.24.367.535.367.874 0 .394-.124.704-.367.924a1.258 1.258 0 0 1-.872.334M413.559 633.802c0 .28-.086.582-.254.9-.166.325-.426.626-.77.917-.344.289-.778.522-1.303.698a5.547 5.547 0 0 1-1.77.267c-1.4 0-2.49-.408-3.274-1.22-.78-.815-1.172-1.907-1.172-3.278 0-.929.177-1.747.537-2.46a3.872 3.872 0 0 1 1.552-1.653c.68-.39 1.496-.582 2.436-.582a4.87 4.87 0 0 1 1.614.257c.488.17.9.393 1.244.662.336.274.596.56.773.866.18.307.267.592.267.857 0 .27-.098.5-.298.688-.205.188-.449.282-.729.282a.756.756 0 0 1-.472-.144 2.133 2.133 0 0 1-.419-.473c-.276-.414-.561-.733-.866-.94-.3-.212-.683-.315-1.146-.315-.664 0-1.205.26-1.616.783-.406.518-.613 1.235-.613 2.137 0 .425.055.818.161 1.176.102.354.254.658.452.909.202.25.442.44.722.57.282.134.592.198.926.198.454 0 .842-.106 1.164-.318.328-.209.614-.529.862-.958.136-.253.285-.452.442-.596a.858.858 0 0 1 .588-.216.87.87 0 0 1 .687.315c.184.21.275.434.275.67M421.043 632.005c0-.921-.206-1.638-.608-2.15-.406-.519-.948-.775-1.632-.775-.444 0-.834.115-1.171.342-.336.23-.595.567-.776 1.015-.183.45-.275.97-.275 1.568 0 .59.088 1.105.27 1.546.18.444.437.78.77 1.016.339.233.73.353 1.182.353.684 0 1.226-.259 1.632-.779.402-.513.608-1.227.608-2.136m2.268 0a5.54 5.54 0 0 1-.308 1.864 4.151 4.151 0 0 1-.918 1.463 4.028 4.028 0 0 1-1.42.94 5.083 5.083 0 0 1-1.862.326c-.686 0-1.303-.109-1.851-.333a4.052 4.052 0 0 1-1.417-.943 4.245 4.245 0 0 1-.916-1.46 5.513 5.513 0 0 1-.304-1.857c0-.686.108-1.312.313-1.878.208-.574.51-1.06.903-1.46a4.043 4.043 0 0 1 1.421-.933 5.062 5.062 0 0 1 1.85-.326c.685 0 1.303.108 1.863.332.556.219 1.031.536 1.431.943.4.412.701.896.908 1.456.203.566.307 1.182.307 1.866M431.932 632.17v3.006c0 .476-.104.828-.321 1.068-.219.239-.498.354-.852.354-.342 0-.623-.115-.83-.354-.216-.24-.325-.592-.325-1.068v-3.601c0-.568-.017-1.012-.053-1.328-.04-.31-.147-.572-.316-.77-.172-.204-.444-.306-.812-.306-.74 0-1.227.251-1.46.766-.232.504-.354 1.232-.354 2.185v3.054c0 .467-.106.824-.316 1.067a1.093 1.093 0 0 1-.84.355c-.346 0-.625-.12-.845-.355-.217-.243-.325-.6-.325-1.067v-6.468c0-.424.096-.75.292-.968a.986.986 0 0 1 .774-.332c.311 0 .567.108.778.308.204.21.308.494.308.86v.212c.394-.466.816-.81 1.26-1.028a3.229 3.229 0 0 1 1.492-.336c.566 0 1.054.115 1.461.34.41.225.744.57 1.013 1.024.382-.459.791-.803 1.227-1.028a3.123 3.123 0 0 1 1.448-.336c.616 0 1.152.125 1.597.365.447.242.78.592 1.002 1.043.193.413.286 1.053.286 1.93v4.414c0 .476-.104.828-.318 1.068-.214.239-.5.354-.854.354-.345 0-.622-.12-.841-.355-.219-.243-.328-.6-.328-1.067v-3.803c0-.487-.02-.875-.06-1.165a1.336 1.336 0 0 0-.333-.737c-.184-.198-.462-.3-.831-.3-.296 0-.579.092-.85.268a1.816 1.816 0 0 0-.626.706c-.161.383-.248 1.06-.248 2.026M326.741 631.457c-.002-.002-.002-.006-.002-.016 0 .01 0 .014.002.016M326.855 632.181h.004a8.023 8.023 0 0 1-.106-.612c.028.204.06.407.102.612M327.532 634.139c-.02-.039-.037-.08-.057-.117l.057.117M327.065 632.988c.111.35.243.688.399 1.01a7.79 7.79 0 0 1-.396-1.01h-.003M335.488 622.8c.437 0 .761.035 1.13.097l.105-.666s-1.022-.312-2.363-.203l-.105-.363a.92.92 0 0 0-.192-1.82.92.92 0 1 0-.192 1.82l.117.403a9.395 9.395 0 0 0-2.557.75l.2.616c.862-.288 1.609-.462 2.286-.534.666-.07 1.166-.1 1.571-.1M327.587 626.16l.004-.005c.034-.043.066-.086.1-.126l-.274-.194-.424-.313c-.024.033-.694.649-1.221 1.785a.775.775 0 0 0-.08-.103c-.159-.175-.379-.26-.66-.256h-.013a.527.527 0 0 1-.371-.13.583.583 0 1 0-.315.207.881.881 0 0 0 .704.29c.172-.002.298.044.382.136.097.105.129.258.14.373l-.003.003c-.38 1.037-.272 2.328-.272 2.328l.921.037c.019-.47.087-1.292.324-1.944.459-1.265 1.035-2.053 1.058-2.088M343.504 623.57a.582.582 0 0 0-.583.58c0 .05.01.1.023.147a.889.889 0 0 0-.296.705c.003.173-.041.298-.133.38a.594.594 0 0 1-.259.123c-.685-.962-1.53-1.546-1.53-1.546l-.66.708c.5.454 1.01 1.024 1.505 1.734.344.491.697 1.126.989 1.755l.895-.422s-.408-1.007-.983-1.912a.829.829 0 0 0 .29-.166c.174-.158.26-.381.254-.661 0-.18.06-.303.13-.386.1.077.225.127.358.127a.584.584 0 0 0 0-1.167" fill="#2c292a"/><path d="M341.19 631.59c-1.227.596-3.249 1.386-5.909 1.76a22.01 22.01 0 0 1-2.989.197c-1.21 0-2.283-.09-3.104-.194a22.903 22.903 0 0 1-2.12-.365 7.79 7.79 0 0 0 .407 1.034c.02.038.037.078.057.117l.056.11c.007.01.01.019.015.03.264.496.581.952.942 1.35 1.255 1.368 2.534 1.588 2.546 1.59l.02.002.017.006c.012.006 1.147.371 2.87.371 1.695 0 3.358-.343 4.945-1.017 1.174-.602 2.285-1.513 2.834-2.328.427-.628.734-1.3.915-1.998.097-.371.172-.964.13-1.591-.347.234-.894.565-1.631.925" fill="#2c292a"/><path d="M331.492 625.81a2.455 2.455 0 1 1-.004 4.91 2.455 2.455 0 0 1 .004-4.91zm7.181.06c.838 0 1.52.682 1.52 1.52s-.682 1.52-1.52 1.52-1.52-.682-1.52-1.52.682-1.52 1.52-1.52zm-10.692.582c-.037.053-.569.805-.989 1.963-.316.866-.301 2.129-.301 2.145v.003c0 .296.016.588.048.878 0 .01 0 .014.002.016.004.039.01.072.012.112.028.202.06.404.106.612.609.155 4.25 1.005 8.32.438 2.552-.358 4.486-1.11 5.662-1.68a12.362 12.362 0 0 0 1.85-1.08c-.243-.895-.908-2.3-1.52-3.176-1.748-2.498-3.632-3.14-4.598-3.298a6.182 6.182 0 0 0-1.085-.094c-.39 0-.873.03-1.517.098-.65.068-1.371.24-2.208.519-1.175.394-2.238 1.01-3.074 1.787l-.028.024a6.241 6.241 0 0 0-.68.733" fill="#2c292a"/></svg>