<svg xmlns="http://www.w3.org/2000/svg" style="isolation:isolate" width="70" height="70"><defs><clipPath id="a"><path d="M0 0h70v70H0z"/></clipPath></defs><g clip-path="url(#a)"><path fill="none" d="M0 0h70v70H0z"/><path d="M4.573 2.667C2.542 2.667.88 4.333.88 6.37s1.662 3.704 3.693 3.704S8.267 8.407 8.267 6.37c0-.564-.137-1.092-.365-1.574a8.317 8.317 0 0 1 6.049 6.609l1.962 11.194 3.578 20.808h.076l1.309 7.448c.437 2.491 2.514 4.337 4.995 4.546a4.612 4.612 0 0 0-.984 2.821c0 2.547 2.078 4.63 4.617 4.63s4.617-2.083 4.617-4.63c0-1.045-.365-2-.952-2.778h6.539c.48 7.741 6.888 13.889 14.727 13.889 8.147 0 14.773-6.644 14.773-14.814 0-7.387-5.421-13.51-12.48-14.616a6.77 6.77 0 0 0 .549-1.465l4.772-19.94-45.635-3.736-.645-3.676c-.858-4.866-5.074-8.415-10.002-8.419H4.573zm0 1.852c1.031 0 1.847.817 1.847 1.851a1.835 1.835 0 0 1-1.847 1.852A1.835 1.835 0 0 1 2.726 6.37c0-1.034.816-1.851 1.847-1.851zM16.764 16.65l42.983 3.519-4.27 17.838a4.53 4.53 0 0 1-.812 1.708c-.075 0-.151-.011-.23-.011-2.59 0-5.022.676-7.138 1.852H21.122l-3.423-19.477-.935-5.429zm9.97 5.461a.928.928 0 0 0-.924.926c0 .509.416.926.924.926a.927.927 0 0 0 0-1.852zm5.54 0a.927.927 0 0 0 0 1.852.927.927 0 0 0 0-1.852zm5.54 0a.927.927 0 0 0 0 1.852.927.927 0 0 0 0-1.852zm5.54 0a.927.927 0 0 0 0 1.852.928.928 0 0 0 .924-.926.928.928 0 0 0-.924-.926zm5.54 0a.928.928 0 0 0-.923.926c0 .509.416.926.923.926a.928.928 0 0 0 .924-.926.928.928 0 0 0-.924-.926zm-22.16 3.704a.927.927 0 0 0-.924.926c0 .509.416.926.924.926a.927.927 0 0 0 0-1.852zm5.54 0a.927.927 0 0 0 0 1.852.927.927 0 0 0 0-1.852zm5.54 0a.927.927 0 0 0 0 1.852.927.927 0 0 0 0-1.852zm5.54 0a.927.927 0 0 0 0 1.852.928.928 0 0 0 .924-.926.927.927 0 0 0-.924-.926zm5.54 0a.927.927 0 0 0 0 1.852.928.928 0 0 0 .924-.926.927.927 0 0 0-.924-.926zm-22.16 3.704a.927.927 0 0 0-.924.925c0 .51.416.926.924.926a.927.927 0 0 0 0-1.851zm5.54 0a.926.926 0 0 0 0 1.851.927.927 0 0 0 0-1.851zm5.54 0a.926.926 0 0 0 0 1.851.927.927 0 0 0 0-1.851zm5.54 0a.926.926 0 0 0 0 1.851.927.927 0 0 0 .924-.926.927.927 0 0 0-.924-.925zm5.54 0a.927.927 0 0 0-.923.925c0 .51.416.926.923.926a.927.927 0 0 0 .924-.926.927.927 0 0 0-.924-.925zm-22.16 3.703a.928.928 0 0 0-.924.926c0 .509.416.926.924.926a.927.927 0 0 0 0-1.852zm5.54 0a.927.927 0 0 0 0 1.852.927.927 0 0 0 0-1.852zm5.54 0a.927.927 0 0 0 0 1.852.927.927 0 0 0 0-1.852zm5.54 0a.927.927 0 0 0 0 1.852.928.928 0 0 0 .924-.926.928.928 0 0 0-.924-.926zm5.54 0a.928.928 0 0 0-.923.926c0 .509.416.926.923.926a.928.928 0 0 0 .924-.926.928.928 0 0 0-.924-.926zm-22.16 3.704a.928.928 0 0 0-.924.926c0 .509.416.926.924.926a.927.927 0 0 0 0-1.852zm5.54 0a.927.927 0 0 0 0 1.852.927.927 0 0 0 0-1.852zm5.54 0a.927.927 0 0 0 0 1.852.927.927 0 0 0 0-1.852zm5.54 0a.927.927 0 0 0 0 1.852.928.928 0 0 0 .924-.926.928.928 0 0 0-.924-.926zm5.54 0a.928.928 0 0 0-.923.926c0 .509.416.926.923.926a.928.928 0 0 0 .924-.926.928.928 0 0 0-.924-.926zm5.541 4.63c7.148 0 12.927 5.794 12.927 12.963 0 7.168-5.779 12.962-12.927 12.962-7.149 0-12.927-5.794-12.927-12.962 0-7.169 5.778-12.963 12.927-12.963zm-32.992 1.851h23.253a14.77 14.77 0 0 0-4.984 10.186H26.333a3.688 3.688 0 0 1-3.639-3.064l-1.251-7.122zm32.068 4.63v5.556h-5.54v1.851h5.54V61h1.847v-5.556h5.54v-1.851h-5.54v-5.556h-1.847zm-24.007 7.407c1.54 0 2.77 1.234 2.77 2.778A2.76 2.76 0 0 1 29.504 61a2.76 2.76 0 0 1-2.77-2.778 2.761 2.761 0 0 1 2.77-2.778zm0 1.852a.928.928 0 0 0-.924.926c0 .509.416.926.924.926a.927.927 0 0 0 0-1.852z" fill="#FFF"/></g></svg>