<svg xmlns="http://www.w3.org/2000/svg" width="70" height="70"><defs fill="none"><mask id="maskSivxrv2q7pkd"><rect x="35" width="35" height="70" rx="0" ry="0" fill="#fff"/></mask></defs><g class="content"><g class="base"><g fill="none" fill-rule="evenodd" class="main-fill"><path d="M25.54 21.93c1.307-.15 2.634-.059 3.947-.096-1.333 1.67-2.485 3.583-2.673 5.75-.391 3.349 1.326 6.644 3.908 8.697.68.386.435 1.225.41 1.86-.166 1.601-.398 3.182-.516 4.77 2.022-1.172 3.826-2.696 5.903-3.767 4.174.79 8.726.305 12.37-2.016-.002 1.833.002 3.678.003 5.512.042 2.115-1.248 4.185-3.181 5.035-.894.446-1.907.527-2.882.496-5.538-.018-11.07.004-16.61-.007-2.777-.02-5.205-2.507-5.212-5.28-.022-5.098.015-10.198.007-15.3-.152-2.655 1.94-5.18 4.526-5.654zm7.296 3.584c-.927.965-1.588 2.246-1.6 3.608-.104 1.854.93 3.613 2.373 4.714 3.053 2.32 7.496 2.507 10.818.64 1.829-1.02 3.332-2.904 3.36-5.07.073-1.92-1.044-3.733-2.589-4.813-1.72-1.266-3.885-1.817-6.006-1.735-2.344.037-4.728.925-6.356 2.656z" class="main-fill"/></g></g><g class="masked" mask="url('#maskSivxrv2q7pkd')"><g fill="none" fill-rule="evenodd" class="main-fill--darken"><path d="M25.54 21.93c1.307-.15 2.634-.059 3.947-.096-1.333 1.67-2.485 3.583-2.673 5.75-.391 3.349 1.326 6.644 3.908 8.697.68.386.435 1.225.41 1.86-.166 1.601-.398 3.182-.516 4.77 2.022-1.172 3.826-2.696 5.903-3.767 4.174.79 8.726.305 12.37-2.016-.002 1.833.002 3.678.003 5.512.042 2.115-1.248 4.185-3.181 5.035-.894.446-1.907.527-2.882.496-5.538-.018-11.07.004-16.61-.007-2.777-.02-5.205-2.507-5.212-5.28-.022-5.098.015-10.198.007-15.3-.152-2.655 1.94-5.18 4.526-5.654zm7.296 3.584c-.927.965-1.588 2.246-1.6 3.608-.104 1.854.93 3.613 2.373 4.714 3.053 2.32 7.496 2.507 10.818.64 1.829-1.02 3.332-2.904 3.36-5.07.073-1.92-1.044-3.733-2.589-4.813-1.72-1.266-3.885-1.817-6.006-1.735-2.344.037-4.728.925-6.356 2.656z" class="main-fill--darken"/></g></g></g><style>.main-fill{fill:#b12048}.main-fill--darken{fill:#70142e}</style></svg>