<svg xmlns="http://www.w3.org/2000/svg" width="512" height="512"><circle cx="256" cy="256" r="256" fill="#ff641a"/><path d="M512 256c0-22.912-3.027-45.114-8.673-66.246L401.986 88.413l-76.621 76.621L248.5 330.5 88.114 396.368l108.755 108.755A256.668 256.668 0 0 0 256 512c141.385 0 256-114.615 256-256z" fill="#f03800"/><path d="M256 405c-27.176 0-54.073-5.133-78.202-14.891a73.532 73.532 0 0 1-13.708 8.238c-14.545 6.729-30.454 8.373-46.104 4.778L88 396.339l17.614-12.708c8.911-6.652 15.592-16.16 19.168-27.147C101.432 333.94 88 305.281 88 276.375c0-70.56 75.724-127.969 168-127.969 16.659 0 33.088 1.855 48.834 5.518C375.721 170.362 424 219.572 424 276.375 424 346.935 348.276 405 256 405z" fill="#ffda2d"/><path d="M424 276.375c0-56.803-48.279-106.013-119.166-122.451-15.746-3.663-32.175-5.518-48.834-5.518V405c92.276 0 168-58.065 168-128.625z" fill="#fdbf00"/><path d="M177.25 305.906c-16.284 0-29.531-13.247-29.531-29.531s13.247-29.531 29.531-29.531 29.531 13.247 29.531 29.531-13.247 29.531-29.531 29.531zM256 305.906c-16.284 0-29.531-13.247-29.531-29.531s13.247-29.531 29.531-29.531 29.531 13.247 29.531 29.531-13.247 29.531-29.531 29.531z" fill="#3e5959"/><path d="M256 246.844c-.012 0-.022.004-.034.004v59.055c.012 0 .022.004.034.004 16.284 0 29.531-13.247 29.531-29.531S272.284 246.844 256 246.844zM334.75 305.906c-16.284 0-29.531-13.247-29.531-29.531s13.247-29.531 29.531-29.531 29.531 13.247 29.531 29.531-13.247 29.531-29.531 29.531z" fill="#293939"/><path fill="#00ab94" d="M339.869 111.197l-72.647 72.449-20.869 62.607 62.803-20.869 79.924-79.924-33.717-32.163z"/><path fill="#95a8ce" d="M382.656 69L353.65 97.415l2.018 15.923-.305-.041 33.717 32.163L424 110.344z"/><path fill="#293939" d="M423.344 166.913l-69.694 69.496-13.978-13.782 55.716-55.714-13.782-13.979-41.737-41.737 13.781-13.782 41.738 41.737z"/></svg>