<svg xmlns="http://www.w3.org/2000/svg" viewBox="0 0 512 512"><circle cx="245" cy="262.5" r="245" fill="#91e0e8"/><path d="M57 159.831H22.503C8.068 191.061 0 225.836 0 262.5c0 4.353.118 8.681.342 12.978H57V159.831z" fill="#445ea0"/><path d="M415.377 338.75h-21.496v80.873h21.496c5.5 0 10-4.5 10-10V348.75c0-5.5-4.5-10-10-10z" fill="#293d7c"/><path fill="#eef6ff" d="M281.707 334.99v88.393l82.733 49.363v-187.12z"/><path d="M394.881 488.565c0 2.75-2.25 5-5 5h-21.44c-2.75 0-5-2.25-5-5V269.807c0-2.75 2.25-5 5-5h21.44c2.75 0 5 2.25 5 5v218.758z" fill="#fe3745"/><path d="M380.616 488.565V269.807c0-2.75 2.25-5 5-5H368.44c-2.75 0-5 2.25-5 5v218.759c0 2.75 2.25 5 5 5h17.176c-2.75-.001-5-2.251-5-5.001z" fill="#b7092b"/><path d="M190.918 342.151h-23.181c-2.75 0-5 2.25-5 5v64.068c0 2.75 2.25 5 5 5h23.181v-74.068z" fill="#eef6ff"/><path d="M177.247 411.22v-64.068c0-2.75 2.25-5 5-5h-14.51c-2.75 0-5 2.25-5 5v64.068c0 2.75 2.25 5 5 5h14.51c-2.75 0-5-2.25-5-5z" fill="#d9eafc"/><path d="M282.707 423.863c0 2.75-2.25 5-5 5h-82.789c-2.75 0-5-2.25-5-5v-89.357c0-2.75 2.25-5 5-5h82.789c2.75 0 5 2.25 5 5v89.357z" fill="#fe3745"/><path d="M209.761 423.863v-89.357c0-2.75 2.25-5 5-5h-19.843c-2.75 0-5 2.25-5 5v89.357c0 2.75 2.25 5 5 5h19.843c-2.75 0-5-2.25-5-5z" fill="#b7092b"/><path d="M484.526 85.141c0-2.75-2.25-5-5-5H343.075c-2.75 0-5 2.25-5 5v94.956c0 2.75 2.25 5 5 5h41.189c2.75 0 6.347 1.802 7.994 4.005l16.048 21.468c1.646 2.203 4.342 2.203 5.988 0l16.048-21.468c1.647-2.203 5.244-4.005 7.994-4.005h41.189c2.75 0 5-2.25 5-5V85.141h.001z" fill="#52bbef"/><path d="M357.918 180.097V85.141c0-2.75 2.25-5 5-5h-19.843c-2.75 0-5 2.25-5 5v94.956c0 2.75 2.25 5 5 5h19.843c-2.75 0-5-2.25-5-5z" fill="#1e99d6"/><g fill="#fff"><path d="M454.143 117.24h-85.684a7.499 7.499 0 0 1-7.5-7.5 7.5 7.5 0 0 1 7.5-7.5h85.684a7.5 7.5 0 0 1 7.5 7.5 7.5 7.5 0 0 1-7.5 7.5zM454.143 140.492h-85.684c-4.143 0-7.5-3.357-7.5-7.5s3.357-7.5 7.5-7.5h85.684c4.143 0 7.5 3.357 7.5 7.5a7.5 7.5 0 0 1-7.5 7.5zM411.472 163.743h-43.013c-4.143 0-7.5-3.357-7.5-7.5s3.357-7.5 7.5-7.5h43.013c4.143 0 7.5 3.357 7.5 7.5s-3.358 7.5-7.5 7.5z"/></g><circle cx="268.01" cy="60.11" r="55.606" fill="#fe3745"/><path d="M232.243 60.106c0-27.322 19.711-50.025 45.685-54.706a55.834 55.834 0 0 0-9.922-.9c-30.71 0-55.605 24.896-55.605 55.606s24.895 55.605 55.605 55.605c3.389 0 6.7-.319 9.922-.9-25.974-4.68-45.685-27.383-45.685-54.705z" fill="#b7092b"/><path d="M267.907 90.716a3.353 3.353 0 0 1-2.392-.998L239.248 63.23c-3.168-3.195-4.912-7.447-4.912-11.973 0-4.524 1.744-8.777 4.912-11.971 3.17-3.199 7.388-4.959 11.873-4.959 4.484 0 8.699 1.76 11.873 4.959l5.009 5.051 5.013-5.051c3.169-3.199 7.385-4.959 11.871-4.959 4.488 0 8.702 1.76 11.874 4.959 3.171 3.196 4.916 7.449 4.916 11.971s-1.745 8.772-4.918 11.973l-26.472 26.496a3.34 3.34 0 0 1-2.38.99z" fill="#fff"/><path d="M77.172 368.426c-.762 0-1.478-.3-2.019-.843l-22.172-22.357c-2.674-2.697-4.146-6.286-4.146-10.106 0-3.818 1.473-7.408 4.146-10.105a14.014 14.014 0 0 1 10.021-4.185c3.785 0 7.343 1.485 10.022 4.185l4.228 4.264 4.231-4.264a14.009 14.009 0 0 1 10.021-4.185c3.788 0 7.345 1.485 10.022 4.185a14.254 14.254 0 0 1 4.15 10.105c0 3.817-1.473 7.405-4.151 10.106L79.18 367.591a2.816 2.816 0 0 1-2.008.835z" fill="#fe3745"/><path d="M64.158 340.56c-2.674-2.697-4.147-6.286-4.147-10.107 0-3.585 1.313-6.958 3.684-9.59-.23-.012-.459-.034-.692-.034a14.012 14.012 0 0 0-10.021 4.185c-2.674 2.696-4.146 6.286-4.146 10.105 0 3.82 1.473 7.409 4.146 10.106l22.172 22.357a2.832 2.832 0 0 0 2.019.843 2.82 2.82 0 0 0 2.009-.835l5.914-5.92-20.938-21.11z" fill="#b7092b"/><path d="M186.172 282.236v-13.803c0-7.72 6.28-14 14-14h3.236a1 1 0 1 0 0-2c-7.72 0-14-6.28-14-14V224.63c0-7.72 6.28-14 14-14a1 1 0 1 0 0-2c-7.72 0-14-6.28-14-14v-13.805c0-7.72 6.28-14 14-14a1 1 0 1 0 0-2h-6.179c-7.72 0-14-6.28-14-14V137.02c0-6.858 4.96-12.568 11.479-13.761V69.52c0-8.25-6.75-15-15-15l-23.331.001c-8.25 0-15.911 6.688-17.026 14.862l-9.398 68.958c-1.111 8.143-6.992 14.808-13.091 14.857v130.003h69.358c-.021-.32-.048-.638-.048-.965z" fill="#ffe2b8"/><path d="M179.709 54.52l-23.331.001c-8.25 0-15.911 6.688-17.026 14.862l-9.398 68.958c-1.111 8.143-6.992 14.808-13.091 14.857v19.849l19.773-.001c6.123 0 12.045-6.688 13.16-14.862l9.398-68.958c1.115-8.174 8.776-14.862 17.026-14.862l18.488-.001V69.52c.001-8.25-6.749-15-14.999-15z" fill="#ffc987"/><path d="M200.172 297.236c-8.25 0-15-6.75-15-15v-13.803c0-8.25 6.75-15 15-15h81.35c8.25 0 15 6.75 15 15v13.803c0 8.25-6.75 15-15 15h-81.35z" fill="#ffe2b8"/><path d="M61 299.478c-2.75 0-5-2.25-5-5V140.83c0-2.75 2.25-5 5-5h51.862c2.75 0 5 2.25 5 5v153.647c0 2.75-2.25 5-5 5H61v.001z" fill="#293d7c"/><path d="M75.843 294.478V140.83c0-2.75 2.25-5 5-5H61c-2.75 0-5 2.25-5 5v153.647c0 2.75 2.25 5 5 5h19.843c-2.75.001-5-2.249-5-4.999z" fill="#1a2b63"/><circle cx="86.93" cy="160.32" r="13.386" fill="#aec1ed"/><g fill="#ffe2b8"><path d="M197.23 165.826c-8.25 0-15-6.75-15-15v-13.805c0-8.25 6.75-15 15-15h84.292c8.25 0 15 6.75 15 15v13.805c0 8.25-6.75 15-15 15H197.23zM203.408 209.631c-8.25 0-15-6.75-15-15v-13.805c0-8.25 6.75-15 15-15h81.765c8.25 0 15 6.75 15 15v13.805c0 8.25-6.75 15-15 15h-81.765zM203.408 253.434c-8.25 0-15-6.75-15-15v-13.803c0-8.25 6.75-15 15-15h81.765c8.25 0 15 6.75 15 15v13.803c0 8.25-6.75 15-15 15h-81.765z"/></g><g fill="#ffc987"><path d="M215.613 281.795c-8.25 0-15-6.75-15-15v-13.361h-.441c-8.25 0-15 6.75-15 15v13.803c0 8.25 6.75 15 15 15h81.35c8.25 0 15-6.75 15-15v-.441h-80.909v-.001zM212.671 150.385c-8.25 0-15-6.75-15-15v-13.363h-.441c-8.25 0-15 6.75-15 15v13.805c0 8.25 6.75 15 15 15h84.292c8.25 0 15-6.75 15-15v-.441h-83.851v-.001z"/><path d="M218.85 194.189c-8.25 0-15-6.75-15-15v-13.363h-.441c-8.25 0-15 6.75-15 15v13.805c0 8.25 6.75 15 15 15h81.765c8.25 0 15-6.75 15-15v-.441l-81.324-.001zM218.85 237.992c-8.25 0-15-6.75-15-15v-13.361h-.441c-8.25 0-15 6.75-15 15v13.803c0 8.25 6.75 15 15 15h81.765c8.25 0 15-6.75 15-15v-.441H218.85v-.001z"/></g><path d="M121.984 389.646H32.527a1.998 1.998 0 0 0-1.988 1.997v57.4c0 1.099.894 1.997 1.988 1.997h89.457a1.998 1.998 0 0 0 1.988-1.997v-57.4a1.997 1.997 0 0 0-1.988-1.997z" fill="#ffaf10"/><path d="M50.382 449.043v-43.719l-19.363-14.965a2 2 0 0 1 .3-.289 1.989 1.989 0 0 0-.779 1.572v57.4c0 1.099.894 1.997 1.988 1.997H52.37a1.996 1.996 0 0 1-1.988-1.996z" fill="#ef9614"/><path d="M121.984 389.646H32.527c-.605 0-1.144.281-1.509.714l44.662 34.518c.867.67 2.285.67 3.151 0l44.661-34.518a1.967 1.967 0 0 0-1.508-.714z" fill="#ffd00d"/><path d="M510.012 232.153h-89.457a1.998 1.998 0 0 0-1.988 1.997v57.4c0 1.099.895 1.997 1.988 1.997h89.457A1.998 1.998 0 0 0 512 291.55v-57.4a1.999 1.999 0 0 0-1.988-1.997z" fill="#ffaf10"/><path d="M438.409 291.551v-43.719l-19.363-14.965a2 2 0 0 1 .3-.289 1.989 1.989 0 0 0-.779 1.572v57.4c0 1.099.895 1.997 1.988 1.997h19.843a1.998 1.998 0 0 1-1.989-1.996z" fill="#ef9614"/><path d="M510.012 232.153h-89.457c-.605 0-1.144.281-1.509.714l44.662 34.518c.867.67 2.285.67 3.151 0l44.661-34.518a1.974 1.974 0 0 0-1.508-.714z" fill="#ffd00d"/></svg>