<svg xmlns="http://www.w3.org/2000/svg" width="70" height="70"><defs fill="none"><mask id="maskSivxrv2q7o6d"><rect x="35" width="35" height="70" rx="0" ry="0" fill="#fff"/></mask></defs><g class="content"><g class="base"><g fill="none" fill-rule="evenodd" class="main-fill"><path d="M34.946 23.537C27.241 23.537 21 28.224 21 34.01c0 3.112 1.81 5.899 4.674 7.824-.259 1.453-.754 3.219-1.705 4.637 1.236 0 4.333-1.441 6.533-2.54 1.395.355 2.89.548 4.443.548 7.706 0 13.947-4.687 13.947-10.47.001-5.785-6.24-10.472-13.946-10.472zm6.674 10.62c-.051.194-.134.41-.27.64-.25.476-.597.893-1.003 1.242-1.946 2.049-5.403 4.355-5.403 4.355s-3.457-2.309-5.418-4.355a4.16 4.16 0 0 1-.995-1.243 2.238 2.238 0 0 1-.272-.639 4.196 4.196 0 0 1 3.974-5.527c1.554 0 2.7 1.678 2.7 2.802 0-1.124.585-2.802 2.712-2.802a4.196 4.196 0 0 1 3.975 5.527z" class="main-fill"/></g></g><g class="masked" mask="url('#maskSivxrv2q7o6d')"><g fill="none" fill-rule="evenodd" class="main-fill--darken"><path d="M34.946 23.537C27.241 23.537 21 28.224 21 34.01c0 3.112 1.81 5.899 4.674 7.824-.259 1.453-.754 3.219-1.705 4.637 1.236 0 4.333-1.441 6.533-2.54 1.395.355 2.89.548 4.443.548 7.706 0 13.947-4.687 13.947-10.47.001-5.785-6.24-10.472-13.946-10.472zm6.674 10.62c-.051.194-.134.41-.27.64-.25.476-.597.893-1.003 1.242-1.946 2.049-5.403 4.355-5.403 4.355s-3.457-2.309-5.418-4.355a4.16 4.16 0 0 1-.995-1.243 2.238 2.238 0 0 1-.272-.639 4.196 4.196 0 0 1 3.974-5.527c1.554 0 2.7 1.678 2.7 2.802 0-1.124.585-2.802 2.712-2.802a4.196 4.196 0 0 1 3.975 5.527z" class="main-fill--darken"/></g></g></g><style>.main-fill{fill:#b12048}.main-fill--darken{fill:#70142e}</style></svg>