<svg xmlns="http://www.w3.org/2000/svg" width="70" height="70" style="width:100%;height:100%"><g class="content"><path class="secondary-fill" d="M15.5 13.215l-.624-.63v2.497c0 .347.28.63.625.63H18.5l-.625-.63v2.54c0 .348.28.63.625.63a.627.627 0 0 0 .625-.63v-2.54c0-.348-.28-.63-.625-.63h-3l.626.63v-2.497c0-.348-.28-.63-.625-.63H12.5a.627.627 0 0 0-.625.63c0 .348.28.63.625.63h3zm24.375 48.763l.625-.63h-1.982a.627.627 0 0 0-.625.63v2.015l.625-.63H36.5a.627.627 0 0 0-.625.63c0 .347.28.63.625.63h2.018a.627.627 0 0 0 .625-.63v-2.015l-.625.63H40.5a.627.627 0 0 0 .625-.63v-2.015c0-.348-.28-.63-.625-.63a.627.627 0 0 0-.625.63v2.015zM22.009 53.27a.633.633 0 0 0-.146-.879.622.622 0 0 0-.872.147l-2.5 3.526a.633.633 0 0 0 .146.878c.28.202.671.137.872-.146l2.5-3.526zm34.207 2.889a.622.622 0 0 0 .881-.065.633.633 0 0 0-.065-.888l-2.624-2.283a.622.622 0 0 0-.881.066.633.633 0 0 0 .065.888l2.624 2.282zm-43.091-13.07c0-1.878-1.511-3.4-3.375-3.4s-3.375 1.522-3.375 3.4 1.511 3.4 3.375 3.4 3.375-1.522 3.375-3.4zm-5.5 0c0-1.182.951-2.14 2.125-2.14s2.125.958 2.125 2.14c0 1.182-.951 2.14-2.125 2.14a2.133 2.133 0 0 1-2.125-2.14z" fill-opacity=".5"/><ellipse class="secondary-fill" cx="28" cy="7.059" rx="1" ry="1.007" fill-opacity=".5"/><ellipse class="secondary-fill" cx="17.25" cy="58.696" rx=".75" ry=".756" fill-opacity=".5"/><ellipse class="secondary-fill" cx="63.25" cy="28.563" rx=".75" ry=".756" fill-opacity=".5"/><ellipse class="secondary-fill" cx="59.75" cy="44.615" rx="1.25" ry="1.259" fill-opacity=".5"/><path class="secondary-fill" d="M60.625 23.17A2.635 2.635 0 0 0 58 20.526a2.635 2.635 0 0 0-2.625 2.644A2.635 2.635 0 0 0 58 25.815a2.635 2.635 0 0 0 2.625-2.645zm-4 0A1.38 1.38 0 0 1 58 21.785c.76 0 1.375.62 1.375 1.385A1.38 1.38 0 0 1 58 24.556a1.38 1.38 0 0 1-1.375-1.386zM46.51 8.5a.631.631 0 0 0-.358-.815.624.624 0 0 0-.808.36l-1.427 3.719a.631.631 0 0 0 .358.814.624.624 0 0 0 .808-.36l1.427-3.719zM8.07 26.543a.626.626 0 0 0-.676.575.628.628 0 0 0 .57.68l2.405.204a.626.626 0 0 0 .675-.575.628.628 0 0 0-.57-.68l-2.405-.204z" fill-opacity=".5"/><g class="base"><g fill="none" fill-rule="evenodd" class="main-fill"><path d="M22.342 39.448H47.63v-2.975H22.341v2.975zm0 5.95H47.63v-2.975H22.341v2.975zm0-11.9H47.63v-2.975H22.341v2.975zm0-8.925v2.975H47.63v-2.975H22.341z" class="main-fill"/></g></g></g><style>.main-fill{fill:#fff}.secondary-fill{fill:#d81b60}</style></svg>