<svg xmlns="http://www.w3.org/2000/svg" width="70" height="70"><defs fill="none"><mask id="maskSiwp1hyda38pp"><rect x="35" width="35" height="70" rx="0" ry="0" fill="#fff"/></mask></defs><g class="content"><g class="base"><g fill="none" fill-rule="evenodd" class="main-fill"><path d="M31.706 20.59a2.465 2.465 0 0 0-2.47 2.47v1.647h8.235c2.252 0 4.117 1.865 4.117 4.117v9.06l5.765 6.587v-6.588h2.47a2.465 2.465 0 0 0 2.471-2.47V23.06a2.465 2.465 0 0 0-2.47-2.47H31.706zm-11.53 5.764a2.465 2.465 0 0 0-2.47 2.47V39.53a2.465 2.465 0 0 0 2.47 2.47h2.471v7.413L28.412 42h9.059a2.465 2.465 0 0 0 2.47-2.47V28.823a2.465 2.465 0 0 0-2.47-2.47H20.177zm4.118 6.588a1.235 1.235 0 1 1 0 2.47 1.235 1.235 0 0 1 0-2.47zm4.941 0a1.235 1.235 0 1 1 0 2.47 1.235 1.235 0 0 1 0-2.47zm4.942 0a1.235 1.235 0 1 1 0 2.47 1.235 1.235 0 0 1 0-2.47z" class="main-fill"/></g></g><g class="masked" mask="url('#maskSiwp1hyda38pp')"><g fill="none" fill-rule="evenodd" class="main-fill--darken"><path d="M31.706 20.59a2.465 2.465 0 0 0-2.47 2.47v1.647h8.235c2.252 0 4.117 1.865 4.117 4.117v9.06l5.765 6.587v-6.588h2.47a2.465 2.465 0 0 0 2.471-2.47V23.06a2.465 2.465 0 0 0-2.47-2.47H31.706zm-11.53 5.764a2.465 2.465 0 0 0-2.47 2.47V39.53a2.465 2.465 0 0 0 2.47 2.47h2.471v7.413L28.412 42h9.059a2.465 2.465 0 0 0 2.47-2.47V28.823a2.465 2.465 0 0 0-2.47-2.47H20.177zm4.118 6.588a1.235 1.235 0 1 1 0 2.47 1.235 1.235 0 0 1 0-2.47zm4.941 0a1.235 1.235 0 1 1 0 2.47 1.235 1.235 0 0 1 0-2.47zm4.942 0a1.235 1.235 0 1 1 0 2.47 1.235 1.235 0 0 1 0-2.47z" class="main-fill--darken"/></g></g></g><style>.main-fill{fill:#b12048}.main-fill--darken{fill:#70142e}</style></svg>