<svg xmlns="http://www.w3.org/2000/svg" width="70" height="70" style="width:100%;height:100%"><defs fill="none"><mask id="maskSivxrv2q7gzv"><rect x="35" width="35" height="70" rx="0" ry="0" fill="#fff"/></mask></defs><g class="content"><g class="base"><g fill="none" transform="translate(22.283 21)" class="main-fill"><path d="M10.603 1.691c1.89 0 3.425 1.526 3.425 3.406a3.417 3.417 0 0 1-3.425 3.414 3.418 3.418 0 0 1-3.419-3.414 3.415 3.415 0 0 1 3.42-3.406zM19.075 0a4.654 4.654 0 0 1 4.662 4.648c0 2.57-2.079 4.653-4.662 4.653a4.659 4.659 0 0 1-4.658-4.653A4.657 4.657 0 0 1 19.075 0zm6.35 16.482a6.34 6.34 0 0 0-6.35-6.336c-1.641 0-3.134.64-4.256 1.665-.753-1.579-2.345-2.683-4.216-2.683-1.355 0-2.566.595-3.421 1.522a3.8 3.8 0 0 0-3.35-2.029 3.807 3.807 0 0 0-3.814 3.803c0 .084.002.173.013.257H.018v6.598h5.926v2.865h6.78v5.749h12.7V16.895h-.014c.01-.137.015-.274.015-.413z" class="main-fill"/><circle cx="3.831" cy="5.326" r="2.79" class="main-fill"/></g></g><g class="masked" mask="url('#maskSivxrv2q7gzv')"><g fill="none" transform="translate(22.283 21)" class="main-fill--darken"><path d="M10.603 1.691c1.89 0 3.425 1.526 3.425 3.406a3.417 3.417 0 0 1-3.425 3.414 3.418 3.418 0 0 1-3.419-3.414 3.415 3.415 0 0 1 3.42-3.406zM19.075 0a4.654 4.654 0 0 1 4.662 4.648c0 2.57-2.079 4.653-4.662 4.653a4.659 4.659 0 0 1-4.658-4.653A4.657 4.657 0 0 1 19.075 0zm6.35 16.482a6.34 6.34 0 0 0-6.35-6.336c-1.641 0-3.134.64-4.256 1.665-.753-1.579-2.345-2.683-4.216-2.683-1.355 0-2.566.595-3.421 1.522a3.8 3.8 0 0 0-3.35-2.029 3.807 3.807 0 0 0-3.814 3.803c0 .084.002.173.013.257H.018v6.598h5.926v2.865h6.78v5.749h12.7V16.895h-.014c.01-.137.015-.274.015-.413z" class="main-fill--darken"/><circle cx="3.831" cy="5.326" r="2.79" class="main-fill--darken"/></g></g></g><style>.main-fill{fill:#b12048}.main-fill--darken{fill:#70142e}</style></svg>