<svg xmlns="http://www.w3.org/2000/svg" width="70" height="70" style="width:100%;height:100%"><g class="base"><g fill="none" class="main-stroke"><path d="M42.636 25.455a5.734 5.734 0 0 0-5.727 5.727 5.734 5.734 0 0 0 5.727 5.728 5.698 5.698 0 0 0 3.775-1.432c-1.022 3.295-3.112 6.23-5.642 7.606a.635.635 0 1 0 .609 1.117c3.982-2.166 6.986-7.763 6.986-13.019a5.734 5.734 0 0 0-5.728-5.727zm-15.909 0A5.734 5.734 0 0 0 21 31.182a5.734 5.734 0 0 0 5.727 5.728 5.696 5.696 0 0 0 3.775-1.432c-1.022 3.295-3.112 6.23-5.642 7.606a.635.635 0 1 0 .608 1.117c3.983-2.166 6.987-7.763 6.987-13.019a5.734 5.734 0 0 0-5.728-5.727z" class="main-stroke"/></g></g><style>.main-stroke{stroke:#21b4b7}</style></svg>