<svg xmlns="http://www.w3.org/2000/svg" style="isolation:isolate" width="666.667" height="666.667"><defs><clipPath id="a"><path d="M0 0h666.667v666.667H0z"/></clipPath></defs><g clip-path="url(#a)"><path d="M255.948 524.716c81.617 0 147.748 1.871 147.748 4.191 0 2.28-66.131 4.152-147.748 4.152-81.577 0-147.709-1.872-147.709-4.152 0-2.32 66.132-4.191 147.709-4.191zM236.511 441.316h28.696l18.917 74.688h-67.169l19.556-74.688z" fill-rule="evenodd" fill="#464648"/><path d="M269.397 457.963l5.07 19.902h-47.534l5.228-19.902h37.236z" fill-rule="evenodd" fill="#2F2D2E"/><path d="M124.802 293.772h251.515c12.054 0 21.951 10.053 21.951 22.385v125.77c0 12.332-9.897 22.428-21.951 22.428H124.802c-12.093 0-21.991-10.096-21.991-22.428v-125.77c0-12.332 9.898-22.385 21.991-22.385z" fill-rule="evenodd" fill="#464648"/><path d="M135.057 306.919h231.006c9.297 0 16.961 7.774 16.961 17.297v109.693c0 9.484-7.664 17.298-16.961 17.298H135.057c-9.338 0-17-7.814-17-17.298V324.216c0-9.523 7.662-17.297 17-17.297z" fill-rule="evenodd" fill="#949595"/><path d="M136.256 311.803h228.608c7.621 0 13.888 6.389 13.888 14.165v106.149c0 7.775-6.267 14.164-13.888 14.164H136.256c-7.664 0-13.889-6.389-13.889-14.164V325.968c0-7.776 6.225-14.165 13.889-14.165" fill-rule="evenodd" fill="#7ED2B3"/><path d="M190.415 507.905h120.25c5.228 0 9.459 4.355 9.459 9.646 0 5.332-4.231 9.646-9.459 9.646h-120.25c-5.188 0-9.459-4.314-9.459-9.646 0-5.291 4.271-9.646 9.459-9.646" fill-rule="evenodd" fill="#5F6062"/><path d="M359.755 455.073c1.237 0 2.274 1.059 2.274 2.32 0 1.303-1.037 2.362-2.274 2.362-1.276 0-2.314-1.059-2.314-2.362 0-1.261 1.038-2.32 2.314-2.32z" fill-rule="evenodd" fill="#EFEE0F"/><path d="M152.06 346.36l38.435-21.613a2.502 2.502 0 0 1 3.392.974c.64 1.223.198 2.77-.998 3.462l-38.433 21.572a2.415 2.415 0 0 1-3.353-.976c-.679-1.222-.24-2.767.957-3.419zM144.477 366.669l66.97-37.609c2.076-1.18 4.71-.407 5.868 1.749 1.157 2.118.398 4.806-1.676 5.944l-66.971 37.65c-2.075 1.14-4.749.365-5.867-1.751-1.157-2.117-.4-4.803 1.676-5.983M363.147 401.063l-59.984 33.698c-1.876 1.059-4.231.37-5.27-1.545-.997-1.912-.318-4.315 1.518-5.372l60.025-33.701c1.836-1.016 4.191-.324 5.227 1.588 1.037 1.872.361 4.273-1.516 5.332M356.363 419.296l-34.444 19.335a2.155 2.155 0 0 1-2.992-.896c-.599-1.099-.2-2.483.837-3.052l34.443-19.376a2.285 2.285 0 0 1 3.034.897c.559 1.099.2 2.483-.878 3.092" fill-rule="evenodd" fill="#5F6062"/><path d="M341.915 311.803h22.949c7.621 0 13.888 6.389 13.888 14.165v33.66c-13.009 5.251-27.019 6.553-30.889 4.924l-1.955.571-5.709 3.012 7.545 13.594-22.232 12.862 1.956 3.541-83.375 48.149H135.537a14.372 14.372 0 0 1-2.953-8.709v-25.928l153.217-88.527 1.995 3.542 22.231-12.862 7.582 13.676 19.198-10.094.677 1.302 4.272-6.308.159-.57z" fill-rule="evenodd" fill="#55AF90"/><path d="M318.288 318.477l16.963 38.262s10.734 7.406 33.166-.488c22.47-7.856 44.26-18.072 44.26-18.072l-18.798-52.142s-12.372-14.449-30.572-6.633c-18.199 7.773-31.011 16.525-31.011 16.525l-14.008 22.548" fill-rule="evenodd" fill="#F9AB7C"/><path d="M331.659 348.679l3.592 8.06s10.734 7.406 33.166-.488c22.47-7.856 44.26-18.072 44.26-18.072l-6.545-18.195-74.473 28.695" fill-rule="evenodd" fill="#C78057"/><path d="M279.136 337.039l47.413-24.871 20.992 41.519-47.412 24.908-20.993-41.556" fill-rule="evenodd" fill="#F9AB7C"/><path d="M342.795 344.324l4.746 9.363-47.412 24.908-4.75-9.362 47.416-24.909" fill-rule="evenodd" fill="#C78057"/><path d="M299.769 308.587l-30.212 17.461 37.716 67.932 30.252-17.461-37.756-67.932" fill-rule="evenodd" fill="#D2C9E9"/><path d="M294.183 370.372l13.09 23.608 30.252-17.461-13.132-23.607-30.21 17.46" fill-rule="evenodd" fill="#BEB4E0"/><path d="M316.891 371.84c2.514-1.468 5.708-.572 7.144 1.993 1.437 2.563.558 5.862-1.996 7.286-2.514 1.465-5.706.57-7.143-1.995-1.436-2.565-.52-5.861 1.995-7.284" fill-rule="evenodd" fill="#D2C9E9"/><path d="M122.367 406.393l153.217-88.485 41.667 75.013-92.832 53.606h-88.163c-7.664 0-13.889-6.391-13.889-14.166v-25.968" fill-rule="evenodd" fill="#612B2F"/><path d="M302.164 365.773l15.087 27.108-92.832 53.646h-62.062l139.807-80.754z" fill-rule="evenodd" fill="#4C2123"/><path d="M317.411 372.775c1.994-1.14 4.508-.408 5.666 1.628 1.118 2.036.439 4.64-1.557 5.78a4.17 4.17 0 0 1-5.707-1.588c-1.117-2.036-.398-4.639 1.598-5.82z" fill-rule="evenodd" fill="#7A7C7D"/><path d="M318.528 374.809a.765.765 0 0 1 1.037.286c.199.365.079.854-.28 1.057-.398.244-.837.081-1.077-.285a.773.773 0 0 1 .32-1.058M319.644 376.804c.36-.203.839-.081 1.039.284a.82.82 0 0 1-.32 1.1c-.359.203-.798.081-1.038-.327a.772.772 0 0 1 .319-1.057" fill-rule="evenodd" fill="#602E15"/><path d="M488.188 178.301c11.813-3.46 24.185 3.5 27.617 15.548 3.392 12.088-3.432 24.706-15.245 28.166-.759.244-1.517.406-2.275.569l-5.109-18.112-3.033-10.745-4.15-14.652c.716-.286 1.436-.53 2.195-.774z" fill-rule="evenodd" fill="#ED1F24"/><path d="M350.017 271.468l45.139 98.904 42.864-12.617-70.643-94.143-17.36 7.856" fill-rule="evenodd" fill="#D2C9E9"/><path d="M392.563 371.147l49.368-14.531c2.434-.733 4.989.733 5.706 3.216.679 2.481-.717 5.128-3.152 5.82l-49.329 14.531c-2.433.733-5.028-.734-5.747-3.216-.68-2.483.719-5.127 3.154-5.82" fill-rule="evenodd" fill="#5F6062"/><path d="M371.328 202.275l101.175-70.822 17.64 62.274 3.033 10.745 17.641 62.273-122.645-4.884-6.905-24.42-3.034-10.746-6.905-24.42" fill-rule="evenodd" fill="#D2C9E9"/><path d="M493.216 204.553l17.601 62.192-122.645-4.884-6.905-24.34 111.949-32.968" fill-rule="evenodd" fill="#B0A5D9"/><path d="M475.615 121.075c3.074-.896 6.306.934 7.185 4.068L522.829 266.5c.879 3.136-.877 6.432-3.95 7.368-3.074.896-6.306-.936-7.224-4.069L471.665 128.4c-.917-3.133.878-6.431 3.95-7.325" fill-rule="evenodd" fill="#5F6062"/><path d="M504.351 201.256l18.478 65.244c.879 3.136-.877 6.432-3.95 7.368-3.074.896-6.306-.936-7.224-4.069l-18.439-65.246 11.135-3.297" fill-rule="evenodd" fill="#464648"/><path d="M327.827 211.432l39.709-11.681c5.229-1.547 10.737 1.546 12.215 6.878l13.289 46.93c1.519 5.33-1.515 10.908-6.744 12.454l-39.711 11.682c-5.189 1.546-10.697-1.547-12.213-6.879l-13.251-46.929c-1.516-5.292 1.518-10.908 6.706-12.455" fill-rule="evenodd" fill="#978ECF"/><path d="M387.932 235.528l5.108 18.031c1.519 5.33-1.515 10.908-6.744 12.454l-39.711 11.682c-5.189 1.546-10.697-1.547-12.213-6.879l-5.068-17.989 58.628-17.299z" fill-rule="evenodd" fill="#827BC5"/><path d="M312.861 224.579l7.902-2.32c.08.529.2 1.098.358 1.628l13.251 46.929c.159.569.36 1.099.599 1.587l-7.943 2.361c-3.951 1.139-8.101-1.18-9.219-5.209l-10.058-35.534c-1.156-4.029 1.158-8.262 5.11-9.442" fill-rule="evenodd" fill="#5F6062"/><path d="M329.304 252.827l5.068 17.989c.159.569.36 1.099.599 1.587l-7.943 2.361c-3.951 1.139-8.101-1.18-9.219-5.209l-3.512-12.332 15.007-4.396" fill-rule="evenodd" fill="#464648"/><path d="M414.992 177.935l35.88-24.096c1.956-1.303 4.589-.732 5.865 1.261 1.318 1.995.759 4.681-1.196 5.984l-35.88 24.136c-1.956 1.303-4.589.732-5.866-1.261-1.319-1.995-.759-4.682 1.197-6.024M404.493 185.016l.642-.447c1.954-1.304 4.628-.733 5.905 1.262 1.277 1.953.76 4.68-1.196 5.982l-.68.448a4.184 4.184 0 0 1-5.865-1.221c-1.318-1.993-.76-4.721 1.194-6.024" fill-rule="evenodd" fill="#FFF"/><path d="M532.409 185.545l33.444-9.646c3.072-.895 6.266.937 7.144 4.07.878 3.135-.917 6.431-3.99 7.286l-33.446 9.688c-3.033.854-6.264-.978-7.144-4.071-.837-3.135.958-6.431 3.992-7.327zM536.44 232.637l33.684 8.711c3.113.773 4.988 4.029 4.231 7.163-.799 3.133-3.952 5.088-7.066 4.273l-33.684-8.669c-3.073-.814-4.95-4.03-4.189-7.163.799-3.175 3.948-5.088 7.024-4.315M514.449 151.681l24.186-25.398c2.234-2.319 2.194-6.064-.119-8.343-2.276-2.279-5.948-2.199-8.183.121l-24.225 25.399c-2.195 2.32-2.157 6.105.119 8.344 2.314 2.279 5.986 2.239 8.222-.123" fill-rule="evenodd" fill="#ED1F24"/><path d="M387.493 331.34l.559-.244c-3.393 1.343-7.263-.449-8.58-3.947l-1.199-3.217c-1.276-3.501.479-7.448 3.912-8.751-3.433 1.303-7.304-.488-8.581-3.949l-1.196-3.255c-1.319-3.501.439-7.449 3.869-8.752l-.437.163c-3.195 1.221-6.785-.407-7.981-3.664l-1.119-3.051c-1.199-3.256.399-6.92 3.592-8.141l28.896-11.112c3.191-1.221 6.784.408 7.98 3.664l1.119 3.052c1.198 3.256-.4 6.92-3.592 8.141l2.514-.977c3.432-1.343 7.304.448 8.58 3.949l1.199 3.254c1.317 3.461-.441 7.408-3.872 8.712 3.431-1.304 7.303.488 8.581 3.988l1.195 3.216c1.28 3.5-.437 7.448-3.869 8.75l-3.352 1.303c3.112-1.221 6.624.408 7.781 3.581l1.119 2.974c1.157 3.173-.44 6.756-3.552 7.936l-28.178 10.868c-3.114 1.181-6.626-.408-7.822-3.58l-1.079-2.974c-1.196-3.174.4-6.757 3.513-7.937z" fill-rule="evenodd" fill="#F9AB7C"/><path d="M387.493 331.34l.559-.244c-3.232 1.261-6.864-.287-8.341-3.379l43.424-16.729c.917 3.337-.84 6.92-4.072 8.181l-3.352 1.303a7.695 7.695 0 0 1 1.317-.365l-30.732 11.844a5.543 5.543 0 0 1 1.197-.611M381.667 315.547l.557-.244c-3.232 1.261-6.864-.284-8.34-3.378l43.383-16.729c.918 3.337-.798 6.92-4.072 8.181l-3.351 1.302c.439-.16.917-.284 1.356-.366l-30.771 11.844c.36-.242.798-.446 1.238-.61M375.24 299.308l.56-.204c-3.035 1.179-6.505-.408-7.984-3.541l40.671-15.671c.917 3.337-.639 6.879-3.672 8.019l-3.154 1.221c.399-.163.839-.244 1.276-.327l-28.813 11.112c.317-.244.717-.448 1.116-.609M390.087 346.196c-2.115-.243-4.151-1.709-5.148-3.907l39.792-15.305c.837 3.012-.32 6.147-2.755 7.572-.28.163-.517.284-.797.365-8.223 3.176-17.642 7-26.82 10.502-1.319.53-1.796 1.098-4.272.773z" fill-rule="evenodd" fill="#C78057"/><path d="M325.951 315.099s5.548-25.723 14.288-30.607 22.908-11.356 30.253-9.076c7.383 2.279 16.88 29.549 11.773 31.992-5.109 2.481-5.428 4.72-9.738 1.259-4.311-3.459-8.9-17.827-8.9-17.827s-8.46.489-9.58 7.043c-1.595 9.564 17.801 18.478-5.107 27.8-12.652 5.126-16.963 4.598-16.963 4.598l-6.026-15.182" fill-rule="evenodd" fill="#C78057"/><path d="M322.639 312.78s5.586-25.684 14.286-30.609c8.743-4.884 22.911-11.355 30.294-9.075 7.342 2.279 16.842 29.549 11.734 32.031-5.109 2.484-5.429 4.681-9.74 1.221-4.27-3.459-8.898-17.827-8.898-17.827s-8.462.488-9.54 7.042c-1.636 9.564 17.761 18.478-5.107 27.798-12.653 5.171-17.003 4.64-17.003 4.64l-6.026-15.221" fill-rule="evenodd" fill="#F9AB7C"/><path d="M262.709 169.912h-71.51c-11.568 0-21.068 8.584-21.068 19.079v33.112c0 10.496 9.5 19.078 21.068 19.078h56.088l30.844 36.9-14.628-36.934c11.21-.36 20.233-8.8 20.233-19.044v-33.112c0-10.495-9.46-19.079-21.027-19.079z" fill-rule="evenodd" fill="#4969BB"/><path d="M265.849 182.572H188.02c-2.307 0-4.213 1.731-4.213 3.823 0 2.092 1.906 3.825 4.213 3.825h77.829c2.306 0 4.214-1.733 4.214-3.825s-1.908-3.823-4.214-3.823zM265.849 200.533H188.02c-2.307 0-4.213 1.732-4.213 3.824 0 2.092 1.906 3.823 4.213 3.823h77.829c2.306 0 4.214-1.731 4.214-3.823 0-2.092-1.908-3.824-4.214-3.824zM265.849 218.531H188.02c-2.307 0-4.213 1.697-4.213 3.825 0 2.092 1.906 3.785 4.213 3.785h77.829c2.306 0 4.214-1.693 4.214-3.785 0-2.128-1.908-3.825-4.214-3.825z" fill-rule="evenodd" fill="#FFF"/><path d="M138.609 221.689H97.25c-6.691 0-12.185 4.966-12.185 11.035v19.151c0 6.07 5.494 11.034 12.185 11.034h32.44l17.838 21.342-8.46-21.362c6.484-.209 11.703-5.09 11.703-11.014v-19.151c0-6.069-5.472-11.035-12.162-11.035z" fill-rule="evenodd" fill="#80CC28"/><path d="M140.425 229.011H95.412c-1.334 0-2.437 1.001-2.437 2.212 0 1.209 1.103 2.212 2.437 2.212h45.013c1.334 0 2.436-1.003 2.436-2.212 0-1.211-1.102-2.212-2.436-2.212zM140.425 239.4H95.412c-1.334 0-2.437 1.001-2.437 2.211s1.103 2.212 2.437 2.212h45.013c1.334 0 2.436-1.002 2.436-2.212 0-1.21-1.102-2.211-2.436-2.211zM140.425 249.809H95.412c-1.334 0-2.437.982-2.437 2.212 0 1.21 1.103 2.19 2.437 2.19h45.013c1.334 0 2.436-.98 2.436-2.19 0-1.23-1.102-2.212-2.436-2.212z" fill-rule="evenodd" fill="#FFF"/><path d="M494.08 296.133h57.917c9.37 0 17.064 6.952 17.064 15.452v26.819c0 8.501-7.694 15.453-17.064 15.453h-45.426l-24.983 29.886 11.848-29.915c-9.079-.292-16.387-7.128-16.387-15.424v-26.819c0-8.5 7.662-15.452 17.031-15.452z" fill-rule="evenodd" fill="#FDDD10"/><path d="M491.536 306.387h63.036c1.868 0 3.412 1.402 3.412 3.096 0 1.694-1.544 3.098-3.412 3.098h-63.036c-1.867 0-3.412-1.404-3.412-3.098s1.545-3.096 3.412-3.096zM491.536 320.935h63.036c1.868 0 3.412 1.402 3.412 3.096 0 1.696-1.544 3.097-3.412 3.097h-63.036c-1.867 0-3.412-1.401-3.412-3.097 0-1.694 1.545-3.096 3.412-3.096zM491.536 335.512h63.036c1.868 0 3.412 1.373 3.412 3.097 0 1.695-1.544 3.067-3.412 3.067h-63.036c-1.867 0-3.412-1.372-3.412-3.067 0-1.724 1.545-3.097 3.412-3.097z" fill-rule="evenodd" fill="#FFF"/><path d="M429.441 399.216h36.712c5.939 0 10.818 4.407 10.818 9.795v16.998c0 5.388-4.879 9.796-10.818 9.796H437.36l-15.835 18.943 7.508-18.961c-5.754-.186-10.386-4.519-10.386-9.778v-16.998c0-5.388 4.857-9.795 10.794-9.795" fill-rule="evenodd" fill="#F1511B"/><path d="M427.829 405.715h39.956c1.186 0 2.164.888 2.164 1.962 0 1.074-.978 1.963-2.164 1.963h-39.956c-1.184 0-2.162-.889-2.162-1.963s.978-1.962 2.162-1.962zM427.829 414.936h39.956c1.186 0 2.164.889 2.164 1.963s-.978 1.962-2.164 1.962h-39.956c-1.184 0-2.162-.888-2.162-1.962 0-1.074.978-1.963 2.162-1.963zM427.829 424.176h39.956c1.186 0 2.164.871 2.164 1.963 0 1.074-.978 1.945-2.164 1.945h-39.956c-1.184 0-2.162-.871-2.162-1.945 0-1.092.978-1.963 2.162-1.963z" fill-rule="evenodd" fill="#FFF"/><path d="M326.741 631.457c-.002-.002-.002-.006-.002-.016 0 .01 0 .014.002.016zM326.855 632.181h.004a7.697 7.697 0 0 1-.106-.612c.028.204.06.407.102.612M327.603 634.279zM327.532 634.139c-.02-.039-.037-.079-.057-.117l.057.117zM327.065 632.988c.111.349.243.688.399 1.009a7.842 7.842 0 0 1-.396-1.009h-.003z" fill="#2C292A"/></g></svg>