<svg xmlns="http://www.w3.org/2000/svg" viewBox="0 0 512.001 512.001"><circle cx="256" cy="256" r="256" fill="#44c4fc"/><path d="M327.854 79.75L123.8 244.642l242.455 242.455c83.996-40.146 142.677-124.733 145.617-223.329L327.854 79.75z" fill="#29ace5"/><path d="M387.491 352.306l-83.437-10.673c-10.243-1.31-17.917-10.028-17.917-20.354v-37.845h-60.275v37.845c0 10.326-7.674 19.044-17.917 20.354l-83.437 10.673c-25.541 3.267-44.675 25.005-44.675 50.753v38.678C125.728 485.281 187.742 512 256 512s130.272-26.719 176.166-70.263v-38.678c0-25.748-19.133-47.486-44.675-50.753z" fill="#ffc776"/><path d="M387.491 352.306l-83.437-10.673c-10.243-1.31-17.917-10.028-17.917-20.354v-37.845h-30.185V512l.048.001c68.258 0 130.272-26.719 176.166-70.263V403.06c0-25.749-19.133-47.487-44.675-50.754z" fill="#ffbb61"/><path d="M305.162 299.136l-14.163 7.626a73.531 73.531 0 0 1-69.72 0l-14.163-7.626a80.746 80.746 0 0 1-42.464-71.094v-87.359h182.973v87.359a80.743 80.743 0 0 1-42.463 71.094z" fill="#fed080"/><path d="M347.625 140.683h-91.673v174.865a73.483 73.483 0 0 0 35.047-8.786l14.163-7.626a80.746 80.746 0 0 0 42.464-71.094l-.001-87.359z" fill="#ffc776"/><path d="M387.491 352.306l-70.616-9.033c-15.225 16.241-36.858 26.402-60.875 26.402s-45.651-10.161-60.875-26.402l-70.616 9.033c-25.541 3.267-44.675 25.005-44.675 50.753v38.678C125.728 485.281 187.742 512 256 512s130.272-26.719 176.166-70.263v-38.678c0-25.748-19.133-47.486-44.675-50.753z" fill="#283592"/><path d="M256 512c68.258 0 130.272-26.719 176.166-70.263v-38.678c0-25.749-19.134-47.486-44.675-50.753l-70.616-9.033c-15.225 16.241-36.858 26.402-60.875 26.402V512z" fill="#1a237e"/><path d="M251.656 369.56c-22.275-1.144-42.23-11.032-56.531-26.288l-30.474 3.898 48.254 62.271L256 369.695c-1.459 0-2.907-.047-4.344-.135z" fill="#303f9e"/><path d="M256 369.695l43.095 39.747 48.254-62.271-30.474-3.898c-14.301 15.255-34.257 25.143-56.531 26.288a71.808 71.808 0 0 1-4.344.134z" fill="#283592"/><path d="M360.25 167.75c0-57.576-46.674-104.25-104.25-104.25s-104.25 46.674-104.25 104.25v76.891h18.66v-51.078C192.129 168.606 222.182 152.5 256 152.5s63.871 16.106 85.59 41.063v51.078h18.66V167.75z" fill="#fec007"/><path d="M366.585 225.942h-21.45v-62.204c0-49.149-39.986-89.135-89.135-89.135s-89.135 39.986-89.135 89.135v62.204h-21.45v-62.204c0-60.976 49.608-110.585 110.585-110.585s110.585 49.608 110.585 110.585v62.204z" fill="#37474f"/><g fill="#263238"><path d="M256 53.153l-.048.001v21.449H256c49.149 0 89.135 39.986 89.135 89.135v62.204h21.449v-62.204C366.585 102.761 316.977 53.153 256 53.153zM304.382 293H243.37v-21.45h61.012c21.946 0 39.801-17.854 39.801-39.801h21.45C365.632 265.523 338.154 293 304.382 293z"/></g><path d="M167.613 252.158H144.16c-17.321 0-31.362-14.041-31.362-31.362v-36.458c0-17.321 14.041-31.362 31.362-31.362h23.454v99.182z" fill="#3f51b4"/><path d="M367.841 252.158h-23.454v-99.181h23.454c17.321 0 31.362 14.041 31.362 31.362v36.458c0 17.32-14.041 31.361-31.362 31.361z" fill="#303f9e"/><path d="M250.28 305.155h-25.263c-12.504 0-22.641-10.137-22.641-22.641 0-12.504 10.137-22.641 22.641-22.641h25.263c12.504 0 22.641 10.137 22.641 22.641 0 12.504-10.136 22.641-22.641 22.641z" fill="#dc2c00"/><path d="M255.952 260.589v43.849c9.759-2.518 16.969-11.379 16.969-21.925 0-10.545-7.209-19.406-16.969-21.924z" fill="#b21f02"/></svg>