<svg xmlns="http://www.w3.org/2000/svg" width="70" height="70"><defs fill="none"><mask id="maskSiwp1hydahkh"><rect x="35" width="35" height="70" rx="0" ry="0" fill="#fff"/></mask></defs><g class="content"><g class="base"><g fill="none" fill-rule="evenodd" class="main-fill"><path d="M21.412 17.706v11.53l3.706-2.471h10.294v-9.059h-14zm21.823 7.412a3.706 3.706 0 1 0 0 7.412 3.706 3.706 0 0 0 0-7.412zM26.765 35a3.706 3.706 0 1 0 0 7.412 3.706 3.706 0 0 0 0-7.412zm16.47 0c-5.003 0-9.058 3.319-9.058 7.412h18.117c0-4.093-4.056-7.412-9.059-7.412zm-16.47 9.883c-5.003 0-9.059 3.318-9.059 7.411h18.118c0-4.093-4.056-7.411-9.06-7.411z" class="main-fill"/></g></g><g class="masked" mask="url('#maskSiwp1hydahkh')"><g fill="none" fill-rule="evenodd" class="main-fill--darken"><path d="M21.412 17.706v11.53l3.706-2.471h10.294v-9.059h-14zm21.823 7.412a3.706 3.706 0 1 0 0 7.412 3.706 3.706 0 0 0 0-7.412zM26.765 35a3.706 3.706 0 1 0 0 7.412 3.706 3.706 0 0 0 0-7.412zm16.47 0c-5.003 0-9.058 3.319-9.058 7.412h18.117c0-4.093-4.056-7.412-9.059-7.412zm-16.47 9.883c-5.003 0-9.059 3.318-9.059 7.411h18.118c0-4.093-4.056-7.411-9.06-7.411z" class="main-fill--darken"/></g></g></g><style>.main-fill{fill:#b12048}.main-fill--darken{fill:#70142e}</style></svg>