<svg xmlns="http://www.w3.org/2000/svg" style="isolation:isolate" width="34.588" height="34.588"><defs><clipPath id="a"><path d="M0 0h34.588v34.588H0z"/></clipPath></defs><g clip-path="url(#a)"><path d="M3.706 0v11.529l3.706-2.47h10.294V0h-14zm21.823 7.412a3.705 3.705 0 1 0 .001 7.411 3.705 3.705 0 0 0-.001-7.411zm-16.47 9.882a3.706 3.706 0 1 0 0 7.411 3.706 3.706 0 0 0 0-7.411zm16.47 0c-5.003 0-9.058 3.318-9.058 7.412h18.117c0-4.094-4.056-7.412-9.059-7.412zm-16.47 9.882C4.056 27.176 0 30.495 0 34.588h18.118c0-4.093-4.056-7.412-9.059-7.412z" fill="none"/><path d="M3.706 0v11.529l3.706-2.47h10.294V0h-14zm21.823 7.412a3.705 3.705 0 1 0 .001 7.411 3.705 3.705 0 0 0-.001-7.411zm-16.47 9.882a3.706 3.706 0 1 0 0 7.411 3.706 3.706 0 0 0 0-7.411zm16.47 0c-5.003 0-9.058 3.318-9.058 7.412h18.117c0-4.094-4.056-7.412-9.059-7.412zm-16.47 9.882C4.056 27.176 0 30.495 0 34.588h18.118c0-4.093-4.056-7.412-9.059-7.412z" fill="none"/></g></svg>