<svg xmlns="http://www.w3.org/2000/svg" style="isolation:isolate" width="1333.333" height="1066.667"><defs><clipPath id="a"><path d="M0 0h1333.333v1066.667H0z"/></clipPath></defs><g clip-path="url(#a)"><path d="M616.676 894.175c-30.699.097-61.397.878-92.04 4.489-11.555 1.363-22.867 4.357-34.447 5.564-23.133 2.412-45.85 6.913-69.064 8.989-18.693 1.672-37.465 2.659-56.104 4.78-17.476 1.99-36.822 1.531-54.162-1.754-12.839-2.434-25.735-3.803-38.358-7.71-14.118-4.37-29.458-7.496-44.169-7.382-20.979.16-41.409.178-61.484 7.896-7.048 2.708-15.676 7.161-21.027 12.846-12.25 13.015-13.909 45.487-1.677 58.984 20.604 22.718 64.576 31.632 93.455 32.052 31.646.462 62.388-2.026 94.081-3.49 29.448-1.36 58.823-3.296 88.32-3.227 60.247.14 120.5 0 180.637-4.264 56.5-4.005 113.142-2.631 169.766-2.631 58.065 0 115.737.486 173.384 8.659 25.117 3.563 50.706 4.81 75.949 7.305 22.608 2.236 44.333-.043 66.851-2.109 18.908-1.734 37.692-6.879 54.869-15.576 13.597-6.884 37.837-28.27 42.008-44.703 11.689-46.066-164.748-44.958-191.837-44.856-30.306.118-60.851 1.174-91.132-.05-12.738-.515-25.288-3.152-37.719-6.043-12.384-2.879-24.86-2.147-37.417-3.357-52.366-5.044-104.848-4.307-157.382-4.307-17.093 0-34.198-.159-51.301-.105z" fill="#F7F7F7"/><path d="M370.001 464.851l-2.35-15.876 6.741-1.302 4.017 10.516 2.903-2.094.356 13.83-6.825 2.298-4.842-7.372" fill="#B97262"/><path d="M471.98 547.34l-60.731-15.801-28.132-66.338-13.31 5.252 15.856 85.683 69.957 36.035 16.36-44.831" fill="#96BFEE"/><path d="M992.767 540.429l-57.544 41.991-50.18-21.68-7.364 13.537 38.005 25.884 21.303 7.963 55.78-26.855v-40.84" fill="#587BC9"/><path d="M1032.397 277.964l176.231 14.647c16.312 1.356 28.436 15.678 27.08 31.99l-9.441 113.596c-1.35 16.247-15.567 28.352-31.82 27.096l-28.334-2.19-36.052 42.614c-1.053 1.246-3.085.422-2.973-1.205l3.024-44.401-112.127-9.584c-16.281-1.392-28.364-15.7-27.012-31.986l9.434-113.496c1.356-16.312 15.678-28.436 31.99-27.081" fill="#3B455A"/><path d="M1033.421 318.371l140.758 12.006.5-5.865-140.758-12.007-.5 5.866zM1029.608 363.089l167.881 14.322.5-5.864-167.881-14.322-.5 5.864zM1025.792 407.809l167.883 14.322.5-5.866-167.882-14.321-.501 5.865z" fill="#FFE"/><path d="M901.673 738.867l3.378 78.328-9.9 133.182-14.814 1.054-17.998-120.962-24.898-102.358 64.232 10.756z" fill="#7DB5DB"/><path d="M880.867 957.671l16.588 6.87 7.44-8.577-8.579-7.44-16.019 1.138.57 8.009" fill="#3B455A"/><path d="M796.811 711.149l-3.251 59.207 9.645 176.044 14.832.74 22.231-115.46 19.607-126.62-63.064 6.089z" fill="#7DB5DB"/><path d="M817.639 953.392l-16.44 7.217-7.619-8.419 8.42-7.619 16.04.8-.401 8.021" fill="#3B455A"/><path d="M883.052 536.732l-46.285-4.959s-25.748 2.752-43.219 63.902c-9.721 34.02-12.68 87.621-13.392 128.484 1.093 5.829 7.444 31.362 34.297 27.032 46.115-7.439 70.66-14.876 90.742-11.158 17.108 3.719 15.661-19.834 13.781-37.808l-6.817-55.613-29.107-109.88" fill="#D7E8F4"/><path d="M874.113 479.119c-11.666-2.572-23.672-4.876-35.352-2.563-2.557.505-5.302 1.396-6.69 3.604-.538.855-.822 1.841-1.084 2.817-2.947 10.955-6.686 27.195.526 37.288 1.375 1.926 3.222 3.454 5.207 4.694 2.653 1.657 5.591 2.785 8.629 3.385a46.359 46.359 0 0 1-2.612 7.957c2.67 4.026 15.128 4.508 17.432.648.13-3.34.258-6.681.387-10.022a24.783 24.783 0 0 0 4.357-2.263c5.326-3.507 8.834-8.829 10.871-14.783 2.219-6.482 5.341-12.645 7.368-19.252.739-2.406 1.321-5.154.055-7.33-1.348-2.316-4.259-3.104-6.874-3.688-.738-.164-1.478-.33-2.22-.492" fill="#B97262"/><path d="M835.284 485.383c5.765-3.71 14.416-5.306 19.839-4.912 16.39 1.186 22.396 13.224 23.27 28.296 4.518-5.739 12.991-12.959 13.503-20.344.419-6.046-.417-14.288-3.804-19.51-3.169-4.885-11.272-7.568-16.091-10.398l-13.628-8.006c-.944-.554-1.916-1.12-2.994-1.306-1.278-.222-2.578.104-3.832.429l-32.21 8.324c-2.061.533-4.412 1.312-5.172 3.301-.461 1.212-.19 2.564.087 3.83 1.219 5.573 3.559 11.27 4.137 16.916.656 3.28 2.612 20.092 8.42 18.152 1.706-2.79 1.962-6.224 3.29-9.211.982-2.207 2.845-4.057 5.185-5.561" fill="#292949"/><path d="M836.767 531.773l-17.107 5.206-62.477 65.453-3.72 21.571 29.869 49.314 8.064-18.074-12.644-36.446 20.081-14.133 26.778-60.247 11.156-12.644" fill="#D7E8F4"/><path d="M732.685 936.724l1.208 9.396-17.585 11.812-10.604-8.188 8.188-10.605 17.585-11.812 1.208 9.397" fill="#305399"/><path d="M733.279 933.569l-13.56-119.834 16.316-134.155-3.67-28.537-72.877-2.768-2.629 46.446 12.233 119.196 46.028 125.776 18.159-6.124" fill="#292949"/><path d="M652.647 515.684l-36.658 9.984-42.396 75.123 20.083 18.594 28.264-33.47 30.707-70.231" fill="#305399"/><path d="M606.013 661.703l-.192 120.929 24.342 155.675 17.52-.175 9.63-143.963 22.54-144.092-73.84 11.626" fill="#292949"/><path d="M647.656 945.521l-18.852 9.663-9.568-9.379 9.379-9.567 18.946-.19.095 9.473M743.577 702.832c-.168-5.241-.458-9.615-.5-11.176-.376-14.057-1.629-28.083-3.388-42.041-1.577-12.508-3.568-43.56-5.708-55.991-1.768-10.263-7.926-35.881-12.376-45.403-11.066-23.674-7.648-25.861-56.257-32.89-21.304-3.082-26.34 10.196-43.757 25.464-1.718 1.505-1.623 10.47-2.022 12.845-.701 4.181-1.453 8.355-2.316 12.509a200.844 200.844 0 0 1-2.264 9.755l.003-.001s-14.623 66.54-24.292 80.672c-9.669 14.13-29.644 33.888 3.771 45.952 5.921 1.913 11.88 3.734 18.044 4.709 0 0 27.328-3.039 41.382-2.932 12.944.096 25.942 1.405 38.667 3.6 8.509 1.423 17.192 3.489 24.804 7.465 7.263 3.794 12.504 9.375 19.873 13.302.698.372 1.463.757 2.256.646 4.232-.585 4.431-15.456 4.08-26.485" fill="#305399"/><path d="M710.976 395.24s-6.965-3.455-6.935-4.347c.031-.892 1.203-13.494 1.203-13.494l4.565-2.608 1.919-5.371s-5.216-9.132-4.256-11.816c.959-2.687 7.92 9.188 7.92 9.188l2.552 7.271.649 11.74-7.617 9.437M636.745 575.189l14.25-10.861-4.378-6.292-11.404 5.276-.688-3.936-11.061 10.777 3.665 7.156 9.616-2.12z" fill="#EFBFA5"/><path d="M634.939 579.025l-11.43-14.934-39.346 23.729 9.698 31.681 41.078-40.476" fill="#305399"/><path d="M665.292 522.007c2.453 1.212 8.241 1.645 14.281-.72 1.216-.476 2.038-1.65 2.02-2.956a81.763 81.763 0 0 0-.882-10.962c4.529-1.592 9.762-3.98 10.552-8.717.249-1.491-.01-3.015-.266-4.505l-3.193-18.48c-.369-2.132-.761-4.324-1.919-6.15-2.033-3.204-5.98-4.605-9.718-5.254-9.539-1.655-19.934.41-27.33 6.658-1.969 1.663-3.749 3.663-4.616 6.088-1.338 3.742-.337 7.868.671 11.711l2.795 10.64c1.07 4.08 2.617 8.717 6.548 10.248 2.086.811 4.55.575 6.44 1.776 3.333 2.119 2.884 7.075 4.617 10.623" fill="#EFBFA5"/><path d="M610.236 460.572c-.936-1.539-1.945-3.023-3.075-4.416-2.446-3.016-5.461-5.6-7.429-8.948-1.968-3.347-2.66-7.884-.299-10.967 1.524-1.989 3.998-2.984 6.402-3.69a46.522 46.522 0 0 1 24.473-.452c7.621 1.94 14.443 5.152 22.116 2.286 7.209-2.692 12.416-1.594 19.949 1.094 8.155 2.909 19.1 3.594 26.48 7.702 3.083 1.715 5.542 4.395 7.459 7.356 6.64 10.258 6.677 24.4.089 34.692-1.477 2.31-3.246 4.419-5.104 6.435-3.848 4.171-8.448 9.324-13.74 10.869-.125-4.733 4.187-19.658.551-23.538-5.769-6.158-18.813-4.01-25.969-2.494-7.807 1.654-14.766 7.182-22.506 8.363-5.569.851-12.677-1.881-17.412-4.759-5.844-3.556-8.565-13.918-11.985-19.533" fill="#3B455A"/><path d="M692.284 519.923l37.471-19.711-25.714-104.972 17.712-9.571 44.754 114.543-47.914 57.824-26.309-38.113" fill="#305399"/><path d="M417.175 943.66l-.81 7.955 15.103 9.573 8.763-7.148-7.147-8.763-15.101-9.572-.808 7.955" fill="#3B455A"/><path d="M416.591 700.991l-2.456 24.158 21.57 107.964-19.102 107.899 15.458 4.76 49.983-128.289 2.741-39.22-6.769-81.243-61.425 3.971z" fill="#305399"/><path d="M533.745 709.215l.496 102.064-20.114 131.457-14.788-.098-8.526-121.481-19.421-121.552 62.353 9.61z" fill="#305399"/><path d="M499.383 948.872l15.937 8.103 8.049-7.942-7.942-8.049-15.991-.107-.053 7.995z" fill="#3B455A"/><path d="M546.207 694.236c-10.667-33.047-11.804-67.747-14.907-102.172-.92-10.156-1.897-20.537-6.125-29.817-4.855-10.659-12.882-16.283-22.231-19.356-11.901-3.912-25.947-3.687-38.321-4.44-11.742-.37-22.128 43.768-34.106 65.164-7.34 13.112-14.902 24.709-19.853 39.013-4.752 13.727-9.315 27.696-12.08 41.979-4.173 21.564-14.848 36.621-4.653 43.957.934.308 1.834.615 2.689.92 16.723 5.991 34.027 10.425 51.647 12.752 15.63 2.063 31.506 2.439 47.202.891 21.484-2.118 42.3-5.154 61.24-16.358l-10.502-32.533" fill="#96BFEE"/><path d="M458.879 505.6c6.688-20.193 36.157-27.227 43.008-3.757 2.057 7.052 3.297 14.534 1.897 21.746-1.399 7.214-5.807 14.134-12.533 17.09l-.115.048.788 5.614c.056.403.104.847-.123 1.184-.257.384-.768.484-1.225.552l-6.704 1c-1.107.166-2.261.328-3.327-.013-2.334-.748-3.305-3.545-3.408-5.995a30.655 30.655 0 0 1-.009-1.769c-13.224-4.531-22.623-22.5-18.249-35.7" fill="#B97262"/><path d="M494.78 471.119c5.397-.803 9.992 4.43 14.971 7.177 4.141 2.287 8.837 2.892 13.13 4.787 4.294 1.893 8.512 5.848 8.603 10.797 4.351-2.264 9.063-4.585 13.937-3.647 4.875.94 9.4 6.76 7.459 11.558-1.74 4.294-7.344 5.306-9.209 9.536-2.948 6.688 5.025 17.077-.416 21.513-1.31 1.067-3.088 1.325-4.375 2.423-1.596 1.364-2.109 3.706-2.82 5.788-3.221 9.44-12.736 15.605-22.135 14.344-5.842-2.739-10.504-8.394-12.592-14.868-2.516-7.806 1.66-10.531 2.364-17.858.771-8.006-1.776-16.485-6.816-22.704-3.281-4.046-7.974-7.533-12.936-8.006-2.016-.192-1.381 1.489-3.649-.071-.975-.669-2.303-3.203-2.579-4.416 5.427-4.365 9.964-15.297 17.063-16.353" fill="#292949"/><path d="M436.421 481.5c-2.784.776-5.806.661-8.458 1.824-3.983 1.747-3.742 5.881-4.87 9.472-1.248 3.977-3.062 9.315-5.685 12.407-1.889 2.229-4.535 3.498-6.837 5.218-2.302 1.719-4.419 4.259-4.37 7.358.047 2.937 2.022 5.574 2.31 8.506.352 4.374-.404 6.612.944 11.082.696 2.306 1.474 4.749 3.205 6.322 2.281 2.071 5.531 2.032 8.384 1.555 2.852-.477 5.801-1.269 8.616-.323 6.101 2.052 4.963 8.224 6.587 13.396 2.472 7.872 11.598 12.466 18.581 9.667 5.92-2.373 9.345-9.247 9.079-16.033-.134-3.398-1.487-6.563-1.586-9.964-.094-3.28 1.755-7.822-1.217-10.424-.725-.634-1.653-.968-2.304-1.691-.525-.584-.817-1.367-1-2.149-.633-2.71-.036-5.667 1.561-7.742 1.15-1.49 2.795-2.581 3.499-4.38.807-2.062.168-4.473.031-6.752-.33-5.508 2.682-10.909 7.27-13.036 3.024-1.4 5.748-2.228 8.391-4.36.403-.324 6.415-5.637 6.569-4.489-.269-1.999-1.436-3.747-2.617-5.351-1.944-2.636-4.101-5.204-6.837-6.782-8.851-5.106-9.278 6.76-16.383 5.198-1.713-.376-3.004-1.946-4.545-2.885-2.915-1.771-6.492-1.137-9.472.189-2.98 1.328-5.711 3.295-8.846 4.167" fill="#292949"/><path d="M1016.936 746.476l65.004-21.812-16.487 112.307 5.278 105.009h-11.83l-27.557-93.248-12.355-92.695-2.053-9.561" fill="#305399"/><path d="M1058.204 940.584l13.171.045 3.042 11.2-.334.088.084.012-22.127 12.268-10.377.855-.976-11.86 2.852-1.966 14.665-10.642" fill="#3B455A"/><path d="M966.371 747.157l14.24 199.983 11.201 1.384 16.829-110.744 25.146-103.12-67.416 12.497" fill="#305399"/><path d="M980.055 945.132l-17.139 9.078 1.351 8.003 30.265-3.679-1.445-11.515-13.032-1.887z" fill="#3B455A"/><path d="M1099.667 778.925c1.356-32.709-27.859-136.725-27.859-136.725l.005-.001c-3.089-9.774-5.446-19.715-6.857-29.682-1.005-7.096-22.267-87.738-20.856-87.841-14.647 1.069-42.887-2.393-53.735 8.009-.309.298-.605.606-.886.926-8.459 9.645-12.852 29.176-16.851 41.194a322.744 322.744 0 0 0-12.044 48.395c-2.409 14.349-3.84 28.844-4.853 43.353-.87 12.474-.179 24.876-.604 37.147-.47 13.584-4.544 28.311-7.584 41.525-3.06 13.308-6.946 26.458-12.32 39.027 14.541 6.436 30.737 8.175 46.638 8.235 15.902.061 31.782-1.472 47.682-1.23 13.445.208 27.056 1.672 40.229-1.022 10.476-2.146 20.147-6.808 29.895-11.31z" fill="#587BC9"/><path d="M993.957 490.473c-6.684 3.303-13.652 11.816-13.221 19.742.208 3.816 2.319 6.781 2.377 10.874.15 8.07 12.383 16.518 4.895 24.3-3.849 4-9.865 4.784-15.389 5.339-.67.067-1.372.131-1.992-.133-1.022-.431-1.518-1.64-1.495-2.748.023-1.108.451-2.162.787-3.218 3.513-11.045-1.792-23.926-2.419-35.181-.625-11.232 2.033-23.359 11.243-30.679 6.174 1.883 10.776 4.491 13.812 10.188l1.402 1.516z" fill="#3B455A"/><path d="M998.111 538.412c-7.615-.96-14.087-6.579-17.635-13.385-3.547-6.806-4.531-14.667-4.567-22.342-.121-25.538 31.482-27.262 44.186-9.03 11.072 15.889.156 47.544-21.984 44.757" fill="#EFBFA5"/><path d="M1036.369 541.527c-3.922-1.118-7.808-2.351-10.845-5.664-4.908-5.356-6.372-15.443-8.685-22.116-2.436-7.035-5.316-14.635-11.71-18.448-4.176-2.491-8.38-2.299-12.954-1.479-3.134.561-3.022 1.767-5.991.608-2.276-.888-4.757-4.385-5.664-6.536-1.531-3.629-.793-7.917 1.128-11.355 2.957-5.29 7.075-8.437 12.847-9.702 20.26-4.442 37.901 4.626 47.538 23.382 4.632 9.014 4.678 20.054 9.424 28.672 2.93 5.322 7.31 8.391 9.97 14.148 6.905 14.938 19.508 33.3 22.03 49.654.094.604.154 1.282-.217 1.77-.757.991-2.323.271-3.303-.5l-17.162-13.501c-2.247-1.768-4.524-3.568-6.198-5.885-4.164-5.772-4.265-14.275-9.857-18.676-3.052-2.402-6.717-3.339-10.351-4.372" fill="#3B455A"/><path d="M1131.257 510.588c3.827.713 13.796-1.955 16.086-5.473 5.286-8.12-7.255-5.62-11.784-5.73.518-1.573 1.068-3.078 1.268-4.689.184-1.476-13.275 2.359-14.571 3.769-3.113 3.383-1.693 5.939-1.413 10.218 3.476.552 6.946 1.257 10.414 1.905z" fill="#EFBFA5"/><path d="M1025.419 592.219l73.544-12.238 33.865-68.676-13.463-11.093-35.837 47.556-37.444-1.591-34.657 1.502 13.992 44.54" fill="#587BC9"/><path d="M287.288 742.232l-64.352-23.665L236.2 831.3l-7.685 97.259-.208.646.154.019-.513 6.481 11.349 2.062 30.66-93.735 15.004-92.301 2.327-9.499" fill="#EFBFA5"/><path d="M240.479 935.079l-13.166-.334-3.362 11.11.332.098-.084.01 21.766 12.897 10.348 1.149 1.316-11.826-2.796-2.048-14.354-11.056" fill="#305399"/><path d="M331.121 744.168l-19.897 198.865-11.169 2.739-13.78-112.229-22.184-103.796 67.03 14.421z" fill="#EFBFA5"/><path d="M311.776 941.669l16.872 9.567-1.581 7.96-30.147-4.544 1.775-11.469 13.081-1.514z" fill="#305399"/><path d="M361.293 792.643c4.071-2.828 4.159-7.751 4.151-12.68-.012-9.26-1.677-18.724-3.8-27.722-4.041-16.88-8.621-37.209-10.637-59.081-5.206-56.527-23.058-94.46-23.058-94.46l-5.758-15.36a149.953 149.953 0 0 0-3.574-5.92c-7.194-11.288-19.685-30.473-33.045-33.613-.279-.066-.56-.13-.843-.191-14.045-3.084-32.042-1.652-44.736 5.176-2.409 1.295-4.55 3.021-6.677 4.736-6.207 5.007-11.269 7.719-13.945 15.348-2.323 6.625-2.863 13.853-4.144 20.717-2.603 13.948-4.155 28.063-6.234 42.092-3.896 26.308-7.205 52.7-11.374 78.967-2.146 13.52-4.307 27.063-5.32 40.723-.896 12.078-11.792 24.341-17.915 35.165-2.131 3.767 28.469 13.528 31.211 14.165 12.693 2.955 26.196 2.202 39.281 2.26 28.675.13 57.355-.754 85.967-2.652 9.508-.629 21.225-2.445 29.661-7.177.279-.157.541-.321.789-.493" fill="#587BC9"/><path d="M268.98 542.071s-16.152-4.362-18.384 32.084c-2.231 36.445-5.951 128.674-11.156 153.964-5.207 25.289-13.017 74.892-13.017 74.892l49.462 1.718 56.528-4.464s-19.338-35.701-22.314-60.989c-2.975-25.289 2.232-120.493-10.412-156.195-12.646-35.702-15.298-40.37-30.707-41.01" fill="#D7E8F4"/><path d="M342.083 623.245l3.718 4.462 13.388-18.594-53.552-59.504-20.082-5.949 9.668 26.033 46.86 53.552" fill="#587BC9"/><path d="M297.323 607.848l-11.754-8.957 3.61-5.191 9.406 4.352.568-3.247 9.124 8.89-3.024 5.902-7.93-1.749" fill="#EFBFA5"/><path d="M343.361 605.559l-.528 1.157-36.636-7.067-5.401 12.018 45.005 16.04-2.44-22.148" fill="#587BC9"/><path d="M291.508 513.195c2.444 7.338-1.092 15.164-4.197 21.85-2.755 5.931-3.711 9.834 3.278 11.434 3.939.902 10.928 2.585 14.383-.431 2.615-2.285 1.144-9.34-.128-12.143-.972-2.14-3.544-3.226-4.459-5.392-.376-.892-.43-1.884-.444-2.852a39.349 39.349 0 0 1 1.618-11.714c.764-2.576 1.798-5.107 2.028-7.783.334-3.883-2.41-8.405-3.852-11.972-2.684-6.636-12.024-15.536-19.846-10.328-1.78 1.187-2.817 3.192-3.684 5.148-.517 1.168-1.01 2.387-1.025 3.664-.06 5.095 4.592 5.955 7.804 8.38 3.961 2.989 6.964 7.456 8.524 12.139z" fill="#3B455A"/><path d="M276.633 541.829c6.784-1.597 12.088-7.293 14.636-13.78 2.55-6.486 2.683-13.68 1.978-20.613-2.346-23.073-31.048-21.592-40.767-3.908-8.471 15.412 4.429 42.948 24.153 38.301" fill="#EFBFA5"/><path d="M276.627 539.344l-.343 7.884c-.016.385-.048.807-.317 1.083-.307.314-.8.32-1.239.305l-6.425-.223c-1.062-.036-2.166-.085-3.102-.586-2.049-1.1-2.473-3.878-2.145-6.179.327-2.303 1.152-4.621.664-6.895 4.423 2.179 8.624-2.745 13.047-.566l-.14 5.177" fill="#EFBFA5"/><path d="M267.369 467.435c-7.536 2.561-12.369 10.182-19.722 13.228-4.219 1.745-9.21 1.966-12.651 4.966-7.712 6.722-1.513 20.826-7.849 28.858-1.318 1.669-3.094 2.932-4.416 4.597-2.854 3.593-3.227 8.497-3.48 13.077-.059 1.031-.068 2.154.11 3.191.991 10.577 16.347 9.905 22.447 9.228 6.695-.744 4.464-4.463 4.464-4.463l-.244-.297c-.641-4.295 1.124-8.876 4.499-11.612 1.252-1.015 2.733-1.824 3.616-3.173 1.981-3.027.089-7.038.381-10.644 1.172-14.526 25.552-11.414 32.431-21.754 8.437-12.682-5.352-30.037-19.586-25.202" fill="#3B455A"/><path d="M347.104 266.751l-209.953 17.05c-.81.066-1.406.82-1.334 1.686l13.175 156.384c.073.865.788 1.514 1.596 1.448l47.456-3.854 36.348 42.22c1.063 1.234 3.112.419 3-1.193l-3.032-43.976 82.08-6.665c25.165-2.044 43.728-25.526 41.46-52.45l-9.2-109.202c-.072-.866-.788-1.514-1.596-1.448" fill="#305399"/><path d="M323.723 300.312l-130.779 10.62-.451-5.349 130.78-10.622.45 5.351M327.16 341.107l-155.983 12.668-.45-5.351 155.982-12.668.451 5.351zM330.597 381.901l-155.982 12.668-.451-5.349 155.981-12.668.452 5.349z" fill="#FFE"/><path d="M770.389 320.416c0-45.292 52.015-82.009 116.18-82.009 64.164 0 116.18 36.717 116.18 82.009 0 45.293-52.016 82.009-116.18 82.009-2.55 0-5.08-.061-7.589-.176a1.774 1.774 0 0 0-1.823 2.094l9.258 50.49c.322 1.76-1.87 2.838-3.067 1.507l-60.452-67.168a1.768 1.768 0 0 0-.564-.419c-31.305-14.692-51.943-39.81-51.943-68.337" fill="#305399"/><path d="M935.995 330.451c-6.702 0-6.714-10.414 0-10.414 6.7 0 6.71 10.414 0 10.414zM889.132 330.451c-6.701 0-6.713-10.414 0-10.414 6.7 0 6.711 10.414 0 10.414zM830.553 330.451c-6.701 0-6.712-10.414 0-10.414 6.7 0 6.712 10.414 0 10.414z" fill="#ECE9DE"/><path d="M188.04 441.764l4.404-15.433 6.677 1.593-.674 11.237 3.508-.713-5.376 12.748-7.166-.72-1.373-8.712" fill="#EFBFA5"/><path d="M246.949 558.955l-48.817-39.43 1.715-72.034-14.292-.703-20.874 84.6 48.883 61.669 33.385-34.102" fill="#587BC9"/><path d="M873.235 540.692l31.816-34.372-7.495-93.153 13.979-6.14 19.017 94.494-5.82 23.551-35.668 49.205-15.829-33.585z" fill="#D7E8F4"/><path d="M911.535 407.027v-21.358l-9.77-5.706-4.7 8.664v8.696l-5.069 2.086 5.56 13.758 13.979-6.14" fill="#B97262"/><path d="M574.609 205.615l170.058-.327c15.741-.031 28.526 12.707 28.556 28.447l.21 109.618c.031 15.676-12.606 28.435-28.282 28.555l-27.328.209-31.072 43.774c-.908 1.277-2.922.654-2.948-.914l-.72-42.792-108.222-.046c-15.714-.007-28.458-12.732-28.489-28.447l-.209-109.521c-.031-15.742 12.705-28.527 28.446-28.556" fill="#3B455A"/><path d="M578.883 244.248l135.853.035.001-5.66-135.853-.035-.001 5.66zM578.872 287.409l162.033.042.002-5.66-162.034-.042-.001 5.66zM578.861 330.572l162.032.04.002-5.66-162.034-.041v5.661z" fill="#FFFFEF"/><path d="M571.216 353.372c-.357-21.693-18.115-39.011-39.756-38.897.017-.682.029-1.366.019-2.055-.438-26.496-22.271-47.621-48.767-47.184-14.417.237-27.235 6.819-35.863 17.031-8.285-9.136-20.305-14.799-33.605-14.58-23.671.39-42.701 19.246-43.604 42.617a40.154 40.154 0 0 0-3.033-.079c-21.846.36-39.263 18.362-38.903 40.207.291 17.573 12 32.272 27.939 37.165a38.15 38.15 0 0 0-2.826 15.094c.35 21.141 17.77 37.994 38.91 37.645a38.376 38.376 0 0 0 4.78-.38l.674 40.945c.056 1.775 2.347 2.447 2.976 1.532l25.352-36.838a38.065 38.065 0 0 0 21.224 6.017c14.166-.233 26.398-8.139 32.828-19.684a42.541 42.541 0 0 0 22.758 6.127c23.608-.39 42.429-19.843 42.04-43.45a43.858 43.858 0 0 0-.171-3.049c15.944-5.316 27.32-20.487 27.028-38.184" fill="#7DB5DB"/><path d="M495.887 358.811c-5.842.097-5.702 9.174.149 9.078 5.841-.096 5.701-9.174-.149-9.078zM455.036 359.485c-5.841.096-5.703 9.175.149 9.078 5.842-.096 5.702-9.174-.149-9.078zM403.972 360.328c-5.841.096-5.701 9.173.149 9.077 5.842-.096 5.702-9.174-.149-9.077z" fill="#ECE9DE"/><path d="M531.717 429.424l-8.84-13.395-5.889 3.528 4.021 10.514-3.56.376 8.962 10.541 6.617-2.841-1.311-8.723z" fill="#B97262"/><path d="M502.817 549.331l42.656-42.71-23.293-68.185 13.419-4.967 45.345 74.408-58.433 72.427-19.694-30.973" fill="#96BFEE"/></g></svg>