<svg width="52" height="66" fill="none" xmlns="http://www.w3.org/2000/svg"><path d="M19.722 51.773c-.643-.214-1.5.214-1.714 1.071l-1.713 6.641c-.215.643.214 1.5 1.07 1.714h.43c.642 0 1.07-.428 1.284-1.071l1.714-6.641c0-.643-.428-1.5-1.07-1.714zm8.784 2.356c-.857-.214-1.5.215-1.714 1.072l-1.714 6.64c-.214.643.214 1.5 1.071 1.715h.429c.642 0 1.07-.429 1.285-1.072l1.714-6.64c0-.858-.429-1.5-1.071-1.715zm-4.5-1.07c-.642-.215-1.499.214-1.713 1.07l-1.714 6.642c-.214.642.214 1.5 1.071 1.713h.429c.642 0 1.07-.428 1.285-1.07l1.714-6.642c.214-.857-.214-1.5-1.071-1.714zm22.067-25.28l2.142-8.355c.857-3.428-.214-7.712-3.214-11.783-2.356-3.213-5.57-5.784-7.498-6.427C37.075 1 36.647 1 36.003 1c-4.07 0-14.995 3.213-16.924 10.926l-2.142 8.355-7.926 4.713c-.215.214-.643.428-.643.857L4.94 39.133c-.214.643 0 1.071.429 1.5.214.214.642.214.857.214.214 0 .428 0 .642-.214l5.356-3.214-.857 3.428c0 .428 0 .643.214 1.071.215.215.429.643.857.643l5.356 1.285-1.285 5.356c-.215.643.214 1.5 1.07 1.714l13.283 3.428h.429c.214 0 .428 0 .642-.215.215-.214.643-.428.643-.856l1.285-5.356 5.356 1.285h.429c.214 0 .428 0 .642-.214.215-.214.643-.429.643-.857l.857-3.428 3.214 5.356c.214.428.642.643 1.285.643h.214c.643 0 1.071-.429 1.071-1.071L51 36.348c0-.428 0-.642-.214-1.07l-4.713-7.5zm-4.928-5.356c-1.07 3.856-4.498 6.641-8.569 6.641-.643 0-1.5 0-2.142-.214-2.357-.643-4.285-1.928-5.356-4.07-1.285-1.928-1.5-4.285-.857-6.642 1.071-3.856 4.499-6.64 8.57-6.64.642 0 1.499 0 2.142.214 2.356.642 4.07 1.928 5.355 4.07 1.072 2.142 1.5 4.499.857 6.641z" stroke="#F7F9FF"/><path d="M36.004 17.067c-.429-.642-1.071-1.07-1.928-.642l-5.142 2.356c-.643.429-1.071 1.071-.643 1.928.215.429.643.857 1.286.857.214 0 .428 0 .642-.214l5.142-2.357c.643-.214.857-1.07.643-1.928zm-1.286 3l-1.928.857c-.642.428-1.07 1.07-.642 1.928.214.428.642.857 1.285.857.214 0 .428 0 .643-.215l1.928-.857c.643-.428 1.071-1.07.643-1.928-.429-.642-1.286-1.07-1.929-.642zM9.011 15.354l3.427 1.928c.214 0 .429.214.643.214.214 0 .643 0 .857-.214.428-.215.643-.857.643-1.286l-.643-3.856 2.785-2.785c.428-.428.428-.857.428-1.5-.214-.428-.642-.857-1.07-.857l-4.071-.642-1.714-3.642c-.214-.429-.643-.857-1.285-.857-.429 0-1.072.214-1.286.857L6.011 6.356l-3.856.428c-.428 0-.857.429-1.071.857-.214.429 0 1.071.429 1.5l2.785 2.785-.857 3.856c0 .428.214 1.071.642 1.285.429.215 1.071.429 1.5 0l3.428-1.713zM45.43 55.629l-3.213-.428-1.5-3c-.429-.857-1.928-.857-2.57 0l-1.5 3-3.214.428c-.428 0-.857.428-1.071.857-.214.428 0 1.071.428 1.5l2.357 2.356-.643 3.214c0 .428.214 1.07.643 1.285.428.214 1.071.428 1.5 0l2.999-1.5 2.999 1.5c0 .428.214.428.428.428.215 0 .643 0 .857-.214.429-.214.643-.857.643-1.285l-.643-3.214 2.357-2.356c.428-.429.428-.857.428-1.5-.214-.643-.642-1.07-1.285-1.07z" stroke="#F7F9FF"/></svg>