<svg xmlns="http://www.w3.org/2000/svg" style="isolation:isolate" width="30" height="30"><defs><clipPath id="a"><path d="M0 0h30v30H0z"/></clipPath></defs><g clip-path="url(#a)"><path fill="none" d="M0 0h30v30H0z"/><path d="M2.764 1.847c-.853 0-1.551.7-1.551 1.556 0 .856.698 1.556 1.551 1.556s1.551-.7 1.551-1.556c0-.237-.057-.459-.153-.661a3.493 3.493 0 0 1 2.541 2.775l.824 4.702 1.503 8.74h.031l.55 3.127a2.327 2.327 0 0 0 2.098 1.91c-.254.33-.413.738-.413 1.185 0 1.069.873 1.944 1.939 1.944a1.947 1.947 0 0 0 1.939-1.944c0-.439-.153-.84-.4-1.167h2.747c.201 3.251 2.893 5.833 6.185 5.833 3.422 0 6.205-2.79 6.205-6.222a6.217 6.217 0 0 0-5.242-6.138c.101-.196.178-.402.231-.616l2.004-8.374-19.166-1.57-.272-1.543a4.273 4.273 0 0 0-4.2-3.537h-.502zm0 .778c.433 0 .776.344.776.778a.771.771 0 0 1-.776.778.77.77 0 0 1-.775-.778.77.77 0 0 1 .775-.778zm5.12 5.095l18.053 1.478-1.793 7.493c-.062.26-.178.504-.341.717-.032 0-.064-.005-.097-.005a6.152 6.152 0 0 0-2.998.778H9.715L8.277 10l-.393-2.28zm4.188 2.294a.39.39 0 0 0 0 .778.389.389 0 0 0 0-.778zm2.327 0a.39.39 0 0 0 0 .778.389.389 0 0 0 0-.778zm2.326 0a.389.389 0 0 0 0 .778.39.39 0 0 0 0-.778zm2.327 0a.39.39 0 0 0 0 .778.39.39 0 0 0 0-.778zm2.327 0a.39.39 0 0 0 0 .778.39.39 0 0 0 0-.778zm-9.307 1.556a.39.39 0 0 0 0 .777.389.389 0 0 0 0-.777zm2.327 0a.39.39 0 0 0 0 .777.389.389 0 0 0 0-.777zm2.326 0a.389.389 0 0 0 0 .777.389.389 0 0 0 0-.777zm2.327 0a.39.39 0 0 0-.388.389.39.39 0 0 0 .388.388.389.389 0 0 0 0-.777zm2.327 0a.39.39 0 0 0-.388.389.39.39 0 0 0 .388.388.39.39 0 0 0 .388-.388.39.39 0 0 0-.388-.389zm-9.307 1.555a.39.39 0 0 0 0 .778.389.389 0 0 0 0-.778zm2.327 0a.39.39 0 0 0 0 .778.389.389 0 0 0 0-.778zm2.326 0a.389.389 0 0 0 0 .778.39.39 0 0 0 0-.778zm2.327 0a.39.39 0 0 0 0 .778.39.39 0 0 0 0-.778zm2.327 0a.39.39 0 0 0 0 .778.39.39 0 0 0 0-.778zm-9.307 1.556a.39.39 0 0 0 0 .778.389.389 0 0 0 0-.778zm2.327 0a.39.39 0 0 0 0 .778.389.389 0 0 0 0-.778zm2.326 0a.389.389 0 0 0 0 .778.39.39 0 0 0 0-.778zm2.327 0a.39.39 0 0 0 0 .778.39.39 0 0 0 0-.778zm2.327 0a.39.39 0 0 0 0 .778.39.39 0 0 0 0-.778zm-9.307 1.555a.39.39 0 0 0 0 .778.389.389 0 0 0 0-.778zm2.327 0a.39.39 0 0 0 0 .778.389.389 0 0 0 0-.778zm2.326 0a.389.389 0 0 0 0 .778.39.39 0 0 0 0-.778zm2.327 0a.39.39 0 0 0 0 .778.39.39 0 0 0 0-.778zm2.327 0a.39.39 0 0 0 0 .778.39.39 0 0 0 0-.778zm2.327 1.945a5.431 5.431 0 0 1 5.429 5.444 5.432 5.432 0 0 1-5.429 5.445 5.432 5.432 0 0 1-5.429-5.445 5.431 5.431 0 0 1 5.429-5.444zm-13.856.778h9.766a6.204 6.204 0 0 0-2.094 4.277h-5.619a1.549 1.549 0 0 1-1.528-1.287l-.525-2.99zm13.468 1.944v2.333h-2.327v.778h2.327v2.333h.776v-2.333h2.327v-.778h-2.327v-2.333h-.776zm-10.083 3.111a1.16 1.16 0 0 1 1.164 1.167 1.16 1.16 0 0 1-1.164 1.166 1.159 1.159 0 0 1-1.163-1.166 1.16 1.16 0 0 1 1.163-1.167zm0 .778a.39.39 0 0 0 0 .778.39.39 0 0 0 0-.778z" fill="#FFF"/></g></svg>