<svg xmlns="http://www.w3.org/2000/svg" style="isolation:isolate" viewBox="0 0 50 50" width="50pt" height="50pt"><defs><clipPath id="a"><path d="M0 0h50v50H0z"/></clipPath></defs><g clip-path="url(#a)"><path d="M16.011 6.75l3.023 4.118h8.108c6.845 0 12.355 5.51 12.355 12.354v8.236h-6.178l8.237 11.261 8.236-11.261h-6.177v-8.236c0-9.072-7.401-16.472-16.473-16.472H16.011zm-7.4 1.093L.375 19.104h6.177v8.236c0 9.072 7.4 16.472 16.472 16.472h11.131l-3.022-4.118h-8.109A12.327 12.327 0 0 1 10.67 27.34v-8.236h6.177L8.611 7.843z" fill="#21B4B7"/></g></svg>