<svg xmlns="http://www.w3.org/2000/svg" style="isolation:isolate" viewBox="0 0 500 600" width="500pt" height="800"><defs><clipPath id="a"><path d="M0 0h500v600H0z"/></clipPath></defs><g clip-path="url(#a)"><clipPath id="b"><path fill="#FFF" d="M0 0h600v600H0z"/></clipPath><g clip-path="url(#b)"><path fill="#FAFAFA" d="M0 0h600v600H0z"/><clipPath id="c"><path fill="#FFF" d="M0 0h600v600H0z"/></clipPath><g clip-path="url(#c)"><g opacity=".8"><linearGradient id="d" x1=".981" y1=".174" x2=".163" y2=".12" gradientTransform="matrix(492.004 0 0 615.269 74.403 160.66)" gradientUnits="userSpaceOnUse"><stop offset="49.13%" stop-color="#d86076"/><stop offset="98.261%" stop-color="#ee7752"/></linearGradient><path d="M125.261 699.919L75.055 290.715c-5.817-47.408 27.95-90.619 75.357-96.436l268.702-32.967c47.408-5.817 90.619 27.95 96.436 75.357l50.206 409.205c5.816 47.408-27.95 90.619-75.358 96.436l-268.702 32.967c-47.407 5.817-90.619-27.95-96.435-75.358z" fill="url(#d)"/></g><g opacity=".85"><linearGradient id="e" x1=".528" y1=".085" x2=".128" y2=".508" gradientTransform="matrix(461.537 0 0 465.303 13.458 226.732)" gradientUnits="userSpaceOnUse"><stop offset="48.627%" stop-color="#d86076"/><stop offset="97.667%" stop-color="#ee7752"/></linearGradient><path d="M321.041 256.913l139.213 187.42c24.611 33.133 17.692 80.013-15.441 104.624L272.036 677.295c-33.133 24.61-80.014 17.691-104.625-15.442L28.198 474.434C3.587 441.301 10.506 394.42 43.639 369.809l172.777-128.337c33.133-24.611 80.014-17.692 104.625 15.441z" fill="url(#e)"/></g><path d="M482.2 300.157L610.8 476.71c28.271 38.812 19.712 93.274-19.1 121.545L437.192 710.798c-38.812 28.271-93.275 19.712-121.545-19.1L187.046 515.145c-28.27-38.812-19.712-93.275 19.1-121.545l154.509-112.543c38.812-28.271 93.274-19.713 121.545 19.1z" fill="#A92C5C" opacity=".9"/></g></g></g></svg>