<svg width="232" height="81" viewBox="0 0 232 81" fill="none" xmlns="http://www.w3.org/2000/svg">
<mask id="mask0" mask-type="alpha" maskUnits="userSpaceOnUse" x="28" y="0" width="146" height="80">
<rect x="28.037" width="145.185" height="80" fill="#C4C4C4"/>
</mask>
<g mask="url(#mask0)">
<ellipse cx="114.649" cy="68.8889" rx="53.279" ry="47.4074" fill="#D84315" fill-opacity="0.73"/>
</g>
<path d="M69.7996 22.6192C69.2053 18.4856 73.6404 15.488 77.2543 17.5808L88.1411 23.8851C91.3349 25.7345 91.493 30.288 88.4354 32.3546L79.3389 38.5026C76.2812 40.5692 72.1151 38.7246 71.5899 35.0716L69.7996 22.6192Z" fill="#DE684A"/>
<path d="M151.531 18.1152C155.143 16.0191 159.581 19.0125 158.991 23.1467L157.212 35.6007C156.69 39.2542 152.526 41.1027 149.466 39.039L140.364 32.8995C137.305 30.8357 137.458 26.2821 140.65 24.4297L151.531 18.1152Z" fill="#DE684A"/>
<path d="M75.8443 26.525C75.7499 24.9883 77.3545 23.9257 78.7325 24.6123L81.144 25.814C82.522 26.5006 82.6399 28.4215 81.3563 29.2716L79.1099 30.7592C77.8262 31.6092 76.1037 30.7509 76.0094 29.2142L75.8443 26.525Z" fill="#FFCCBC"/>
<path d="M150.056 24.7C151.475 24.102 153.009 25.264 152.818 26.7916L152.483 29.465C152.291 30.9927 150.518 31.7402 149.291 30.8106L147.143 29.1839C145.916 28.2543 146.155 26.3447 147.574 25.7466L150.056 24.7Z" fill="#FFCCBC"/>
<ellipse cx="97.6667" cy="67.4074" rx="16.2963" ry="8.88889" fill="#FAFAFA"/>
<ellipse cx="131" cy="67.4074" rx="16.2963" ry="8.88889" fill="#FAFAFA"/>
<path d="M116.151 68.3642C115.386 69.6512 113.529 69.6708 112.736 68.4001L110.159 64.2702C109.333 62.946 110.274 61.228 111.835 61.2116L116.901 61.1583C118.462 61.1419 119.439 62.8397 118.641 64.181L116.151 68.3642Z" fill="black"/>
<path d="M135.352 64.0858C151.136 54.7262 161.8 51.9531 184.241 51.4932" stroke="black"/>
<path d="M139.846 67.0395C156.72 61.1621 166.442 59.9489 184.29 61.8543" stroke="black"/>
<path d="M135.444 70.7407C158.817 65.0173 171.582 65.5485 193.963 70.7407" stroke="black"/>
<path d="M93.8611 64.8005C74.4476 53.1341 62.6063 49.8213 39.8512 49.3521" stroke="black"/>
<path d="M90.9609 67.7757C71.4719 60.6098 60.7472 59.2058 42.072 62.5905" stroke="black"/>
<path d="M93.9824 71.481C71.9422 67.7257 59.6146 68.1624 37.6861 74.4439" stroke="black"/>
<ellipse cx="96.9259" cy="47.0988" rx="3.7037" ry="3.39506" fill="black"/>
<ellipse cx="131" cy="47.0988" rx="3.7037" ry="3.39506" fill="black"/>
<path d="M99.0054 39.9399C94.0568 39.65 92.2549 40.638 90.1423 43.7049" stroke="black" stroke-width="2"/>
<path d="M136.516 42.3049C132.755 39.0766 130.722 38.7711 127.184 39.9316" stroke="black" stroke-width="2"/>
<path d="M119.845 73.8964C115.922 77.6613 113.618 76.7249 109.481 74.2531" stroke="black" stroke-width="3"/>
<mask id="mask1" mask-type="alpha" maskUnits="userSpaceOnUse" x="41" y="46" width="14" height="32">
<rect x="41" y="46" width="14" height="32" fill="#C4C4C4"/>
</mask>
<g mask="url(#mask1)">
<rect x="41" y="49" width="14" height="36" rx="7" fill="#E17453"/>
</g>
<circle cx="40.5" cy="52.5" r="3.5" fill="#E17453"/>
<circle cx="44.5" cy="48.5" r="3.5" fill="#E17453"/>
<circle cx="51.5" cy="48.5" r="3.5" fill="#E17453"/>
<circle cx="55.5" cy="52.5" r="3.5" fill="#E17453"/>
<circle cx="44.5" cy="48.5" r="1.5" fill="#FFCCBC"/>
<circle cx="40.5" cy="52.5" r="1.5" fill="#FFCCBC"/>
<circle cx="51.5" cy="48.5" r="1.5" fill="#FFCCBC"/>
<circle cx="55.5" cy="52.5" r="1.5" fill="#FFCCBC"/>
<path d="M45.0959 51.634C47.3057 49.3569 48.5449 49.556 50.7546 51.634C52.1446 54.7481 52.6654 56.23 50.7546 55.9711H45.0959C43.4144 56.0347 43.8728 54.6061 45.0959 51.634Z" fill="#FFCCBC"/>
<mask id="mask2" mask-type="alpha" maskUnits="userSpaceOnUse" x="174" y="46" width="14" height="32">
<rect x="174" y="46" width="14" height="32" fill="#C4C4C4"/>
</mask>
<g mask="url(#mask2)">
<rect x="174" y="49" width="14" height="36" rx="7" fill="#E17453"/>
</g>
<circle cx="173.5" cy="52.5" r="3.5" fill="#E17453"/>
<circle cx="177.5" cy="48.5" r="3.5" fill="#E17453"/>
<circle cx="184.5" cy="48.5" r="3.5" fill="#E17453"/>
<circle cx="188.5" cy="52.5" r="3.5" fill="#E17453"/>
<circle cx="177.5" cy="48.5" r="1.5" fill="#FFCCBC"/>
<circle cx="173.5" cy="52.5" r="1.5" fill="#FFCCBC"/>
<circle cx="184.5" cy="48.5" r="1.5" fill="#FFCCBC"/>
<circle cx="188.5" cy="52.5" r="1.5" fill="#FFCCBC"/>
<path d="M178.096 51.634C180.306 49.3569 181.545 49.556 183.755 51.634C185.145 54.7481 185.665 56.23 183.755 55.9711H178.096C176.414 56.0347 176.873 54.6061 178.096 51.634Z" fill="#FFCCBC"/>
<line x1="0.993507" y1="79.5" x2="231.994" y2="78.5" stroke="#D81B60" stroke-width="3"/>
</svg>
