<?xml version="1.0" encoding="UTF-8" standalone="no"?><!-- Generator: Gravit.io --><svg xmlns="http://www.w3.org/2000/svg" xmlns:xlink="http://www.w3.org/1999/xlink" style="isolation:isolate" viewBox="0 0 600 600" width="600pt" height="600pt"><defs><clipPath id="_clipPath_tC3IoHePhRuG2V3afccD2cSitrUp0tcb"><rect width="600" height="600"/></clipPath></defs><g clip-path="url(#_clipPath_tC3IoHePhRuG2V3afccD2cSitrUp0tcb)"><clipPath id="_clipPath_XYPKHkfrxmWuCVCEmnfC10jcVO5nJR4n"><rect x="0" y="0" width="600" height="600" transform="matrix(1,0,0,1,0,0)" fill="rgb(255,255,255)"/></clipPath><g clip-path="url(#_clipPath_XYPKHkfrxmWuCVCEmnfC10jcVO5nJR4n)"><g><clipPath id="_clipPath_viZ04zNCo06U5Sxl2fWx427F4P93wsCw"><rect x="0" y="0" width="600" height="600" transform="matrix(1,0,0,1,0,0)" fill="rgb(255,255,255)"/></clipPath><g clip-path="url(#_clipPath_viZ04zNCo06U5Sxl2fWx427F4P93wsCw)"><g><g><clipPath id="_clipPath_vgURbzHg81nYyJOztFdDKC7yrdTBlrM4"><rect x="0" y="0" width="600" height="600" transform="matrix(1,0,0,1,0,0)" fill="rgb(255,255,255)"/></clipPath><g clip-path="url(#_clipPath_vgURbzHg81nYyJOztFdDKC7yrdTBlrM4)"><g><g><g><clipPath id="_clipPath_0qxnGUrPbWTdv6GzHVnHTxleoFBC6xBt"><rect x="0" y="0" width="600" height="600" transform="matrix(1,0,0,1,0,0)" fill="rgb(255,255,255)"/></clipPath><g clip-path="url(#_clipPath_0qxnGUrPbWTdv6GzHVnHTxleoFBC6xBt)"><g><g><g><g><rect x="0" y="0" width="600" height="600" transform="matrix(1,0,0,1,0,0)" fill="rgb(250,250,250)"/><g><g><g><g style="opacity:0.8;"><g style="opacity:0.8;"><g style="opacity:0.8;"><g style="opacity:0.8;"><g style="opacity:0.8;"><g opacity="0.8"><linearGradient id="_lgradient_6" x1="0.12206765299701033" y1="0.6050595037388699" x2="0.7073431262588195" y2="0.060454219009515864" gradientTransform="matrix(492.004,0,0,615.269,232.298,173.066)" gradientUnits="userSpaceOnUse"><stop offset="0%" stop-opacity="1" style="stop-color:rgb(134,60,141)"/><stop offset="99.16666666666667%" stop-opacity="1" style="stop-color:rgb(41,252,240)"/></linearGradient><path d=" M 283.156 712.325 L 232.95 303.121 C 227.133 255.713 260.9 212.502 308.307 206.685 L 577.009 173.718 C 624.417 167.901 667.628 201.668 673.445 249.075 L 723.651 658.28 C 729.467 705.688 695.701 748.899 648.293 754.716 L 379.591 787.683 C 332.184 793.5 288.972 759.733 283.156 712.325 Z " fill="url(#_lgradient_6)"/></g></g></g></g></g></g><g style="opacity:0.85;"><g style="opacity:0.85;"><g style="opacity:0.85;"><g style="opacity:0.85;"><g style="opacity:0.85;"><g opacity="0.85"><linearGradient id="_lgradient_7" x1="-0.009269597617243441" y1="1.1521308026810815" x2="0.5435023758138172" y2="0.07746715390916115" gradientTransform="matrix(461.537,0,0,465.303,171.353,239.138)" gradientUnits="userSpaceOnUse"><stop offset="48.69565217391305%" stop-opacity="1" style="stop-color:rgb(134,60,141)"/><stop offset="100%" stop-opacity="1" style="stop-color:rgb(35,190,182)"/></linearGradient><path d=" M 478.936 269.319 L 618.149 456.739 C 642.76 489.872 635.841 536.752 602.708 561.363 L 429.931 689.701 C 396.798 714.311 349.917 707.392 325.306 674.259 L 186.093 486.84 C 161.482 453.707 168.401 406.826 201.534 382.215 L 374.311 253.878 C 407.444 229.267 454.325 236.186 478.936 269.319 Z " fill="url(#_lgradient_7)"/></g></g></g></g></g></g><g style="opacity:0.9;"><g style="opacity:0.9;"><g style="opacity:0.9;"><g style="opacity:0.9;"><g style="opacity:0.9;"><g opacity="0.9"><path d=" M 640.095 312.563 L 768.695 489.116 C 796.966 527.928 788.407 582.39 749.595 610.661 L 595.087 723.204 C 556.275 751.475 501.812 742.916 473.542 704.104 L 344.941 527.551 C 316.671 488.739 325.229 434.276 364.041 406.006 L 518.55 293.463 C 557.362 265.192 611.824 273.75 640.095 312.563 Z " fill="rgb(126,27,145)"/></g></g></g></g></g></g></g></g></g></g></g></g></g></g></g></g></g></g></g></g></g></g></g></g></svg>