<svg width="30" height="30" fill="none" xmlns="http://www.w3.org/2000/svg"><g clip-path="url(#clip0)"><path d="M6.724 30h3.58l-5.649-3.62-4.643-2.714C.215 27.193 3.148 30 6.724 30z" fill="#FDE494"/><path d="M19.655 27.931l-4.043-1.034H6.724a3.625 3.625 0 0 1-3.62-3.621V21.29l-1.552-1.665L0 19.9v3.376c0 .13.004.26.012.39L10.304 30h12.233l-2.882-2.069z" fill="#FEA150"/><path d="M25.878 25.79a3.61 3.61 0 0 1-2.602 1.107h-7.664L22.537 30h.739a6.726 6.726 0 0 0 5.72-3.195l-1.582-.943-1.536-.072z" fill="#FF5D4A"/><path d="M26.896 19.102v4.174c0 .976-.388 1.862-1.018 2.514l3.119 1.015A6.684 6.684 0 0 0 30 23.275v-3.68l-1.605-.901-1.498.408z" fill="#E45261"/><path d="M30 8.742l-1.653-.394-1.45.869v9.885l3.103.494V8.742z" fill="#FF4D95"/><path d="M30 6.724c0-3.377-2.503-6.18-5.75-6.653L20.18 1.764l-2.061 1.34h5.156a3.625 3.625 0 0 1 3.62 3.62v2.493L30 8.742V6.724z" fill="#CB319C"/><path d="M18.617 0l-3.849 1.444-3.035 1.66h6.387L24.25.07A6.75 6.75 0 0 0 23.276 0h-4.66z" fill="#8A3293"/><path d="M15 23.793a8.75 8.75 0 0 0 3.06-.55l-5.04-2.287-5.343-1.094A8.792 8.792 0 0 0 15 23.793z" fill="#FF5D4A"/><path d="M19.286 17.892A5.171 5.171 0 0 1 15 20.172a5.18 5.18 0 0 1-4.973-3.752l-1.387-.868-2.394.266a8.738 8.738 0 0 0 1.431 4.044l10.383 3.382a8.841 8.841 0 0 0 5.008-4.75l-1.861-.943-1.92.341z" fill="#E45261"/><path d="M9.828 15c0-1.282.47-2.456 1.245-3.36l-2.207-.309-2.241.99a8.759 8.759 0 0 0-.379 3.497l3.781.602c-.129-.452-.2-.928-.2-1.42zM23.793 15c0-1.883-.595-3.63-1.607-5.062l-2.191-.31-2.251.99A5.172 5.172 0 0 1 20.173 15c0 1.07-.327 2.066-.886 2.892l3.78.601A8.74 8.74 0 0 0 23.794 15z" fill="#FF4D95"/><path d="M15 9.828a5.14 5.14 0 0 1 2.744.79l4.442-.68A8.789 8.789 0 0 0 15 6.207c-3.915 0-7.24 2.572-8.375 6.114l4.447-.681A5.161 5.161 0 0 1 15 9.828zM23.276 8.793c1.14 0 2.069-.928 2.069-2.069 0-1.14-.928-2.069-2.069-2.069-1.14 0-2.069.928-2.069 2.07 0 1.14.928 2.068 2.069 2.068z" fill="#CB319C"/><path d="M3.103 18.373l-1.493-.745L0 17.362V19.9l3.103 1.391v-2.918z" fill="#FF5D4A"/><path d="M0 14.825v2.537l3.103 1.01V15.32l-1.612-.58L0 14.825z" fill="#E45261"/><path d="M3.103 12.86l-1.594-.014-1.509.49v1.489l3.103.494V12.86z" fill="#FF4D95"/><path d="M3.103 10.533l-1.643.166L0 12.07v1.266l3.103-.475v-2.327z" fill="#CB319C"/><path d="M0 12.068l3.103-1.535v-3.54l-1.82.175L0 8.393v3.675z" fill="#8A3293"/><path d="M12.015 0L4.934 2.724.081 5.678C.028 6.02 0 6.37 0 6.724v1.669l3.103-1.4v-.269a3.625 3.625 0 0 1 3.621-3.62h5.01L18.616 0h-6.602z" fill="#523494"/><path d="M6.724 0C3.372 0 .584 2.466.081 5.68L12.015 0h-5.29z" fill="#2D2D87"/></g><defs><clipPath id="clip0"><path fill="#fff" d="M0 0h30v30H0z"/></clipPath></defs></svg>