<svg width="70" height="19" fill="none" xmlns="http://www.w3.org/2000/svg"><g clip-path="url(#clip0)"><path d="M54.111 4.75h-3.778c-.222 0-.444.222-.555.444l-1.556 9.778c0 .222.111.334.334.334h2c.222 0 .333-.112.333-.334l.444-2.778c0-.222.223-.444.556-.444h1.222c2.556 0 4-1.222 4.333-3.667.223-1 0-1.889-.444-2.444-.667-.556-1.667-.889-2.889-.889zm.445 3.667c-.223 1.333-1.223 1.333-2.223 1.333h-.666l.444-2.556c0-.11.111-.222.333-.222h.223c.666 0 1.333 0 1.666.445.223.11.223.444.223 1z" fill="#139AD6"/><path d="M26.889 4.75H23.11c-.222 0-.444.222-.555.444L21 14.972c0 .222.111.334.333.334h1.778c.222 0 .445-.223.556-.445l.444-2.667c0-.222.222-.444.556-.444h1.222c2.555 0 4-1.222 4.333-3.667.222-1 0-1.889-.444-2.444-.667-.556-1.556-.889-2.89-.889zm.444 3.667c-.222 1.333-1.222 1.333-2.222 1.333h-.555L25 7.194c0-.11.111-.222.333-.222h.223c.666 0 1.333 0 1.666.445.111.11.222.444.111 1zM38.333 8.306h-1.778c-.11 0-.333.11-.333.222l-.111.555L36 8.861c-.445-.555-1.222-.778-2.111-.778-2 0-3.778 1.556-4.111 3.667-.223 1.111.11 2.111.666 2.778.556.666 1.334.889 2.334.889 1.666 0 2.555-1 2.555-1l-.11.555c0 .222.11.334.332.334h1.667c.222 0 .444-.223.556-.445l1-6.222c-.111-.111-.334-.333-.445-.333zm-2.555 3.555c-.223 1-1 1.778-2.111 1.778-.556 0-1-.222-1.223-.445-.222-.333-.333-.777-.333-1.333.111-1 1-1.778 2-1.778.556 0 .889.223 1.222.445.334.333.445.889.445 1.333z" fill="#263B80"/><path d="M65.445 8.306h-1.778c-.111 0-.334.11-.334.222l-.11.555-.112-.222c-.444-.555-1.222-.778-2.111-.778-2 0-3.778 1.556-4.111 3.667-.222 1.111.111 2.111.667 2.778.555.666 1.333.889 2.333.889 1.667 0 2.555-1 2.555-1l-.11.555c0 .222.11.334.333.334h1.666c.223 0 .445-.223.556-.445l1-6.222c-.111-.111-.222-.333-.444-.333zm-2.556 3.555c-.222 1-1 1.778-2.111 1.778-.556 0-1-.222-1.222-.445-.223-.333-.334-.777-.334-1.333.111-1 1-1.778 2-1.778.556 0 .89.223 1.222.445.445.333.556.889.445 1.333z" fill="#139AD6"/><path d="M48 8.306H46.11c-.222 0-.333.11-.444.222l-2.445 3.778-1.111-3.556c-.111-.222-.222-.333-.555-.333h-1.778c-.223 0-.334.222-.334.444l2 5.889-1.889 2.667c-.11.222 0 .555.223.555h1.778c.222 0 .333-.11.444-.222l6.111-8.778c.333-.333.111-.666-.111-.666z" fill="#263B80"/><path d="M67.556 5.083l-1.556 10c0 .223.111.334.333.334h1.556c.222 0 .444-.223.555-.445L70 5.194c0-.222-.111-.333-.333-.333h-1.778c-.111-.111-.222 0-.333.222z" fill="#139AD6"/><path d="M12.778 1.417C12 .527 10.556.083 8.556.083H3c-.333 0-.667.334-.778.667L0 15.306c0 .333.222.555.444.555H3.89l.889-5.444v.222c.11-.333.444-.667.778-.667h1.666c3.222 0 5.667-1.333 6.445-5V4.64c-.111 0-.111 0 0 0 .11-1.445-.111-2.333-.89-3.222z" fill="#263B80"/><path d="M13.555 4.639v.333c-.777 3.778-3.222 5-6.444 5H5.444c-.333 0-.666.334-.777.667l-1.112 6.778c0 .222.112.444.445.444h2.889c.333 0 .666-.222.666-.555v-.112l.556-3.444v-.222c0-.334.333-.556.667-.556h.444c2.778 0 5-1.11 5.556-4.444.222-1.334.11-2.556-.556-3.334a1.138 1.138 0 0 0-.667-.555z" fill="#139AD6"/><path d="M12.778 4.306c-.111 0-.222-.112-.334-.112-.11 0-.222 0-.333-.11-.444-.112-.889-.112-1.444-.112H6.333c-.11 0-.222 0-.333.111a.611.611 0 0 0-.333.556l-.89 5.778v.222c.112-.333.445-.667.779-.667h1.666c3.222 0 5.667-1.333 6.445-5 0-.11 0-.222.11-.333-.221-.111-.332-.222-.555-.222-.333-.111-.333-.111-.444-.111z" fill="#232C65"/></g><defs><clipPath id="clip0"><path fill="#fff" d="M0 0h70v18.056H0z"/></clipPath></defs></svg>