<svg width="50" height="32" fill="none" xmlns="http://www.w3.org/2000/svg"><g clip-path="url(#clip0)"><path d="M50 2.813H0v25h50v-25z" fill="#F6F6F6"/><path fill-rule="evenodd" clip-rule="evenodd" d="M46.25 0H2.5C1.25 0 0 1.25 0 2.5v3.75h50v-2.5C50 1.25 48.75 0 46.25 0z" fill="#1A1F71"/><path fill-rule="evenodd" clip-rule="evenodd" d="M0 25v2.5c0 2.5 1.25 3.75 3.75 3.75h42.5c2.5 0 3.75-1.25 3.75-3.75V25H0z" fill="#F7B600"/><path fill-rule="evenodd" clip-rule="evenodd" d="M34.879 9.307c-.701-.269-1.8-.557-3.17-.557-3.495 0-5.957 1.799-5.978 4.376-.02 1.905 1.757 2.968 3.099 3.602 1.377.65 1.84 1.065 1.833 1.645-.009.889-1.1 1.295-2.116 1.295-1.416 0-2.168-.201-3.33-.696l-.455-.21-.497 2.968c.826.37 2.354.69 3.94.707 3.718 0 6.132-1.778 6.16-4.53.013-1.509-.93-2.657-2.97-3.603-1.237-.613-1.994-1.023-1.986-1.644 0-.55.641-1.14 2.026-1.14a6.404 6.404 0 0 1 2.647.508l.317.153.48-2.874zM43.95 8.993h-2.734c-.846 0-1.48.236-1.852 1.1l-5.253 12.151h3.714s.608-1.633.745-1.992l4.53.006c.106.464.43 1.986.43 1.986h3.282L43.95 8.994zm-4.362 8.547c.293-.764 1.41-3.707 1.41-3.707-.022.035.29-.768.468-1.265l.24 1.143.818 3.829h-2.936zM18.516 22.24l2.211-13.26h3.537l-2.213 13.26h-3.535zM15.55 8.99l-3.464 9.042-.369-1.837c-.644-2.119-2.653-4.414-4.898-5.563L9.985 22.23l3.742-.005L19.296 8.99h-3.747z" fill="#1A1F71"/><path fill-rule="evenodd" clip-rule="evenodd" d="M8.874 8.982H3.17l-.045.276c4.437 1.097 7.373 3.75 8.592 6.937l-1.24-6.094c-.214-.84-.835-1.09-1.603-1.12z" fill="#F7B600"/></g><defs><clipPath id="clip0"><path fill="#fff" d="M0 0h50v31.25H0z"/></clipPath></defs></svg>