<svg width="1000" height="1000" fill="none" xmlns="http://www.w3.org/2000/svg"><g clip-path="url(#clip0)"><path d="M1000 0H0v1000h1000V0z" fill="#FAFAFA"/><path opacity=".8" d="M471.927 1187.21L388.25 505.202c-9.695-79.014 46.583-151.032 125.595-160.727l447.837-54.945c79.008-9.695 151.028 46.583 160.728 125.595l83.67 682.005c9.7 79.02-46.58 151.04-125.59 160.73l-447.838 54.94c-79.012 9.7-151.032-46.58-160.725-125.59z" fill="url(#paint0_linear)"/><path opacity=".85" d="M798.227 448.865l232.023 312.367c41.02 55.221 29.49 133.355-25.74 174.373L716.552 1149.5c-55.222 41.02-133.357 29.49-174.375-25.73L310.155 811.4c-41.018-55.222-29.487-133.357 25.735-174.375L623.852 423.13c55.221-41.018 133.356-29.487 174.375 25.735z" fill="url(#paint1_linear)"/><path opacity=".9" d="M1066.82 520.938l214.34 294.255c47.12 64.687 32.85 155.457-31.84 202.577l-257.509 187.57c-64.686 47.12-155.458 32.85-202.574-31.83L574.902 879.252c-47.117-64.687-32.854-155.459 31.833-202.575L864.25 489.105c64.687-47.118 155.46-32.855 202.57 31.833z" fill="#F37"/></g><defs><linearGradient id="paint0_linear" x1="1496.81" y1="292.095" x2="229.475" y2="418.656" gradientUnits="userSpaceOnUse"><stop offset=".45" stop-color="#62BAAC"/><stop offset=".975" stop-color="#E782F8"/></linearGradient><linearGradient id="paint1_linear" x1="787.577" y1="100.925" x2="503.156" y2="1001.87" gradientUnits="userSpaceOnUse"><stop offset=".383" stop-color="#007C67"/><stop offset=".992" stop-color="#9553A4"/></linearGradient><clipPath id="clip0"><path fill="#fff" d="M0 0h1000v1000H0z"/></clipPath></defs></svg>