<svg xmlns="http://www.w3.org/2000/svg" style="isolation:isolate" viewBox="0 0 600 600" width="800" height="800"><defs><clipPath id="a"><path d="M0 0h600v600H0z"/></clipPath></defs><g clip-path="url(#a)"><clipPath id="b"><path fill="#FFF" d="M0 0h600v600H0z"/></clipPath><g clip-path="url(#b)"><clipPath id="c"><path fill="#FFF" d="M0 0h600v600H0z"/></clipPath><g clip-path="url(#c)"><clipPath id="d"><path fill="#FFF" d="M0 0h600v600H0z"/></clipPath><g clip-path="url(#d)"><path fill="#FAFAFA" d="M0 0h600v600H0z"/><g opacity=".8"><linearGradient id="e" x1="-.017" y1="-.252" x2=".597" y2=".21" gradientTransform="matrix(492.004 0 0 615.269 232.298 173.066)" gradientUnits="userSpaceOnUse"><stop offset="46.25%" stop-color="#b43e8d"/><stop offset="98.75%" stop-color="#f9451e"/></linearGradient><path d="M283.156 712.325L232.95 303.121c-5.817-47.408 27.95-90.619 75.357-96.436l268.702-32.967c47.408-5.817 90.619 27.95 96.436 75.357l50.206 409.205c5.816 47.408-27.95 90.619-75.358 96.436l-268.702 32.967c-47.407 5.817-90.619-27.95-96.435-75.358z" fill="url(#e)"/></g><g opacity=".85"><linearGradient id="f" x1=".091" y1="1.123" x2=".602" y2=".051" gradientTransform="matrix(461.537 0 0 465.303 171.353 239.138)" gradientUnits="userSpaceOnUse"><stop offset="37.083%" stop-color="#f9451e"/><stop offset="98.333%" stop-color="#b43e8d"/></linearGradient><path d="M478.936 269.319l139.213 187.42c24.611 33.133 17.692 80.013-15.441 104.624L429.931 689.701c-33.133 24.61-80.014 17.691-104.625-15.442L186.093 486.84c-24.611-33.133-17.692-80.014 15.441-104.625l172.777-128.337c33.133-24.611 80.014-17.692 104.625 15.441z" fill="url(#f)"/></g><path d="M640.095 312.563l128.6 176.553c28.271 38.812 19.712 93.274-19.1 121.545L595.087 723.204c-38.812 28.271-93.275 19.712-121.545-19.1L344.941 527.551c-28.27-38.812-19.712-93.275 19.1-121.545L518.55 293.463c38.812-28.271 93.274-19.713 121.545 19.1z" fill="#F37" opacity=".9"/></g></g></g></g></svg>