<svg width="62" height="63" fill="none" xmlns="http://www.w3.org/2000/svg"><path d="M60.228 30.411c-7.708-2.23-11.156-4.056-11.967-6.288-.812-2.23.405-5.68 4.462-11.967.406-.609.203-1.217-.203-1.623-.405-.405-1.217-.608-1.622-.202-5.274 3.042-8.52 4.259-10.75 4.259-3.449 0-5.274-3.245-7.506-12.17C32.44 1.81 32.035 1 31.425 1c-.608 0-1.217.811-1.42 1.42-2.433 8.925-4.462 12.373-7.91 12.373-2.231 0-5.477-1.42-10.547-4.462-.812-.609-1.42-.406-1.826 0-.609.405-.609 1.216-.203 1.622 3.854 6.288 5.071 9.736 4.26 12.17-.812 2.434-4.26 4.26-11.765 6.288-.608.203-1.014.812-1.014 1.42 0 .609.406 1.217 1.014 1.217 7.302 1.826 10.75 3.448 11.562 5.68 1.014 2.23-.203 5.882-4.057 12.778-.406.609-.203 1.217.203 1.623.406.406 1.217.406 1.623 0 5.07-3.245 8.316-4.868 10.547-4.868 3.245 0 5.274 3.042 7.708 12.17.203.608.608 1.217 1.217 1.217.608 0 1.217-.609 1.42-1.217 2.231-9.128 4.056-11.764 7.302-11.764 2.231 0 5.68 1.42 10.75 4.665.609.405 1.217.203 1.623-.203.406-.406.608-1.217.203-1.623-4.057-6.693-5.274-10.344-4.26-12.576 1.014-2.23 4.463-3.853 11.968-5.679.608-.203 1.014-.608 1.014-1.217.405-.811 0-1.42-.609-1.623zm-35.09-8.519c1.622-2.231 4.665-3.042 6.49-1.623 1.014.812 1.623 1.826 1.623 3.246a5.508 5.508 0 01-1.217 3.448c-1.014 1.42-2.637 2.231-4.26 2.231-.811 0-1.622-.203-2.23-.811-2.03-1.014-2.03-4.057-.407-6.49zM37.51 40.756c-1.014 1.42-2.636 2.231-4.259 2.231-.811 0-1.623-.203-2.231-.811-1.826-1.42-2.029-4.463-.406-6.694 1.623-2.231 4.665-3.042 6.49-1.623 1.015.812 1.623 1.826 1.623 3.246s-.405 2.637-1.216 3.65zm2.029-15.821L24.732 39.742a1.549 1.549 0 01-1.014.405c-.406 0-.609-.202-1.015-.405-.608-.609-.608-1.42 0-2.029l14.808-14.807c.608-.608 1.42-.608 2.028 0 .608.609.608 1.623 0 2.029z" stroke="#F7F9FF"/><path d="M34.874 36.09c-.609 0-1.42.406-2.029 1.218-.811 1.014-.811 2.434-.203 2.84.609.405 2.029 0 2.637-1.015.406-.608.609-1.217.609-1.825 0-.203 0-.812-.406-1.014-.203-.203-.405-.203-.608-.203zm-5.071-10.547c.405-.608.608-1.217.608-1.825 0-.203 0-.812-.405-1.014-.203-.203-.406-.203-.609-.203-.608 0-1.42.405-2.028 1.217-.812 1.014-.812 2.434-.203 2.84.608.405 1.825 0 2.637-1.015z" stroke="#F7F9FF"/></svg>