<svg width="30" height="18" fill="none" xmlns="http://www.w3.org/2000/svg"><path d="M29.85 8.7c-.3-.4-6.7-8.7-14.8-8.7C6.95 0 .45 8.4.15 8.7c-.2.3-.2.7 0 1 .3.3 6.7 8.1 14.8 8.1 8.1 0 14.6-7.8 14.8-8.1.3-.3.3-.7.1-1zm-14.8 7.5c-6.3 0-11.7-5.4-13.2-7 1.5-1.8 6.9-7.6 13.2-7.6 6.3 0 11.7 5.8 13.2 7.6-1.6 1.6-7 7-13.2 7z" fill="#424242"/><path d="M15.05 1.9c-3.8 0-6.9 3.1-6.9 6.9 0 3.8 3.1 6.9 6.9 6.9 3.8 0 6.9-3.1 6.9-6.9 0-3.8-3.1-6.9-6.9-6.9zm-.3 8.8c-1.1 0-2.1-.9-2.1-2.1 0-1.2.9-2.1 2.1-2.1 1.2 0 2.1.9 2.1 2.1 0 1.2-1 2.1-2.1 2.1z" fill="#424242"/></svg>