<svg xmlns="http://www.w3.org/2000/svg" style="isolation:isolate" viewBox="0 0 50 50" width="50pt" height="50pt"><defs><clipPath id="a"><path d="M0 0h50v50H0z"/></clipPath></defs><g clip-path="url(#a)"><path d="M34.147 1.509a1.058 1.058 0 0 0-.691.396l-4.218 5.272-.594.726.659.692.462.46c-4.334 4.112-9.108 5.108-17.631 5.108h-.857l-.164.858c-2.067 10.347-9.458 31.47-9.458 31.47L.93 48.567l2.077-.726s21.122-7.389 31.469-9.456l.858-.166v-.856c0-8.527.996-13.298 5.108-17.631l.461.462.626.593.725-.461 6.328-4.218a1.07 1.07 0 0 0-1.188-1.78l-5.601 3.723L31.478 7.738l3.625-4.515a1.055 1.055 0 0 0-.956-1.714zm-2.9 9.03l7.712 7.711c-4.408 4.629-5.624 10.054-5.702 18.289-8.67 1.837-21.378 6.072-26.659 7.875L21.823 29.19c.556.297 1.178.495 1.846.495a3.97 3.97 0 0 0 3.954-3.955c0-2.171-1.784-3.921-3.954-3.921-2.173 0-3.955 1.75-3.955 3.921 0 .721.219 1.392.559 1.978L5.084 42.899c1.803-5.281 6.038-17.989 7.875-26.659 8.231-.078 13.659-1.294 18.289-5.702l-.001.001zm-7.579 13.379c1.03 0 1.845.782 1.845 1.812s-.815 1.846-1.845 1.846c-.454 0-.869-.132-1.187-.396a.908.908 0 0 0-.132-.131 1.859 1.859 0 0 1-.527-1.319c0-1.03.816-1.812 1.846-1.812z" fill="#880E4F"/></g></svg>