<svg xmlns="http://www.w3.org/2000/svg" width="70" height="70" style="width:100%;height:100%"><g class="base"><g fill="none" class="main-fill"><path d="M49 34.8c-.3-.4-6.7-8.7-14.8-8.7-8.1 0-14.6 8.4-14.9 8.7-.2.3-.2.7 0 1 .3.3 6.7 8.1 14.8 8.1 8.1 0 14.6-7.8 14.8-8.1.3-.3.3-.7.1-1zm-14.8 7.5c-6.3 0-11.7-5.4-13.2-7 1.5-1.8 6.9-7.6 13.2-7.6 6.3 0 11.7 5.8 13.2 7.6-1.6 1.6-7 7-13.2 7z" class="main-fill"/><path d="M34.2 28c-3.8 0-6.9 3.1-6.9 6.9 0 3.8 3.1 6.9 6.9 6.9 3.8 0 6.9-3.1 6.9-6.9 0-3.8-3.1-6.9-6.9-6.9zm-.3 8.8c-1.1 0-2.1-.9-2.1-2.1 0-1.2.9-2.1 2.1-2.1 1.2 0 2.1.9 2.1 2.1 0 1.2-1 2.1-2.1 2.1z" class="main-fill"/></g></g><style>.main-fill{fill:#212121}</style></svg>