<svg height="512" width="512" xmlns="http://www.w3.org/2000/svg"><path d="M512 256c0 49.56-14.09 95.83-38.47 135.03a257.299 257.299 0 01-36.64 46.11C390.58 483.4 326.63 512 256 512s-134.58-28.6-180.89-74.86a257.299 257.299 0 01-36.64-46.11C14.09 351.83 0 305.56 0 256c0-77.04 34.03-146.13 87.88-193.05a255.845 255.845 0 0159.82-38.97C180.59 8.59 217.29 0 256 0c38.7 0 75.4 8.59 108.29 23.97a255.736 255.736 0 0159.83 38.98C477.97 109.87 512 178.96 512 256z" fill="#90d8f9"/><path d="M473.53 391.03C428.35 463.66 347.82 512 256 512c-50.43 0-97.46-14.58-137.09-39.77a257.481 257.481 0 01-80.44-81.2l19.46-143.39L75 121.9s4.23-30.02 12.88-58.95c8.03-26.89 19.88-52.84 35.68-52.84 0 0 11.38 3.91 24.14 13.87 10.82 8.42 22.63 21.2 29.32 39.6 0 0 9.54-6.76 27.03-12.54 12.83-4.26 29.96-7.97 50.73-8.11.41-.01.81-.01 1.22-.01 49.82 0 78.97 20.66 78.97 20.66 6.69-18.4 18.5-31.18 29.32-39.61 12.76-9.95 24.15-13.86 24.15-13.86 15.8 0 27.65 25.95 35.68 52.84C432.77 91.88 437 121.9 437 121.9z" fill="#efe7e4"/><path d="M254.78 42.93c-51.41 1.19-94.27 77.61-105.17 184.66-8.69 85.28-3.64 192.79-30.7 244.64a257.481 257.481 0 01-80.44-81.2l19.46-143.39L75 121.9s4.23-30.02 12.88-58.95c8.03-26.89 19.88-52.84 35.68-52.84 0 0 11.38 3.91 24.14 13.87 10.82 8.42 22.63 21.2 29.32 39.6 0 0 9.54-6.76 27.03-12.54 12.83-4.26 29.96-7.97 50.73-8.11z" fill="#e0d8d5"/><path d="M57.934 247.641l17.063-125.739S90.752 10.11 123.56 10.11c0 0 38.877 13.369 53.455 53.466 0 0 9.545-6.755 27.033-12.541 9.556 72.12 65.605 196.606-146.114 196.606zM454.066 247.641l-17.063-125.739S421.248 10.11 388.44 10.11c0 0-38.877 13.369-53.455 53.466 0 0-9.545-6.755-27.033-12.541-9.556 72.12-65.605 196.606 146.114 196.606z" fill="#9b9595"/><path d="M270.653 171.034l13.668-23.674c6.512-11.28-1.628-25.38-14.653-25.38h-27.337c-13.025 0-21.166 14.1-14.653 25.38l13.668 23.674c6.513 11.28 22.795 11.28 29.307 0z" fill="#454045"/><path d="M206.804 67.851c-28.59 31-49.95 88.61-57.19 159.74-.29 2.89-.57 5.81-.84 8.76-22.68 7.17-52.33 11.29-90.84 11.29l17.06-125.74s15.76-111.79 48.57-111.79c0 0 38.87 13.37 53.45 53.47l.01-.01c.41-.29 9.92-6.88 27.02-12.53.71 5.34 1.67 10.96 2.76 16.81z" fill="#736e6e"/><circle cx="173.388" cy="143.813" fill="#fff" r="28.262"/><circle cx="173.388" cy="143.813" fill="#454045" r="17.511"/><circle cx="338.612" cy="143.813" fill="#fff" r="28.262"/><g fill="#454045"><circle cx="338.612" cy="143.813" r="17.511"/><path d="M239.101 205.635c-11.874 0-21.534-9.66-21.534-21.534v-6.032a5 5 0 0110 0v6.032c0 6.36 5.174 11.534 11.534 11.534s11.534-5.174 11.534-11.534v-31.23a5 5 0 1110 0v31.23c0 11.874-9.66 21.534-21.534 21.534z"/><path d="M272.169 205.635c-11.874 0-21.534-9.66-21.534-21.534v-31.23a5 5 0 1110 0v31.23c0 6.36 5.174 11.534 11.534 11.534s11.534-5.174 11.534-11.534v-6.032a5 5 0 1110 0v6.032c0 11.874-9.66 21.534-21.534 21.534z"/></g><path d="M124.528 90.219c8.241-3.588 13.09-12.339 11.511-21.187-2.786-15.609-14.7-34.709-24.2-33.918-13.769 1.146-27.175 60.872-11.232 60.872 8.7-.001 17.616-3.022 23.921-5.767zM387.472 90.219c-8.241-3.588-13.09-12.339-11.511-21.187 2.786-15.609 14.7-34.709 24.2-33.918 13.769 1.146 27.175 60.872 11.232 60.872-8.7-.001-17.616-3.022-23.921-5.767z" fill="#595454"/><path d="M437.01 430.7c0 2.16-.04 4.3-.12 6.44C390.58 483.4 326.63 512 256 512s-134.58-28.6-180.89-74.86c-.08-2.14-.12-4.28-.12-6.44 0-94.26 81.04-170.67 181.01-170.67s181.01 76.41 181.01 170.67z" fill="#9b9595"/><path d="M144.874 295.971c-3.46 68.18-5.81 137.65-25.96 176.26-.03-.02-.06-.03-.09-.06a257.054 257.054 0 01-43.71-35.03c-.08-2.14-.12-4.28-.12-6.44 0-54.76 27.35-103.5 69.88-134.73z" fill="#736e6e"/></svg>