<svg width="70" height="16" fill="none" xmlns="http://www.w3.org/2000/svg"><g clip-path="url(#clip0)"><path fill-rule="evenodd" clip-rule="evenodd" d="M5.426 13.299c.543 0 1.045-.099 1.52-.285.005.01.974 1.514.987 1.525-.876.47-1.792.678-2.794.678C2.16 15.217 0 13.255 0 10.123c0-3.155 2.272-5.117 5.139-5.117 1.02 0 1.825.222 2.636.655-.09.149-.924 1.565-.927 1.571a4.02 4.02 0 00-1.511-.284c-1.764 0-3.132 1.124-3.132 3.175 0 1.94 1.323 3.176 3.22 3.176zm7.51-8.293c2.933 0 5.05 2.074 5.05 5.117 0 3.021-2.117 5.094-5.05 5.094-2.911 0-5.028-2.072-5.028-5.094 0-3.043 2.117-5.117 5.028-5.117zm0 1.875c-1.632 0-2.823 1.258-2.823 3.242 0 1.963 1.19 3.22 2.823 3.22 1.677 0 2.846-1.257 2.846-3.22 0-1.984-1.17-3.242-2.846-3.242zm6.44 8.116v-9.77h2.183v9.77h-2.183zm-.287-12.77c0-.75.64-1.344 1.368-1.344.728 0 1.367.594 1.367 1.345 0 .772-.64 1.39-1.367 1.39-.728 0-1.368-.618-1.368-1.39v-.001zm4.375 3.618a13.092 13.092 0 014.477-.839c2.493 0 4.08.949 4.08 3.705v6.286h-2.16V8.91c0-1.411-.883-1.919-2.096-1.919-.773 0-1.544.11-2.118.287v7.72h-2.183V5.844zM33.85 0h2.183v5.492c.463-.243 1.367-.486 2.227-.486 2.823 0 4.94 1.808 4.94 4.94 0 3.154-2.095 5.271-5.711 5.271a10.858 10.858 0 01-3.64-.639V0zm2.183 13.145c.419.132.97.197 1.521.197 2.007 0 3.44-1.102 3.44-3.352 0-1.896-1.344-3.021-2.998-3.021-.86 0-1.522.22-1.964.464v5.712zm13.474-4.699c0-1.058-.794-1.543-1.875-1.543-1.125 0-2.006.331-2.822.794V5.8c.86-.484 1.962-.794 3.175-.794 2.14 0 3.66.882 3.66 3.33V14.8c-.925.242-2.248.397-3.35.397-2.537 0-4.39-.772-4.39-2.978 0-1.984 1.698-2.955 4.52-2.955h1.082v-.817zm0 2.272h-.926c-1.522 0-2.515.442-2.515 1.434 0 1.014.927 1.411 2.25 1.411a7.96 7.96 0 001.191-.11v-2.735zm3.727 1.633c.904.683 1.984 1.102 2.977 1.102.97 0 1.61-.33 1.61-1.102 0-.795-.573-1.082-1.83-1.412-2.03-.463-2.89-1.279-2.89-2.977 0-1.985 1.5-2.956 3.485-2.956 1.103 0 1.985.243 2.8.75v2.007c-.86-.617-1.697-.992-2.734-.992-.948 0-1.455.463-1.455 1.103 0 .639.418.97 1.543 1.278 2.228.486 3.198 1.325 3.198 3.088 0 2.051-1.566 2.977-3.683 2.977-1.147 0-2.293-.308-3.02-.793l-.001-2.073zm9.693-1.743v.044c.132 1.742 1.631 2.69 3.153 2.69 1.346 0 2.316-.308 3.286-.948v1.92c-.882.617-2.183.903-3.44.903-3.043 0-5.116-1.94-5.116-5.027 0-3.11 2.028-5.183 4.72-5.183 2.844 0 4.19 1.83 4.19 4.498v1.104h-6.793zm4.74-1.411c-.043-1.523-.792-2.36-2.204-2.36-1.257 0-2.183.883-2.47 2.36h4.675z" fill="#1652F0"/></g><defs><clipPath id="clip0"><path fill="#fff" d="M0 0h70v15.217H0z"/></clipPath></defs></svg>