<svg xmlns="http://www.w3.org/2000/svg" style="isolation:isolate" viewBox="0 0 1000 1000" width="1000pt" height="1000pt"><defs><clipPath id="a"><path d="M0 0h1000v1000H0z"/></clipPath></defs><g clip-path="url(#a)"><clipPath id="b"><path fill="#FFF" d="M0 0h1000v1000H0z"/></clipPath><g clip-path="url(#b)"><clipPath id="c"><path fill="#FFF" d="M0 0h1008v1015H0z"/></clipPath><g clip-path="url(#c)"><path fill="#FAFAFA" d="M0 0h1008v1015H0z"/><g opacity=".8"><linearGradient id="d" x1=".747" y1="0" x2=".195" y2=".294" gradientTransform="matrix(826.568 0 0 1040.829 390.261 292.77)" gradientUnits="userSpaceOnUse"><stop offset="1.667%" stop-color="#a6439d"/><stop offset="98.75%" stop-color="#ad2078"/></linearGradient><path d="M475.702 1205.016L391.356 512.78c-9.773-80.199 46.956-153.297 126.6-163.138l451.419-55.769c79.646-9.84 152.24 47.282 162.013 127.479l84.346 692.238c9.771 80.199-46.956 153.297-126.602 163.138l-451.419 55.769c-79.644 9.841-152.24-47.282-162.011-127.481z" fill="url(#d)"/></g><g opacity=".85"><linearGradient id="e" x1=".023" y1="1.202" x2=".39" y2=".326" gradientTransform="matrix(775.382 0 0 787.138 287.872 404.541)" gradientUnits="userSpaceOnUse"><stop offset="49.13%" stop-color="#42a5f5"/><stop offset="100%" stop-color="#9760be"/></linearGradient><path d="M804.612 455.598L1038.49 772.65c41.347 56.05 29.723 135.355-25.941 176.989l-290.265 217.105c-55.663 41.632-134.423 29.927-175.77-26.123l-233.878-317.05c-41.346-56.05-29.722-135.357 25.941-176.991l290.265-217.103c55.664-41.634 134.424-29.929 175.77 26.121z" fill="url(#e)"/></g><path d="M1075.36 528.752l216.048 298.669c47.495 65.657 33.116 157.789-32.088 205.614L999.746 1223.42c-65.204 47.825-156.702 33.346-204.195-32.311L579.501 892.44c-47.494-65.657-33.116-157.79 32.088-205.613l259.575-190.385c65.204-47.826 156.7-33.348 204.196 32.31z" fill="#00ACC1" opacity=".9"/></g></g></g></svg>