<svg xmlns="http://www.w3.org/2000/svg" width="70" height="70" style="width:100%;height:100%"><g class="base"><g fill="none" fill-rule="evenodd" class="main-stroke"><path d="M50.409 30.798L43.406 37.8a1.983 1.983 0 0 1-2.802 0l-1.402-1.402 7.007-7.003-5.604-5.604-7.002 7.007-1.403-1.403a1.98 1.98 0 0 1 0-2.802l7.003-7.003a1.975 1.975 0 0 1 2.802 0l8.405 8.406a1.973 1.973 0 0 1-.001 2.802zM36.4 39.204l-7.003 7.007-5.607-5.608L30.8 33.6l-1.403-1.403a1.98 1.98 0 0 0-2.802 0l-7.007 7.007a1.97 1.97 0 0 0 0 2.798l8.41 8.409a1.98 1.98 0 0 0 2.802 0l7.002-7.007a1.983 1.983 0 0 0 0-2.802L36.4 39.204zm-7.003 1.399a1.974 1.974 0 0 0 2.802 0l8.405-8.405a1.98 1.98 0 1 0-2.802-2.802l-8.406 8.406a1.975 1.975 0 0 0 .001 2.801z" class="main-stroke"/></g></g><style>.main-stroke{stroke:#212121}</style></svg>