<svg width="244" height="91" fill="none" xmlns="http://www.w3.org/2000/svg"><g filter="url(#filter0_d)"><mask id="a" maskUnits="userSpaceOnUse" x="34" y="0" width="146" height="80"><path fill="#C4C4C4" d="M34.037 0h145.185v80H34.037z"/></mask><g mask="url(#a)"><ellipse cx="120.649" cy="68.889" rx="53.279" ry="47.407" fill="#D84315" fill-opacity=".73"/></g><path d="M75.8 22.62c-.595-4.134 3.84-7.132 7.454-5.04l10.887 6.305c3.194 1.85 3.352 6.403.294 8.47l-9.096 6.148c-3.058 2.066-7.224.222-7.75-3.431L75.8 22.619zM157.531 18.115c3.612-2.096 8.05.898 7.46 5.032L163.212 35.6c-.522 3.653-4.686 5.502-7.746 3.438l-9.102-6.14c-3.059-2.063-2.906-6.617.286-8.47l10.881-6.314z" fill="#DE684A"/><path d="M81.844 26.525c-.094-1.537 1.51-2.6 2.889-1.913l2.411 1.202c1.378.687 1.496 2.608.212 3.458l-2.246 1.487c-1.284.85-3.006-.008-3.1-1.545l-.166-2.689zM156.056 24.7c1.419-.598 2.953.564 2.762 2.092l-.335 2.673c-.192 1.528-1.965 2.275-3.192 1.346l-2.148-1.627c-1.227-.93-.988-2.84.431-3.437l2.482-1.047z" fill="#FFCCBC"/><ellipse cx="103.667" cy="67.407" rx="16.296" ry="8.889" fill="#FAFAFA"/><ellipse cx="137" cy="67.407" rx="16.296" ry="8.889" fill="#FAFAFA"/><path d="M122.151 68.364c-.765 1.287-2.622 1.307-3.415.036l-2.577-4.13c-.826-1.324.115-3.042 1.676-3.058l5.066-.054c1.561-.016 2.538 1.682 1.74 3.023l-2.49 4.183z" fill="#000"/><path d="M141.352 64.086c15.784-9.36 26.448-12.133 48.889-12.593M145.846 67.04c16.874-5.878 26.596-7.091 44.444-5.186M141.444 70.74c23.373-5.723 36.138-5.191 58.519 0M99.861 64.8c-19.413-11.666-31.255-14.979-54.01-15.448M96.96 67.776c-19.488-7.166-30.213-8.57-48.888-5.185M99.982 71.481c-22.04-3.755-34.367-3.319-56.296 2.963" stroke="#000"/><ellipse cx="102.926" cy="47.099" rx="3.704" ry="3.395" fill="#000"/><ellipse cx="137" cy="47.099" rx="3.704" ry="3.395" fill="#000"/><path d="M95.507 42.17c4.942.378 6.761-.578 8.928-3.607M133.875 37.82c3.293 3.706 5.266 4.282 8.928 3.608" stroke="#000" stroke-width="2"/><path d="M115.518 76.43c4.05-3.628 6.321-2.613 10.371 0" stroke="#000" stroke-width="3"/><path stroke="#D81B60" stroke-width="3" d="M6.994 79.5l231-1"/></g><defs><filter id="filter0_d" x=".987" y="-2" width="243.013" height="93" filterUnits="userSpaceOnUse" color-interpolation-filters="sRGB"><feFlood flood-opacity="0" result="BackgroundImageFix"/><feColorMatrix in="SourceAlpha" values="0 0 0 0 0 0 0 0 0 0 0 0 0 0 0 0 0 0 127 0"/><feOffset dy="4"/><feGaussianBlur stdDeviation="3"/><feColorMatrix values="0 0 0 0 0.760784 0 0 0 0 0.0941176 0 0 0 0 0.356863 0 0 0 0.2 0"/><feBlend in2="BackgroundImageFix" result="effect1_dropShadow"/><feBlend in="SourceGraphic" in2="effect1_dropShadow" result="shape"/></filter></defs></svg>