<svg width="18" height="18" fill="none" xmlns="http://www.w3.org/2000/svg"><g clip-path="url(#clip0)" fill="#000"><path d="M17.473 2.824h-2.297V.527a.527.527 0 10-1.055 0v2.297h-2.297a.527.527 0 000 1.055h2.297v2.297a.527.527 0 001.055 0V3.879h2.297a.527.527 0 100-1.055zM6.176 11.297A6.183 6.183 0 000 17.473c0 .29.236.527.527.527h11.297a.527.527 0 00.528-.527 6.183 6.183 0 00-6.176-6.176zm-5.094 5.648a5.128 5.128 0 015.094-4.593 5.128 5.128 0 015.094 4.593H1.082zM6.176 2.26A3.355 3.355 0 002.824 5.61a3.355 3.355 0 003.352 3.352A3.355 3.355 0 009.527 5.61a3.355 3.355 0 00-3.351-3.352zm0 5.648A2.3 2.3 0 013.879 5.61a2.3 2.3 0 012.297-2.297 2.3 2.3 0 012.297 2.297 2.3 2.3 0 01-2.297 2.297z"/></g><defs><clipPath id="clip0"><path fill="#fff" d="M0 0h18v18H0z"/></clipPath></defs></svg>