<svg xmlns="http://www.w3.org/2000/svg" style="isolation:isolate" width="512" height="512"><defs><clipPath id="a"><path d="M0 0h512v512H0z"/></clipPath></defs><g clip-path="url(#a)"><path d="M456 160h-24v48h24c8.826-.026 15.974-7.174 16-16v-16c-.026-8.826-7.174-15.974-16-16z" fill="#880E4F"/><path d="M488 496V360c0-26.51-21.49-48-48-48h-32a8 8 0 0 1-8-8v-56h-64v56a8 8 0 0 1-8 8h-32c-26.51 0-48 21.49-48 48v136" fill="#FFD4B5"/><path d="M488 496V360c0-26.51-21.49-48-48-48h-24l-48 128-48-128h-24c-26.51 0-48 21.49-48 48v136" fill="#C2185B"/><path d="M398 360h-60l30 80 30-80z" fill="#FCE4EC"/><path d="M296 312l-16 40 40 8-8 24 56 56-48-128h-24zM440 312l16 40-40 8 8 24-56 56 48-128h24z" fill="#EC407A"/><path d="M304 496h-16v-29.2c-17.473-22.906-19.278-54.13-4.56-78.896l13.744 8.184c-11.806 19.871-9.816 45.024 4.968 62.792A8 8 0 0 1 304 464v32zM448 496h-16v-32a8 8 0 0 1 1.848-5.12c14.784-17.768 16.774-42.921 4.968-62.792l13.744-8.184c14.718 24.766 12.913 55.99-4.56 78.896V496zM360 464h16v16h-16z" fill="#880E4F"/><path d="M400 280.424V248h-64v32.424a71.366 71.366 0 0 0 64 0z" fill="#F5C09A"/><circle vector-effect="non-scaling-stroke" cx="424" cy="64" r="40" fill="#FDAF33"/><path d="M368 272c-39.765 0-72-32.235-72-72v-92.92c24-32 112-40 144 0V200c0 39.765-32.235 72-72 72z" fill="#FFD4B5"/><path d="M332 192c-6.627 0-12-5.373-12-12s5.373-12 12-12 12 5.373 12 12-5.373 12-12 12zM404 192c-6.627 0-12-5.373-12-12s5.373-12 12-12 12 5.373 12 12-5.373 12-12 12z" fill="#7A3E1A"/><path d="M296 160h-16c-8.826.026-15.974 7.174-16 16v16c.026 8.826 7.174 15.974 16 16h16.48" fill="#880E4F"/><path d="M310.064 287.76c-22.388-5.566-38.094-25.682-38.064-48.752V192h16v47.008c-.023 15.721 10.679 29.431 25.936 33.224l-3.872 15.528z" fill="#880E4F"/><path d="M368 232c-13.255 0-24-10.745-24-24h16a8 8 0 0 0 16 0h16c0 13.255-10.745 24-24 24z" fill="#E69D85"/><path d="M372.192 56h-8.384c-45.225-1.028-82.734 34.776-83.808 80v24h8.384A152.553 152.553 0 0 0 400 112a134.72 134.72 0 0 0 36.848 68.84L440 184l16-24v-24c-1.074-45.224-38.583-81.028-83.808-80z" fill="#FDBB3D"/><path d="M48 296h176c13.246 0 24 10.754 24 24v119.992c0 13.246-10.754 24-24 24H48c-13.246 0-24-10.754-24-24V320c0-13.246 10.754-24 24-24z" fill="#f8bbd0"/><path d="M96 496l16-104h48v104" fill="#F48FB1"/><path fill="#F06292" d="M160 392h16v72h-16z"/><path fill="#EDEDEB" d="M48 320h16v16H48zM48 352h16v56H48z"/></g></svg>