<svg width="40" height="46" fill="none" xmlns="http://www.w3.org/2000/svg"><path d="M13.605 1l6.279 6.28L26.163 1" stroke="#D81B60" stroke-width="2" stroke-miterlimit="10" stroke-linecap="round" stroke-linejoin="round"/><path d="M39.767 17.744v16.744C39.767 40.836 34.603 46 28.256 46H11.512C5.165 46 0 40.836 0 34.488V17.744C0 11.397 5.165 6.233 11.512 6.233h16.744c6.347 0 11.511 5.164 11.511 11.511zm-19.63 12.527l12.558-3.14a1.047 1.047 0 00-.506-2.03L20.93 27.914v-4.938a1.045 1.045 0 00-1.3-1.015l-12.558 3.14a1.048 1.048 0 00.508 2.03l11.257-2.815v4.939a1.045 1.045 0 001.3 1.015z" fill="#D81B60"/></svg>