<svg width="31" height="25" fill="none" xmlns="http://www.w3.org/2000/svg"><path fill-rule="evenodd" clip-rule="evenodd" d="M29.036 7.692a.634.634 0 0 0-.713-.55l-4.815.624-8.075-5.292c.056-.18.095-.367.095-.565C15.528.857 14.672 0 13.62 0S11.71.857 11.71 1.91c0 .328.092.633.239.903l-6.58 7.297-4.814.623a.636.636 0 0 0-.55.713l1.632 12.621a.635.635 0 0 0 .713.55l27.769-3.59a.636.636 0 0 0 .55-.713L29.036 7.692zm-16.148-4.02a1.9 1.9 0 0 0 1.786-.175l6.895 4.52-14.26 1.842 5.579-6.188z" fill="#fff"/><path d="M10.455 13.085l1.098 7.732-1.492.212-.469-3.3-3.507.498.469 3.3-1.503.213-1.098-7.732 1.503-.213.444 3.125 3.507-.498-.444-3.125 1.492-.212zm6.019 7.09a3.635 3.635 0 0 1-1.593-.108 4.032 4.032 0 0 1-1.313-.713 4.177 4.177 0 0 1-.941-1.156 4.044 4.044 0 0 1-.405-2.93c.129-.5.334-.956.617-1.366.29-.411.652-.755 1.087-1.032a3.557 3.557 0 0 1 1.467-.542 3.352 3.352 0 0 1 1.574.132c.497.16.935.401 1.314.725.38.324.693.709.942 1.155a4.017 4.017 0 0 1-.205 4.273 3.926 3.926 0 0 1-1.076 1.03 3.66 3.66 0 0 1-1.468.531zm-2.8-3.603c.047.334.144.65.29.948.146.298.33.553.553.766.23.211.493.37.79.476.303.105.633.133.989.082.363-.051.672-.17.927-.354a2.2 2.2 0 0 0 .623-.7 2.54 2.54 0 0 0 .318-.889c.058-.326.064-.65.018-.969a2.951 2.951 0 0 0-.3-.946 2.555 2.555 0 0 0-.565-.764 2.027 2.027 0 0 0-.788-.466 2 2 0 0 0-.968-.085 2.031 2.031 0 0 0-.936.366c-.263.186-.471.415-.625.689-.155.266-.26.563-.318.89a3.183 3.183 0 0 0-.009.956zm12.235-4.337l-2.473.351.911 6.415-1.492.212-.91-6.415-2.473.351-.187-1.318 6.436-.913.188 1.317z" fill="#C22B63"/></svg>