<svg xmlns="http://www.w3.org/2000/svg" style="isolation:isolate" viewBox="0 0 600 600" width="800" height="800"><defs><clipPath id="a"><path d="M0 0h600v600H0z"/></clipPath></defs><g clip-path="url(#a)"><path fill="#fafafa" d="M0 0h600v600H0z"/><clipPath id="b"><path fill="#FFF" d="M0 0h600v600H0z"/></clipPath><g clip-path="url(#b)"><g opacity=".8"><linearGradient id="c" x1=".981" y1=".174" x2=".162" y2=".131" gradientTransform="matrix(492.004 0 0 615.269 232.298 173.066)" gradientUnits="userSpaceOnUse"><stop offset="49.13%" stop-color="#d86076"/><stop offset="98.261%" stop-color="#ee7752"/></linearGradient><path d="M283.156 712.325L232.95 303.121c-5.817-47.408 27.95-90.619 75.357-96.436l268.702-32.967c47.408-5.817 90.619 27.95 96.436 75.357l50.206 409.205c5.816 47.408-27.95 90.619-75.358 96.436l-268.702 32.967c-47.407 5.817-90.619-27.95-96.435-75.358z" fill="url(#c)"/></g><g opacity=".85"><linearGradient id="d" x1=".528" y1=".085" x2=".126" y2=".506" gradientTransform="matrix(461.537 0 0 465.303 171.353 239.138)" gradientUnits="userSpaceOnUse"><stop offset="48.627%" stop-color="#d86076"/><stop offset="97.667%" stop-color="#ee7752"/></linearGradient><path d="M478.936 269.319l139.213 187.42c24.611 33.133 17.692 80.013-15.441 104.624L429.931 689.701c-33.133 24.61-80.014 17.691-104.625-15.442L186.093 486.84c-24.611-33.133-17.692-80.014 15.441-104.625l172.777-128.337c33.133-24.611 80.014-17.692 104.625 15.441z" fill="url(#d)"/></g><path d="M640.095 312.563l128.6 176.553c28.271 38.812 19.712 93.274-19.1 121.545L595.087 723.204c-38.812 28.271-93.275 19.712-121.545-19.1L344.941 527.551c-28.27-38.812-19.712-93.275 19.1-121.545L518.55 293.463c38.812-28.271 93.274-19.713 121.545 19.1z" fill="#A92C5C" opacity=".9"/></g></g></svg>