<svg width="50" height="42" fill="none" xmlns="http://www.w3.org/2000/svg"><path d="M12.364 35.803v-2.041a1.21 1.21 0 00-1.279-1.293 1.258 1.258 0 00-1.143.579 1.195 1.195 0 00-1.075-.579 1.074 1.074 0 00-.952.483v-.401h-.707v3.252h.714v-1.79a.762.762 0 01.796-.863c.47 0 .707.306.707.857v1.81h.714v-1.803a.764.764 0 01.796-.864c.483 0 .715.306.715.857v1.81l.714-.014zm10.568-3.252h-1.163v-.986h-.714v.986h-.647v.646h.66v1.497c0 .755.293 1.204 1.13 1.204.312.001.619-.086.884-.252l-.204-.605c-.19.113-.405.176-.626.184-.34 0-.47-.218-.47-.545v-1.483h1.157l-.007-.646zm6.034-.082a.959.959 0 00-.857.477v-.395h-.7v3.252h.707V33.98c0-.538.231-.837.68-.837.151-.002.302.026.442.081l.218-.68a1.513 1.513 0 00-.504-.088l.014.013zm-9.122.34c-.4-.238-.861-.356-1.327-.34-.823 0-1.36.395-1.36 1.041 0 .53.394.857 1.122.96l.34.047c.388.054.572.156.572.34 0 .252-.259.395-.742.395a1.731 1.731 0 01-1.082-.34l-.34.55c.412.288.906.436 1.408.422.94 0 1.483-.442 1.483-1.06 0-.62-.428-.872-1.136-.974l-.34-.047c-.306-.041-.55-.102-.55-.32 0-.218.23-.381.618-.381.359.004.71.1 1.02.279l.314-.572zm18.949-.34a.958.958 0 00-.858.477v-.395h-.7v3.252h.707V33.98c0-.538.231-.837.68-.837.152-.002.302.026.443.081l.217-.68a1.512 1.512 0 00-.503-.088l.014.013zm-9.116 1.701a1.645 1.645 0 001.735 1.7 1.7 1.7 0 001.17-.387l-.34-.571c-.245.186-.543.289-.85.292a1.044 1.044 0 010-2.081c.307.003.605.105.85.292l.34-.572a1.701 1.701 0 00-1.17-.387 1.642 1.642 0 00-1.735 1.7v.014zm6.626 0v-1.619h-.708v.395a1.233 1.233 0 00-1.02-.477 1.7 1.7 0 100 3.402 1.24 1.24 0 001.02-.476v.394h.708V34.17zm-2.633 0a.983.983 0 11.594.964.974.974 0 01-.594-.964zm-8.537-1.7a1.7 1.7 0 10.047 3.4c.49.026.97-.132 1.35-.441l-.34-.524a1.549 1.549 0 01-.945.34.902.902 0 01-.973-.796h2.415v-.272c0-1.02-.633-1.7-1.544-1.7l-.01-.008zm0 .632a.808.808 0 01.823.79h-1.7a.837.837 0 01.863-.79h.014zm17.724 1.075v-2.932h-.68v1.7a1.233 1.233 0 00-1.02-.476 1.701 1.701 0 000 3.402 1.24 1.24 0 001.02-.476v.394h.68v-1.612zm1.18 1.153a.339.339 0 01.235.092.316.316 0 01-.105.524.32.32 0 01-.13.027.34.34 0 01-.306-.197.32.32 0 01.072-.354.339.339 0 01.245-.092h-.01zm0 .575a.24.24 0 00.243-.245.252.252 0 00-.066-.17.25.25 0 00-.177-.075.257.257 0 00-.18.075.252.252 0 000 .34.256.256 0 00.19.075h-.01zm.02-.405a.136.136 0 01.09.027c.01.009.018.02.023.032a.083.083 0 01.007.04.086.086 0 01-.005.033.087.087 0 01-.019.028.12.12 0 01-.071.03l.098.113h-.078l-.092-.112h-.03v.112h-.065v-.3l.143-.003zm-.074.058v.081h.075a.07.07 0 00.04 0 .034.034 0 000-.03.034.034 0 000-.03.07.07 0 00-.04 0l-.075-.021zm-3.741-1.381a.983.983 0 11.986 1.04.975.975 0 01-.986-1.04zm-23.888 0V32.55h-.708v.395a1.234 1.234 0 00-1.02-.477 1.7 1.7 0 100 3.402 1.239 1.239 0 001.02-.476v.394h.708v-1.612zm-2.633 0a.983.983 0 11.986 1.04.975.975 0 01-.993-1.04h.007z" fill="#fff"/><path d="M30.323 7.772H19.61v19.255h10.714V7.772z" fill="#FF5F00"/><path d="M20.289 17.401a12.225 12.225 0 014.677-9.629 12.245 12.245 0 100 19.255 12.223 12.223 0 01-4.677-9.626z" fill="#EB001B"/><path d="M44.779 17.401a12.244 12.244 0 01-19.813 9.626 12.245 12.245 0 000-19.255 12.245 12.245 0 0119.813 9.626v.003zM43.609 24.986v-.394h.16v-.082h-.405v.082h.174v.394h.07zm.786 0v-.476h-.123l-.143.34-.142-.34h-.11v.476h.09v-.357l.132.31h.092l.132-.31v.36l.072-.003z" fill="#F79E1B"/></svg>