<svg xmlns="http://www.w3.org/2000/svg" height="2344.96" width="2489.227"><path d="M2450.768 1761.706c-24.556 22.36-40.3 54.159-43.172 87.267-3.848 44.079 14.11 86.867 20.403 130.666 6.047 42.387.519 87.521-21.991 123.934-10.568 17.079-25.197 31.906-42.179 42.667-19.226 12.16-41.446 19.134-64.17 18.28l-.229-45.24c43.798-5.587 80.128-46.854 80.144-91 .015-27.08-11.652-51.96-23.472-76.734a.413.413 0 0 0-.061-.08c-4.307-9-8.629-18.014-12.416-27.107-12.507-29.947-19.242-62.467-19.44-94.88-.03-6.64.214-13.266.718-19.868 1.145-14.439 3.619-28.732 7.528-42.652a207.337 207.337 0 0 1 6.552-19.587c.244-.64.504-1.28.748-1.933 10.843-26.96 28.175-52.468 53.54-66.627 25.382-14.173 59.65-14.547 81.778 4.28 6.704 5.72 12.232 13.28 13.729 21.947 4.093 23.533-20.372 40.56-38.01 56.667" fill="#f48d8c"/><path d="M2112.697 1735.76c15.125-27.815 37.84-51.454 65.059-67.64 5.195-3.108 11.404-6.014 17.113-3.962 8.347 3 9.822 13.987 9.89 22.868.216 25.853.392 52-5.48 77.173-5.857 25.174-18.452 49.693-39.313 64.946l-47.27-93.386M1901.76 1773.307c-22.493-34.32-33.733-75.894-31.613-116.867 6.293-2.92 13.68-.96 20.2 1.387 37.146 13.373 70.066 38.266 93.04 70.386l-81.627 45.094" fill="#edb8b4"/><path d="M2363.823 2146.24c-8.26 16.828-18.883 32.48-31.661 46.254-36.914 39.76-87.926 62.28-141.257 75.173a501.904 501.904 0 0 1-22.051 4.786c-2.436.467-4.886.92-7.307 1.347-5.824 1.053-11.649 2-17.444 2.867-.162.013-.308.053-.47.067-50.088 7.4-100.147 7.946-150.646 8.253-25.969.16-48.622-5.92-72.727-10.96-6.705-1.374-13.512-2.693-20.54-3.774-1.379-.226-2.743-.413-4.123-.613l-.337-.053a242.447 242.447 0 0 1-19.044-3.413c-71.86-15.814-139.965-63.76-157.88-137.614-11.428-47.16-6.939-96.532 6.207-142.84 27.186-95.693 88.351-181.811 157.22-252.452a295.41 295.41 0 0 1 3.08-3.173c7.497-7.64 14.906-15.027 22.389-22 .015 0 .015 0 .015-.013a442.4 442.4 0 0 1 6.558-6.014c.03 0 .03-.026.03-.026 7.775-6.934 15.698-13.401 24.002-19.24 11.12-7.88 22.946-14.615 35.945-19.828a154.596 154.596 0 0 1 17.708-5.92c1.394-.385 2.802-.746 4.226-1.092a140.214 140.214 0 0 1 6.66-1.454c1.644-.347 3.301-.64 4.974-.92a192.694 192.694 0 0 1 10.226-1.453c5.15-.587 10.197-.96 15.141-1.107 3.462-.106 6.88-.106 10.27-.014 1.056.014 2.142.04 3.213.107 5.56.267 11.004.787 16.33 1.6.22.014.41.04.616.08 3.667.546 7.262 1.214 10.812 2.026a156.147 156.147 0 0 1 17.298 4.867c20.247 6.894 38.894 17.587 56.441 30.988a278.487 278.487 0 0 1 15.17 12.453l.015.026a346.342 346.342 0 0 1 11.737 10.826l.015.027c7.248 6.988 14.305 14.388 21.259 22.107 2.318 2.573 4.607 5.146 6.896 7.733a1485.315 1485.315 0 0 1 128.067 166.613c8.847 13.36 17.503 26.948 25.176 41a.84.84 0 0 1 .117.227c.015.027.03.053.044.081 8.084 14.733 15.068 29.999 20.071 46.013 15.185 48.612 9.977 102.826-12.441 148.453" fill="#edb8b4"/><path d="M2005.533 1744.347c-18.826 7.16-13.906 33.386 3.2 39.4 22.387 7.88 40.267-13.947 38.48-34.96-.6-7.16-11.813-7.267-11.28 0 1.174 15.826 5.054 35.813 23.68 39.186 15.387 2.787 25.987-12.573 29.187-25.706 1.52-6.294-7.813-10.894-10.893-4.587-3.24 6.627-6.227 19.253-15.84 18.293-12.2-1.213-13.934-17.906-14.854-27.186h-11.28c1.36 12.533-5.266 26.933-19.76 26.24-14.613-.707-19.24-17.974-8.653-27.28 1.48-1.307-.08-4.12-1.987-3.4M2109.92 1702.8c-1.067 1.253-2.4 2.24-3.333 3.613-1.054 1.56-1.68 3.48-2.187 5.307a33.207 33.207 0 0 0-1.107 10.987c.347 4.693 3.974 8.36 8.88 7.706 4.414-.6 8.054-5.253 6.52-9.786-.786-2.334-1.466-4.707-1.586-7.187-.04-1.147.12-2.307.053-3.44-.067-1.52-.627-2.92-.547-4.427.16-3.266-4.493-5.333-6.693-2.773M1977.973 1701.827c-.16.306-.306.626-.466.933.706-.547 1.426-1.093 2.146-1.64-3.546 1.307-4.68 3.4-6.026 6.76a217.781 217.781 0 0 0-2.974 7.907c-1.653 4.666 2.28 9.56 6.774 10.16 4.666.626 9.386-3.04 9.226-7.987-.093-2.613-.186-5.213-.373-7.813-.093-1.254-.107-2.6-.387-3.827a9.466 9.466 0 0 0-.84-2.32c-.306-.533-.693-1-1.146-1.4-.44-2.747-4.734-3.133-5.934-.773" fill="#1d1b19"/><path d="M1878.427 2197.587c-.76 3.226-1.52 6.453-2.267 9.68-.267 1.133 1.44 1.613 1.733.48l2.56-9.6c.36-1.32-1.72-1.88-2.026-.56" fill="#edb8b4"/><path d="M1864.547 2201.773c-1.587 7.454.186 15 1.426 22.414 1.56 9.36 3.627 18.6 6.107 27.76a379.302 379.302 0 0 0 7.907 25.627c2.346 6.72 4.6 15.013 11.2 18.906 16.533 9.76 25.533-16.227 31.2-26.64 9.506-17.48 19.28-34.813 27.733-52.827 5.28-11.253-10.387-20.933-16.92-9.893-7.48 12.613-14.187 25.613-20.893 38.653-3.36 6.52-6.707 13.04-10.067 19.56-1.667 3.267-3.347 6.52-5.027 9.773-.72 1.4-1.44 2.8-2.146 4.2 4.866 1.427 6.226.84 4.093-1.76.053-2.093-2.933-5.933-3.92-8.013a358.199 358.199 0 0 1-4.933-10.8 353.092 353.092 0 0 1-8.107-20.413c-2.387-6.573-4.773-13.16-6.947-19.8-1.946-5.946-3.306-12.013-6.853-17.253-.947-1.387-3.453-1.387-3.853.506M2119.495 2205.013c2.005 17.587 8.74 34.333 15.473 50.6 3.51 8.467 7.127 16.987 11.124 25.227 3.008 6.213 7.656 12.28 14.24 14.986 16.368 6.774 24.39-9.986 28.603-22.453 6.192-18.293 14.498-37.08 17.9-56.12 1.706-9.587-11.965-17.28-16.951-7.147-6.273 12.76-9.837 26.827-14.132 40.347-2.182 6.907-4.35 13.8-6.558 20.693-.325.987-1.531 7.054-2.696 7.627-.461.907-.475.987-.027.24a16.25 16.25 0 0 1-3.09-2.987c-8.603-9.88-14.443-23.6-20.473-35.147-6.45-12.36-12.18-25.186-19.904-36.827-.935-1.4-3.726-1.052-3.509.961" fill="#f48d8c"/><path d="M2091.267 1659.693c-1.48 13.027-5.694 26.28-14.494 36.134-6.28 7.04-20.546 1.746-19.52-8.08.76-7.214.907-14.414 2.08-21.6.134-.827.254-1.694.4-2.56-.146-1.6.08-3.254.72-4.92.08-.214.174-.414.267-.627.413-1.88 1-3.68 1.813-5.32.214.013.414.04.614.08 3.666.547 7.266 1.213 10.813 2.027a155.836 155.836 0 0 1 17.307 4.866M2043.8 1680.933c-4.76 7.147-15.88 8.174-20.413 0-4.347-7.8-6.294-17.293-5.934-26.213.027-.867.08-1.733.134-2.587 5.146-.586 10.186-.96 15.133-1.106 3.467-.107 6.88-.107 10.267-.014 1.066.014 2.146.04 3.213.107.84 2.333 1.413 4.72 1.8 6.8 1.493 8.013.387 16.16-4.2 23.013M2007.147 1688.133c-7.134 7.134-16.894 2.974-22.76-3.293-5.627-6.013-9.454-13.427-10.56-21.587-.014-.106-.04-.186-.04-.28a154.888 154.888 0 0 1 17.706-5.92c1.4-.386 2.8-.746 4.227-1.093 2.173-.533 4.4-1.013 6.667-1.453 2.293 3.52 3.866 8.026 4.96 10.906 2.586 6.867 5.826 16.694-.2 22.72M2363.193 1788.265c-12.512-1.454-21.729-10.893-29.662-20.053-.35-.401-.715-.827-1.094-1.254 1.867-6.627 4.025-13.16 6.548-19.587 3.369 1.534 7.029 2.56 10.441 3.894 10.675 4.174 22.838 8.6 25.886 21.067 1.75 7.132-3.646 16.906-12.12 15.933M2363.499 1826.961c-1.175 8.707-8.748 12.24-16.64 11.106-8.427-1.226-16.26-3.92-22.687-8.586-.03-6.64.217-13.266.725-19.867 8.472 1.187 17.074 2.453 25.502 2.24 8.124-.2 14.144 7.413 13.1 15.107" fill="#1d1b19"/><path d="M2178.139 1704.465c1.939-1.227 3.312-2.88 4.968-4.428.673-.64 1.387-1.24 2.114-1.839-.135.107 1.697-.72.458-.36a5606.692 5606.692 0 0 1-12.657-12.653c-1.239 3.173-.821 6.88-.808 10.24.014 1.24.027 2.493.014 3.747.027.666.013 1.346-.027 2.026.04-1.72.7-3.254 1.939-4.587 1.642-.96 3.285-1.907 4.9-2.866.472-.094.943-.187 1.388-.267 1.871.494 3.743 1 5.601 1.506-1.01-.56-1.118-.586-.337-.066-.646-.52-1.265-1.04-1.912-1.574-1.279-1.04-2.544-2.08-3.824-3.12-4.349-3.56-11.04-4.586-15.242 0-3.81 4.161-4.43 11.16 0 15.241 3.016 2.772 6.113 6.427 9.722 8.426 6.032 3.36 14.003 1.934 17.733-4.186 2.248-3.707 2.572-7.574 2.248-11.787-.377-5.186-.31-10.427-2.612-15.187-1.764-3.653-6.49-5.414-10.233-4.906-4.214.56-7.163 3.427-8.55 7.36.485-1.374-.821 1.226-.942 1.48-.714 1.307-1.306 2.653-1.885 4.027-1.105 2.586-2.209 5.119-2.101 7.999.162 4.854 5.601 8.613 10.045 5.774M1900.147 1710.48c2.72-3.973 1.8-9.6 1.6-14.227-.28-6.066-.64-12.133-.747-18.2-5.253 1.414-10.493 2.84-15.747 4.267 2.267 3 4.72 5.547 7.427 8.16 2.2 2.133 5.333 4.267 6.867 6.907-.427-1.547-.84-3.094-1.267-4.654.04.507.067 1 .107 1.507.413-1.56.84-3.12 1.253-4.68-.88 1.747-3.2 2.947-4.44 4.507-2.08 2.586-2.733 4.813-2.787 8.12-.066 4.253 3.707 8.08 7.987 7.986 8.28-.173 17.893-9.986 16.173-18.666-.946-4.827-4.36-7.654-7.853-10.787-3.84-3.467-7.56-7.133-11.907-9.973-5.866-3.814-15.053 2.626-12.413 9.546 2.347 6.16 4.347 12.44 6.6 18.64 1.587 4.347 2.787 9.52 6.773 12.16.814.547 1.867.12 2.374-.613M2127.707 1790.68c10.2 5.987 33.293 10.987 39.826-2.533 3.507-7.267-.666-15-7.48-18.28-6.693-3.227-15.213-1.96-21.933.586-5.093 1.934-8.96 6.04-8.96 11.774 0 4.92 3.747 10.96 8.96 11.773 4.907.76 9 .507 13.88-.253 11.507-1.814 10.933-20.414 0-22.68-3.56-.734-6.987-1.44-10.627-1.054l6.16 22.76c1.214-.733 3.854-1.373 4.787-2.16 1.453-1.24 1.107 1.12-1.093-1.373-.88-1.507-1.76-3.013-2.64-4.533l-.04-.387 1.36-5c.386-.827 2.44-.947-1.347-.013-1.96.48-3.867.786-5.867.96-4.066.32-8.013-.227-12.066-.4-5.854-.254-7.747 7.986-2.92 10.813M1926.133 1762.973c-8.04 2.56-10.373 11.494-7.24 18.774 3.667 8.533 13.88 11.586 22.307 8.6 4.507-1.614 9.027-4.44 11.533-8.654 3.307-5.546 2.4-12.213-1.733-17.04-3.88-4.52-10.067-6.213-15.787-5.12-5 .96-8.906 3.96-12.653 7.24-4.813 4.227-4.64 13.014 0 17.267 4.413 4.053 13.027 5.347 17.267 0 .92-1.16 1.92-2.213 2.92-3.293.853-.92-.96.653-1.467.826-1.413.48-3.507.027-4.76-.653-1.72-.92-1.853-9.787-1.84-9.787.4-.44.4-.44 0 .014-.307.346-.613.666-.96.973.707-.693.44-.44-.173.08l-.8.44c.813-.293.88-.347.226-.133-.186.053-1.866.626-.92.28 1.214-.44-1.866.146.174.026.64-.04.653.667-.04-.026.146.146 1.52 1.466.8.693-.614-.667.613.333-.094-.067-.146-.546-.173-.453-.08.307 0-.227-.013-.467-.013-.693-.32.466-.24.693.053-.04.734-1.774-.746.84.427-.707 3.373-4.48-2.213-10.867-7.147-9.307" fill="#f48d8c"/><path d="M2048.627 1740.893c-.04-2.613-1.48-4.106-3.72-5.213-3.454-1.693-6.907-.56-9.614 1.933-2.813 2.587-3.333 6.947-2.106 10.4 1.413 3.934 4.4 6.827 7.893 8.987 4.813 2.973 10.333-.027 13.16-4.253 2.133-3.214 2.853-7.694 1.533-11.347-3.12-8.6-15.226-12.253-21.866-5.16-2.48 2.653-3.134 6.56-1.254 9.773 2.08 3.56 7.414 5.4 11.027 2.894.4-.28.813-.507 1.24-.747-1.227.453-1.44.547-.613.293-1.347.12-1.587.147-.694.094 1.694-.08-1.84-.454-.2.013-1.133-.52-1.32-.587-.586-.173a3.308 3.308 0 0 1-1.414-1.454c.974 1.28-.44-1.626-.04-.08-.133-1.226-.186-1.426-.173-.586.2-1.2.2-1.387.013-.574l.4-.88c-.413.68-.293.587.36-.293-.213.24-.426.467-.666.693.866-.626.96-.746.28-.36l5.546-.72c-1.826-.626 1.294.667-.506-.173-.28-.133-2.24-1.467-1.12-.56a9.227 9.227 0 0 1-.814-.8c.427.587.44.573.054-.053.253.68.28.666.08-.04-.187-.827-.187-.734.013.28.013.266-.707 2-.173 1.04-.64 1.16.2-.12.453-.427.907-1.16 1.053-1.36.453-.587.667-.613.2-.466-1.4.454-.613-.08-.386-.04.654.093-.8-.32-.947-.333-.427-.027 1.8 1.147 4.267-.36 4.227-2.44" fill="#1d1b19"/><path d="M1476.373 1998.12c17.494-13.92 39.707-18.347 61.2-20.773 23.12-2.627 47.934-2.974 67.854 10.16 17.2 11.32 28.173 31 38.04 50.146 5.253 10.187 10.466 20.72 12.106 32.294 1.92 13.6-1.306 27.466-5.72 40.36-7.88 23.04-20.613 48.413-39 63.413-11.746 9.6-39.213 25.213-52.826 13.187-24.694-21.827 13.76-60.987 22.506-79.52 7.08-15 10.44-32.08 9.654-48.934-.547-11.613-4.227-24.746-14-29.226-3.667-1.694-7.747-1.907-11.72-1.947-22.067-.28-44.187 3.867-64.934 12.147-13.133 5.253-26.506 12.28-40.386 10.453l17.226-51.76" fill="#85d4be"/><path d="M1330.143 1760.253c-.035.2-.07.414-.104.627 1.728-1.453 3.454-2.893 5.188-4.333-.294.013-.574.026-.867.053 1.32.6 2.64 1.2 3.947 1.787-.16-.227-.334-.467-.494-.707.294 2.56.6 5.107.894 7.667l.84-1.28-3.64 3.08c9.333-3.454 18.613-6.854 27.8-10.934 9.426-4.186 18.8-8.48 28.346-12.32 13.947-5.626 35.28-15.92 49.48-6.52l-2.32-19.84a1555.004 1555.004 0 0 1-85.746 89.254c6.64 4.24 13.266 8.466 19.893 12.706 5.693-16.733 17.96-29.466 29.987-40.893 13.226-12.573 27.28-24.173 38.906-38.613 9.16-11.387-2.186-27.28-14.546-20.694a1345.504 1345.504 0 0 0-81.627 47.28c-13.536 8.494-1.493 30.974 12.2 22.907 20.2-11.907 39.107-25.96 56.933-41.76 11.094-9.84-3.053-27.787-14.72-20.933-19.826 11.64-39.666 23.28-59.493 34.92l14.8 21.04c10.04-9.347 20.08-18.68 30.12-28.027 4.6-4.28 4.48-12.8.96-17.653-3.987-5.48-10.16-6.454-15.8-3.454-12.893 6.84-23.333 17.347-31.507 30.174-3.453 5.426-1.373 13.626 3.16 17.333 5.2 4.28 11.214 3.307 16.08-1.04 10.68-9.56 21.747-22.427 34.694-28.28 5.306-2.387 10.333-1.787 15.933-1.733 8.493.093 15.093-1.987 21.8-7.734 6.987-5.986 3.173-20.853-5.387-22.426-19.08-3.494-32.813 13.36-45.253 26.853-12.307 13.347-23.453 27.827-33.773 43.04-3.587 5.267-1.267 13.64 3.133 17.253 4.92 4.04 11.48 3.614 16-1.053 14.053-14.467 26.093-31.213 35.707-49.533 6.693-12.734-9.854-27.974-19.107-16.174-8.387 10.694-16.773 21.4-25.16 32.094l20.32 5.88c-3.787-14.68-19.213-20.614-31.333-14.28-10.827 5.653-22.41 23.426-15.934 36.413 5.734 11.507 23.854 3.707 19.667-9.093-.16-.494-.32-.987-.467-1.467v6.347c.36-2.494 3.96-5.454 5.76-7.24 2.934-2.907.027.933-1.133-3.587 2.333 9.093 14.187 13.693 20.307 5.88 8.4-10.68 16.786-21.373 25.186-32.067-6.373-5.386-12.746-10.786-19.12-16.173-8.666 16.467-19.28 31.08-31.933 44.093 6.387 5.4 12.773 10.8 19.147 16.2 7.786-11.453 16.333-22.293 25.413-32.533a328.15 328.15 0 0 1 14.013-14.84c2.36-2.36 4.694-4.907 7.254-6.987.853-.693 1.773-1.386 2.706-1.946 1.174-.707 3.014-1.04 2.107-1.214-1.8-7.466-3.6-14.933-5.4-22.413 1.92-1.64.08-.16-.893-.173-1.2-.027-2.414.066-3.627.053-3.4-.053-6.773-.36-10.16-.067-7.693.64-14.84 3.294-21.573 7.374-13.187 7.973-24.6 20.133-36.214 30.52 6.414 5.426 12.827 10.853 19.24 16.293 5.8-9.093 13.68-15.733 22.707-20.547-4.947-7.026-9.893-14.066-14.84-21.106-10.027 9.373-20.053 18.733-30.067 28.093-10.902 10.187 3 28 14.787 21.053 19.813-11.693 39.627-23.373 59.427-35.053-4.907-6.973-9.814-13.96-14.72-20.933-16.16 14.386-33.627 26.866-51.947 37.706 4.067 7.64 8.133 15.267 12.2 22.907a1341.957 1341.957 0 0 1 81.547-47.44c-4.854-6.893-9.694-13.787-14.547-20.68-24.987 31.147-61.053 50.333-74.88 91.187-4.453 13.2 11.773 20.56 19.907 12.706 29.6-28.56 57.986-58.533 85.186-89.853 4.854-5.6 4.44-16.027-2.333-19.84-21.293-12-45.053-1.813-65.387 7.8-11.066 5.24-21.893 11.12-32.72 16.907-5.6 2.986-11.293 5.893-16.746 9.173-4.147 2.48-9.302 5.467-10.143 11.027-.396 2.626.22 5.853 2.65 7.16 2.586 1.373 4.573 1.52 7.12-.094 2.04-1.28 3.12-4.173 2.48-6.653-.067-.213-.12-.427-.174-.627-1.333-5.133-9.124-5.813-10.097 0M1122.015 1746.6c-2.942-2.867-3.967-6.027-6.207-9.427-2.016-3.053-4.465-5.813-6.536-8.84-4.11-6.013-7.619-12.413-10.961-18.973a102.99 102.99 0 0 1-7.324-18.493c-1.018-3.534-1.928-7.094-2.612-10.72-.266-1.414-.551-2.814-.722-4.24-.069-.734-.138-1.48-.209-2.214-.267-1.72-.197-2.066.21-1.04-1.02 1.92-2.04 3.854-3.06 5.774l.971-.96-5.26 3.36 1.872-.28h-6.353c16.119 4.8 32.048 14.4 45.721 24.733 13.496 10.213 25.142 23.2 33.615 38.627l19.88-16.84c-28.863-25.547-60.561-45.547-95.181-60.147-12.142-5.12-21.744 14.52-12.558 23.68 15.906 15.84 26.467 36.12 36.959 56.427 8.28 16.013 29.621 1.906 22.316-14.32l-17.503-38.88c-5.896 6.466-11.793 12.946-17.69 19.413l33.489 24.8a53845.45 53845.45 0 0 1 9.972-25.947c-6.03-2.506-11.648-5.906-17.048-9.746-12.425-8.84-26.095 11.106-15.687 22.32 8.259 8.893 16.934 17.453 26.491 24.64 11.77 8.866 26.217-11.467 15.345-21.814-7.938-7.56-16.016-14.84-23.529-22.92-5.23 7.44-10.459 14.867-15.688 22.307 7.315 5.2 15.087 9.227 23.236 12.587 5.952 2.466 13.057-2.2 15.265-8.214 2.494-6.8.187-13.68-5.294-17.733-11.167-8.267-22.334-16.52-33.5-24.787-11.534-8.533-22.975 7.694-17.692 19.414l17.517 38.88 22.316-14.32c-11.524-22.28-23.564-44.76-41.021-62.147l-12.559 23.68c30.101 12.667 58.816 30.573 84.144 52.48 4.953 4.28 11.301 5.733 16.619 1.08 4.789-4.187 6.644-11.92 3.26-17.92-20.214-35.853-54.82-60.96-91.112-73.467-12.986-4.466-23.544 4.32-21.874 19.494 1.228 11.16 4.234 21.706 8.684 31.813 4.543 10.32 10.56 19.6 17.822 27.827a104.937 104.937 0 0 0 11.028 10.773c4.654 3.92 9.681 5.32 14.518 8.72 4.632 3.24 10.108-4.347 5.93-8.44" fill="#c4ebe1"/><path d="M1381.04 1769.747c-92.763-66.84-260.543-74.6-346.244 11.453-53.33 53.547-81.645 135.653-73.979 214.533 2.98 30.654 11.175 60.907 25.502 87.427 39.012 72.227 118.026 107.693 194.125 116.453 45.047 5.187 90.817 2.72 135.185-7.266 60.224-13.574 121.424-44.467 152.771-102.494 27.227-50.386 27.52-114.133 12.027-170.186-16.667-60.36-51.36-115.307-99.387-149.92" fill="#c4ebe1"/><path d="M1391.893 1905.147c-5.88-22.2-29.066-36.414-49.4-29.32-12.5 4.36-20.542 16.973-16.105 31.36 4.275 13.853 17.092 20.053 29.359 22.16 12.586 2.186 30.96 6.333 40.306-5.894 9.267-12.12 4.147-29.013-6.373-37.746-10.88-9.027-27.733-12.28-38.147-.614-9.493 10.64-7.533 30.494 6.6 34.907 6.334 1.973 13.8.213 18.347-5.16 5.867-6.907 5.16-17.493-2.467-22.467-6.826-4.453-16.12-2.266-20.2 5.387-3.986 7.467-1.626 18.653 5.96 22.187 12.614 5.866 21.614-10.907 10.694-20.067-.32-.267-.64-.547-.974-.813 1.294 1.413 2.574 2.826 3.867 4.226-.4 2.52-.8 5.027-1.2 7.534l-4.8 3.08c-1.747-.48-3.493-.947-5.24-1.427-.933-3.853-1.853-7.72-2.787-11.573.347-1.294 2.547-4.094 4.347-3.747 3.52.693 1.787 2.627 3.2 3.6-.267 1.333-.36 1.693-.28 1.067 0-.12.027-.24.093-.36-.306-.16 1.88-.734 1.987-.76 3.56-.72 10.88 3.466 11.507 7.68.226 1.56-.294.706-.64.84-3.067 1.186-7.934.213-11.187.093-6.467-.253-13.907-.413-19.88-3.52-3.667-1.893-8.133-6.933-4.96-11.307 3.04-4.186 9.867-5.146 14.36-5 11.387.36 21.36 8.054 25.813 19.454 2.027 5.173 9.6 1.466 8.2-3.8M1083.665 1835.573c-5.39-18.053-29.754-18.453-39.66-5.226-2.437 3.253-3.426 8.773 0 11.893 15.398 14.027 36.922 23.28 56.984 17.173 9.606-2.933 19.315-10.24 18.636-22.453-.593-10.68-8.765-19.093-17.172-23.147-14.726-7.08-46.877-11.4-51.934 11.587-5.55 25.227 32.297 34.707 48.252 28.893 12.461-4.546 14.392-21.333 6.329-31.44-9.28-11.626-23.115-7.386-34.057-1.44-12.535 6.814-1.526 27.494 10.981 20.614 1.668-.92 6.14-1.747 7.3-2.934 1.004-1.04-.696.374-.439-.506-.11-.547-.222-1.094-.333-1.64.988-1.654 1.977-3.307 2.965-4.974-.234-.4-6.672-.106-7.637-.226-3.121-.387-6.252-1.24-9.233-2.32-2.327-.854-5.199-3.894-4.188.36.873 3.68-.69.92 1.998 1.386 1.01.174 2.202-.053 3.22-.053 5.058.013 10.22.187 15.162 1.453 2.296.587 9.06 2.92 9.568 5.094.004.013.97-1.107-.576.28-1.043.946-2.516 1.386-3.772 1.84-2.659.973-5.37 1.48-8.164 1.586-12.492.48-23.97-5.826-34.606-12.333.916 3.827 1.832 7.667 2.75 11.493 4.633-9.226 15.798-7.346 21.95-1.333 2.376 2.32 6.799.12 5.676-3.627M1081.804 2106.027c-.69 15.146.065 30.373.497 45.506.287 10.08-1.952 26.96 7.222 33.44 10.489 7.427 19.412-7.506 25.093-15.04 8.56-11.333 16.717-23.08 23.244-35.96 4.421-8.733-6.928-15.666-12.027-7.72-5.64 8.787-11.045 17.76-16.85 26.414a313.574 313.574 0 0 1-9.304 13.093c-1.5 2-2.935 4.373-4.696 6.107l1.044.88a8.607 8.607 0 0 1-1.108-2.867c-2.774-9.72-2.854-21.267-4.114-31.36-1.38-11.053-2.732-22.187-4.93-33.093-.524-2.6-3.959-1.867-4.071.6M1284.445 2137.173c2.439 17.227 9.471 34.814 15.103 51.04 3.41 9.814 9.032 34.92 23.404 26.254 5.015-3.014 7.067-9.427 8.685-15.027 1.99-6.907 3.43-13.973 4.91-21.027 2.92-13.813 5.973-28.48 14.6-39.52 6.306-8.066-4.107-19.813-10.747-11.8-15.092 18.227-16.427 42.427-22.04 65.134-.325 1.32-2.495 6.333-2.115 7.426.306.867 1.687 1.347 1.839.174.139-1.067-2.012-4-2.59-5.174a509.35 509.35 0 0 1-8.965-19.346c-5.864-13.387-9.65-27.867-15.666-41.094-1.918-4.226-6.982-1.013-6.418 2.96" fill="#85d4be"/><path d="M1175.572 1843.92c-6.073 12.987 4.741 26.467 16.84 27.027 17.17.8 28.143-17.347 34.343-32.44l-12.115-5.6c-4.499 17.64 5.052 38.36 21.987 42.293 17.438 4.04 34.466-11.627 35.332-30.68.393-8.667-11.271-8.307-12.088 0-1.052 10.707-11.642 20.013-21.443 16.933-9.373-2.96-14.223-15.013-11.005-24.68 2.561-7.706-8.779-12.973-12.115-5.613-4.059 8.973-7.605 19.4-15.79 24.893-7.907 5.307-22.351 2.894-20.474-10.52.299-2.146-2.403-3.893-3.472-1.613M1340.187 1794.173c-1.254 1.52-2.414 3.04-3.48 4.72-.44.667-.867 1.347-1.294 2.014-.293.453-.573.893-.866 1.346-.547.827-.574.894-.094.187-2.745 1.507-3.52 5.76-2.04 8.547 1.48 2.786 5.214 4.106 7.787 2.24 3.653-2.667 6.36-6.734 9.253-10.307 2.92-3.6 2.88-8.987-.746-12.067-3.4-2.88-8.654-1.973-10.827 2.28-2.12 4.147-4.939 8.4-6.04 13.04 3.72.547 7.453 1.107 11.173 1.654-.333.906-.306.88.094-.08.213-.507.426-1 .64-1.494.32-.746.64-1.48.96-2.226.8-1.854 1.44-3.734 2.026-5.68 1.214-4.027-3.946-7.32-6.546-4.174M1136.219 1771.827c-2.239 2.106-2.531 4.933-2.984 7.946-.486 3.214-.887 6.44-1.276 9.667-.468 3.867 3.121 7.413 6.298 7.827 3.659.48 6.835-1.854 7.972-5.707.852-2.907.986-5.933 1.25-8.947.23-2.626.642-5.306.562-7.946-.146-4.854-3.786-9.52-8.461-9.294-4.91.24-8.052 4.094-8.46 9.294-.207 2.613.075 5.32.177 7.946.119 3.027.207 5.987.92 8.947l14.012-4.24a270.175 270.175 0 0 1-1.814-8.093c-.582-2.814-.947-5.44-3.068-7.4-1.59-1.467-3.528-1.494-5.128 0" fill="#1d1b19"/><path d="M1388.24 1777.2a79.483 79.483 0 0 0-.267-3.973 538.7 538.7 0 0 1-1.586 4.2c11.106-12.694 22.746-24.307 37.72-31.174l-10.6-15.12c-3.147 7.147-7.214 13.334-12.64 18.614-5.347 5.2-12.68 7.813-17.627 13.333-4.96 5.52-1.04 13.907 5.453 14.453 8.814.734 18.214-6.88 24.574-12.76 6.853-6.346 12.466-14.453 16.44-23.24 4.2-9.28-4.28-18.906-12.827-14.093-16.36 9.227-31.653 24-38.973 42.8-1.094 2.8-.92 6.533 1.933 8.107a76.196 76.196 0 0 0 3.56 1.906c2.027 1.067 5.013-.16 4.84-3.053M1118.667 1725.453c-.286-9.8-6.051-19.36-10.879-27.32a242.496 242.496 0 0 0-17.907-25.666c-6.672-8.36-20.834.453-17.316 11.066 5.684 17.134 14.659 33.467 28.103 44.52 9.488 7.8 19.137-8.386 12.067-17.16-8.342-10.346-15.815-20.226-20.19-33.413-5.772 3.693-11.544 7.373-17.316 11.067 6.746 6.586 13.214 13.466 19.214 20.88 5.49 6.786 10.634 15.466 17.901 20.013 2.692 1.68 6.427-.427 6.323-3.987" fill="#85d4be"/><path d="M1225.948 1825.24c-5.307-5.227-15.624-3.293-19.975 2.333-2.098 2.72-2.501 5.2-1.08 8.374 2.451 5.466 8.012 9.346 14.124 9.013 6.986-.387 12.308-6.36 12.808-13.16.51-6.907-4.752-12.16-11.37-12.773-7.031-.654-12.234 5-12.747 11.613-.363 4.667 4.168 8.573 8.561 8.573 4.942 0 8.203-3.92 8.563-8.573-.159 2.067-.89 3.467-2.519 4.547-.321.213-3.317.6-1.858.613-2.998-.027-5.752-2.707-4.455-5.613-.583 1.306.301-.094.764-.454-1.068.814.596-.333 1.37-.16 1.197.254-.625-.4-.898-.586-.735-.467-.87-.56-.41-.267a9.842 9.842 0 0 1-1.086-1.147l1.776 6.72c.941-2.52 2.83-4.08 6.488-4.36 2.303-.173 3.756-2.906 1.944-4.693" fill="#1d1b19"/><path d="M1875.987 911.187c13.093-26.374 21.813-75.774 46.76-93.48 47.92-34.014 32.226 77.346 28.853 108.92l-75.613-15.44M1727.653 1090.779c-24.2-16.79-71.813-32.591-85.706-59.852-26.68-52.354 81.213-20.634 111.96-12.722l-26.254 72.574M2459.484 1081.636c-.075 9.994-1.207 19.986-3.32 29.78-5.175 24.05-16.13 47.022-31.507 66.324-6.413 8.067-13.61 15.512-21.472 22.108-14.622 12.298-31.538 21.728-50.083 27.065-35.355 10.191-73.033 6.9-109.535 2.396l59.483-36.072c22.967-3.762 43.488-16.149 59.016-33.283a118.607 118.607 0 0 0 12.509-16.497c10.336-16.407 16.689-35.315 17.534-54.451.317-7.536-.166-15.103-1.615-22.577a83.459 83.459 0 0 0-1.403-6.051c-5.87-22.183-18.44-41.318-32.11-59.984-3.758-5.125-7.59-10.22-11.393-15.345-6.323-8.476-12.51-16.998-18.123-25.823-21.291-33.54-32.367-81.274-5.462-110.478 15.014-16.294 38.357-22.33 60.524-22.647 19.194-.286 42.658 7.017 46.054 25.921 2.46 13.664-7.002 26.203-12.223 39.063-7.364 18.133-6.262 38.225-1.177 57.405 1.871 7.142 4.316 14.146 7.077 20.895a239.632 239.632 0 0 0 2.61 6.11c9.87 22.58 22.514 44.05 29.41 67.718 3.652 12.572 5.327 25.505 5.206 38.423" fill="#f25b43"/><path d="M2326.538 1146.103c-3.172 51.546-20.819 104.159-58.541 139.453-71.745 67.182-200.374 69.182-292.71 57.515-93.492-11.782-194.243-48.342-250.498-128.328-45.668-64.934-40.01-146.066-13.49-217.307 11.918-32.012 25.22-65.171 49.998-89.571 32.907-32.407 53.326-27.263 90.22-29.921a882.605 882.605 0 0 1 95.45-1.843 899.208 899.208 0 0 1 47.625 2.914c16.332 1.43 32.607 3.344 48.84 5.673a876.279 876.279 0 0 1 52.269 9.117 907.684 907.684 0 0 1 30.607 6.815c6.43 1.558 12.888 3.087 19.361 4.63 16.275 3.9 32.593 7.887 48.368 12.734 12.289 3.747 24.263 7.974 35.68 13.026 15.46 6.814 29.906 15.133 42.752 25.747 16.875 13.933 30.993 31.84 40.966 55.52 15.661 37.227 15.532 94.173 13.103 133.826" fill="#f68366"/><path d="M1867.187 1271.023c18.333-43.567-26.6-66.04-58.2-37-26.867 24.698-28.814 49.957-71.44 32.904-2.694-1.08-5.667-2.283-8.414-1.363-3.933 1.31-5.333 6.533-3.906 10.413 1.44 3.882 4.826 6.655 8.173 9.104 46.88 34.468 106.933 49.799 133.787-14.058M2242.865 1387.13c28.355-10.4-12.708-40.359-20.065-52.133-10.27-16.523-10.506-47.068-29.038-56.94-19.647-10.468-51.611-6.151-63.274 14.675-26.251 46.891 55.332 86.146 88.982 95.292 4.264 1.16 8.708 2.2 13.084 1.56 4.152-.613 7.566-1.44 10.31-2.453M2272.48 956.75c-4.475 15.72-11.292 30.788-20.242 44.467-2.914 4.493-7.613 9.413-12.73 7.8-3.847-1.186-5.645-5.493-6.789-9.347-4.489-15.133-6.315-31.067-5.325-46.84.446-7.286 1.505-14.563 2.342-21.827 15.447 6.817 29.905 15.14 42.745 25.747M2095.707 893.787c-6.16 26.786-15.587 59.6-34.014 69.96-12.786 7.16-18.88-10.854-20.946-20.067-2.134-9.573-1.187-19.52-.24-29.267.986-9.906 1.96-19.813 2.933-29.733a890.106 890.106 0 0 1 52.267 9.107M2194.045 917.983c-2.934 14.59-7.12 28.738-13.447 40.3-4.294 7.848-20.89 19.49-30.541 14.74-9.45-4.631-8.575-28.389-8.629-38.632-.067-9.88 1.71-19.572 4.24-29.142 16.288 3.89 32.588 7.901 48.377 12.734" fill="#f25b43"/><path d="M2424.658 1177.74c-6.412 8.067-13.611 15.512-21.465 22.108a257.8 257.8 0 0 1-18.237-15.45c-7.988-7.416-16.066-15.528-22.893-24.444a117.446 117.446 0 0 0 12.51-16.497c9.178 6.9 18.118 14.269 27.653 20.59a359.539 359.539 0 0 0 22.432 13.693M2459.496 1081.63c-.075 9.993-1.207 19.985-3.32 29.781-12.237-1.304-24.353-4.397-35.685-8.688-9.083-3.457-19.314-7.914-28.367-13.724.317-7.535-.181-15.102-1.615-22.577 4.799 2.047 9.522 4.412 14.38 6.126 7.68 2.715 15.572 4.702 23.524 6.354 10.29 2.121 20.672 2.79 31.083 2.728M2424.875 975.493c-16.692 3.687-33.13 8.342-48.765 15.436-6.13 2.775-12.526 6.78-19.132 9.463-3.763-5.125-7.587-10.22-11.38-15.345 2.35-1.668 4.626-3.503 7.036-5.323 7.409-5.595 15.472-10.355 23.654-14.708 12.392-6.595 25.424-12.357 38.887-16.528 1.89 7.142 4.33 14.148 7.082 20.896.848 2.045 1.71 4.077 2.618 6.11" fill="#f68366"/><path d="M1776.973 1040.228c14.787 14.408 37.8 13.368 53.427.904 14.653-11.692 21-42.372 5.173-55.639-3.466-2.906-9.333-.253-7.946 4.627 2.066 7.227 4.853 13.64 4.866 21.307.027 7.637-3.08 15.436-7.92 21.277-11.013 13.29-32.026 13.727-46.08 5.56-1.226-.712-2.546.964-1.52 1.964" fill="#1d1b19"/><path d="M1889.893 972.64c7.374 14.44-14.8 21.947-24.973 22.653-11.16.774-20.933-3.12-26.027-13.346-3.84-7.707-14.973-.96-11.44 6.693 7.734 16.707 29.56 19.773 45.667 16.2 9.013-2.013 17.573-6.773 22.453-14.76 4.027-6.613 1.987-14.72-4.133-18.987-1-.68-2.013.614-1.547 1.547" fill="#1d1b19"/><path d="M1827.4 976.88c.68-5.867-7.053-8.507-11.533-6.12-3.334 1.773-4.827 5.187-5.04 8.8-.24 4.093 2.613 7.653 5.68 9.92 3.4 2.507 8.44 1.933 12 .187 3.6-1.774 6.546-5.387 7.346-9.347.427-2.173.48-4.56-.373-6.64-1.12-2.76-3.373-6.027-6.64-6.507-2.893-.426-5.68-.466-8.213 1.28-2.734 1.907-4.947 5.08-4.547 8.56.267 2.36.76 4.307 2.507 6.054 2.16 2.16 5.386 3.013 8.333 2.213 2.147-.6 4-2.027 5.12-3.947 1.68-2.88 1.267-5.746 0-8.64-.067-.146-.133-.293-.187-.44.387 1.427.774 2.867 1.16 4.294l-.12 1.333c-.72 1.24-1.44 2.467-2.146 3.693.893-1.066.266-.706-1.907 1.094h-4.28c-1.627-.654-2.76-1.787-3.387-3.414-.12-.426.24-2.72-.16-1.213.374-.813.347-.853-.053-.12.853-1.413-.907.44.413-.467-.72.387-.706.4.027.027l.653-.04c-.826-.027-.8.027.04.133-1.173-.2.147.12.507.414-1.173-.96.413.866-.36-.44.24.613.227.6 0-.054-.373-1.08.04-.04-.04.36-.08.24-.213.44-.4.6.747-.906-.52.267.48-.32.227-.186.48-.333.733-.466-.2.12-.6.053.2.066-.133 0 .907.24.827.214 1.853.36-.28-.507.48.12 1.2.986 2.707.32 2.88-1.187M1856.067 907.173c-.347 2.334.053 4.387.986 6.56.907 2.067 1.574 4.214 2.294 6.347.946 2.76 3.253 4.773 6.266 4.773 2.654 0 5.8-1.96 6.267-4.773 1.08-6.573-.173-14.813-5.533-19.32-2.814-2.387-6.494-3.24-9.84-1.28-3.56 2.093-5.507 7.52-2.92 11.12.866 1.213 1.64 2.453 2.613 3.573.32.4.667.774 1.053 1.094-.36-.667-.306-.587.2.2.174.28 1.24 2.493.934 1.706.373.947.693 1.934.96 2.907 3.626-2.107 7.24-4.213 10.853-6.32-1.44-1.507-2.973-2.96-4.293-4.587-1.587-1.92-3.187-3.586-5.614-4.4-1.613-.546-3.946.614-4.226 2.4M1760.107 974.747c.066-1.72.08-3.267-.867-4.827-.68-1.107-1.347-2.213-2.027-3.32-3.36 1.96-6.72 3.92-10.08 5.893l.2.32a526.74 526.74 0 0 0-.586-4.533c-1.654 3.947.373 7.36 2.026 10.853.947 2.014 3.294 3.56 5.374 4.134 3.093.853 6.48-.04 8.76-2.307a9.033 9.033 0 0 0 2.626-6.373c0-3.307-1.76-5.987-4.453-7.774-.72-.466-1.453-.946-2.173-1.426-.88-.587-1.854-.947-2.854-1.334-1.706-.666-3.493-.36-5.186.107 1.906.507 3.813 1.013 5.733 1.52-.107-.093-.2-.187-.293-.267-2.387-2.12-5.92-2.346-8.267 0-2.213 2.214-2.307 6.067 0 8.267.853.8 1.693 1.613 2.547 2.427.946.906 1.88 1.653 3.2 1.973.52.12 1.053.187 1.573.293 2.44.44 4.653-1.04 4.747-3.626M1834.04 1029.392c1.747 4.157 2.28 7.71 5.013 11.541 2.48 3.467 5.374 6.31 8.92 8.67 7.28 4.868 17.707 5.038 24.867.065 15.573-10.816 9.213-40.028-3.227-50.561-3.466-2.947-8.146.666-6.186 4.76 4.546 9.54 11.573 25.549 3.733 35.438-3.733 4.706-11.387 2.683-15.68.275-2.613-1.47-4.88-3.275-7.093-5.29-2.52-2.303-5.667-3.925-8.147-6.175-.88-.794-2.747-.03-2.2 1.277M1896.507 933.12c3.213-.213 6.16-2.8 9.2-3.867 3.773-1.32 7.453-1.746 11.28-2.746 5.92-1.56 4.72-10.814-1.454-10.694-4.666.107-9.56 2.507-13.293 5.24-2.933 2.16-7.533 6.667-7.173 10.627.066.747.613 1.493 1.44 1.44M1909.4 944.12c2.16 1.4 4.52.947 6.96.693l9.827-1c5.88-.6 4.48-9.333-1.067-7.853-3.2.84-6.413 1.693-9.613 2.547-2.64.693-5 1.133-6.68 3.386-.547.747-.107 1.787.573 2.227M1748.56 1019.217c-6.387-3.165-15.173 3.4-19.333 7.787-5.214 5.508 4.266 12.72 8.146 6.285 1.454-2.394 3.267-4.489 5.52-6.162 2.174-1.61 4.827-2.764 6.427-5.002.64-.898.213-2.426-.76-2.908M1751.533 1039.88c-2.653-.305-4.786 2.601-6.56 4.21-2.333 2.125-4.6 4.277-6.8 6.534-3.426 3.508 2.28 8.99 5.307 5.303a158.013 158.013 0 0 0 5.72-7.399c1.573-2.15 4.413-4.716 3.72-7.593-.16-.671-.76-.983-1.387-1.055" fill="#1d1b19"/><path d="M1017.01 1157.168c-24.813-21.25-60.625-30.696-76.254-60.82-13.552-26.12-22.921-63.397-22.499-92.788.646-45 20.643-87.08 34.195-130 11.048-34.987 17.016-76.107-4.352-105.933-14.956-20.88-42.461-31.947-67.71-27.267-25.251 4.693-46.945 24.907-53.406 49.76-1.47 5.653-2.173 11.8-.032 17.24 5.572 14.147 24.89 14.933 38.36 21.987 15.825 8.293 24.105 26.8 25.176 44.64 1.07 17.826-3.835 35.4-8.323 52.693-15.938 61.427-27.046 126.768-9.792 187.835 17.255 61.066 70.067 116.081 133.516 117.086l11.12-74.433M1120.35 867.027c-21.589-6.894-47.167-18.187-69.831-19.854-25.85-1.92-23.606 2.814-15.956 29.334 6.265 21.706 18.69 80.44 43.313 85.173l42.473-94.653M1335.973 852.52a318.356 318.356 0 0 1 59.374-28.733c2.066-.747 4.413-1.467 6.413-.52 2.827 1.32 3.32 5.066 3.32 8.186-.053 56.454-35.347 106.014-69.133 151.24l.026-130.173" fill="#685952"/><path d="M1384.773 1401.373c-96.77 42.694-191.377 49.374-291.682 14.187-40.96-14.36-79.764-37.787-106.054-72.333-49.946-65.611-67.208-178.458-52.136-258.002 18.815-99.292 76.535-194.705 168.912-240.865 83.844-41.893 188.899-31.04 268.56 18.36 79.654 49.4 134.48 133.493 158.694 224.047 22.266 83.23 17.186 180.38-40.214 244.634-28.44 31.839-67.013 52.746-106.08 69.972" fill="#d6d4b4"/><path d="M1156.403 945.013c-1.972 17.347 13.256 32.92 30.885 30.56 17.748-2.36 28.513-22.493 23.657-38.973-2.141-7.267-13.649-4.093-11.33 3.12 3.494 10.88-3.008 22.187-13.702 25.707-12.492 4.106-26.186-8.467-27.26-20.414-.132-1.453-2.086-1.426-2.25 0" fill="#1d1b19"/><path d="M1258.37 953.84c.08 5.507-5.277 10.853-9.585 13.36-5.285 3.067-11.904 1.747-17.048-.787-11.845-5.826-14.092-19.133-18.581-30.08-1.813-4.413-9.93-4.466-9.208 1.254 2.153 17.013 13.33 33.933 30.49 38.4 6.794 1.773 14.689.266 20.002-4.427 6.044-5.32 7.067-10.133 6.18-17.72-.164-1.4-2.272-1.48-2.25 0M1302.757 877.613c-7.526 6.187-8.733 16.827-4.913 25.414 1.316 2.96 5.755 3.813 8.327 2.186 7.174-4.546 9.738-11.933 8.526-20.12-1.401-9.466-17.692-5.466-14.585 4.027.801 2.44.493 4.587-1.316 6.533h8.607c-3.524-4.426-3.751-10.493-1.504-15.613.92-2.107-1.335-3.92-3.142-2.427M1129.637 878.2c-3.849 4.84-4.265 13.76-3.248 19.6.671 3.84 5.76 5.493 8.854 3.6 9.337-5.707 10.742-18.093 4.205-26.427-2.773-3.533-8.148-2.52-11.072 0-6.415 5.534-6.715 16.694-.121 22.2 3.265 2.734 7.837 3.214 11.048 0 3.068-3.066 2.932-7.96 0-11.053.198.267.313.56.344.893-.119-.293-.432-2.44-.35-.96-.201.787-.184.707.052-.24-.12.48-1.12 1.36.099.227h-11.072c.64.76.89 1.267.921 2.667.024 1.066-.285 2.133-1.358 3.226 3.156.4 6.312.814 9.466 1.214-.913-2.08-1.913-3.894-2.408-6.12-.562-2.52-.218-5.134-.868-7.64-.466-1.8-3.204-2.8-4.492-1.187" fill="#1d1b19"/><path d="M1332.896 1444.093c1.224 4.267 3.597 9.347 8.037 9.4 4.427.067 6.934-4.933 8.32-9.12a820.68 820.68 0 0 0 24.067-88.226c3.107-14.574 4.253-33.1-8.427-40.935-15.853-9.796-39.866 1.165-48.906 15.525-16.198 25.73 9.094 86.29 16.909 113.356M1131.024 1444.093c-1.359 4.267-3.976 9.347-8.872 9.4-4.881.067-7.644-4.933-9.188-9.12a760.285 760.285 0 0 1-26.548-88.226c-3.435-14.574-4.703-33.1 9.29-40.935 17.502-9.796 44.002 1.165 53.98 15.525 17.875 25.73-10.038 86.29-18.662 113.356" fill="#685952"/><path d="M1213.513 919.453c-1.324-.333-2.828-1.24-4.232-1.066-1.561.213-3.041.44-4.54.933-3.1 1.013-5.758 2.96-7.854 5.44-2.38 2.8-5.392 7.587-3.018 11.213 2.279 3.48 5.41 6.08 9.251 7.667 7.075 2.92 14.636-.427 16.879-7.72.898-2.933.502-6.52-.948-9.2-1.908-3.52-5.008-4.947-8.83-5.453-3.792-.507-7 3.56-7 7 0 3.786 3.184 7.026 7 7-1.642.013-3.081-1.4-3.246-2.92.182 1.693.385-1.067-.042.586.155-.586.528-.84.998-1.173.508-.36.197.107-.655-.28-1.504-.693-2.52-1.867-3.657-3.027l1.597 6.04c.367-2.04 1.025-3.613 2.447-5.146.712-.76 1.43-1.48 2.294-2.067.984-.68 2.452-1.907 3.556-2.28 2.602-.867 2.882-4.8 0-5.547" fill="#1d1b19"/><path d="M1312.803 939.04c7.902 3.373 17.448 3.52 25.797 5.84 9.507 2.627 18.773 6.333 27.52 10.867 7.867 4.066 12.933-7.774 4.72-11.2-9.653-4.027-19.467-6.92-29.813-8.494-8.523-1.306-19.564-3.333-27.807-.2-1.224.454-1.97 2.534-.417 3.187M1324.792 963.307c4.145 4.08 9.768 6.666 14.661 9.773 5.787 3.68 11.307 7.787 16.614 12.133 5.906 4.84 12.64-4 6.36-8.24-10.174-6.866-23.387-16.52-35.912-17.826-2.187-.227-3.131 2.786-1.723 4.16M1313.021 985.547c2.671 8.346 9.662 15.866 14.634 23.013 4.334 6.224 13.038-.44 8.238-6.36-5.466-6.76-10.73-15.52-18.005-20.4-2.407-1.613-5.727 1.053-4.867 3.747M1100.964 923.533c-14.939-3.24-31.657-3.426-46.91-3.76-7.418-.173-7.418 11.667 0 11.494 15.253-.347 31.971-.52 46.91-3.76 1.975-.427 1.975-3.547 0-3.974M1106.455 950.707c-20.39 1.52-40.451 7.293-59.635 14.16-5.865 2.106-2.445 10.333 3.323 7.88 18.45-7.84 37.576-12.96 56.793-18.48 1.913-.547 1.61-3.72-.481-3.56M1111.87 965.68c-15.331 4.307-29.018 15.96-39.898 27.2-4.787 4.947 2.983 12.627 7.513 7.52 10.5-11.84 23.119-19.907 35.304-29.707 2.43-1.96-.198-5.786-2.918-5.013" fill="#fefbe1"/><path d="M444.564 985.533c-28.36-26.88-56.72-53.773-85.08-80.666-13.108-12.427-27.608-25.52-45.579-27.347-16.005 26.68-19.436 58.787-22.498 89.747-2.222 22.44-4.434 45.19-.778 67.445 3.656 22.256 13.932 44.336 32.24 57.507l121.695-106.686M514.784 976.52c23.945-47.64 49.897-97.56 94.813-126.293 2.026-1.294 4.288-2.587 6.678-2.307 3.073.347 5.213 3.12 6.906 5.72 30.69 46.893 35.36 105.6 39.139 161.525L514.784 976.52M215.735 1209.167c-49.31 12.02-86.849-5.543-119.692-36.3-21.146-19.807-36.085-47.544-30.062-79.107 5.822-30.503 29.262-57.13 38.623-87.2 1.506-4.84 2.644-9.933 1.578-14.587-3.99-17.413-30.37-13.68-47.154-20.186-26.681-10.334-25.158-52-2.453-73.76 22.706-21.747 56.749-26.254 85.769-21.92 16.959 2.52 33.69 7.84 45.625 18.92 24.551 22.786 22.675 62.413 19.29 97.613-5.236 54.445-40.39 154.556 23.481 179.59 1.76.69 3.633 1.402 5.396 2.242-2.33 7.71-5.868 18.887-9.715 30.656a47.364 47.364 0 0 1-10.686 4.039" fill="#f89c48"/><path d="M630.875 1380.653c106.706-62.216 145.84-169.62 127.652-289.982-6.904-45.688-28.088-112.938-70.024-139.338-36.879-23.2-104.866-28.986-147.44-28.48-73.388.88-145.591 5.414-213.196 36.307-68.138 31.133-84.998 92.183-89.903 165.016-3.965 58.865-.221 156.096 43.785 201.59 33.962 35.114 108.344 62.794 152.96 77.714 71.378 23.88 130.912 15.213 196.166-22.827" fill="#f9ea40"/><path d="M412.861 1015.181c8.391 14.362 25.408 20.196 41.204 14.864 16.77-5.661 25.148-25.032 22.615-41.485-.98-6.373-10.98-3.76-9.763 2.68 2.423 12.84-4.637 25.323-16.174 30.923-11.804 5.729-27.458.892-36.016-8.42-.927-1.008-2.539.288-1.866 1.438" fill="#1d1b19"/><path d="M532.336 1012.055c-11.888 3.42-24.745.416-34.973-6.202a42.413 42.413 0 0 1-12.192-11.986c-3.456-5.134-3.716-11.454-6.84-16.494-2.186-3.52-7.48-2.84-8.682 1.134-2.061 6.826 2.435 15.293 6.136 20.853 4.156 6.24 10.012 11.467 16.508 15.172 13.055 7.44 28.288 8.325 41.632 1.293 2.088-1.101.64-4.412-1.589-3.77" fill="#1d1b19"/><path d="M454.159 981.84c9.893 1.667 19.6 2.453 29.621 2.733 6.363.174 6.373-9.893 0-9.88-10.012.014-19.701.56-29.621 1.96-2.607.374-2.546 4.76 0 5.187M569.032 971.507c.813-3.667 1.287-7.44 2.215-11.08h-14.743c.647 2.96 1.797 5.866 2.727 8.76 1.356 4.213 5.586 6.88 9.994 5.666 3.86-1.053 7.388-5.893 5.675-9.986-1.43-3.427-2.67-7.067-4.424-10.334-4.127-7.666-16.413-2.386-13.972 5.894 1.07 3.626 1.688 7.413 2.644 11.08 1.247 4.8 8.772 5.026 9.884 0M385.397 977.387c.814-3.667 1.287-7.454 2.215-11.08h-14.743c.647 2.96 1.796 5.866 2.727 8.76 1.355 4.213 5.587 6.88 9.995 5.666 3.858-1.053 7.386-5.893 5.674-9.986-1.432-3.427-2.669-7.067-4.424-10.334-4.126-7.68-16.413-2.4-13.972 5.894 1.068 3.626 1.688 7.413 2.644 11.08 1.247 4.786 8.772 5.026 9.884 0" fill="#1d1b19"/><path d="M670.227 1420.893c-4.022-3.866-7.452-8.053-9.896-12.04-14.103-23.053-30.799-64.253-3.856-84.816 2.945-2.248 6.29-4.084 9.936-4.753 20.552-3.768 26.497-.281 31.349 18.796 6.484 25.493 13.339 54.227 12.07 80.733-1.318 27.547-25.689 15.48-39.603 2.08M368.639 1338.413c-6.498-24.138-33.982-33.246-51.682-12.684-13.216 15.351-10.332 43.151-12.181 62.471-.99 10.347-3.957 39.2 4.457 47.453 11.74 11.494 28.056-9.386 34.863-17.76 17.473-21.506 32.559-49.706 24.543-79.48M550.776 997.76c6.692 3.173 15.899 1.2 23.203 1.56 10.253.493 20.338 2.147 30.289 4.613 5.404 1.334 7.319-6.306 2.26-8.2-9.627-3.6-19.812-5.826-30.09-6.213-7.811-.293-20.005-.947-26.117 4.707-1.005.92-.837 2.92.455 3.533M553.845 1013.699c8.796 3.19 17.87 4.978 26.526 8.782 6.312 2.775 10.034-6.125 3.66-8.681-8.958-3.587-19.476-7.24-29.239-7.093-4.183.053-4.64 5.652-.947 6.992M400.683 1004.133c-9.607-5.906-26.175 4.107-33.808 9.775-6.2 4.599.718 13.456 6.437 8.344 4.153-3.713 8.679-6.633 13.677-9.073 4.5-2.192 10.47-3.152 13.971-6.886a1.394 1.394 0 0 0-.277-2.16M399.632 1022.172c-5.145 1.223-9.603 4.619-14.093 7.307-5.702 3.413-11.164 7.224-16.647 10.974-4.11 2.811-.172 9.567 3.912 6.692 5.09-3.584 10.21-7.142 15.119-10.974 4.6-3.592 10.048-6.995 13.333-11.887.74-1.103-.472-2.385-1.624-2.112" fill="#f89c48"/><path d="M304.592 1870.307a920.523 920.523 0 0 0-85.136-133.067 112.806 112.806 0 0 1-12.983 40.4c-24.162-52.813-58.194-101.093-99.814-141.613a126.999 126.999 0 0 0 .59 49.213C71.57 1650.893 35.893 1616.56.215 1582.213c-2.2 59.907 12.523 120.347 42.029 172.547-10.58-7.08-21.162-14.16-31.742-21.227-9.66 7.174-2.405 22.36 5.316 31.587 13.838 16.56 27.676 33.12 41.514 49.667-11.52-3.72-23.04-7.454-34.56-11.187 63.361 63.12 149.881 102.44 239.095 108.68l42.725-41.973" fill="#39393a"/><path d="M300.241 2201.373c-10.414 7.014-21.11 13.36-33.369 15.214-23.3 3.52-46.393-10.827-60.072-30.014-48.58-68.146-26.173-184.506 12.71-252.16 50.755-88.32 151.345-145.64 253.203-144.28 106.492 1.414 206.706 64.08 268.178 151.054 23.785 33.653 45.078 63.426 58.178 102.72 15.199 45.586 25.094 93.266 25.319 141.453.045 9.587-.367 19.507-4.541 28.133-10.806 22.334-50.202 18.587-61.068-1.306-20.336-37.214-16.244-60.134-61.208-70.2-49.772-11.134-101.504-8.854-152.331-4.627-35.52 2.96-71.097 6.867-105.685 15.467-21.399 5.32-38.507 11.16-60.239 14.32-22.095 3.226-43.527 11.053-62.404 23-5.607 3.546-11.099 7.48-16.67 11.226" fill="#686a6c"/><path d="M534.987 2000.48c30.742 34.347 75.042 56.2 120.996 59.693 30.349 2.307 61.737-3.386 87.816-19.08 26.08-15.693 46.336-41.893 51.949-71.8.935-4.986 1.065-11.053-3.007-14.066-3.086-2.28-7.34-1.814-11.142-1.267-70.6 9.987-143.192 5.68-212.116-12.587-34.639-9.173-51.154-30.933-79.184-47.066-.791 37.733 19.948 78.546 44.688 106.173" fill="#f9ea40"/><path d="M752.057 1687.84c-5.745-10.093-.926-22.68 3.934-33.227 3.508-7.6 16.594-44.266 25.498-20.426 7.706 20.626 15.53 41.946 14.526 63.946-2.914.227-5.899-.613-8.256-2.346l-35.702-7.947M524.595 1698.32c1.462.053 1.202-2.293.373-3.493a153.537 153.537 0 0 0-23.235-26.64c-5.066-4.6-11.705-9.147-18.245-7.12-10.865 23.613-7.519 53.146 8.356 73.72l32.75-36.467" fill="#39393a"/><path d="M469.476 1849.72c.063.267.125.52.201.787a197.7 197.7 0 0 0 4.436 15.146 219.836 219.836 0 0 0 5.852 15.467 350.203 350.203 0 0 0 13.008 27.52c19.424 36.907 47.722 74.227 84.051 90.587 51.317 23.093 102.621 46.76 159.541 27.666 43.572-14.626 78.374-48.56 103.963-86.746 12.77-19.04 23.748-39.694 28.635-62.107.99-4.52 1.68-9.067 2.118-13.627 1.516-15.8.012-31.746-2.845-47.52-.927-5.213-2.017-10.426-3.183-15.613-2.356-10.4-5.05-20.68-7.581-30.76a117.368 117.368 0 0 0-4.185-13.2 137.855 137.855 0 0 0-7.27-15.88 159.202 159.202 0 0 0-3.596-6.36c-4.524-7.56-9.737-14.867-15.477-21.787-16.692-20.16-37.808-37.08-59.036-47.573-30.227-14.96-64.013-21.573-97.673-23.893-35.627-2.454-60.002 6.24-92.12 18.96-25.227 9.986-47.044 16.786-67.396 36.386-16.63 16-28.823 35.48-36.492 56.587a160.46 160.46 0 0 0-8.208 33.36 159.192 159.192 0 0 0-1.479 18.107v.013a166.64 166.64 0 0 0 4.736 44.48" fill="#686a6c"/><path d="M712.712 1781.267c-1.259 10.08-11.977 18.12-21.888 15.533-8.247-2.16-12.453-11.893-10.044-19.52 2.283-7.24-9.265-10.413-11.33-3.133-3.893 13.746 4.4 29.4 18.617 32.653 15.34 3.507 28.746-10.853 26.894-25.533-.182-1.44-2.069-1.44-2.249 0" fill="#1d1b19"/><path d="M630.027 1788.427c-.727 6.453-.352 10.08 4.774 14.826 4.194 3.867 10.622 5.227 16.12 4 14.802-3.293 24.332-17.546 26.16-32.013.723-5.72-7.382-5.64-9.208-1.24-3.474 8.373-4.998 17.027-12.761 22.8-4.067 3.027-8.947 3.707-13.748 2.4-3.819-1.04-9.028-6.52-9.087-10.773-.021-1.48-2.092-1.414-2.25 0M592.995 1728.293c1.55 4.16 1.424 8.68-1.506 12.134h8.607c-1.187-1.347-.993-2.707-.501-4.107 1.36-3.893-1.512-8.267-5.283-9.307-5.203-1.426-8.961 2.52-9.573 7.294-.812 6.346 2.574 12.48 7.982 15.68 3.696 2.186 7.486-.08 8.94-3.64 2.91-7.107.379-15.84-5.728-20.32-1.389-1.014-3.529.68-2.938 2.266M732.32 1727.92c-.643 1.653-.5 3.48-.813 5.213-.386 2.134-1.43 3.587-2.336 5.507 3.154-.413 6.31-.813 9.466-1.227-.273-.293-.56-1.04-.349-.453-.13-.4-.23-.827-.3-1.253.095.76.119.733.072-.094.052-.866.04-.866-.037-.026a9.12 9.12 0 0 1 .368-1.227c-.33.8-.288.827.121.067-.553.733-.55.746.01.066h-11.07c.63.627.627.587-.013-.12l-.302-.72c.211.907.204.827-.018-.2.205-1.04.198-1.12-.02-.226-.407 1.533.154-.414.472-.76-2.89 3.12-3.098 7.946 0 11.053 3.241 3.24 7.748 2.68 11.049 0 6.008-4.893 5.675-15.16-.097-20.093-2.923-2.494-8.307-3.56-11.071 0-5.739 7.373-4.65 18.573 3.88 23.453 3.053 1.747 8.277.36 8.855-3.6.244-1.68.606-3.267.238-4.947-.312-1.426-.477-2.853-.673-4.306-.341-2.534-1.068-5.467-2.94-7.294-1.555-1.52-3.773-.666-4.492 1.187" fill="#1d1b19"/><path d="M668.293 1765.56c-.77-.8-.748-.707.068.267.418.4.86.76 1.328 1.08.931.533 1.576 1.066 2.306 1.84 1.333 1.426 1.748 2.426 2.04 4.306l1.597-6.04c-.821.8-1.376 1.4-2.104 1.867-1.256.813.263.067-1.124.427.495-.134.716-.107 1.19.133.45.24.815.573 1.1 1 .794 1.28.203-.573.31 1.04-.083-1.253-.284.813-.441 1.16-.507 1.12-2.235 2.08-3.455 2.04 3.816.093 7-3.253 7-7 0-4.96-4.441-7.413-8.861-6.747-6.259.934-8.44 7.934-7.288 13.294 1.441 6.706 9.297 9.586 15.232 7.106 3.054-1.28 6.021-3.306 7.808-6.186 2.357-3.787.574-7.387-1.878-10.534-1.777-2.28-4.034-3.746-6.673-4.853-1.21-.507-2.604-.72-3.9-.84-1.728-.147-2.73.6-4.255 1.107-2.878.946-2.578 4.48 0 5.533" fill="#1d1b19"/><path d="M469.476 1849.72c.063.267.125.52.201.787a199.634 199.634 0 0 0 24.587-10.147c11.58-5.693 33.748-11.253 30.677-28.347-2.08-11.586-15.25-14.946-24.825-15.453-12.243-.64-24.161 3.587-35.376 8.667v.013a166.64 166.64 0 0 0 4.736 44.48M474.113 1865.653a219.836 219.836 0 0 0 5.852 15.467 350.203 350.203 0 0 0 13.008 27.52 530.514 530.514 0 0 0 34.8-25.533c8.234-6.574 17.056-15.227 15.842-25.68-.452-3.96-2.67-7.92-6.33-9.48-1.942-.827-4.122-.947-6.24-.894-20.076.36-37.872 12.147-56.932 18.6M466.219 1787.12c24.022 1.2 63.597-1.36 50.565-22.813-6.204-10.2-27.383-12.894-42.357-10.547a160.46 160.46 0 0 0-8.208 33.36M801.905 1786.467c3.647 16.973 26.255 13.733 39.136 14.6 8.059.56 16.155.613 24.212.213-2.356-10.4-5.05-20.68-7.581-30.76a117.368 117.368 0 0 0-4.185-13.2c-11.819-.347-23.836.427-34.463 5.44-8.672 4.093-19.588 12.2-17.119 23.707M801.83 1835.56c2.845 10.133 14.3 14.813 24.4 17.773a529.124 529.124 0 0 0 45.051 11.08c1.516-15.8.012-31.746-2.845-47.52-19.837 1.067-40.44-2.866-58.899 4.307-1.98.76-3.948 1.68-5.438 3.2-2.795 2.827-3.334 7.32-2.268 11.16M846.217 1741.44a159.202 159.202 0 0 0-3.596-6.36c-4.524-7.56-9.737-14.867-15.477-21.787-14.837 3.334-33.873 13.987-35.765 25.92-3.898 24.574 32.984 12.4 54.838 2.227" fill="#39393a"/><path d="M201.605 2163.16c9.05 5 8.658 18.28 4.882 27.907-3.775 9.626-9.798 19.333-7.863 29.493.797 4.187 2.924 8.014 5.485 11.414 10.474 13.906 29.086 21.186 46.215 18.053 15.137-2.774 28.144-12.867 37.541-25.053 9.398-12.187 15.66-26.44 21.831-40.534l-108.09-21.28" fill="#686a6c"/><path d="M1058.16 192.006c-1.9 2.74-3.802 5.479-5.703 8.218 7.36-23.608 16.643-46.212 24.005-69.82 2.233-7.158 4.592-14.55 9.537-20.195 4.945-5.644 13.227-9.085 20.138-6.167 13.316 32.336 20.493 67.178 21.037 102.143l-69.014-14.179M961.456 415.213c-31.852-3.573-53.576-33.4-82.12-47.973-48.236-24.64-108.919-1.227-147.433 36.867-21.476 21.226-39.372 49.493-36.772 79.586 2.6 30.094 33.832 57.947 62.257 47.734 31.468-11.307 37.21-55.787 65.361-73.827 20.531-13.16 47.794-8.76 70.258.72 22.465 9.48 43.157 23.56 66.836 29.387 23.678 5.826 52.764.613 65.008-20.48l-63.395-52.014" fill="#203b51"/><path d="M998.087 491.623c81.655 50.33 186.252 39.418 279.697 17.763 65.903-15.275 134.347-37.236 179.31-87.774 33.651-37.806 50.497-88.163 56.182-138.451 5.67-50.274 1.015-101.076-3.656-151.461-1.459-15.734-2.057-31.927-5.156-47.272-38.89-5.06-35.888 24.671-62.436 42.087-17.054 11.19-50.038 14.497-69.687 15.734a5184.865 5184.865 0 0 0-319.728 30.092c-19.744 2.474-39.51 5.074-58.904 9.521-21.22 4.88-44.982 11.606-63.513.167-14.304-8.812-21.093-26.214-34.3-36.61-33.2-26.131-29.109 65.66-28.336 79.907 1.5 27.66 11.259 53.178 17.383 79.99 16.983 74.334 45.217 144.317 113.144 186.307" fill="#3d678c"/><path d="M1308.267 479.79c-148.206-13.958-98.742-223.03-18.875-286.87 61.665-49.287 154.015-56.849 222.139-16.953-64.207 17.698-121.57 59.192-158.488 114.631-27.21 40.858-65.52 138.876-44.49 185.683l-.286 3.51" fill="#f9ea40"/><path d="M1640.04 385.427c27.32 5.266 56 3.306 82.347-5.64-25.96-15.627-49.12-35.907-68.027-59.587-.813 2.173-1.64 4.347-2.467 6.52l-11.853 58.707M1400.027 503.387c.306 25.32.626 50.64.946 75.96 19.56-5.36 34.4-21.254 45.974-37.894 11.573-16.653 21.173-34.946 35.626-49.16l-82.546 11.094" fill="#3d678c"/><path d="M1263.569 312.235c-20.593 57.636-11.136 127.373 31.258 171.516 33.744 35.14 84.605 50.917 133.237 48.024 48.632-2.907 95.047-22.984 135.174-50.62 44.279-30.5 83.014-72.197 99.035-123.533 16.035-51.322 5.408-112.88-34.868-148.505-24.526-21.7-56.947-31.989-88.76-39.79-114.718-28.149-233.786 27.324-275.076 142.908" fill="#3d678c"/><path d="M1493.467 329.493c-6.667-9.706-8.88-23.2-2.867-33.84 5.653-10.026 18.04-14.56 29.027-12.413 9.746 1.907 13.973-12.453 4.146-15.04-17.48-4.627-37.186 4.013-44.866 20.627-7.094 15.32-2.614 34.146 11.626 43.6 1.747 1.173 4.134-1.174 2.934-2.934" fill="#1d1b19"/><path d="M1488.32 325.507c-22.64-21.267-58.6-1.6-62.48 26.253-1.12 8.08 10.147 9.707 11.12 1.507 1.187-10.094 7.733-19.467 17.04-23.707 10.28-4.68 20.96-2.32 30.907 1.813 3.32 1.387 5.826-3.6 3.413-5.866M1578.293 344.88c.187 7.547 2.894 13.56 6.28 20.133 3.254 6.347 13.867 1.96 11.587-4.88-1.747-5.28-4.227-11.466-7.533-15.946-5.88-7.96-17.32-1.32-13.24 7.746 2.266 5.067 6.44 10.267 10.173 14.374 2.987-3 5.987-5.987 8.973-8.974-4.12-3.32-6.573-8.6-8.066-13.56-1.32-4.386-8.294-3.706-8.174 1.107M1468.12 445.4c.107.187.227.373.333.547l-.32-2.494c-1.56 5.107 3.4 8.36 6.747 11.254 2.253 1.946 5.693 2.813 8.387 1.08 2.506-1.627 4.12-4.814 3.173-7.814-1.747-5.546-5.44-10.093-10.573-12.88-4.254-2.306-9.534-.666-11.44 3.854-1.96 4.64.666 9.266 5.226 10.88 1.067.373-.173.053-.4-.214.2.227.907.454 1.2.627.32.173.614.4.92.56.84.44-1.293-1.187-.04-.053.534.493 1.067.973 1.574 1.493.146.147 1.226 1.213.506.48-.68-.707.307.467.387.587 3.16-3.16 6.307-6.307 9.467-9.454-2-.933-3.987-1.906-6.014-2.76a11.475 11.475 0 0 0-3.466-.84c-1.974-.173-3.347.507-4.827 1.774.773-.32 1.533-.64 2.293-.96-.2-.027-.4-.04-.6-.067-2.266-.28-3.573 2.667-2.533 4.4" fill="#1d1b19"/><path d="M1487.4 327.693c-1.133.254-2.213.894-3.253 1.414-2.56 1.28-4.374 4.573-4.254 7.413.107 2.267.88 4.427 2.52 6.067 1.56 1.546 3.867 2.506 6.067 2.506 2.867 0 6.08-1.6 7.413-4.253.52-1.04 1.147-2.12 1.414-3.24.666-2.827.013-5.747-2.08-7.84-2.08-2.093-5-2.733-7.827-2.067" fill="#1d1b19"/><path d="M1546.6 309.92c5.773-2.24 10.587-6.613 15.653-10.12a551.863 551.863 0 0 1 15.107-10.12c10.933-7.067 22.24-13.52 33-20.853 4.88-3.32.64-10.787-4.653-7.974-11.934 6.347-22.827 14.32-33.587 22.454-4.76 3.6-9.467 7.253-14.12 11-4.773 3.84-10.267 7.453-13.747 12.56-.973 1.44.667 3.706 2.347 3.053M1563.213 319.093c9.36.96 19.72-2.133 28.68-4.6 9.84-2.72 19.44-6.133 28.854-10.08 9.066-3.826 3.493-17.12-5.267-12.48-8.973 4.747-18.16 8.96-27.693 12.467-8.52 3.133-18.04 5.053-26.014 9.36-2.72 1.467-1.173 5.067 1.44 5.333M1459.187 379.12c-9.654 3.213-18.4 9.453-27.094 14.627-9.253 5.506-18.866 10.88-27.466 17.36-6.947 5.253-.987 16.573 7.026 12.013 9.387-5.32 18.134-12.04 26.88-18.36 8.187-5.92 17.667-11.547 24.44-19.12 2.44-2.72.134-7.827-3.786-6.52M1466.173 397.373c-8.066 6.88-14.466 16.174-22.053 23.667-7.72 7.627-15.72 14.88-24.227 21.627-6.693 5.293 2.854 15.053 9.467 9.48 8.573-7.227 16.84-14.894 24.267-23.307 6.84-7.76 15.293-16.613 19.4-26.187 1.92-4.48-2.907-8.64-6.854-5.28" fill="#b3bcbf"/><path d="M1346.846 159.092c-1.892-30.027-53.603-16.675-57.218 6.84-2.077 13.514 7.53 26.634 19.228 32.506 12.7 6.39 28.337 5.9 41.257.49 13.05-5.463 24.808-16.294 28.2-30.449 4.155-17.384-7.057-32.397-24.92-33.324-15.893-.83-32.622 7.684-43.691 18.597-12.034 11.866-19.406 30.817-5.568 44.564 12.936 12.86 32.632 10.204 46.219-.014 13.028-9.81 20.78-25.967 17.797-42.316-2.807-15.34-15.93-28.42-31.703-29.645-16.55-1.295-32.706 11.743-34.169 28.405-1.432 16.322 12.567 31.608 29.024 31.84 16.771.217 30.237-14.387 30.011-30.913-.2-15.095-12.8-26.267-26.893-28.801-14.564-2.602-30.196 2.22-39.895 13.665-13.16 15.517-10.05 38.65 9.365 47.275 17.357 7.71 36.797-2.044 44.396-18.706 7.947-17.425-2.387-41.403-24.4-36.158-18.24 4.346-31.203 24.605-30.383 42.616.29 6.403 4.693 11.934 11.218 12.71 5.726.682 13.25-2.82 14.196-9.264.827-5.64 2.41-11.32 6.373-15.585.89-.968 5.715-3.624 5.865-4.115l-6.765-2.82a1.146 1.146 0 0 1-.34-.763c2.536-1.54-.817 2.575-.066 1.363-1.667 2.697-3.857 6.703-7.673 6.471-2.157-.123-2.507-1.008-3.55-2.52 1.551 2.261-.704 1.294.62-.613.535-.763.947-1.594 1.548-2.303 3.055-3.624 7.557-5.068 11.66-5.122 1.852-.028 4.168.095 6.313 1.226.328.163 1.543 1.907 1.464 1.457 1.16 6.69-8.583 3.733-4.489-1.021 6.61-7.657 13.476 5.395 12.395 11.158-.92 4.972-4.385 9.373-8.426 12.247-2.639 1.88-10.004 5.736-12.004 1.077.475 1.103.163.136 1.165-1.744.466-.886 1.087-1.758 1.69-2.548 1.916-2.52 4.392-4.918 6.894-6.866 5.468-4.278 12.681-7.534 19.642-8.243.96-.095 2.587-.231 3.626.068.694.205 1.721 1.431.614-.163 1.107 1.594.054 4.877-.507 6.321-2.213 5.75-7.413 10.028-12.733 12.834-11.21 5.927-28.425 5.818-34.804-7.098-3.793-7.67 4.262-12.057 10.211-15.163 8.425-4.414 19.807-6.758 24.833 3.733 1 2.07 4.506 1.09 4.373-1.186" fill="#f25b43"/><path d="M1321.62 144.223c4.509 8.005 9.879 15.523 14.968 23.177 4.372 6.583 13.893-.515 8.679-6.692-5.92-7.017-11.627-14.264-18.031-20.82-2.863-2.926-7.601.813-5.615 4.335" fill="#1d1b19"/><path d="M1346.96 143.53c-9.88 1.162-19.265 8.55-27.723 13.44-6.233 3.592.046 13.6 5.512 9.427 4.3-3.282 8.61-6.55 12.85-9.914 4.08-3.255 8.068-6.064 10.64-10.697.507-.892-.106-2.39-1.28-2.256" fill="#1d1b19"/><path d="M601.68 239.941a310.926 310.926 0 0 1 29.626-56.13c8.97-13.456 19.723-26.777 34.752-32.755 15.028-5.966 35.163-1.768 42.157 12.807 2.26 4.724 2.923 10.5.493 15.13-4.08 7.773-14.298 9.163-22.477 12.349-18.427 7.193-29.308 26.398-35.05 45.333-5.74 18.922-7.91 39.03-16.273 56.967-8.365 17.923-25.419 33.943-45.17 32.863l11.943-86.564M130.462 485.198c-34.722-40.349-60.66-96.404-41.601-146.104 7.704-20.081 22.112-37.122 29.32-57.403 7.209-20.268 4.15-47.334-15.053-57.045 10.634-6.469 23.594-9.036 35.891-7.086-4.166-27.281-28.895-49.973-56.423-51.809 11.328-10.428 9.069-30.136-1.138-41.654-10.208-11.532-25.83-16.552-40.932-19.55-3.338-.674-7.124-1.563-8.766-4.532-1.156-2.109-.889-4.676-.499-7.043 2.44-14.774 8.512-28.974 17.657-40.836 32.255-41.87 96.188-45.183 139.738-20.325 57.36 32.732 69.189 99.989 59.956 160.533-4.903 32.159-15.266 63.7-29.409 92.947-15.455 31.957-37.603 52.77-37.798 90.78-.142 27.511 14.774 82.132-1.166 106.172-11.878 17.9-36.586 18.274-49.777 2.955" fill="#767779"/><path d="M449.296 49.207c-14.56-22.803-37.033-40.469-62.644-49.215a153.354 153.354 0 0 0-9.31 52.451c-.008 13.94 2.427 29.003 12.342 38.8l59.612-42.036" fill="#abaaa9"/><path d="M428.764 45.652c-6.136.767-12.38 1.605-17.991 4.206-5.23 2.416-9.647 6.267-13.936 10.119a669.55 669.55 0 0 0-80.669 86.532c-69.78 89.56-115.497 195.08-160.474 299.334-7.734 17.934-15.577 38.03-8.992 56.405 6.452 18.02 24.823 28.635 42.445 36.082 74.361 31.45 157.392 33.326 238.115 34.733 38.932.682 78.356 1.321 116.226-7.746 16.116-3.85 32.142-9.62 45.073-19.98 36.021-28.864 37.582-82.242 34.943-128.33-5.803-101.312-14.484-203.477-28.201-304.05-11.517-84.444-97.64-75.946-166.539-67.305" fill="#abaaa9"/><path d="M570.016 84.625c8.047 9.333 15.035 22.22 11.333 34.831-2.67 9.097-15.281 15.18-23.261 9.527-5.146-3.652-9.646 4.625-4.857 8.305 11.729 9.028 27.328 1.362 33.838-10.193 9.03-16.041-3.31-34.068-14.932-44.595-1.443-1.306-3.38.666-2.12 2.125" fill="#1d1b19"/><path d="M574.844 73.66c-7.874-4.53-17.637.084-20.896 8.009-1.02 2.482 1.11 4.726 3.166 5.582 6.655 2.735 14.502 1.318 19.896-3.254 5.083-4.32 5.257-12.273 2.547-17.813-1.482-3.044-4.38-4.923-7.45-6.031-3.961-1.43-7.899.603-10.918 2.96-6.304 4.936-5.671 15.05.987 19.13 3.314 2.034 7.82.744 9.75-2.552 2.106-3.605.582-7.476-2.557-9.748 1.197.743 1.806 1.837 1.826 3.268-.171-1.276-.146.126-.363.631.434-.687.423-.757-.033-.182.803-1.01.052-.197-.512.028 1.164-.295.773-.365-1.175-.183-.919-.14.593.59-.074-.042-.915-.87.039.856.02.604.046.603-.061 1.29-.308 1.78-.463.912-1.43 1.333-2.299 1.824-2.408 1.36-5.534.814-8.132.673 1.512 1.515 3.021 3.016 4.532 4.53.272-5.23 6.243-7.601 10.645-6.016 1.901.687 3.034-2.23 1.348-3.198M486.723 103.134c1.58-16.214 18.835-28.944 34.722-24.468 5.597 1.581 8.002-7.218 2.392-8.673-20.371-5.316-42.653 11.541-40.49 33.141a1.689 1.689 0 0 0 3.376 0" fill="#1d1b19"/><path d="M523.044 579.2c1.115 9.64 5.647 22.187 15.279 21.067 5.857-.68 9.556-6.494 12.088-11.827 14.121-29.693 18.8-62.853 23.306-95.427 1.187-8.586 2.36-17.44.112-25.813-3.716-13.827-17.51-24.253-31.833-24.067-54.984.76-22.515 105.28-18.952 136.067M287.425 578.013c-41.45 3.16-81.574-15.533-116.056-38.746-3.024-2.04-6.097-4.187-8.113-7.227-6.555-9.867 1.05-23.187 10.276-30.627 29.616-23.853 57.797-1.173 86.832 14.467 18.712 10.08 81.977 57.947 27.061 62.133" fill="#767779"/><path d="M1926.473 126.14c-.757-10.577-8.7-21.029-14.276-29.673-6.36-9.877-13.17-20.328-21.001-29.099-5.394-6.038-16.742-3.054-18.437 4.862-4.582 21.38-2.018 42.058 6.64 62.022 2.718 6.263 10.83 6.64 16.07 4.217 10.157-4.693 16.588-15.957 15.677-27.067-7.79 1.065-15.579 2.115-23.369 3.166.869 6.29 4.54 10.55 9.5 14.15 11.193 8.126 22.485-8.924 14.093-18.255-.63-.7-.476-1.079-.644-2.227-2.032-13.226-24.658-10.13-23.369 3.166.35 3.614-.392 5.17-3.74 6.78 5.351 1.402 10.717 2.803 16.069 4.204-6.136-13.632-8.042-29.533-5.646-44.286-6.15 1.625-12.3 3.236-18.451 4.861 7.817 7.916 16.167 15.187 23.69 23.481 6.655 7.37 12.904 17.905 21.646 22.879 2.298 1.303 5.758-.309 5.548-3.18M2072.052 112.378c-4.24-10.593-9.643-20.79-14.96-30.858-2.823-5.318-5.39-10.707-7.985-16.124a792.441 792.441 0 0 0-4.495-9.246c-1.163-2.397-4.24-6.452-4.283-9.147-.24-11.018-13.656-13.557-19.555-5.303-10.679 14.989-15.344 34.318-17.528 52.3-.68 5.573 4.226 9.742 8.764 11.514 9.572 3.73 17.64-3.616 21.257-11.812-1.673 3.786 2.496-5.772 1.844-4.312 1.035-2.354.808-1.006-.284-.893.652-.07-.737-1.39-.51-.822.496 1.304.014 1.942-.483 3.318-4.708 12.919 16.677 21.995 22.279 9.388 6.296-14.125.695-33.042-16.365-35.836-8.112-1.333-14.805 1.149-21.102 6.183-2.41 1.929-3.942 5.02-5.119 7.786-.539 1.22-1.262 3.049-1.83 4.382-.212.453-.439.907-.652 1.361-2.226 3.517.199 2.921 7.304-1.759 2.92 3.83 5.842 7.672 8.764 11.501 1.262-15.84 6.877-29.68 12.833-44.216-5.133 2.084-10.267 4.183-15.414 6.268 4.651 2.311 8.423 9.97 11.458 14.053 3.574 4.822 7.204 9.615 10.423 14.678 6.424 10.068 12.408 20.505 19.244 30.29 2.127 3.035 7.97 1.22 6.395-2.694M1861.587 333.613c-18 .014-58.667-3.32-74.12 4.534-57.92 29.48 71.266 69.986 94.24 76.84l-20.12-81.374M2251.536 301.102c14.895 19.21 37.443 32.077 61.318 36.178 16.282 2.805 50.052 6.754 64.367-1.631 11.054-6.465 17.045-19.606 17.396-32.413.35-12.791-4.208-25.277-10.245-36.56-5.458-10.198-12.197-19.834-15.581-30.887-4.33-14.072-2.668-29.866 4.482-42.749 5.839-10.535 15.52-19.194 27.122-22.411 18.57-5.138 38.572 4.36 51.82 18.34 32.84 34.654 30.934 90.514 13.37 134.91-12.47 31.528-32.701 61.303-62.278 77.89-60.571 33.983-114.74-14.956-161.193-50.356l9.422-50.311" fill="#f9b3bf"/><path d="M1937.748 98.359a257.005 257.005 0 0 0-24.48 10.344c-73.847 35.855-77.333 133.949-71.014 205.95 4.81 54.67 5.754 111.635 44.195 155.393 37.395 42.597 95.16 51.59 148.405 58.23 37.12 4.619 74.224 9.254 111.329 13.888 28.388 3.53 57.081 7.075 85.454 3.356 28.36-3.72 56.805-15.414 76.578-38.296 59.87-69.285 44.66-141.896 8.456-220.276-66.96-144.961-216.833-247.254-378.923-188.59" fill="#fcdae1"/><path d="M2028 207.213c-4.587 12.294-16.2 21.187-29.52 20.52-5.987-.306-11.773-3.946-15.96-7.96-4.707-4.52-6.133-10.746-9.293-16.2-1.987-3.426-7.787-2.96-8.68 1.134-3.92 17.76 16.64 31.933 32.066 33.026 17.147 1.227 32.934-13.44 33.854-30.186.08-1.494-2-1.574-2.467-.334" fill="#1d1b19"/><path d="M1923.387 226.893c-1.614 5.614.48 10.147 5.226 13.414 6.947 4.786 16.64 1.72 23.534-1.28 13.333-5.787 25.133-21.56 20.88-36.467-2.347-8.213-14.827-4.773-12.787 3.52 2.133 8.627-1.573 14.773-7.987 20.387-6.186 5.413-22.786 11.773-26.693.426-.36-1.04-1.853-1.12-2.173 0" fill="#1d1b19"/><path d="M1968.28 195.653a.934.934 0 0 1 .267-.453c-.494.373-.974.76-1.467 1.133.893-.2 1.293-.706 1.853-1.36-.08.014-.16.04-.226.067-1.2.373 1.84-.227 1.226-.147a1.147 1.147 0 0 1-.866-.013c-.254-.04-1.347-1.067-.614-.333-.133-.174-.28-.347-.413-.52.293.56.24.44-.147-.334.16.467.227 1.587.094-.093-.027.693.026.533.133-.493-.213 1.333.747-1.267.08-.107.187-.24.373-.48.56-.733-.547.493-.427.413.373-.24-1.2.84 1.48-.427.054-.054 1.16-.12 1.36-.16.573-.133 1.773-.027.933.187.187-.04.306.133.626.253.946.387-.666-.414-.52-.28.44.4.174.253.36.506.547.76-1.507 10.4-5.747 11.613-12.76 3.653 1.08 4.547 6.173 7.187 10.533 5.973 5.054-1.386 8.294-7.96 5.12-12.573-1.96-2.853-4.493-4.587-8-4.72-2.573-.107-5.213.973-7.053 2.747-1.973 1.88-2.813 4.28-2.893 6.946-.094 2.814 1.453 5.107 3.106 7.187 2.12 2.653 6.574 3.987 9.827 3.587 3.88-.467 8.053-2.254 9.72-6.094 2.88-6.626-.587-14.466-8.24-15.026-3.413-.24-6.267 2.2-7.293 5.253-.4 1.173-.48 2.44-.294 3.653.214 1.44 1.2 2.067 2.16 2.734.92.653 2.16-.04 2.467-1.014M1987.507 231.707c-1.8 6.466-3 24.373-13.2 22.386-9.187-1.773-12.947-15.48-15.44-22.706-1.174-3.387-6.814-4.12-7.6 0-2.534 13.173 8.16 34.186 23.346 34.453 7.92.147 13.934-4.533 17.347-11.467 3.853-7.826 1.707-15.8-2.053-22.973-.547-1.027-2.107-.747-2.4.307M1925.315 163.074c-1.8-2.796-2.715-5-5.726-6.748-3.589-2.083-8.01-2.325-12.03-1.787-8.119 1.075-16.264 7.285-17.635 15.659-.968 5.914 7.03 8.28 9.046 2.487 1.667-4.812 5.121-7.192 9.906-8.522 3.777-1.049 10.525-.78 13.697 1.653 1.613 1.25 3.764-1.129 2.742-2.742M1992.608 155.997c1.991-8.52 15.023-12.91 21.633-6.99 3.942 3.522 9.672-2.1 5.839-5.838-5.487-5.337-12.937-6.272-20.035-3.888-7.45 2.506-11.583 8.44-12.22 16.066-.243 2.764 4.16 3.292 4.783.65" fill="#1d1b19"/><path d="M2074.653 545.933c-2.56 8.36-6.053 17.774-14.226 20.894-15.88-22.28-36.894-57.454-37.2-85.814-.187-17.52 12.893-42.266 37.32-41.053 4.28.213 8.253 2.253 11.866 4.56 42.614 27.147 13.747 63.773 2.24 101.413M1903.12 220.573c-3.44-2.053-6.24-.52-9.827-.12-3.906.454-7.666.227-11.533.454-5.467.32-10.067 4.333-10.067 10.066 0 5.36 4.587 10.214 10.067 10.054 5.707-.16 12.147-2.507 16.787-5.827 2.173-1.56 5.04-3.48 6.426-5.84 1.667-2.853 1.107-7.027-1.853-8.787M2048.538 194.435c8.205 1.774 17.078-.027 24.162-4.483 9.58-6.017-.693-19.76-9.54-12.368-4.442 3.709-9.245 6.23-14.622 8.285-3.75 1.455-4.683 7.552 0 8.566M2186.93 537.349c-4.124 14.09 8.95 24.96 53.327 24.286 18.115-.272 35.771-6.372 51.609-15.164 12.043-6.688 24.072-16.253 26.735-29.771 15.537-78.73-120.602-17.356-131.671 20.649" fill="#f9b3bf"/><path d="M1169.372 171.958c27.275-15.048 23.77-43.123 37.873-66.265 21.082-.7 40.253 34.823 44.794 52.935l-82.667 13.33" fill="#3d678c"/></svg>