<svg xmlns="http://www.w3.org/2000/svg" style="isolation:isolate" viewBox="0 0 600 600" width="800" height="800"><defs><clipPath id="a"><path d="M0 0h600v600H0z"/></clipPath></defs><g clip-path="url(#a)"><clipPath id="b"><path fill="#FFF" d="M0 0h600v600H0z"/></clipPath><g clip-path="url(#b)"><clipPath id="c"><path fill="#FFF" d="M0 0h600v600H0z"/></clipPath><g clip-path="url(#c)"><clipPath id="d"><path fill="#FFF" d="M0 0h600v600H0z"/></clipPath><g clip-path="url(#d)"><path fill="#FAFAFA" d="M0 0h600v600H0z"/></g></g></g><linearGradient id="e" x1=".272" y1=".553" x2=".866" y2=".263" gradientTransform="matrix(-233.15 -656.657 777.787 -276.157 344.969 979.27)" gradientUnits="userSpaceOnUse"><stop offset="0%" stop-color="#c698ef"/><stop offset="98.261%" stop-color="#ffcfff"/></linearGradient><path d="M876.387 267.06l-9.417 157.152-9.417 157.152c-7.295 121.754-100.774 174.339-208.617 117.354L498.244 619.09l-150.692-79.627c-107.844-56.985-107.847-149.522-.009-206.517l173.337-91.612 173.337-91.612c107.838-56.994 189.466-4.417 182.17 117.338z" fill="url(#e)"/><linearGradient id="f" x1=".642" y1=".367" x2=".776" y2=".183" gradientTransform="matrix(734.717 102.086 -92.486 665.621 162.833 97.387)" gradientUnits="userSpaceOnUse"><stop offset="0%" stop-color="#ca9bf0"/><stop offset="96.957%" stop-color="#ce6bbc"/></linearGradient><path d="M619.947 775.293l-165.688-80.376-165.688-80.377c-102.169-49.563-103.126-131.956-2.136-183.879l150.515-77.385 150.515-77.386c100.99-51.923 187.646-2.003 193.392 111.408l6.898 136.156 6.898 136.156c5.746 113.41-72.537 165.246-174.706 115.683z" fill="url(#f)"/><linearGradient id="g" x1=".217" y1=".573" x2=".844" y2=".374" gradientTransform="matrix(-183.091 -472.108 642.76 -249.273 209.528 1017.917)" gradientUnits="userSpaceOnUse"><stop offset="1.304%" stop-color="#9254c8"/><stop offset="100%" stop-color="#f74b8d"/></linearGradient><path d="M654.833 468.116l-9.133 109.09-9.133 109.091c-7.928 94.697-85.788 142.407-173.762 106.476l-122.648-50.094-122.649-50.093c-87.973-35.932-91.556-101.844-7.995-147.098l154.141-83.478 154.141-83.479c83.562-45.254 144.966-5.112 137.038 89.585z" fill="url(#g)"/><linearGradient id="h" x1=".564" y1=".718" x2=".767" y2=".254" gradientTransform="matrix(107.219 0 0 116.139 487.973 162.121)" gradientUnits="userSpaceOnUse"><stop offset="1.304%" stop-color="#cb98ed"/><stop offset="100%" stop-color="#fdcdff"/></linearGradient><path d="M534.943 243.476c-25.923-19.198-22.948-45.218 6.64-58.07 29.587-12.851 50.634 2.735 46.97 34.785-3.664 32.049-27.686 42.483-53.61 23.285z" fill="url(#h)"/><linearGradient id="i" x1=".36" y1=".529" x2=".931" y2=".365" gradientTransform="matrix(77.949 0 0 84.434 388.479 279.774)" gradientUnits="userSpaceOnUse"><stop offset="1.304%" stop-color="#cb98ed"/><stop offset="100%" stop-color="#fdcdff"/></linearGradient><path d="M422.627 338.92c-18.847-13.957-16.684-32.874 4.827-42.217 21.51-9.343 36.811 1.988 34.147 25.288-2.664 23.301-20.127 30.886-38.974 16.929z" fill="url(#i)"/><linearGradient id="j" x1=".497" y1=".368" x2=".817" y2=".719" gradientTransform="matrix(-57.344 5.842 -6.328 -62.115 473.569 449.608)" gradientUnits="userSpaceOnUse"><stop offset="1.304%" stop-color="#cb98ed"/><stop offset="100%" stop-color="#fdcdff"/></linearGradient><path d="M444.016 408.656c14.91 8.856 14.737 22.934-.387 31.42-15.125 8.485-27.23 1.296-27.017-16.045.214-17.341 12.493-24.23 27.404-15.375z" fill="url(#j)"/><linearGradient id="k" x1=".497" y1=".368" x2=".817" y2=".719" gradientTransform="matrix(-52.234 5.321 -5.764 -56.58 555.016 369.043)" gradientUnits="userSpaceOnUse"><stop offset="1.304%" stop-color="#cb98ed"/><stop offset="100%" stop-color="#fdcdff"/></linearGradient><path d="M528.096 331.741c13.582 8.066 13.424 20.89-.352 28.619-13.777 7.729-24.804 1.181-24.609-14.615.194-15.795 11.379-22.07 24.961-14.004z" fill="url(#k)"/><linearGradient id="l" x1=".497" y1=".368" x2=".817" y2=".719" gradientTransform="matrix(-56.643 5.77 -6.251 -61.356 591.474 449.298)" gradientUnits="userSpaceOnUse"><stop offset="1.304%" stop-color="#cb98ed"/><stop offset="100%" stop-color="#fdcdff"/></linearGradient><path d="M562.281 408.847c14.728 8.747 14.557 22.653-.382 31.035-14.94 8.382-26.897 1.28-26.687-15.849.211-17.129 12.34-23.933 27.069-15.186z" fill="url(#l)"/></g></svg>