<svg xmlns="http://www.w3.org/2000/svg" style="isolation:isolate" viewBox="0 0 600 600" width="800" height="800"><defs><clipPath id="a"><path d="M0 0h600v600H0z"/></clipPath></defs><g clip-path="url(#a)"><clipPath id="b"><path fill="#FFF" d="M0 0h600v600H0z"/></clipPath><g clip-path="url(#b)"><clipPath id="c"><path fill="#FFF" d="M0 0h600v600H0z"/></clipPath><g clip-path="url(#c)"><clipPath id="d"><path fill="#FFF" d="M0 0h600v600H0z"/></clipPath><g clip-path="url(#d)"><path fill="#FAFAFA" d="M0 0h600v600H0z"/></g></g></g><linearGradient id="e" x1=".272" y1=".553" x2=".866" y2=".263" gradientTransform="matrix(-233.15 -656.657 810.993 -287.947 326.914 969.848)" gradientUnits="userSpaceOnUse"><stop offset="0%" stop-color="#c698ef"/><stop offset="98.261%" stop-color="#ffcfff"/></linearGradient><path d="M887.827 250.276L876.178 405.11l-11.649 154.834c-9.344 124.199-107.3 179.665-218.611 123.786l-155.069-77.846-155.069-77.847c-111.311-55.879-112.006-147.971-1.55-205.523l185.198-96.497 185.198-96.496c110.456-57.553 192.545-3.444 183.201 120.755z" fill="url(#e)"/><linearGradient id="f" x1=".642" y1=".367" x2=".776" y2=".183" gradientTransform="matrix(758.313 105.365 -92.486 665.621 145.472 84.113)" gradientUnits="userSpaceOnUse"><stop offset="0%" stop-color="#ca9bf0"/><stop offset="96.957%" stop-color="#ce6bbc"/></linearGradient><path d="M622.406 765.594l-173.71-82.312-173.71-82.311c-104.253-49.4-104.972-131.095-1.604-182.322l155.964-77.291 155.963-77.292c103.368-51.226 192.582.697 199.1 115.877l7.54 133.232 7.54 133.232c6.518 115.181-72.83 168.586-177.083 119.187z" fill="url(#f)"/><linearGradient id="g" x1=".217" y1=".573" x2=".844" y2=".374" gradientTransform="matrix(-195.825 -504.942 621.089 -240.868 209.885 1043.438)" gradientUnits="userSpaceOnUse"><stop offset="1.304%" stop-color="#9254c8"/><stop offset="100%" stop-color="#f74b8d"/></linearGradient><path d="M627.309 472.49l-5.412 120.72-5.413 120.72c-4.327 96.509-78.851 141.562-166.317 100.544l-121.876-57.153-121.876-57.154c-87.466-41.017-90.015-112.585-5.687-159.72l140.815-78.709 140.815-78.708c84.328-47.135 149.278-7.049 144.951 89.46z" fill="url(#g)"/></g></svg>