<svg xmlns="http://www.w3.org/2000/svg" style="isolation:isolate" viewBox="0 0 600 600" width="800" height="800"><defs><clipPath id="a"><path d="M0 0h600v600H0z"/></clipPath></defs><g clip-path="url(#a)"><clipPath id="b"><path fill="#FFF" d="M0 0h600v600H0z"/></clipPath><g clip-path="url(#b)"><clipPath id="c"><path fill="#FFF" d="M0 0h600v600H0z"/></clipPath><g clip-path="url(#c)"><clipPath id="d"><path fill="#FFF" d="M0 0h600v600H0z"/></clipPath><g clip-path="url(#d)"><path fill="#FAFAFA" d="M0 0h600v600H0z"/></g></g></g><linearGradient id="e" x1=".272" y1=".553" x2=".866" y2=".263" gradientTransform="matrix(-233.15 -656.657 777.787 -276.157 378.302 985.331)" gradientUnits="userSpaceOnUse"><stop offset="0%" stop-color="#c698ef"/><stop offset="98.261%" stop-color="#ffcfff"/></linearGradient><path d="M909.72 273.12l-9.417 157.152-9.416 157.152c-7.296 121.755-100.774 174.34-208.617 117.354l-150.693-79.627-150.692-79.627c-107.843-56.986-107.847-149.523-.009-206.517l173.337-91.612 173.337-91.612c107.838-56.995 189.466-4.417 182.17 117.337z" fill="url(#e)"/><linearGradient id="f" x1=".642" y1=".367" x2=".776" y2=".183" gradientTransform="matrix(695.497 96.637 -92.486 665.621 211.318 101.932)" gradientUnits="userSpaceOnUse"><stop offset="0%" stop-color="#ca9bf0"/><stop offset="96.957%" stop-color="#ce6bbc"/></linearGradient><path d="M635.684 773.867l-152.55-77.13-152.549-77.129c-98.597-49.851-99.968-133.402-3.06-186.461l141.693-77.579 141.692-77.58c96.909-53.059 179.242-6.513 183.745 103.879l5.758 141.154 5.758 141.154c4.503 110.392-71.89 159.543-170.487 109.692z" fill="url(#f)"/><linearGradient id="g" x1=".217" y1=".573" x2=".844" y2=".374" gradientTransform="matrix(-183.091 -472.108 580.702 -225.205 250.271 1027.775)" gradientUnits="userSpaceOnUse"><stop offset="1.304%" stop-color="#9254c8"/><stop offset="100%" stop-color="#f74b8d"/></linearGradient><path d="M640.552 493.954l-5.06 112.87-5.06 112.87c-4.046 90.233-73.724 132.356-155.503 94.006l-113.951-53.437-113.951-53.437c-81.778-38.35-84.161-105.265-5.317-149.334l131.658-73.591 131.659-73.59c78.844-44.07 139.571-6.591 135.525 83.643z" fill="url(#g)"/><linearGradient id="h" x1=".564" y1=".718" x2=".767" y2=".254" gradientTransform="matrix(128.271 0 0 138.943 476.264 326.183)" gradientUnits="userSpaceOnUse"><stop offset="1.304%" stop-color="#cb98ed"/><stop offset="100%" stop-color="#fdcdff"/></linearGradient><path d="M532.457 423.511c-31.014-22.967-27.455-54.097 7.943-69.471 35.397-15.375 60.576 3.272 56.193 41.614-4.384 38.342-33.122 50.825-64.136 27.857z" fill="url(#h)"/><linearGradient id="i" x1=".36" y1=".529" x2=".931" y2=".365" gradientTransform="matrix(77.949 0 0 84.434 335.015 369.168)" gradientUnits="userSpaceOnUse"><stop offset="1.304%" stop-color="#cb98ed"/><stop offset="100%" stop-color="#fdcdff"/></linearGradient><path d="M369.163 428.314c-18.847-13.957-16.684-32.874 4.827-42.217 21.51-9.343 36.811 1.988 34.147 25.288-2.664 23.301-20.128 30.886-38.974 16.929z" fill="url(#i)"/><linearGradient id="j" x1=".497" y1=".368" x2=".817" y2=".719" gradientTransform="matrix(-74.376 7.577 -8.207 -80.564 360.938 557.636)" gradientUnits="userSpaceOnUse"><stop offset="1.304%" stop-color="#cb98ed"/><stop offset="100%" stop-color="#fdcdff"/></linearGradient><path d="M322.606 504.52c19.339 11.486 19.115 29.746-.502 40.752-19.617 11.006-35.318 1.681-35.041-20.81.277-22.492 16.203-31.427 35.543-19.942z" fill="url(#j)"/></g></svg>