<svg xmlns="http://www.w3.org/2000/svg" style="isolation:isolate" viewBox="0 0 600 600" width="800" height="800"><defs><clipPath id="a"><path d="M0 0h600v600H0z"/></clipPath></defs><g clip-path="url(#a)"><clipPath id="b"><path fill="#FFF" d="M0 0h600v600H0z"/></clipPath><g clip-path="url(#b)"><clipPath id="c"><path fill="#FFF" d="M0 0h600v600H0z"/></clipPath><g clip-path="url(#c)"><clipPath id="d"><path fill="#FFF" d="M0 0h600v600H0z"/></clipPath><g clip-path="url(#d)"><path fill="#FAFAFA" d="M0 0h600v600H0z"/></g></g></g><linearGradient id="e" x1=".272" y1=".553" x2=".866" y2=".263" gradientTransform="matrix(-233.15 -656.657 777.787 -276.157 378.302 1023.21)" gradientUnits="userSpaceOnUse"><stop offset="0%" stop-color="#c698ef"/><stop offset="98.261%" stop-color="#ffcfff"/></linearGradient><path d="M909.72 310.999l-9.417 157.152-9.416 157.152c-7.296 121.755-100.774 174.339-208.617 117.354L531.577 663.03l-150.692-79.627c-107.843-56.986-107.847-149.523-.009-206.518l173.337-91.611 173.337-91.612c107.838-56.995 189.466-4.418 182.17 117.337z" fill="url(#e)"/><linearGradient id="f" x1=".642" y1=".367" x2=".776" y2=".183" gradientTransform="matrix(695.497 96.637 -92.486 665.621 191.621 145.872)" gradientUnits="userSpaceOnUse"><stop offset="0%" stop-color="#ca9bf0"/><stop offset="96.957%" stop-color="#ce6bbc"/></linearGradient><path d="M615.987 817.806l-152.55-77.129-152.549-77.13c-98.597-49.851-99.968-133.401-3.06-186.461l141.693-77.579 141.692-77.579c96.909-53.06 179.242-6.513 183.745 103.878l5.758 141.154 5.758 141.155c4.503 110.391-71.89 159.542-170.487 109.691z" fill="url(#f)"/><linearGradient id="g" x1=".217" y1=".573" x2=".844" y2=".374" gradientTransform="matrix(-183.091 -472.108 580.702 -225.205 245.726 1065.654)" gradientUnits="userSpaceOnUse"><stop offset="1.304%" stop-color="#9254c8"/><stop offset="100%" stop-color="#f74b8d"/></linearGradient><path d="M636.007 531.833l-5.061 112.87-5.06 112.869c-4.045 90.234-73.724 132.357-155.503 94.007l-113.95-53.437-113.951-53.437c-81.779-38.35-84.162-105.265-5.318-149.335l131.659-73.59 131.659-73.591c78.844-44.069 139.57-6.59 135.525 83.644z" fill="url(#g)"/></g></svg>