<svg width="25" height="25" fill="none" xmlns="http://www.w3.org/2000/svg"><path d="M13.542 18.75a1.042 1.042 0 11-2.084 0 1.042 1.042 0 012.084 0z" fill="#212121"/><path d="M12.5 25C5.607 25 0 19.393 0 12.5S5.607 0 12.5 0 25 5.607 25 12.5 19.393 25 12.5 25zm0-23.438C6.469 1.563 1.562 6.47 1.562 12.5c0 6.031 4.907 10.938 10.938 10.938 6.031 0 10.938-4.907 10.938-10.938 0-6.031-4.907-10.938-10.938-10.938z" fill="#212121"/><path d="M12.5 15.365a.782.782 0 01-.781-.782v-1.052c0-.991.629-1.88 1.564-2.21 1.245-.439 2.082-1.765 2.082-2.727A2.867 2.867 0 0012.5 5.729a2.867 2.867 0 00-2.865 2.865.782.782 0 01-1.562 0A4.432 4.432 0 0112.5 4.167a4.432 4.432 0 014.427 4.427c0 1.737-1.372 3.582-3.124 4.2a.782.782 0 00-.522.738v1.051c0 .432-.35.782-.781.782z" fill="#212121"/></svg>