<svg xmlns="http://www.w3.org/2000/svg" width="70" height="70" style="width:100%;height:100%"><g class="base"><g fill="none" class="main-fill"><path d="M26.728 32.827a5.698 5.698 0 0 0-3.775 1.43c1.023-3.294 3.112-6.228 5.643-7.605a.636.636 0 1 0-.609-1.117c-3.983 2.166-6.986 7.764-6.986 13.019a5.734 5.734 0 0 0 5.727 5.727 5.734 5.734 0 0 0 5.727-5.727 5.734 5.734 0 0 0-5.727-5.727zm15.91 0a5.698 5.698 0 0 0-3.775 1.43c1.022-3.294 3.112-6.228 5.642-7.605a.636.636 0 1 0-.608-1.117c-3.984 2.166-6.987 7.764-6.987 13.019a5.733 5.733 0 0 0 5.728 5.727 5.733 5.733 0 0 0 5.727-5.727 5.734 5.734 0 0 0-5.727-5.727z" class="main-fill"/></g></g><style>.main-fill{fill:#21b4b7}</style></svg>