<svg width="70" height="40" fill="none" xmlns="http://www.w3.org/2000/svg"><path fill-rule="evenodd" clip-rule="evenodd" d="M35 0c-6.443 0-11.667 5.223-11.667 11.667 0 3.892 2.07 7.047 5 9.166C20.181 23.547 14.167 31.25 14.167 40h41.666c0-8.75-6.014-16.453-14.166-19.167 2.93-2.12 5-5.274 5-9.166C46.667 5.223 41.443 0 35 0zM18.333 1.667c-5.67 0-10 4.362-10 10 0 3.405 1.59 6.478 4.167 8.333C5.326 22.374 0 29.01 0 36.667h11.094c1.075-7.146 5.53-13.292 11.666-16.875-1.646-2.288-2.76-5.005-2.76-8.125 0-3.318 1.099-6.389 2.943-8.88a10.171 10.171 0 00-4.61-1.12zm33.334 0c-1.645 0-3.224.413-4.61 1.12A14.887 14.887 0 0150 11.666c0 3.12-1.114 5.837-2.76 8.125 6.136 3.583 10.591 9.73 11.666 16.875H70C70 29.01 64.674 22.374 57.5 20c2.578-1.855 4.167-4.928 4.167-8.333 0-5.638-4.33-10-10-10z" fill="#fff"/></svg>