<svg width="70" height="70" fill="none" xmlns="http://www.w3.org/2000/svg"><path d="M18.2 44.8c5.404 0 9.8-4.397 9.8-9.8 0-5.404-4.396-9.8-9.8-9.8-5.404 0-9.8 4.396-9.8 9.8 0 5.403 4.396 9.8 9.8 9.8z" fill="#fff"/><path d="M32.735 42c-.499 0-.962.266-1.211.699C28.77 47.449 23.666 50.4 18.2 50.4S7.629 47.449 4.878 42.699a1.399 1.399 0 00-2.422 0A18.17 18.17 0 000 51.8v16.8A1.4 1.4 0 001.4 70H35a1.4 1.4 0 001.4-1.4V51.8c0-3.18-.848-6.33-2.454-9.101A1.399 1.399 0 0032.735 42zM68.6 0H32.2a1.4 1.4 0 00-1.4 1.4v22.4a1.4 1.4 0 001.4 1.4h7v7a1.402 1.402 0 002.24 1.12l10.826-8.12H68.6a1.4 1.4 0 001.4-1.4V1.4A1.4 1.4 0 0068.6 0zM46.2 14h-2.8a1.4 1.4 0 110-2.8h2.8a1.4 1.4 0 110 2.8zm11.2 0h-2.8a1.4 1.4 0 110-2.8h2.8a1.4 1.4 0 110 2.8z" fill="#fff"/></svg>