<svg xmlns="http://www.w3.org/2000/svg" style="isolation:isolate" width="2266.667" height="1693.333"><defs><clipPath id="a"><path d="M0 0h2266.667v1693.333H0z"/></clipPath></defs><g clip-path="url(#a)"><path d="M1107.413 1617.333c-209.88 0-420.126-9.96-630.014-19.066-93.219-4.04-250.648-6.881-280.158-123.84-13.445-53.294 18.208-110.24 63.799-140.934 29.676-19.972 62.596-30.629 96.843-36.652l-6.603 95.239-32.483 136.72 12.443 8.52 11.491-2.213 59.234-131.774 27.923-70c2.327.267 4.657.507 6.988.747l17.196 67.64.632 138.24 14.315 4.747 10.426-5.32 20.483-143.014 11.06-110.885.629-.047c14.478-1.074 29.095-2.625 43.591-4.91v164.109h1113.005c56.267 0 101.867-45.6 101.867-101.853v-172.652l3.04-.664 10.84 65.041 13.56 176.395h21.493l32.694-223.732 14.56 47.337-11.76 158.755 23.053 4.6 53.387-192.754-1.8-57.088-2.28-12.218v-.004l31.266-6.846-41.16-194.029-41.16-105.835-82.32-11.758-23.413 31.221v-84.855a1518.088 1518.088 0 0 1 45.467 7.628c40.44 7.427 81.28 16.843 116.893 37.379 35.627 20.536 65.8 53.856 73.707 94.205 2.706 13.859 2.72 28.406-1.347 41.93-10.107 33.574-43.347 56.264-53.56 89.806-14.667 48.156 20.013 80.075 62.547 85.039 35.506 4.144 85.96 31.169 65.92 76.58-7.44 16.863-25.574 26.325-43.267 31.477-17.693 5.152-36.467 7.414-52.787 15.974-21.12 11.084-36.333 32.774-39.56 56.416-8.826 64.812 52.174 82.038 98.907 101.852 26.693 11.306 53.76 32.92 53.653 61.906-.173 41.627-51.493 60.2-92.506 67.32-89.6 15.574-179.08 32.28-269.08 45.52-208.56 30.667-417.927 40.6-627.654 40.6zm181.89-110.466c-4.416 0-8.832 1.68-12.194 5.04a17.117 17.117 0 0 0-5.05 12.186c0 4.614 1.793 8.947 5.05 12.2a17.145 17.145 0 0 0 12.194 5.054c4.606 0 8.936-1.8 12.192-5.054a17.125 17.125 0 0 0 5.05-12.2c0-4.6-1.793-8.933-5.05-12.186a17.192 17.192 0 0 0-12.192-5.04zm-85.134 0c-4.416 0-8.832 1.68-12.193 5.04a17.122 17.122 0 0 0-5.051 12.186 17.13 17.13 0 0 0 5.051 12.2 17.148 17.148 0 0 0 12.193 5.054c4.606 0 8.936-1.8 12.192-5.054a17.123 17.123 0 0 0 5.052-12.2c0-4.6-1.794-8.933-5.052-12.186a17.19 17.19 0 0 0-12.192-5.04zm-85.133 0a17.19 17.19 0 0 0-12.192 5.04 17.118 17.118 0 0 0-5.051 12.186c0 4.614 1.794 8.947 5.051 12.2a17.144 17.144 0 0 0 12.193 5.054c4.606 0 8.935-1.8 12.192-5.054a17.13 17.13 0 0 0 5.051-12.2c0-4.6-1.795-8.933-5.051-12.186a17.193 17.193 0 0 0-12.193-5.04zm-85.133 0a17.2 17.2 0 0 0-12.194 5.04 17.121 17.121 0 0 0-5.05 12.186 17.13 17.13 0 0 0 5.05 12.2 17.148 17.148 0 0 0 12.194 5.054c4.606 0 8.936-1.8 12.193-5.054a17.126 17.126 0 0 0 5.051-12.2c0-4.6-1.794-8.933-5.051-12.186a17.193 17.193 0 0 0-12.193-5.04zm255.4 31.266c-3.75 0-7.276-1.453-9.927-4.106a13.948 13.948 0 0 1-4.112-9.934 13.94 13.94 0 0 1 4.112-9.92 14.013 14.013 0 0 1 9.927-4.106c3.594 0 7.189 1.373 9.926 4.106a13.944 13.944 0 0 1 4.112 9.92c0 3.76-1.461 7.28-4.112 9.934a13.936 13.936 0 0 1-9.926 4.106zm-85.134 0c-3.75 0-7.274-1.453-9.928-4.106a13.958 13.958 0 0 1-4.109-9.934 13.94 13.94 0 0 1 4.112-9.92 14.006 14.006 0 0 1 9.925-4.106c3.595 0 7.19 1.373 9.927 4.106a13.94 13.94 0 0 1 4.112 9.92c0 3.76-1.46 7.28-4.112 9.934a13.934 13.934 0 0 1-9.927 4.106m-85.132 0c-3.75 0-7.276-1.453-9.928-4.106a13.957 13.957 0 0 1-4.112-9.934c0-3.746 1.462-7.266 4.112-9.92a14.015 14.015 0 0 1 9.928-4.106 14.01 14.01 0 0 1 9.926 4.106 13.94 13.94 0 0 1 4.112 9.92c0 3.76-1.46 7.28-4.112 9.934a13.937 13.937 0 0 1-9.926 4.106zm-85.134 0c-3.75 0-7.275-1.453-9.927-4.106a13.953 13.953 0 0 1-4.112-9.934c0-3.746 1.461-7.266 4.112-9.92a14.013 14.013 0 0 1 9.927-4.106 14.01 14.01 0 0 1 9.926 4.106 13.94 13.94 0 0 1 4.112 9.92c0 3.76-1.46 7.28-4.112 9.934a13.93 13.93 0 0 1-9.926 4.106zm-478.695-424.062c-46.243-13.444-91.976-27.656-126.149-61.818-49.26-49.246-37.45-119.49 1.954-171.649 31.204-41.303 75.664-70.883 124.195-89.599v66.355h-37.752v200.353h37.752v56.358" fill="#F7F6F6"/><path d="M1378.333 370.443l13.027 2.841 9.8-6.508 2.427 1.375-1.574 3.064 9.68-3.074 7.64 3.088 2.574 10.659-4.68 10.32-10.854 1.427-12.026-4.99-18.014-3.116 2-15.086z" fill="#EACDB0"/><path d="M1391.907 364.869l-112.81-66.122-54.43-112.6-42.128 49.253 58.032 129.78 146.029 25.152 5.307-25.463z" fill="#E89F40"/><path d="M1855.44 1397v11.627l23.24 11.613 11.613-11.613L1878.68 1397l-23.24-11.613V1397z" fill="#A16652"/><path d="M1866.267 1087.52l-47.254 323.387h-21.493l-13.56-176.395-29.4-176.391 111.707 29.399" fill="#2E4661"/><path d="M1819.24 1046.361v35.278l47.027 152.873-11.76 158.755 23.053 4.6 53.387-192.754-1.8-57.088-21.72-116.426-88.187 14.762z" fill="#2E4661"/><path d="M453.876 1536.427c.173-1.134.657-2.44 1.421-3.987 2.035-4.107 4.123-8.627 6.892-12.307 2.498-3.306 7.499-2.493 11.228-2.013 5.782.773 11.562 1.533 17.344 2.293.267.04.546.08.762.24.577.44.309 1.347-.014 2-3.061 6.174-6.121 12.36-9.182 18.534-.571 1.16-1.178 2.36-2.214 3.12-1.198.88-2.77 1.026-4.257 1.066-5.869.174-11.793-.84-17.255-3-3.73-1.466-5.145-3.2-4.725-5.946" fill="#272525"/><path d="M419.148 1264.352l34.924 137.368.632 138.24 14.315 4.747 10.426-5.32 20.483-143.014 14.024-140.61-94.804 8.589" fill="#CAB5A1"/><path d="M317.549 1530.147c.48-1.04 1.308-2.16 2.468-3.44 3.09-3.374 6.351-7.147 10.026-9.907 3.316-2.493 7.898-.347 11.346 1.16l16.035 7c.247.107.504.227.665.44.435.587-.074 1.373-.562 1.907-4.652 5.106-9.303 10.2-13.955 15.293-.867.947-1.78 1.92-2.985 2.373-1.396.507-2.948.227-4.391-.146-5.687-1.454-11.099-4.067-15.751-7.654-3.177-2.453-4.06-4.493-2.896-7.026" fill="#272525"/><path d="M360.845 1254.12l-9.565 137.96-32.483 136.72 12.443 8.52 11.491-2.213 59.234-131.774 52.362-131.25-93.482-17.963" fill="#CAB5A1"/><path d="M436.876 1334.08c-2.331-.24-4.661-.48-6.988-.747l4.152-10.402 2.836 11.149z" fill="#E8E7E7"/><path d="M483.683 1337.147c-12.884 0-29.782-1.294-46.807-3.067l-2.836-11.149 2.236-5.604 72.004-7.071-2.581 23.357c-2.539 2.534-10.739 3.534-22.016 3.534" fill="#BEAB98"/><path d="M429.888 1333.333c-33.868-3.734-66.161-8.881-66.161-8.881l72.549-7.125-2.236 5.604-4.152 10.402z" fill="#BEAB98"/><path d="M1135.231 181.627c8.108-1.774 16.216-3.547 24.322-5.334a124.503 124.503 0 0 0-3.642-19.493c6.554-3.213 14.032-7.747 14.384-15.04.11-2.293-.55-4.547-1.204-6.747-2.699-9.106-5.398-18.226-8.099-27.333-.933-3.147-1.913-6.4-3.987-8.947-3.638-4.466-9.844-5.893-15.601-6.2-14.695-.813-30.02 4.147-40.077 14.894-2.678 2.866-5.011 6.2-5.89 10.013-1.356 5.88.887 11.933 3.091 17.56l6.107 15.56c2.34 5.973 5.497 12.707 11.702 14.32 3.295.853 6.972.053 10.039 1.533 5.407 2.614 5.608 10.174 8.855 15.214" fill="#EACDB0"/><path d="M1041.217 98.653c-1.688-2.16-3.474-4.213-5.426-6.12-4.228-4.12-9.236-7.48-12.802-12.186-3.565-4.707-5.416-11.44-2.397-16.507 1.948-3.28 5.505-5.213 9.009-6.707 11.544-4.92 24.423-6.68 36.866-5.026 11.849 1.573 22.718 5.213 33.792-.467 10.406-5.347 18.461-4.613 30.312-1.893 12.825 2.946 29.469 2.04 41.341 6.933 4.956 2.04 9.144 5.653 12.563 9.773 11.845 14.307 14.41 35.654 6.29 52.36-1.821 3.747-4.117 7.254-6.565 10.627-5.065 6.973-11.099 15.573-18.812 18.84-1.029-7.12 2.831-30.413-3.345-35.627-9.802-8.28-29.112-2.72-39.648.84-11.491 3.88-21.015 13.467-32.49 16.614-8.256 2.28-19.47-.587-27.13-4.094-9.454-4.333-15.399-19.493-21.558-27.36" fill="#3A3029"/><path d="M1668.213 1444.64H555.208V549.963H1770.08v792.824c0 56.253-45.6 101.853-101.867 101.853" fill="#E4E5E8"/><path d="M1597.747 1092.561H732.356v-34.848h650.497V892.208h214.894v200.353z" fill="#D7D7DA"/><path d="M1033.903 1541.347c-4.607 0-8.936-1.8-12.194-5.054a17.13 17.13 0 0 1-5.05-12.2c0-4.6 1.794-8.933 5.05-12.186a17.2 17.2 0 0 1 12.194-5.04c4.416 0 8.832 1.68 12.193 5.04a17.118 17.118 0 0 1 5.051 12.186c0 4.614-1.794 8.947-5.051 12.2a17.146 17.146 0 0 1-12.193 5.054zm0-31.28c-3.595 0-7.19 1.373-9.927 4.106a13.944 13.944 0 0 0-4.112 9.92c0 3.76 1.461 7.28 4.112 9.934a13.936 13.936 0 0 0 9.927 4.106 13.93 13.93 0 0 0 9.926-4.106 13.948 13.948 0 0 0 4.112-9.934 13.94 13.94 0 0 0-4.112-9.92 14.01 14.01 0 0 0-9.926-4.106zM1119.037 1541.347c-4.606 0-8.937-1.8-12.193-5.054a17.126 17.126 0 0 1-5.051-12.2c0-4.6 1.794-8.933 5.051-12.186a17.19 17.19 0 0 1 12.192-5.04c4.416 0 8.832 1.68 12.193 5.04a17.122 17.122 0 0 1 5.051 12.186 17.13 17.13 0 0 1-5.051 12.2 17.144 17.144 0 0 1-12.192 5.054zm0-31.28c-3.596 0-7.19 1.373-9.928 4.106a13.948 13.948 0 0 0-4.112 9.92c0 3.76 1.462 7.28 4.112 9.934a13.938 13.938 0 0 0 9.928 4.106c3.748 0 7.274-1.453 9.926-4.106a13.948 13.948 0 0 0 4.112-9.934 13.94 13.94 0 0 0-4.112-9.92 14.01 14.01 0 0 0-9.926-4.106zM1204.169 1541.347c-4.605 0-8.936-1.8-12.193-5.054a17.13 17.13 0 0 1-5.051-12.2c0-4.6 1.795-8.933 5.051-12.186a17.193 17.193 0 0 1 12.193-5.04 17.19 17.19 0 0 1 12.192 5.04 17.115 17.115 0 0 1 5.052 12.186c0 4.614-1.794 8.947-5.052 12.2a17.142 17.142 0 0 1-12.192 5.054zm0-31.28c-3.594 0-7.19 1.373-9.925 4.106a13.94 13.94 0 0 0-4.112 9.92c0 3.76 1.46 7.28 4.109 9.934a13.942 13.942 0 0 0 9.928 4.106c3.751 0 7.275-1.453 9.927-4.106a13.948 13.948 0 0 0 4.112-9.934 13.94 13.94 0 0 0-4.112-9.92 14.013 14.013 0 0 0-9.927-4.106M1289.303 1541.347c-4.607 0-8.938-1.8-12.194-5.054a17.125 17.125 0 0 1-5.05-12.2c0-4.6 1.793-8.933 5.05-12.186a17.197 17.197 0 0 1 12.194-5.04c4.416 0 8.83 1.68 12.192 5.04a17.117 17.117 0 0 1 5.05 12.186c0 4.614-1.793 8.947-5.05 12.2a17.142 17.142 0 0 1-12.192 5.054zm0-31.28c-3.595 0-7.19 1.373-9.927 4.106a13.94 13.94 0 0 0-4.112 9.92c0 3.76 1.46 7.28 4.112 9.934a13.934 13.934 0 0 0 9.927 4.106c3.749 0 7.274-1.453 9.926-4.106a13.953 13.953 0 0 0 4.112-9.934c0-3.746-1.461-7.266-4.112-9.92a14.012 14.012 0 0 0-9.926-4.106z" fill="#CBCACB"/><path d="M1609.053 801.879H743.656V601.527h372.68l8.228 65.688 27.749-1.306 9.404-64.382h37.468l4.731 60.856h25.679l14.998-60.856h364.46v200.352z" fill="#D7D7DA"/><path d="M753.932 1358.36h865.388v-200.356H753.932v200.356z" fill="#FFFFF3"/><path d="M940.281 1256.963c0 32.334-26.212 58.548-58.546 58.548-32.335 0-58.547-26.214-58.547-58.548 0-32.335 26.212-58.547 58.547-58.547 32.334 0 58.546 26.212 58.546 58.547z" fill="#F2D042"/><path d="M1003.167 1237.015H1571v-22.923h-567.833v22.923zM1003.167 1299.832H1571v-22.92h-567.833v22.92z" fill="#DBDBD2"/><path d="M559.815 547.584h1214.878v-49.456H559.815v49.456z" fill="#8F979B"/><path d="M1840.267 597.268H1560.32c-1.373 0-2.48-1.207-2.48-2.693V325.72c0-1.493 1.107-2.693 2.48-2.693h354.387c1.373 0 2.48 1.2 2.48 2.693v187.741c0 46.286-34.44 83.807-76.92 83.807" fill="#84A599"/><path d="M1701.893 585.568l-1.306 87.211c-.04 2.766-3.587 3.873-5.187 1.62l-68.48-96.068c-1.4-1.964.107-4.674 2.507-4.523l70.88 4.429c1.84.116 3.093 1.916 2.573 3.683l-.867 2.868c-.08.253-.12.516-.12.78z" fill="#84A599"/><path d="M1870.773 377.091h-220.746v-9.199h220.746v9.199zM1870.773 447.225H1607.48v-9.197h263.293v9.197zM1870.773 517.36H1607.48v-9.199h263.293v9.199z" fill="#FFFFF3"/><path d="M1875.813 829.093l41.16 105.835 41.16 194.029-191.96 42.034-25.306-36.266-.294-246.834 52.92-70.556 82.32 11.758z" fill="#A16652"/><path d="M1811.133 808.452l-5.88 17.639 47.04 11.76 5.88-29.399h-47.04z" fill="#A16652"/><path d="M1927.2 881.06l32.867-38.221 22.573 14.981-39.8 41.125-15.64-17.885" fill="#27342A"/><path d="M1930.253 880.716l30.494-33.293 16.84 11.169-34.187 36.289-13.147-14.165" fill="#FCFBF1"/><path d="M1941.413 923.639c4-6.699 8.4-8.235 12.6-12.352 2.934-2.883 8.587-26.071 3.36-27.475-1.226.656-1.146 2.395-1.626 3.697-.56 1.547-2.067 2.584-3.627 3.099-1.56.516-3.227.603-4.867.849-7.04 1.063-15.693 14.191-15.533 21.278 6.987 5.441 2.707 5.464 9.693 10.904" fill="#EACDB0"/><path d="M1891 973.52l58.813-58.116-16.546-8.473-45.934 20.352-64-49.395s-57.666 7.908-22.626 49.263L1891 973.52z" fill="#A86D5C"/><path d="M1805.2 800.353c-2.64-4.513-3.36-9.948-2.987-15.165.814-11.196 7.107-22.38 17.36-26.956 15.76-7.039 34.667 2.868 51.2-2.099 1.894 6.528 3.76 13.163 3.854 19.962.2 14.512-8.44 28.794-21.387 35.35-12.947 6.558-29.573 5.07-41.147-3.681-2.706-2.047-5.173-4.483-6.893-7.411" fill="#F2E7DA"/><path d="M1867.147 756.133l-57.654 6.254-1.026 45.377-18.747-8.928-7.987-72.027 78.254-13.574 42.68 26.349-25.907 27.703-9.613-11.154z" fill="#E3C85A"/><path d="M1802.96 754.865l3.373-41.63 10.814-6.962 34.986 8.324-11.253 1.954h-23.733l-9.534 38.745c5.48 2.037 9.534 9.305 9.534 17.96 0 10.235-5.667 18.532-12.654 18.532-6.986 0-12.653-8.297-12.653-18.532 0-9.473 4.853-17.283 11.12-18.391z" fill="#7C2B4A"/><path d="M545.635 938.075c.086-.192.174-.403.12-.606-.074-.277-.375-.418-.644-.522l-7.056-2.752c-.336-.13-.692-.263-1.046-.198-.405.075-.716.39-.994.692a58.12 58.12 0 0 0-5.388 6.788 35.562 35.562 0 0 0-7.146-2.153l-10.956 30.137 12.255.031c.531.001 1.085-.003 1.556-.245.555-.287.899-.852 1.216-1.391 5.884-10.029 13.193-18.592 18.083-29.781" fill="#EBCEB1"/><path d="M422.519 1071.429l47.74 12.911 67.521-125.199-21.089-11.116-65.574 68.158-29.906-29.942-35.167 46.147 36.475 39.041" fill="#AECCDC"/><path d="M453.633 954.375c7.727 7.242 12.203 26.485 16.04 35.221 23.771 53.996 44.16 109.4 63.739 165.029 9.812 27.884 19.416 55.84 29.141 83.754 1.788 5.133 21.514 66.837 22.884 66.673-92.616 11.105-163.925 26.343-256.456 16.837-10.705-1.121-11.114-66.529-11.72-74.914-3.001-41.603-3.438-83.532 1.531-125.004 3.708-30.948 10.465-61.618 21.167-90.923 8.412-23.035 21.461-64.117 45.316-75.757 12.781-6.238 53.796-10.082 66.31-2.491.707.428 1.388.957 2.048 1.575" fill="#AECCDC"/><path d="M495.591 910.813c-6.188 14.218-17.827 25.215-29.164 35.795-27.13 25.316-54.26 50.635-81.392 75.951-1.171 1.092-2.375 2.206-3.854 2.822-2.542 1.059-5.434.479-8.124-.117l-85.365-18.909a810.074 810.074 0 0 1 44.295-90.067c11.978-20.967 25.404-41.948 45.069-55.961 19.557-13.939 63.916-31.519 88.129-24.67 29.58 8.367 41.636 49.36 30.406 75.156" fill="#F2D042"/><path d="M517.456 1057.713h865.397V857.36H517.456v200.353z" fill="#FFFFF3"/><path d="M709.901 957.536c0 32.335-26.213 58.548-58.548 58.548-32.334 0-58.546-26.213-58.546-58.548s26.212-58.547 58.546-58.547c32.335 0 58.548 26.212 58.548 58.547z" fill="#6CAF92"/><path d="M768.305 941.588h567.828v-22.92H768.305v22.92zM768.305 1004.408h567.828v-22.922H768.305v22.922z" fill="#DBDBD2"/><path d="M611.148 990.204c.129-.165.267-.348.261-.559-.005-.286-.265-.496-.5-.661l-6.201-4.351c-.293-.208-.608-.421-.967-.441-.41-.025-.788.208-1.13.435a58.274 58.274 0 0 0-6.85 5.31 35.623 35.623 0 0 0-6.426-3.792c-5.939 8.888-11.878 17.775-17.815 26.663 3.965.984 7.931 1.965 11.896 2.948.515.128 1.055.256 1.569.132.608-.145 1.076-.615 1.512-1.063 8.103-8.34 17.239-14.916 24.651-24.621" fill="#EBCEB1"/><path d="M459.832 1090.427l43.296 23.9 95.377-105.528-17.838-15.82-79.91 50.594-21.921-36.198-45.139 36.452 26.135 46.6" fill="#AECCDC"/><path d="M1274.42 480.504l-44.825 181.879h-25.679l-12.244-157.52-67.181-44.634 88.448-62.866 43.226 46.408 18.255 36.733" fill="#404F5A"/><path d="M1203.872 661.844l.18.376 10.517 22.055 16.255 1.502 9.835-7.649-11.884-16.284h-24.903z" fill="#39281C"/><path d="M1051.045 434.304c-7.322 2.717-9.08 7.831-8.802 18.375.444 16.941 6.18 33.706 16.208 47.369.757 1.032 1.586 2.087 2.75 2.62 1.014.465 2.167.483 3.282.492 13.926.121 35.944.555 42.073 15.377 5.804 14.038 3.735 34.716 5.619 49.758l12.389 98.92 27.749-1.306 28.148-192.721 1.866-50.017-30.059-12.862c-19.007 6.526-40.735 17.992-60.577 20.794-5.44.768-10.932.728-16.422.688-5.974-.043-11.945-.087-17.845.912-2.488.421-4.599.941-6.379 1.601" fill="#404F5A"/><path d="M1124.491 666.635l.213.396 12.487 23.298 17.641.796 10.239-8.765-13.67-16.992-26.91 1.267" fill="#39281C"/><path d="M1219.82 447.751c-6.015 0-12.077-.599-18.236-1.731 7.771.577 14.996 1.224 20.123 1.711-.628.013-1.258.02-1.887.02z" fill="#39434B"/><path d="M1038.849 443.779c-.35 16.769.154 39.369 6.31 40.196 1.154.156 2.261-.442 3.269-1.018 10.648-6.082 18.18-14.642 28.676-20.52 11-6.157 23.584-9.432 35.925-11.722 18.455-3.528 37.319-5.716 56.12-6.059 20.416-.372 60.16 3.828 60.16 3.828 11.476-2.017 22.44-6.153 33.432-9.988 18.886-6.591 38.174-12.396 55.894-21.627 5.686-2.961 21.378-11.714 15.765-19.636-4.243-5.998-18.661-10.013-25.159-13.698-14.516-8.231-28.468-17.627-40.752-28.908-17.461-16.04-30.345-35.72-38.409-57.867-4.071-11.187-7.005-22.747-9.429-34.387-1.314-6.293-2.466-12.626-3.547-18.973-.613-3.6-.605-17.24-3.123-19.493-25.522-22.947-33.03-43.054-63.936-38.04-70.514 11.413-65.516 14.693-81.249 50.84-6.327 14.533-14.901 53.573-17.32 69.2-2.931 18.92-5.641 37.893-7.751 56.925-2.354 21.243-3.97 42.581-4.312 63.953-.038 2.375-.397 9.026-.564 16.994" fill="#E89F40"/><path d="M1103.437 149.8l-28.422 57.067 144.53 41.693 4.316-38.107-120.424-60.653" fill="#415B59"/><path d="M1178.243 159.587l-33.522 11.013-52.397 41.253-6.003 238.05 95.635-13.662-22.291-202.054 50.535-30.614 13.661-16.133-45.618-27.853" fill="#426362"/><path d="M2043.027 545.021c0-44.908-51.574-81.312-115.2-81.312-63.614 0-115.187 36.404-115.187 81.312 0 44.907 51.573 81.311 115.187 81.311 3.28 0 6.533-.103 9.733-.292l-10.693 58.372 64.333-71.485c31.213-14.546 51.827-39.526 51.827-67.906z" fill="#EFCB55"/><path d="M1989.28 547.601c-6.64 0-6.653 10.326 0 10.326s6.653-10.326 0-10.326zM1942.827 547.601c-6.654 0-6.667 10.326 0 10.326 6.64 0 6.653-10.326 0-10.326zM1884.733 547.601c-6.64 0-6.653 10.326 0 10.326 6.654 0 6.667-10.326 0-10.326z" fill="#F1EFE2"/><path d="M1926.867 1135.807v-.004"/><path d="M1775.707 1184.989l-2.334-13.998 68.52-15.71 3.52 11.43-69.706 18.278z" fill="#2C3B4D"/><path d="M1845.413 1166.711l-3.52-11.43 84.974-19.478v.004l1.133 9.244-82.587 21.66z" fill="#2C3B4D"/><path d="M814.596 549.963h-54.995l8.076-2.379h54.996l-8.077 2.379zm-119.068 0h-30.885l-.7-2.379h30.885l.7 2.379zm295.076-51.835h-54.996l103.735-30.549c.592 6.897 1.72 12.614 3.741 15.093l-52.48 15.456zm-310.341 0h-30.886L630.668 434.6l28.421-8.371 21.174 71.899z" fill="#D4D3D3"/><path d="M676.611 590.599l-11.968-40.636h30.885l5.113 17.362 58.96-17.362h54.995l-137.985 40.636z" fill="#BEBFC1"/><path d="M822.673 547.584h-54.996l167.931-49.456h54.996l-167.931 49.456zm-127.845 0h-30.885l-14.566-49.456h30.886l14.565 49.456z" fill="#7A8083"/><path d="M1053.856 479.5c7.997-5.589 14.621-12.232 23.248-17.063 11-6.157 23.584-9.432 35.925-11.722 18.455-3.528 37.319-5.716 56.12-6.059.867-.016 1.768-.024 2.699-.024l.403.001-118.395 34.867" fill="#3B474F"/><path d="M1334.187 396.943c-3.372-4.379-12.124-7.692-18.986-10.606l17.79-5.238 34.702 5.977-33.506 9.867m57.173-23.659l-1.147-.252 1.694-8.163-1.267-.746 117.293-34.55 4.387 14.907-92.84 27.344-.147-.595-7.64-3.088-9.68 3.074 1.574-3.064-2.427-1.375-9.8 6.508z" fill="#D4D3D3"/><path d="M1388.56 380.929l1.653-7.897 1.147.252 9.8-6.508 2.427 1.375-1.574 3.064 9.68-3.074 7.64 3.088.147.595-30.92 9.105" fill="#C3AB94"/><path d="M1367.693 387.076l-34.702-5.977 57.649-16.976 1.267.746-1.694 8.163-1.653 7.897-20.867 6.147zM1043.084 482.672c-2.021-2.479-3.149-8.196-3.741-15.093l72.3-21.294 70.313-10.044-1.14-10.326 134.385-39.578c6.862 2.914 15.614 6.227 18.986 10.606l-161.936 47.69-.403-.001c-.931 0-1.832.008-2.699.024-18.801.343-37.665 2.531-56.12 6.059-12.341 2.29-24.925 5.565-35.925 11.722-8.627 4.831-15.251 11.474-23.248 17.063l-10.772 3.172z" fill="#C1873B"/><path d="M1111.643 446.285l69.173-20.37 1.14 10.326-70.313 10.044" fill="#3D5756"/><path d="M1530.787 322.853L700.641 567.325l-56.6-192.192 830.146-244.48 56.6 192.2" fill="#FFFFF3"/><path d="M846.313 423.475c9.135 31.018-8.604 63.568-39.622 72.702-31.018 9.135-63.567-8.605-72.702-39.622-9.134-31.018 8.604-63.567 39.622-72.702 31.018-9.134 63.568 8.604 72.702 39.622z" fill="#3A6597"/><path d="M901 386.573l-6.475-21.986 544.702-160.414 6.48 21.987L901 386.573M918.747 446.833l-6.475-21.986 544.701-160.42 6.48 21.986-544.706 160.42" fill="#DBDBD2"/><path d="M800.048 378.897c-2.012 0-4.055-.832-5.659-2.002-1.972-1.438-3.396-3.323-4.816-5.102-4.512-5.656-9.306-10.557-14.29-14.726-4.587-3.827-9.236-6.734-12.588-10.667-1.104-1.293-2.612-3.627-2.975-3.907l59.171-18.586c1.234 1.466 3.084 5.986 2.634 7.653-.557 2.08-1.953 4.187-1.11 6.427.441 1.16 1.458 2.226 2.474 3.293 4.655 4.853 9.663 10.067 15.066 15.693 1.744 1.814 3.657 4.11 2.832 5.998-.515 1.176-1.963 1.705-3.63 1.705-1.481 0-3.134-.419-4.458-1.173-2.747-1.567-4.348-3.996-5.882-6.196-4.13-5.934-8.742-11.174-13.681-15.68-3.748-3.427-8.587-6.694-14.041-6.694-.35 0-.704.014-1.059.04-5.068.4-8.927 3.574-12.307 6.614.803 6.146 13.452 6.8 18.09 12.76 1.502 1.933 1.884 4.36 1.282 6.613-.249.933-2.053 4.948-3.925 4.948-.316 0-.635-.115-.947-.376-.392-.329-.509-.867-.28-1.269.39-.684 1.61-.954 1.638-1.714.008-.22-.095-.434-.203-.637a11.798 11.798 0 0 0-2.687-3.352c-.949-.827-2.141-1.053-3.077-1.813a26.623 26.623 0 0 0-2.773-1.934c-1.243-.746-3.126-1.84-4.87-1.84-.377 0-.748.054-1.104.174-2.444.8.562 3.053 1.539 4.333a114.174 114.174 0 0 1 4.375 6.091c3.056 4.553 5.966 9.552 8.698 15.008l.076.15a6.709 6.709 0 0 1-1.513.168" fill="#E7E7DC"/><path d="M718.932 258.333c-3.963 6.827-2.089 16.76-.049 24.107 3.018 10.867 9.738 18.907 15.997 27.973.46.667 1.008 1.387 1.808 1.507.939.16 1.824-.653 2.06-1.573.236-.934-.027-1.907-.379-2.787-1.153-2.893-3.234-5.293-5.014-7.853-5.894-8.467-8.3-19.2-5.67-29.174 1.034-3.92 3.551-8.493-1.177-15-3.085-4.24-5.057-1.533-7.576 2.8z" fill="#59595B"/><path d="M747.427 279.893c7.277-4.266 15.806-6.36 24.142-8.28 9.094-2.093 18.651-4.106 27.311-2.373 4.443.893 9.171 3.187 12.037 7.213 1.238 1.747 2.055 3.814 2.122 5.96.03.987.036 2.12-.019 3.067-.083 1.4-.896 1.813-1.911 2.547-1.272.92-2.15 2.32-3.118 3.586-4.512 5.947-11.13 8.187-17.452 11.24-6.362 3.067-12.799 5.947-19.44 8.32-10.82 3.867-30.367 9.334-37.478-.653-6.65-9.347 4.168-24.973 13.806-30.627" fill="#59595B"/><path d="M798.384 285.48c1.427.613 3.017.613 4.552.547 4.92-.2 9.101 1.28 13.751-.307 15.736-5.387 8.925-27.093-6.847-27.893-12.023-.614-26.805 20.933-11.456 27.653zM748.816 299.96c-3.135-1.307-6.547-2.067-9.772-2.547-.711-.12-1.441-.213-2.141-.053-.716.173-1.344.6-1.891 1.093-3.301 2.974-3.664 8.64-.768 12.014.931 1.08 2.115 1.92 3.32 2.68 3.409 2.16 7.12 3.893 10.228 6.466 5.704 4.734 5.323 10.174 5.749 16.92.042.64.083 1.294.282 1.907.949 2.933 2.688 5.427 6.264 4.573.988-.24 1.893-1.146 1.746-2.146-.254-1.747-2.284-1.414-3.088-2.52-.829-1.147.014-2.854.274-4.067.686-3.2 1.254-6.44 1.573-9.693.596-6.067.413-13.067-3.281-18.227-2.146-3-5.164-5.013-8.495-6.4" fill="#59595B"/><path d="M780.655 322.587c.628.666 1.281 1.4 1.389 2.306.091.774-.229 1.534-.544 2.24-.685 1.56-1.372 3.12-2.059 4.68-.636 1.44-1.35 2.974-2.706 3.787-1.356.813-3.526.413-3.931-1.12-.516-1.933 1.941-3.28 2.772-5.107 1.007-2.226-.579-4.773-2.397-6.4a19.238 19.238 0 0 0-11.86-4.813c-1.431-.053-2.896.04-4.263-.387-1.365-.426-2.647-1.56-2.692-2.986-.188-6.12 7.627-9.12 11.836-6.28 5.197 3.52 10.161 9.506 14.455 14.08M802.689 319.893c-.124.894-.284 1.854-.88 2.467-.504.507-1.23.68-1.922.84-1.514.347-3.027.68-4.54 1.013-1.406.32-2.919.627-4.275-.013-1.356-.627-2.301-2.613-1.432-3.827 1.109-1.533 3.473-.306 5.268-.693 5.656-1.2 3.764-10.92.207-13.72-.739-.587-1.556-1.04-2.335-1.547-1.663-1.093-3.243-2.506-4.469-4.146-1.534-2.054-1.071-1.427.042-2.734 2.304-2.706 5.166-4.946 8.835-4.72 3.455.214 7.152 3.387 7.42 7.294.427 6.226-1.071 13.693-1.919 19.786" fill="#59595B"/><path d="M801.547 304.853c.494 2.134.993 4.267 1.764 6.32.865 2.294 2.076 4.494 2.514 6.907.45 2.453.058 4.973.4 7.453.122.88.364 1.8.975 2.414.611.613 1.684.76 2.179.08 1.046-4.44 2.098-9.067 1.196-13.654-.748-3.786-2.814-7.386-2.704-11.226.07-2.48 1.04-4.734 1.246-7.187.19-2.227.443-4.96-.904-6.92-.753-1.093-1.924-1.267-2.544-2.4-.101-.187-.242-.387-.436-.387l-.293.174c-1.695 1.666-5.827 4.253-6.079 6.8-.15 1.52.876 3.84 1.23 5.36.485 2.093.97 4.173 1.456 6.266" fill="#59595B"/><path d="M791.213 270.107s7.132 15.52 18.25 17.786l2.877-1s-13.428-6.4-19.599-19.013l-1.528 2.227z" fill="#E89F40"/><path d="M1797.333 1409.333l.027 10.907 23.24 11.613 11.613-11.613-11.613-11.613h-23.24l-.027.706" fill="#2E4661"/><path d="M815.072 250.08c.139-.133.357-.027.356.173-.005 1.36.468 2.694.933 4l3.36 9.32c-.756-2.106-12.077 9.214-13.16 1.307-.628-4.587 5.284-11.6 8.511-14.8" fill="#59595B"/><path d="M808.084 250.787c.139-.134.357-.027.356.173-.004 1.36.468 2.707.935 4l3.358 9.32c-.756-2.107-12.077 9.213-13.158 1.307-.63-4.587 5.282-11.6 8.509-14.8" fill="#59595B"/><path d="M1009.833 314.84l-3.049 12.493 6.036 9.587-1.383 2.307-2.914-1.587 2.73 9.4-3.157 7.293-10.333 2.214-9.83-4.76-1.116-10.48 5.096-11.48 3.434-17.267 14.486 2.28z" fill="#EACDB0"/><path d="M1016.684 328.267l11.732-76.36 46.464-14.187 9.035-28.4-9.035-2.573 20.651-41.307-103.254 45.173-5.905 117.454 30.312.2z" fill="#E89F40"/><path d="M602.86 673.947c0 50.112-40.624 90.736-90.736 90.736s-90.736-40.624-90.736-90.736 40.624-90.736 90.736-90.736 90.736 40.624 90.736 90.736z" fill="#7C2B4A"/><path d="M557.793 661.345h-33.068v-33.068h-25.202v33.068h-33.07v25.204h33.07v33.067h25.202v-33.067h33.068v-25.204z" fill="#FFF"/><path d="M814.667 289.333A2.671 2.671 0 0 1 812 292a2.671 2.671 0 0 1-2.667-2.667 2.671 2.671 0 0 1 2.667-2.666c1.472 0 2.667 1.2 2.667 2.666z" fill="#7C2B4A"/></g></svg>