<svg width="232" height="81" fill="none" xmlns="http://www.w3.org/2000/svg"><mask id="a" maskUnits="userSpaceOnUse" x="28" y="0" width="146" height="80"><path fill="#C4C4C4" d="M28.037 0h145.185v80H28.037z"/></mask><g mask="url(#a)"><ellipse cx="114.649" cy="68.889" rx="53.279" ry="47.407" fill="#D84315" fill-opacity=".73"/></g><path d="M69.8 22.62c-.595-4.134 3.84-7.132 7.454-5.04l10.887 6.305c3.194 1.85 3.352 6.403.294 8.47l-9.096 6.148c-3.058 2.066-7.224.222-7.75-3.431L69.8 22.619zM151.531 18.115c3.612-2.096 8.05.898 7.46 5.032L157.212 35.6c-.522 3.653-4.686 5.502-7.746 3.438l-9.102-6.14c-3.059-2.063-2.906-6.617.286-8.47l10.881-6.314z" fill="#DE684A"/><path d="M75.844 26.525c-.094-1.537 1.51-2.6 2.889-1.913l2.411 1.202c1.378.687 1.496 2.608.212 3.458l-2.246 1.487c-1.284.85-3.006-.008-3.1-1.545l-.166-2.689zM150.056 24.7c1.419-.598 2.953.564 2.762 2.092l-.335 2.673c-.192 1.528-1.965 2.275-3.192 1.346l-2.148-1.627c-1.227-.93-.988-2.84.431-3.437l2.482-1.047z" fill="#FFCCBC"/><ellipse cx="97.667" cy="67.407" rx="16.296" ry="8.889" fill="#FAFAFA"/><ellipse cx="131" cy="67.407" rx="16.296" ry="8.889" fill="#FAFAFA"/><path d="M116.151 68.364c-.765 1.287-2.622 1.307-3.415.036l-2.577-4.13c-.826-1.324.115-3.042 1.676-3.058l5.066-.054c1.561-.016 2.538 1.682 1.74 3.023l-2.49 4.183z" fill="#000"/><path d="M135.352 64.086c15.784-9.36 26.448-12.133 48.889-12.593M139.846 67.04c16.874-5.878 26.596-7.091 44.444-5.186M135.444 70.74c23.373-5.723 36.138-5.191 58.519 0M93.861 64.8c-19.413-11.666-31.255-14.979-54.01-15.448M90.96 67.776c-19.488-7.166-30.213-8.57-48.888-5.185M93.982 71.481c-22.04-3.755-34.367-3.319-56.296 2.963" stroke="#000"/><ellipse cx="96.926" cy="47.099" rx="3.704" ry="3.395" fill="#000"/><ellipse cx="131" cy="47.099" rx="3.704" ry="3.395" fill="#000"/><path d="M99.005 39.94c-4.948-.29-6.75.698-8.863 3.765M136.516 42.305c-3.761-3.228-5.794-3.534-9.332-2.373" stroke="#000" stroke-width="2"/><path d="M119.845 73.896c-3.923 3.765-6.227 2.829-10.364.357" stroke="#000" stroke-width="3"/><mask id="b" maskUnits="userSpaceOnUse" x="41" y="46" width="14" height="32"><path fill="#C4C4C4" d="M41 46h14v32H41z"/></mask><g mask="url(#b)"><rect x="41" y="49" width="14" height="36" rx="7" fill="#E17453"/></g><circle cx="40.5" cy="52.5" r="3.5" fill="#E17453"/><circle cx="44.5" cy="48.5" r="3.5" fill="#E17453"/><circle cx="51.5" cy="48.5" r="3.5" fill="#E17453"/><circle cx="55.5" cy="52.5" r="3.5" fill="#E17453"/><circle cx="44.5" cy="48.5" r="1.5" fill="#FFCCBC"/><circle cx="40.5" cy="52.5" r="1.5" fill="#FFCCBC"/><circle cx="51.5" cy="48.5" r="1.5" fill="#FFCCBC"/><circle cx="55.5" cy="52.5" r="1.5" fill="#FFCCBC"/><path d="M45.096 51.634c2.21-2.277 3.449-2.078 5.659 0 1.39 3.114 1.91 4.596 0 4.337h-5.66c-1.68.064-1.222-1.365 0-4.337z" fill="#FFCCBC"/><mask id="c" maskUnits="userSpaceOnUse" x="174" y="46" width="14" height="32"><path fill="#C4C4C4" d="M174 46h14v32h-14z"/></mask><g mask="url(#c)"><rect x="174" y="49" width="14" height="36" rx="7" fill="#E17453"/></g><circle cx="173.5" cy="52.5" r="3.5" fill="#E17453"/><circle cx="177.5" cy="48.5" r="3.5" fill="#E17453"/><circle cx="184.5" cy="48.5" r="3.5" fill="#E17453"/><circle cx="188.5" cy="52.5" r="3.5" fill="#E17453"/><circle cx="177.5" cy="48.5" r="1.5" fill="#FFCCBC"/><circle cx="173.5" cy="52.5" r="1.5" fill="#FFCCBC"/><circle cx="184.5" cy="48.5" r="1.5" fill="#FFCCBC"/><circle cx="188.5" cy="52.5" r="1.5" fill="#FFCCBC"/><path d="M178.096 51.634c2.21-2.277 3.449-2.078 5.659 0 1.39 3.114 1.91 4.596 0 4.337h-5.659c-1.682.064-1.223-1.365 0-4.337z" fill="#FFCCBC"/><path stroke="#D81B60" stroke-width="3" d="M.994 79.5l231-1"/></svg>