<svg xmlns="http://www.w3.org/2000/svg" style="isolation:isolate" width="50" height="50"><defs><clipPath id="a"><path d="M0 0h50v50H0z"/></clipPath></defs><g clip-path="url(#a)"><path d="M24.939 16.372v13.689H11.251c0 7.566 6.133 13.688 13.688 13.688 7.555 0 13.689-6.133 13.689-13.688 0-7.555-6.122-13.689-13.689-13.689z" fill="#F8B1B2"/><path d="M24.939 28.146c-.814 0-1.513.516-1.788 1.227h-11.9a.69.69 0 00-.688.688.69.69 0 00.688.688h11.9a1.909 1.909 0 001.788 1.226 1.918 1.918 0 001.915-1.914c0-1.055-.86-1.915-1.915-1.915zm17.025-11.017l1.949-1.949-4.001-4.001-1.949 1.949.974.974-1.616 1.64a18.826 18.826 0 00-11.006-4.563V9.093h4.781V.964H18.783v8.129h4.78v2.075C13.761 11.878 6 20.075 6 30.061 6 40.505 14.495 49 24.939 49s18.939-8.495 18.939-18.939a18.87 18.87 0 00-4.62-12.382l1.628-1.628 1.078 1.078zM21.534 6.341V3.716h6.81v2.625h-6.81zm19.593 23.72c0 8.931-7.257 16.188-16.188 16.188S8.751 38.992 8.751 30.061s7.257-16.188 16.188-16.188 16.188 7.269 16.188 16.188z" fill="#D81B60"/></g></svg>