<?xml version="1.0" encoding="UTF-8" standalone="no"?><!-- Generator: Gravit.io --><svg xmlns="http://www.w3.org/2000/svg" xmlns:xlink="http://www.w3.org/1999/xlink" style="isolation:isolate" viewBox="0 0 1000 1000" width="1000pt" height="1000pt"><defs><clipPath id="_clipPath_jjq8ploc9q0vZR9CHFtrtIXuEmfsxKry"><rect width="1000" height="1000"/></clipPath></defs><g clip-path="url(#_clipPath_jjq8ploc9q0vZR9CHFtrtIXuEmfsxKry)"><clipPath id="_clipPath_BaCS6yRnWVNebiYdYCH6JEk8gsfHtAV8"><rect x="0" y="0" width="1008" height="1015" transform="matrix(1,0,0,1,0,0)" fill="rgb(255,255,255)"/></clipPath><g clip-path="url(#_clipPath_BaCS6yRnWVNebiYdYCH6JEk8gsfHtAV8)"><g><rect x="0" y="0" width="1008" height="1015" transform="matrix(1,0,0,1,0,0)" fill="rgb(250,250,250)"/><g><g><g><g style="opacity:0.8;"><g style="opacity:0.8;"><g opacity="0.8"><linearGradient id="_lgradient_2" x1="0.10133252263429021" y1="0.12769205504747616" x2="0.7274299831939697" y2="0.40661526428671224" gradientTransform="matrix(826.567,0,0,1040.829,390.261,292.77)" gradientUnits="userSpaceOnUse"><stop offset="1.6666666666666667%" stop-opacity="1" style="stop-color:rgb(157,80,154)"/><stop offset="100%" stop-opacity="1" style="stop-color:rgb(17,153,142)"/></linearGradient><path d=" M 475.702 1205.016 L 391.356 512.78 C 381.583 432.581 438.312 359.483 517.956 349.642 L 969.375 293.873 C 1049.021 284.033 1121.615 341.155 1131.388 421.352 L 1215.734 1113.59 C 1225.505 1193.789 1168.778 1266.887 1089.132 1276.728 L 637.713 1332.497 C 558.069 1342.338 485.473 1285.215 475.702 1205.016 Z " fill="url(#_lgradient_2)"/></g></g></g><g style="opacity:0.85;"><g style="opacity:0.85;"><g opacity="0.85"><linearGradient id="_lgradient_3" x1="-0.20827894491185592" y1="0.8223838887592002" x2="0.6747601576591304" y2="0.4242345513861962" gradientTransform="matrix(775.382,0,0,787.138,287.872,404.541)" gradientUnits="userSpaceOnUse"><stop offset="49.130434782608695%" stop-opacity="1" style="stop-color:rgb(77,208,225)"/><stop offset="97.91666666666666%" stop-opacity="1" style="stop-color:rgb(75,142,217)"/></linearGradient><path d=" M 804.612 455.598 L 1038.49 772.65 C 1079.837 828.7 1068.213 908.005 1012.549 949.639 L 722.284 1166.744 C 666.621 1208.376 587.861 1196.671 546.514 1140.621 L 312.636 823.571 C 271.29 767.521 282.914 688.214 338.577 646.58 L 628.842 429.477 C 684.506 387.843 763.266 399.548 804.612 455.598 Z " fill="url(#_lgradient_3)"/></g></g></g><g style="opacity:0.9;"><g style="opacity:0.9;"><g opacity="0.9"><path d=" M 1075.36 528.752 L 1291.408 827.421 C 1338.903 893.078 1324.524 985.21 1259.32 1033.035 L 999.746 1223.42 C 934.542 1271.245 843.044 1256.766 795.551 1191.109 L 579.501 892.44 C 532.007 826.783 546.385 734.65 611.589 686.827 L 871.164 496.442 C 936.368 448.616 1027.864 463.094 1075.36 528.752 Z " fill="rgb(0,172,193)"/></g></g></g></g></g></g></g></g></g></svg>