<?xml version="1.0" encoding="UTF-8" standalone="no"?>
<svg
   xmlns:dc="http://purl.org/dc/elements/1.1/"
   xmlns:cc="http://creativecommons.org/ns#"
   xmlns:rdf="http://www.w3.org/1999/02/22-rdf-syntax-ns#"
   xmlns:svg="http://www.w3.org/2000/svg"
   xmlns="http://www.w3.org/2000/svg"
   viewBox="0 0 666.66669 666.66669"
   height="666.66669"
   width="666.66669"
   xml:space="preserve"
   id="svg2"
   version="1.1"><metadata
     id="metadata8"><rdf:RDF><cc:Work
         rdf:about=""><dc:format>image/svg+xml</dc:format><dc:type
           rdf:resource="http://purl.org/dc/dcmitype/StillImage" /></cc:Work></rdf:RDF></metadata><defs
     id="defs6" /><g
     transform="matrix(1.3333333,0,0,-1.3333333,0,666.66667)"
     id="g10"><g
       transform="scale(0.1)"
       id="g12"><path
         id="path14"
         style="fill:#fdfcde;fill-opacity:1;fill-rule:nonzero;stroke:none"
         d="M 5000,0 H 0 V 5000 H 5000 V 0" /><path
         id="path16"
         style="fill:#464648;fill-opacity:1;fill-rule:evenodd;stroke:none"
         d="m 1919.61,1064.63 c 612.13,0 1108.11,-14.03 1108.11,-31.43 0,-17.1 -495.98,-31.14 -1108.11,-31.14 -611.83,0 -1107.817,14.04 -1107.817,31.14 0,17.4 495.987,31.43 1107.817,31.43 v 0" /><path
         id="path18"
         style="fill:#464648;fill-opacity:1;fill-rule:evenodd;stroke:none"
         d="m 1773.83,1690.13 h 215.22 l 141.88,-560.16 h -503.77 l 146.67,560.16" /><path
         id="path20"
         style="fill:#2f2d2e;fill-opacity:1;fill-rule:evenodd;stroke:none"
         d="m 2020.48,1565.28 38.02,-149.27 H 1702 l 39.21,149.27 h 279.27" /><path
         id="path22"
         style="fill:#464648;fill-opacity:1;fill-rule:evenodd;stroke:none"
         d="M 936.012,2796.71 H 2822.38 c 90.4,0 164.63,-75.4 164.63,-167.89 v -943.27 c 0,-92.49 -74.23,-168.21 -164.63,-168.21 H 936.012 c -90.696,0 -164.926,75.72 -164.926,168.21 v 943.27 c 0,92.49 74.23,167.89 164.926,167.89 v 0" /><path
         id="path24"
         style="fill:#949595;fill-opacity:1;fill-rule:evenodd;stroke:none"
         d="m 1012.93,2698.11 h 1732.54 c 69.73,0 127.21,-58.31 127.21,-129.73 v -822.7 c 0,-71.13 -57.48,-129.73 -127.21,-129.73 H 1012.93 c -70.035,0 -127.5,58.6 -127.5,129.73 v 822.7 c 0,71.42 57.465,129.73 127.5,129.73 v 0" /><path
         id="path26"
         style="fill:#7ed2b3;fill-opacity:1;fill-rule:evenodd;stroke:none"
         d="m 1021.92,2661.48 h 1714.56 c 57.16,0 104.16,-47.92 104.16,-106.24 v -796.12 c 0,-58.31 -47,-106.23 -104.16,-106.23 H 1021.92 c -57.479,0 -104.166,47.92 -104.166,106.23 v 796.12 c 0,58.32 46.687,106.24 104.166,106.24 v 0" /><path
         id="path28"
         style="fill:#5f6062;fill-opacity:1;fill-rule:evenodd;stroke:none"
         d="m 1428.11,1190.71 h 901.88 c 39.21,0 70.94,-32.66 70.94,-72.34 v 0 c 0,-39.99 -31.73,-72.35 -70.94,-72.35 h -901.88 c -38.91,0 -70.94,32.36 -70.94,72.35 v 0 c 0,39.68 32.03,72.34 70.94,72.34 v 0" /><path
         id="path30"
         style="fill:#efee0f;fill-opacity:1;fill-rule:evenodd;stroke:none"
         d="m 2698.16,1586.95 c 9.28,0 17.06,-7.94 17.06,-17.4 0,-9.77 -7.78,-17.71 -17.06,-17.71 -9.57,0 -17.35,7.94 -17.35,17.71 0,9.46 7.78,17.4 17.35,17.4 v 0" /><path
         id="path32"
         style="fill:#5f6062;fill-opacity:1;fill-rule:evenodd;stroke:none"
         d="m 1140.45,2402.3 288.26,162.1 c 8.98,4.89 20.35,1.84 25.44,-7.31 v 0 c 4.8,-9.17 1.49,-20.77 -7.48,-25.96 l -288.25,-161.79 c -8.99,-5.18 -20.36,-1.83 -25.15,7.32 v 0 c -5.09,9.16 -1.8,20.75 7.18,25.64 v 0" /><path
         id="path34"
         style="fill:#5f6062;fill-opacity:1;fill-rule:evenodd;stroke:none"
         d="m 1083.58,2249.98 502.27,282.07 c 15.57,8.85 35.33,3.05 44.01,-13.12 v 0 c 8.68,-15.88 2.99,-36.04 -12.57,-44.58 l -502.28,-282.37 c -15.56,-8.55 -35.62,-2.74 -44,13.13 v 0 c -8.68,15.88 -3,36.02 12.57,44.87 v 0" /><path
         id="path36"
         style="fill:#5f6062;fill-opacity:1;fill-rule:evenodd;stroke:none"
         d="m 2723.6,1992.03 -449.88,-252.74 c -14.07,-7.94 -31.73,-2.77 -39.52,11.59 v 0 c -7.48,14.34 -2.39,32.36 11.38,40.29 l 450.19,252.76 c 13.77,7.62 31.43,2.43 39.2,-11.91 v 0 c 7.78,-14.04 2.71,-32.05 -11.37,-39.99 v 0" /><path
         id="path38"
         style="fill:#5f6062;fill-opacity:1;fill-rule:evenodd;stroke:none"
         d="m 2672.72,1855.28 -258.33,-145.01 c -8.07,-4.59 -18.25,-1.52 -22.44,6.72 v 0 c -4.49,8.24 -1.5,18.62 6.28,22.89 l 258.32,145.32 c 8.09,4.26 18.27,1.21 22.76,-6.73 v 0 c 4.19,-8.24 1.5,-18.62 -6.59,-23.19 v 0" /><path
         id="path40"
         style="fill:#55af90;fill-opacity:1;fill-rule:evenodd;stroke:none"
         d="m 2564.36,2661.48 h 172.12 c 57.16,0 104.16,-47.92 104.16,-106.24 v -252.45 c -97.57,-39.38 -202.64,-49.15 -231.67,-36.93 l -14.66,-4.28 -42.82,-22.59 56.59,-101.96 -166.74,-96.46 14.67,-26.56 v 0 L 1830.7,1652.89 h -808.78 c -1.8,0 -3.59,0 -5.39,0 -13.77,18 -22.151,40.9 -22.151,65.32 v 194.46 l 1149.131,663.95 14.96,-26.56 166.73,96.46 56.87,-102.57 143.98,75.71 5.08,-9.77 32.04,47.31 1.19,4.28" /><path
         id="path42"
         style="fill:#f9ab7c;fill-opacity:1;fill-rule:evenodd;stroke:none"
         d="m 2387.16,2611.42 127.22,-286.96 c 0,0 80.51,-55.55 248.75,3.66 168.52,58.92 331.95,135.54 331.95,135.54 l -140.99,391.06 c 0,0 -92.79,108.37 -229.29,49.75 -136.49,-58.3 -232.58,-123.94 -232.58,-123.94 l -105.06,-169.11" /><path
         id="path44"
         style="fill:#c78057;fill-opacity:1;fill-rule:evenodd;stroke:none"
         d="m 2487.44,2384.91 26.94,-60.45 c 0,0 80.51,-55.55 248.75,3.66 168.52,58.92 331.95,135.54 331.95,135.54 l -49.09,136.46 -558.55,-215.21" /><path
         id="path46"
         style="fill:#f9ab7c;fill-opacity:1;fill-rule:evenodd;stroke:none"
         d="m 2093.52,2472.21 355.6,186.53 157.44,-311.39 -355.59,-186.81 -157.45,311.67" /><path
         id="path48"
         style="fill:#c78057;fill-opacity:1;fill-rule:evenodd;stroke:none"
         d="m 2570.96,2417.57 35.6,-70.22 -355.59,-186.81 -35.63,70.21 355.62,186.82" /><path
         id="path50"
         style="fill:#d2c9e9;fill-opacity:1;fill-rule:evenodd;stroke:none"
         d="m 2248.27,2685.6 -226.59,-130.96 282.87,-509.49 226.89,130.96 -283.17,509.49" /><path
         id="path52"
         style="fill:#beb4e0;fill-opacity:1;fill-rule:evenodd;stroke:none"
         d="m 2206.37,2222.21 98.18,-177.06 226.89,130.96 -98.49,177.05 -226.58,-130.95" /><path
         id="path54"
         style="fill:#d2c9e9;fill-opacity:1;fill-rule:evenodd;stroke:none"
         d="m 2376.68,2211.2 c 18.86,11.01 42.81,4.29 53.58,-14.95 10.78,-19.22 4.19,-43.96 -14.97,-54.64 -18.85,-10.99 -42.79,-4.28 -53.57,14.96 -10.77,19.24 -3.9,43.96 14.96,54.63 v 0" /><path
         id="path56"
         style="fill:#612b2f;fill-opacity:1;fill-rule:evenodd;stroke:none"
         d="m 917.754,1952.05 1149.126,663.64 312.5,-562.6 -696.24,-402.04 h -661.22 c -57.479,0 -104.166,47.93 -104.166,106.24 v 194.76" /><path
         id="path58"
         style="fill:#4c2123;fill-opacity:1;fill-rule:evenodd;stroke:none"
         d="m 2266.23,2256.7 113.15,-203.31 -696.24,-402.34 h -465.46 l 1048.55,605.65" /><path
         id="path60"
         style="fill:#7a7c7d;fill-opacity:1;fill-rule:evenodd;stroke:none"
         d="m 2380.58,2204.19 c 14.96,8.55 33.81,3.06 42.5,-12.21 8.38,-15.27 3.29,-34.8 -11.68,-43.35 -15.26,-8.54 -34.12,-3.36 -42.8,11.91 -8.38,15.27 -2.99,34.79 11.98,43.65 v 0" /><path
         id="path62"
         style="fill:#602e15;fill-opacity:1;fill-rule:evenodd;stroke:none"
         d="m 2388.96,2188.93 c 2.69,1.52 6.28,0.6 7.78,-2.14 1.49,-2.74 0.59,-6.41 -2.1,-7.93 -2.99,-1.83 -6.28,-0.61 -8.08,2.14 -1.49,2.73 -0.6,6.4 2.4,7.93 v 0" /><path
         id="path64"
         style="fill:#602e15;fill-opacity:1;fill-rule:evenodd;stroke:none"
         d="m 2397.33,2173.97 c 2.7,1.52 6.29,0.61 7.79,-2.13 1.5,-3.06 0.6,-6.42 -2.4,-8.25 -2.69,-1.52 -5.98,-0.61 -7.78,2.45 -1.5,2.74 -0.6,6.4 2.39,7.93 v 0" /><path
         id="path66"
         style="fill:#ed1f24;fill-opacity:1;fill-rule:evenodd;stroke:none"
         d="m 3661.41,3662.74 c 88.6,25.95 181.39,-26.25 207.13,-116.61 25.44,-90.66 -25.74,-185.29 -114.34,-211.24 -5.69,-1.83 -11.38,-3.05 -17.06,-4.27 l -38.32,135.84 -22.75,80.59 -31.12,109.89 c 5.37,2.14 10.77,3.97 16.46,5.8 v 0" /><path
         id="path68"
         style="fill:#d2c9e9;fill-opacity:1;fill-rule:evenodd;stroke:none"
         d="m 2625.13,2963.99 338.54,-741.78 321.48,94.63 -529.82,706.07 -130.2,-58.92" /><path
         id="path70"
         style="fill:#5f6062;fill-opacity:1;fill-rule:evenodd;stroke:none"
         d="m 2944.22,2216.4 370.26,108.98 c 18.26,5.5 37.42,-5.5 42.8,-24.12 v 0 c 5.09,-18.61 -5.38,-38.46 -23.64,-43.65 l -369.97,-108.98 c -18.25,-5.5 -37.71,5.5 -43.1,24.12 v 0 c -5.1,18.62 5.39,38.45 23.65,43.65 v 0" /><path
         id="path72"
         style="fill:#d2c9e9;fill-opacity:1;fill-rule:evenodd;stroke:none"
         d="m 2784.96,3482.94 758.81,531.16 132.3,-467.05 22.75,-80.59 132.31,-467.05 -919.84,36.63 -51.79,183.15 -22.75,80.6 -51.79,183.15" /><path
         id="path74"
         style="fill:#b0a5d9;fill-opacity:1;fill-rule:evenodd;stroke:none"
         d="m 3699.12,3465.85 132.01,-466.44 -919.84,36.63 -51.79,182.55 839.62,247.26" /><path
         id="path76"
         style="fill:#5f6062;fill-opacity:1;fill-rule:evenodd;stroke:none"
         d="m 3567.11,4091.94 v 0 c 23.06,6.72 47.3,-7.01 53.89,-30.51 l 300.22,-1060.18 c 6.59,-23.52 -6.58,-48.24 -29.63,-55.26 v 0 c -23.05,-6.72 -47.29,7.02 -54.18,30.52 L 3537.49,4037 c -6.88,23.5 6.58,48.23 29.62,54.94 v 0" /><path
         id="path78"
         style="fill:#464648;fill-opacity:1;fill-rule:evenodd;stroke:none"
         d="m 3782.63,3490.58 138.59,-489.33 c 6.59,-23.52 -6.58,-48.24 -29.63,-55.26 v 0 c -23.05,-6.72 -47.29,7.02 -54.18,30.52 l -138.29,489.34 83.51,24.73" /><path
         id="path80"
         style="fill:#978ecf;fill-opacity:1;fill-rule:evenodd;stroke:none"
         d="m 2458.7,3414.26 297.82,87.61 c 39.22,11.6 80.53,-11.6 91.61,-51.59 l 99.67,-351.97 c 11.39,-39.98 -11.36,-81.81 -50.58,-93.41 l -297.83,-87.61 c -38.92,-11.6 -80.23,11.6 -91.6,51.59 l -99.38,351.97 c -11.37,39.69 11.38,81.81 50.29,93.41 v 0" /><path
         id="path82"
         style="fill:#827bc5;fill-opacity:1;fill-rule:evenodd;stroke:none"
         d="m 2909.49,3233.54 38.31,-135.23 c 11.39,-39.98 -11.36,-81.81 -50.58,-93.41 l -297.83,-87.61 c -38.92,-11.6 -80.23,11.6 -91.6,51.59 l -38.01,134.92 439.71,129.74" /><path
         id="path84"
         style="fill:#5f6062;fill-opacity:1;fill-rule:evenodd;stroke:none"
         d="m 2346.46,3315.66 59.26,17.4 c 0.6,-3.97 1.5,-8.24 2.69,-12.21 l 99.38,-351.97 c 1.19,-4.27 2.7,-8.24 4.49,-11.9 l -59.57,-17.71 c -29.63,-8.54 -60.76,8.85 -69.14,39.07 l -75.44,266.5 c -8.67,30.22 8.69,61.97 38.33,70.82 v 0" /><path
         id="path86"
         style="fill:#464648;fill-opacity:1;fill-rule:evenodd;stroke:none"
         d="m 2469.78,3103.8 38.01,-134.92 c 1.19,-4.27 2.7,-8.24 4.49,-11.9 l -59.57,-17.71 c -29.63,-8.54 -60.76,8.85 -69.14,39.07 l -26.34,92.49 112.55,32.97" /><path
         id="path88"
         style="fill:#ffffff;fill-opacity:1;fill-rule:evenodd;stroke:none"
         d="m 3112.44,3665.49 269.1,180.72 c 14.67,9.77 34.42,5.49 43.99,-9.46 v 0 c 9.88,-14.96 5.69,-35.11 -8.97,-44.88 l -269.1,-181.02 c -14.67,-9.77 -34.42,-5.49 -44,9.46 v 0 c -9.89,14.96 -5.69,35.11 8.98,45.18 v 0" /><path
         id="path90"
         style="fill:#ffffff;fill-opacity:1;fill-rule:evenodd;stroke:none"
         d="m 3033.7,3612.38 4.81,3.35 c 14.66,9.78 34.71,5.5 44.29,-9.46 v 0 c 9.58,-14.65 5.7,-35.1 -8.97,-44.87 l -5.1,-3.36 c -14.67,-9.77 -34.41,-5.8 -43.99,9.16 v 0 c -9.88,14.95 -5.7,35.41 8.96,45.18 v 0" /><path
         id="path92"
         style="fill:#ed1f24;fill-opacity:1;fill-rule:evenodd;stroke:none"
         d="m 3993.07,3608.41 250.83,72.35 c 23.04,6.71 46.99,-7.03 53.58,-30.53 v 0 c 6.58,-23.51 -6.88,-48.23 -29.93,-54.64 l -250.84,-72.66 c -22.75,-6.41 -46.98,7.33 -53.58,30.53 v 0 c -6.28,23.51 7.18,48.23 29.94,54.95 v 0" /><path
         id="path94"
         style="fill:#ed1f24;fill-opacity:1;fill-rule:evenodd;stroke:none"
         d="m 4023.3,3255.22 252.63,-65.33 c 23.35,-5.8 37.41,-30.22 31.73,-53.72 v 0 c -5.99,-23.5 -29.64,-38.16 -52.99,-32.05 l -252.63,65.02 c -23.05,6.1 -37.13,30.22 -31.42,53.72 v 0 c 5.99,23.81 29.61,38.16 52.68,32.36 v 0" /><path
         id="path96"
         style="fill:#ed1f24;fill-opacity:1;fill-rule:evenodd;stroke:none"
         d="m 3858.37,3862.39 181.39,190.49 c 16.76,17.39 16.46,45.48 -0.89,62.57 v 0 c -17.07,17.09 -44.61,16.49 -61.37,-0.91 l -181.69,-190.49 c -16.46,-17.4 -16.18,-45.79 0.89,-62.58 v 0 c 17.36,-17.09 44.9,-16.79 61.67,0.92 v 0" /><path
         id="path98"
         style="fill:#f9ab7c;fill-opacity:1;fill-rule:evenodd;stroke:none"
         d="m 2906.2,2514.95 4.19,1.83 c -25.45,-10.07 -54.47,3.37 -64.35,29.6 l -8.99,24.13 c -9.57,26.26 3.59,55.86 29.34,65.63 -25.75,-9.77 -54.78,3.66 -64.36,29.62 l -8.97,24.41 c -9.89,26.26 3.29,55.87 29.02,65.64 l -3.28,-1.22 c -23.96,-9.16 -50.89,3.05 -59.86,27.48 l -8.39,22.88 c -8.99,24.42 2.99,51.9 26.94,61.06 l 216.72,83.34 c 23.93,9.16 50.88,-3.06 59.85,-27.48 l 8.39,-22.89 c 8.99,-24.42 -3,-51.9 -26.94,-61.06 l 18.86,7.33 c 25.74,10.07 54.78,-3.36 64.35,-29.62 l 8.99,-24.4 c 9.88,-25.96 -3.31,-55.56 -29.04,-65.34 25.73,9.78 54.77,-3.66 64.36,-29.91 l 8.96,-24.12 c 9.6,-26.25 -3.28,-55.86 -29.02,-65.63 l -25.14,-9.77 c 23.34,9.16 49.68,-3.06 58.36,-26.86 l 8.39,-22.3 c 8.68,-23.8 -3.3,-50.67 -26.64,-59.52 l -211.33,-81.51 c -23.36,-8.86 -49.7,3.06 -58.67,26.85 l -8.09,22.3 c -8.97,23.81 3,50.68 26.35,59.53 v 0" /><path
         id="path100"
         style="fill:#c78057;fill-opacity:1;fill-rule:evenodd;stroke:none"
         d="m 2906.2,2514.95 4.19,1.83 c -24.24,-9.46 -51.48,2.15 -62.56,25.34 l 325.68,125.47 c 6.88,-25.03 -6.3,-51.9 -30.54,-61.36 l -25.14,-9.77 c 3.28,1.22 6.57,2.14 9.88,2.74 l -230.49,-88.83 c 2.69,1.83 5.68,3.36 8.98,4.58 v 0" /><path
         id="path102"
         style="fill:#c78057;fill-opacity:1;fill-rule:evenodd;stroke:none"
         d="m 2862.5,2633.4 4.18,1.83 c -24.24,-9.46 -51.48,2.13 -62.55,25.33 l 325.37,125.47 c 6.89,-25.03 -5.98,-51.9 -30.54,-61.36 l -25.13,-9.76 c 3.29,1.2 6.88,2.13 10.17,2.74 l -230.78,-88.83 c 2.7,1.82 5.98,3.35 9.28,4.58 v 0" /><path
         id="path104"
         style="fill:#c78057;fill-opacity:1;fill-rule:evenodd;stroke:none"
         d="m 2814.3,2755.19 4.2,1.53 c -22.76,-8.84 -48.79,3.06 -59.88,26.56 l 305.03,117.53 c 6.88,-25.03 -4.79,-51.59 -27.54,-60.14 l -23.65,-9.16 c 2.99,1.22 6.29,1.83 9.57,2.45 l -216.1,-83.34 c 2.38,1.83 5.38,3.36 8.37,4.57 v 0" /><path
         id="path106"
         style="fill:#c78057;fill-opacity:1;fill-rule:evenodd;stroke:none"
         d="m 2925.65,2403.53 c -15.86,1.82 -31.13,12.82 -38.61,29.3 l 298.44,114.79 c 6.28,-22.59 -2.4,-46.1 -20.66,-56.79 -2.1,-1.22 -3.88,-2.13 -5.98,-2.74 -61.67,-23.82 -132.31,-52.5 -201.15,-78.76 -9.89,-3.98 -13.47,-8.24 -32.04,-5.8 v 0" /><path
         id="path108"
         style="fill:#c78057;fill-opacity:1;fill-rule:evenodd;stroke:none"
         d="m 2444.63,2636.76 c 0,0 41.61,192.92 107.16,229.55 65.55,36.63 171.81,85.17 226.9,68.07 55.37,-17.09 126.6,-221.62 88.3,-239.94 -38.32,-18.61 -40.71,-35.4 -73.04,-9.44 -32.33,25.94 -66.75,133.7 -66.75,133.7 0,0 -63.45,-3.67 -71.85,-52.82 -11.96,-71.73 133.51,-138.59 -38.3,-208.5 -94.89,-38.45 -127.22,-34.49 -127.22,-34.49 l -45.2,113.87" /><path
         id="path110"
         style="fill:#f9ab7c;fill-opacity:1;fill-rule:evenodd;stroke:none"
         d="m 2419.79,2654.15 c 0,0 41.9,192.63 107.15,229.57 65.57,36.63 171.83,85.16 227.2,68.06 55.07,-17.09 126.32,-221.62 88.01,-240.23 -38.32,-18.63 -40.72,-35.11 -73.05,-9.16 -32.03,25.94 -66.74,133.7 -66.74,133.7 0,0 -63.46,-3.66 -71.55,-52.81 -12.27,-71.73 133.21,-138.59 -38.3,-208.49 -94.9,-38.78 -127.52,-34.8 -127.52,-34.8 l -45.2,114.16" /><path
         id="path112"
         style="fill:#4969bb;fill-opacity:1;fill-rule:evenodd;stroke:none"
         d="m 1970.32,3725.66 h -536.33 c -86.76,0 -158.01,-64.38 -158.01,-143.09 v -248.34 c 0,-78.72 71.25,-143.09 158.01,-143.09 h 420.66 l 231.33,-276.75 -109.71,277.01 c 84.08,2.7 151.75,66 151.75,142.83 v 248.34 c 0,78.71 -70.95,143.09 -157.7,143.09 v 0" /><path
         id="path114"
         style="fill:#ffffff;fill-opacity:1;fill-rule:evenodd;stroke:none"
         d="m 1993.87,3630.71 h -583.72 c -17.3,0 -31.6,-12.98 -31.6,-28.67 v 0 c 0,-15.69 14.3,-28.69 31.6,-28.69 h 583.72 c 17.29,0 31.6,13 31.6,28.69 v 0 c 0,15.69 -14.31,28.67 -31.6,28.67 v 0" /><path
         id="path116"
         style="fill:#ffffff;fill-opacity:1;fill-rule:evenodd;stroke:none"
         d="m 1993.87,3496 h -583.72 c -17.3,0 -31.6,-12.99 -31.6,-28.68 v 0 c 0,-15.69 14.3,-28.67 31.6,-28.67 h 583.72 c 17.29,0 31.6,12.98 31.6,28.67 v 0 c 0,15.69 -14.31,28.68 -31.6,28.68 v 0" /><path
         id="path118"
         style="fill:#ffffff;fill-opacity:1;fill-rule:evenodd;stroke:none"
         d="m 1993.87,3361.02 h -583.72 c -17.3,0 -31.6,-12.73 -31.6,-28.69 v 0 c 0,-15.69 14.3,-28.39 31.6,-28.39 h 583.72 c 17.29,0 31.6,12.7 31.6,28.39 v 0 c 0,15.96 -14.31,28.69 -31.6,28.69 v 0" /><path
         id="path120"
         style="fill:#80cc28;fill-opacity:1;fill-rule:evenodd;stroke:none"
         d="M 1039.57,3337.33 H 729.375 c -50.18,0 -91.387,-37.24 -91.387,-82.76 v -143.63 c 0,-45.53 41.207,-82.76 91.387,-82.76 h 243.297 l 133.788,-160.06 -63.45,160.21 c 48.63,1.57 87.77,38.18 87.77,82.61 v 143.63 c 0,45.52 -41.04,82.76 -91.21,82.76 v 0" /><path
         id="path122"
         style="fill:#ffffff;fill-opacity:1;fill-rule:evenodd;stroke:none"
         d="m 1053.19,3282.42 h -337.6 c -10.008,0 -18.277,-7.51 -18.277,-16.59 v 0 c 0,-9.07 8.269,-16.59 18.277,-16.59 h 337.6 c 10,0 18.27,7.52 18.27,16.59 v 0 c 0,9.08 -8.27,16.59 -18.27,16.59 v 0" /><path
         id="path124"
         style="fill:#ffffff;fill-opacity:1;fill-rule:evenodd;stroke:none"
         d="m 1053.19,3204.5 h -337.6 c -10.008,0 -18.277,-7.51 -18.277,-16.58 v 0 c 0,-9.08 8.269,-16.59 18.277,-16.59 h 337.6 c 10,0 18.27,7.51 18.27,16.59 v 0 c 0,9.07 -8.27,16.58 -18.27,16.58 v 0" /><path
         id="path126"
         style="fill:#ffffff;fill-opacity:1;fill-rule:evenodd;stroke:none"
         d="m 1053.19,3126.43 h -337.6 c -10.008,0 -18.277,-7.36 -18.277,-16.59 v 0 c 0,-9.07 8.269,-16.42 18.277,-16.42 h 337.6 c 10,0 18.27,7.35 18.27,16.42 v 0 c 0,9.23 -8.27,16.59 -18.27,16.59 v 0" /><path
         id="path128"
         style="fill:#fddd10;fill-opacity:1;fill-rule:evenodd;stroke:none"
         d="m 3705.6,2779 h 434.38 c 70.27,0 127.98,-52.14 127.98,-115.89 v -201.14 c 0,-63.76 -57.71,-115.9 -127.98,-115.9 h -340.7 l -187.37,-224.14 88.86,224.36 c -68.09,2.19 -122.9,53.46 -122.9,115.68 v 201.14 c 0,63.75 57.46,115.89 127.73,115.89 v 0" /><path
         id="path130"
         style="fill:#ffffff;fill-opacity:1;fill-rule:evenodd;stroke:none"
         d="m 3686.52,2702.1 h 472.77 c 14.01,0 25.59,-10.52 25.59,-23.22 v 0 c 0,-12.71 -11.58,-23.24 -25.59,-23.24 h -472.77 c -14,0 -25.59,10.53 -25.59,23.24 v 0 c 0,12.7 11.59,23.22 25.59,23.22 v 0" /><path
         id="path132"
         style="fill:#ffffff;fill-opacity:1;fill-rule:evenodd;stroke:none"
         d="m 3686.52,2592.99 h 472.77 c 14.01,0 25.59,-10.52 25.59,-23.22 v 0 c 0,-12.72 -11.58,-23.23 -25.59,-23.23 h -472.77 c -14,0 -25.59,10.51 -25.59,23.23 v 0 c 0,12.7 11.59,23.22 25.59,23.22 v 0" /><path
         id="path134"
         style="fill:#ffffff;fill-opacity:1;fill-rule:evenodd;stroke:none"
         d="m 3686.52,2483.66 h 472.77 c 14.01,0 25.59,-10.3 25.59,-23.23 v 0 c 0,-12.71 -11.58,-23 -25.59,-23 h -472.77 c -14,0 -25.59,10.29 -25.59,23 v 0 c 0,12.93 11.59,23.23 25.59,23.23 v 0" /><path
         id="path136"
         style="fill:#f1511b;fill-opacity:1;fill-rule:evenodd;stroke:none"
         d="m 3220.81,2005.88 h 275.34 c 44.54,0 81.13,-33.05 81.13,-73.46 v -127.49 c 0,-40.41 -36.59,-73.47 -81.13,-73.47 H 3280.2 l -118.76,-142.07 56.31,142.21 c -43.16,1.39 -77.9,33.89 -77.9,73.33 v 127.49 c 0,40.41 36.43,73.46 80.96,73.46 v 0" /><path
         id="path138"
         style="fill:#ffffff;fill-opacity:1;fill-rule:evenodd;stroke:none"
         d="m 3208.72,1957.14 h 299.67 c 8.89,0 16.23,-6.66 16.23,-14.72 v 0 c 0,-8.05 -7.34,-14.72 -16.23,-14.72 h -299.67 c -8.88,0 -16.22,6.67 -16.22,14.72 v 0 c 0,8.06 7.34,14.72 16.22,14.72 v 0" /><path
         id="path140"
         style="fill:#ffffff;fill-opacity:1;fill-rule:evenodd;stroke:none"
         d="m 3208.72,1887.98 h 299.67 c 8.89,0 16.23,-6.67 16.23,-14.72 v 0 c 0,-8.06 -7.34,-14.72 -16.23,-14.72 h -299.67 c -8.88,0 -16.22,6.66 -16.22,14.72 v 0 c 0,8.05 7.34,14.72 16.22,14.72 v 0" /><path
         id="path142"
         style="fill:#ffffff;fill-opacity:1;fill-rule:evenodd;stroke:none"
         d="m 3208.72,1818.68 h 299.67 c 8.89,0 16.23,-6.53 16.23,-14.72 v 0 c 0,-8.06 -7.34,-14.59 -16.23,-14.59 h -299.67 c -8.88,0 -16.22,6.53 -16.22,14.59 v 0 c 0,8.19 7.34,14.72 16.22,14.72 v 0" /><path
         id="path144"
         style="fill:#2c292a;fill-opacity:1;fill-rule:nonzero;stroke:none"
         d="m 1737.84,260.082 c 0,-4.613 0.72,-8.512 2.15,-11.73 1.42,-3.231 3.38,-5.661 5.85,-7.301 2.5,-1.629 5.2,-2.469 8.14,-2.469 2.98,0 5.7,0.789 8.16,2.348 2.46,1.539 4.44,3.922 5.9,7.129 1.47,3.203 2.21,7.222 2.21,12.023 0,4.508 -0.74,8.387 -2.21,11.66 -1.46,3.219 -3.45,5.707 -5.96,7.43 -2.5,1.707 -5.24,2.57 -8.22,2.57 -3.1,0 -5.88,-0.883 -8.32,-2.621 -2.44,-1.781 -4.34,-4.289 -5.68,-7.59 -1.35,-3.301 -2.02,-7.109 -2.02,-11.449 z m 33.33,-24.91 v 1.699 c -2.27,-2.621 -4.51,-4.742 -6.73,-6.359 -2.2,-1.641 -4.62,-2.891 -7.2,-3.731 -2.59,-0.871 -5.41,-1.269 -8.47,-1.269 -4.06,0 -7.81,0.84 -11.27,2.558 -3.46,1.711 -6.45,4.18 -8.97,7.36 -2.53,3.179 -4.44,6.91 -5.75,11.242 -1.3,4.297 -1.95,8.957 -1.95,13.969 0,10.578 2.59,18.851 7.76,24.769 5.18,5.91 11.98,8.871 20.43,8.871 4.87,0 9,-0.84 12.34,-2.511 3.37,-1.661 6.62,-4.258 9.81,-7.731 v 25.02 c 0,3.48 0.7,6.101 2.09,7.871 1.38,1.781 3.36,2.672 5.92,2.672 2.57,0 4.55,-0.821 5.94,-2.454 1.38,-1.636 2.08,-4.039 2.08,-7.226 v -74.75 c 0,-3.223 -0.75,-5.641 -2.24,-7.25 -1.49,-1.613 -3.41,-2.41 -5.78,-2.41 -2.31,0 -4.23,0.82 -5.73,2.5 -1.52,1.668 -2.28,4.07 -2.28,7.16" /><path
         id="path146"
         style="fill:#2c292a;fill-opacity:1;fill-rule:nonzero;stroke:none"
         d="m 1812.76,265.398 h 30.74 c -0.42,5.801 -1.99,10.153 -4.69,13.012 -2.72,2.891 -6.29,4.309 -10.7,4.309 -4.23,0 -7.7,-1.449 -10.41,-4.348 -2.71,-2.941 -4.36,-7.242 -4.94,-12.973 z m 33.15,-9.617 h -33.15 c 0.04,-3.84 0.81,-7.242 2.34,-10.172 1.5,-2.937 3.51,-5.16 6.01,-6.648 2.51,-1.492 5.27,-2.219 8.29,-2.219 2.03,0 3.87,0.219 5.55,0.688 1.69,0.5 3.3,1.23 4.88,2.25 1.58,1.011 3.02,2.101 4.35,3.269 1.32,1.153 3.04,2.742 5.15,4.723 0.87,0.726 2.11,1.109 3.73,1.109 1.74,0 3.14,-0.472 4.21,-1.441 1.07,-0.949 1.62,-2.281 1.62,-4.031 0,-1.528 -0.6,-3.309 -1.8,-5.36 -1.2,-2.051 -3.02,-4.008 -5.43,-5.91 -2.44,-1.867 -5.46,-3.437 -9.14,-4.68 -3.64,-1.25 -7.86,-1.847 -12.63,-1.847 -10.88,0 -19.34,3.09 -25.38,9.289 -6.05,6.219 -9.07,14.629 -9.07,25.281 0,5.008 0.75,9.648 2.24,13.93 1.49,4.277 3.66,7.937 6.51,11.019 2.86,3.059 6.38,5.41 10.56,7.051 4.18,1.629 8.81,2.449 13.91,2.449 6.61,0 12.3,-1.402 17.03,-4.191 4.74,-2.801 8.29,-6.399 10.65,-10.828 2.36,-4.43 3.54,-8.942 3.54,-13.532 0,-4.281 -1.22,-7.019 -3.66,-8.289 -2.43,-1.261 -5.88,-1.91 -10.31,-1.91" /><path
         id="path148"
         style="fill:#2c292a;fill-opacity:1;fill-rule:nonzero;stroke:none"
         d="m 1923.13,247.672 c 0,-4.68 -1.13,-8.692 -3.41,-12.031 -2.27,-3.332 -5.63,-5.86 -10.1,-7.571 -4.43,-1.718 -9.85,-2.558 -16.22,-2.558 -6.08,0 -11.3,0.929 -15.64,2.777 -4.35,1.871 -7.56,4.191 -9.63,6.973 -2.07,2.82 -3.1,5.617 -3.1,8.429 0,1.879 0.65,3.45 1.99,4.789 1.32,1.309 2.99,1.961 5.03,1.961 1.77,0 3.14,-0.421 4.09,-1.293 0.95,-0.878 1.86,-2.089 2.73,-3.656 1.74,-3.043 3.82,-5.273 6.24,-6.781 2.42,-1.481 5.72,-2.231 9.9,-2.231 3.4,0 6.18,0.77 8.36,2.258 2.16,1.532 3.25,3.254 3.25,5.203 0,2.969 -1.12,5.129 -3.38,6.5 -2.26,1.379 -5.97,2.68 -11.15,3.93 -5.84,1.43 -10.58,2.961 -14.24,4.57 -3.67,1.571 -6.6,3.688 -8.79,6.278 -2.19,2.613 -3.28,5.832 -3.28,9.633 0,3.378 1.01,6.597 3.03,9.617 2.04,3.019 5.02,5.429 8.99,7.242 3.94,1.801 8.7,2.699 14.29,2.699 4.39,0 8.33,-0.461 11.82,-1.379 3.51,-0.89 6.43,-2.133 8.77,-3.66 2.33,-1.531 4.11,-3.223 5.33,-5.082 1.22,-1.867 1.83,-3.668 1.83,-5.457 0,-1.953 -0.65,-3.543 -1.95,-4.801 -1.31,-1.222 -3.16,-1.851 -5.56,-1.851 -1.74,0 -3.22,0.5 -4.43,1.492 -1.22,1 -2.63,2.488 -4.19,4.457 -1.29,1.66 -2.8,2.992 -4.54,3.992 -1.73,0.988 -4.1,1.469 -7.08,1.469 -3.06,0 -5.6,-0.629 -7.64,-1.942 -2.01,-1.308 -3.03,-2.918 -3.03,-4.859 0,-1.789 0.74,-3.25 2.22,-4.391 1.5,-1.136 3.51,-2.089 6.04,-2.828 2.52,-0.75 5.99,-1.648 10.43,-2.718 5.25,-1.282 9.54,-2.84 12.87,-4.59 3.33,-1.782 5.85,-3.883 7.59,-6.321 1.7,-2.421 2.56,-5.179 2.56,-8.269" /><path
         id="path150"
         style="fill:#2c292a;fill-opacity:1;fill-rule:nonzero;stroke:none"
         d="m 1948.83,284.789 v -48.988 c 0,-3.391 -0.81,-5.961 -2.42,-7.692 -1.62,-1.738 -3.66,-2.597 -6.16,-2.597 -2.48,0 -4.49,0.867 -6.05,2.66 -1.55,1.769 -2.32,4.328 -2.32,7.629 v 48.488 c 0,3.352 0.77,5.871 2.32,7.582 1.56,1.68 3.57,2.539 6.05,2.539 2.5,0 4.54,-0.859 6.16,-2.539 1.61,-1.711 2.42,-4.07 2.42,-7.082 z m -8.38,17.492 c -2.37,0 -4.38,0.739 -6.05,2.18 -1.69,1.437 -2.52,3.488 -2.52,6.16 0,2.391 0.85,4.359 2.57,5.91 1.72,1.559 3.72,2.34 6,2.34 2.2,0 4.13,-0.711 5.83,-2.121 1.69,-1.41 2.55,-3.449 2.55,-6.129 0,-2.629 -0.83,-4.66 -2.49,-6.129 -1.65,-1.461 -3.61,-2.211 -5.89,-2.211" /><path
         id="path152"
         style="fill:#2c292a;fill-opacity:1;fill-rule:nonzero;stroke:none"
         d="m 1973.96,260.512 c 0,-6.883 1.5,-12.071 4.5,-15.582 3,-3.52 6.88,-5.282 11.65,-5.282 2.81,0 5.47,0.75 7.97,2.262 2.51,1.52 4.54,3.801 6.12,6.828 1.56,3.051 2.36,6.731 2.36,11.071 0,6.933 -1.53,12.312 -4.57,16.16 -3.03,3.84 -7.04,5.773 -12.01,5.773 -4.84,0 -8.72,-1.851 -11.64,-5.543 -2.92,-3.668 -4.38,-8.91 -4.38,-15.687 z M 2023.08,282 v -49.25 c 0,-5.609 -0.61,-10.461 -1.82,-14.531 -1.19,-4.028 -3.12,-7.399 -5.77,-10.047 -2.65,-2.633 -6.11,-4.621 -10.4,-5.891 -4.26,-1.289 -9.61,-1.929 -15.98,-1.929 -5.83,0 -11.05,0.828 -15.64,2.457 -4.59,1.632 -8.13,3.75 -10.62,6.32 -2.47,2.601 -3.72,5.242 -3.72,7.98 0,2.071 0.69,3.77 2.11,5.063 1.4,1.32 3.11,1.969 5.08,1.969 2.49,0 4.66,-1.11 6.52,-3.301 0.91,-1.11 1.85,-2.258 2.82,-3.391 0.99,-1.14 2.06,-2.097 3.23,-2.91 1.19,-0.809 2.61,-1.418 4.26,-1.809 1.66,-0.39 3.56,-0.57 5.71,-0.57 4.39,0 7.79,0.602 10.21,1.82 2.43,1.219 4.13,2.918 5.1,5.129 0.97,2.18 1.54,4.52 1.7,7.039 0.17,2.493 0.3,6.543 0.38,12.071 -2.62,-3.649 -5.62,-6.41 -9.04,-8.321 -3.41,-1.886 -7.48,-2.847 -12.2,-2.847 -5.67,0 -10.62,1.461 -14.87,4.351 -4.24,2.899 -7.5,6.938 -9.76,12.157 -2.29,5.222 -3.42,11.23 -3.42,18.062 0,5.098 0.69,9.699 2.07,13.789 1.4,4.102 3.37,7.551 5.94,10.36 2.56,2.82 5.51,4.929 8.87,6.371 3.34,1.41 7.03,2.14 11.04,2.14 4.81,0 8.97,-0.929 12.49,-2.761 3.51,-1.84 6.79,-4.731 9.81,-8.668 v 2.308 c 0,2.93 0.71,5.199 2.17,6.832 1.45,1.59 3.32,2.418 5.59,2.418 3.26,0 5.44,-1.07 6.51,-3.199 1.08,-2.129 1.63,-5.199 1.63,-9.211" /><path
         id="path154"
         style="fill:#2c292a;fill-opacity:1;fill-rule:nonzero;stroke:none"
         d="m 2050,285.031 v -2.051 c 2.98,3.93 6.25,6.821 9.78,8.661 3.54,1.839 7.6,2.769 12.19,2.769 4.48,0 8.47,-0.98 11.99,-2.922 3.52,-1.949 6.15,-4.699 7.89,-8.246 1.11,-2.082 1.84,-4.32 2.17,-6.711 0.32,-2.41 0.5,-5.472 0.5,-9.199 v -31.531 c 0,-3.391 -0.77,-5.961 -2.33,-7.692 -1.56,-1.738 -3.57,-2.597 -6.05,-2.597 -2.54,0 -4.58,0.867 -6.15,2.66 -1.58,1.769 -2.35,4.328 -2.35,7.629 v 28.258 c 0,5.57 -0.79,9.851 -2.34,12.812 -1.55,2.949 -4.65,4.438 -9.28,4.438 -3.02,0 -5.78,-0.899 -8.26,-2.707 -2.48,-1.793 -4.3,-4.262 -5.46,-7.422 -0.83,-2.508 -1.24,-7.219 -1.24,-14.149 v -21.23 c 0,-3.43 -0.8,-6.02 -2.39,-7.731 -1.59,-1.718 -3.66,-2.558 -6.17,-2.558 -2.45,0 -4.45,0.867 -6.03,2.66 -1.57,1.769 -2.36,4.328 -2.36,7.629 v 48.988 c 0,3.223 0.7,5.641 2.12,7.231 1.4,1.589 3.32,2.39 5.77,2.39 1.49,0 2.83,-0.359 4.04,-1.07 1.19,-0.699 2.16,-1.75 2.88,-3.141 0.72,-1.418 1.08,-3.14 1.08,-5.168" /><path
         id="path156"
         style="fill:#2c292a;fill-opacity:1;fill-rule:nonzero;stroke:none"
         d="m 2119.97,265.398 h 30.72 c -0.42,5.801 -1.98,10.153 -4.69,13.012 -2.71,2.891 -6.27,4.309 -10.71,4.309 -4.22,0 -7.69,-1.449 -10.4,-4.348 -2.71,-2.941 -4.34,-7.242 -4.92,-12.973 z m 33.14,-9.617 h -33.14 c 0.03,-3.84 0.81,-7.242 2.32,-10.172 1.52,-2.937 3.52,-5.16 6.03,-6.648 2.49,-1.492 5.26,-2.219 8.28,-2.219 2.03,0 3.88,0.219 5.55,0.688 1.68,0.5 3.3,1.23 4.88,2.25 1.57,1.011 3.01,2.101 4.35,3.269 1.32,1.153 3.03,2.742 5.14,4.723 0.88,0.726 2.11,1.109 3.73,1.109 1.74,0 3.15,-0.472 4.22,-1.441 1.08,-0.949 1.61,-2.281 1.61,-4.031 0,-1.528 -0.6,-3.309 -1.8,-5.36 -1.2,-2.051 -3.01,-4.008 -5.43,-5.91 -2.42,-1.867 -5.46,-3.437 -9.12,-4.68 -3.67,-1.25 -7.88,-1.847 -12.64,-1.847 -10.88,0 -19.34,3.09 -25.39,9.289 -6.03,6.219 -9.06,14.629 -9.06,25.281 0,5.008 0.74,9.648 2.23,13.93 1.49,4.277 3.67,7.937 6.53,11.019 2.85,3.059 6.37,5.41 10.54,7.051 4.18,1.629 8.83,2.449 13.91,2.449 6.63,0 12.3,-1.402 17.04,-4.191 4.74,-2.801 8.29,-6.399 10.65,-10.828 2.35,-4.43 3.54,-8.942 3.54,-13.532 0,-4.281 -1.22,-7.019 -3.66,-8.289 -2.44,-1.261 -5.88,-1.91 -10.31,-1.91" /><path
         id="path158"
         style="fill:#2c292a;fill-opacity:1;fill-rule:nonzero;stroke:none"
         d="m 2188.86,260.082 c 0,-4.613 0.71,-8.512 2.14,-11.73 1.43,-3.231 3.39,-5.661 5.88,-7.301 2.48,-1.629 5.18,-2.469 8.12,-2.469 2.98,0 5.71,0.789 8.16,2.348 2.47,1.539 4.43,3.922 5.9,7.129 1.47,3.203 2.2,7.222 2.2,12.023 0,4.508 -0.73,8.387 -2.2,11.66 -1.47,3.219 -3.45,5.707 -5.95,7.43 -2.51,1.707 -5.25,2.57 -8.24,2.57 -3.1,0 -5.87,-0.883 -8.31,-2.621 -2.44,-1.781 -4.34,-4.289 -5.69,-7.59 -1.34,-3.301 -2.01,-7.109 -2.01,-11.449 z m 33.33,-24.91 v 1.699 c -2.27,-2.621 -4.52,-4.742 -6.73,-6.359 -2.21,-1.641 -4.62,-2.891 -7.19,-3.731 -2.6,-0.871 -5.41,-1.269 -8.48,-1.269 -4.06,0 -7.82,0.84 -11.27,2.558 -3.46,1.711 -6.44,4.18 -8.97,7.36 -2.52,3.179 -4.44,6.91 -5.74,11.242 -1.31,4.297 -1.95,8.957 -1.95,13.969 0,10.578 2.57,18.851 7.75,24.769 5.17,5.91 11.99,8.871 20.42,8.871 4.89,0 9.01,-0.84 12.36,-2.511 3.35,-1.661 6.62,-4.258 9.8,-7.731 v 25.02 c 0,3.48 0.7,6.101 2.09,7.871 1.38,1.781 3.36,2.672 5.93,2.672 2.56,0 4.53,-0.821 5.93,-2.454 1.38,-1.636 2.07,-4.039 2.07,-7.226 v -74.75 c 0,-3.223 -0.73,-5.641 -2.22,-7.25 -1.5,-1.613 -3.42,-2.41 -5.78,-2.41 -2.32,0 -4.23,0.82 -5.75,2.5 -1.51,1.668 -2.27,4.07 -2.27,7.16" /><path
         id="path160"
         style="fill:#2c292a;fill-opacity:1;fill-rule:nonzero;stroke:none"
         d="m 2292.28,259.57 c 0,-6.738 1.53,-11.91 4.62,-15.539 3.08,-3.633 7.12,-5.449 12.13,-5.449 4.26,0 7.94,1.867 11.02,5.566 3.08,3.711 4.63,9 4.63,15.934 0,4.457 -0.63,8.316 -1.93,11.527 -1.28,3.243 -3.1,5.731 -5.46,7.512 -2.36,1.738 -5.11,2.621 -8.26,2.621 -3.22,0 -6.1,-0.883 -8.63,-2.621 -2.52,-1.781 -4.51,-4.32 -5.96,-7.641 -1.44,-3.351 -2.16,-7.3 -2.16,-11.91 z m -0.81,50.352 v -25.883 c 3.18,3.32 6.44,5.852 9.75,7.602 3.3,1.781 7.4,2.64 12.29,2.64 5.62,0 10.56,-1.332 14.8,-4.011 4.23,-2.661 7.53,-6.54 9.87,-11.598 2.34,-5.07 3.51,-11.09 3.51,-18.031 0,-5.149 -0.65,-9.852 -1.95,-14.141 -1.31,-4.27 -3.2,-7.98 -5.69,-11.129 -2.48,-3.141 -5.5,-5.59 -9.03,-7.301 -3.54,-1.718 -7.43,-2.558 -11.7,-2.558 -2.61,0 -5.07,0.308 -7.36,0.929 -2.29,0.61 -4.26,1.418 -5.87,2.45 -1.6,1 -2.98,2.039 -4.12,3.121 -1.14,1.078 -2.64,2.687 -4.5,4.859 v -1.699 c 0,-3.172 -0.78,-5.57 -2.3,-7.231 -1.52,-1.632 -3.47,-2.429 -5.84,-2.429 -2.4,0 -4.31,0.797 -5.74,2.429 -1.43,1.661 -2.15,4.059 -2.15,7.231 v 74.008 c 0,3.441 0.7,6.031 2.08,7.789 1.4,1.769 3.33,2.633 5.81,2.633 2.61,0 4.62,-0.821 6.03,-2.5 1.4,-1.68 2.11,-4.051 2.11,-7.18" /><path
         id="path162"
         style="fill:#2c292a;fill-opacity:1;fill-rule:nonzero;stroke:none"
         d="m 2363.66,223.379 1.55,3.793 -20.86,52.527 c -1.27,3.012 -1.92,5.199 -1.92,6.571 0,1.449 0.37,2.8 1.12,4.039 0.75,1.25 1.76,2.242 3.07,2.98 1.3,0.742 2.66,1.121 4.06,1.121 2.45,0 4.28,-0.781 5.53,-2.328 1.25,-1.562 2.34,-3.773 3.29,-6.672 l 14.34,-41.719 13.59,38.797 c 1.08,3.141 2.05,5.602 2.93,7.391 0.87,1.769 1.78,2.98 2.76,3.59 0.97,0.633 2.34,0.941 4.12,0.941 1.29,0 2.52,-0.359 3.7,-1.039 1.17,-0.68 2.09,-1.59 2.73,-2.75 0.63,-1.16 0.96,-2.379 0.96,-3.672 -0.17,-0.777 -0.43,-1.89 -0.81,-3.359 -0.38,-1.43 -0.83,-2.93 -1.36,-4.391 l -22.09,-57.847 c -1.92,-5.102 -3.77,-9.082 -5.59,-11.981 -1.83,-2.91 -4.23,-5.141 -7.24,-6.68 -3,-1.562 -7.05,-2.339 -12.14,-2.339 -4.96,0 -8.69,0.539 -11.16,1.597 -2.49,1.102 -3.74,3.063 -3.74,5.91 0,1.942 0.58,3.45 1.78,4.512 1.17,1.051 2.93,1.598 5.24,1.598 0.91,0 1.8,-0.137 2.68,-0.387 1.07,-0.25 2,-0.383 2.78,-0.383 1.94,0 3.48,0.301 4.6,0.883 1.12,0.578 2.12,1.559 3.01,3.008 0.89,1.43 1.91,3.531 3.07,6.289" /><path
         id="path164"
         style="fill:#2c292a;fill-opacity:1;fill-rule:nonzero;stroke:none"
         d="m 2609.18,292.941 h 4.04 v 5.079 c 0,5.339 0.65,9.539 1.99,12.66 1.33,3.129 3.64,5.402 6.86,6.84 3.2,1.41 7.59,2.14 13.16,2.14 9.94,0 14.87,-2.398 14.87,-7.281 0,-1.57 -0.52,-2.918 -1.57,-4.027 -1,-1.11 -2.24,-1.672 -3.66,-1.672 -0.64,0 -1.8,0.121 -3.43,0.379 -1.56,0.222 -2.97,0.371 -4.08,0.371 -3.05,0 -5.01,-0.93 -5.91,-2.711 -0.82,-1.809 -1.27,-4.367 -1.27,-7.75 v -4.028 h 4.13 c 6.48,0 9.68,-1.929 9.68,-5.859 0,-2.723 -0.85,-4.5 -2.57,-5.25 -1.71,-0.75 -4.09,-1.133 -7.11,-1.133 h -4.13 v -44.898 c 0,-3.332 -0.8,-5.891 -2.44,-7.629 -1.57,-1.793 -3.6,-2.652 -6.15,-2.652 -2.4,0 -4.38,0.859 -5.99,2.652 -1.6,1.738 -2.38,4.297 -2.38,7.629 v 44.898 h -4.67 c -2.53,0 -4.46,0.563 -5.84,1.723 -1.37,1.117 -2.06,2.609 -2.06,4.43 0,4.078 2.85,6.089 8.53,6.089" /><path
         id="path166"
         style="fill:#2c292a;fill-opacity:1;fill-rule:nonzero;stroke:none"
         d="m 2664.66,249.969 v -14.168 c 0,-3.422 -0.86,-6.012 -2.45,-7.711 -1.6,-1.738 -3.66,-2.57 -6.12,-2.57 -2.51,0 -4.5,0.851 -6.06,2.601 -1.54,1.731 -2.35,4.301 -2.35,7.68 v 47.211 c 0,7.609 2.73,11.429 8.23,11.429 2.84,0 4.86,-0.89 6.11,-2.671 1.25,-1.79 1.93,-4.411 2.07,-7.891 2,3.48 4.08,6.101 6.2,7.891 2.17,1.781 4.98,2.671 8.56,2.671 3.57,0 7.01,-0.89 10.36,-2.671 3.37,-1.79 5.05,-4.161 5.05,-7.079 0,-2.07 -0.72,-3.793 -2.14,-5.121 -1.43,-1.359 -2.97,-2.031 -4.61,-2.031 -0.65,0 -2.17,0.41 -4.53,1.172 -2.39,0.738 -4.5,1.129 -6.3,1.129 -2.48,0 -4.51,-0.668 -6.08,-1.949 -1.59,-1.34 -2.82,-3.243 -3.69,-5.789 -0.85,-2.59 -1.44,-5.661 -1.78,-9.172 -0.33,-3.551 -0.47,-7.879 -0.47,-12.961" /><path
         id="path168"
         style="fill:#2c292a;fill-opacity:1;fill-rule:nonzero;stroke:none"
         d="m 2709.41,265.441 h 30.74 c -0.41,5.778 -1.97,10.118 -4.68,12.981 -2.74,2.887 -6.27,4.308 -10.72,4.308 -4.22,0 -7.69,-1.429 -10.39,-4.359 -2.73,-2.922 -4.38,-7.223 -4.95,-12.93 m 33.16,-9.64 h -33.16 c 0.05,-3.84 0.8,-7.262 2.32,-10.18 1.53,-2.922 3.52,-5.141 6.03,-6.66 2.52,-1.473 5.26,-2.211 8.3,-2.211 2.04,0 3.88,0.211 5.55,0.73 1.67,0.461 3.3,1.211 4.87,2.231 1.59,1 3.02,2.07 4.34,3.269 1.34,1.129 3.06,2.711 5.17,4.7 0.89,0.718 2.13,1.14 3.72,1.14 1.75,0 3.13,-0.488 4.24,-1.461 1.09,-0.957 1.59,-2.289 1.59,-4.027 0,-1.551 -0.59,-3.332 -1.74,-5.363 -1.24,-2.071 -3.05,-4.02 -5.46,-5.93 -2.46,-1.848 -5.49,-3.437 -9.15,-4.668 -3.64,-1.242 -7.87,-1.851 -12.63,-1.851 -10.91,0 -19.37,3.082 -25.4,9.269 -6.03,6.242 -9.08,14.672 -9.08,25.301 0,5.019 0.76,9.66 2.27,13.941 1.46,4.321 3.64,7.969 6.53,11.039 2.83,3.071 6.34,5.41 10.52,7.059 4.17,1.633 8.81,2.441 13.91,2.441 6.6,0 12.31,-1.41 17.03,-4.23 4.75,-2.758 8.34,-6.379 10.66,-10.82 2.37,-4.438 3.54,-8.93 3.54,-13.551 0,-4.227 -1.24,-7 -3.67,-8.258 -2.44,-1.27 -5.87,-1.91 -10.3,-1.91" /><path
         id="path170"
         style="fill:#2c292a;fill-opacity:1;fill-rule:nonzero;stroke:none"
         d="m 2779.93,265.441 h 30.72 c -0.42,5.778 -2,10.118 -4.67,12.981 -2.76,2.887 -6.29,4.308 -10.74,4.308 -4.21,0 -7.68,-1.429 -10.42,-4.359 -2.69,-2.922 -4.34,-7.223 -4.89,-12.93 m 33.15,-9.64 h -33.15 c 0.03,-3.84 0.81,-7.262 2.32,-10.18 1.5,-2.922 3.51,-5.141 6.01,-6.66 2.51,-1.473 5.27,-2.211 8.31,-2.211 2,0 3.88,0.211 5.52,0.73 1.71,0.461 3.3,1.211 4.89,2.231 1.59,1 3.02,2.07 4.35,3.269 1.3,1.129 3.03,2.711 5.15,4.7 0.88,0.718 2.13,1.14 3.73,1.14 1.74,0 3.15,-0.488 4.25,-1.461 1.06,-0.957 1.57,-2.289 1.57,-4.027 0,-1.551 -0.57,-3.332 -1.8,-5.363 -1.16,-2.071 -2.97,-4.02 -5.42,-5.93 -2.41,-1.848 -5.49,-3.437 -9.14,-4.668 -3.62,-1.242 -7.88,-1.851 -12.62,-1.851 -10.91,0 -19.35,3.082 -25.41,9.269 -6.04,6.242 -9.08,14.672 -9.08,25.301 0,5.019 0.76,9.66 2.28,13.941 1.47,4.321 3.64,7.969 6.51,11.039 2.83,3.071 6.35,5.41 10.54,7.059 4.18,1.633 8.82,2.441 13.92,2.441 6.59,0 12.27,-1.41 17.08,-4.23 4.7,-2.758 8.27,-6.379 10.59,-10.82 2.36,-4.438 3.57,-8.93 3.57,-13.551 0,-4.227 -1.25,-7 -3.68,-8.258 -2.45,-1.27 -5.88,-1.91 -10.29,-1.91" /><path
         id="path172"
         style="fill:#2c292a;fill-opacity:1;fill-rule:nonzero;stroke:none"
         d="m 2883.44,260.27 c 0,4.48 -0.71,8.332 -2.06,11.531 -1.36,3.23 -3.26,5.668 -5.66,7.371 -2.41,1.726 -5.11,2.598 -8.06,2.598 -4.66,0 -8.62,-1.879 -11.82,-5.532 -3.21,-3.687 -4.84,-9.109 -4.84,-16.277 0,-6.719 1.62,-11.992 4.82,-15.731 3.18,-3.75 7.09,-5.621 11.84,-5.621 2.8,0 5.44,0.832 7.83,2.442 2.42,1.648 4.34,4.101 5.77,7.347 1.45,3.301 2.18,7.25 2.18,11.872 m -33.24,24.628 v -2.039 c 3.18,3.95 6.5,6.832 9.97,8.661 3.39,1.859 7.31,2.8 11.65,2.8 5.19,0 10.03,-1.359 14.42,-4.05 4.39,-2.688 7.83,-6.622 10.38,-11.79 2.57,-5.21 3.84,-11.308 3.84,-18.39 0,-5.211 -0.74,-10.02 -2.2,-14.391 -1.45,-4.367 -3.51,-8 -6.07,-10.969 -2.56,-2.941 -5.6,-5.238 -9.07,-6.851 -3.55,-1.57 -7.28,-2.359 -11.3,-2.359 -4.83,0 -8.92,0.949 -12.19,2.91 -3.29,1.91 -6.43,4.789 -9.43,8.531 V 211.52 c 0,-7.418 -2.71,-11.18 -8.13,-11.18 -3.21,0 -5.28,0.969 -6.34,2.89 -0.99,1.95 -1.54,4.731 -1.54,8.43 v 73.172 c 0,3.227 0.7,5.609 2.1,7.227 1.41,1.57 3.34,2.382 5.78,2.382 2.4,0 4.35,-0.812 5.86,-2.449 1.53,-1.652 2.27,-3.992 2.27,-7.094" /><path
         id="path174"
         style="fill:#2c292a;fill-opacity:1;fill-rule:nonzero;stroke:none"
         d="m 2925.92,284.832 v -49.051 c 0,-3.359 -0.8,-5.929 -2.41,-7.66 -1.64,-1.75 -3.68,-2.601 -6.16,-2.601 -2.49,0 -4.48,0.859 -6.06,2.652 -1.53,1.797 -2.33,4.34 -2.33,7.609 v 48.559 c 0,3.332 0.8,5.859 2.33,7.531 1.58,1.738 3.57,2.57 6.06,2.57 2.48,0 4.52,-0.832 6.16,-2.57 1.61,-1.672 2.41,-4.062 2.41,-7.039 m -8.4,17.5 c -2.36,0 -4.38,0.738 -6.04,2.18 -1.68,1.48 -2.52,3.48 -2.52,6.117 0,2.422 0.85,4.383 2.59,5.961 1.72,1.531 3.69,2.32 5.97,2.32 2.23,0 4.16,-0.699 5.85,-2.078 1.69,-1.441 2.55,-3.512 2.55,-6.203 0,-2.598 -0.83,-4.637 -2.47,-6.109 -1.66,-1.45 -3.62,-2.188 -5.93,-2.188" /><path
         id="path176"
         style="fill:#2c292a;fill-opacity:1;fill-rule:nonzero;stroke:none"
         d="m 2980.56,233.242 -14.93,24.617 -9.2,-8.687 v -13.5 c 0,-3.25 -0.87,-5.762 -2.59,-7.5 -1.68,-1.793 -3.7,-2.652 -5.93,-2.652 -2.61,0 -4.67,0.851 -6.14,2.601 -1.5,1.731 -2.26,4.301 -2.26,7.68 v 72.32 c 0,3.75 0.75,6.609 2.17,8.578 1.46,1.992 3.55,2.961 6.23,2.961 2.62,0 4.65,-0.898 6.21,-2.699 1.51,-1.75 2.31,-4.391 2.31,-7.859 V 267.98 l 19.05,20.012 c 2.37,2.469 4.15,4.188 5.41,5.09 1.23,0.906 2.74,1.359 4.5,1.359 2.14,0 3.89,-0.679 5.34,-2.019 1.38,-1.34 2.08,-3.051 2.08,-5.063 0,-2.48 -2.31,-5.808 -6.88,-9.937 l -9.01,-8.262 17.39,-27.328 c 1.26,-2.043 2.21,-3.551 2.76,-4.613 0.55,-1.047 0.86,-2.09 0.86,-3.02 0,-2.711 -0.75,-4.801 -2.24,-6.367 -1.45,-1.562 -3.42,-2.312 -5.78,-2.312 -2.08,0 -3.69,0.519 -4.79,1.679 -1.12,1.102 -2.68,3.141 -4.56,6.043" /><path
         id="path178"
         style="fill:#2c292a;fill-opacity:1;fill-rule:nonzero;stroke:none"
         d="m 3017.38,225.52 c -2.55,0 -4.74,0.812 -6.63,2.492 -1.84,1.617 -2.79,3.937 -2.79,6.949 0,2.519 0.9,4.699 2.67,6.5 1.8,1.828 3.98,2.738 6.6,2.738 2.59,0 4.8,-0.91 6.69,-2.687 1.82,-1.801 2.75,-4.012 2.75,-6.551 0,-2.961 -0.93,-5.281 -2.75,-6.93 -1.89,-1.699 -4.06,-2.511 -6.54,-2.511" /><path
         id="path180"
         style="fill:#2c292a;fill-opacity:1;fill-rule:nonzero;stroke:none"
         d="m 3101.69,246.488 c 0,-2.097 -0.64,-4.367 -1.9,-6.758 -1.25,-2.429 -3.2,-4.691 -5.78,-6.871 -2.58,-2.168 -5.83,-3.918 -9.77,-5.238 -3.93,-1.32 -8.37,-2 -13.27,-2 -10.5,0 -18.68,3.059 -24.56,9.149 -5.85,6.109 -8.79,14.3 -8.79,24.582 0,6.968 1.33,13.109 4.03,18.449 2.66,5.32 6.57,9.469 11.64,12.398 5.1,2.922 11.22,4.371 18.27,4.371 4.4,0 8.42,-0.648 12.1,-1.929 3.66,-1.27 6.75,-2.95 9.33,-4.969 2.52,-2.051 4.47,-4.203 5.8,-6.492 1.35,-2.301 2,-4.438 2,-6.43 0,-2.02 -0.73,-3.75 -2.23,-5.16 -1.54,-1.41 -3.37,-2.11 -5.47,-2.11 -1.44,0 -2.61,0.372 -3.54,1.079 -0.96,0.73 -1.99,1.902 -3.14,3.543 -2.07,3.109 -4.21,5.5 -6.5,7.058 -2.25,1.582 -5.12,2.36 -8.59,2.36 -4.98,0 -9.04,-1.95 -12.12,-5.872 -3.05,-3.886 -4.6,-9.269 -4.6,-16.027 0,-3.191 0.41,-6.141 1.21,-8.82 0.76,-2.66 1.9,-4.942 3.39,-6.821 1.51,-1.871 3.31,-3.3 5.41,-4.269 2.12,-1.012 4.44,-1.492 6.95,-1.492 3.4,0 6.31,0.793 8.73,2.383 2.46,1.57 4.6,3.968 6.46,7.187 1.02,1.902 2.14,3.391 3.32,4.473 1.19,1.058 2.67,1.617 4.41,1.617 2.07,0 3.79,-0.789 5.15,-2.359 1.38,-1.579 2.06,-3.258 2.06,-5.032" /><path
         id="path182"
         style="fill:#2c292a;fill-opacity:1;fill-rule:nonzero;stroke:none"
         d="m 3157.82,259.961 c 0,6.91 -1.54,12.289 -4.56,16.129 -3.04,3.89 -7.11,5.808 -12.24,5.808 -3.33,0 -6.25,-0.859 -8.78,-2.566 -2.52,-1.723 -4.46,-4.25 -5.82,-7.613 -1.37,-3.367 -2.06,-7.278 -2.06,-11.758 0,-4.43 0.66,-8.289 2.02,-11.59 1.35,-3.332 3.28,-5.851 5.78,-7.621 2.54,-1.75 5.47,-2.648 8.86,-2.648 5.13,0 9.2,1.937 12.24,5.839 3.02,3.848 4.56,9.207 4.56,16.02 m 17.01,0 c 0,-5.031 -0.79,-9.699 -2.31,-13.981 -1.62,-4.261 -3.88,-7.921 -6.88,-10.968 -2.96,-3.063 -6.54,-5.41 -10.65,-7.051 -4.18,-1.629 -8.82,-2.449 -13.97,-2.449 -5.14,0 -9.77,0.82 -13.88,2.5 -4.07,1.617 -7.64,4 -10.63,7.07 -2.99,3.109 -5.28,6.75 -6.87,10.957 -1.49,4.191 -2.28,8.84 -2.28,13.922 0,5.148 0.81,9.84 2.35,14.09 1.56,4.301 3.83,7.949 6.77,10.949 2.94,3.012 6.5,5.34 10.66,6.992 4.21,1.637 8.83,2.449 13.88,2.449 5.13,0 9.77,-0.812 13.97,-2.492 4.17,-1.64 7.73,-4.019 10.73,-7.07 3,-3.09 5.26,-6.719 6.81,-10.918 1.52,-4.25 2.3,-8.871 2.3,-14" /><path
         id="path184"
         style="fill:#2c292a;fill-opacity:1;fill-rule:nonzero;stroke:none"
         d="M 3239.49,258.719 V 236.18 c 0,-3.571 -0.78,-6.211 -2.41,-8.008 -1.64,-1.793 -3.73,-2.66 -6.39,-2.66 -2.56,0 -4.67,0.867 -6.22,2.66 -1.62,1.797 -2.44,4.437 -2.44,8.008 v 27.011 c 0,4.258 -0.13,7.59 -0.4,9.957 -0.3,2.321 -1.1,4.293 -2.37,5.774 -1.29,1.527 -3.33,2.297 -6.09,2.297 -5.55,0 -9.2,-1.887 -10.95,-5.75 -1.74,-3.778 -2.65,-9.239 -2.65,-16.387 V 236.18 c 0,-3.5 -0.8,-6.18 -2.37,-8 -1.63,-1.758 -3.71,-2.668 -6.3,-2.668 -2.6,0 -4.69,0.91 -6.34,2.668 -1.63,1.82 -2.44,4.5 -2.44,8 v 48.511 c 0,3.18 0.72,5.618 2.19,7.258 1.5,1.68 3.43,2.492 5.81,2.492 2.33,0 4.25,-0.812 5.83,-2.312 1.53,-1.57 2.31,-3.707 2.31,-6.449 v -1.59 c 2.96,3.492 6.12,6.082 9.45,7.711 3.36,1.711 7.07,2.519 11.19,2.519 4.25,0 7.91,-0.859 10.96,-2.55 3.07,-1.688 5.58,-4.282 7.6,-7.68 2.86,3.441 5.93,6.019 9.2,7.711 3.28,1.679 6.88,2.519 10.86,2.519 4.62,0 8.64,-0.941 11.98,-2.738 3.35,-1.812 5.85,-4.441 7.51,-7.82 1.45,-3.102 2.15,-7.903 2.15,-14.481 V 236.18 c 0,-3.571 -0.78,-6.211 -2.39,-8.008 -1.6,-1.793 -3.75,-2.66 -6.4,-2.66 -2.59,0 -4.67,0.91 -6.31,2.668 -1.64,1.82 -2.46,4.5 -2.46,8 v 28.519 c 0,3.653 -0.15,6.563 -0.45,8.742 -0.3,2.2 -1.15,4.047 -2.5,5.528 -1.38,1.48 -3.46,2.25 -6.23,2.25 -2.22,0 -4.34,-0.688 -6.37,-2.008 -2.01,-1.289 -3.57,-3.121 -4.7,-5.301 -1.21,-2.871 -1.86,-7.941 -1.86,-15.191" /><path
         id="path186"
         style="fill:#2c292a;fill-opacity:1;fill-rule:nonzero;stroke:none"
         d="m 2450.56,264.07 c -0.02,0.02 -0.02,0.051 -0.02,0.121 0,-0.07 0,-0.101 0.02,-0.121" /><path
         id="path188"
         style="fill:#2c292a;fill-opacity:1;fill-rule:nonzero;stroke:none"
         d="m 2451.41,258.641 c 0.02,0 0.02,0 0.03,0 -0.34,1.558 -0.58,3.078 -0.79,4.589 0.21,-1.531 0.45,-3.05 0.76,-4.589" /><path
         id="path190"
         style="fill:#2c292a;fill-opacity:1;fill-rule:nonzero;stroke:none"
         d="m 2457.02,242.91 c -0.03,0.082 -0.06,0.141 -0.11,0.219 0.05,-0.078 0.08,-0.137 0.11,-0.219" /><path
         id="path192"
         style="fill:#2c292a;fill-opacity:1;fill-rule:nonzero;stroke:none"
         d="m 2456.49,243.961 c -0.15,0.289 -0.28,0.59 -0.43,0.871 0.15,-0.312 0.28,-0.582 0.43,-0.871" /><path
         id="path194"
         style="fill:#2c292a;fill-opacity:1;fill-rule:nonzero;stroke:none"
         d="m 2452.99,252.59 c 0.83,-2.621 1.82,-5.16 2.99,-7.57 -1.18,2.468 -2.16,5.011 -2.97,7.57 h -0.02" /><path
         id="path196"
         style="fill:#2c292a;fill-opacity:1;fill-rule:nonzero;stroke:none"
         d="m 2516.16,329 c 3.28,0 5.71,-0.262 8.47,-0.73 l 0.79,5 c 0,0 -7.66,2.339 -17.72,1.519 l -0.79,2.723 c 3.12,0.66 5.47,3.437 5.47,6.758 0,3.82 -3.1,6.89 -6.91,6.89 -3.81,0 -6.9,-3.07 -6.9,-6.89 0,-3.321 2.34,-6.098 5.46,-6.758 l 0.88,-3.02 c -10.68,-1.472 -19.18,-5.633 -19.18,-5.633 l 1.5,-4.617 c 6.47,2.16 12.07,3.469 17.15,4.008 4.99,0.531 8.74,0.75 11.78,0.75" /><path
         id="path198"
         style="fill:#2c292a;fill-opacity:1;fill-rule:nonzero;stroke:none"
         d="m 2456.9,303.801 0.03,0.039 c 0.26,0.32 0.5,0.64 0.75,0.941 l -2.05,1.457 -3.18,2.344 c -0.18,-0.242 -5.21,-4.863 -9.16,-13.383 -0.17,0.262 -0.37,0.52 -0.6,0.77 -1.19,1.312 -2.84,1.953 -4.95,1.922 -0.03,0 -0.06,0 -0.1,0 -1.3,0 -2.2,0.441 -2.78,0.98 0.58,0.719 0.93,1.66 0.93,2.688 0,2.402 -1.96,4.363 -4.37,4.363 -2.42,0 -4.38,-1.961 -4.38,-4.363 0,-2.418 1.96,-4.368 4.38,-4.368 0.37,0 0.73,0.051 1.08,0.129 1.08,-1.211 2.79,-2.238 5.28,-2.179 1.29,0.011 2.23,-0.332 2.86,-1.02 0.73,-0.789 0.97,-1.941 1.05,-2.801 -0.01,-0.011 -0.01,-0.019 -0.02,-0.019 -2.85,-7.781 -2.04,-17.461 -2.04,-17.461 l 6.91,-0.281 c 0.14,3.531 0.65,9.691 2.43,14.582 3.44,9.488 7.76,15.398 7.93,15.66" /><path
         id="path200"
         style="fill:#2c292a;fill-opacity:1;fill-rule:nonzero;stroke:none"
         d="m 2576.28,323.23 c -2.4,0 -4.37,-1.941 -4.37,-4.359 0,-0.371 0.07,-0.75 0.17,-1.101 -1.21,-1.071 -2.26,-2.782 -2.22,-5.282 0.02,-1.297 -0.31,-2.238 -1,-2.859 -0.55,-0.481 -1.25,-0.758 -1.94,-0.918 -5.14,7.219 -11.47,11.598 -11.47,11.598 L 2550.49,315 c 3.75,-3.41 7.58,-7.68 11.29,-13.008 2.58,-3.683 5.23,-8.441 7.42,-13.16 l 6.71,3.16 c 0,0 -3.06,7.559 -7.37,14.34 0.75,0.25 1.51,0.66 2.17,1.25 1.31,1.18 1.96,2.859 1.91,4.957 0,1.352 0.45,2.27 0.97,2.891 0.75,-0.578 1.69,-0.95 2.69,-0.95 2.44,0 4.38,1.981 4.38,4.391 0,2.418 -1.94,4.359 -4.38,4.359" /><path
         id="path202"
         style="fill:#2c292a;fill-opacity:1;fill-rule:nonzero;stroke:none"
         d="m 2558.93,263.082 c -9.21,-4.48 -24.37,-10.402 -44.32,-13.203 -7.84,-1.078 -15.43,-1.481 -22.42,-1.481 -9.08,0 -17.12,0.672 -23.28,1.454 -7.03,0.89 -12.53,1.98 -15.9,2.738 0.81,-2.559 1.79,-5.102 2.97,-7.57 0.02,-0.071 0.05,-0.141 0.08,-0.188 0.15,-0.281 0.28,-0.582 0.43,-0.871 0.14,-0.289 0.28,-0.551 0.42,-0.832 0.05,-0.078 0.08,-0.137 0.11,-0.219 1.98,-3.719 4.36,-7.14 7.07,-10.121 9.41,-10.269 19,-11.918 19.09,-11.937 l 0.15,-0.012 0.13,-0.039 c 0.09,-0.051 8.6,-2.789 21.52,-2.789 12.72,0 25.19,2.578 37.09,7.629 8.81,4.519 17.14,11.351 21.26,17.461 3.2,4.707 5.5,9.75 6.86,14.988 0.73,2.781 1.29,7.23 0.97,11.93 -2.6,-1.758 -6.7,-4.239 -12.23,-6.938" /><path
         id="path204"
         style="fill:#2c292a;fill-opacity:1;fill-rule:nonzero;stroke:none"
         d="m 2486.19,306.43 c 10.16,0 18.4,-8.25 18.4,-18.43 0,-10.16 -8.24,-18.398 -18.4,-18.398 -10.17,0 -18.42,8.238 -18.42,18.398 0,10.18 8.25,18.43 18.42,18.43 z m 53.86,-0.461 c 6.28,0 11.4,-5.11 11.4,-11.399 0,-6.281 -5.12,-11.398 -11.4,-11.398 -6.29,0 -11.4,5.117 -11.4,11.398 0,6.289 5.11,11.399 11.4,11.399 z m -80.19,-4.36 c -0.28,-0.398 -4.27,-6.039 -7.42,-14.718 -2.37,-6.5 -2.26,-15.969 -2.26,-16.09 v -0.02 c 0,-2.222 0.12,-4.41 0.36,-6.59 0,-0.07 0,-0.101 0.02,-0.121 0.03,-0.289 0.07,-0.539 0.09,-0.84 0.21,-1.511 0.45,-3.031 0.79,-4.589 4.57,-1.161 31.88,-7.539 62.4,-3.282 19.14,2.68 33.65,8.321 42.47,12.602 7.34,3.551 12.04,6.769 13.87,8.098 -1.82,6.711 -6.81,17.25 -11.4,23.82 -13.11,18.73 -27.24,23.543 -34.48,24.73 -2.78,0.45 -4.99,0.711 -8.14,0.711 -2.92,0 -6.55,-0.23 -11.38,-0.738 -4.87,-0.512 -10.28,-1.793 -16.56,-3.891 -8.81,-2.953 -16.78,-7.582 -23.05,-13.402 l -0.21,-0.18 c -0.94,-0.871 -2.87,-2.679 -5.1,-5.5" /></g></g></svg>