<svg width="52" height="66" viewBox="0 0 52 66" fill="none" xmlns="http://www.w3.org/2000/svg">
<path d="M19.7222 51.7729C19.0795 51.5587 18.2225 51.9871 18.0083 52.844L16.2945 59.4852C16.0802 60.1279 16.5087 60.9848 17.3656 61.1991H17.7941C18.4368 61.1991 18.8652 60.7706 19.0795 60.1279L20.7933 53.4867C20.7933 52.844 20.3649 51.9871 19.7222 51.7729ZM28.5057 54.1294C27.6487 53.9152 27.006 54.3437 26.7918 55.2006L25.078 61.8418C24.8637 62.4845 25.2922 63.3414 26.1491 63.5556H26.5776C27.2203 63.5556 27.6487 63.1272 27.863 62.4845L29.5768 55.8433C29.5768 54.9864 29.1484 54.3437 28.5057 54.1294ZM24.0068 53.0583C23.3641 52.844 22.5072 53.2725 22.2929 54.1294L20.5791 60.7706C20.3649 61.4133 20.7933 62.2702 21.6502 62.4845H22.0787C22.7214 62.4845 23.1499 62.056 23.3641 61.4133L25.078 54.7721C25.2922 53.9152 24.8637 53.2725 24.0068 53.0583ZM46.0726 27.7789L48.215 19.4239C49.0719 15.9962 48.0007 11.7116 45.0015 7.64118C42.6449 4.42771 39.4315 1.85693 37.5034 1.21423C37.0749 1 36.6465 1 36.0038 1C31.9334 1 21.0076 4.21347 19.0795 11.9258L16.9372 20.2808L9.01058 24.9939C8.79635 25.2082 8.36789 25.4224 8.36789 25.8509L4.94018 39.1332C4.72595 39.7759 4.94018 40.2044 5.36865 40.6328C5.58288 40.8471 6.01134 40.8471 6.22557 40.8471C6.43981 40.8471 6.65404 40.8471 6.86827 40.6328L12.2241 37.4194L11.3671 40.8471C11.3671 41.2755 11.3671 41.4898 11.5814 41.9182C11.7956 42.1325 12.0098 42.5609 12.4383 42.5609L17.7941 43.8463L16.5087 49.2021C16.2945 49.8448 16.7229 50.7017 17.5798 50.916L30.8622 54.3437H31.2907C31.5049 54.3437 31.7191 54.3437 31.9334 54.1294C32.1476 53.9152 32.5761 53.701 32.5761 53.2725L33.8614 47.9167L39.2172 49.2021H39.6457C39.8599 49.2021 40.0742 49.2021 40.2884 48.9879C40.5026 48.7736 40.9311 48.5594 40.9311 48.1309L41.788 44.7032L45.0015 50.059C45.2157 50.4875 45.6442 50.7017 46.2869 50.7017H46.5011C47.1438 50.7017 47.5723 50.2733 47.5723 49.6306L51 36.3482C51 35.9197 51 35.7055 50.7857 35.2771L46.0726 27.7789ZM41.1453 22.4232C40.0742 26.2793 36.6465 29.0643 32.5761 29.0643C31.9334 29.0643 31.0764 29.0643 30.4337 28.8501C28.0772 28.2074 26.1491 26.922 25.078 24.7797C23.7926 22.8516 23.5783 20.4951 24.221 18.1385C25.2922 14.2824 28.7199 11.4973 32.7903 11.4973C33.433 11.4973 34.2899 11.4973 34.9326 11.7116C37.2892 12.3543 39.003 13.6397 40.2884 15.782C41.3596 17.9243 41.788 20.2808 41.1453 22.4232Z" stroke="#F7F9FF"/>
<path d="M36.0038 17.0674C35.5753 16.4247 34.9326 15.9962 34.0757 16.4247L28.9342 18.7812C28.2915 19.2097 27.863 19.8524 28.2915 20.7093C28.5057 21.1378 28.9342 21.5662 29.5768 21.5662C29.7911 21.5662 30.0053 21.5662 30.2195 21.352L35.3611 18.9955C36.0038 18.7812 36.218 17.9243 36.0038 17.0674ZM34.7184 20.0666L32.7903 20.9235C32.1476 21.352 31.7192 21.9947 32.1476 22.8516C32.3619 23.2801 32.7903 23.7086 33.433 23.7086C33.6472 23.7086 33.8615 23.7086 34.0757 23.4943L36.0038 22.6374C36.6465 22.2089 37.075 21.5662 36.6465 20.7093C36.218 20.0666 35.3611 19.6382 34.7184 20.0666ZM9.01061 15.3535L12.4383 17.2816C12.6525 17.2816 12.8668 17.4958 13.081 17.4958C13.2952 17.4958 13.7237 17.4958 13.9379 17.2816C14.3664 17.0674 14.5806 16.4247 14.5806 15.9962L13.9379 12.14L16.7229 9.35504C17.1514 8.92658 17.1514 8.49811 17.1514 7.85542C16.9372 7.42695 16.5087 6.99849 16.0803 6.99849L12.0099 6.3558L10.296 2.71386C10.0818 2.2854 9.65331 1.85693 9.01061 1.85693C8.58215 1.85693 7.93945 2.07117 7.72522 2.71386L6.01137 6.3558L2.1552 6.78426C1.72674 6.78426 1.29828 7.21272 1.08404 7.64119C0.869812 8.06965 1.08404 8.71234 1.51251 9.14081L4.29752 11.9258L3.44059 15.782C3.44059 16.2104 3.65482 16.8531 4.08329 17.0674C4.51175 17.2816 5.15444 17.4958 5.58291 17.0674L9.01061 15.3535ZM45.43 55.6291L42.2165 55.2006L40.7169 52.2014C40.2884 51.3444 38.7888 51.3444 38.1461 52.2014L36.6465 55.2006L33.433 55.6291C33.0046 55.6291 32.5761 56.0575 32.3619 56.486C32.1476 56.9144 32.3619 57.5571 32.7903 57.9856L35.1469 60.3422L34.5042 63.5556C34.5042 63.9841 34.7184 64.6268 35.1469 64.841C35.5753 65.0552 36.218 65.2695 36.6465 64.841L39.6457 63.3414L42.645 64.841C42.645 65.2695 42.8592 65.2695 43.0734 65.2695C43.2877 65.2695 43.7161 65.2695 43.9304 65.0552C44.3588 64.841 44.5731 64.1983 44.5731 63.7699L43.9304 60.5564L46.2869 58.1998C46.7154 57.7714 46.7154 57.3429 46.7154 56.7002C46.5011 56.0575 46.0727 55.6291 45.43 55.6291Z" stroke="#F7F9FF"/>
</svg>
