<svg width="62" height="63" viewBox="0 0 62 63" fill="none" xmlns="http://www.w3.org/2000/svg">
<path d="M60.2282 30.4113C52.5204 28.1801 49.0722 26.3545 48.2609 24.1233C47.4495 21.8921 48.6665 18.4439 52.7233 12.156C53.1289 11.5475 52.9261 10.939 52.5204 10.5333C52.1147 10.1276 51.3034 9.9248 50.8977 10.3305C45.624 13.373 42.3786 14.59 40.1474 14.59C36.6992 14.59 34.8737 11.3447 32.6425 2.41985C32.4396 1.81135 32.034 1 31.4254 1C30.8169 1 30.2084 1.81135 30.0056 2.41985C27.5716 11.3447 25.5432 14.7929 22.095 14.7929C19.8638 14.7929 16.6184 13.373 11.5475 10.3305C10.7361 9.72196 10.1276 9.9248 9.72196 10.3305C9.11345 10.7361 9.11345 11.5475 9.51912 11.9532C13.373 18.2411 14.59 21.6893 13.7787 24.1233C12.9673 26.5574 9.51912 28.3829 2.01418 30.4113C1.40567 30.6141 1 31.2226 1 31.8311C1 32.4396 1.40567 33.0481 2.01418 33.0481C9.31629 34.8737 12.7645 36.4963 13.5758 38.7275C14.59 40.9587 13.373 44.6098 9.51912 51.5062C9.11345 52.1147 9.31629 52.7233 9.72196 53.1289C10.1276 53.5346 10.939 53.5346 11.3447 53.1289C16.4156 49.8835 19.6609 48.2609 21.8921 48.2609C25.1375 48.2609 27.1659 51.3034 29.5999 60.431C29.8028 61.0395 30.2084 61.648 30.8169 61.648C31.4254 61.648 32.034 61.0395 32.2368 60.431C34.468 51.3034 36.2935 48.6665 39.5389 48.6665C41.7701 48.6665 45.2183 50.0864 50.2892 53.3318C50.8977 53.7374 51.5062 53.5346 51.9119 53.1289C52.3176 52.7233 52.5204 51.9119 52.1147 51.5062C48.058 44.8126 46.841 41.1616 47.8552 38.9304C48.8694 36.6992 52.3176 35.0765 59.8225 33.251C60.431 33.0481 60.8367 32.6425 60.8367 32.034C61.2424 31.2226 60.8367 30.6141 60.2282 30.4113ZM25.1375 21.8921C26.7602 19.6609 29.8028 18.8496 31.6283 20.2694C32.6425 21.0808 33.251 22.095 33.251 23.5148C33.251 24.7318 32.8453 25.9489 32.034 26.963C31.0198 28.3829 29.3971 29.1942 27.7744 29.1942C26.963 29.1942 26.1517 28.9914 25.5432 28.3829C23.5148 27.3687 23.5148 24.3262 25.1375 21.8921ZM37.5105 40.7559C36.4963 42.1758 34.8737 42.9871 33.251 42.9871C32.4396 42.9871 31.6283 42.7843 31.0198 42.1758C29.1942 40.7559 28.9914 37.7134 30.6141 35.4822C32.2368 33.251 35.2793 32.4396 37.1049 33.8595C38.119 34.6708 38.7275 35.685 38.7275 37.1049C38.7275 38.5247 38.3219 39.7417 37.5105 40.7559ZM39.5389 24.9347L24.7318 39.7417C24.529 39.9446 24.1233 40.1474 23.7177 40.1474C23.312 40.1474 23.1092 39.9446 22.7035 39.7417C22.095 39.1332 22.095 38.3219 22.7035 37.7134L37.5105 22.9063C38.119 22.2978 38.9304 22.2978 39.5389 22.9063C40.1474 23.5148 40.1474 24.529 39.5389 24.9347Z" stroke="#F7F9FF"/>
<path d="M34.8736 36.0908C34.2651 36.0908 33.4538 36.4964 32.8453 37.3078C32.0339 38.322 32.0339 39.7418 32.6424 40.1475C33.251 40.5532 34.6708 40.1475 35.2793 39.1333C35.685 38.5248 35.8878 37.9163 35.8878 37.3078C35.8878 37.1049 35.8878 36.4964 35.4822 36.2936C35.2793 36.0908 35.0765 36.0908 34.8736 36.0908ZM29.8027 25.5433C30.2084 24.9348 30.4112 24.3263 30.4112 23.7178C30.4112 23.5149 30.4112 22.9064 30.0056 22.7036C29.8027 22.5007 29.5999 22.5007 29.3971 22.5007C28.7886 22.5007 27.9772 22.9064 27.3687 23.7178C26.5574 24.7319 26.5574 26.1518 27.1659 26.5575C27.7744 26.9631 28.9914 26.5575 29.8027 25.5433Z" stroke="#F7F9FF"/>
</svg>
