<svg width="72" height="61" viewBox="0 0 72 61" fill="none" xmlns="http://www.w3.org/2000/svg">
<path fill-rule="evenodd" clip-rule="evenodd" d="M29.3333 1C26.5633 1 24.3333 3.23 24.3333 6V9.33333H41C45.559 9.33333 49.3333 13.1077 49.3333 17.6667V36L61 49.3333V36H66C68.77 36 71 33.77 71 31V6C71 3.23 68.77 1 66 1H29.3333ZM6 12.6667C3.23 12.6667 1 14.8967 1 17.6667V39.3333C1 42.1033 3.23 44.3333 6 44.3333H11V59.3333L22.6667 44.3333H41C43.77 44.3333 46 42.1033 46 39.3333V17.6667C46 14.8967 43.77 12.6667 41 12.6667H6ZM14.3333 26C15.714 26 16.8333 27.1193 16.8333 28.5C16.8333 29.8807 15.714 31 14.3333 31C12.9526 31 11.8333 29.8807 11.8333 28.5C11.8333 27.1193 12.9526 26 14.3333 26ZM24.3333 26C25.714 26 26.8333 27.1193 26.8333 28.5C26.8333 29.8807 25.714 31 24.3333 31C22.9526 31 21.8333 29.8807 21.8333 28.5C21.8333 27.1193 22.9526 26 24.3333 26ZM34.3333 26C35.714 26 36.8333 27.1193 36.8333 28.5C36.8333 29.8807 35.714 31 34.3333 31C32.9526 31 31.8333 29.8807 31.8333 28.5C31.8333 27.1193 32.9526 26 34.3333 26Z" stroke="#F7F9FF"/>
</svg>
