<?xml version="1.0" standalone="no"?><!-- Generator: Gravit.io --><svg xmlns="http://www.w3.org/2000/svg" xmlns:xlink="http://www.w3.org/1999/xlink" style="isolation:isolate" viewBox="0 0 70 70" width="70" height="70"><defs><clipPath id="_clipPath_Z8Gin85KkZIbVhGTJbjiHQ3GgSHgbuwf"><rect width="70" height="70"/></clipPath></defs><g clip-path="url(#_clipPath_Z8Gin85KkZIbVhGTJbjiHQ3GgSHgbuwf)"><rect width="70" height="70" style="fill:rgb(244,0,0)" fill-opacity="0"/><path d=" M 4.573 2.667 C 2.542 2.667 0.88 4.333 0.88 6.37 C 0.88 8.407 2.542 10.074 4.573 10.074 C 6.604 10.074 8.267 8.407 8.267 6.37 C 8.267 5.806 8.13 5.278 7.902 4.796 C 11.03 5.628 13.392 8.208 13.951 11.405 L 15.913 22.599 L 19.491 43.407 L 19.567 43.407 L 20.876 50.855 C 21.313 53.346 23.39 55.192 25.871 55.401 C 25.266 56.186 24.887 57.159 24.887 58.222 C 24.887 60.769 26.965 62.852 29.504 62.852 C 32.043 62.852 34.121 60.769 34.121 58.222 C 34.121 57.177 33.756 56.222 33.169 55.444 L 39.708 55.444 C 40.188 63.185 46.596 69.333 54.435 69.333 C 62.582 69.333 69.208 62.689 69.208 54.519 C 69.208 47.132 63.787 41.009 56.728 39.903 C 56.967 39.438 57.151 38.946 57.277 38.438 L 62.049 18.498 L 16.414 14.762 L 15.769 11.086 C 14.911 6.22 10.695 2.671 5.767 2.667 L 4.573 2.667 Z  M 4.573 4.519 C 5.604 4.519 6.42 5.336 6.42 6.37 C 6.42 7.405 5.604 8.222 4.573 8.222 C 3.542 8.222 2.726 7.405 2.726 6.37 C 2.726 5.336 3.542 4.519 4.573 4.519 Z  M 16.764 16.65 L 59.747 20.169 L 55.477 38.007 C 55.329 38.628 55.053 39.209 54.665 39.715 C 54.59 39.715 54.514 39.704 54.435 39.704 C 51.845 39.704 49.413 40.38 47.297 41.556 L 21.122 41.556 L 17.699 22.079 L 16.764 16.65 Z  M 26.734 22.111 C 26.226 22.111 25.81 22.528 25.81 23.037 C 25.81 23.546 26.226 23.963 26.734 23.963 C 27.242 23.963 27.657 23.546 27.657 23.037 C 27.657 22.528 27.242 22.111 26.734 22.111 Z  M 32.274 22.111 C 31.766 22.111 31.351 22.528 31.351 23.037 C 31.351 23.546 31.766 23.963 32.274 23.963 C 32.782 23.963 33.197 23.546 33.197 23.037 C 33.197 22.528 32.782 22.111 32.274 22.111 Z  M 37.814 22.111 C 37.306 22.111 36.891 22.528 36.891 23.037 C 36.891 23.546 37.306 23.963 37.814 23.963 C 38.322 23.963 38.737 23.546 38.737 23.037 C 38.737 22.528 38.322 22.111 37.814 22.111 Z  M 43.354 22.111 C 42.846 22.111 42.431 22.528 42.431 23.037 C 42.431 23.546 42.846 23.963 43.354 23.963 C 43.862 23.963 44.278 23.546 44.278 23.037 C 44.278 22.528 43.862 22.111 43.354 22.111 Z  M 48.894 22.111 C 48.387 22.111 47.971 22.528 47.971 23.037 C 47.971 23.546 48.387 23.963 48.894 23.963 C 49.402 23.963 49.818 23.546 49.818 23.037 C 49.818 22.528 49.402 22.111 48.894 22.111 Z  M 26.734 25.815 C 26.226 25.815 25.81 26.231 25.81 26.741 C 25.81 27.25 26.226 27.667 26.734 27.667 C 27.242 27.667 27.657 27.25 27.657 26.741 C 27.657 26.231 27.242 25.815 26.734 25.815 Z  M 32.274 25.815 C 31.766 25.815 31.351 26.231 31.351 26.741 C 31.351 27.25 31.766 27.667 32.274 27.667 C 32.782 27.667 33.197 27.25 33.197 26.741 C 33.197 26.231 32.782 25.815 32.274 25.815 Z  M 37.814 25.815 C 37.306 25.815 36.891 26.231 36.891 26.741 C 36.891 27.25 37.306 27.667 37.814 27.667 C 38.322 27.667 38.737 27.25 38.737 26.741 C 38.737 26.231 38.322 25.815 37.814 25.815 Z  M 43.354 25.815 C 42.846 25.815 42.431 26.231 42.431 26.741 C 42.431 27.25 42.846 27.667 43.354 27.667 C 43.862 27.667 44.278 27.25 44.278 26.741 C 44.278 26.231 43.862 25.815 43.354 25.815 Z  M 48.894 25.815 C 48.387 25.815 47.971 26.231 47.971 26.741 C 47.971 27.25 48.387 27.667 48.894 27.667 C 49.402 27.667 49.818 27.25 49.818 26.741 C 49.818 26.231 49.402 25.815 48.894 25.815 Z  M 26.734 29.519 C 26.226 29.519 25.81 29.935 25.81 30.444 C 25.81 30.954 26.226 31.37 26.734 31.37 C 27.242 31.37 27.657 30.954 27.657 30.444 C 27.657 29.935 27.242 29.519 26.734 29.519 Z  M 32.274 29.519 C 31.766 29.519 31.351 29.935 31.351 30.444 C 31.351 30.954 31.766 31.37 32.274 31.37 C 32.782 31.37 33.197 30.954 33.197 30.444 C 33.197 29.935 32.782 29.519 32.274 29.519 Z  M 37.814 29.519 C 37.306 29.519 36.891 29.935 36.891 30.444 C 36.891 30.954 37.306 31.37 37.814 31.37 C 38.322 31.37 38.737 30.954 38.737 30.444 C 38.737 29.935 38.322 29.519 37.814 29.519 Z  M 43.354 29.519 C 42.846 29.519 42.431 29.935 42.431 30.444 C 42.431 30.954 42.846 31.37 43.354 31.37 C 43.862 31.37 44.278 30.954 44.278 30.444 C 44.278 29.935 43.862 29.519 43.354 29.519 Z  M 48.894 29.519 C 48.387 29.519 47.971 29.935 47.971 30.444 C 47.971 30.954 48.387 31.37 48.894 31.37 C 49.402 31.37 49.818 30.954 49.818 30.444 C 49.818 29.935 49.402 29.519 48.894 29.519 Z  M 26.734 33.222 C 26.226 33.222 25.81 33.639 25.81 34.148 C 25.81 34.657 26.226 35.074 26.734 35.074 C 27.242 35.074 27.657 34.657 27.657 34.148 C 27.657 33.639 27.242 33.222 26.734 33.222 Z  M 32.274 33.222 C 31.766 33.222 31.351 33.639 31.351 34.148 C 31.351 34.657 31.766 35.074 32.274 35.074 C 32.782 35.074 33.197 34.657 33.197 34.148 C 33.197 33.639 32.782 33.222 32.274 33.222 Z  M 37.814 33.222 C 37.306 33.222 36.891 33.639 36.891 34.148 C 36.891 34.657 37.306 35.074 37.814 35.074 C 38.322 35.074 38.737 34.657 38.737 34.148 C 38.737 33.639 38.322 33.222 37.814 33.222 Z  M 43.354 33.222 C 42.846 33.222 42.431 33.639 42.431 34.148 C 42.431 34.657 42.846 35.074 43.354 35.074 C 43.862 35.074 44.278 34.657 44.278 34.148 C 44.278 33.639 43.862 33.222 43.354 33.222 Z  M 48.894 33.222 C 48.387 33.222 47.971 33.639 47.971 34.148 C 47.971 34.657 48.387 35.074 48.894 35.074 C 49.402 35.074 49.818 34.657 49.818 34.148 C 49.818 33.639 49.402 33.222 48.894 33.222 Z  M 26.734 36.926 C 26.226 36.926 25.81 37.343 25.81 37.852 C 25.81 38.361 26.226 38.778 26.734 38.778 C 27.242 38.778 27.657 38.361 27.657 37.852 C 27.657 37.343 27.242 36.926 26.734 36.926 Z  M 32.274 36.926 C 31.766 36.926 31.351 37.343 31.351 37.852 C 31.351 38.361 31.766 38.778 32.274 38.778 C 32.782 38.778 33.197 38.361 33.197 37.852 C 33.197 37.343 32.782 36.926 32.274 36.926 Z  M 37.814 36.926 C 37.306 36.926 36.891 37.343 36.891 37.852 C 36.891 38.361 37.306 38.778 37.814 38.778 C 38.322 38.778 38.737 38.361 38.737 37.852 C 38.737 37.343 38.322 36.926 37.814 36.926 Z  M 43.354 36.926 C 42.846 36.926 42.431 37.343 42.431 37.852 C 42.431 38.361 42.846 38.778 43.354 38.778 C 43.862 38.778 44.278 38.361 44.278 37.852 C 44.278 37.343 43.862 36.926 43.354 36.926 Z  M 48.894 36.926 C 48.387 36.926 47.971 37.343 47.971 37.852 C 47.971 38.361 48.387 38.778 48.894 38.778 C 49.402 38.778 49.818 38.361 49.818 37.852 C 49.818 37.343 49.402 36.926 48.894 36.926 Z  M 54.435 41.556 C 61.583 41.556 67.362 47.35 67.362 54.519 C 67.362 61.687 61.583 67.481 54.435 67.481 C 47.286 67.481 41.508 61.687 41.508 54.519 C 41.508 47.35 47.286 41.556 54.435 41.556 Z  M 21.443 43.407 L 44.696 43.407 C 41.747 46.001 39.953 49.667 39.712 53.593 L 26.333 53.593 C 24.538 53.597 23.001 52.303 22.694 50.529 L 21.443 43.407 Z  M 53.511 48.037 L 53.511 53.593 L 47.971 53.593 L 47.971 55.444 L 53.511 55.444 L 53.511 61 L 55.358 61 L 55.358 55.444 L 60.898 55.444 L 60.898 53.593 L 55.358 53.593 L 55.358 48.037 L 53.511 48.037 Z  M 29.504 55.444 C 31.044 55.444 32.274 56.678 32.274 58.222 C 32.274 59.767 31.044 61 29.504 61 C 27.964 61 26.734 59.767 26.734 58.222 C 26.734 56.678 27.964 55.444 29.504 55.444 Z  M 29.504 57.296 C 28.996 57.296 28.58 57.713 28.58 58.222 C 28.58 58.731 28.996 59.148 29.504 59.148 C 30.012 59.148 30.427 58.731 30.427 58.222 C 30.427 57.713 30.012 57.296 29.504 57.296 Z " fill="rgb(255,255,255)"/></g></svg>