<?xml version="1.0" standalone="no"?><!-- Generator: Gravit.io --><svg xmlns="http://www.w3.org/2000/svg" xmlns:xlink="http://www.w3.org/1999/xlink" style="isolation:isolate" viewBox="0 0 30 30" width="30" height="30"><defs><clipPath id="_clipPath_9Ja6FjQZs0gO8jIJyLHcDql6cDdkNG3v"><rect width="30" height="30"/></clipPath></defs><g clip-path="url(#_clipPath_9Ja6FjQZs0gO8jIJyLHcDql6cDdkNG3v)"><rect width="30" height="30" style="fill:rgb(244,0,0)" fill-opacity="0"/><path d=" M 2.764 1.847 C 1.911 1.847 1.213 2.547 1.213 3.403 C 1.213 4.259 1.911 4.959 2.764 4.959 C 3.617 4.959 4.315 4.259 4.315 3.403 C 4.315 3.166 4.258 2.944 4.162 2.742 C 5.476 3.091 6.468 4.175 6.703 5.517 L 7.527 10.219 L 9.03 18.959 L 9.061 18.959 L 9.611 22.086 C 9.795 23.133 10.667 23.908 11.709 23.996 C 11.455 24.326 11.296 24.734 11.296 25.181 C 11.296 26.25 12.169 27.125 13.235 27.125 C 14.302 27.125 15.174 26.25 15.174 25.181 C 15.174 24.742 15.021 24.341 14.774 24.014 L 17.521 24.014 C 17.722 27.265 20.414 29.847 23.706 29.847 C 27.128 29.847 29.911 27.057 29.911 23.625 C 29.911 20.523 27.634 17.951 24.669 17.487 C 24.77 17.291 24.847 17.085 24.9 16.871 L 26.904 8.497 L 7.738 6.927 L 7.466 5.384 C 7.106 3.34 5.336 1.849 3.266 1.847 L 2.764 1.847 Z  M 2.764 2.625 C 3.197 2.625 3.54 2.969 3.54 3.403 C 3.54 3.837 3.197 4.181 2.764 4.181 C 2.331 4.181 1.989 3.837 1.989 3.403 C 1.989 2.969 2.331 2.625 2.764 2.625 Z  M 7.884 7.72 L 25.937 9.198 L 24.144 16.691 C 24.082 16.951 23.966 17.195 23.803 17.408 C 23.771 17.408 23.739 17.403 23.706 17.403 C 22.618 17.403 21.597 17.687 20.708 18.181 L 9.715 18.181 L 8.277 10 L 7.884 7.72 Z  M 12.072 10.014 C 11.858 10.014 11.684 10.189 11.684 10.403 C 11.684 10.617 11.858 10.792 12.072 10.792 C 12.285 10.792 12.459 10.617 12.459 10.403 C 12.459 10.189 12.285 10.014 12.072 10.014 Z  M 14.399 10.014 C 14.185 10.014 14.011 10.189 14.011 10.403 C 14.011 10.617 14.185 10.792 14.399 10.792 C 14.612 10.792 14.786 10.617 14.786 10.403 C 14.786 10.189 14.612 10.014 14.399 10.014 Z  M 16.725 10.014 C 16.512 10.014 16.338 10.189 16.338 10.403 C 16.338 10.617 16.512 10.792 16.725 10.792 C 16.939 10.792 17.113 10.617 17.113 10.403 C 17.113 10.189 16.939 10.014 16.725 10.014 Z  M 19.052 10.014 C 18.839 10.014 18.664 10.189 18.664 10.403 C 18.664 10.617 18.839 10.792 19.052 10.792 C 19.266 10.792 19.44 10.617 19.44 10.403 C 19.44 10.189 19.266 10.014 19.052 10.014 Z  M 21.379 10.014 C 21.166 10.014 20.991 10.189 20.991 10.403 C 20.991 10.617 21.166 10.792 21.379 10.792 C 21.592 10.792 21.767 10.617 21.767 10.403 C 21.767 10.189 21.592 10.014 21.379 10.014 Z  M 12.072 11.57 C 11.858 11.57 11.684 11.745 11.684 11.959 C 11.684 12.172 11.858 12.347 12.072 12.347 C 12.285 12.347 12.459 12.172 12.459 11.959 C 12.459 11.745 12.285 11.57 12.072 11.57 Z  M 14.399 11.57 C 14.185 11.57 14.011 11.745 14.011 11.959 C 14.011 12.172 14.185 12.347 14.399 12.347 C 14.612 12.347 14.786 12.172 14.786 11.959 C 14.786 11.745 14.612 11.57 14.399 11.57 Z  M 16.725 11.57 C 16.512 11.57 16.338 11.745 16.338 11.959 C 16.338 12.172 16.512 12.347 16.725 12.347 C 16.939 12.347 17.113 12.172 17.113 11.959 C 17.113 11.745 16.939 11.57 16.725 11.57 Z  M 19.052 11.57 C 18.839 11.57 18.664 11.745 18.664 11.959 C 18.664 12.172 18.839 12.347 19.052 12.347 C 19.266 12.347 19.44 12.172 19.44 11.959 C 19.44 11.745 19.266 11.57 19.052 11.57 Z  M 21.379 11.57 C 21.166 11.57 20.991 11.745 20.991 11.959 C 20.991 12.172 21.166 12.347 21.379 12.347 C 21.592 12.347 21.767 12.172 21.767 11.959 C 21.767 11.745 21.592 11.57 21.379 11.57 Z  M 12.072 13.125 C 11.858 13.125 11.684 13.3 11.684 13.514 C 11.684 13.728 11.858 13.903 12.072 13.903 C 12.285 13.903 12.459 13.728 12.459 13.514 C 12.459 13.3 12.285 13.125 12.072 13.125 Z  M 14.399 13.125 C 14.185 13.125 14.011 13.3 14.011 13.514 C 14.011 13.728 14.185 13.903 14.399 13.903 C 14.612 13.903 14.786 13.728 14.786 13.514 C 14.786 13.3 14.612 13.125 14.399 13.125 Z  M 16.725 13.125 C 16.512 13.125 16.338 13.3 16.338 13.514 C 16.338 13.728 16.512 13.903 16.725 13.903 C 16.939 13.903 17.113 13.728 17.113 13.514 C 17.113 13.3 16.939 13.125 16.725 13.125 Z  M 19.052 13.125 C 18.839 13.125 18.664 13.3 18.664 13.514 C 18.664 13.728 18.839 13.903 19.052 13.903 C 19.266 13.903 19.44 13.728 19.44 13.514 C 19.44 13.3 19.266 13.125 19.052 13.125 Z  M 21.379 13.125 C 21.166 13.125 20.991 13.3 20.991 13.514 C 20.991 13.728 21.166 13.903 21.379 13.903 C 21.592 13.903 21.767 13.728 21.767 13.514 C 21.767 13.3 21.592 13.125 21.379 13.125 Z  M 12.072 14.681 C 11.858 14.681 11.684 14.856 11.684 15.07 C 11.684 15.284 11.858 15.459 12.072 15.459 C 12.285 15.459 12.459 15.284 12.459 15.07 C 12.459 14.856 12.285 14.681 12.072 14.681 Z  M 14.399 14.681 C 14.185 14.681 14.011 14.856 14.011 15.07 C 14.011 15.284 14.185 15.459 14.399 15.459 C 14.612 15.459 14.786 15.284 14.786 15.07 C 14.786 14.856 14.612 14.681 14.399 14.681 Z  M 16.725 14.681 C 16.512 14.681 16.338 14.856 16.338 15.07 C 16.338 15.284 16.512 15.459 16.725 15.459 C 16.939 15.459 17.113 15.284 17.113 15.07 C 17.113 14.856 16.939 14.681 16.725 14.681 Z  M 19.052 14.681 C 18.839 14.681 18.664 14.856 18.664 15.07 C 18.664 15.284 18.839 15.459 19.052 15.459 C 19.266 15.459 19.44 15.284 19.44 15.07 C 19.44 14.856 19.266 14.681 19.052 14.681 Z  M 21.379 14.681 C 21.166 14.681 20.991 14.856 20.991 15.07 C 20.991 15.284 21.166 15.459 21.379 15.459 C 21.592 15.459 21.767 15.284 21.767 15.07 C 21.767 14.856 21.592 14.681 21.379 14.681 Z  M 12.072 16.236 C 11.858 16.236 11.684 16.411 11.684 16.625 C 11.684 16.839 11.858 17.014 12.072 17.014 C 12.285 17.014 12.459 16.839 12.459 16.625 C 12.459 16.411 12.285 16.236 12.072 16.236 Z  M 14.399 16.236 C 14.185 16.236 14.011 16.411 14.011 16.625 C 14.011 16.839 14.185 17.014 14.399 17.014 C 14.612 17.014 14.786 16.839 14.786 16.625 C 14.786 16.411 14.612 16.236 14.399 16.236 Z  M 16.725 16.236 C 16.512 16.236 16.338 16.411 16.338 16.625 C 16.338 16.839 16.512 17.014 16.725 17.014 C 16.939 17.014 17.113 16.839 17.113 16.625 C 17.113 16.411 16.939 16.236 16.725 16.236 Z  M 19.052 16.236 C 18.839 16.236 18.664 16.411 18.664 16.625 C 18.664 16.839 18.839 17.014 19.052 17.014 C 19.266 17.014 19.44 16.839 19.44 16.625 C 19.44 16.411 19.266 16.236 19.052 16.236 Z  M 21.379 16.236 C 21.166 16.236 20.991 16.411 20.991 16.625 C 20.991 16.839 21.166 17.014 21.379 17.014 C 21.592 17.014 21.767 16.839 21.767 16.625 C 21.767 16.411 21.592 16.236 21.379 16.236 Z  M 23.706 18.181 C 26.708 18.181 29.135 20.614 29.135 23.625 C 29.135 26.636 26.708 29.07 23.706 29.07 C 20.704 29.07 18.277 26.636 18.277 23.625 C 18.277 20.614 20.704 18.181 23.706 18.181 Z  M 9.85 18.959 L 19.616 18.959 C 18.377 20.048 17.624 21.588 17.522 23.236 L 11.903 23.236 C 11.149 23.238 10.504 22.694 10.375 21.949 L 9.85 18.959 Z  M 23.318 20.903 L 23.318 23.236 L 20.991 23.236 L 20.991 24.014 L 23.318 24.014 L 23.318 26.347 L 24.094 26.347 L 24.094 24.014 L 26.421 24.014 L 26.421 23.236 L 24.094 23.236 L 24.094 20.903 L 23.318 20.903 Z  M 13.235 24.014 C 13.882 24.014 14.399 24.532 14.399 25.181 C 14.399 25.829 13.882 26.347 13.235 26.347 C 12.588 26.347 12.072 25.829 12.072 25.181 C 12.072 24.532 12.588 24.014 13.235 24.014 Z  M 13.235 24.792 C 13.022 24.792 12.847 24.967 12.847 25.181 C 12.847 25.395 13.022 25.57 13.235 25.57 C 13.448 25.57 13.623 25.395 13.623 25.181 C 13.623 24.967 13.448 24.792 13.235 24.792 Z " fill="rgb(255,255,255)"/></g></svg>