<svg xmlns="http://www.w3.org/2000/svg" width="70" height="70" viewBox="0 0 70 70" style="width: 100%; height: 100%;"><desc>Made with illustrio</desc>
  
<g class="base"><g fill="none" fill-rule="evenodd" stroke="none" class="main-fill">
    
    
  </g><g fill="none" transform="translate(19 26)" stroke="none" class="main-fill">
      <path d="M30,8.8 C29.7,8.4 23.3,0.1 15.2,0.1 C7.1,0.1 0.6,8.5 0.3,8.8 C0.1,9.1 0.1,9.5 0.3,9.8 C0.6,10.1 7,17.9 15.1,17.9 C23.2,17.9 29.7,10.1 29.9,9.8 C30.2,9.5 30.2,9.1 30,8.8 L30,8.8 Z M15.2,16.3 C8.9,16.3 3.5,10.9 2,9.3 C3.5,7.5 8.9,1.7 15.2,1.7 C21.5,1.7 26.9,7.5 28.4,9.3 C26.8,10.9 21.4,16.3 15.2,16.3 L15.2,16.3 Z" fill="none" stroke="none" class="main-fill"></path>
      <path d="M15.2,2 C11.4,2 8.3,5.1 8.3,8.9 C8.3,12.7 11.4,15.8 15.2,15.8 C19,15.8 22.1,12.7 22.1,8.9 C22.1,5.1 19,2 15.2,2 L15.2,2 Z M14.9,10.8 C13.8,10.8 12.8,9.9 12.8,8.7 C12.8,7.5 13.7,6.6 14.9,6.6 C16.1,6.6 17,7.5 17,8.7 C17,9.9 16,10.8 14.9,10.8 L14.9,10.8 Z" fill="none" stroke="none" class="main-fill"></path>
    </g></g><style>
          .main-fill {fill: #212121;}
          .main-stroke {stroke: #212121;}
          .secondary-fill {fill: #fff;}
          .secondary-stroke {stroke: #fff;}

          .main-fill--darken {fill: #000000;}
          .main-stroke--darken {stroke: #000000;}
          .secondary-fill--darken {fill: #d9d9d9;}
          .secondary-stroke--darken {stroke: #d9d9d9;}

          .main-fill--darkener {fill: #000000;}
          .main-stroke--darkener {stroke: #000000;}
          .secondary-fill--darkener {fill: #bfbfbf;}
          .secondary-stroke--darkener {stroke: #bfbfbf;}
        </style></svg>