<?xml version="1.0" encoding="UTF-8" standalone="no"?><!-- Generator: Gravit.io --><svg xmlns="http://www.w3.org/2000/svg" xmlns:xlink="http://www.w3.org/1999/xlink" style="isolation:isolate" viewBox="0 0 50 50" width="50pt" height="50pt"><defs><clipPath id="_clipPath_8KDZmmFyo7hxTHURIgJhSi0CrfBoiMiH"><rect width="50" height="50"/></clipPath></defs><g clip-path="url(#_clipPath_8KDZmmFyo7hxTHURIgJhSi0CrfBoiMiH)"><path d=" M 34.147 1.509 C 33.874 1.546 33.626 1.688 33.456 1.905 L 29.238 7.177 L 28.644 7.903 L 29.303 8.595 L 29.765 9.055 C 25.431 13.167 20.657 14.163 12.134 14.163 L 11.277 14.163 L 11.113 15.021 C 9.046 25.368 1.655 46.491 1.655 46.491 L 0.93 48.567 L 3.007 47.841 C 3.007 47.841 24.129 40.452 34.476 38.385 L 35.334 38.219 L 35.334 37.363 C 35.334 28.836 36.33 24.065 40.442 19.732 L 40.903 20.194 L 41.529 20.787 L 42.254 20.326 L 48.582 16.108 C 48.899 15.896 49.08 15.53 49.055 15.149 C 49.031 14.767 48.804 14.428 48.462 14.259 C 48.119 14.09 47.712 14.116 47.394 14.328 L 41.793 18.051 L 31.478 7.738 L 35.103 3.223 C 35.377 2.888 35.419 2.419 35.208 2.041 C 34.997 1.663 34.577 1.452 34.147 1.509 Z  M 31.247 10.539 L 38.959 18.25 C 34.551 22.879 33.335 28.304 33.257 36.539 C 24.587 38.376 11.879 42.611 6.598 44.414 L 21.823 29.19 C 22.379 29.487 23.001 29.685 23.669 29.685 C 25.849 29.676 27.614 27.911 27.623 25.73 C 27.623 23.559 25.839 21.809 23.669 21.809 C 21.496 21.809 19.714 23.559 19.714 25.73 C 19.714 26.451 19.933 27.122 20.273 27.708 L 5.084 42.899 C 6.887 37.618 11.122 24.91 12.959 16.24 C 21.19 16.162 26.618 14.946 31.248 10.538 L 31.247 10.539 Z  M 23.668 23.918 C 24.698 23.918 25.513 24.7 25.513 25.73 C 25.513 26.76 24.698 27.576 23.668 27.576 C 23.214 27.576 22.799 27.444 22.481 27.18 C 22.442 27.132 22.397 27.088 22.349 27.049 C 22.006 26.697 21.816 26.222 21.822 25.73 C 21.822 24.7 22.638 23.918 23.668 23.918 Z " fill="rgb(136,14,79)"/></g></svg>