<?xml version="1.0" encoding="UTF-8" standalone="no"?><!-- Generator: Gravit.io --><svg xmlns="http://www.w3.org/2000/svg" xmlns:xlink="http://www.w3.org/1999/xlink" style="isolation:isolate" viewBox="0 0 49.25 44.586" width="49.25pt" height="44.586pt"><defs><clipPath id="_clipPath_6pMkMa5RfYjrAfwo6wPklNfx6di9a2uY"><rect width="49.25" height="44.586"/></clipPath></defs><g clip-path="url(#_clipPath_6pMkMa5RfYjrAfwo6wPklNfx6di9a2uY)"><path d=" M 2.845 22.519 L 24.792 44.586 L 46.345 22.519 C 46.345 22.519 46.345 22.519 46.345 22.518 C 50.624 16.989 50.126 9.141 45.181 4.194 C 40.239 -0.752 32.392 -1.256 26.858 3.02 C 25.523 4.05 24.791 4.618 24.791 4.618 C 24.791 4.618 24.05 4.038 22.706 2.987 C 17.151 -1.362 9.232 -0.917 4.2 4.029 C -0.831 8.974 -1.414 16.883 2.838 22.512 C 2.841 22.517 2.843 22.519 2.843 22.519 L 2.845 22.519 Z " fill-rule="evenodd" fill="rgb(237,73,86)"/></g></svg>