<?xml version="1.0" encoding="UTF-8" standalone="no"?><!-- Generator: Gravit.io --><svg xmlns="http://www.w3.org/2000/svg" xmlns:xlink="http://www.w3.org/1999/xlink" style="isolation:isolate" viewBox="0 0 50 50" width="50pt" height="50pt"><defs><clipPath id="_clipPath_AOG5R7vGoaOZVroG9KlWpafoaseiEm60"><rect width="50" height="50"/></clipPath></defs><g clip-path="url(#_clipPath_AOG5R7vGoaOZVroG9KlWpafoaseiEm60)"><path d=" M 16.011 6.75 L 19.034 10.868 L 27.142 10.868 C 33.987 10.868 39.497 16.378 39.497 23.222 L 39.497 31.458 L 33.319 31.458 L 41.556 42.719 L 49.792 31.458 L 43.615 31.458 L 43.615 23.222 C 43.615 14.15 36.214 6.75 27.142 6.75 L 16.011 6.75 Z  M 8.611 7.843 L 0.375 19.104 L 6.552 19.104 L 6.552 27.34 C 6.552 36.412 13.952 43.812 23.024 43.812 L 34.155 43.812 L 31.133 39.694 L 23.024 39.694 C 16.18 39.694 10.67 34.184 10.67 27.34 L 10.67 19.104 L 16.847 19.104 L 8.611 7.843 Z " fill="rgb(33,180,183)"/></g></svg>