<svg width="30" height="18" viewBox="0 0 30 18" fill="none" xmlns="http://www.w3.org/2000/svg">
<path d="M29.85 8.7C29.55 8.3 23.15 0 15.05 0C6.95 0 0.45 8.4 0.15 8.7C-0.05 9 -0.05 9.4 0.15 9.7C0.45 10 6.85 17.8 14.95 17.8C23.05 17.8 29.55 10 29.75 9.7C30.05 9.4 30.05 9 29.85 8.7ZM15.05 16.2C8.75 16.2 3.35 10.8 1.85 9.2C3.35 7.4 8.75 1.6 15.05 1.6C21.35 1.6 26.75 7.4 28.25 9.2C26.65 10.8 21.25 16.2 15.05 16.2Z" fill="#424242"/>
<path d="M15.05 1.89999C11.25 1.89999 8.15002 4.99999 8.15002 8.79999C8.15002 12.6 11.25 15.7 15.05 15.7C18.85 15.7 21.95 12.6 21.95 8.79999C21.95 4.99999 18.85 1.89999 15.05 1.89999ZM14.75 10.7C13.65 10.7 12.65 9.79999 12.65 8.59999C12.65 7.39999 13.55 6.49999 14.75 6.49999C15.95 6.49999 16.85 7.39999 16.85 8.59999C16.85 9.79999 15.85 10.7 14.75 10.7Z" fill="#424242"/>
</svg>
