<svg width="70" height="16" viewBox="0 0 70 16" fill="none" xmlns="http://www.w3.org/2000/svg">
<g clip-path="url(#clip0)">
<path fill-rule="evenodd" clip-rule="evenodd" d="M5.4259 13.299C5.96913 13.299 6.47111 13.2002 6.94694 13.0142C6.95101 13.0236 7.91953 14.5283 7.93348 14.5388C7.05675 15.0099 6.14052 15.2174 5.13889 15.2174C2.1613 15.2174 0 13.2554 0 10.1232C0 6.96844 2.27168 5.00642 5.13889 5.00642C6.1597 5.00642 6.96437 5.22778 7.77486 5.6612C7.68539 5.80994 6.85108 7.2264 6.84817 7.23221C6.36747 7.04094 5.85436 6.94427 5.33701 6.94752C3.57254 6.94752 2.20546 8.07233 2.20546 10.1232C2.20546 12.0637 3.52838 13.299 5.4259 13.299ZM12.9358 5.00642C15.8693 5.00642 17.9864 7.07999 17.9864 10.1232C17.9864 13.1444 15.8693 15.2174 12.9358 15.2174C10.025 15.2174 7.90791 13.145 7.90791 10.1232C7.90791 7.07999 10.025 5.00642 12.9358 5.00642ZM12.9358 6.88129C11.3044 6.88129 10.1128 8.13856 10.1128 10.1232C10.1128 12.0865 11.3038 13.3431 12.9364 13.3431C14.6126 13.3431 15.7816 12.0865 15.7816 10.1232C15.7816 8.13856 14.6126 6.88129 12.9358 6.88129ZM19.3761 14.9971V5.22662H21.559V14.9971H19.3761ZM19.0891 2.22695C19.0891 1.47747 19.7293 0.88253 20.4568 0.88253C21.1847 0.88253 21.8239 1.47747 21.8239 2.22753C21.8239 2.99967 21.1847 3.61727 20.4568 3.61727C19.7293 3.61727 19.0891 2.99967 19.0891 2.22753V2.22695ZM23.464 5.8448C24.8311 5.31552 26.5084 5.00642 27.9412 5.00642C30.4337 5.00642 32.0214 5.95461 32.0214 8.71142V14.9971H29.8602V8.91012C29.8602 7.49889 28.9783 6.9911 27.7645 6.9911C26.9924 6.9911 26.2214 7.10149 25.6474 7.27811V14.9971H23.464V5.8448ZM33.8499 0H36.0327V5.49214C36.4957 5.24928 37.3998 5.00642 38.2596 5.00642C41.0832 5.00642 43.1998 6.81448 43.1998 9.94661C43.1998 13.1002 41.1053 15.2174 37.4887 15.2174C36.2481 15.2137 35.0173 14.9977 33.8499 14.5783V0ZM36.0327 13.145C36.4515 13.2769 37.0029 13.3425 37.5543 13.3425C39.5611 13.3425 40.9949 12.2404 40.9949 9.99019C40.9949 8.09383 39.6499 6.96902 37.9958 6.96902C37.136 6.96902 36.4737 7.1898 36.032 7.43265L36.0327 13.145ZM49.507 8.44648C49.507 7.38792 48.7129 6.90337 47.6322 6.90337C46.5074 6.90337 45.6255 7.23395 44.8097 7.69701V5.80006C45.6696 5.31552 46.7718 5.00642 47.9854 5.00642C50.1241 5.00642 51.6457 5.88837 51.6457 8.3361V14.7985C50.7196 15.0408 49.3973 15.1959 48.2945 15.1959C45.7579 15.1959 43.9051 14.4238 43.9051 12.2183C43.9051 10.2336 45.6028 9.26336 48.4258 9.26336H49.5065L49.507 8.44648ZM49.507 10.7182H48.5809C47.0588 10.7182 46.0664 11.1597 46.0664 12.1521C46.0664 13.1665 46.9931 13.5633 48.316 13.5633C48.6472 13.5633 49.1103 13.5191 49.507 13.4529V10.7182ZM53.2336 12.3507C54.1382 13.034 55.2182 13.4529 56.2106 13.4529C57.1814 13.4529 57.8211 13.1224 57.8211 12.3507C57.8211 11.556 57.2476 11.2695 55.991 10.939C53.9616 10.4759 53.1011 9.66018 53.1011 7.96194C53.1011 5.97668 54.6012 5.00642 56.5859 5.00642C57.6886 5.00642 58.5705 5.24928 59.3863 5.75591V7.76324C58.5264 7.14623 57.6886 6.77091 56.6521 6.77091C55.704 6.77091 55.1967 7.23395 55.1967 7.87363C55.1967 8.51272 55.6151 8.84389 56.7405 9.15182C58.9685 9.63753 59.9383 10.4765 59.9383 12.2404C59.9383 14.2913 58.3725 15.2174 56.2553 15.2174C55.1085 15.2174 53.9616 14.9095 53.2342 14.4238L53.2336 12.3507ZM62.9269 10.6083V10.6525C63.0593 12.3944 64.5583 13.3425 66.0799 13.3425C67.4255 13.3425 68.3963 13.034 69.366 12.3944V14.314C68.484 14.931 67.1827 15.2174 65.9265 15.2174C62.8827 15.2174 60.8097 13.2769 60.8097 10.1895C60.8097 7.07999 62.838 5.00701 65.5291 5.00701C68.3737 5.00701 69.7193 6.83713 69.7193 9.50506V10.609L62.9269 10.6083ZM67.6678 9.19655C67.6242 7.67434 66.8748 6.83713 65.4629 6.83713C64.2056 6.83713 63.2795 7.71966 62.9931 9.19714L67.6678 9.19655Z" fill="#1652F0"/>
</g>
<defs>
<clipPath id="clip0">
<rect width="70" height="15.2174" fill="white"/>
</clipPath>
</defs>
</svg>
