<svg xmlns="http://www.w3.org/2000/svg" width="70" height="70" viewBox="0 0 70 70" >
  
<defs fill="none" stroke="none"><mask id="maskSivxrv2q7pkd"><rect x="35" y="0" width="35" height="70" rx="0" ry="0" fill="#ffffff"></rect></mask></defs><g class="content"><g class="base"><g fill="none" fill-rule="evenodd" stroke="none" class="main-fill">
    
    <path fill="none" d="M4.53973333,0.113225 C5.84721667,-0.0366916667 7.174475,0.0539583333 8.48656667,0.0167416667 C7.15353333,1.686825 6.0018,3.59980833 5.8135,5.76735833 C5.42301667,9.11569167 7.13959167,12.4105333 9.72200833,14.4641583 C10.4018833,14.8500333 10.15665,15.6891 10.1311,16.324875 C9.966075,17.92525 9.73361667,19.50585 9.61625,21.0945583 C11.6384917,19.9218833 13.4422167,18.3982167 15.5191167,17.3266917 C19.692575,18.1169917 24.2449667,17.6323583 27.8884667,15.31145 C27.8873,17.144225 27.8908,18.9886667 27.8919667,20.8226083 C27.9337917,22.9378333 26.64375,25.0077333 24.7109917,25.8584667 C23.8172667,26.3036083 22.8037833,26.384925 21.8287417,26.3535417 C16.2908083,26.3361 10.7587083,26.3582083 5.2185,26.3465417 C2.44200833,26.3267667 0.0141166667,23.8396667 0.007175,21.0666167 C-0.0149333333,15.9691583 0.0222833333,10.869425 0.014175,5.76735833 C-0.138191667,3.111675 1.95381667,0.587358333 4.53973333,0.113225 L4.53973333,0.113225 Z M11.8360083,3.69745833 C10.9085667,4.66211667 10.2484083,5.942825 10.2356333,7.30496667 C10.1322083,9.15868333 11.1654083,10.91825 12.6088667,12.0188833 C15.661975,14.338625 20.1051083,14.5257583 23.4266667,12.6581 C25.256,11.6388417 26.758725,9.75490833 26.7866083,7.58858333 C26.8598167,5.6686 25.7429667,3.8556 24.1983583,2.77590833 C22.4782833,1.51025 20.313125,0.959408333 18.1920667,1.040725 C15.8479417,1.077825 13.4642667,1.965775 11.8360083,3.69745833 L11.8360083,3.69745833 Z" transform="translate(21 21.817)" stroke="none" class="main-fill"></path>
  </g></g><g class="masked" mask="url('#maskSivxrv2q7pkd')"><g fill="none" fill-rule="evenodd" stroke="none" class="main-fill--darken">
    
    <path fill="none" d="M4.53973333,0.113225 C5.84721667,-0.0366916667 7.174475,0.0539583333 8.48656667,0.0167416667 C7.15353333,1.686825 6.0018,3.59980833 5.8135,5.76735833 C5.42301667,9.11569167 7.13959167,12.4105333 9.72200833,14.4641583 C10.4018833,14.8500333 10.15665,15.6891 10.1311,16.324875 C9.966075,17.92525 9.73361667,19.50585 9.61625,21.0945583 C11.6384917,19.9218833 13.4422167,18.3982167 15.5191167,17.3266917 C19.692575,18.1169917 24.2449667,17.6323583 27.8884667,15.31145 C27.8873,17.144225 27.8908,18.9886667 27.8919667,20.8226083 C27.9337917,22.9378333 26.64375,25.0077333 24.7109917,25.8584667 C23.8172667,26.3036083 22.8037833,26.384925 21.8287417,26.3535417 C16.2908083,26.3361 10.7587083,26.3582083 5.2185,26.3465417 C2.44200833,26.3267667 0.0141166667,23.8396667 0.007175,21.0666167 C-0.0149333333,15.9691583 0.0222833333,10.869425 0.014175,5.76735833 C-0.138191667,3.111675 1.95381667,0.587358333 4.53973333,0.113225 L4.53973333,0.113225 Z M11.8360083,3.69745833 C10.9085667,4.66211667 10.2484083,5.942825 10.2356333,7.30496667 C10.1322083,9.15868333 11.1654083,10.91825 12.6088667,12.0188833 C15.661975,14.338625 20.1051083,14.5257583 23.4266667,12.6581 C25.256,11.6388417 26.758725,9.75490833 26.7866083,7.58858333 C26.8598167,5.6686 25.7429667,3.8556 24.1983583,2.77590833 C22.4782833,1.51025 20.313125,0.959408333 18.1920667,1.040725 C15.8479417,1.077825 13.4642667,1.965775 11.8360083,3.69745833 L11.8360083,3.69745833 Z" transform="translate(21 21.817)" stroke="none" class="main-fill--darken"></path>
  </g></g></g><style>
          .main-fill {fill: #B12048;}
          .main-stroke {stroke: #B12048;}
          .secondary-fill {fill: #F6E8E9;}
          .secondary-stroke {stroke: #F6E8E9;}

          .main-fill--darken {fill: #70142e;}
          .main-stroke--darken {stroke: #70142e;}
          .secondary-fill--darken {fill: #e0b1b4;}
          .secondary-stroke--darken {stroke: #e0b1b4;}

          .main-fill--darkener {fill: #450c1c;}
          .main-stroke--darkener {stroke: #450c1c;}
          .secondary-fill--darkener {fill: #d28c91;}
          .secondary-stroke--darkener {stroke: #d28c91;}
        </style></svg>