<?xml version="1.0" encoding="UTF-8" standalone="no"?><!-- Generator: Gravit.io --><svg xmlns="http://www.w3.org/2000/svg" xmlns:xlink="http://www.w3.org/1999/xlink" style="isolation:isolate" viewBox="0 0 600 600" width="600pt" height="600pt"><defs><clipPath id="_clipPath_5ncyPSE5PJgpnCjvBV19tC1NJyy9qGgg"><rect width="600" height="600"/></clipPath></defs><g clip-path="url(#_clipPath_5ncyPSE5PJgpnCjvBV19tC1NJyy9qGgg)"><clipPath id="_clipPath_RW8uiFt62c4SPtJC3IYsVxGxHLLXXWz2"><rect x="0" y="0" width="600" height="600" transform="matrix(1,0,0,1,0,0)" fill="rgb(255,255,255)"/></clipPath><g clip-path="url(#_clipPath_RW8uiFt62c4SPtJC3IYsVxGxHLLXXWz2)"><g><clipPath id="_clipPath_aGrW3XFZWmSR1tAppjJsDlo61j7NiXMg"><rect x="0" y="0" width="600" height="600" transform="matrix(1,0,0,1,0,0)" fill="rgb(255,255,255)"/></clipPath><g clip-path="url(#_clipPath_aGrW3XFZWmSR1tAppjJsDlo61j7NiXMg)"><g><g><clipPath id="_clipPath_aFaFb2XowrrBKKkjusVVZg4sQkgWJp8z"><rect x="0" y="0" width="600" height="600" transform="matrix(1,0,0,1,0,0)" fill="rgb(255,255,255)"/></clipPath><g clip-path="url(#_clipPath_aFaFb2XowrrBKKkjusVVZg4sQkgWJp8z)"><g><g><g><clipPath id="_clipPath_GtiCEoKIcUQCwRFnR9y8L6GmEDl0LPVl"><rect x="0" y="0" width="600" height="600" transform="matrix(1,0,0,1,0,0)" fill="rgb(255,255,255)"/></clipPath><g clip-path="url(#_clipPath_GtiCEoKIcUQCwRFnR9y8L6GmEDl0LPVl)"><g><g><g><g><rect x="0" y="0" width="600" height="600" transform="matrix(1,0,0,1,0,0)" fill="rgb(250,250,250)"/></g></g></g></g></g></g></g></g></g></g></g></g><linearGradient id="_lgradient_6" x1="0.3354840757209397" y1="0.3644867609973667" x2="0.22416479684368396" y2="0.13039776857954333" gradientTransform="matrix(636.712,0,0,598.985,251.84,106.505)" gradientUnits="userSpaceOnUse"><stop offset="0.4166666666666667%" stop-opacity="1" style="stop-color:rgb(206,147,216)"/><stop offset="98.75%" stop-opacity="1" style="stop-color:rgb(186,104,200)"/></linearGradient><path d=" M 887.827 250.276 L 876.178 405.11 L 864.529 559.944 C 855.185 684.143 757.229 739.609 645.918 683.73 L 490.849 605.884 L 335.78 528.037 C 224.469 472.158 223.774 380.066 334.23 322.514 L 519.428 226.017 L 704.626 129.521 C 815.082 71.968 897.171 126.077 887.827 250.276 Z " fill="url(#_lgradient_6)"/><linearGradient id="_lgradient_7" x1="0.026174784033005757" y1="0.4344414318473255" x2="0.703994063723608" y2="0.10596673710118443" gradientTransform="matrix(603.54,0,0,539.685,196.324,244.327)" gradientUnits="userSpaceOnUse"><stop offset="0%" stop-opacity="1" style="stop-color:rgb(244,65,105)"/><stop offset="100%" stop-opacity="1" style="stop-color:rgb(142,91,154)"/></linearGradient><path d=" M 622.406 765.594 L 448.696 683.282 L 274.986 600.971 C 170.733 551.571 170.014 469.876 273.382 418.649 L 429.346 341.358 L 585.309 264.066 C 688.677 212.84 777.891 264.763 784.409 379.943 L 791.949 513.175 L 799.489 646.407 C 806.007 761.588 726.659 814.993 622.406 765.594 Z " fill="url(#_lgradient_7)"/><linearGradient id="_lgradient_8" x1="0.9701964787443635" y1="0.5401170171258245" x2="0.5850875629617207" y2="0.2779710279804846" gradientTransform="matrix(488.402,0,0,466.37,139.112,363.27)" gradientUnits="userSpaceOnUse"><stop offset="1.25%" stop-opacity="1" style="stop-color:rgb(255,152,0)"/><stop offset="97.91666666666666%" stop-opacity="1" style="stop-color:rgb(255,103,91)"/></linearGradient><path d=" M 627.309 472.49 L 621.897 593.21 L 616.484 713.93 C 612.157 810.439 537.633 855.492 450.167 814.474 L 328.291 757.321 L 206.415 700.167 C 118.949 659.15 116.4 587.582 200.728 540.447 L 341.543 461.738 L 482.358 383.03 C 566.686 335.895 631.636 375.981 627.309 472.49 Z " fill="url(#_lgradient_8)"/></g></g></g></svg>