<?xml version="1.0" encoding="UTF-8" standalone="no"?><!-- Generator: Gravit.io --><svg xmlns="http://www.w3.org/2000/svg" xmlns:xlink="http://www.w3.org/1999/xlink" style="isolation:isolate" viewBox="0 0 600 600" width="600pt" height="600pt"><defs><clipPath id="_clipPath_zGxGf0yBjQMEQKZC04tjNLtXT2MQlUsZ"><rect width="600" height="600"/></clipPath></defs><g clip-path="url(#_clipPath_zGxGf0yBjQMEQKZC04tjNLtXT2MQlUsZ)"><clipPath id="_clipPath_HW4I1rhOAMhTcgr8lwTzz5vAltgtxIlL"><rect x="0" y="0" width="600" height="600" transform="matrix(1,0,0,1,0,0)" fill="rgb(255,255,255)"/></clipPath><g clip-path="url(#_clipPath_HW4I1rhOAMhTcgr8lwTzz5vAltgtxIlL)"><g><clipPath id="_clipPath_DcCoHpVJbJXr617BzFDbsnHPeZta9V0I"><rect x="0" y="0" width="600" height="600" transform="matrix(1,0,0,1,0,0)" fill="rgb(255,255,255)"/></clipPath><g clip-path="url(#_clipPath_DcCoHpVJbJXr617BzFDbsnHPeZta9V0I)"><g><g><clipPath id="_clipPath_h51r2GfjXkG8pfb5BGgceMjshIcHA1ta"><rect x="0" y="0" width="600" height="600" transform="matrix(1,0,0,1,0,0)" fill="rgb(255,255,255)"/></clipPath><g clip-path="url(#_clipPath_h51r2GfjXkG8pfb5BGgceMjshIcHA1ta)"><g><g><g><clipPath id="_clipPath_JQaFuBwNjX1x0KZXwQHbFvZEdeuCresR"><rect x="0" y="0" width="600" height="600" transform="matrix(1,0,0,1,0,0)" fill="rgb(255,255,255)"/></clipPath><g clip-path="url(#_clipPath_JQaFuBwNjX1x0KZXwQHbFvZEdeuCresR)"><g><g><g><g><rect x="0" y="0" width="600" height="600" transform="matrix(1,0,0,1,0,0)" fill="rgb(250,250,250)"/></g></g></g></g></g></g></g></g></g></g></g></g><linearGradient id="_lgradient_0" x1="0.5206330429984918" y1="0.6898211560000316" x2="-0.0048908240610612275" y2="-0.04642966359981082" gradientTransform="matrix(636.712,0,0,598.985,251.84,106.505)" gradientUnits="userSpaceOnUse"><stop offset="0%" stop-opacity="1" style="stop-color:rgb(255,128,81)"/><stop offset="98.26086956521739%" stop-opacity="1" style="stop-color:rgb(255,207,255)"/></linearGradient><path d=" M 887.827 250.276 L 876.178 405.11 L 864.529 559.944 C 855.185 684.143 757.229 739.609 645.918 683.73 L 490.849 605.884 L 335.78 528.037 C 224.469 472.158 223.774 380.066 334.23 322.514 L 519.428 226.017 L 704.626 129.521 C 815.082 71.968 897.171 126.077 887.827 250.276 Z " fill="url(#_lgradient_0)"/><linearGradient id="_lgradient_1" x1="0.23705189327008258" y1="0.3726769593309563" x2="0.708294461744565" y2="0.164193538036407" gradientTransform="matrix(603.54,0,0,539.685,196.324,244.327)" gradientUnits="userSpaceOnUse"><stop offset="0%" stop-opacity="1" style="stop-color:rgb(244,65,105)"/><stop offset="96.95652173913044%" stop-opacity="1" style="stop-color:rgb(206,107,188)"/></linearGradient><path d=" M 622.406 765.594 L 448.696 683.282 L 274.986 600.971 C 170.733 551.571 170.014 469.876 273.382 418.649 L 429.346 341.358 L 585.309 264.066 C 688.677 212.84 777.891 264.763 784.409 379.943 L 791.949 513.175 L 799.489 646.407 C 806.007 761.588 726.659 814.993 622.406 765.594 Z " fill="url(#_lgradient_1)"/><linearGradient id="_lgradient_2" x1="0.8883185952036753" y1="0.4712921555897148" x2="0.6007265293402423" y2="0.25712116148659986" gradientTransform="matrix(488.402,0,0,466.37,139.112,363.27)" gradientUnits="userSpaceOnUse"><stop offset="1.25%" stop-opacity="1" style="stop-color:rgb(106,27,154)"/><stop offset="98.33333333333333%" stop-opacity="1" style="stop-color:rgb(193,6,133)"/></linearGradient><path d=" M 627.309 472.49 L 621.897 593.21 L 616.484 713.93 C 612.157 810.439 537.633 855.492 450.167 814.474 L 328.291 757.321 L 206.415 700.167 C 118.949 659.15 116.4 587.582 200.728 540.447 L 341.543 461.738 L 482.358 383.03 C 566.686 335.895 631.636 375.981 627.309 472.49 Z " fill="url(#_lgradient_2)"/></g></g></g></svg>