<svg width="18" height="18" viewBox="0 0 18 18" fill="none" xmlns="http://www.w3.org/2000/svg">
<g clip-path="url(#clip0)">
<path d="M17.4726 2.82421H15.1757V0.527344C15.1757 0.236109 14.9396 0 14.6484 0C14.3572 0 14.121 0.236109 14.121 0.527344V2.82421H11.8242C11.533 2.82421 11.2969 3.06032 11.2969 3.35155C11.2969 3.64279 11.533 3.87889 11.8242 3.87889H14.121V6.17579C14.121 6.46703 14.3572 6.70314 14.6484 6.70314C14.9396 6.70314 15.1757 6.46703 15.1757 6.17579V3.87889H17.4726C17.7639 3.87889 18 3.64279 18 3.35155C18 3.06032 17.7639 2.82421 17.4726 2.82421Z" fill="black"/>
<path d="M6.17576 11.2969C2.77045 11.2969 0 14.0674 0 17.4727C0 17.7639 0.236109 18 0.527344 18H11.8242C12.1155 18 12.3516 17.7639 12.3516 17.4727C12.3516 14.0674 9.5811 11.2969 6.17576 11.2969ZM1.08165 16.9453C1.34648 14.3684 3.53004 12.3516 6.17576 12.3516C8.82155 12.3516 11.0051 14.3684 11.2699 16.9453H1.08165Z" fill="black"/>
<path d="M6.17573 2.2594C4.32771 2.2594 2.82422 3.76293 2.82422 5.61099C2.82422 7.45901 4.32771 8.96254 6.17573 8.96254C8.02378 8.96254 9.52731 7.45904 9.52731 5.61099C9.52731 3.76293 8.02378 2.2594 6.17573 2.2594ZM6.17573 7.90785C4.90926 7.90785 3.8789 6.87749 3.8789 5.61099C3.8789 4.34445 4.90926 3.31409 6.17573 3.31409C7.44223 3.31409 8.47262 4.34448 8.47262 5.61099C8.47262 6.87749 7.44223 7.90785 6.17573 7.90785Z" fill="black"/>
</g>
<defs>
<clipPath id="clip0">
<rect width="18" height="18" fill="white"/>
</clipPath>
</defs>
</svg>
