<?xml version="1.0" standalone="no"?><!-- Generator: Gravit.io --><svg xmlns="http://www.w3.org/2000/svg" xmlns:xlink="http://www.w3.org/1999/xlink" style="isolation:isolate" viewBox="0 0 511.999 511.999" width="511.999" height="511.999"><defs><clipPath id="_clipPath_5XjPT12tVUs8rtOyAV4u1eNU05QfmPN8"><rect width="511.999" height="511.999"/></clipPath></defs><g clip-path="url(#_clipPath_5XjPT12tVUs8rtOyAV4u1eNU05QfmPN8)"><path d=" M 412.41 0 L 99.589 0 C 47.531 0 5.332 42.201 5.332 94.257 L 5.332 299.429 C 5.332 351.486 47.533 393.686 99.589 393.686 L 144.483 393.686 C 146.619 393.686 148.35 395.417 148.35 397.553 L 148.35 498.76 C 148.35 510.726 162.987 516.528 171.184 507.81 L 277.372 394.904 C 278.103 394.126 279.123 393.686 280.19 393.686 L 412.41 393.686 C 464.467 393.686 506.667 351.485 506.667 299.429 L 506.667 94.257 C 506.667 42.201 464.466 0 412.41 0 Z " fill="rgb(233,30,99)"/><path d=" M 188.005 358.509 C 188.005 356.26 186.329 354.437 184.261 354.437 L 140.799 354.437 C 90.403 354.437 49.549 309.998 49.549 255.18 L 49.549 39.123 C 49.549 29.847 50.723 20.87 52.91 12.353 C 24.489 28.587 5.332 59.184 5.332 94.257 L 5.332 299.429 C 5.332 351.485 47.533 393.686 99.589 393.686 L 144.483 393.686 C 146.619 393.686 148.35 395.418 148.35 397.553 L 148.35 498.76 C 148.35 510.726 162.987 516.528 171.184 507.81 L 188.004 489.925 L 188.004 358.509 L 188.005 358.509 L 188.005 358.509 Z " fill="rgb(194,24,91)"/><path d=" M 361.908 122.325 L 361.908 122.325 C 337.977 98.394 299.177 98.394 275.245 122.325 L 261.727 135.843 C 258.504 139.066 253.277 139.066 250.054 135.843 L 236.752 122.541 C 212.821 98.61 174.021 98.61 150.089 122.541 L 150.089 122.541 C 126.158 146.472 126.158 185.272 150.089 209.204 L 250.062 309.177 C 253.285 312.4 258.512 312.4 261.735 309.177 L 361.907 208.988 C 385.839 185.056 385.839 146.257 361.908 122.325 Z " fill="rgb(236,85,105)"/><path d=" M 361.908 122.325 L 361.908 122.325 C 337.977 98.394 299.177 98.394 275.245 122.325 L 261.727 135.843 C 258.504 139.066 253.277 139.066 250.054 135.843 L 236.752 122.541 C 212.821 98.61 174.021 98.61 150.089 122.541 L 150.089 122.541 C 126.158 146.472 126.158 185.272 150.089 209.204 L 250.062 309.177 C 253.285 312.4 258.512 312.4 261.735 309.177 L 361.907 208.988 C 385.839 185.056 385.839 146.257 361.908 122.325 Z " fill="rgb(255,245,245)"/><path d=" M 182.145 209.204 C 158.214 185.273 158.214 146.473 182.145 122.541 L 182.145 122.541 C 189.995 114.691 199.449 109.433 209.448 106.734 C 188.962 101.202 166.17 106.46 150.09 122.541 L 150.09 122.541 C 126.159 146.472 126.159 185.272 150.09 209.204 L 250.063 309.177 C 253.286 312.4 258.513 312.4 261.736 309.177 L 271.926 298.985 L 182.145 209.204 L 182.145 209.204 Z " fill="rgb(220,230,235)"/></g></svg>