<svg width="30" height="30" viewBox="0 0 30 30" fill="none" xmlns="http://www.w3.org/2000/svg">
<g clip-path="url(#clip0)">
<path d="M6.72428 30H10.3045L4.65527 26.3793L0.0117188 23.6659C0.214512 27.1928 3.14754 30 6.72428 30Z" fill="#FDE494"/>
<path d="M19.6552 27.9311L15.6118 26.8966H6.72416C4.72775 26.8966 3.10348 25.2723 3.10348 23.2759V21.291L1.55174 19.6257L0 19.9001V23.2758C0 23.4069 0.00421875 23.5368 0.0116016 23.6659L10.3044 30H22.5369L19.6552 27.9311Z" fill="#FEA150"/>
<path d="M25.8782 25.7895C25.2194 26.4713 24.2966 26.8965 23.2758 26.8965H15.6118L22.5368 30H23.2758C25.69 30 27.8107 28.721 28.9969 26.8051L27.4136 25.8621L25.8782 25.7895Z" fill="#FF5D4A"/>
<path d="M26.8965 19.1024V23.2759C26.8965 24.2516 26.5078 25.1377 25.8782 25.7895L28.997 26.8051C29.6325 25.7786 30 24.5694 30 23.2758V19.5959L28.3947 18.694L26.8965 19.1024Z" fill="#E45261"/>
<path d="M30 8.7416L28.3474 8.34808L26.8965 9.21679V19.1024L30 19.5959V8.7416Z" fill="#FF4D95"/>
<path d="M29.9999 6.72417C29.9999 3.34723 27.4975 0.544108 24.2498 0.0708466L20.1814 1.76374L18.1199 3.10348H23.2758C25.2722 3.10348 26.8965 4.72776 26.8965 6.72417V9.2168L29.9999 8.74161V6.72417Z" fill="#CB319C"/>
<path d="M18.6169 0L14.7684 1.44352L11.7329 3.10348H18.1197L24.2496 0.0707812C23.9315 0.0244336 23.6065 0 23.2756 0H18.6169Z" fill="#8A3293"/>
<path d="M14.9998 23.7931C16.0755 23.7931 17.1065 23.5986 18.06 23.2435L13.0197 20.9556L7.67725 19.8624C9.25447 22.2299 11.9479 23.7931 14.9998 23.7931Z" fill="#FF5D4A"/>
<path d="M19.2863 17.8921C18.3557 19.267 16.7816 20.1724 15 20.1724C12.6403 20.1724 10.646 18.5835 10.0273 16.4197L8.63972 15.5525L6.24634 15.8184C6.38421 17.3034 6.89169 18.6828 7.67749 19.8623L18.0602 23.2435C20.3045 22.4077 22.117 20.6796 23.0675 18.4934L21.207 17.5509L19.2863 17.8921Z" fill="#E45261"/>
<path d="M9.82771 15C9.82771 13.7181 10.2975 12.5445 11.0727 11.6399L8.86613 11.3312L6.62492 12.321C6.35393 13.166 6.20703 14.0662 6.20703 15C6.20703 15.2761 6.22133 15.5488 6.24635 15.8184L10.0274 16.4197C9.89832 15.9682 9.82771 15.4924 9.82771 15Z" fill="#FF4D95"/>
<path d="M23.7933 15C23.7933 13.1169 23.198 11.3704 22.1862 9.93809L19.995 9.62708L17.7439 10.6183C19.2013 11.5342 20.1726 13.1553 20.1726 15C20.1726 16.0705 19.8457 17.0661 19.2865 17.8921L23.0676 18.4934C23.5334 17.4219 23.7933 16.241 23.7933 15Z" fill="#FF4D95"/>
<path d="M15 9.82758C16.0074 9.82758 16.9477 10.1181 17.7437 10.6183L22.186 9.93809C20.5925 7.68264 17.9655 6.20689 15 6.20689C11.0853 6.20689 7.76048 8.77852 6.62476 12.3209L11.0725 11.6398C12.0218 10.5318 13.4298 9.82758 15 9.82758Z" fill="#CB319C"/>
<path d="M23.276 8.79311C24.4168 8.79311 25.3449 7.86498 25.3449 6.72416C25.3449 5.58334 24.4168 4.65521 23.276 4.65521C22.1352 4.65521 21.207 5.58334 21.207 6.72416C21.207 7.86498 22.1352 8.79311 23.276 8.79311Z" fill="#CB319C"/>
<path d="M3.10348 18.3729L1.60957 17.6278L0 17.3623V19.9001L3.10348 21.291V18.3729Z" fill="#FF5D4A"/>
<path d="M0 14.825V17.3623L3.10348 18.3729V15.3186L1.49098 14.7388L0 14.825Z" fill="#E45261"/>
<path d="M3.10348 12.8601L1.50873 12.8457L0 13.3354V14.825L3.10348 15.3186V12.8601Z" fill="#FF4D95"/>
<path d="M3.10348 10.5326L1.45963 10.6994L0 12.0681V13.3353L3.10348 12.8601V10.5326Z" fill="#CB319C"/>
<path d="M0 12.0681L3.10348 10.5326V6.99387L1.2832 7.16795L0 8.39303V12.0681Z" fill="#8A3293"/>
<path d="M12.0152 0L4.93395 2.7235L0.0812695 5.67938C0.0279492 6.01998 0 6.36885 0 6.72416V8.39303L3.10348 6.99393V6.7241C3.10348 4.7277 4.72775 3.10342 6.72416 3.10342H11.7332L18.6171 0H12.0152Z" fill="#523494"/>
<path d="M6.72419 0C3.37181 0 0.584678 2.46609 0.0812988 5.67938L12.0152 0H6.72419Z" fill="#2D2D87"/>
</g>
<defs>
<clipPath id="clip0">
<rect width="30" height="30" fill="white"/>
</clipPath>
</defs>
</svg>
