<svg width="40" height="46" viewBox="0 0 40 46" fill="none" xmlns="http://www.w3.org/2000/svg">
<path d="M13.6046 1L19.8837 7.27907L26.1628 1" stroke="#D81B60" stroke-width="2" stroke-miterlimit="10" stroke-linecap="round" stroke-linejoin="round"/>
<path d="M39.7674 17.7442V34.4884C39.7674 40.8355 34.6029 46 28.2558 46H11.5116C5.16453 46 0 40.8355 0 34.4884V17.7442C0 11.3971 5.16453 6.23254 11.5116 6.23254H28.2558C34.6029 6.23254 39.7674 11.3971 39.7674 17.7442ZM20.137 30.2709L32.6951 27.1314C33.256 26.9911 33.5972 26.4229 33.457 25.862C33.3167 25.301 32.7474 24.9599 32.1886 25.1001L20.9302 27.9152V22.9767C20.9302 22.6544 20.7816 22.3499 20.5273 22.1521C20.273 21.9532 19.9413 21.8831 19.6305 21.9616L7.07233 25.1011C6.5114 25.2414 6.17128 25.8096 6.31046 26.3706C6.4507 26.9315 7.02 27.2737 7.57988 27.1324L18.8372 24.3173V29.2558C18.8372 29.5781 18.9858 29.8827 19.2401 30.0805C19.4264 30.2259 19.6524 30.3023 19.8837 30.3023C19.9685 30.3023 20.0533 30.2918 20.137 30.2709Z" fill="#D81B60"/>
</svg>
