<svg width="31" height="25" viewBox="0 0 31 25" fill="none" xmlns="http://www.w3.org/2000/svg">
<path fill-rule="evenodd" clip-rule="evenodd" d="M29.0363 7.69173C28.9911 7.34364 28.6742 7.09482 28.3235 7.14255L23.5082 7.76555L15.4333 2.47355C15.4893 2.29409 15.5282 2.107 15.5282 1.90909C15.5282 0.856545 14.6716 0 13.6191 0C12.5665 0 11.71 0.856545 11.71 1.90909C11.71 2.23809 11.8016 2.54291 11.9486 2.81336L5.36989 10.1099L0.554527 10.7329C0.206436 10.7781 -0.0398369 11.0969 0.00534496 11.4456L1.63698 24.0673C1.65862 24.2353 1.7458 24.3867 1.87944 24.4898C1.99144 24.5764 2.12825 24.6222 2.26825 24.6222C2.29498 24.6222 2.32234 24.6203 2.34971 24.6171L30.1187 21.0267C30.2867 21.0051 30.4382 20.9173 30.5413 20.7836C30.6443 20.65 30.6895 20.4807 30.6685 20.314L29.0363 7.69173ZM12.8879 3.67118C13.1132 3.76473 13.3594 3.81755 13.6184 3.81755C14.0085 3.81755 14.3713 3.69855 14.6735 3.49745L21.5685 8.01627L7.30889 9.85918L12.8879 3.67118Z" fill="white"/>
<path d="M10.4551 13.0849L11.5528 20.8174L10.0607 21.0292L9.59228 17.7292L6.08544 18.2271L6.55391 21.527L5.05097 21.7404L3.95325 14.0079L5.45619 13.7945L5.89991 16.9202L9.40675 16.4224L8.96302 13.2967L10.4551 13.0849ZM16.4735 20.1743C15.9072 20.2547 15.3763 20.219 14.8807 20.0672C14.3913 19.907 13.9539 19.6691 13.5683 19.3535C13.189 19.0296 12.8751 18.6446 12.6266 18.1984C12.3781 17.7523 12.2188 17.2823 12.1487 16.7886C12.0756 16.2731 12.0999 15.766 12.2216 15.2672C12.3507 14.7675 12.5564 14.3124 12.8389 13.9019C13.1286 13.4905 13.4908 13.1465 13.9256 12.87C14.3593 12.5862 14.8485 12.4056 15.393 12.3283C15.9521 12.249 16.4768 12.293 16.9672 12.4604C17.4639 12.6195 17.9018 12.861 18.2811 13.1849C18.6604 13.5088 18.9743 13.8938 19.2228 14.34C19.4713 14.7862 19.6301 15.2525 19.6992 15.7389C19.7723 16.2544 19.748 16.7616 19.6263 17.2603C19.5035 17.7518 19.3008 18.2027 19.0184 18.6132C18.7349 19.0163 18.3763 19.3598 17.9425 19.6436C17.5077 19.9201 17.0181 20.097 16.4735 20.1743ZM13.6734 16.5721C13.7209 16.9061 13.8176 17.222 13.9635 17.5198C14.1095 17.8176 14.2939 18.0728 14.5167 18.2856C14.7467 18.4974 15.01 18.6563 15.3065 18.7624C15.6103 18.8674 15.94 18.8946 16.2958 18.8441C16.6588 18.7926 16.968 18.6746 17.2233 18.4902C17.4848 18.2976 17.6924 18.0644 17.8461 17.7908C18.0071 17.5161 18.1132 17.2196 18.1643 16.9012C18.2216 16.5746 18.2276 16.2515 18.1822 15.9321C18.1348 15.5981 18.0345 15.2827 17.8813 14.986C17.7353 14.6882 17.5473 14.4334 17.3173 14.2217C17.0945 14.0089 16.8317 13.8536 16.529 13.7558C16.2324 13.6498 15.9099 13.6215 15.5614 13.671C15.1984 13.7225 14.8861 13.8446 14.6246 14.0373C14.3621 14.2227 14.1539 14.4522 14.0002 14.7259C13.8454 14.9923 13.7394 15.2888 13.6821 15.6154C13.631 15.9338 13.6281 16.2527 13.6734 16.5721ZM25.9086 12.2354L23.4364 12.5864L24.347 19.0011L22.855 19.2129L21.9443 12.7982L19.4721 13.1491L19.285 11.8314L25.7215 10.9176L25.9086 12.2354Z" fill="#C22B63"/>
</svg>
