<?xml version="1.0" encoding="UTF-8" standalone="no"?><!-- Generator: Gravit.io --><svg xmlns="http://www.w3.org/2000/svg" xmlns:xlink="http://www.w3.org/1999/xlink" style="isolation:isolate" viewBox="0 0 500 600" width="500pt" height="600pt"><defs><clipPath id="_clipPath_wdf5DKDnUK7BPk0Q9arNMalF1DXLRX1D"><rect width="500" height="600"/></clipPath></defs><g clip-path="url(#_clipPath_wdf5DKDnUK7BPk0Q9arNMalF1DXLRX1D)"><clipPath id="_clipPath_CRIurYllvLnzSjwNaRE1YTqeqKSP3zX6"><rect x="0" y="0" width="600" height="600" transform="matrix(1,0,0,1,0,0)" fill="rgb(255,255,255)"/></clipPath><g clip-path="url(#_clipPath_CRIurYllvLnzSjwNaRE1YTqeqKSP3zX6)"><g><rect x="0" y="0" width="600" height="600" transform="matrix(1,0,0,1,0,0)" fill="rgb(250,250,250)"/><clipPath id="_clipPath_osw1cxZ3J3kOkS5jKyztlVEs6INZEo0t"><rect x="0" y="0" width="600" height="600" transform="matrix(1,0,0,1,0,0)" fill="rgb(255,255,255)"/></clipPath><g clip-path="url(#_clipPath_osw1cxZ3J3kOkS5jKyztlVEs6INZEo0t)"><g><g><g><g style="opacity:0.8;"><g opacity="0.8"><linearGradient id="_lgradient_0" x1="0.9810912046793576" y1="0.17379998503682437" x2="0.1626096253685838" y2="0.12006121600184685" gradientTransform="matrix(492.004,0,0,615.269,74.403,160.66)" gradientUnits="userSpaceOnUse"><stop offset="49.130434782608695%" stop-opacity="1" style="stop-color:rgb(216,96,118)"/><stop offset="98.26086956521739%" stop-opacity="1" style="stop-color:rgb(238,119,82)"/></linearGradient><path d=" M 125.261 699.919 L 75.055 290.715 C 69.238 243.307 103.005 200.096 150.412 194.279 L 419.114 161.312 C 466.522 155.495 509.733 189.262 515.55 236.669 L 565.756 645.874 C 571.572 693.282 537.806 736.493 490.398 742.31 L 221.696 775.277 C 174.289 781.094 131.077 747.327 125.261 699.919 Z " fill="url(#_lgradient_0)"/></g></g><g style="opacity:0.85;"><g opacity="0.85"><linearGradient id="_lgradient_1" x1="0.5284099096829682" y1="0.08526130662714793" x2="0.12806731569948138" y2="0.5076005537744348" gradientTransform="matrix(461.537,0,0,465.303,13.458,226.732)" gradientUnits="userSpaceOnUse"><stop offset="48.62660508012468%" stop-opacity="1" style="stop-color:rgb(216,96,118)"/><stop offset="97.66669878295657%" stop-opacity="1" style="stop-color:rgb(238,119,82)"/></linearGradient><path d=" M 321.041 256.913 L 460.254 444.333 C 484.865 477.466 477.946 524.346 444.813 548.957 L 272.036 677.295 C 238.903 701.905 192.022 694.986 167.411 661.853 L 28.198 474.434 C 3.587 441.301 10.506 394.42 43.639 369.809 L 216.416 241.472 C 249.549 216.861 296.43 223.78 321.041 256.913 Z " fill="url(#_lgradient_1)"/></g></g><g style="opacity:0.9;"><g opacity="0.9"><path d=" M 482.2 300.157 L 610.8 476.71 C 639.071 515.522 630.512 569.984 591.7 598.255 L 437.192 710.798 C 398.38 739.069 343.917 730.51 315.647 691.698 L 187.046 515.145 C 158.776 476.333 167.334 421.87 206.146 393.6 L 360.655 281.057 C 399.467 252.786 453.929 261.344 482.2 300.157 Z " fill="rgb(169,44,92)"/></g></g></g></g></g></g></g></g></g></svg>