<svg xmlns="http://www.w3.org/2000/svg" width="70" height="70" viewBox="0 0 70 70" >
  
<defs fill="none" stroke="none"><mask id="maskSivxrv2q7o6d"><rect x="35" y="0" width="35" height="70" rx="0" ry="0" fill="#ffffff"></rect></mask></defs><g class="content"><g class="base"><g fill="none" fill-rule="evenodd" stroke="none" class="main-fill">
    
    <path fill="none" d="M13.94645,0.0289916667 C6.241025,0.0289916667 0,4.71613333 0,10.5016333 C0,13.6140083 1.80955833,16.401 4.67436667,18.3255917 C4.41519167,19.7794917 3.92011667,21.5448917 2.9694,22.9628 C4.20484167,22.9628 7.30210833,21.521675 9.50215,20.423375 C10.8967833,20.7778667 12.3914,20.970775 13.9452833,20.970775 C21.6507083,20.970775 27.8917333,16.283575 27.8917333,10.5016333 C27.8929583,4.71613333 21.651875,0.0289916667 13.94645,0.0289916667 L13.94645,0.0289916667 Z M20.6198417,10.6492167 C20.5686833,10.8432917 20.4862,11.059475 20.350225,11.2884333 C20.100325,11.7649583 19.7528333,12.1821583 19.3472417,12.5308167 C17.4005417,14.579775 13.944175,16.885575 13.944175,16.885575 C13.944175,16.885575 10.4866417,14.5774417 8.526,12.5308167 C8.11924167,12.1821583 7.77869167,11.7660667 7.531125,11.2884333 C7.39398333,11.059475 7.30333333,10.8432917 7.259175,10.6492167 C7.12086667,10.23085 7.04299167,9.79148333 7.04299167,9.326625 C7.04299167,7.00105 8.919925,5.12178333 11.232725,5.12178333 C12.7866083,5.12178333 13.933675,6.80003333 13.933675,7.92388333 C13.933675,6.80003333 14.5182917,5.12178333 16.645125,5.12178333 C18.9602583,5.12178333 20.8371917,7.00105 20.8371917,9.326625 C20.8371917,9.79154167 20.75815,10.2320167 20.6198417,10.6492167 L20.6198417,10.6492167 Z" transform="translate(21 23.508)" stroke="none" class="main-fill"></path>
  </g></g><g class="masked" mask="url('#maskSivxrv2q7o6d')"><g fill="none" fill-rule="evenodd" stroke="none" class="main-fill--darken">
    
    <path fill="none" d="M13.94645,0.0289916667 C6.241025,0.0289916667 0,4.71613333 0,10.5016333 C0,13.6140083 1.80955833,16.401 4.67436667,18.3255917 C4.41519167,19.7794917 3.92011667,21.5448917 2.9694,22.9628 C4.20484167,22.9628 7.30210833,21.521675 9.50215,20.423375 C10.8967833,20.7778667 12.3914,20.970775 13.9452833,20.970775 C21.6507083,20.970775 27.8917333,16.283575 27.8917333,10.5016333 C27.8929583,4.71613333 21.651875,0.0289916667 13.94645,0.0289916667 L13.94645,0.0289916667 Z M20.6198417,10.6492167 C20.5686833,10.8432917 20.4862,11.059475 20.350225,11.2884333 C20.100325,11.7649583 19.7528333,12.1821583 19.3472417,12.5308167 C17.4005417,14.579775 13.944175,16.885575 13.944175,16.885575 C13.944175,16.885575 10.4866417,14.5774417 8.526,12.5308167 C8.11924167,12.1821583 7.77869167,11.7660667 7.531125,11.2884333 C7.39398333,11.059475 7.30333333,10.8432917 7.259175,10.6492167 C7.12086667,10.23085 7.04299167,9.79148333 7.04299167,9.326625 C7.04299167,7.00105 8.919925,5.12178333 11.232725,5.12178333 C12.7866083,5.12178333 13.933675,6.80003333 13.933675,7.92388333 C13.933675,6.80003333 14.5182917,5.12178333 16.645125,5.12178333 C18.9602583,5.12178333 20.8371917,7.00105 20.8371917,9.326625 C20.8371917,9.79154167 20.75815,10.2320167 20.6198417,10.6492167 L20.6198417,10.6492167 Z" transform="translate(21 23.508)" stroke="none" class="main-fill--darken"></path>
  </g></g></g><style>
          .main-fill {fill: #B12048;}
          .main-stroke {stroke: #B12048;}
          .secondary-fill {fill: #F6E8E9;}
          .secondary-stroke {stroke: #F6E8E9;}

          .main-fill--darken {fill: #70142e;}
          .main-stroke--darken {stroke: #70142e;}
          .secondary-fill--darken {fill: #e0b1b4;}
          .secondary-stroke--darken {stroke: #e0b1b4;}

          .main-fill--darkener {fill: #450c1c;}
          .main-stroke--darkener {stroke: #450c1c;}
          .secondary-fill--darkener {fill: #d28c91;}
          .secondary-stroke--darkener {stroke: #d28c91;}
        </style></svg>