<svg width="50" height="42" viewBox="0 0 50 42" fill="none" xmlns="http://www.w3.org/2000/svg">
<path d="M12.364 35.8027V33.7619C12.3759 33.5903 12.3511 33.4181 12.2912 33.2568C12.2313 33.0955 12.1378 32.9488 12.0167 32.8265C11.8957 32.7042 11.75 32.6091 11.5894 32.5475C11.4287 32.486 11.2568 32.4593 11.0851 32.4694C10.8603 32.4547 10.6356 32.5005 10.4346 32.6023C10.2335 32.704 10.0635 32.8578 9.94221 33.0476C9.83163 32.8635 9.67344 32.7126 9.48429 32.6108C9.2951 32.509 9.08197 32.4602 8.86738 32.4694C8.68031 32.4599 8.49402 32.4995 8.32697 32.5843C8.1599 32.669 8.01789 32.7959 7.915 32.9524V32.551H7.20752V35.8027H7.92181V34.0136C7.9066 33.9024 7.91616 33.7892 7.9498 33.6821C7.98344 33.5751 8.04031 33.4768 8.11633 33.3942C8.19238 33.3117 8.28572 33.2469 8.3897 33.2047C8.49364 33.1624 8.60565 33.1436 8.71772 33.1497C9.18711 33.1497 9.42521 33.4558 9.42521 34.0068V35.8163H10.1395V34.0136C10.1249 33.9025 10.1349 33.7896 10.1688 33.6828C10.2026 33.576 10.2595 33.4779 10.3354 33.3955C10.4114 33.3131 10.5044 33.2484 10.6081 33.2059C10.7118 33.1634 10.8235 33.1442 10.9354 33.1497C11.4184 33.1497 11.6497 33.4558 11.6497 34.0068V35.8163L12.364 35.8027ZM22.932 32.551H21.7687V31.5646H21.0545V32.551H20.4082V33.1973H21.0681V34.6939C21.0681 35.449 21.3606 35.898 22.1973 35.898C22.5099 35.899 22.8165 35.8119 23.0817 35.6463L22.8776 35.0408C22.6879 35.1541 22.4725 35.217 22.2517 35.2245C21.9116 35.2245 21.7823 35.0068 21.7823 34.6803V33.1973H22.9388L22.932 32.551ZM28.966 32.4694C28.7935 32.4643 28.6229 32.5059 28.472 32.5897C28.3212 32.6735 28.1957 32.7964 28.1089 32.9456V32.551H27.4082V35.8027H28.1157V33.9796C28.1157 33.4422 28.347 33.1429 28.796 33.1429C28.9473 33.1408 29.0975 33.1685 29.2381 33.2245L29.4558 32.5442C29.2943 32.4864 29.124 32.4565 28.9524 32.4558L28.966 32.4694ZM19.8436 32.8095C19.4431 32.5714 18.9827 32.4534 18.517 32.4694C17.6939 32.4694 17.1565 32.8639 17.1565 33.5102C17.1565 34.0408 17.5511 34.3674 18.2789 34.4694L18.6191 34.517C19.0068 34.5714 19.1905 34.6735 19.1905 34.8571C19.1905 35.1089 18.932 35.2517 18.449 35.2517C18.0605 35.2629 17.6795 35.1432 17.3674 34.9116L17.0272 35.4626C17.4394 35.7503 17.933 35.8983 18.4354 35.8844C19.3742 35.8844 19.9184 35.4422 19.9184 34.8231C19.9184 34.2041 19.4898 33.9524 18.7823 33.8503L18.4422 33.8027C18.1361 33.7619 17.8912 33.7007 17.8912 33.483C17.8912 33.2653 18.1225 33.102 18.5102 33.102C18.8686 33.1062 19.22 33.2023 19.5306 33.381L19.8436 32.8095ZM38.7926 32.4694C38.6201 32.4643 38.4494 32.5059 38.2987 32.5897C38.1477 32.6735 38.0221 32.7964 37.9354 32.9456V32.551H37.2347V35.8027H37.9422V33.9796C37.9422 33.4422 38.1735 33.1429 38.6225 33.1429C38.7738 33.1408 38.9242 33.1685 39.0647 33.2245L39.2823 32.5442C39.1208 32.4864 38.9507 32.4565 38.7789 32.4558L38.7926 32.4694ZM29.6769 34.1701C29.6685 34.3986 29.7079 34.6262 29.7925 34.8388C29.8772 35.051 30.0052 35.2435 30.1685 35.4037C30.3318 35.5636 30.5267 35.6881 30.7408 35.7684C30.9548 35.849 31.1833 35.8837 31.4116 35.8708C31.8364 35.8925 32.2538 35.7541 32.5817 35.483L32.2415 34.9116C31.997 35.098 31.6987 35.2007 31.3912 35.2041C31.1297 35.183 30.8857 35.064 30.7078 34.8711C30.53 34.6782 30.4312 34.4255 30.4312 34.1633C30.4312 33.9009 30.53 33.6481 30.7078 33.4553C30.8857 33.2624 31.1297 33.1436 31.3912 33.1225C31.6987 33.1259 31.997 33.2285 32.2415 33.415L32.5817 32.8435C32.2538 32.5725 31.8364 32.4342 31.4116 32.4558C31.1833 32.4428 30.9548 32.4777 30.7408 32.5581C30.5267 32.6386 30.3318 32.7628 30.1685 32.9229C30.0052 33.083 29.8772 33.2754 29.7925 33.4878C29.7079 33.7002 29.6685 33.928 29.6769 34.1565V34.1701ZM36.3028 34.1701V32.551H35.5953V32.9456C35.4752 32.791 35.3201 32.6672 35.1426 32.5844C34.965 32.5016 34.7704 32.4622 34.5749 32.4694C34.1238 32.4694 33.6912 32.6486 33.3723 32.9675C33.0534 33.2864 32.8742 33.719 32.8742 34.1701C32.8742 34.6211 33.0534 35.0537 33.3723 35.3728C33.6912 35.6915 34.1238 35.8708 34.5749 35.8708C34.7704 35.8779 34.965 35.8384 35.1426 35.7558C35.3201 35.6728 35.4752 35.549 35.5953 35.3946V35.7891H36.3028V34.1701ZM33.6701 34.1701C33.6814 33.9787 33.7484 33.7947 33.8629 33.6409C33.9774 33.4871 34.1344 33.3702 34.3143 33.3045C34.4946 33.2387 34.6902 33.2271 34.8766 33.2711C35.0633 33.315 35.233 33.4126 35.365 33.5517C35.4966 33.6909 35.5851 33.8656 35.6191 34.0544C35.6528 34.2432 35.6306 34.4374 35.5555 34.614C35.4803 34.7901 35.3548 34.9408 35.1953 35.0466C35.0354 35.1527 34.8483 35.2099 34.6565 35.2109C34.5218 35.2126 34.3881 35.1864 34.2643 35.134C34.1402 35.0816 34.0283 35.0041 33.9356 34.9061C33.843 34.8085 33.7715 34.6925 33.7258 34.566C33.6802 34.4391 33.6612 34.3044 33.6701 34.1701ZM25.1327 32.4694C24.6816 32.4757 24.2516 32.6609 23.9371 32.9843C23.6226 33.3078 23.4495 33.7428 23.4558 34.1939C23.4621 34.6449 23.6474 35.0748 23.9708 35.3895C24.2942 35.7041 24.7293 35.8772 25.1803 35.8708C25.6697 35.8959 26.1509 35.7384 26.5306 35.4286L26.1905 34.9048C25.9219 35.1201 25.5892 35.2398 25.2449 35.2449C25.0111 35.265 24.7786 35.1932 24.5969 35.0446C24.4153 34.8959 24.2987 34.6823 24.2721 34.449H26.6871C26.6871 34.3605 26.6871 34.2721 26.6871 34.1769C26.6871 33.1565 26.0545 32.4762 25.1429 32.4762L25.1327 32.4694ZM25.1327 33.102C25.2386 33.0998 25.3438 33.1184 25.4425 33.1568C25.5412 33.1953 25.6313 33.2528 25.7077 33.3261C25.7842 33.3994 25.8454 33.487 25.888 33.5839C25.9305 33.6809 25.9536 33.7853 25.9558 33.8912H24.2551C24.2674 33.6728 24.3648 33.468 24.5263 33.3205C24.6877 33.173 24.9005 33.0946 25.1191 33.102H25.1327ZM42.8572 34.1769V31.2449H42.1769V32.9456C42.0568 32.791 41.9017 32.6672 41.7242 32.5844C41.5466 32.5016 41.3521 32.4622 41.1565 32.4694C40.7055 32.4694 40.2728 32.6486 39.9538 32.9675C39.6351 33.2864 39.4558 33.719 39.4558 34.1701C39.4558 34.6211 39.6351 35.0537 39.9538 35.3728C40.2728 35.6915 40.7055 35.8708 41.1565 35.8708C41.3521 35.8779 41.5466 35.8384 41.7242 35.7558C41.9017 35.6728 42.0568 35.549 42.1769 35.3946V35.7891H42.8572V34.1769ZM44.0374 35.3299C44.0817 35.3293 44.1255 35.3374 44.1667 35.3537C44.2058 35.3697 44.2415 35.3929 44.2721 35.4218C44.3021 35.451 44.3262 35.4857 44.3436 35.5238C44.3609 35.5636 44.3698 35.6065 44.3698 35.6497C44.3698 35.6929 44.3609 35.7357 44.3436 35.7755C44.3262 35.8136 44.3021 35.8483 44.2721 35.8776C44.2415 35.9065 44.2058 35.9296 44.1667 35.9456C44.1259 35.9636 44.082 35.9728 44.0374 35.9728C43.9728 35.9725 43.9099 35.9534 43.8558 35.9187C43.8014 35.8837 43.7585 35.834 43.7313 35.7755C43.7143 35.7357 43.7055 35.6929 43.7055 35.6497C43.7055 35.6065 43.7143 35.5636 43.7313 35.5238C43.7487 35.4857 43.7728 35.451 43.8028 35.4218C43.8334 35.3929 43.8691 35.3697 43.9082 35.3537C43.9524 35.3361 44 35.3279 44.0477 35.3299H44.0374ZM44.0374 35.9048C44.0715 35.9051 44.1051 35.898 44.1361 35.8844C44.1653 35.8714 44.1919 35.8527 44.2143 35.8299C44.2568 35.7837 44.2803 35.7228 44.2803 35.6599C44.2803 35.5969 44.2568 35.5361 44.2143 35.4898C44.1919 35.4667 44.1653 35.4483 44.1361 35.4354C44.1051 35.4218 44.0715 35.415 44.0374 35.415C44.0034 35.4153 43.9701 35.4221 43.9388 35.4354C43.9082 35.448 43.8806 35.4663 43.8572 35.4898C43.8147 35.5361 43.7912 35.5969 43.7912 35.6599C43.7912 35.7228 43.8147 35.7837 43.8572 35.8299C43.8806 35.8534 43.9082 35.8718 43.9388 35.8844C43.9732 35.899 44.0102 35.9061 44.0477 35.9048H44.0374ZM44.0579 35.5C44.0895 35.4983 44.1208 35.5082 44.1463 35.5272C44.1568 35.5357 44.165 35.5469 44.1701 35.5592C44.1755 35.5718 44.1779 35.585 44.1769 35.5986C44.1772 35.6099 44.1755 35.6211 44.1715 35.6316C44.1674 35.6422 44.1609 35.6517 44.1531 35.6599C44.1334 35.6779 44.1082 35.6884 44.0817 35.6905L44.1803 35.8027H44.1021L44.0102 35.6905H43.9796V35.8027H43.915V35.5034L44.0579 35.5ZM43.983 35.5578V35.6395H44.0579C44.0711 35.6435 44.0854 35.6435 44.0987 35.6395C44.1011 35.6347 44.1024 35.6296 44.1024 35.6242C44.1024 35.6187 44.1011 35.6136 44.0987 35.6089C44.1011 35.6041 44.1024 35.599 44.1024 35.5935C44.1024 35.5881 44.1011 35.583 44.0987 35.5782C44.0854 35.5742 44.0711 35.5742 44.0579 35.5782L43.983 35.5578ZM40.2415 34.1769C40.2528 33.9855 40.3198 33.8015 40.4344 33.6477C40.5487 33.494 40.7058 33.377 40.8857 33.3113C41.066 33.2455 41.2616 33.234 41.448 33.2779C41.6347 33.3218 41.8045 33.4194 41.9364 33.5585C42.0681 33.6977 42.1565 33.8724 42.1905 34.0612C42.2242 34.25 42.2021 34.4442 42.1269 34.6208C42.0517 34.7969 41.9262 34.9476 41.7667 35.0534C41.6068 35.1595 41.4198 35.2167 41.2279 35.2177C41.0932 35.2194 40.9596 35.1932 40.8357 35.1408C40.7116 35.0884 40.5997 35.0109 40.5072 34.9129C40.4143 34.8153 40.3429 34.6993 40.2973 34.5728C40.2517 34.4459 40.2327 34.3112 40.2415 34.1769ZM16.3538 34.1769V32.551H15.6463V32.9456C15.5262 32.791 15.371 32.6672 15.1935 32.5844C15.0161 32.5016 14.8215 32.4622 14.6259 32.4694C14.1748 32.4694 13.7422 32.6486 13.4233 32.9675C13.1044 33.2864 12.9252 33.719 12.9252 34.1701C12.9252 34.6211 13.1044 35.0537 13.4233 35.3728C13.7422 35.6915 14.1748 35.8708 14.6259 35.8708C14.8215 35.8779 15.0161 35.8384 15.1935 35.7558C15.371 35.6728 15.5262 35.549 15.6463 35.3946V35.7891H16.3538V34.1769ZM13.7211 34.1769C13.7324 33.9855 13.7994 33.8015 13.9139 33.6477C14.0284 33.494 14.1854 33.377 14.3655 33.3113C14.5456 33.2455 14.741 33.234 14.9277 33.2779C15.1143 33.3218 15.284 33.4194 15.4159 33.5585C15.5478 33.6977 15.6361 33.8724 15.67 34.0612C15.7038 34.25 15.6817 34.4442 15.6065 34.6208C15.5312 34.7969 15.406 34.9476 15.2462 35.0534C15.0865 35.1595 14.8993 35.2167 14.7075 35.2177C14.5723 35.2204 14.438 35.1949 14.3131 35.1429C14.1882 35.0908 14.0755 35.0136 13.9821 34.9157C13.8887 34.8177 13.8167 34.7017 13.7706 34.5745C13.7245 34.4473 13.7053 34.3119 13.7143 34.1769H13.7211Z" fill="white"/>
<path d="M30.3232 7.77209H19.6089V27.0272H30.3232V7.77209Z" fill="#FF5F00"/>
<path d="M20.289 17.4014C20.2871 15.5467 20.7071 13.7159 21.5174 12.0476C22.3277 10.3793 23.507 8.91722 24.9659 7.77212C23.1595 6.35246 20.9901 5.46967 18.7057 5.2246C16.4213 4.97957 14.114 5.38215 12.0476 6.38637C9.98115 7.39059 8.23894 8.95593 7.02006 10.9034C5.80118 12.851 5.15479 15.1022 5.15479 17.3997C5.15479 19.6972 5.80118 21.9483 7.02006 23.8959C8.23894 25.8434 9.98115 27.4088 12.0476 28.413C14.114 29.4172 16.4213 29.8198 18.7057 29.5747C20.9901 29.3297 23.1595 28.4469 24.9659 27.0272C23.5074 25.8825 22.3284 24.421 21.5182 22.7533C20.7079 21.0856 20.2876 19.2555 20.289 17.4014Z" fill="#EB001B"/>
<path d="M44.779 17.4014C44.779 19.6991 44.1324 21.9504 42.9133 23.898C41.6943 25.8456 39.9518 27.4109 37.8851 28.415C35.8184 29.419 33.5109 29.8213 31.2263 29.5759C28.9418 29.3306 26.7724 28.4473 24.9661 27.0272C26.424 25.8814 27.6027 24.4195 28.4131 22.7518C29.2236 21.084 29.6447 19.254 29.6447 17.3997C29.6447 15.5454 29.2236 13.7154 28.4131 12.0476C27.6027 10.3798 26.424 8.91791 24.9661 7.77213C26.7724 6.35203 28.9418 5.46879 31.2263 5.22339C33.5109 4.97801 35.8184 5.38032 37.8851 6.38441C39.9518 7.38849 41.6943 8.95379 42.9133 10.9014C44.1324 12.849 44.779 15.1003 44.779 17.398V17.4014Z" fill="#F79E1B"/>
<path d="M43.6089 24.9864V24.5918H43.7688V24.5102H43.364V24.5918H43.5375V24.9864H43.6089ZM44.3946 24.9864V24.5102H44.2722L44.1293 24.8503L43.9865 24.5102H43.8776V24.9864H43.9661V24.6292L44.0987 24.9388H44.1906L44.3232 24.6292V24.9898L44.3946 24.9864Z" fill="#F79E1B"/>
</svg>
