<?xml version="1.0" encoding="UTF-8" standalone="no"?>
<svg
   xmlns:dc="http://purl.org/dc/elements/1.1/"
   xmlns:cc="http://creativecommons.org/ns#"
   xmlns:rdf="http://www.w3.org/1999/02/22-rdf-syntax-ns#"
   xmlns:svg="http://www.w3.org/2000/svg"
   xmlns="http://www.w3.org/2000/svg"
   viewBox="0 0 2489.2268 2344.96"
   height="2344.96"
   width="2489.2268"
   xml:space="preserve"
   id="svg2"
   version="1.1"><metadata
     id="metadata8"><rdf:RDF><cc:Work
         rdf:about=""><dc:format>image/svg+xml</dc:format><dc:type
           rdf:resource="http://purl.org/dc/dcmitype/StillImage" /></cc:Work></rdf:RDF></metadata><defs
     id="defs6" /><g
     transform="matrix(1.3333333,0,0,-1.3333333,0,2344.96)"
     id="g10"><g
       transform="scale(0.1)"
       id="g12"><g
         transform="scale(1.14534)"
         id="g14"><path
           id="path16"
           style="fill:#f48d8c;fill-opacity:1;fill-rule:nonzero;stroke:none"
           d="m 16048.3,3819.31 c -160.8,-146.42 -263.9,-354.65 -282.7,-571.45 -25.2,-288.64 92.4,-568.83 133.6,-855.64 39.6,-277.56 3.4,-573.11 -144,-811.55 -69.2,-111.84 -165,-208.93 -276.2,-279.4 -125.9,-79.62 -271.4,-125.29 -420.2,-119.7 l -1.5,296.25 c 286.8,36.58 524.7,306.81 524.8,595.89 0.1,177.33 -76.3,340.25 -153.7,502.47 -0.1,0.18 -0.3,0.44 -0.4,0.53 -28.2,58.93 -56.5,117.96 -81.3,177.5 -81.9,196.1 -126,409.05 -127.3,621.3 -0.2,43.48 1.4,86.87 4.7,130.1 7.5,94.55 23.7,188.15 49.3,279.3 12.2,43.39 26.4,86.18 42.9,128.26 1.6,4.19 3.3,8.38 4.9,12.66 71,176.54 184.5,343.57 350.6,436.29 166.2,92.81 390.6,95.26 535.5,-28.03 43.9,-37.45 80.1,-86.96 89.9,-143.71 26.8,-154.1 -133.4,-265.6 -248.9,-371.07" /></g><g
         transform="scale(1.01464)"
         id="g18"><path
           id="path20"
           style="fill:#edb8b4;fill-opacity:1;fill-rule:nonzero;stroke:none"
           d="m 15616.6,4503.08 c 111.8,205.6 279.7,380.33 480.9,499.98 38.4,22.97 84.3,44.45 126.5,29.28 61.7,-22.18 72.6,-103.39 73.1,-169.03 1.6,-191.1 2.9,-384.37 -40.5,-570.45 -43.3,-186.08 -136.4,-367.32 -290.6,-480.07 l -349.4,690.29" /></g><path
         id="path22"
         style="fill:#edb8b4;fill-opacity:1;fill-rule:nonzero;stroke:none"
         d="m 14263.2,4287.4 c -168.7,257.4 -253,569.2 -237.1,876.5 47.2,21.9 102.6,7.2 151.5,-10.4 278.6,-100.3 525.5,-287 697.8,-527.9 l -612.2,-338.2" /><g
         transform="scale(1.10036)"
         id="g24"><path
           id="path26"
           style="fill:#edb8b4;fill-opacity:1;fill-rule:nonzero;stroke:none"
           d="m 16111.7,1354.46 c -56.3,-114.69 -128.7,-221.38 -215.8,-315.26 -251.6,-270.998 -599.3,-424.491 -962.8,-512.374 -49.8,-11.995 -100.1,-22.901 -150.3,-32.624 -16.6,-3.181 -33.3,-6.273 -49.8,-9.181 -39.7,-7.178 -79.4,-13.631 -118.9,-19.539 -1.1,-0.088 -2.1,-0.362 -3.2,-0.454 -341.4,-50.438 -682.6,-54.162 -1026.8,-56.253 -177,-1.09 -331.4,40.349 -495.7,74.702 -45.7,9.361 -92.1,18.357 -140,25.72 -9.4,1.544 -18.7,2.815 -28.1,4.178 l -2.3,0.366 c -43.3,5.996 -86.6,13.72 -129.8,23.263 -489.8,107.784 -954,434.583 -1076.1,937.966 -77.9,321.44 -47.3,657.96 42.3,973.59 185.3,652.24 602.2,1239.22 1071.6,1720.7 6.9,7.18 13.9,14.46 21,21.63 51.1,52.08 101.6,102.42 152.6,149.95 0.1,0 0.1,0 0.1,0.09 14.9,13.91 29.7,27.54 44.7,40.99 0.2,0 0.2,0.18 0.2,0.18 53,47.26 107,91.34 163.6,131.14 75.8,53.71 156.4,99.61 245,135.14 38.6,15.54 78.7,29.08 120.7,40.35 9.5,2.63 19.1,5.09 28.8,7.45 14.8,3.64 30,6.91 45.4,9.91 11.2,2.36 22.5,4.36 33.9,6.27 23.6,4 46.8,7.27 69.7,9.9 35.1,4 69.5,6.55 103.2,7.55 23.6,0.72 46.9,0.72 70,0.09 7.2,-0.09 14.6,-0.27 21.9,-0.73 37.9,-1.82 75,-5.36 111.3,-10.9 1.5,-0.1 2.8,-0.28 4.2,-0.55 25,-3.72 49.5,-8.27 73.7,-13.81 40.2,-8.82 79.6,-20 117.9,-33.17 138,-46.99 265.1,-119.87 384.7,-211.21 35.2,-26.81 69.5,-55.07 103.4,-84.88 l 0.1,-0.18 c 27,-23.72 53.7,-48.44 80,-73.79 l 0.1,-0.18 c 49.4,-47.63 97.5,-98.07 144.9,-150.68 15.8,-17.54 31.4,-35.08 47,-52.71 317.3,-357.25 609.2,-737.13 872.9,-1135.63 60.3,-91.06 119.3,-183.67 171.6,-279.45 0.4,-0.55 0.6,-1 0.8,-1.55 0.1,-0.18 0.2,-0.36 0.3,-0.55 55.1,-100.42 102.7,-204.47 136.8,-313.62 103.5,-331.34 68,-700.86 -84.8,-1011.85" /></g><path
         id="path28"
         style="fill:#1d1b19;fill-opacity:1;fill-rule:nonzero;stroke:none"
         d="m 15041.5,4504.6 c -141.2,-53.7 -104.3,-250.4 24,-295.5 167.9,-59.1 302,104.6 288.6,262.2 -4.5,53.7 -88.6,54.5 -84.6,0 8.8,-118.7 37.9,-268.6 177.6,-293.9 115.4,-20.9 194.9,94.3 218.9,192.8 11.4,47.2 -58.6,81.7 -81.7,34.4 -24.3,-49.7 -46.7,-144.4 -118.8,-137.2 -91.5,9.1 -104.5,134.3 -111.4,203.9 -28.2,0 -56.4,0 -84.6,0 10.2,-94 -39.5,-202 -148.2,-196.8 -109.6,5.3 -144.3,134.8 -64.9,204.6 11.1,9.8 -0.6,30.9 -14.9,25.5 v 0" /><path
         id="path30"
         style="fill:#1d1b19;fill-opacity:1;fill-rule:nonzero;stroke:none"
         d="m 15824.4,4816.2 c -8,-9.4 -18,-16.8 -25,-27.1 -7.9,-11.7 -12.6,-26.1 -16.4,-39.8 -7.3,-26.6 -10.2,-54.9 -8.3,-82.4 2.6,-35.2 29.8,-62.7 66.6,-57.8 33.1,4.5 60.4,39.4 48.9,73.4 -5.9,17.5 -11,35.3 -11.9,53.9 -0.3,8.6 0.9,17.3 0.4,25.8 -0.5,11.4 -4.7,21.9 -4.1,33.2 1.2,24.5 -33.7,40 -50.2,20.8 v 0" /><path
         id="path32"
         style="fill:#1d1b19;fill-opacity:1;fill-rule:nonzero;stroke:none"
         d="m 14834.8,4823.5 c -1.2,-2.3 -2.3,-4.7 -3.5,-7 5.3,4.1 10.7,8.2 16.1,12.3 -26.6,-9.8 -35.1,-25.5 -45.2,-50.7 -7.9,-19.7 -15.2,-39.4 -22.3,-59.3 -12.4,-35 17.1,-71.7 50.8,-76.2 35,-4.7 70.4,22.8 69.2,59.9 -0.7,19.6 -1.4,39.1 -2.8,58.6 -0.7,9.4 -0.8,19.5 -2.9,28.7 -1.3,6.1 -3.5,11.9 -6.3,17.4 -2.3,4 -5.2,7.5 -8.6,10.5 -3.3,20.6 -35.5,23.5 -44.5,5.8 v 0" /><path
         id="path34"
         style="fill:#edb8b4;fill-opacity:1;fill-rule:nonzero;stroke:none"
         d="m 14088.2,1105.3 c -5.7,-24.2 -11.4,-48.4 -17,-72.6 -2,-8.5 10.8,-12.1 13,-3.6 6.4,24 12.8,48 19.2,72 2.7,9.9 -12.9,14.1 -15.2,4.2 v 0" /><path
         id="path36"
         style="fill:#f48d8c;fill-opacity:1;fill-rule:nonzero;stroke:none"
         d="m 13984.1,1073.9 c -11.9,-55.9 1.4,-112.498 10.7,-168.099 11.7,-70.199 27.2,-139.5 45.8,-208.199 17.5,-64.801 37.3,-128.903 59.3,-192.204 17.6,-50.398 34.5,-112.597 84,-141.796 124,-73.204 191.5,121.699 234,199.796 71.3,131.102 144.6,261.102 208,396.204 39.6,84.398 -77.9,156.998 -126.9,74.198 -56.1,-94.601 -106.4,-192.101 -156.7,-289.898 -25.2,-48.902 -50.3,-97.8 -75.5,-146.703 -12.5,-24.5 -25.1,-48.898 -37.7,-73.297 -5.4,-10.504 -10.8,-21.004 -16.1,-31.504 36.5,-10.699 46.7,-6.296 30.7,13.204 0.4,15.699 -22,44.5 -29.4,60.097 -12.8,26.801 -25.1,53.801 -37,81 -21.9,50.403 -42.1,101.5 -60.8,153.102 -17.9,49.297 -35.8,98.699 -52.1,148.5 -14.6,44.597 -24.8,90.099 -51.4,129.399 -7.1,10.4 -25.9,10.4 -28.9,-3.8 v 0" /><g
         transform="scale(1.0162)"
         id="g38"><path
           id="path40"
           style="fill:#f48d8c;fill-opacity:1;fill-rule:nonzero;stroke:none"
           d="m 15642.8,1032.87 c 14.8,-129.797 64.5,-253.393 114.2,-373.449 25.9,-62.491 52.6,-125.371 82.1,-186.187 22.2,-45.855 56.5,-90.63 105.1,-110.607 120.8,-49.991 180,73.704 211.1,165.714 45.7,135.013 107,273.669 132.1,414.194 12.6,70.755 -88.3,127.535 -125.1,52.747 -46.3,-94.177 -72.6,-197.996 -104.3,-297.778 -16.1,-50.975 -32.1,-101.851 -48.4,-152.726 -2.4,-7.284 -11.3,-52.059 -19.9,-56.287 -3.4,-6.693 -3.5,-7.285 -0.2,-1.773 -8.5,6.297 -16.2,13.677 -22.8,22.042 -63.5,72.92 -106.6,174.179 -151.1,259.4 -47.6,91.222 -89.9,185.888 -146.9,271.8 -6.9,10.33 -27.5,7.77 -25.9,-7.09 v 0" /></g><path
         id="path42"
         style="fill:#1d1b19;fill-opacity:1;fill-rule:nonzero;stroke:none"
         d="m 15684.5,5139.5 c -11.1,-97.7 -42.7,-197.1 -108.7,-271 -47.1,-52.8 -154.1,-13.1 -146.4,60.6 5.7,54.1 6.8,108.1 15.6,162 1,6.2 1.9,12.7 3,19.2 -1.1,12 0.6,24.4 5.4,36.9 0.6,1.6 1.3,3.1 2,4.7 3.1,14.1 7.5,27.6 13.6,39.9 1.6,-0.1 3.1,-0.3 4.6,-0.6 27.5,-4.1 54.5,-9.1 81.1,-15.2 44.3,-9.7 87.6,-22 129.8,-36.5" /><path
         id="path44"
         style="fill:#1d1b19;fill-opacity:1;fill-rule:nonzero;stroke:none"
         d="m 15328.5,4980.2 c -35.7,-53.6 -119.1,-61.3 -153.1,0 -32.6,58.5 -47.2,129.7 -44.5,196.6 0.2,6.5 0.6,13 1,19.4 38.6,4.4 76.4,7.2 113.5,8.3 26,0.8 51.6,0.8 77,0.1 8,-0.1 16.1,-0.3 24.1,-0.8 6.3,-17.5 10.6,-35.4 13.5,-51 11.2,-60.1 2.9,-121.2 -31.5,-172.6" /><path
         id="path46"
         style="fill:#1d1b19;fill-opacity:1;fill-rule:nonzero;stroke:none"
         d="m 15053.6,4926.2 c -53.5,-53.5 -126.7,-22.3 -170.7,24.7 -42.2,45.1 -70.9,100.7 -79.2,161.9 -0.1,0.8 -0.3,1.4 -0.3,2.1 42.5,17.1 86.6,32 132.8,44.4 10.5,2.9 21,5.6 31.7,8.2 16.3,4 33,7.6 50,10.9 17.2,-26.4 29,-60.2 37.2,-81.8 19.4,-51.5 43.7,-125.2 -1.5,-170.4" /><g
         transform="scale(1.09374)"
         id="g48"><path
           id="path50"
           style="fill:#1d1b19;fill-opacity:1;fill-rule:nonzero;stroke:none"
           d="m 16204.9,3817.37 c -85.8,9.97 -149,74.7 -203.4,137.51 -2.4,2.75 -4.9,5.67 -7.5,8.6 12.8,45.44 27.6,90.24 44.9,134.31 23.1,-10.52 48.2,-17.56 71.6,-26.7 73.2,-28.62 156.6,-58.97 177.5,-144.46 12,-48.91 -25,-115.93 -83.1,-109.26" /></g><g
         transform="scale(1.08798)"
         id="g52"><path
           id="path54"
           style="fill:#1d1b19;fill-opacity:1;fill-rule:nonzero;stroke:none"
           d="m 16292.8,3570.83 c -8.1,-60.02 -60.3,-84.38 -114.7,-76.56 -58.1,8.45 -112.1,27.02 -156.4,59.19 -0.2,45.77 1.5,91.45 5,136.95 58.4,-8.18 117.7,-16.91 175.8,-15.44 56,1.38 97.5,-51.1 90.3,-104.14" /></g><g
         transform="scale(1.00985)"
         id="g56"><path
           id="path58"
           style="fill:#f48d8c;fill-opacity:1;fill-rule:nonzero;stroke:none"
           d="m 16176.7,4756.86 c 14.4,9.11 24.6,21.39 36.9,32.88 5,4.75 10.3,9.21 15.7,13.66 -1,-0.79 12.6,5.35 3.4,2.68 -31.4,31.29 -62.7,62.58 -94,93.97 -9.2,-23.57 -6.1,-51.1 -6,-76.05 0.1,-9.21 0.2,-18.52 0.1,-27.83 0.2,-4.95 0.1,-10 -0.2,-15.05 0.3,12.78 5.2,24.17 14.4,34.07 12.2,7.13 24.4,14.16 36.4,21.28 3.5,0.7 7,1.39 10.3,1.99 13.9,-3.67 27.8,-7.43 41.6,-11.19 -7.5,4.16 -8.3,4.35 -2.5,0.49 -4.8,3.86 -9.4,7.72 -14.2,11.69 -9.5,7.72 -18.9,15.45 -28.4,23.17 -32.3,26.44 -82,34.06 -113.2,0 -28.3,-30.9 -32.9,-82.88 0,-113.19 22.4,-20.59 45.4,-47.73 72.2,-62.58 44.8,-24.95 104,-14.36 131.7,31.09 16.7,27.53 19.1,56.25 16.7,87.54 -2.8,38.52 -2.3,77.44 -19.4,112.79 -13.1,27.13 -48.2,40.21 -76,36.44 -31.3,-4.16 -53.2,-25.45 -63.5,-54.66 3.6,10.2 -6.1,-9.11 -7,-10.99 -5.3,-9.71 -9.7,-19.71 -14,-29.91 -8.2,-19.21 -16.4,-38.02 -15.6,-59.41 1.2,-36.05 41.6,-63.97 74.6,-42.88 v 0" /></g><path
         id="path60"
         style="fill:#f48d8c;fill-opacity:1;fill-rule:nonzero;stroke:none"
         d="m 14251.1,4758.6 c 20.4,29.8 13.5,72 12,106.7 -2.1,45.5 -4.8,91 -5.6,136.5 -39.4,-10.6 -78.7,-21.3 -118.1,-32 17,-22.5 35.4,-41.6 55.7,-61.2 16.5,-16 40,-32 51.5,-51.8 -3.2,11.6 -6.3,23.2 -9.5,34.9 0.3,-3.8 0.5,-7.5 0.8,-11.3 3.1,11.7 6.3,23.4 9.4,35.1 -6.6,-13.1 -24,-22.1 -33.3,-33.8 -15.6,-19.4 -20.5,-36.1 -20.9,-60.9 -0.5,-31.9 27.8,-60.6 59.9,-59.9 62.1,1.3 134.2,74.9 121.3,140 -7.1,36.2 -32.7,57.4 -58.9,80.9 -28.8,26 -56.7,53.5 -89.3,74.8 -44,28.6 -112.9,-19.7 -93.1,-71.6 17.6,-46.2 32.6,-93.3 49.5,-139.8 11.9,-32.6 20.9,-71.4 50.8,-91.2 6.1,-4.1 14,-0.9 17.8,4.6 v 0" /><path
         id="path62"
         style="fill:#f48d8c;fill-opacity:1;fill-rule:nonzero;stroke:none"
         d="m 15957.8,4157.1 c 76.5,-44.9 249.7,-82.4 298.7,19 26.3,54.5 -5,112.5 -56.1,137.1 -50.2,24.2 -114.1,14.7 -164.5,-4.4 -38.2,-14.5 -67.2,-45.3 -67.2,-88.3 0,-36.9 28.1,-82.2 67.2,-88.3 36.8,-5.7 67.5,-3.8 104.1,1.9 86.3,13.6 82,153.1 0,170.1 -26.7,5.5 -52.4,10.8 -79.7,7.9 15.4,-56.9 30.8,-113.8 46.2,-170.7 9.1,5.5 28.9,10.3 35.9,16.2 10.9,9.3 8.3,-8.4 -8.2,10.3 -6.6,11.3 -13.2,22.6 -19.8,34 -0.1,1 -0.2,1.9 -0.3,2.9 3.4,12.5 6.8,25 10.2,37.5 2.9,6.2 18.3,7.1 -10.1,0.1 -14.7,-3.6 -29,-5.9 -44,-7.2 -30.5,-2.4 -60.1,1.7 -90.5,3 -43.9,1.9 -58.1,-59.9 -21.9,-81.1 v 0" /><path
         id="path64"
         style="fill:#f48d8c;fill-opacity:1;fill-rule:nonzero;stroke:none"
         d="m 14446,4364.9 c -60.3,-19.2 -77.8,-86.2 -54.3,-140.8 27.5,-64 104.1,-86.9 167.3,-64.5 33.8,12.1 67.7,33.3 86.5,64.9 24.8,41.6 18,91.6 -13,127.8 -29.1,33.9 -75.5,46.6 -118.4,38.4 -37.5,-7.2 -66.8,-29.7 -94.9,-54.3 -36.1,-31.7 -34.8,-97.6 0,-129.5 33.1,-30.4 97.7,-40.1 129.5,0 6.9,8.7 14.4,16.6 21.9,24.7 6.4,6.9 -7.2,-4.9 -11,-6.2 -10.6,-3.6 -26.3,-0.2 -35.7,4.9 -12.9,6.9 -13.9,73.4 -13.8,73.4 3,3.3 3,3.3 0,-0.1 -2.3,-2.6 -4.6,-5 -7.2,-7.3 5.3,5.2 3.3,3.3 -1.3,-0.6 -2,-1.1 -4,-2.2 -6,-3.3 6.1,2.2 6.6,2.6 1.7,1 -1.4,-0.4 -14,-4.7 -6.9,-2.1 9.1,3.3 -14,-1.1 1.3,-0.2 4.8,0.3 4.9,-5 -0.3,0.2 1.1,-1.1 11.4,-11 6,-5.2 -4.6,5 4.6,-2.5 -0.7,0.5 -1.1,4.1 -1.3,3.4 -0.6,-2.3 0,1.7 -0.1,3.5 -0.1,5.2 -2.4,-3.5 -1.8,-5.2 0.4,0.3 5.5,13.3 -5.6,-6.3 3.2,5.3 25.3,33.6 -16.6,81.5 -53.6,69.8 v 0" /><path
         id="path66"
         style="fill:#1d1b19;fill-opacity:1;fill-rule:nonzero;stroke:none"
         d="m 15364.7,4530.5 c -0.3,19.6 -11.1,30.8 -27.9,39.1 -25.9,12.7 -51.8,4.2 -72.1,-14.5 -21.1,-19.4 -25,-52.1 -15.8,-78 10.6,-29.5 33,-51.2 59.2,-67.4 36.1,-22.3 77.5,0.2 98.7,31.9 16,24.1 21.4,57.7 11.5,85.1 -23.4,64.5 -114.2,91.9 -164,38.7 -18.6,-19.9 -23.5,-49.2 -9.4,-73.3 15.6,-26.7 55.6,-40.5 82.7,-21.7 3,2.1 6.1,3.8 9.3,5.6 -9.2,-3.4 -10.8,-4.1 -4.6,-2.2 -10.1,-0.9 -11.9,-1.1 -5.2,-0.7 12.7,0.6 -13.8,3.4 -1.5,-0.1 -8.5,3.9 -9.9,4.4 -4.4,1.3 -4.7,2.5 -8.2,6.2 -10.6,10.9 7.3,-9.6 -3.3,12.2 -0.3,0.6 -1,9.2 -1.4,10.7 -1.3,4.4 1.5,9 1.5,10.4 0.1,4.3 1,2.2 2,4.4 3,6.6 -3.1,-5.1 -2.2,-4.4 2.7,2.2 -1.6,-1.8 -3.2,-3.5 -5,-5.2 6.5,4.7 7.2,5.6 2.1,2.7 13.9,1.8 27.7,3.6 41.6,5.4 -13.7,4.7 9.7,-5 -3.8,1.3 -2.1,1 -16.8,11 -8.4,4.2 -2.2,1.9 -4.2,3.9 -6.1,6 3.2,-4.4 3.3,-4.3 0.4,0.4 1.9,-5.1 2.1,-5 0.6,0.3 -1.4,6.2 -1.4,5.5 0.1,-2.1 0.1,-2 -5.3,-15 -1.3,-7.8 -4.8,-8.7 1.5,0.9 3.4,3.2 6.8,8.7 7.9,10.2 3.4,4.4 5,4.6 1.5,3.5 -10.5,-3.4 -4.6,0.6 -2.9,0.3 4.9,-0.7 -6,2.4 -7.1,2.5 -3.2,0.2 13.5,-8.6 32,2.7 31.7,18.3 v 0" /><path
         id="path68"
         style="fill:#85d4be;fill-opacity:1;fill-rule:nonzero;stroke:none"
         d="m 11072.8,2601.3 c 131.2,104.4 297.8,137.6 459,155.8 173.4,19.7 359.5,22.3 508.9,-76.2 129,-84.9 211.3,-232.5 285.3,-376.1 39.4,-76.4 78.5,-155.4 90.8,-242.2 14.4,-102 -9.8,-206 -42.9,-302.7 -59.1,-172.8 -154.6,-363.1 -292.5,-475.6 -88.1,-72 -294.1,-189.1 -396.2,-98.9 -185.2,163.7 103.2,457.4 168.8,596.4 53.1,112.5 78.3,240.6 72.4,367 -4.1,87.1 -31.7,185.6 -105,219.2 -27.5,12.7 -58.1,14.3 -87.9,14.6 -165.5,2.1 -331.4,-29 -487,-91.1 -98.5,-39.4 -198.8,-92.1 -302.9,-78.4 l 129.2,388.2" /><path
         id="path70"
         style="fill:#c4ebe1;fill-opacity:1;fill-rule:nonzero;stroke:none"
         d="m 9976.07,4385.3 c -0.26,-1.5 -0.52,-3.1 -0.78,-4.7 12.96,10.9 25.91,21.7 38.91,32.5 -2.2,-0.1 -4.3,-0.2 -6.5,-0.4 9.9,-4.5 19.8,-9 29.6,-13.4 -1.2,1.7 -2.5,3.5 -3.7,5.3 2.2,-19.2 4.5,-38.3 6.7,-57.5 2.1,3.2 4.2,6.4 6.3,9.6 -9.1,-7.7 -18.2,-15.4 -27.3,-23.1 70,25.9 139.6,51.4 208.5,82 70.7,31.4 141,63.6 212.6,92.4 104.6,42.2 264.6,119.4 371.1,48.9 -5.8,49.6 -11.6,99.2 -17.4,148.8 -206.1,-232.4 -420.8,-455.7 -643.1,-669.4 49.8,-31.8 99.5,-63.5 149.2,-95.3 42.7,125.5 134.7,221 224.9,306.7 99.2,94.3 204.6,181.3 291.8,289.6 68.7,85.4 -16.4,204.6 -109.1,155.2 -207.6,-110.7 -411.7,-228.9 -612.2,-354.6 -101.52,-63.7 -11.2,-232.3 91.5,-171.8 151.5,89.3 293.3,194.7 427,313.2 83.2,73.8 -22.9,208.4 -110.4,157 -148.7,-87.3 -297.5,-174.6 -446.2,-261.9 37,-52.6 74,-105.2 111,-157.8 75.3,70.1 150.6,140.1 225.9,210.2 34.5,32.1 33.6,96 7.2,132.4 -29.9,41.1 -76.2,48.4 -118.5,25.9 -96.7,-51.3 -175,-130.1 -236.3,-226.3 -25.9,-40.7 -10.3,-102.2 23.7,-130 39,-32.1 84.1,-24.8 120.6,7.8 80.1,71.7 163.1,168.2 260.2,212.1 39.8,17.9 77.5,13.4 119.5,13 63.7,-0.7 113.2,14.9 163.5,58 52.4,44.9 23.8,156.4 -40.4,168.2 -143.1,26.2 -246.1,-100.2 -339.4,-201.4 -92.3,-100.1 -175.9,-208.7 -253.3,-322.8 -26.9,-39.5 -9.5,-102.3 23.5,-129.4 36.9,-30.3 86.1,-27.1 120,7.9 105.4,108.5 195.7,234.1 267.8,371.5 50.2,95.5 -73.9,209.8 -143.3,121.3 -62.9,-80.2 -125.8,-160.5 -188.7,-240.7 50.8,-14.7 101.6,-29.4 152.4,-44.1 -28.4,110.1 -144.1,154.6 -235,107.1 -81.2,-42.4 -168.07,-175.7 -119.5,-273.1 43,-86.3 178.9,-27.8 147.5,68.2 -1.2,3.7 -2.4,7.4 -3.5,11 0,-15.8 0,-31.7 0,-47.6 2.7,18.7 29.7,40.9 43.2,54.3 22,21.8 0.2,-7 -8.5,26.9 17.5,-68.2 106.4,-102.7 152.3,-44.1 63,80.1 125.9,160.3 188.9,240.5 -47.8,40.4 -95.6,80.9 -143.4,121.3 -65,-123.5 -144.6,-233.1 -239.5,-330.7 47.9,-40.5 95.8,-81 143.6,-121.5 58.4,85.9 122.5,167.2 190.6,244 34,38.3 69,75.4 105.1,111.3 17.7,17.7 35.2,36.8 54.4,52.4 6.4,5.2 13.3,10.4 20.3,14.6 8.8,5.3 22.6,7.8 15.8,9.1 -13.5,56 -27,112 -40.5,168.1 14.4,12.3 0.6,1.2 -6.7,1.3 -9,0.2 -18.1,-0.5 -27.2,-0.4 -25.5,0.4 -50.8,2.7 -76.2,0.5 -57.7,-4.8 -111.3,-24.7 -161.8,-55.3 -98.9,-59.8 -184.5,-151 -271.6,-228.9 48.1,-40.7 96.2,-81.4 144.3,-122.2 43.5,68.2 102.6,118 170.3,154.1 -37.1,52.7 -74.2,105.5 -111.3,158.3 -75.2,-70.3 -150.4,-140.5 -225.5,-210.7 -81.77,-76.4 22.5,-210 110.9,-157.9 148.6,87.7 297.2,175.3 445.7,262.9 -36.8,52.3 -73.6,104.7 -110.4,157 -121.2,-107.9 -252.2,-201.5 -389.6,-282.8 30.5,-57.3 61,-114.5 91.5,-171.8 200.2,126.1 404.2,244.7 611.6,355.8 -36.4,51.7 -72.7,103.4 -109.1,155.1 -187.4,-233.6 -457.9,-377.5 -561.6,-683.9 -33.4,-99 88.3,-154.2 149.3,-95.3 222,214.2 434.9,439 638.9,673.9 36.4,42 33.3,120.2 -17.5,148.8 -159.7,90 -337.9,13.6 -490.4,-58.5 -83,-39.3 -164.2,-83.4 -245.4,-126.8 -42,-22.4 -84.7,-44.2 -125.6,-68.8 -31.1,-18.6 -69.76,-41 -76.07,-82.7 -2.97,-19.7 1.65,-43.9 19.88,-53.7 19.39,-10.3 34.29,-11.4 53.39,0.7 15.3,9.6 23.4,31.3 18.6,49.9 -0.5,1.6 -0.9,3.2 -1.3,4.7 -10,38.5 -68.43,43.6 -75.73,0 v 0" /><path
         id="path72"
         style="fill:#c4ebe1;fill-opacity:1;fill-rule:nonzero;stroke:none"
         d="m 8415.11,4487.7 c -22.06,21.5 -29.75,45.2 -46.55,70.7 -15.12,22.9 -33.49,43.6 -49.02,66.3 -30.83,45.1 -57.14,93.1 -82.21,142.3 -22.72,44.5 -40.94,90.1 -54.93,138.7 -7.63,26.5 -14.46,53.2 -19.59,80.4 -1.99,10.6 -4.13,21.1 -5.41,31.8 -0.52,5.5 -1.04,11.1 -1.57,16.6 -2,12.9 -1.48,15.5 1.58,7.8 -7.65,-14.4 -15.3,-28.9 -22.95,-43.3 2.43,2.4 4.85,4.8 7.28,7.2 -13.15,-8.4 -26.3,-16.8 -39.45,-25.2 4.68,0.7 9.36,1.4 14.04,2.1 -15.88,0 -31.76,0 -47.65,0 120.89,-36 240.36,-108 342.91,-185.5 101.22,-76.6 188.56,-174 252.11,-289.7 49.7,42.1 99.4,84.2 149.1,126.3 -216.47,191.6 -454.21,341.6 -713.86,451.1 -91.06,38.4 -163.08,-108.9 -94.18,-177.6 119.29,-118.8 198.5,-270.9 277.19,-423.2 62.1,-120.1 222.16,-14.3 167.37,107.4 -43.76,97.2 -87.51,194.4 -131.27,291.6 -44.22,-48.5 -88.45,-97.1 -132.68,-145.6 83.72,-62 167.45,-124 251.17,-186 24.93,64.9 49.86,129.8 74.79,194.6 -45.22,18.8 -87.36,44.3 -127.86,73.1 -93.19,66.3 -195.71,-83.3 -117.65,-167.4 61.94,-66.7 127,-130.9 198.68,-184.8 88.28,-66.5 196.63,86 115.09,163.6 -59.54,56.7 -120.12,111.3 -176.47,171.9 -39.22,-55.8 -78.44,-111.5 -117.66,-167.3 54.86,-39 113.15,-69.2 174.27,-94.4 44.64,-18.5 97.93,16.5 114.49,61.6 18.7,51 1.4,102.6 -39.71,133 -83.75,62 -167.5,123.9 -251.25,185.9 -86.5,64 -172.31,-57.7 -132.69,-145.6 43.8,-97.2 87.59,-194.4 131.38,-291.6 55.79,35.8 111.58,71.6 167.37,107.4 -86.43,167.1 -176.73,335.7 -307.66,466.1 -31.4,-59.2 -62.79,-118.4 -94.19,-177.6 225.76,-95 441.12,-229.3 631.08,-393.6 37.15,-32.1 84.76,-43 124.64,-8.1 35.92,31.4 49.83,89.4 24.45,134.4 -151.6,268.9 -411.15,457.2 -683.34,551 -97.39,33.5 -176.58,-32.4 -164.05,-146.2 9.21,-83.7 31.75,-162.8 65.13,-238.6 34.07,-77.4 79.2,-147 133.66,-208.7 25.87,-29.3 53.23,-55.9 82.71,-80.8 34.91,-29.4 72.61,-39.9 108.89,-65.4 34.74,-24.3 75.81,32.6 44.47,63.3 v 0" /><path
         id="path74"
         style="fill:#c4ebe1;fill-opacity:1;fill-rule:nonzero;stroke:none"
         d="m 10357.8,4314.1 c -695.72,501.3 -1954.07,559.5 -2596.83,-85.9 -399.98,-401.6 -612.34,-1017.4 -554.84,-1609 22.35,-229.9 83.81,-456.8 191.26,-655.7 292.59,-541.7 885.2,-807.7 1455.94,-873.4 337.85,-38.9 681.13,-20.4 1013.89,54.5 451.68,101.8 910.68,333.5 1145.78,768.7 204.2,377.9 206.4,856 90.2,1276.4 -125,452.7 -385.2,864.8 -745.4,1124.4" /><path
         id="path76"
         style="fill:#85d4be;fill-opacity:1;fill-rule:nonzero;stroke:none"
         d="m 10439.2,3298.6 c -44.1,166.5 -218,273.1 -370.5,219.9 -93.75,-32.7 -154.07,-127.3 -120.79,-235.2 32.06,-103.9 128.19,-150.4 220.19,-166.2 94.4,-16.4 232.2,-47.5 302.3,44.2 69.5,90.9 31.1,217.6 -47.8,283.1 -81.6,67.7 -208,92.1 -286.1,4.6 -71.2,-79.8 -56.5,-228.7 49.5,-261.8 47.5,-14.8 103.5,-1.6 137.6,38.7 44,51.8 38.7,131.2 -18.5,168.5 -51.2,33.4 -120.9,17 -151.5,-40.4 -29.9,-56 -12.2,-139.9 44.7,-166.4 94.6,-44 162.1,81.8 80.2,150.5 -2.4,2 -4.8,4.1 -7.3,6.1 9.7,-10.6 19.3,-21.2 29,-31.7 -3,-18.9 -6,-37.7 -9,-56.5 -12,-7.7 -24,-15.4 -36,-23.1 -13.1,3.6 -26.2,7.1 -39.3,10.7 -7,28.9 -13.9,57.9 -20.9,86.8 2.6,9.7 19.1,30.7 32.6,28.1 26.4,-5.2 13.4,-19.7 24,-27 -2,-10 -2.7,-12.7 -2.1,-8 0,0.9 0.2,1.8 0.7,2.7 -2.3,1.2 14.1,5.5 14.9,5.7 26.7,5.4 81.6,-26 86.3,-57.6 1.7,-11.7 -2.2,-5.3 -4.8,-6.3 -23,-8.9 -59.5,-1.6 -83.9,-0.7 -48.5,1.9 -104.3,3.1 -149.1,26.4 -27.5,14.2 -61,52 -37.2,84.8 22.8,31.4 74,38.6 107.7,37.5 85.4,-2.7 160.2,-60.4 193.6,-145.9 15.2,-38.8 72,-11 61.5,28.5 v 0" /><path
         id="path78"
         style="fill:#85d4be;fill-opacity:1;fill-rule:nonzero;stroke:none"
         d="m 8127.49,3820.4 c -40.43,135.4 -223.16,138.4 -297.45,39.2 -18.28,-24.4 -25.7,-65.8 0,-89.2 115.48,-105.2 276.91,-174.6 427.38,-128.8 72.04,22 144.86,76.8 139.77,168.4 -4.45,80.1 -65.74,143.2 -128.79,173.6 -110.45,53.1 -351.58,85.5 -389.51,-86.9 -41.62,-189.2 242.23,-260.3 361.89,-216.7 93.46,34.1 107.94,160 47.47,235.8 -69.6,87.2 -173.36,55.4 -255.43,10.8 -94.01,-51.1 -11.44,-206.2 82.36,-154.6 12.51,6.9 46.05,13.1 54.75,22 7.53,7.8 -5.22,-2.8 -3.29,3.8 -0.83,4.1 -1.67,8.2 -2.5,12.3 7.41,12.4 14.83,24.8 22.24,37.3 -1.76,3 -50.04,0.8 -57.28,1.7 -23.41,2.9 -46.89,9.3 -69.25,17.4 -17.45,6.4 -38.99,29.2 -31.41,-2.7 6.55,-27.6 -5.17,-6.9 14.99,-10.4 7.57,-1.3 16.51,0.4 24.15,0.4 37.93,-0.1 76.65,-1.4 113.71,-10.9 17.22,-4.4 67.95,-21.9 71.76,-38.2 0.03,-0.1 7.28,8.3 -4.32,-2.1 -7.82,-7.1 -18.87,-10.4 -28.29,-13.8 -19.94,-7.3 -40.27,-11.1 -61.23,-11.9 -93.69,-3.6 -179.77,43.7 -259.54,92.5 6.87,-28.7 13.74,-57.5 20.62,-86.2 34.75,69.2 118.49,55.1 164.63,10 17.82,-17.4 50.99,-0.9 42.57,27.2 v 0" /><path
         id="path80"
         style="fill:#85d4be;fill-opacity:1;fill-rule:nonzero;stroke:none"
         d="m 8113.53,1792 c -5.17,-113.6 0.49,-227.8 3.73,-341.3 2.15,-75.6 -14.64,-202.2 54.16,-250.8 78.67,-55.7 145.59,56.3 188.2,112.8 64.2,85 125.38,173.1 174.33,269.7 33.16,65.5 -51.96,117.5 -90.2,57.9 -42.3,-65.9 -82.84,-133.2 -126.38,-198.1 -22.44,-33.4 -45.74,-66.1 -69.78,-98.2 -11.25,-15 -22.01,-32.8 -35.22,-45.8 2.61,-2.2 5.22,-4.4 7.83,-6.6 -4.04,6.6 -6.81,13.8 -8.31,21.5 -20.8,72.9 -21.4,159.5 -30.85,235.2 -10.35,82.9 -20.49,166.4 -36.98,248.2 -3.93,19.5 -29.69,14 -30.53,-4.5 v 0" /><path
         id="path82"
         style="fill:#85d4be;fill-opacity:1;fill-rule:nonzero;stroke:none"
         d="m 9633.34,1558.4 c 18.29,-129.2 71.03,-261.1 113.27,-382.8 25.57,-73.6 67.74,-261.901 175.53,-196.901 37.61,22.601 53,70.701 65.14,112.701 14.92,51.8 25.72,104.8 36.82,157.7 21.9,103.6 44.8,213.6 109.5,296.4 47.3,60.5 -30.8,148.6 -80.6,88.5 -113.19,-136.7 -123.2,-318.2 -165.3,-488.5 -2.44,-9.9 -18.71,-47.5 -15.86,-55.7 2.29,-6.5 12.65,-10.1 13.79,-1.3 1.04,8 -15.09,30 -19.43,38.8 -23.38,47.8 -45.8,96.2 -67.23,145.1 -43.98,100.4 -72.38,209 -117.5,308.2 -14.38,31.7 -52.36,7.6 -48.13,-22.2 v 0" /><path
         id="path84"
         style="fill:#1d1b19;fill-opacity:1;fill-rule:nonzero;stroke:none"
         d="m 8816.79,3757.8 c -45.55,-97.4 35.56,-198.5 126.3,-202.7 128.78,-6 211.07,130.1 257.57,243.3 -30.29,14 -60.57,28 -90.86,42 -33.74,-132.3 37.89,-287.7 164.9,-317.2 130.79,-30.3 258.5,87.2 264.99,230.1 2.95,65 -84.53,62.3 -90.66,0 -7.89,-80.3 -87.31,-150.1 -160.82,-127 -70.3,22.2 -106.67,112.6 -82.54,185.1 19.21,57.8 -65.84,97.3 -90.86,42.1 -30.44,-67.3 -57.04,-145.5 -118.42,-186.7 -59.31,-39.8 -167.64,-21.7 -153.56,78.9 2.24,16.1 -18.02,29.2 -26.04,12.1 v 0" /><path
         id="path86"
         style="fill:#1d1b19;fill-opacity:1;fill-rule:nonzero;stroke:none"
         d="m 10051.4,4130.9 c -9.4,-11.4 -18.1,-22.8 -26.1,-35.4 -3.3,-5 -6.5,-10.1 -9.7,-15.1 -2.2,-3.4 -4.3,-6.7 -6.5,-10.1 -4.1,-6.2 -4.3,-6.7 -0.7,-1.4 -20.59,-11.3 -26.4,-43.2 -15.3,-64.1 11.1,-20.9 39.1,-30.8 58.4,-16.8 27.4,20 47.7,50.5 69.4,77.3 21.9,27 21.6,67.4 -5.6,90.5 -25.5,21.6 -64.9,14.8 -81.2,-17.1 -15.9,-31.1 -37.04,-63 -45.3,-97.8 27.9,-4.1 55.9,-8.3 83.8,-12.4 -2.5,-6.8 -2.3,-6.6 0.7,0.6 1.6,3.8 3.2,7.5 4.8,11.2 2.4,5.6 4.8,11.1 7.2,16.7 6,13.9 10.8,28 15.2,42.6 9.1,30.2 -29.6,54.9 -49.1,31.3 v 0" /><path
         id="path88"
         style="fill:#1d1b19;fill-opacity:1;fill-rule:nonzero;stroke:none"
         d="m 8521.64,4298.5 c -16.79,-15.8 -18.98,-37 -22.38,-59.6 -3.64,-24.1 -6.65,-48.3 -9.57,-72.5 -3.51,-29 23.41,-55.6 47.24,-58.7 27.44,-3.6 51.26,13.9 59.79,42.8 6.39,21.8 7.39,44.5 9.37,67.1 1.73,19.7 4.82,39.8 4.22,59.6 -1.1,36.4 -28.4,71.4 -63.46,69.7 -36.82,-1.8 -60.39,-30.7 -63.45,-69.7 -1.55,-19.6 0.56,-39.9 1.33,-59.6 0.89,-22.7 1.55,-44.9 6.9,-67.1 35.03,10.6 70.06,21.2 105.09,31.8 -4.83,20.2 -9.41,40.4 -13.61,60.7 -4.36,21.1 -7.1,40.8 -23.01,55.5 -11.92,11 -26.46,11.2 -38.46,0 v 0" /><path
         id="path90"
         style="fill:#85d4be;fill-opacity:1;fill-rule:nonzero;stroke:none"
         d="m 10411.8,4258.2 c -0.4,9.9 -1.1,19.9 -2,29.8 -3.9,-10.5 -7.9,-21 -11.9,-31.5 83.3,95.2 170.6,182.3 282.9,233.8 -26.5,37.8 -53,75.6 -79.5,113.4 -23.6,-53.6 -54.1,-100 -94.8,-139.6 -40.1,-39 -95.1,-58.6 -132.2,-100 -37.2,-41.4 -7.8,-104.3 40.9,-108.4 66.1,-5.5 136.6,51.6 184.3,95.7 51.4,47.6 93.5,108.4 123.3,174.3 31.5,69.6 -32.1,141.8 -96.2,105.7 -122.7,-69.2 -237.4,-180 -292.3,-321 -8.2,-21 -6.9,-49 14.5,-60.8 8.8,-5 17.7,-9.8 26.7,-14.3 15.2,-8 37.6,1.2 36.3,22.9 v 0" /><path
         id="path92"
         style="fill:#85d4be;fill-opacity:1;fill-rule:nonzero;stroke:none"
         d="m 8390,4646.3 c -2.14,73.5 -45.38,145.2 -81.59,204.9 -40.78,67.3 -85.8,131.8 -134.3,192.5 -50.04,62.7 -156.26,-3.4 -129.87,-83 42.63,-128.5 109.94,-251 210.77,-333.9 71.16,-58.5 143.53,62.9 90.5,128.7 -62.56,77.6 -118.61,151.7 -151.42,250.6 -43.29,-27.7 -86.58,-55.3 -129.87,-83 50.59,-49.4 99.1,-101 144.1,-156.6 41.18,-50.9 79.76,-116 134.26,-150.1 20.19,-12.6 48.2,3.2 47.42,29.9 v 0" /><path
         id="path94"
         style="fill:#1d1b19;fill-opacity:1;fill-rule:nonzero;stroke:none"
         d="m 9194.61,3897.9 c -39.8,39.2 -117.18,24.7 -149.81,-17.5 -15.74,-20.4 -18.76,-39 -8.1,-62.8 18.38,-41 60.09,-70.1 105.93,-67.6 52.39,2.9 92.31,47.7 96.06,98.7 3.82,51.8 -35.64,91.2 -85.28,95.8 -52.73,4.9 -91.75,-37.5 -95.6,-87.1 -2.72,-35 31.26,-64.3 64.21,-64.3 37.06,0 61.52,29.4 64.22,64.3 -1.19,-15.5 -6.67,-26 -18.89,-34.1 -2.41,-1.6 -24.88,-4.5 -13.94,-4.6 -22.48,0.2 -43.14,20.3 -33.41,42.1 -4.37,-9.8 2.26,0.7 5.73,3.4 -8.01,-6.1 4.47,2.5 10.28,1.2 8.97,-1.9 -4.69,3 -6.74,4.4 -5.51,3.5 -6.53,4.2 -3.08,2 -2.91,2.6 -5.63,5.5 -8.14,8.6 4.44,-16.8 8.88,-33.6 13.32,-50.4 7.06,18.9 21.23,30.6 48.66,32.7 17.27,1.3 28.17,21.8 14.58,35.2 v 0" /><path
         id="path96"
         style="fill:#f25b43;fill-opacity:1;fill-rule:nonzero;stroke:none"
         d="m 14069.9,10753.3 c 98.2,197.8 163.6,568.3 350.7,701.1 359.4,255.1 241.7,-580.1 216.4,-816.9 l -567.1,115.8" /><path
         id="path98"
         style="fill:#f25b43;fill-opacity:1;fill-rule:nonzero;stroke:none"
         d="m 12957.4,9406.36 c -181.5,125.92 -538.6,244.43 -642.8,448.89 -200.1,392.65 609.1,154.75 839.7,95.41 l -196.9,-544.3" /><g
         transform="scale(1.13172)"
         id="g100"><path
           id="path102"
           style="fill:#f25b43;fill-opacity:1;fill-rule:nonzero;stroke:none"
           d="m 16299.2,8372.15 c -0.5,-66.23 -8,-132.45 -22,-197.36 -34.3,-159.37 -106.9,-311.61 -208.8,-439.53 -42.5,-53.46 -90.2,-102.8 -142.3,-146.51 -96.9,-81.5 -209,-143.99 -331.9,-179.36 -234.3,-67.54 -484,-45.73 -725.9,-15.88 l 394.2,239.05 c 152.2,24.93 288.2,107.02 391.1,220.57 30.7,33.86 58.5,70.54 82.9,109.33 68.5,108.73 110.6,234.03 116.2,360.85 2.1,49.94 -1.1,100.09 -10.7,149.62 -2.6,13.47 -5.7,26.84 -9.3,40.1 -38.9,147.01 -122.2,273.82 -212.8,397.52 -24.9,33.96 -50.3,67.73 -75.5,101.69 -41.9,56.17 -82.9,112.65 -120.1,171.13 -141.1,222.28 -214.5,538.61 -36.2,732.15 99.5,107.98 254.2,147.98 401.1,150.08 127.2,1.9 282.7,-46.5 305.2,-171.78 16.3,-90.55 -46.4,-173.65 -81,-258.87 -48.8,-120.17 -41.5,-253.32 -7.8,-380.43 12.4,-47.33 28.6,-93.75 46.9,-138.47 5.6,-13.57 11.3,-27.03 17.3,-40.5 65.4,-149.63 149.2,-291.92 194.9,-448.77 24.2,-83.31 35.3,-169.02 34.5,-254.63" /></g><g
         transform="scale(1.07167)"
         id="g104"><path
           id="path106"
           style="fill:#f68366;fill-opacity:1;fill-rule:nonzero;stroke:none"
           d="m 16282.1,8390.11 c -22.2,-360.74 -145.7,-728.95 -409.7,-975.95 -502.1,-470.17 -1402.3,-484.17 -2048.5,-402.52 -654.3,82.46 -1359.4,338.32 -1753.1,898.1 -319.6,454.43 -280,1022.23 -94.4,1520.8 83.4,224.04 176.5,456.1 349.9,626.86 230.3,226.8 373.2,190.8 631.4,209.4 222.1,16.4 445.3,20.6 668,12.9 111.3,-3.8 222.3,-10.7 333.3,-20.4 114.3,-10 228.2,-23.4 341.8,-39.7 122.5,-17.6 244.5,-38.8 365.8,-63.8 71.5,-14.6 143.1,-30.6 214.2,-47.7 45,-10.9 90.2,-21.6 135.5,-32.4 113.9,-27.3 228.1,-55.2 338.5,-89.12 86,-26.22 169.8,-55.8 249.7,-91.16 108.2,-47.69 209.3,-105.91 299.2,-180.19 118.1,-97.51 216.9,-222.83 286.7,-388.55 109.6,-260.53 108.7,-659.06 91.7,-936.57" /></g><path
         id="path108"
         style="fill:#f25b43;fill-opacity:1;fill-rule:nonzero;stroke:none"
         d="m 14003.9,8054.53 c 137.5,326.75 -199.5,495.3 -436.5,277.5 -201.5,-185.24 -216.1,-374.68 -535.8,-246.78 -20.2,8.1 -42.5,17.12 -63.1,10.22 -29.5,-9.83 -40,-49 -29.3,-78.1 10.8,-29.11 36.2,-49.91 61.3,-68.28 351.6,-258.51 802,-373.49 1003.4,105.44" /><g
         transform="scale(1.04504)"
         id="g110"><path
           id="path112"
           style="fill:#f25b43;fill-opacity:1;fill-rule:nonzero;stroke:none"
           d="m 16096.5,6874.11 c 203.5,74.64 -91.2,289.65 -144,374.15 -73.7,118.58 -75.4,337.8 -208.4,408.65 -141,75.12 -370.4,44.14 -454.1,-105.32 -188.4,-336.53 397.1,-618.25 638.6,-683.89 30.6,-8.32 62.5,-15.79 93.9,-11.2 29.8,4.4 54.3,10.34 74,17.61" /></g><g
         transform="scale(1.04562)"
         id="g114"><path
           id="path116"
           style="fill:#f25b43;fill-opacity:1;fill-rule:nonzero;stroke:none"
           d="m 16300,9957.32 c -32.1,-112.76 -81,-220.83 -145.2,-318.95 -20.9,-32.23 -54.6,-67.52 -91.3,-55.95 -27.6,8.51 -40.5,39.4 -48.7,67.05 -32.2,108.54 -45.3,222.83 -38.2,335.97 3.2,52.26 10.8,104.46 16.8,156.56 110.8,-48.9 214.5,-108.6 306.6,-184.68" /></g><path
         id="path118"
         style="fill:#f25b43;fill-opacity:1;fill-rule:nonzero;stroke:none"
         d="m 15717.8,10883.8 c -46.2,-200.9 -116.9,-447 -255.1,-524.7 -95.9,-53.7 -141.6,81.4 -157.1,150.5 -16,71.8 -8.9,146.4 -1.8,219.5 7.4,74.3 14.7,148.6 22,223 131.3,-18.9 262,-41.6 392,-68.3" /><g
         transform="scale(1.00953)"
         id="g120"><path
           id="path122"
           style="fill:#f25b43;fill-opacity:1;fill-rule:nonzero;stroke:none"
           d="m 16300,10601.3 c -21.8,-108.4 -52.9,-213.5 -99.9,-299.4 -31.9,-58.3 -155.2,-144.8 -226.9,-109.5 -70.2,34.4 -63.7,210.9 -64.1,287 -0.5,73.4 12.7,145.4 31.5,216.5 121,-28.9 242.1,-58.7 359.4,-94.6" /></g><g
         transform="scale(1.11564)"
         id="g124"><path
           id="path126"
           style="fill:#f68366;fill-opacity:1;fill-rule:nonzero;stroke:none"
           d="m 16300,7846.75 c -43.1,-54.23 -91.5,-104.28 -144.3,-148.62 -42.3,32.61 -83.3,67.28 -122.6,103.86 -53.7,49.86 -108,104.39 -153.9,164.33 31.2,34.35 59.4,71.56 84.1,110.9 61.7,-46.38 121.8,-95.92 185.9,-138.42 49,-32.42 99.4,-63.21 150.8,-92.05" /></g><g
         transform="scale(1.13167)"
         id="g128"><path
           id="path130"
           style="fill:#f68366;fill-opacity:1;fill-rule:nonzero;stroke:none"
           d="m 16300,8372.56 c -0.5,-66.23 -8,-132.45 -22,-197.37 -81.1,8.64 -161.4,29.14 -236.5,57.58 -60.2,22.91 -128,52.45 -188,90.95 2.1,49.94 -1.2,100.09 -10.7,149.63 31.8,-13.57 63.1,-29.24 95.3,-40.6 50.9,-17.99 103.2,-31.16 155.9,-42.11 68.2,-14.06 137,-18.49 206,-18.08" /></g><g
         transform="scale(1.11574)"
         id="g132"><path
           id="path134"
           style="fill:#f68366;fill-opacity:1;fill-rule:nonzero;stroke:none"
           d="m 16300,9205.55 c -112.2,-24.78 -222.7,-56.07 -327.8,-103.76 -41.2,-18.65 -84.2,-45.57 -128.6,-63.61 -25.3,34.45 -51,68.7 -76.5,103.15 15.8,11.21 31.1,23.55 47.3,35.78 49.8,37.61 104,69.61 159,98.87 83.3,44.33 170.9,83.06 261.4,111.1 12.7,-48.01 29.1,-95.1 47.6,-140.46 5.7,-13.75 11.5,-27.41 17.6,-41.07" /></g><path
         id="path136"
         style="fill:#1d1b19;fill-opacity:1;fill-rule:nonzero;stroke:none"
         d="m 13327.3,9785.49 c 110.9,-108.06 283.5,-100.26 400.7,-6.78 109.9,87.69 157.5,317.79 38.8,417.29 -26,21.8 -70,1.9 -59.6,-34.7 15.5,-54.2 36.4,-102.3 36.5,-159.8 0.2,-57.28 -23.1,-115.77 -59.4,-159.58 -82.6,-99.68 -240.2,-102.95 -345.6,-41.7 -9.2,5.34 -19.1,-7.23 -11.4,-14.73 v 0" /><path
         id="path138"
         style="fill:#1d1b19;fill-opacity:1;fill-rule:nonzero;stroke:none"
         d="m 14174.2,10292.4 c 55.3,-108.3 -111,-164.6 -187.3,-169.9 -83.7,-5.8 -157,23.4 -195.2,100.1 -28.8,57.8 -112.3,7.2 -85.8,-50.2 58,-125.3 221.7,-148.3 342.5,-121.5 67.6,15.1 131.8,50.8 168.4,110.7 30.2,49.6 14.9,110.4 -31,142.4 -7.5,5.1 -15.1,-4.6 -11.6,-11.6 v 0" /><path
         id="path140"
         style="fill:#1d1b19;fill-opacity:1;fill-rule:nonzero;stroke:none"
         d="m 13705.5,10260.6 c 5.1,44 -52.9,63.8 -86.5,45.9 -25,-13.3 -36.2,-38.9 -37.8,-66 -1.8,-30.7 19.6,-57.4 42.6,-74.4 25.5,-18.8 63.3,-14.5 90,-1.4 27,13.3 49.1,40.4 55.1,70.1 3.2,16.3 3.6,34.2 -2.8,49.8 -8.4,20.7 -25.3,45.2 -49.8,48.8 -21.7,3.2 -42.6,3.5 -61.6,-9.6 -20.5,-14.3 -37.1,-38.1 -34.1,-64.2 2,-17.7 5.7,-32.3 18.8,-45.4 16.2,-16.2 40.4,-22.6 62.5,-16.6 16.1,4.5 30,15.2 38.4,29.6 12.6,21.6 9.5,43.1 0,64.8 -0.5,1.1 -1,2.2 -1.4,3.3 2.9,-10.7 5.8,-21.5 8.7,-32.2 -0.3,-3.3 -0.6,-6.7 -0.9,-10 -5.4,-9.3 -10.8,-18.5 -16.1,-27.7 6.7,8 2,5.3 -14.3,-8.2 -10.7,0 -21.4,0 -32.1,0 -12.2,4.9 -20.7,13.4 -25.4,25.6 -0.9,3.2 1.8,20.4 -1.2,9.1 2.8,6.1 2.6,6.4 -0.4,0.9 6.4,10.6 -6.8,-3.3 3.1,3.5 -5.4,-2.9 -5.3,-3 0.2,-0.2 1.6,0.1 3.2,0.2 4.9,0.3 -6.2,0.2 -6,-0.2 0.3,-1 -8.8,1.5 1.1,-0.9 3.8,-3.1 -8.8,7.2 3.1,-6.5 -2.7,3.3 1.8,-4.6 1.7,-4.5 0,0.4 -2.8,8.1 0.3,0.3 -0.3,-2.7 -0.6,-1.8 -1.6,-3.3 -3,-4.5 5.6,6.8 -3.9,-2 3.6,2.4 1.7,1.4 3.6,2.5 5.5,3.5 -1.5,-0.9 -4.5,-0.4 1.5,-0.5 -1,0 6.8,-1.8 6.2,-1.6 13.9,-2.7 -2.1,3.8 3.6,-0.9 9,-7.4 20.3,-2.4 21.6,8.9 v 0" /><path
         id="path142"
         style="fill:#1d1b19;fill-opacity:1;fill-rule:nonzero;stroke:none"
         d="m 13920.5,10783.4 c -2.6,-17.5 0.4,-32.9 7.4,-49.2 6.8,-15.5 11.8,-31.6 17.2,-47.6 7.1,-20.7 24.4,-35.8 47,-35.8 19.9,0 43.5,14.7 47,35.8 8.1,49.3 -1.3,111.1 -41.5,144.9 -21.1,17.9 -48.7,24.3 -73.8,9.6 -26.7,-15.7 -41.3,-56.4 -21.9,-83.4 6.5,-9.1 12.3,-18.4 19.6,-26.8 2.4,-3 5,-5.8 7.9,-8.2 -2.7,5 -2.3,4.4 1.5,-1.5 1.3,-2.1 9.3,-18.7 7,-12.8 2.8,-7.1 5.2,-14.5 7.2,-21.8 27.2,15.8 54.3,31.6 81.4,47.4 -10.8,11.3 -22.3,22.2 -32.2,34.4 -11.9,14.4 -23.9,26.9 -42.1,33 -12.1,4.1 -29.6,-4.6 -31.7,-18 v 0" /><path
         id="path144"
         style="fill:#1d1b19;fill-opacity:1;fill-rule:nonzero;stroke:none"
         d="m 13200.8,10276.6 c 0.5,12.9 0.6,24.5 -6.5,36.2 -5.1,8.3 -10.1,16.6 -15.2,24.9 -25.2,-14.7 -50.4,-29.4 -75.6,-44.2 0.5,-0.8 1,-1.6 1.5,-2.4 -1.4,11.3 -2.9,22.7 -4.4,34 -12.4,-29.6 2.8,-55.2 15.2,-81.4 7.1,-15.1 24.7,-26.7 40.3,-31 23.2,-6.4 48.6,0.3 65.7,17.3 12.6,12.6 19.7,29.9 19.7,47.8 0,24.8 -13.2,44.9 -33.4,58.3 -5.4,3.5 -10.9,7.1 -16.3,10.7 -6.6,4.4 -13.9,7.1 -21.4,10 -12.8,5 -26.2,2.7 -38.9,-0.8 14.3,-3.8 28.6,-7.6 43,-11.4 -0.8,0.7 -1.5,1.4 -2.2,2 -17.9,15.9 -44.4,17.6 -62,0 -16.6,-16.6 -17.3,-45.5 0,-62 6.4,-6 12.7,-12.1 19.1,-18.2 7.1,-6.8 14.1,-12.4 24,-14.8 3.9,-0.9 7.9,-1.4 11.8,-2.2 18.3,-3.3 34.9,7.8 35.6,27.2 v 0" /><path
         id="path146"
         style="fill:#1d1b19;fill-opacity:1;fill-rule:nonzero;stroke:none"
         d="m 13755.3,9866.76 c 13.1,-31.18 17.1,-57.82 37.6,-86.56 18.6,-26 40.3,-47.32 66.9,-65.02 54.6,-36.51 132.8,-37.79 186.5,-0.49 116.8,81.12 69.1,300.21 -24.2,379.21 -26,22.1 -61.1,-5 -46.4,-35.7 34.1,-71.55 86.8,-191.62 28,-265.79 -28,-35.29 -85.4,-20.12 -117.6,-2.06 -19.6,11.02 -36.6,24.56 -53.2,39.68 -18.9,17.27 -42.5,29.43 -61.1,46.31 -6.6,5.95 -20.6,0.22 -16.5,-9.58 v 0" /><path
         id="path148"
         style="fill:#1d1b19;fill-opacity:1;fill-rule:nonzero;stroke:none"
         d="m 14223.8,10588.8 c 24.1,1.6 46.2,21 69,29 28.3,9.9 55.9,13.1 84.6,20.6 44.4,11.7 35.4,81.1 -10.9,80.2 -35,-0.8 -71.7,-18.8 -99.7,-39.3 -22,-16.2 -56.5,-50 -53.8,-79.7 0.5,-5.6 4.6,-11.2 10.8,-10.8 v 0" /><path
         id="path150"
         style="fill:#1d1b19;fill-opacity:1;fill-rule:nonzero;stroke:none"
         d="m 14320.5,10506.3 c 16.2,-10.5 33.9,-7.1 52.2,-5.2 24.6,2.5 49.1,5 73.7,7.5 44.1,4.5 33.6,70 -8,58.9 -24,-6.3 -48.1,-12.7 -72.1,-19.1 -19.8,-5.2 -37.5,-8.5 -50.1,-25.4 -4.1,-5.6 -0.8,-13.4 4.3,-16.7 v 0" /><path
         id="path152"
         style="fill:#1d1b19;fill-opacity:1;fill-rule:nonzero;stroke:none"
         d="m 13114.2,9943.07 c -47.9,23.74 -113.8,-25.5 -145,-58.4 -39.1,-41.31 32,-95.4 61.1,-47.14 10.9,17.96 24.5,33.67 41.4,46.22 16.3,12.07 36.2,20.73 48.2,37.51 4.8,6.74 1.6,18.2 -5.7,21.81 v 0" /><path
         id="path154"
         style="fill:#1d1b19;fill-opacity:1;fill-rule:nonzero;stroke:none"
         d="m 13136.5,9788.1 c -19.9,2.29 -35.9,-19.51 -49.2,-31.58 -17.5,-15.93 -34.5,-32.07 -51,-49 -25.7,-26.31 17.1,-67.42 39.8,-39.77 14.9,18.14 29.1,36.51 42.9,55.49 11.8,16.13 33.1,35.37 27.9,56.95 -1.2,5.03 -5.7,7.37 -10.4,7.91 v 0" /><path
         id="path156"
         style="fill:#685952;fill-opacity:1;fill-rule:nonzero;stroke:none"
         d="m 7627.57,8908.44 c -186.09,159.37 -454.68,230.22 -571.9,456.15 -101.64,195.9 -171.91,475.48 -168.74,695.91 4.84,337.5 154.82,653.1 256.46,975 82.86,262.4 127.62,570.8 -32.64,794.5 -112.17,156.6 -318.46,239.6 -507.83,204.5 -189.38,-35.2 -352.08,-186.8 -400.54,-373.2 -11.02,-42.4 -16.3,-88.5 -0.24,-129.3 41.79,-106.1 186.67,-112 287.7,-164.9 118.69,-62.2 180.79,-201 188.82,-334.8 8.03,-133.7 -28.76,-265.5 -62.42,-395.2 -119.54,-460.7 -202.85,-950.76 -73.44,-1408.76 129.41,-458 525.5,-870.61 1001.37,-878.15 l 83.4,558.25" /><path
         id="path158"
         style="fill:#685952;fill-opacity:1;fill-rule:nonzero;stroke:none"
         d="m 8402.62,11084.5 c -161.91,51.7 -353.75,136.4 -523.73,148.9 -193.87,14.4 -177.04,-21.1 -119.67,-220 46.99,-162.8 140.18,-603.3 324.85,-638.8 l 318.55,709.9" /><path
         id="path160"
         style="fill:#685952;fill-opacity:1;fill-rule:nonzero;stroke:none"
         d="m 10019.8,11193.3 c 140.4,87 289.9,159.3 445.3,215.5 15.5,5.6 33.1,11 48.1,3.9 21.2,-9.9 24.9,-38 24.9,-61.4 -0.4,-423.4 -265.1,-795.1 -518.5,-1134.3 l 0.2,976.3" /><path
         id="path162"
         style="fill:#d6d4b4;fill-opacity:1;fill-rule:nonzero;stroke:none"
         d="m 10385.8,7076.9 c -725.78,-320.2 -1435.33,-370.3 -2187.62,-106.4 -307.2,107.7 -598.23,283.4 -795.4,542.5 -374.6,492.08 -504.06,1338.43 -391.02,1935.01 141.11,744.69 574.01,1460.29 1266.84,1806.49 628.83,314.2 1416.74,232.8 2014.2,-137.7 597.4,-370.5 1008.6,-1001.2 1190.2,-1680.35 167,-624.23 128.9,-1352.85 -301.6,-1834.76 -213.3,-238.79 -502.6,-395.59 -795.6,-524.79" /><path
         id="path164"
         style="fill:#1d1b19;fill-opacity:1;fill-rule:nonzero;stroke:none"
         d="m 8673.02,10499.6 c -14.79,-130.1 99.42,-246.9 231.64,-229.2 133.11,17.7 213.85,168.7 177.43,292.3 -16.06,54.5 -102.37,30.7 -84.98,-23.4 26.21,-81.6 -22.56,-166.4 -102.76,-192.8 -93.69,-30.8 -196.4,63.5 -204.45,153.1 -0.99,10.9 -15.65,10.7 -16.88,0 v 0" /><path
         id="path166"
         style="fill:#1d1b19;fill-opacity:1;fill-rule:nonzero;stroke:none"
         d="m 9437.77,10433.4 c 0.6,-41.3 -39.57,-81.4 -71.88,-100.2 -39.64,-23 -89.28,-13.1 -127.86,5.9 -88.84,43.7 -105.69,143.5 -139.36,225.6 -13.6,33.1 -74.48,33.5 -69.06,-9.4 16.15,-127.6 99.97,-254.5 228.67,-288 50.96,-13.3 110.17,-2 150.02,33.2 45.33,39.9 53,76 46.35,132.9 -1.23,10.5 -17.04,11.1 -16.88,0 v 0" /><path
         id="path168"
         style="fill:#1d1b19;fill-opacity:1;fill-rule:nonzero;stroke:none"
         d="m 9770.68,11005.1 c -56.45,-46.4 -65.5,-126.2 -36.85,-190.6 9.87,-22.2 43.16,-28.6 62.45,-16.4 53.81,34.1 73.04,89.5 63.95,150.9 -10.51,71 -132.69,41 -109.39,-30.2 6.01,-18.3 3.7,-34.4 -9.87,-49 21.52,0 43.04,0 64.55,0 -26.43,33.2 -28.13,78.7 -11.28,117.1 6.9,15.8 -10.01,29.4 -23.56,18.2 v 0" /><path
         id="path170"
         style="fill:#1d1b19;fill-opacity:1;fill-rule:nonzero;stroke:none"
         d="m 8472.28,11000.7 c -28.87,-36.3 -31.99,-103.2 -24.36,-147 5.03,-28.8 43.2,-41.2 66.4,-27 70.03,42.8 80.57,135.7 31.54,198.2 -20.8,26.5 -61.11,18.9 -83.04,0 -48.11,-41.5 -50.36,-125.2 -0.91,-166.5 24.49,-20.5 58.78,-24.1 82.86,0 23.01,23 21.99,59.7 0,82.9 1.49,-2 2.35,-4.2 2.58,-6.7 -0.89,2.2 -3.24,18.3 -2.62,7.2 -1.51,-5.9 -1.38,-5.3 0.39,1.8 -0.9,-3.6 -8.4,-10.2 0.74,-1.7 -27.68,0 -55.36,0 -83.04,0 4.8,-5.7 6.67,-9.5 6.91,-20 0.18,-8 -2.14,-16 -10.19,-24.2 23.67,-3 47.34,-6.1 71,-9.1 -6.85,15.6 -14.35,29.2 -18.06,45.9 -4.22,18.9 -1.64,38.5 -6.51,57.3 -3.5,13.5 -24.03,21 -33.69,8.9 v 0" /><path
         id="path172"
         style="fill:#685952;fill-opacity:1;fill-rule:nonzero;stroke:none"
         d="m 9996.72,6756.5 c 9.18,-32 26.98,-70.1 60.28,-70.5 33.2,-0.5 52,37 62.4,68.4 72.4,217 132.7,438 180.5,661.7 23.3,109.3 31.9,248.25 -63.2,307.01 -118.9,73.47 -299,-8.74 -366.8,-116.44 -121.48,-192.97 68.21,-647.17 126.82,-850.17" /><path
         id="path174"
         style="fill:#685952;fill-opacity:1;fill-rule:nonzero;stroke:none"
         d="m 8482.68,6756.5 c -10.19,-32 -29.82,-70.1 -66.54,-70.5 -36.61,-0.5 -57.33,37 -68.91,68.4 -79.88,217 -146.39,438 -199.11,661.7 -25.76,109.3 -35.27,248.25 69.68,307.01 131.26,73.47 330.01,-8.74 404.84,-116.44 134.07,-192.97 -75.28,-647.17 -139.96,-850.17" /><path
         id="path176"
         style="fill:#1d1b19;fill-opacity:1;fill-rule:nonzero;stroke:none"
         d="m 9101.35,10691.3 c -9.93,2.5 -21.21,9.3 -31.74,8 -11.71,-1.6 -22.81,-3.3 -34.05,-7 -23.25,-7.6 -43.19,-22.2 -58.91,-40.8 -17.85,-21 -40.44,-56.9 -22.63,-84.1 17.09,-26.1 40.57,-45.6 69.38,-57.5 53.06,-21.9 109.77,3.2 126.59,57.9 6.74,22 3.77,48.9 -7.11,69 -14.31,26.4 -37.56,37.1 -66.22,40.9 -28.44,3.8 -52.5,-26.7 -52.5,-52.5 0,-28.4 23.88,-52.7 52.5,-52.5 -12.32,-0.1 -23.11,10.5 -24.35,21.9 1.37,-12.7 2.89,8 -0.31,-4.4 1.16,4.4 3.96,6.3 7.48,8.8 3.81,2.7 1.48,-0.8 -4.91,2.1 -11.28,5.2 -18.9,14 -27.43,22.7 4,-15.1 7.99,-30.2 11.98,-45.3 2.75,15.3 7.69,27.1 18.35,38.6 5.34,5.7 10.73,11.1 17.21,15.5 7.38,5.1 18.39,14.3 26.67,17.1 19.51,6.5 21.61,36 0,41.6 v 0" /><path
         id="path178"
         style="fill:#fefbe1;fill-opacity:1;fill-rule:nonzero;stroke:none"
         d="m 9846.02,10544.4 c 59.27,-25.3 130.86,-26.4 193.48,-43.8 71.3,-19.7 140.8,-47.5 206.4,-81.5 59,-30.5 97,58.3 35.4,84 -72.4,30.2 -146,51.9 -223.6,63.7 -63.92,9.8 -146.73,25 -208.55,1.5 -9.18,-3.4 -14.78,-19 -3.13,-23.9 v 0" /><path
         id="path180"
         style="fill:#fefbe1;fill-opacity:1;fill-rule:nonzero;stroke:none"
         d="m 9935.94,10362.4 c 31.09,-30.6 73.26,-50 109.96,-73.3 43.4,-27.6 84.8,-58.4 124.6,-91 44.3,-36.3 94.8,30 47.7,61.8 -76.3,51.5 -175.4,123.9 -269.34,133.7 -16.4,1.7 -23.48,-20.9 -12.92,-31.2 v 0" /><path
         id="path182"
         style="fill:#fefbe1;fill-opacity:1;fill-rule:nonzero;stroke:none"
         d="m 9847.66,10195.6 c 20.03,-62.6 72.46,-119 109.75,-172.6 32.51,-46.68 97.79,3.3 61.79,47.7 -41,50.7 -80.48,116.4 -135.04,153 -18.05,12.1 -42.95,-7.9 -36.5,-28.1 v 0" /><path
         id="path184"
         style="fill:#fefbe1;fill-opacity:1;fill-rule:nonzero;stroke:none"
         d="m 8257.23,10660.7 c -112.04,24.3 -237.43,25.7 -351.83,28.2 -55.63,1.3 -55.63,-87.5 0,-86.2 114.4,2.6 239.79,3.9 351.83,28.2 14.81,3.2 14.81,26.6 0,29.8 v 0" /><path
         id="path186"
         style="fill:#fefbe1;fill-opacity:1;fill-rule:nonzero;stroke:none"
         d="m 8298.41,10456.9 c -152.92,-11.4 -303.38,-54.7 -447.26,-106.2 -43.99,-15.8 -18.34,-77.5 24.92,-59.1 138.38,58.8 281.82,97.2 425.95,138.6 14.35,4.1 12.07,27.9 -3.61,26.7 v 0" /><path
         id="path188"
         style="fill:#fefbe1;fill-opacity:1;fill-rule:nonzero;stroke:none"
         d="m 8339.03,10344.6 c -114.99,-32.3 -217.64,-119.7 -299.24,-204 -35.9,-37.1 22.37,-94.7 56.35,-56.4 78.75,88.8 173.39,149.3 264.78,222.8 18.22,14.7 -1.49,43.4 -21.89,37.6 v 0" /><path
         id="path190"
         style="fill:#f89c48;fill-opacity:1;fill-rule:nonzero;stroke:none"
         d="m 3334.23,10195.7 c -212.7,201.6 -425.4,403.3 -638.1,605 -98.31,93.2 -207.06,191.4 -341.84,205.1 -120.04,-200.1 -145.77,-440.9 -168.74,-673.1 -16.66,-168.3 -33.25,-338.93 -5.83,-505.84 27.42,-166.92 104.49,-332.52 241.8,-431.3 l 912.71,800.14" /><path
         id="path192"
         style="fill:#f89c48;fill-opacity:1;fill-rule:nonzero;stroke:none"
         d="m 3860.88,10263.3 c 179.59,357.3 374.23,731.7 711.1,947.2 15.19,9.7 32.16,19.4 50.08,17.3 23.05,-2.6 39.1,-23.4 51.8,-42.9 230.17,-351.7 265.2,-792 293.54,-1211.44 l -1106.52,289.84" /><path
         id="path194"
         style="fill:#f89c48;fill-opacity:1;fill-rule:nonzero;stroke:none"
         d="m 1618.01,8518.45 c -369.82,-90.15 -651.365,41.57 -897.686,272.25 -158.597,148.55 -270.636,356.58 -225.465,593.3 43.661,228.77 219.461,428.47 289.672,654 11.297,36.3 19.828,74.5 11.836,109.4 -29.929,130.6 -227.781,102.6 -353.66,151.4 -200.105,77.5 -188.684,390 -18.391,553.2 170.293,163.1 425.614,196.9 643.264,164.4 127.19,-18.9 252.67,-58.8 342.19,-141.9 184.13,-170.9 170.06,-468.1 144.67,-732.1 -39.27,-408.34 -302.92,-1159.17 176.11,-1346.93 13.2,-5.17 27.25,-10.51 40.47,-16.81 -17.48,-57.82 -44.01,-141.65 -72.86,-229.92 -25.6,-13.41 -52.88,-23.64 -80.15,-30.29" /><path
         id="path196"
         style="fill:#f9ea40;fill-opacity:1;fill-rule:nonzero;stroke:none"
         d="m 4731.56,7232.3 c 800.3,466.62 1093.8,1272.15 957.39,2174.87 -51.78,342.66 -210.66,847.03 -525.18,1045.03 -276.59,174 -786.49,217.4 -1105.8,213.6 -550.41,-6.6 -1091.93,-40.6 -1598.97,-272.3 C 1947.97,10160 1821.52,9702.13 1784.73,9155.88 1754.99,8714.39 1783.07,7985.16 2113.12,7643.95 2367.83,7380.6 2925.7,7173 3260.32,7061.1 3795.65,6882 4242.16,6947 4731.56,7232.3" /><path
         id="path198"
         style="fill:#1d1b19;fill-opacity:1;fill-rule:nonzero;stroke:none"
         d="m 3096.46,9973.34 c 62.93,-107.71 190.56,-151.47 309.03,-111.48 125.77,42.46 188.61,187.74 169.61,311.14 -7.35,47.8 -82.35,28.2 -73.22,-20.1 18.17,-96.3 -34.78,-189.92 -121.31,-231.92 -88.53,-42.97 -205.93,-6.69 -270.12,63.15 -6.95,7.56 -19.04,-2.16 -13.99,-10.79 v 0" /><path
         id="path200"
         style="fill:#1d1b19;fill-opacity:1;fill-rule:nonzero;stroke:none"
         d="m 3992.52,9996.79 c -89.16,-25.65 -185.59,-3.12 -262.3,46.51 -36.28,23.4 -67.38,54.1 -91.44,89.9 -25.92,38.5 -27.87,85.9 -51.3,123.7 -16.39,26.4 -56.1,21.3 -65.11,-8.5 -15.46,-51.2 18.26,-114.7 46.02,-156.4 31.17,-46.8 75.09,-86 123.81,-113.79 97.91,-55.8 212.16,-62.44 312.24,-9.7 15.66,8.26 4.8,33.09 -11.92,28.28 v 0" /><path
         id="path202"
         style="fill:#1d1b19;fill-opacity:1;fill-rule:nonzero;stroke:none"
         d="m 3406.19,10223.4 c 74.2,-12.5 147,-18.4 222.16,-20.5 47.72,-1.3 47.8,74.2 0,74.1 -75.09,-0.1 -147.76,-4.2 -222.16,-14.7 -19.55,-2.8 -19.09,-35.7 0,-38.9 v 0" /><path
         id="path204"
         style="fill:#1d1b19;fill-opacity:1;fill-rule:nonzero;stroke:none"
         d="m 4267.74,10300.9 c 6.1,27.5 9.65,55.8 16.61,83.1 -36.85,0 -73.71,0 -110.57,0 4.85,-22.2 13.48,-44 20.45,-65.7 10.17,-31.6 41.9,-51.6 74.96,-42.5 28.95,7.9 55.41,44.2 42.56,74.9 -10.73,25.7 -20.02,53 -33.18,77.5 -30.95,57.5 -123.1,17.9 -104.79,-44.2 8.02,-27.2 12.66,-55.6 19.83,-83.1 9.35,-36 65.79,-37.7 74.13,0 v 0" /><path
         id="path206"
         style="fill:#1d1b19;fill-opacity:1;fill-rule:nonzero;stroke:none"
         d="m 2890.48,10256.8 c 6.1,27.5 9.65,55.9 16.61,83.1 -36.86,0 -73.71,0 -110.57,0 4.85,-22.2 13.47,-44 20.45,-65.7 10.16,-31.6 41.9,-51.6 74.96,-42.5 28.94,7.9 55.4,44.2 42.56,74.9 -10.74,25.7 -20.02,53 -33.18,77.5 -30.95,57.6 -123.1,18 -104.79,-44.2 8.01,-27.2 12.66,-55.6 19.83,-83.1 9.35,-35.9 65.79,-37.7 74.13,0 v 0" /><path
         id="path208"
         style="fill:#f89c48;fill-opacity:1;fill-rule:nonzero;stroke:none"
         d="m 5026.7,6930.5 c -30.16,29 -55.89,60.4 -74.22,90.3 -105.77,172.9 -230.99,481.9 -28.92,636.12 22.09,16.86 47.18,30.63 74.52,35.65 154.14,28.26 198.73,2.11 235.12,-140.97 48.63,-191.2 100.04,-406.7 90.53,-605.5 -9.89,-206.6 -192.67,-116.1 -297.03,-15.6" /><path
         id="path210"
         style="fill:#f89c48;fill-opacity:1;fill-rule:nonzero;stroke:none"
         d="m 2764.79,7549.1 c -48.73,181.04 -254.86,249.35 -387.61,95.13 -99.12,-115.13 -77.49,-323.63 -91.36,-468.53 -7.43,-77.6 -29.68,-294 33.43,-355.9 88.05,-86.2 210.42,70.4 261.47,133.2 131.05,161.3 244.19,372.8 184.07,596.1" /><path
         id="path212"
         style="fill:#f89c48;fill-opacity:1;fill-rule:nonzero;stroke:none"
         d="m 4130.82,10104 c 50.19,-23.8 119.24,-9 174.02,-11.7 76.9,-3.7 152.54,-16.1 227.17,-34.6 40.53,-10 54.89,47.3 16.95,61.5 -72.2,27 -148.59,43.7 -225.68,46.6 -58.58,2.2 -150.03,7.1 -195.87,-35.3 -7.54,-6.9 -6.28,-21.9 3.41,-26.5 v 0" /><path
         id="path214"
         style="fill:#f89c48;fill-opacity:1;fill-rule:nonzero;stroke:none"
         d="m 4153.84,9984.46 c 65.97,-23.93 134.02,-37.34 198.94,-65.87 47.34,-20.81 75.26,45.94 27.45,65.11 -67.18,26.9 -146.07,54.3 -219.29,53.2 -31.37,-0.4 -34.8,-42.39 -7.1,-52.44 v 0" /><path
         id="path216"
         style="fill:#f89c48;fill-opacity:1;fill-rule:nonzero;stroke:none"
         d="m 3005.12,10056.2 c -72.05,44.3 -196.31,-30.8 -253.56,-73.31 -46.5,-34.49 5.39,-100.92 48.28,-62.58 31.15,27.85 65.09,49.75 102.58,68.05 33.75,16.44 78.52,23.64 104.78,51.64 4.61,4.9 3.7,12.6 -2.08,16.2 v 0" /><path
         id="path218"
         style="fill:#f89c48;fill-opacity:1;fill-rule:nonzero;stroke:none"
         d="m 2997.24,9920.91 c -38.59,-9.17 -72.02,-34.64 -105.7,-54.8 -42.76,-25.6 -83.73,-54.18 -124.85,-82.31 -30.82,-21.08 -1.29,-71.75 29.34,-50.19 38.18,26.88 76.57,53.57 113.39,82.31 34.5,26.94 75.36,52.46 100,89.15 5.55,8.27 -3.54,17.89 -12.18,15.84 v 0" /><path
         id="path220"
         style="fill:#39393a;fill-opacity:1;fill-rule:nonzero;stroke:none"
         d="m 2284.44,3559.9 c -183.72,350.2 -397.61,684.4 -638.52,998 -12.91,-106 -46.15,-209.4 -97.37,-303 C 1367.33,4651 1112.09,5013.1 799.945,5317 777.332,5195.2 778.844,5069.1 804.367,4947.9 536.785,5205.5 269.199,5463 1.61328,5720.6 -14.8867,5271.3 95.5352,4818 316.828,4426.5 237.473,4479.6 158.117,4532.7 78.7617,4585.7 6.3125,4531.9 60.7305,4418 118.637,4348.8 222.422,4224.6 326.207,4100.4 429.992,3976.3 343.59,4004.2 257.188,4032.2 170.785,4060.2 646,3586.8 1294.9,3291.9 1964,3245.1 l 320.44,314.8" /><path
         id="path222"
         style="fill:#686a6c;fill-opacity:1;fill-rule:nonzero;stroke:none"
         d="M 2251.81,1076.9 C 2173.7,1024.3 2093.48,976.699 2001.54,962.801 1826.79,936.402 1653.59,1044 1551,1187.9 c -364.35,511.1 -196.3,1383.8 95.32,1891.2 380.67,662.4 1135.09,1092.3 1899.03,1082.1 798.69,-10.6 1550.29,-480.6 2011.33,-1132.9 178.39,-252.4 338.09,-475.7 436.34,-770.4 113.99,-341.9 188.2,-699.5 189.89,-1060.9 0.34,-71.9 -2.75,-146.3 -34.06,-211 -81.04,-167.5 -376.51,-139.402 -458.01,9.801 -152.52,279.099 -121.83,450.999 -459.06,526.499 -373.29,83.5 -761.28,66.4 -1142.48,34.7 -266.4,-22.2 -533.23,-51.5 -792.64,-116 -160.49,-39.9 -288.8,-83.7 -451.79,-107.4 -165.71,-24.2 -326.45,-82.9 -468.03,-172.5 -42.05,-26.6 -83.24,-56.1 -125.03,-84.2" /><path
         id="path224"
         style="fill:#f9ea40;fill-opacity:1;fill-rule:nonzero;stroke:none"
         d="m 4012.4,2583.6 c 230.57,-257.6 562.82,-421.5 907.47,-447.7 227.62,-17.3 463.03,25.4 658.62,143.1 195.6,117.7 347.52,314.2 389.62,538.5 7.01,37.4 7.99,82.9 -22.55,105.5 -23.15,17.1 -55.05,13.6 -83.57,9.5 -529.5,-74.9 -1073.94,-42.6 -1590.87,94.4 -259.79,68.8 -383.65,232 -593.88,353 -5.93,-283 149.61,-589.1 335.16,-796.3" /><path
         id="path226"
         style="fill:#39393a;fill-opacity:1;fill-rule:nonzero;stroke:none"
         d="m 5640.43,4928.4 c -43.09,75.7 -6.95,170.1 29.5,249.2 26.31,57 124.46,332 191.24,153.2 57.79,-154.7 116.47,-314.6 108.94,-479.6 -21.85,-1.7 -44.24,4.6 -61.92,17.6 l -267.76,59.6" /><path
         id="path228"
         style="fill:#39393a;fill-opacity:1;fill-rule:nonzero;stroke:none"
         d="m 3934.46,4849.8 c 10.97,-0.4 9.02,17.2 2.8,26.2 -50.13,73 -108.73,140.2 -174.26,199.8 -38,34.5 -87.79,68.6 -136.84,53.4 -81.49,-177.1 -56.39,-398.6 62.67,-552.9 l 245.63,273.5" /><path
         id="path230"
         style="fill:#686a6c;fill-opacity:1;fill-rule:nonzero;stroke:none"
         d="m 3521.07,3714.3 c 0.47,-2 0.94,-3.9 1.51,-5.9 9.58,-38.3 20.67,-76.2 33.27,-113.6 13.16,-39.2 27.82,-77.9 43.89,-116 28.2,-67 60.72,-136.6 97.56,-206.4 145.68,-276.8 357.91,-556.7 630.38,-679.4 384.88,-173.2 769.66,-350.7 1196.56,-207.5 326.79,109.7 587.8,364.2 779.72,650.6 95.78,142.8 178.11,297.7 214.76,465.8 7.43,33.9 12.6,68 15.89,102.2 11.37,118.5 0.09,238.1 -21.34,356.4 -6.95,39.1 -15.13,78.2 -23.87,117.1 -17.67,78 -37.88,155.1 -56.86,230.7 -8.37,33.2 -18.89,66.3 -31.39,99 -15.33,40.2 -33.65,80.1 -54.52,119.1 -8.55,16 -17.57,31.9 -26.97,47.7 -33.93,56.7 -73.03,111.5 -116.08,163.4 -125.19,151.2 -283.56,278.1 -442.77,356.8 -226.7,112.2 -480.1,161.8 -732.55,179.2 -267.2,18.4 -450.01,-46.8 -690.9,-142.2 -189.2,-74.9 -352.83,-125.9 -505.47,-272.9 -124.72,-120 -216.17,-266.1 -273.69,-424.4 -29.42,-80.8 -50,-164.8 -61.56,-250.2 -6.3,-45.1 -9.97,-90.4 -11.09,-135.8 v -0.1 c -3.2,-111.7 8.64,-224.2 35.52,-333.6" /><path
         id="path232"
         style="fill:#1d1b19;fill-opacity:1;fill-rule:nonzero;stroke:none"
         d="m 5345.34,4227.7 c -9.44,-75.6 -89.83,-135.9 -164.16,-116.5 -61.85,16.2 -93.4,89.2 -75.33,146.4 17.12,54.3 -69.49,78.1 -84.98,23.5 -29.19,-103.1 33.01,-220.5 139.63,-244.9 115.05,-26.3 215.6,81.4 201.71,191.5 -1.37,10.8 -15.52,10.8 -16.87,0 v 0" /><path
         id="path234"
         style="fill:#1d1b19;fill-opacity:1;fill-rule:nonzero;stroke:none"
         d="m 4725.2,4174 c -5.45,-48.4 -2.64,-75.6 35.81,-111.2 31.45,-29 79.66,-39.2 120.9,-30 111.01,24.7 182.49,131.6 196.2,240.1 5.42,42.9 -55.37,42.3 -69.06,9.3 -26.06,-62.8 -37.49,-127.7 -95.71,-171 -30.5,-22.7 -67.1,-27.8 -103.11,-18 -28.64,7.8 -67.71,48.9 -68.15,80.8 -0.16,11.1 -15.69,10.6 -16.88,0 v 0" /><path
         id="path236"
         style="fill:#1d1b19;fill-opacity:1;fill-rule:nonzero;stroke:none"
         d="m 4447.46,4625 c 11.63,-31.2 10.68,-65.1 -11.29,-91 21.52,0 43.04,0 64.55,0 -8.9,10.1 -7.45,20.3 -3.76,30.8 10.2,29.2 -11.34,62 -39.62,69.8 -39.02,10.7 -67.21,-18.9 -71.8,-54.7 -6.09,-47.6 19.31,-93.6 59.87,-117.6 27.72,-16.4 56.14,0.6 67.05,27.3 21.82,53.3 2.84,118.8 -42.96,152.4 -10.42,7.6 -26.47,-5.1 -22.04,-17 v 0" /><path
         id="path238"
         style="fill:#1d1b19;fill-opacity:1;fill-rule:nonzero;stroke:none"
         d="m 5492.4,4627.8 c -4.82,-12.4 -3.75,-26.1 -6.1,-39.1 -2.89,-16 -10.72,-26.9 -17.52,-41.3 23.66,3.1 47.33,6.1 71,9.2 -2.05,2.2 -4.2,7.8 -2.62,3.4 -0.98,3 -1.73,6.2 -2.25,9.4 0.71,-5.7 0.89,-5.5 0.54,0.7 0.39,6.5 0.3,6.5 -0.28,0.2 0.7,3.1 1.62,6.2 2.76,9.2 -2.47,-6 -2.16,-6.2 0.91,-0.5 -4.15,-5.5 -4.12,-5.6 0.08,-0.5 -27.68,0 -55.36,0 -83.03,0 4.73,-4.7 4.7,-4.4 -0.1,0.9 -0.75,1.8 -1.51,3.6 -2.26,5.4 1.58,-6.8 1.53,-6.2 -0.14,1.5 1.54,7.8 1.49,8.4 -0.15,1.7 -3.05,-11.5 1.16,3.1 3.54,5.7 -21.67,-23.4 -23.23,-59.6 0,-82.9 24.31,-24.3 58.11,-20.1 82.87,0 45.06,36.7 42.56,113.7 -0.73,150.7 -21.92,18.7 -62.3,26.7 -83.03,0 -43.04,-55.3 -34.87,-139.3 29.1,-175.9 22.9,-13.1 62.08,-2.7 66.41,27 1.83,12.6 4.55,24.5 1.79,37.1 -2.34,10.7 -3.58,21.4 -5.05,32.3 -2.56,19 -8.01,41 -22.05,54.7 -11.66,11.4 -28.3,5 -33.69,-8.9 v 0" /><path
         id="path240"
         style="fill:#1d1b19;fill-opacity:1;fill-rule:nonzero;stroke:none"
         d="m 5012.2,4345.5 c -5.78,6 -5.61,5.3 0.51,-2 3.13,-3 6.45,-5.7 9.96,-8.1 6.98,-4 11.82,-8 17.29,-13.8 10,-10.7 13.11,-18.2 15.3,-32.3 3.99,15.1 7.98,30.2 11.98,45.3 -6.16,-6 -10.32,-10.5 -15.78,-14 -9.42,-6.1 1.97,-0.5 -8.43,-3.2 3.71,1 5.37,0.8 8.93,-1 3.37,-1.8 6.11,-4.3 8.24,-7.5 5.96,-9.6 1.53,4.3 2.33,-7.8 -0.62,9.4 -2.13,-6.1 -3.31,-8.7 -3.8,-8.4 -16.76,-15.6 -25.91,-15.3 28.62,-0.7 52.5,24.4 52.5,52.5 0,37.2 -33.31,55.6 -66.46,50.6 -46.94,-7 -63.3,-59.5 -54.66,-99.7 10.81,-50.3 69.73,-71.9 114.24,-53.3 22.91,9.6 45.16,24.8 58.56,46.4 17.68,28.4 4.31,55.4 -14.08,79 -13.33,17.1 -30.26,28.1 -50.05,36.4 -9.07,3.8 -19.53,5.4 -29.25,6.3 -12.96,1.1 -20.47,-4.5 -31.91,-8.3 -21.59,-7.1 -19.34,-33.6 0,-41.5 v 0" /><path
         id="path242"
         style="fill:#39393a;fill-opacity:1;fill-rule:nonzero;stroke:none"
         d="m 3521.07,3714.3 c 0.47,-2 0.94,-3.9 1.51,-5.9 63.06,21.2 124.72,46.7 184.4,76.1 86.85,42.7 253.11,84.4 230.08,212.6 -15.6,86.9 -114.38,112.1 -186.19,115.9 -91.82,4.8 -181.21,-26.9 -265.32,-65 v -0.1 c -3.2,-111.7 8.64,-224.2 35.52,-333.6" /><path
         id="path244"
         style="fill:#39393a;fill-opacity:1;fill-rule:nonzero;stroke:none"
         d="m 3555.85,3594.8 c 13.16,-39.2 27.82,-77.9 43.89,-116 28.2,-67 60.72,-136.6 97.56,-206.4 89.57,60.2 176.6,124.2 261,191.5 61.75,49.3 127.92,114.2 118.81,192.6 -3.39,29.7 -20.02,59.4 -47.47,71.1 -14.57,6.2 -30.92,7.1 -46.8,6.7 -150.57,-2.7 -284.04,-91.1 -426.99,-139.5" /><path
         id="path246"
         style="fill:#39393a;fill-opacity:1;fill-rule:nonzero;stroke:none"
         d="m 3496.64,4183.8 c 180.17,-9 476.98,10.2 379.24,171.1 -46.53,76.5 -205.37,96.7 -317.68,79.1 -29.42,-80.8 -50,-164.8 -61.56,-250.2" /><path
         id="path248"
         style="fill:#39393a;fill-opacity:1;fill-rule:nonzero;stroke:none"
         d="m 6014.29,4188.7 c 27.35,-127.3 196.91,-103 293.52,-109.5 60.44,-4.2 121.16,-4.6 181.59,-1.6 -17.67,78 -37.88,155.1 -56.86,230.7 -8.37,33.2 -18.89,66.3 -31.39,99 -88.64,2.6 -178.77,-3.2 -258.47,-40.8 -65.04,-30.7 -146.91,-91.5 -128.39,-177.8" /><path
         id="path250"
         style="fill:#39393a;fill-opacity:1;fill-rule:nonzero;stroke:none"
         d="m 6013.73,3820.5 c 21.33,-76 107.24,-111.1 182.99,-133.3 111.38,-32.6 224.16,-60.4 337.89,-83.1 11.37,118.5 0.09,238.1 -21.34,356.4 -148.78,-8 -303.3,21.5 -441.74,-32.3 -14.85,-5.7 -29.61,-12.6 -40.79,-24 -20.96,-21.2 -25,-54.9 -17.01,-83.7" /><path
         id="path252"
         style="fill:#39393a;fill-opacity:1;fill-rule:nonzero;stroke:none"
         d="m 6346.63,4526.4 c -8.55,16 -17.57,31.9 -26.97,47.7 -33.93,56.7 -73.03,111.5 -116.08,163.4 -111.28,-25 -254.05,-104.9 -268.24,-194.4 -29.23,-184.3 247.38,-93 411.29,-16.7" /><path
         id="path254"
         style="fill:#686a6c;fill-opacity:1;fill-rule:nonzero;stroke:none"
         d="m 1512.04,1363.5 c 67.87,-37.5 64.93,-137.1 36.61,-209.3 -28.31,-72.2 -73.48,-145 -58.97,-221.2 5.98,-31.402 21.93,-60.102 41.14,-85.602 C 1609.37,743.102 1748.96,688.5 1877.43,712 c 113.53,20.801 211.08,96.5 281.56,187.898 70.48,91.403 117.45,198.302 163.73,304.002 l -810.68,159.6" /><g
         transform="scale(1.03244)"
         id="g256"><path
           id="path258"
           style="fill:#203b51;fill-opacity:1;fill-rule:nonzero;stroke:none"
           d="m 7686.84,15639.8 c -13.81,-19.9 -27.62,-39.8 -41.43,-59.7 53.46,171.5 120.9,335.7 174.38,507.2 16.22,52 33.36,105.7 69.28,146.7 35.92,41 96.09,66 146.29,44.8 96.73,-234.9 148.87,-488 152.82,-742 l -501.34,103" /></g><path
         id="path260"
         style="fill:#203b51;fill-opacity:1;fill-rule:nonzero;stroke:none"
         d="m 7210.92,14473.1 c -238.89,26.8 -401.82,250.5 -615.9,359.8 -361.77,184.8 -816.89,9.2 -1105.75,-276.5 -161.07,-159.2 -295.29,-371.2 -275.79,-596.9 19.5,-225.7 253.74,-434.6 466.93,-358 236.01,84.8 279.07,418.4 490.21,553.7 153.98,98.7 358.45,65.7 526.93,-5.4 168.49,-71.1 323.68,-176.7 501.27,-220.4 177.59,-43.7 395.73,-4.6 487.56,153.6 l -475.46,390.1" /><g
         transform="scale(1.04245)"
         id="g262"><path
           id="path264"
           style="fill:#3d678c;fill-opacity:1;fill-rule:nonzero;stroke:none"
           d="m 7180.83,13334 c 587.47,-362.1 1340,-283.6 2012.3,-127.8 474.15,109.9 966.57,267.9 1290.07,631.5 242.1,272 363.3,634.3 404.2,996.1 40.8,361.7 7.3,727.2 -26.3,1089.7 -10.5,113.2 -14.8,229.7 -37.1,340.1 -279.8,36.4 -258.2,-177.5 -449.2,-302.8 -122.7,-80.5 -360,-104.3 -501.37,-113.2 -768.79,-48.4 -1536.03,-120.6 -2300.31,-216.5 -142.05,-17.8 -284.26,-36.5 -423.79,-68.5 -152.67,-35.1 -323.63,-83.5 -456.95,-1.2 -102.91,63.4 -151.76,188.6 -246.78,263.4 -238.85,188 -209.42,-472.4 -203.86,-574.9 10.79,-199 81,-382.6 125.06,-575.5 122.19,-534.8 325.32,-1038.3 814.03,-1340.4" /></g><g
         transform="scale(1.01636)"
         id="g266"><path
           id="path268"
           style="fill:#f9ea40;fill-opacity:1;fill-rule:nonzero;stroke:none"
           d="m 9654.06,13763.6 c -1093.65,103 -728.64,1645.8 -139.28,2116.9 455.04,363.7 1136.52,419.5 1639.22,125.1 -473.8,-130.6 -897.1,-436.8 -1169.52,-845.9 -200.79,-301.5 -483.5,-1024.8 -328.31,-1370.2 l -2.11,-25.9" /></g><path
         id="path270"
         style="fill:#3d678c;fill-opacity:1;fill-rule:nonzero;stroke:none"
         d="m 12300.3,14696.5 c 204.9,-39.5 420,-24.8 617.6,42.3 -194.7,117.2 -368.4,269.3 -510.2,446.9 -6.1,-16.3 -12.3,-32.6 -18.5,-48.9 l -88.9,-440.3" /><path
         id="path272"
         style="fill:#3d678c;fill-opacity:1;fill-rule:nonzero;stroke:none"
         d="m 10500.2,13811.8 c 2.3,-189.9 4.7,-379.8 7.1,-569.7 146.7,40.2 258,159.4 344.8,284.2 86.8,124.9 158.8,262.1 267.2,368.7 l -619.1,-83.2" /><g
         transform="scale(1.01401)"
         id="g274"><path
           id="path276"
           style="fill:#3d678c;fill-opacity:1;fill-rule:nonzero;stroke:none"
           d="m 9345.83,15034.8 c -152.31,-426.3 -82.36,-942.1 231.2,-1268.6 249.58,-259.9 625.77,-376.6 985.47,-355.2 359.7,21.5 703,170 999.8,374.4 327.5,225.6 614,534 732.5,913.7 118.6,379.6 40,834.9 -257.9,1098.4 -181.4,160.5 -421.2,236.6 -656.5,294.3 -848.5,208.2 -1729.17,-202.1 -2034.57,-1057" /></g><path
         id="path278"
         style="fill:#1d1b19;fill-opacity:1;fill-rule:nonzero;stroke:none"
         d="m 11201,15116 c -50,72.8 -66.6,174 -21.5,253.8 42.4,75.2 135.3,109.2 217.7,93.1 73.1,-14.3 104.8,93.4 31.1,112.8 -131.1,34.7 -278.9,-30.1 -336.5,-154.7 -53.2,-114.9 -19.6,-256.1 87.2,-327 13.1,-8.8 31,8.8 22,22 v 0" /><path
         id="path280"
         style="fill:#1d1b19;fill-opacity:1;fill-rule:nonzero;stroke:none"
         d="m 11162.4,15145.9 c -169.8,159.5 -439.5,12 -468.6,-196.9 -8.4,-60.6 76.1,-72.8 83.4,-11.3 8.9,75.7 58,146 127.8,177.8 77.1,35.1 157.2,17.4 231.8,-13.6 24.9,-10.4 43.7,27 25.6,44 v 0" /><path
         id="path282"
         style="fill:#1d1b19;fill-opacity:1;fill-rule:nonzero;stroke:none"
         d="m 11837.2,15000.6 c 1.4,-56.6 21.7,-101.7 47.1,-151 24.4,-47.6 104,-14.7 86.9,36.6 -13.1,39.6 -31.7,86 -56.5,119.6 -44.1,59.7 -129.9,9.9 -99.3,-58.1 17,-38 48.3,-77 76.3,-107.8 22.4,22.5 44.9,44.9 67.3,67.3 -30.9,24.9 -49.3,64.5 -60.5,101.7 -9.9,32.9 -62.2,27.8 -61.3,-8.3 v 0" /><path
         id="path284"
         style="fill:#1d1b19;fill-opacity:1;fill-rule:nonzero;stroke:none"
         d="m 11010.9,14246.7 c 0.8,-1.4 1.7,-2.8 2.5,-4.1 -0.8,6.2 -1.6,12.5 -2.4,18.7 -11.7,-38.3 25.5,-62.7 50.6,-84.4 16.9,-14.6 42.7,-21.1 62.9,-8.1 18.8,12.2 30.9,36.1 23.8,58.6 -13.1,41.6 -40.8,75.7 -79.3,96.6 -31.9,17.3 -71.5,5 -85.8,-28.9 -14.7,-34.8 5,-69.5 39.2,-81.6 8,-2.8 -1.3,-0.4 -3,1.6 1.5,-1.7 6.8,-3.4 9,-4.7 2.4,-1.3 4.6,-3 6.9,-4.2 6.3,-3.3 -9.7,8.9 -0.3,0.4 4,-3.7 8,-7.3 11.8,-11.2 1.1,-1.1 9.2,-9.1 3.8,-3.6 -5.1,5.3 2.3,-3.5 2.9,-4.4 23.7,23.7 47.3,47.3 71,70.9 -15,7 -29.9,14.3 -45.1,20.7 -8.4,3.5 -16.9,5.5 -26,6.3 -14.8,1.3 -25.1,-3.8 -36.2,-13.3 5.8,2.4 11.5,4.8 17.2,7.2 -1.5,0.2 -3,0.3 -4.5,0.5 -17,2.1 -26.8,-20 -19,-33 v 0" /><path
         id="path286"
         style="fill:#1d1b19;fill-opacity:1;fill-rule:nonzero;stroke:none"
         d="m 11155.5,15129.5 c -8.5,-1.9 -16.6,-6.7 -24.4,-10.6 -19.2,-9.6 -32.8,-34.3 -31.9,-55.6 0.8,-17 6.6,-33.2 18.9,-45.5 11.7,-11.6 29,-18.8 45.5,-18.8 21.5,0 45.6,12 55.6,31.9 3.9,7.8 8.6,15.9 10.6,24.3 5,21.2 0.1,43.1 -15.6,58.8 -15.6,15.7 -37.5,20.5 -58.7,15.5 v 0" /><path
         id="path288"
         style="fill:#b3bcbf;fill-opacity:1;fill-rule:nonzero;stroke:none"
         d="m 11599.5,15262.8 c 43.3,16.8 79.4,49.6 117.4,75.9 37.3,25.9 75.1,51.2 113.3,75.9 82,53 166.8,101.4 247.5,156.4 36.6,24.9 4.8,80.9 -34.9,59.8 -89.5,-47.6 -171.2,-107.4 -251.9,-168.4 -35.7,-27 -71,-54.4 -105.9,-82.5 -35.8,-28.8 -77,-55.9 -103.1,-94.2 -7.3,-10.8 5,-27.8 17.6,-22.9 v 0" /><path
         id="path290"
         style="fill:#b3bcbf;fill-opacity:1;fill-rule:nonzero;stroke:none"
         d="m 11724.1,15194 c 70.2,-7.2 147.9,16 215.1,34.5 73.8,20.4 145.8,46 216.4,75.6 68,28.7 26.2,128.4 -39.5,93.6 -67.3,-35.6 -136.2,-67.2 -207.7,-93.5 -63.9,-23.5 -135.3,-37.9 -195.1,-70.2 -20.4,-11 -8.8,-38 10.8,-40 v 0" /><path
         id="path292"
         style="fill:#b3bcbf;fill-opacity:1;fill-rule:nonzero;stroke:none"
         d="m 10943.9,14743.8 c -72.4,-24.1 -138,-70.9 -203.2,-109.7 -69.4,-41.3 -141.5,-81.6 -206,-130.2 -52.1,-39.4 -7.4,-124.3 52.7,-90.1 70.4,39.9 136,90.3 201.6,137.7 61.4,44.4 132.5,86.6 183.3,143.4 18.3,20.4 1,58.7 -28.4,48.9 v 0" /><path
         id="path294"
         style="fill:#b3bcbf;fill-opacity:1;fill-rule:nonzero;stroke:none"
         d="m 10996.3,14606.9 c -60.5,-51.6 -108.5,-121.3 -165.4,-177.5 -57.9,-57.2 -117.9,-111.6 -181.7,-162.2 -50.2,-39.7 21.4,-112.9 71,-71.1 64.3,54.2 126.3,111.7 182,174.8 51.3,58.2 114.7,124.6 145.5,196.4 14.4,33.6 -21.8,64.8 -51.4,39.6 v 0" /><g
         transform="scale(1.02179)"
         id="g296"><path
           id="path298"
           style="fill:#f25b43;fill-opacity:1;fill-rule:nonzero;stroke:none"
           d="m 9885.93,16044.4 c -13.89,220.4 -393.45,122.4 -419.98,-50.2 -15.25,-99.2 55.27,-195.5 141.13,-238.6 93.22,-46.9 208,-43.3 302.83,-3.6 95.79,40.1 182.09,119.6 206.99,223.5 30.5,127.6 -51.8,237.8 -182.92,244.6 -116.65,6.1 -239.44,-56.4 -320.69,-136.5 -88.33,-87.1 -142.44,-226.2 -40.87,-327.1 94.95,-94.4 239.52,-74.9 339.25,0.1 95.63,72 152.53,190.6 130.63,310.6 -20.6,112.6 -116.93,208.6 -232.7,217.6 -121.47,9.5 -240.06,-86.2 -250.8,-208.5 -10.51,-119.8 92.24,-232 213.04,-233.7 123.1,-1.6 221.94,105.6 220.28,226.9 -1.47,110.8 -93.95,192.8 -197.4,211.4 -106.9,19.1 -221.64,-16.3 -292.83,-100.3 -96.6,-113.9 -73.77,-283.7 68.74,-347 127.4,-56.6 270.09,15 325.87,137.3 58.33,127.9 -17.52,303.9 -179.09,265.4 -133.89,-31.9 -229.04,-180.6 -223.02,-312.8 2.13,-47 34.45,-87.6 82.34,-93.3 42.03,-5 97.25,20.7 104.2,68 6.07,41.4 17.69,83.1 46.78,114.4 6.53,7.1 41.95,26.6 43.05,30.2 -16.56,6.9 -33.11,13.8 -49.66,20.7 -1.54,1.6 -2.37,3.4 -2.49,5.6 18.61,11.3 -6,-18.9 -0.49,-10 -12.23,-19.8 -28.31,-49.2 -56.32,-47.5 -15.83,0.9 -18.4,7.4 -26.05,18.5 11.38,-16.6 -5.17,-9.5 4.55,4.5 3.92,5.6 6.95,11.7 11.36,16.9 22.42,26.6 55.47,37.2 85.58,37.6 13.6,0.2 30.6,-0.7 46.34,-9 2.41,-1.2 11.33,-14 10.75,-10.7 8.51,-49.1 -63,-27.4 -32.95,7.5 48.51,56.2 98.91,-39.6 90.98,-81.9 -6.75,-36.5 -32.19,-68.8 -61.85,-89.9 -19.37,-13.8 -73.43,-42.1 -88.11,-7.9 3.49,-8.1 1.2,-1 8.55,12.8 3.42,6.5 7.98,12.9 12.4,18.7 14.07,18.5 32.24,36.1 50.61,50.4 40.13,31.4 93.08,55.3 144.17,60.5 7.05,0.7 18.99,1.7 26.62,-0.5 5.09,-1.5 12.63,-10.5 4.5,1.2 8.13,-11.7 0.4,-35.8 -3.72,-46.4 -16.24,-42.2 -54.41,-73.6 -93.46,-94.2 -82.28,-43.5 -208.64,-42.7 -255.46,52.1 -27.84,56.3 31.28,88.5 74.95,111.3 61.84,32.4 145.38,49.6 182.27,-27.4 7.34,-15.2 33.08,-8 32.1,8.7 v 0" /></g><g
         transform="scale(1.01595)"
         id="g300"><path
           id="path302"
           style="fill:#1d1b19;fill-opacity:1;fill-rule:nonzero;stroke:none"
           d="m 9756.54,16246.4 c 33.28,-59.1 72.92,-114.6 110.49,-171.1 32.28,-48.6 102.56,3.8 64.07,49.4 -43.7,51.8 -85.83,105.3 -133.11,153.7 -21.13,21.6 -56.11,-6 -41.45,-32 v 0" /></g><g
         transform="scale(1.01299)"
         id="g304"><path
           id="path306"
           style="fill:#1d1b19;fill-opacity:1;fill-rule:nonzero;stroke:none"
           d="m 9972.65,16299 c -73.14,-8.6 -142.63,-63.3 -205.25,-99.5 -46.15,-26.6 0.34,-100.7 40.81,-69.8 31.84,24.3 63.75,48.5 95.14,73.4 30.21,24.1 59.73,44.9 78.78,79.2 3.75,6.6 -0.79,17.7 -9.48,16.7 v 0" /></g><g
         transform="scale(1.01221)"
         id="g308"><path
           id="path310"
           style="fill:#767779;fill-opacity:1;fill-rule:nonzero;stroke:none"
           d="m 4458.17,15597.2 c 58.74,145.7 132.41,285.2 219.51,415.9 66.46,99.7 146.14,198.4 257.5,242.7 111.35,44.2 260.54,13.1 312.36,-94.9 16.75,-35 21.66,-77.8 3.65,-112.1 -30.23,-57.6 -105.94,-67.9 -166.54,-91.5 -136.54,-53.3 -217.16,-195.6 -259.7,-335.9 -42.54,-140.2 -58.61,-289.2 -120.58,-422.1 -61.98,-132.8 -188.34,-251.5 -334.69,-243.5 l 88.49,641.4" /></g><g
         transform="scale(1.07577)"
         id="g312"><path
           id="path314"
           style="fill:#767779;fill-opacity:1;fill-rule:nonzero;stroke:none"
           d="m 909.548,12965.8 c -242.073,281.3 -422.9,672.1 -290.033,1018.6 53.712,140 154.163,258.8 204.415,400.2 50.255,141.3 28.936,330 -104.947,397.7 74.136,45.1 164.49,63 250.225,49.4 -29.049,190.2 -201.448,348.4 -393.372,361.2 78.981,72.7 63.229,210.1 -7.934,290.4 -71.163,80.4 -180.079,115.4 -285.367,136.3 -23.272,4.7 -49.663,10.9 -61.112,31.6 -8.061,14.7 -6.198,32.6 -3.479,49.1 17.016,103 59.344,202 123.099,284.7 224.873,291.9 670.597,315 974.217,141.7 399.9,-228.2 482.37,-697.1 418,-1119.2 -34.18,-224.2 -106.43,-444.1 -205.03,-648 -107.75,-222.8 -262.16,-367.9 -263.52,-632.9 -0.99,-191.8 103,-572.6 -8.13,-740.2 -82.81,-124.8 -255.07,-127.4 -347.032,-20.6" /></g><g
         transform="scale(1.07896)"
         id="g316"><path
           id="path318"
           style="fill:#abaaa9;fill-opacity:1;fill-rule:nonzero;stroke:none"
           d="m 3123.12,15958.1 c -101.21,158.5 -257.42,281.3 -435.45,342.1 -42.62,-116.5 -64.64,-240.6 -64.71,-364.6 -0.06,-96.9 16.87,-201.6 85.79,-269.7 l 414.37,292.2" /></g><g
         transform="scale(1.06585)"
         id="g320"><path
           id="path322"
           style="fill:#abaaa9;fill-opacity:1;fill-rule:nonzero;stroke:none"
           d="m 3017.06,16179.4 c -43.18,-5.4 -87.12,-11.3 -126.6,-29.6 -36.8,-17 -67.88,-44.1 -98.06,-71.2 -206.69,-185.7 -396.88,-389.7 -567.64,-608.9 -491.02,-630.2 -812.71,-1372.7 -1129.2,-2106.3 -54.42,-126.2 -109.608,-267.6 -63.27,-396.9 45.4,-126.8 174.67,-201.5 298.67,-253.9 523.25,-221.3 1107.51,-234.5 1675.53,-244.4 273.95,-4.8 551.36,-9.3 817.84,54.5 113.4,27.1 226.17,67.7 317.16,140.6 253.47,203.1 264.45,578.7 245.88,903 -40.83,712.9 -101.92,1431.8 -198.44,2139.5 -81.04,594.2 -687.05,534.4 -1171.87,473.6" /></g><g
         transform="scale(1.04161)"
         id="g324"><path
           id="path326"
           style="fill:#1d1b19;fill-opacity:1;fill-rule:nonzero;stroke:none"
           d="m 4104.34,16275.3 c 57.94,-67.2 108.26,-160 81.6,-250.8 -19.22,-65.5 -110.03,-109.3 -167.49,-68.6 -37.05,26.3 -69.45,-33.3 -34.97,-59.8 84.45,-65 196.77,-9.8 243.65,73.4 65.01,115.5 -23.84,245.3 -107.52,321.1 -10.39,9.4 -24.33,-4.8 -15.27,-15.3 v 0" /></g><g
         transform="scale(1.05195)"
         id="g328"><path
           id="path330"
           style="fill:#1d1b19;fill-opacity:1;fill-rule:nonzero;stroke:none"
           d="m 4098.42,16193.5 c -56.14,32.3 -125.75,-0.6 -148.98,-57.1 -7.27,-17.7 7.91,-33.7 22.57,-39.8 47.45,-19.5 103.39,-9.4 141.85,23.2 36.24,30.8 37.48,87.5 18.16,127 -10.57,21.7 -31.23,35.1 -53.11,43 -28.25,10.2 -56.32,-4.3 -77.85,-21.1 -44.94,-35.2 -40.43,-107.3 7.04,-136.4 23.63,-14.5 55.75,-5.3 69.51,18.2 15.02,25.7 4.15,53.3 -18.23,69.5 8.54,-5.3 12.88,-13.1 13.02,-23.3 -1.22,9.1 -1.04,-0.9 -2.59,-4.5 3.1,4.9 3.02,5.4 -0.23,1.3 5.72,7.2 0.37,1.4 -3.65,-0.2 8.3,2.1 5.51,2.6 -8.38,1.3 -6.55,1 4.23,-4.2 -0.53,0.3 -6.52,6.2 0.28,-6.1 0.14,-4.3 0.33,-4.3 -0.43,-9.2 -2.19,-12.7 -3.3,-6.5 -10.2,-9.5 -16.39,-13 -17.17,-9.7 -39.46,-5.8 -57.98,-4.8 10.78,-10.8 21.54,-21.5 32.31,-32.3 1.94,37.3 44.51,54.2 75.9,42.9 13.55,-4.9 21.63,15.9 9.61,22.8 v 0" /></g><g
         transform="scale(1.04921)"
         id="g332"><path
           id="path334"
           style="fill:#1d1b19;fill-opacity:1;fill-rule:nonzero;stroke:none"
           d="m 3479.21,16025.1 c 11.3,115.9 134.64,206.9 248.2,174.9 40.01,-11.3 57.2,51.6 17.1,62 -145.62,38 -304.89,-82.5 -289.43,-236.9 1.56,-15.5 22.61,-15.5 24.13,0 v 0" /></g><path
         id="path336"
         style="fill:#767779;fill-opacity:1;fill-rule:nonzero;stroke:none"
         d="m 3922.83,13243.2 c 8.36,-72.3 42.35,-166.4 114.59,-158 43.93,5.1 71.67,48.7 90.66,88.7 105.91,222.7 141,471.4 174.8,715.7 8.9,64.4 17.7,130.8 0.84,193.6 -27.87,103.7 -131.33,181.9 -238.75,180.5 -412.38,-5.7 -168.86,-789.6 -142.14,-1020.5" /><path
         id="path338"
         style="fill:#767779;fill-opacity:1;fill-rule:nonzero;stroke:none"
         d="m 2155.69,13252.1 c -310.88,-23.7 -611.81,116.5 -870.42,290.6 -22.68,15.3 -45.73,31.4 -60.85,54.2 -49.16,74 7.87,173.9 77.07,229.7 222.12,178.9 433.48,8.8 651.24,-108.5 140.34,-75.6 614.83,-434.6 202.96,-466" /><g
         transform="scale(1.05075)"
         id="g340"><path
           id="path342"
           style="fill:#f9b3bf;fill-opacity:1;fill-rule:nonzero;stroke:none"
           d="m 13750.7,15837.4 c -5.4,75.5 -62.1,150.1 -101.9,211.8 -45.4,70.5 -94,145.1 -149.9,207.7 -38.5,43.1 -119.5,21.8 -131.6,-34.7 -32.7,-152.6 -14.4,-300.2 47.4,-442.7 19.4,-44.7 77.3,-47.4 114.7,-30.1 72.5,33.5 118.4,113.9 111.9,193.2 -55.6,-7.6 -111.2,-15.1 -166.8,-22.6 6.2,-44.9 32.4,-75.3 67.8,-101 79.9,-58 160.5,63.7 100.6,130.3 -4.5,5 -3.4,7.7 -4.6,15.9 -14.5,94.4 -176,72.3 -166.8,-22.6 2.5,-25.8 -2.8,-36.9 -26.7,-48.4 38.2,-10 76.5,-20 114.7,-30 -43.8,97.3 -57.4,210.8 -40.3,316.1 -43.9,-11.6 -87.8,-23.1 -131.7,-34.7 55.8,-56.5 115.4,-108.4 169.1,-167.6 47.5,-52.6 92.1,-127.8 154.5,-163.3 16.4,-9.3 41.1,2.2 39.6,22.7 v 0" /></g><g
         transform="scale(1.06358)"
         id="g344"><path
           id="path346"
           style="fill:#f9b3bf;fill-opacity:1;fill-rule:nonzero;stroke:none"
           d="m 14611.4,15743.4 c -29.9,74.7 -68,146.6 -105.5,217.6 -19.9,37.5 -38,75.5 -56.3,113.7 -10.4,21.8 -21,43.5 -31.7,65.2 -8.2,16.9 -29.9,45.5 -30.2,64.5 -1.7,77.7 -96.3,95.6 -137.9,37.4 -75.3,-105.7 -108.2,-242 -123.6,-368.8 -4.8,-39.3 29.8,-68.7 61.8,-81.2 67.5,-26.3 124.4,25.5 149.9,83.3 -11.8,-26.7 17.6,40.7 13,30.4 7.3,16.6 5.7,7.1 -2,6.3 4.6,0.5 -5.2,9.8 -3.6,5.8 3.5,-9.2 0.1,-13.7 -3.4,-23.4 -33.2,-91.1 117.6,-155.1 157.1,-66.2 44.4,99.6 4.9,233 -115.4,252.7 -57.2,9.4 -104.4,-8.1 -148.8,-43.6 -17,-13.6 -27.8,-35.4 -36.1,-54.9 -3.8,-8.6 -8.9,-21.5 -12.9,-30.9 -1.5,-3.2 -3.1,-6.4 -4.6,-9.6 -15.7,-24.8 1.4,-20.6 51.5,12.4 20.6,-27 41.2,-54.1 61.8,-81.1 8.9,111.7 48.5,209.3 90.5,311.8 -36.2,-14.7 -72.4,-29.5 -108.7,-44.2 32.8,-16.3 59.4,-70.3 80.8,-99.1 25.2,-34 50.8,-67.8 73.5,-103.5 45.3,-71 87.5,-144.6 135.7,-213.6 15,-21.4 56.2,-8.6 45.1,19 v 0" /></g><path
         id="path348"
         style="fill:#f9b3bf;fill-opacity:1;fill-rule:nonzero;stroke:none"
         d="m 13961.9,15085.1 c -135,-0.1 -440,24.9 -555.9,-34 -434.4,-221.1 534.5,-524.9 706.8,-576.3 l -150.9,610.3" /><g
         transform="scale(1.14343)"
         id="g350"><path
           id="path352"
           style="fill:#f9b3bf;fill-opacity:1;fill-rule:nonzero;stroke:none"
           d="m 14768.3,13406.1 c 97.7,-126 245.6,-210.4 402.2,-237.3 106.8,-18.4 328.3,-44.3 422.2,10.7 72.5,42.4 111.8,128.6 114.1,212.6 2.3,83.9 -27.6,165.8 -67.2,239.8 -35.8,66.9 -80,130.1 -102.2,202.6 -28.4,92.3 -17.5,195.9 29.4,280.4 38.3,69.1 101.8,125.9 177.9,147 121.8,33.7 253,-28.6 339.9,-120.3 215.4,-227.3 202.9,-593.7 87.7,-884.9 -81.8,-206.8 -214.5,-402.1 -408.5,-510.9 -397.3,-222.9 -752.6,98.1 -1057.3,330.3 l 61.8,330" /></g><g
         transform="scale(1.08961)"
         id="g354"><path
           id="path356"
           style="fill:#fcdae1;fill-opacity:1;fill-rule:nonzero;stroke:none"
           d="m 13337.9,15463.8 c -56.8,-20.6 -113,-44.3 -168.5,-71.2 -508.3,-246.8 -532.3,-922 -488.8,-1417.6 33.1,-376.3 39.6,-768.4 304.2,-1069.6 257.4,-293.2 655,-355.1 1021.5,-400.8 255.5,-31.8 510.9,-63.7 766.3,-95.6 195.4,-24.3 392.9,-48.7 588.2,-23.1 195.2,25.6 391,106.1 527.1,263.6 412.1,476.9 307.4,976.7 58.2,1516.2 -460.9,997.8 -1492.5,1701.9 -2608.2,1298.1" /></g><path
         id="path358"
         style="fill:#1d1b19;fill-opacity:1;fill-rule:nonzero;stroke:none"
         d="m 15210,16033.1 c -34.4,-92.2 -121.5,-158.9 -221.4,-153.9 -44.9,2.3 -88.3,29.6 -119.7,59.7 -35.3,33.9 -46,80.6 -69.7,121.5 -14.9,25.7 -58.4,22.2 -65.1,-8.5 -29.4,-133.2 124.8,-239.5 240.5,-247.7 128.6,-9.2 247,100.8 253.9,226.4 0.6,11.2 -15,11.8 -18.5,2.5 v 0" /><path
         id="path360"
         style="fill:#1d1b19;fill-opacity:1;fill-rule:nonzero;stroke:none"
         d="m 14425.4,15885.5 c -12.1,-42.1 3.6,-76.1 39.2,-100.6 52.1,-35.9 124.8,-12.9 176.5,9.6 100,43.4 188.5,161.7 156.6,273.5 -17.6,61.6 -111.2,35.8 -95.9,-26.4 16,-64.7 -11.8,-110.8 -59.9,-152.9 -46.4,-40.6 -170.9,-88.3 -200.2,-3.2 -2.7,7.8 -13.9,8.4 -16.3,0 v 0" /><path
         id="path362"
         style="fill:#1d1b19;fill-opacity:1;fill-rule:nonzero;stroke:none"
         d="m 14762.1,16119.8 c 0.3,1.3 1,2.4 2,3.4 -3.7,-2.8 -7.3,-5.7 -11,-8.5 6.7,1.5 9.7,5.3 13.9,10.2 -0.6,-0.1 -1.2,-0.3 -1.7,-0.5 -9,-2.8 13.8,1.7 9.2,1.1 -2.2,-0.8 -4.3,-0.8 -6.5,0.1 -1.9,0.3 -10.1,8 -4.6,2.5 -1,1.3 -2.1,2.6 -3.1,3.9 2.2,-4.2 1.8,-3.3 -1.1,2.5 1.2,-3.5 1.7,-11.9 0.7,0.7 -0.2,-5.2 0.2,-4 1,3.7 -1.6,-10 5.6,9.5 0.6,0.8 1.4,1.8 2.8,3.6 4.2,5.5 -4.1,-3.7 -3.2,-3.1 2.8,1.8 -9,-6.3 11.1,3.2 0.4,0.4 8.7,0.9 10.2,1.2 4.3,1 13.3,0.2 7,-1.4 1.4,0.3 2.3,-1 4.7,-1.9 7.1,-2.9 -5,3.1 -3.9,2.1 3.3,-3 1.3,-1.9 2.7,-3.8 4.1,-5.7 -11.3,-78 -43.1,-87.1 -95.7,-27.4 8.1,-34.1 46.3,-53.9 79,-44.8 37.9,10.4 62.2,59.7 38.4,94.3 -14.7,21.4 -33.7,34.4 -60,35.4 -19.3,0.8 -39.1,-7.3 -52.9,-20.6 -14.8,-14.1 -21.1,-32.1 -21.7,-52.1 -0.7,-21.1 10.9,-38.3 23.3,-53.9 15.9,-19.9 49.3,-29.9 73.7,-26.9 29.1,3.5 60.4,16.9 72.9,45.7 21.6,49.7 -4.4,108.5 -61.8,112.7 -25.6,1.8 -47,-16.5 -54.7,-39.4 -3,-8.8 -3.6,-18.3 -2.2,-27.4 1.6,-10.8 9,-15.5 16.2,-20.5 6.9,-4.9 16.2,0.3 18.5,7.6 v 0" /><path
         id="path364"
         style="fill:#1d1b19;fill-opacity:1;fill-rule:nonzero;stroke:none"
         d="m 14906.3,15849.4 c -13.5,-48.5 -22.5,-182.8 -99,-167.9 -68.9,13.3 -97.1,116.1 -115.8,170.3 -8.8,25.4 -51.1,30.9 -57,0 -19,-98.8 61.2,-256.4 175.1,-258.4 59.4,-1.1 104.5,34 130.1,86 28.9,58.7 12.8,118.5 -15.4,172.3 -4.1,7.7 -15.8,5.6 -18,-2.3 v 0" /><g
         transform="scale(1.00811)"
         id="g366"><path
           id="path368"
           style="fill:#1d1b19;fill-opacity:1;fill-rule:nonzero;stroke:none"
           d="m 14323.7,16232.5 c -13.4,20.8 -20.2,37.2 -42.6,50.2 -26.7,15.5 -59.6,17.3 -89.5,13.3 -60.4,-8 -121,-54.2 -131.2,-116.5 -7.2,-44 52.3,-61.6 67.3,-18.5 12.4,35.8 38.1,53.5 73.7,63.4 28.1,7.8 78.3,5.8 101.9,-12.3 12,-9.3 28,8.4 20.4,20.4 v 0" /></g><g
         transform="scale(1.01598)"
         id="g370"><path
           id="path372"
           style="fill:#1d1b19;fill-opacity:1;fill-rule:nonzero;stroke:none"
           d="m 14709.5,16159 c 14.7,62.9 110.9,95.3 159.7,51.6 29.1,-26 71.4,15.5 43.1,43.1 -40.5,39.4 -95.5,46.3 -147.9,28.7 -55,-18.5 -85.5,-62.3 -90.2,-118.6 -1.8,-20.4 30.7,-24.3 35.3,-4.8 v 0" /></g><path
         id="path374"
         style="fill:#f9b3bf;fill-opacity:1;fill-rule:nonzero;stroke:none"
         d="m 15559.9,13492.7 c -19.2,-62.7 -45.4,-133.3 -106.7,-156.7 -119.1,167.1 -276.7,430.9 -279,643.6 -1.4,131.4 96.7,317 279.9,307.9 32.1,-1.6 61.9,-16.9 89,-34.2 319.6,-203.6 103.1,-478.3 16.8,-760.6" /><path
         id="path376"
         style="fill:#f9b3bf;fill-opacity:1;fill-rule:nonzero;stroke:none"
         d="m 14273.4,15932.9 c -25.8,15.4 -46.8,3.9 -73.7,0.9 -29.3,-3.4 -57.5,-1.7 -86.5,-3.4 -41,-2.4 -75.5,-32.5 -75.5,-75.5 0,-40.2 34.4,-76.6 75.5,-75.4 42.8,1.2 91.1,18.8 125.9,43.7 16.3,11.7 37.8,26.1 48.2,43.8 12.5,21.4 8.3,52.7 -13.9,65.9 v 0" /><g
         transform="scale(1.00066)"
         id="g378"><path
           id="path380"
           style="fill:#f9b3bf;fill-opacity:1;fill-rule:nonzero;stroke:none"
           d="m 15353.9,16118.3 c 61.5,-13.3 128,0.2 181.1,33.6 71.8,45.1 -5.2,148.1 -71.5,92.7 -33.3,-27.8 -69.3,-46.7 -109.6,-62.1 -28.1,-10.9 -35.1,-56.6 0,-64.2 v 0" /></g><g
         transform="scale(1.07399)"
         id="g382"><path
           id="path384"
           style="fill:#f9b3bf;fill-opacity:1;fill-rule:nonzero;stroke:none"
           d="m 15272,12623.1 c -28.8,-98.4 62.5,-174.3 372.4,-169.6 126.5,1.9 249.8,44.5 360.4,105.9 84.1,46.7 168.1,113.5 186.7,207.9 108.5,549.8 -842.2,121.2 -919.5,-144.2" /></g><g
         transform="scale(1.03066)"
         id="g386"><path
           id="path388"
           style="fill:#3d678c;fill-opacity:1;fill-rule:nonzero;stroke:none"
           d="m 8509.39,15812.7 c 198.48,109.5 172.98,313.8 275.6,482.2 153.41,5.1 292.92,-253.4 325.96,-385.2 l -601.56,-97" /></g></g></g></svg>