<?xml version="1.0" encoding="UTF-8" standalone="no"?><!-- Generator: Gravit.io --><svg xmlns="http://www.w3.org/2000/svg" xmlns:xlink="http://www.w3.org/1999/xlink" style="isolation:isolate" viewBox="0 0 600 600" width="600pt" height="600pt"><defs><clipPath id="_clipPath_V2QUQcgpeAyPe8y28bkjgIUnc9jJWSmS"><rect width="600" height="600"/></clipPath></defs><g clip-path="url(#_clipPath_V2QUQcgpeAyPe8y28bkjgIUnc9jJWSmS)"><clipPath id="_clipPath_BD2edxceP0Hmf2BZAM220JsT8DVUShzr"><rect x="0" y="0" width="600" height="600" transform="matrix(1,0,0,1,0,0)" fill="rgb(255,255,255)"/></clipPath><g clip-path="url(#_clipPath_BD2edxceP0Hmf2BZAM220JsT8DVUShzr)"><g><clipPath id="_clipPath_x8lsADnjosVPb5aiCAYeZqeHeoaJKxXn"><rect x="0" y="0" width="600" height="600" transform="matrix(1,0,0,1,0,0)" fill="rgb(255,255,255)"/></clipPath><g clip-path="url(#_clipPath_x8lsADnjosVPb5aiCAYeZqeHeoaJKxXn)"><g><g><clipPath id="_clipPath_EUiVCXi2Wj1sB0ntZziebqXZQIj0I8nB"><rect x="0" y="0" width="600" height="600" transform="matrix(1,0,0,1,0,0)" fill="rgb(255,255,255)"/></clipPath><g clip-path="url(#_clipPath_EUiVCXi2Wj1sB0ntZziebqXZQIj0I8nB)"><g><g><g><rect x="0" y="0" width="600" height="600" transform="matrix(1,0,0,1,0,0)" fill="rgb(250,250,250)"/></g></g></g></g></g></g></g></g></g><linearGradient id="_lgradient_6" x1="0.2722788303555076" y1="0.552671558318337" x2="0.8661072280631182" y2="0.2632294916580805" gradientTransform="matrix(-233.15,-656.657,777.787,-276.157,378.302,985.331)" gradientUnits="userSpaceOnUse"><stop offset="0%" stop-opacity="1" style="stop-color:rgb(198,152,239)"/><stop offset="98.26086956521739%" stop-opacity="1" style="stop-color:rgb(255,207,255)"/></linearGradient><path d=" M 909.72 273.12 L 900.303 430.272 L 890.887 587.424 C 883.591 709.179 790.113 761.764 682.27 704.778 L 531.577 625.151 L 380.885 545.524 C 273.042 488.538 273.038 396.001 380.876 339.007 L 554.213 247.395 L 727.55 155.783 C 835.388 98.788 917.016 151.366 909.72 273.12 Z " fill="url(#_lgradient_6)"/><linearGradient id="_lgradient_7" x1="0.6423975333500072" y1="0.3669533693866216" x2="0.7763215296360164" y2="0.18259739928962912" gradientTransform="matrix(695.497,96.637,-92.486,665.621,211.318,101.932)" gradientUnits="userSpaceOnUse"><stop offset="0%" stop-opacity="1" style="stop-color:rgb(202,155,240)"/><stop offset="96.95652173913044%" stop-opacity="1" style="stop-color:rgb(206,107,188)"/></linearGradient><path d=" M 635.684 773.867 L 483.134 696.737 L 330.585 619.608 C 231.988 569.757 230.617 486.206 327.525 433.147 L 469.218 355.568 L 610.91 277.988 C 707.819 224.929 790.152 271.475 794.655 381.867 L 800.413 523.021 L 806.171 664.175 C 810.674 774.567 734.281 823.718 635.684 773.867 Z " fill="url(#_lgradient_7)"/><linearGradient id="_lgradient_8" x1="0.21705022639742388" y1="0.5731574470907321" x2="0.8435913503718726" y2="0.3738935861993743" gradientTransform="matrix(-183.091,-472.108,580.702,-225.205,250.271,1027.775)" gradientUnits="userSpaceOnUse"><stop offset="1.3043478260869565%" stop-opacity="1" style="stop-color:rgb(146,84,200)"/><stop offset="100%" stop-opacity="1" style="stop-color:rgb(247,75,141)"/></linearGradient><path d=" M 640.552 493.954 L 635.492 606.824 L 630.432 719.694 C 626.386 809.927 556.708 852.05 474.929 813.7 L 360.978 760.263 L 247.027 706.826 C 165.249 668.476 162.866 601.561 241.71 557.492 L 373.368 483.901 L 505.027 410.311 C 583.871 366.241 644.598 403.72 640.552 493.954 Z " fill="url(#_lgradient_8)"/><linearGradient id="_lgradient_9" x1="0.5638096728218438" y1="0.7184777023844473" x2="0.7672695008605742" y2="0.25442142876821855" gradientTransform="matrix(128.271,0,0,138.943,476.264,326.183)" gradientUnits="userSpaceOnUse"><stop offset="1.3043478260869565%" stop-opacity="1" style="stop-color:rgb(203,152,237)"/><stop offset="100%" stop-opacity="1" style="stop-color:rgb(253,205,255)"/></linearGradient><path d=" M 532.457 423.511 L 532.457 423.511 L 532.457 423.511 C 501.443 400.544 505.002 369.414 540.4 354.04 L 540.4 354.04 L 540.4 354.04 C 575.797 338.665 600.976 357.312 596.593 395.654 L 596.593 395.654 L 596.593 395.654 C 592.209 433.996 563.471 446.479 532.457 423.511 Z " fill="url(#_lgradient_9)"/><linearGradient id="_lgradient_10" x1="0.35972852469229727" y1="0.5287938322226169" x2="0.9308747450634327" y2="0.36515611029154493" gradientTransform="matrix(77.949,0,0,84.434,335.015,369.168)" gradientUnits="userSpaceOnUse"><stop offset="1.3043478260869565%" stop-opacity="1" style="stop-color:rgb(203,152,237)"/><stop offset="100%" stop-opacity="1" style="stop-color:rgb(253,205,255)"/></linearGradient><path d=" M 369.163 428.314 L 369.163 428.314 L 369.163 428.314 C 350.316 414.357 352.479 395.44 373.99 386.097 L 373.99 386.097 L 373.99 386.097 C 395.5 376.754 410.801 388.085 408.137 411.385 L 408.137 411.385 L 408.137 411.385 C 405.473 434.686 388.009 442.271 369.163 428.314 Z " fill="url(#_lgradient_10)"/><linearGradient id="_lgradient_11" x1="0.49681615679244084" y1="0.3678523927076295" x2="0.8165345490605123" y2="0.7193926653579998" gradientTransform="matrix(-74.376,7.577,-8.207,-80.564,360.938,557.636)" gradientUnits="userSpaceOnUse"><stop offset="1.3043478260869565%" stop-opacity="1" style="stop-color:rgb(203,152,237)"/><stop offset="100%" stop-opacity="1" style="stop-color:rgb(253,205,255)"/></linearGradient><path d=" M 322.606 504.52 L 322.606 504.52 L 322.606 504.52 C 341.945 516.006 341.721 534.266 322.104 545.272 L 322.104 545.272 L 322.104 545.272 C 302.487 556.278 286.786 546.953 287.063 524.462 L 287.063 524.462 L 287.063 524.462 C 287.34 501.97 303.266 493.035 322.606 504.52 Z " fill="url(#_lgradient_11)"/></g></svg>