<?xml version="1.0" encoding="UTF-8" standalone="no"?><!-- Generator: Gravit.io --><svg xmlns="http://www.w3.org/2000/svg" xmlns:xlink="http://www.w3.org/1999/xlink" style="isolation:isolate" viewBox="0 0 600 600" width="600pt" height="600pt"><defs><clipPath id="_clipPath_A9dDOVJ273XqUMz7mmrFKIxJjhYTfz8A"><rect width="600" height="600"/></clipPath></defs><g clip-path="url(#_clipPath_A9dDOVJ273XqUMz7mmrFKIxJjhYTfz8A)"><clipPath id="_clipPath_ltCUDTr5i1r9pZ3UEweVyFqH5YNcN6IJ"><rect x="0" y="0" width="600" height="600" transform="matrix(1,0,0,1,0,0)" fill="rgb(255,255,255)"/></clipPath><g clip-path="url(#_clipPath_ltCUDTr5i1r9pZ3UEweVyFqH5YNcN6IJ)"><g><clipPath id="_clipPath_XklAwwEfJGkmKj6m3xjmqyhUB79mhBnA"><rect x="0" y="0" width="600" height="600" transform="matrix(1,0,0,1,0,0)" fill="rgb(255,255,255)"/></clipPath><g clip-path="url(#_clipPath_XklAwwEfJGkmKj6m3xjmqyhUB79mhBnA)"><g><g><clipPath id="_clipPath_xN18eO1K4sTJm5a28oPtEKrqiJMSZjvX"><rect x="0" y="0" width="600" height="600" transform="matrix(1,0,0,1,0,0)" fill="rgb(255,255,255)"/></clipPath><g clip-path="url(#_clipPath_xN18eO1K4sTJm5a28oPtEKrqiJMSZjvX)"><g><g><g><rect x="0" y="0" width="600" height="600" transform="matrix(1,0,0,1,0,0)" fill="rgb(250,250,250)"/></g></g></g></g></g></g></g></g></g><linearGradient id="_lgradient_15" x1="0.2722788303555076" y1="0.552671558318337" x2="0.8661072280631182" y2="0.2632294916580805" gradientTransform="matrix(-233.15,-656.657,777.787,-276.157,344.969,979.27)" gradientUnits="userSpaceOnUse"><stop offset="0%" stop-opacity="1" style="stop-color:rgb(198,152,239)"/><stop offset="98.26086956521739%" stop-opacity="1" style="stop-color:rgb(255,207,255)"/></linearGradient><path d=" M 876.387 267.06 L 866.97 424.212 L 857.553 581.364 C 850.258 703.118 756.779 755.703 648.936 698.718 L 498.244 619.09 L 347.552 539.463 C 239.708 482.478 239.705 389.941 347.543 332.946 L 520.88 241.334 L 694.217 149.722 C 802.055 92.728 883.683 145.305 876.387 267.06 Z " fill="url(#_lgradient_15)"/><linearGradient id="_lgradient_16" x1="0.6423975333500072" y1="0.3669533693866216" x2="0.7763215296360164" y2="0.18259739928962912" gradientTransform="matrix(734.717,102.086,-92.486,665.621,162.833,97.387)" gradientUnits="userSpaceOnUse"><stop offset="0%" stop-opacity="1" style="stop-color:rgb(202,155,240)"/><stop offset="96.95652173913044%" stop-opacity="1" style="stop-color:rgb(206,107,188)"/></linearGradient><path d=" M 619.947 775.293 L 454.259 694.917 L 288.571 614.54 C 186.402 564.977 185.445 482.584 286.435 430.661 L 436.95 353.276 L 587.465 275.89 C 688.455 223.967 775.111 273.887 780.857 387.298 L 787.755 523.454 L 794.653 659.61 C 800.399 773.02 722.116 824.856 619.947 775.293 Z " fill="url(#_lgradient_16)"/><linearGradient id="_lgradient_17" x1="0.21705022639742388" y1="0.5731574470907321" x2="0.8435913503718726" y2="0.3738935861993743" gradientTransform="matrix(-183.091,-472.108,642.76,-249.273,209.528,1017.917)" gradientUnits="userSpaceOnUse"><stop offset="1.3043478260869565%" stop-opacity="1" style="stop-color:rgb(146,84,200)"/><stop offset="100%" stop-opacity="1" style="stop-color:rgb(247,75,141)"/></linearGradient><path d=" M 654.833 468.116 L 645.7 577.206 L 636.567 686.297 C 628.639 780.994 550.779 828.704 462.805 792.773 L 340.157 742.679 L 217.508 692.586 C 129.535 656.654 125.952 590.742 209.513 545.488 L 363.654 462.01 L 517.795 378.531 C 601.357 333.277 662.761 373.419 654.833 468.116 Z " fill="url(#_lgradient_17)"/><linearGradient id="_lgradient_18" x1="0.5638096728218438" y1="0.7184777023844473" x2="0.7672695008605742" y2="0.25442142876821855" gradientTransform="matrix(107.219,0,0,116.139,487.973,162.121)" gradientUnits="userSpaceOnUse"><stop offset="1.3043478260869565%" stop-opacity="1" style="stop-color:rgb(203,152,237)"/><stop offset="100%" stop-opacity="1" style="stop-color:rgb(253,205,255)"/></linearGradient><path d=" M 534.943 243.476 L 534.943 243.476 L 534.943 243.476 C 509.02 224.278 511.995 198.258 541.583 185.406 L 541.583 185.406 L 541.583 185.406 C 571.17 172.555 592.217 188.141 588.553 220.191 L 588.553 220.191 L 588.553 220.191 C 584.889 252.24 560.867 262.674 534.943 243.476 Z " fill="url(#_lgradient_18)"/><linearGradient id="_lgradient_19" x1="0.35972852469229727" y1="0.5287938322226169" x2="0.9308747450634327" y2="0.36515611029154493" gradientTransform="matrix(77.949,0,0,84.434,388.479,279.774)" gradientUnits="userSpaceOnUse"><stop offset="1.3043478260869565%" stop-opacity="1" style="stop-color:rgb(203,152,237)"/><stop offset="100%" stop-opacity="1" style="stop-color:rgb(253,205,255)"/></linearGradient><path d=" M 422.627 338.92 L 422.627 338.92 L 422.627 338.92 C 403.78 324.963 405.943 306.046 427.454 296.703 L 427.454 296.703 L 427.454 296.703 C 448.964 287.36 464.265 298.691 461.601 321.991 L 461.601 321.991 L 461.601 321.991 C 458.937 345.292 441.474 352.877 422.627 338.92 Z " fill="url(#_lgradient_19)"/><linearGradient id="_lgradient_20" x1="0.49681615679244084" y1="0.3678523927076295" x2="0.8165345490605123" y2="0.7193926653579998" gradientTransform="matrix(-57.344,5.842,-6.328,-62.115,473.569,449.608)" gradientUnits="userSpaceOnUse"><stop offset="1.3043478260869565%" stop-opacity="1" style="stop-color:rgb(203,152,237)"/><stop offset="100%" stop-opacity="1" style="stop-color:rgb(253,205,255)"/></linearGradient><path d=" M 444.016 408.656 L 444.016 408.656 L 444.016 408.656 C 458.926 417.512 458.753 431.59 443.629 440.076 L 443.629 440.076 L 443.629 440.076 C 428.504 448.561 416.399 441.372 416.612 424.031 L 416.612 424.031 L 416.612 424.031 C 416.826 406.69 429.105 399.801 444.016 408.656 Z " fill="url(#_lgradient_20)"/><linearGradient id="_lgradient_21" x1="0.49681615679244084" y1="0.3678523927076295" x2="0.8165345490605123" y2="0.7193926653579998" gradientTransform="matrix(-52.234,5.321,-5.764,-56.58,555.016,369.043)" gradientUnits="userSpaceOnUse"><stop offset="1.3043478260869565%" stop-opacity="1" style="stop-color:rgb(203,152,237)"/><stop offset="100%" stop-opacity="1" style="stop-color:rgb(253,205,255)"/></linearGradient><path d=" M 528.096 331.741 L 528.096 331.741 L 528.096 331.741 C 541.678 339.807 541.52 352.631 527.744 360.36 L 527.744 360.36 L 527.744 360.36 C 513.967 368.089 502.94 361.541 503.135 345.745 L 503.135 345.745 L 503.135 345.745 C 503.329 329.95 514.514 323.675 528.096 331.741 Z " fill="url(#_lgradient_21)"/><linearGradient id="_lgradient_22" x1="0.49681615679244084" y1="0.3678523927076295" x2="0.8165345490605123" y2="0.7193926653579998" gradientTransform="matrix(-56.643,5.77,-6.251,-61.356,591.474,449.298)" gradientUnits="userSpaceOnUse"><stop offset="1.3043478260869565%" stop-opacity="1" style="stop-color:rgb(203,152,237)"/><stop offset="100%" stop-opacity="1" style="stop-color:rgb(253,205,255)"/></linearGradient><path d=" M 562.281 408.847 L 562.281 408.847 L 562.281 408.847 C 577.009 417.594 576.838 431.5 561.899 439.882 L 561.899 439.882 L 561.899 439.882 C 546.959 448.264 535.002 441.162 535.212 424.033 L 535.212 424.033 L 535.212 424.033 C 535.423 406.904 547.552 400.1 562.281 408.847 Z " fill="url(#_lgradient_22)"/></g></svg>