<?xml version="1.0" encoding="UTF-8" standalone="no"?><!-- Generator: Gravit.io --><svg xmlns="http://www.w3.org/2000/svg" xmlns:xlink="http://www.w3.org/1999/xlink" style="isolation:isolate" viewBox="0 0 600 600" width="600pt" height="600pt"><defs><clipPath id="_clipPath_4aKOtrZn5F5icTrbRNqcKOJtkex6L1kM"><rect width="600" height="600"/></clipPath></defs><g clip-path="url(#_clipPath_4aKOtrZn5F5icTrbRNqcKOJtkex6L1kM)"><clipPath id="_clipPath_R3mtMl6vpzi998k3WPZdHHPvDMWNRuW5"><rect x="0" y="0" width="600" height="600" transform="matrix(1,0,0,1,0,0)" fill="rgb(255,255,255)"/></clipPath><g clip-path="url(#_clipPath_R3mtMl6vpzi998k3WPZdHHPvDMWNRuW5)"><g><clipPath id="_clipPath_X4VezRzN10UHjCw5eqJ9E1fKrV7DUoct"><rect x="0" y="0" width="600" height="600" transform="matrix(1,0,0,1,0,0)" fill="rgb(255,255,255)"/></clipPath><g clip-path="url(#_clipPath_X4VezRzN10UHjCw5eqJ9E1fKrV7DUoct)"><g><g><clipPath id="_clipPath_RHdlyyflr2e208P7sTouVpU1Rqan2ulM"><rect x="0" y="0" width="600" height="600" transform="matrix(1,0,0,1,0,0)" fill="rgb(255,255,255)"/></clipPath><g clip-path="url(#_clipPath_RHdlyyflr2e208P7sTouVpU1Rqan2ulM)"><g><g><g><rect x="0" y="0" width="600" height="600" transform="matrix(1,0,0,1,0,0)" fill="rgb(250,250,250)"/></g></g></g></g></g></g></g></g></g><linearGradient id="_lgradient_12" x1="0.2722788303555076" y1="0.552671558318337" x2="0.8661072280631182" y2="0.2632294916580805" gradientTransform="matrix(-233.15,-656.657,810.993,-287.947,326.914,969.848)" gradientUnits="userSpaceOnUse"><stop offset="0%" stop-opacity="1" style="stop-color:rgb(198,152,239)"/><stop offset="98.26086956521739%" stop-opacity="1" style="stop-color:rgb(255,207,255)"/></linearGradient><path d=" M 887.827 250.276 L 876.178 405.11 L 864.529 559.944 C 855.185 684.143 757.229 739.609 645.918 683.73 L 490.849 605.884 L 335.78 528.037 C 224.469 472.158 223.774 380.066 334.23 322.514 L 519.428 226.017 L 704.626 129.521 C 815.082 71.968 897.171 126.077 887.827 250.276 Z " fill="url(#_lgradient_12)"/><linearGradient id="_lgradient_13" x1="0.6423975333500072" y1="0.3669533693866216" x2="0.7763215296360164" y2="0.18259739928962912" gradientTransform="matrix(758.313,105.365,-92.486,665.621,145.472,84.113)" gradientUnits="userSpaceOnUse"><stop offset="0%" stop-opacity="1" style="stop-color:rgb(202,155,240)"/><stop offset="96.95652173913044%" stop-opacity="1" style="stop-color:rgb(206,107,188)"/></linearGradient><path d=" M 622.406 765.594 L 448.696 683.282 L 274.986 600.971 C 170.733 551.571 170.014 469.876 273.382 418.649 L 429.346 341.358 L 585.309 264.066 C 688.677 212.84 777.891 264.763 784.409 379.943 L 791.949 513.175 L 799.489 646.407 C 806.007 761.588 726.659 814.993 622.406 765.594 Z " fill="url(#_lgradient_13)"/><linearGradient id="_lgradient_14" x1="0.21705022639742388" y1="0.5731574470907321" x2="0.8435913503718726" y2="0.3738935861993743" gradientTransform="matrix(-195.825,-504.942,621.089,-240.868,209.885,1043.438)" gradientUnits="userSpaceOnUse"><stop offset="1.3043478260869565%" stop-opacity="1" style="stop-color:rgb(146,84,200)"/><stop offset="100%" stop-opacity="1" style="stop-color:rgb(247,75,141)"/></linearGradient><path d=" M 627.309 472.49 L 621.897 593.21 L 616.484 713.93 C 612.157 810.439 537.633 855.492 450.167 814.474 L 328.291 757.321 L 206.415 700.167 C 118.949 659.15 116.4 587.582 200.728 540.447 L 341.543 461.738 L 482.358 383.03 C 566.686 335.895 631.636 375.981 627.309 472.49 Z " fill="url(#_lgradient_14)"/></g></svg>