<?xml version="1.0" encoding="UTF-8" standalone="no"?><!-- Generator: Gravit.io --><svg xmlns="http://www.w3.org/2000/svg" xmlns:xlink="http://www.w3.org/1999/xlink" style="isolation:isolate" viewBox="0 0 600 600" width="600pt" height="600pt"><defs><clipPath id="_clipPath_v3D3ojyrcYpSzsWg5clETASoXuiZ4pLe"><rect width="600" height="600"/></clipPath></defs><g clip-path="url(#_clipPath_v3D3ojyrcYpSzsWg5clETASoXuiZ4pLe)"><clipPath id="_clipPath_PMScAhGI5fcJTe9fzfgaRAp31FHmn6KZ"><rect x="0" y="0" width="600" height="600" transform="matrix(1,0,0,1,0,0)" fill="rgb(255,255,255)"/></clipPath><g clip-path="url(#_clipPath_PMScAhGI5fcJTe9fzfgaRAp31FHmn6KZ)"><g><clipPath id="_clipPath_Fq7aRgPqzPKdxjC8HuF7gJoPUD2MlrNd"><rect x="0" y="0" width="600" height="600" transform="matrix(1,0,0,1,0,0)" fill="rgb(255,255,255)"/></clipPath><g clip-path="url(#_clipPath_Fq7aRgPqzPKdxjC8HuF7gJoPUD2MlrNd)"><g><g><clipPath id="_clipPath_ZuhD4C91VY619CfncAor5ewnMU2LNUMo"><rect x="0" y="0" width="600" height="600" transform="matrix(1,0,0,1,0,0)" fill="rgb(255,255,255)"/></clipPath><g clip-path="url(#_clipPath_ZuhD4C91VY619CfncAor5ewnMU2LNUMo)"><g><g><g><rect x="0" y="0" width="600" height="600" transform="matrix(1,0,0,1,0,0)" fill="rgb(250,250,250)"/></g></g></g></g></g></g></g></g></g><linearGradient id="_lgradient_3" x1="0.2722788303555076" y1="0.552671558318337" x2="0.8661072280631182" y2="0.2632294916580805" gradientTransform="matrix(-233.15,-656.657,777.787,-276.157,378.302,1023.21)" gradientUnits="userSpaceOnUse"><stop offset="0%" stop-opacity="1" style="stop-color:rgb(198,152,239)"/><stop offset="98.26086956521739%" stop-opacity="1" style="stop-color:rgb(255,207,255)"/></linearGradient><path d=" M 909.72 310.999 L 900.303 468.151 L 890.887 625.303 C 883.591 747.058 790.113 799.642 682.27 742.657 L 531.577 663.03 L 380.885 583.403 C 273.042 526.417 273.038 433.88 380.876 376.885 L 554.213 285.274 L 727.55 193.662 C 835.388 136.667 917.016 189.244 909.72 310.999 Z " fill="url(#_lgradient_3)"/><linearGradient id="_lgradient_4" x1="0.6423975333500072" y1="0.3669533693866216" x2="0.7763215296360164" y2="0.18259739928962912" gradientTransform="matrix(695.497,96.637,-92.486,665.621,191.621,145.872)" gradientUnits="userSpaceOnUse"><stop offset="0%" stop-opacity="1" style="stop-color:rgb(202,155,240)"/><stop offset="96.95652173913044%" stop-opacity="1" style="stop-color:rgb(206,107,188)"/></linearGradient><path d=" M 615.987 817.806 L 463.437 740.677 L 310.888 663.547 C 212.291 613.696 210.92 530.146 307.828 477.086 L 449.521 399.507 L 591.213 321.928 C 688.122 268.868 770.455 315.415 774.958 425.806 L 780.716 566.96 L 786.474 708.115 C 790.977 818.506 714.584 867.657 615.987 817.806 Z " fill="url(#_lgradient_4)"/><linearGradient id="_lgradient_5" x1="0.21705022639742388" y1="0.5731574470907321" x2="0.8435913503718726" y2="0.3738935861993743" gradientTransform="matrix(-183.091,-472.108,580.702,-225.205,245.726,1065.654)" gradientUnits="userSpaceOnUse"><stop offset="1.3043478260869565%" stop-opacity="1" style="stop-color:rgb(146,84,200)"/><stop offset="100%" stop-opacity="1" style="stop-color:rgb(247,75,141)"/></linearGradient><path d=" M 636.007 531.833 L 630.946 644.703 L 625.886 757.572 C 621.841 847.806 552.162 889.929 470.383 851.579 L 356.433 798.142 L 242.482 744.705 C 160.703 706.355 158.32 639.44 237.164 595.37 L 368.823 521.78 L 500.482 448.189 C 579.326 404.12 640.052 441.599 636.007 531.833 Z " fill="url(#_lgradient_5)"/></g></svg>