<svg width="70" height="19" viewBox="0 0 70 19" fill="none" xmlns="http://www.w3.org/2000/svg">
<g clip-path="url(#clip0)">
<path d="M54.1111 4.75H50.3333C50.1111 4.75 49.8888 4.97221 49.7777 5.19443L48.2222 14.9722C48.2222 15.1944 48.3333 15.3056 48.5555 15.3056H50.5555C50.7777 15.3056 50.8888 15.1944 50.8888 14.9722L51.3333 12.1944C51.3333 11.9722 51.5555 11.75 51.8888 11.75H53.1111C55.6666 11.75 57.1111 10.5278 57.4444 8.08333C57.6666 7.08333 57.4444 6.19444 56.9999 5.63889C56.3333 5.08333 55.3333 4.75 54.1111 4.75ZM54.5555 8.41667C54.3333 9.75 53.3333 9.75 52.3333 9.75H51.6666L52.1111 7.19444C52.1111 7.08333 52.2222 6.97222 52.4444 6.97222H52.6666C53.3333 6.97222 53.9999 6.97221 54.3333 7.41665C54.5555 7.52776 54.5555 7.86111 54.5555 8.41667Z" fill="#139AD6"/>
<path d="M26.8889 4.75H23.1111C22.8889 4.75 22.6667 4.97221 22.5556 5.19443L21 14.9722C21 15.1944 21.1111 15.3056 21.3333 15.3056H23.1111C23.3333 15.3056 23.5556 15.0833 23.6667 14.8611L24.1111 12.1944C24.1111 11.9722 24.3333 11.75 24.6667 11.75H25.8889C28.4444 11.75 29.8889 10.5278 30.2222 8.08333C30.4444 7.08333 30.2222 6.19444 29.7778 5.63889C29.1111 5.08333 28.2222 4.75 26.8889 4.75ZM27.3333 8.41667C27.1111 9.75 26.1111 9.75 25.1111 9.75H24.5556L25 7.19444C25 7.08333 25.1111 6.97222 25.3333 6.97222H25.5556C26.2222 6.97222 26.8889 6.97221 27.2222 7.41665C27.3333 7.52776 27.4444 7.86111 27.3333 8.41667Z" fill="#263B80"/>
<path d="M38.3332 8.30556H36.5554C36.4443 8.30556 36.2221 8.41665 36.2221 8.52777L36.111 9.08332L35.9998 8.86111C35.5554 8.30556 34.7776 8.08334 33.8887 8.08334C31.8887 8.08334 30.1109 9.63889 29.7776 11.75C29.5554 12.8611 29.8887 13.8611 30.4443 14.5278C30.9998 15.1944 31.7776 15.4167 32.7776 15.4167C34.4443 15.4167 35.3332 14.4167 35.3332 14.4167L35.2221 14.9722C35.2221 15.1944 35.3332 15.3056 35.5554 15.3056H37.2221C37.4443 15.3056 37.6665 15.0833 37.7776 14.8611L38.7776 8.63889C38.6665 8.52778 38.4443 8.30556 38.3332 8.30556ZM35.7776 11.8611C35.5554 12.8611 34.7776 13.6389 33.6665 13.6389C33.111 13.6389 32.6665 13.4167 32.4443 13.1944C32.2221 12.8611 32.111 12.4167 32.111 11.8611C32.2221 10.8611 33.111 10.0833 34.111 10.0833C34.6665 10.0833 34.9998 10.3055 35.3332 10.5278C35.6665 10.8611 35.7776 11.4167 35.7776 11.8611Z" fill="#263B80"/>
<path d="M65.4445 8.30556H63.6667C63.5556 8.30556 63.3334 8.41665 63.3334 8.52777L63.2223 9.08332L63.1112 8.86111C62.6667 8.30556 61.8889 8.08334 61 8.08334C59.0001 8.08334 57.2223 9.63889 56.8889 11.75C56.6667 12.8611 57.0001 13.8611 57.5556 14.5278C58.1112 15.1944 58.8889 15.4167 59.8889 15.4167C61.5556 15.4167 62.4445 14.4167 62.4445 14.4167L62.3334 14.9722C62.3334 15.1944 62.4445 15.3056 62.6667 15.3056H64.3334C64.5556 15.3056 64.7778 15.0833 64.8889 14.8611L65.8889 8.63889C65.7778 8.52778 65.6667 8.30556 65.4445 8.30556ZM62.8889 11.8611C62.6667 12.8611 61.8889 13.6389 60.7778 13.6389C60.2223 13.6389 59.7778 13.4167 59.5556 13.1944C59.3334 12.8611 59.2223 12.4167 59.2223 11.8611C59.3334 10.8611 60.2223 10.0833 61.2223 10.0833C61.7778 10.0833 62.1112 10.3055 62.4445 10.5278C62.8889 10.8611 63 11.4167 62.8889 11.8611Z" fill="#139AD6"/>
<path d="M47.9999 8.30555H46.111C45.8888 8.30555 45.7777 8.41666 45.6666 8.52777L43.2221 12.3056L42.111 8.74999C41.9999 8.52777 41.8888 8.41667 41.5555 8.41667H39.7777C39.5554 8.41667 39.4443 8.63888 39.4443 8.86111L41.4443 14.75L39.5554 17.4167C39.4443 17.6389 39.5554 17.9722 39.7777 17.9722H41.5555C41.7777 17.9722 41.8888 17.8611 41.9999 17.75L48.111 8.97223C48.4444 8.6389 48.2221 8.30555 47.9999 8.30555Z" fill="#263B80"/>
<path d="M67.5556 5.08333L66 15.0833C66 15.3056 66.1111 15.4167 66.3333 15.4167H67.8889C68.1111 15.4167 68.3333 15.1944 68.4444 14.9722L70 5.19444C70 4.97222 69.8889 4.86111 69.6667 4.86111H67.8889C67.7778 4.75 67.6667 4.86111 67.5556 5.08333Z" fill="#139AD6"/>
<path d="M12.7778 1.41666C12 0.527772 10.5556 0.0833282 8.55556 0.0833282H3C2.66667 0.0833282 2.33333 0.416659 2.22222 0.749993L0 15.3056C0 15.6389 0.222222 15.8611 0.444444 15.8611H3.88889L4.77778 10.4167V10.6389C4.88889 10.3056 5.22222 9.97222 5.55556 9.97222H7.22222C10.4444 9.97222 12.8889 8.63889 13.6667 4.97222C13.6667 4.86111 13.6667 4.75 13.6667 4.63889C13.5556 4.63889 13.5556 4.63889 13.6667 4.63889C13.7778 3.19444 13.5556 2.30555 12.7778 1.41666Z" fill="#263B80"/>
<path d="M13.5554 4.63889C13.5554 4.75 13.5554 4.86111 13.5554 4.97222C12.7776 8.75 10.3332 9.97222 7.11098 9.97222H5.44431C5.11098 9.97222 4.77764 10.3056 4.66653 10.6389L3.55542 17.4167C3.55542 17.6389 3.66653 17.8611 3.99986 17.8611H6.88875C7.22209 17.8611 7.55542 17.6389 7.55542 17.3056V17.1944L8.11098 13.75V13.5278C8.11098 13.1944 8.44431 12.9722 8.77764 12.9722H9.22209C11.9999 12.9722 14.2221 11.8611 14.7776 8.52777C14.9999 7.19444 14.8888 5.97222 14.2221 5.19444C14.111 4.97222 13.8888 4.75 13.5554 4.63889Z" fill="#139AD6"/>
<path d="M12.7778 4.30555C12.6667 4.30555 12.5556 4.19444 12.4445 4.19444C12.3334 4.19444 12.2223 4.19444 12.1112 4.08333C11.6667 3.97222 11.2223 3.97222 10.6667 3.97222H6.33339C6.22228 3.97222 6.11117 3.97222 6.00005 4.08333C5.77783 4.19444 5.66672 4.41667 5.66672 4.63889L4.77783 10.4167V10.6389C4.88894 10.3056 5.22228 9.97222 5.55561 9.97222H7.22228C10.4445 9.97222 12.8889 8.63889 13.6667 4.97222C13.6667 4.86111 13.6667 4.75 13.7778 4.63889C13.5556 4.52778 13.4445 4.41667 13.2223 4.41667C12.8889 4.30555 12.8889 4.30555 12.7778 4.30555Z" fill="#232C65"/>
</g>
<defs>
<clipPath id="clip0">
<rect width="70" height="18.0556" fill="white"/>
</clipPath>
</defs>
</svg>
