<svg width="25" height="25" viewBox="0 0 25 25" fill="none" xmlns="http://www.w3.org/2000/svg">
<path d="M13.5416 18.75C13.5416 19.3252 13.0752 19.7916 12.5 19.7916C11.9247 19.7916 11.4584 19.3252 11.4584 18.75C11.4584 18.1747 11.9247 17.7084 12.5 17.7084C13.0752 17.7084 13.5416 18.1747 13.5416 18.75Z" fill="#212121"/>
<path d="M12.5 25C5.60722 25 0 19.3928 0 12.5C0 5.60722 5.60722 0 12.5 0C19.3928 0 25 5.60722 25 12.5C25 19.3928 19.3928 25 12.5 25ZM12.5 1.5625C6.46877 1.5625 1.5625 6.46877 1.5625 12.5C1.5625 18.5312 6.46877 23.4375 12.5 23.4375C18.5312 23.4375 23.4375 18.5312 23.4375 12.5C23.4375 6.46877 18.5312 1.5625 12.5 1.5625Z" fill="#212121"/>
<path d="M12.5 15.3647C12.0688 15.3647 11.7188 15.0147 11.7188 14.5834V13.5313C11.7188 12.5397 12.348 11.6511 13.2834 11.3209C14.5281 10.8824 15.3647 9.55622 15.3647 8.59377C15.3647 7.01354 14.0803 5.72913 12.5 5.72913C10.9198 5.72913 9.63538 7.01354 9.63538 8.59377C9.63538 9.02503 9.28538 9.37502 8.85413 9.37502C8.42287 9.37502 8.07288 9.02503 8.07288 8.59377C8.07288 6.15313 10.0584 4.16663 12.5 4.16663C14.9416 4.16663 16.9272 6.15313 16.9272 8.59377C16.9272 10.3314 15.5552 12.1762 13.8031 12.7949C13.4907 12.9042 13.2813 13.201 13.2813 13.5323V14.5834C13.2813 15.0147 12.9313 15.3647 12.5 15.3647Z" fill="#212121"/>
</svg>
