<svg xmlns="http://www.w3.org/2000/svg" width="70" height="70" viewBox="0 0 70 70" style="width: 100%; height: 100%;"><desc>Made with illustrio</desc>
  
<g class="base"><g fill="none" fill-rule="evenodd" stroke="none" class="main-stroke">
    
    
  </g><g fill="none" transform="translate(21 25.455)" stroke="none" class="main-stroke">
      <path d="M21.6363636 0C18.4780909 0 15.9090909 2.56963636 15.9090909 5.72727273 15.9090909 8.88490909 18.4780909 11.4545455 21.6363636 11.4545455 23.0828182 11.4545455 24.402 10.9110909 25.4112727 10.0233636 24.3886364 13.3184545 22.2994545 16.2520909 19.7692727 17.6291818 19.4606364 17.7971818 19.3460909 18.1834545 19.5147273 18.4914545 19.6299091 18.704 19.8481818 18.8236364 20.0740909 18.8236364 20.1765455 18.8236364 20.2809091 18.7988182 20.3776364 18.746 24.36 16.5798182 27.3636364 10.983 27.3636364 5.72727273 27.3636364 2.56963636 24.7946364 0 21.6363636 0L21.6363636 0zM5.72727273 0C2.56963636 0 0 2.56963636 0 5.72727273 0 8.88490909 2.56963636 11.4545455 5.72727273 11.4545455 7.17372727 11.4545455 8.49290909 10.9110909 9.50218182 10.0227273 8.47954545 13.3178182 6.39036364 16.2520909 3.85954545 17.6291818 3.55090909 17.7971818 3.43636364 18.1834545 3.605 18.4914545 3.72018182 18.704 3.93909091 18.8236364 4.16436364 18.8236364 4.26681818 18.8236364 4.37118182 18.7988182 4.46790909 18.746 8.45090909 16.5798182 11.4545455 10.983 11.4545455 5.72727273 11.4545455 2.56963636 8.88490909 0 5.72727273 0L5.72727273 0z" fill="none" stroke="none" class="main-stroke"></path>
    </g></g><style>
          .main-fill {fill: #21B4B7;}
          .main-stroke {stroke: #21B4B7;}
          .secondary-fill {fill: #fff;}
          .secondary-stroke {stroke: #fff;}

          .main-fill--darken {fill: #157476;}
          .main-stroke--darken {stroke: #157476;}
          .secondary-fill--darken {fill: #d9d9d9;}
          .secondary-stroke--darken {stroke: #d9d9d9;}

          .main-fill--darkener {fill: #0e4a4b;}
          .main-stroke--darkener {stroke: #0e4a4b;}
          .secondary-fill--darkener {fill: #bfbfbf;}
          .secondary-stroke--darkener {stroke: #bfbfbf;}
        </style></svg>