<svg width="70" height="70" viewBox="0 0 70 70" fill="none" xmlns="http://www.w3.org/2000/svg">
<path d="M18.2 44.8002C23.604 44.8002 28 40.4028 28 35.0002C28 29.5962 23.604 25.2002 18.2 25.2002C12.796 25.2002 8.40002 29.5962 8.40002 35.0002C8.40002 40.4028 12.796 44.8002 18.2 44.8002Z" fill="white"/>
<path d="M32.7348 42C32.2364 42 31.773 42.266 31.5238 42.6986C28.77 47.4488 23.6656 50.4 18.2 50.4C12.7344 50.4 7.6286 47.4488 4.8776 42.6986C4.627 42.266 4.1664 42 3.6666 42C3.1668 42 2.7048 42.266 2.4556 42.6986C0.8484 45.4706 0 48.6178 0 51.8V68.6C0 69.3742 0.6272 70 1.4 70H35C35.7728 70 36.4 69.3742 36.4 68.6V51.8C36.4 48.6192 35.5516 45.4706 33.9458 42.6986C33.6952 42.266 33.2346 42 32.7348 42ZM68.6 0H32.2C31.4272 0 30.8 0.6272 30.8 1.4V23.8C30.8 24.5728 31.4272 25.2 32.2 25.2H39.2V32.2C39.2 32.7306 39.4996 33.215 39.9742 33.453C40.1716 33.551 40.3872 33.6 40.6 33.6C40.8968 33.6 41.1936 33.5048 41.44 33.32L52.2662 25.2H68.6C69.3742 25.2 70 24.5728 70 23.8V1.4C70 0.6272 69.3742 0 68.6 0ZM46.2 14H43.4C42.6258 14 42 13.3728 42 12.6C42 11.8272 42.6258 11.2 43.4 11.2H46.2C46.9742 11.2 47.6 11.8272 47.6 12.6C47.6 13.3728 46.9742 14 46.2 14ZM57.4 14H54.6C53.8258 14 53.2 13.3728 53.2 12.6C53.2 11.8272 53.8258 11.2 54.6 11.2H57.4C58.1742 11.2 58.8 11.8272 58.8 12.6C58.8 13.3728 58.1742 14 57.4 14Z" fill="white"/>
</svg>
