<svg width="70" height="40" viewBox="0 0 70 40" fill="none" xmlns="http://www.w3.org/2000/svg">
<path fill-rule="evenodd" clip-rule="evenodd" d="M35 0C28.5567 0 23.3333 5.22333 23.3333 11.6667C23.3333 15.5588 25.4039 18.7138 28.3333 20.8333C20.1805 23.5468 14.1667 31.2498 14.1667 40H55.8333C55.8333 31.2498 49.8195 23.5468 41.6667 20.8333C44.5961 18.7138 46.6667 15.5588 46.6667 11.6667C46.6667 5.22333 41.4433 0 35 0ZM18.3333 1.66667C12.6632 1.66667 8.33333 6.02875 8.33333 11.6667C8.33333 15.0722 9.92211 18.1454 12.5 20C5.32551 22.3743 0 29.0103 0 36.6667H11.0938C12.1687 29.5214 16.6238 23.3746 22.7604 19.7917C21.1139 17.5036 20 14.7869 20 11.6667C20 8.34949 21.0987 5.27845 22.9427 2.78646C21.5565 2.07999 19.9781 1.66667 18.3333 1.66667ZM51.6667 1.66667C50.0219 1.66667 48.4435 2.07999 47.0573 2.78646C48.9013 5.27845 50 8.34949 50 11.6667C50 14.7869 48.8861 17.5036 47.2396 19.7917C53.3763 23.3746 57.8313 29.5214 58.9063 36.6667H70C70 29.0103 64.6745 22.3743 57.5 20C60.0779 18.1454 61.6667 15.0722 61.6667 11.6667C61.6667 6.02875 57.3368 1.66667 51.6667 1.66667Z" fill="white"/>
</svg>
