<?xml version="1.0" standalone="no"?><!-- Generator: Gravit.io --><svg xmlns="http://www.w3.org/2000/svg" xmlns:xlink="http://www.w3.org/1999/xlink" style="isolation:isolate" viewBox="0 0 1333.333 1066.667" width="1333.333" height="1066.667"><defs><clipPath id="_clipPath_B6usAz9riuAaN7Sjfi87niv1A9we4ekE"><rect width="1333.333" height="1066.667"/></clipPath></defs><g clip-path="url(#_clipPath_B6usAz9riuAaN7Sjfi87niv1A9we4ekE)"><g><g opacity="0"><path d=" M 0 1066.667 L 1333.333 1066.667 L 1333.333 0 L 0 0 L 0 1066.667 Z " fill="rgb(255,255,255)"/></g><path d=" M 1039.376 1016.203 C 1032.879 1016.203 1026.344 1015.934 1019.737 1015.281 C 994.493 1012.786 968.905 1011.539 943.788 1007.976 C 886.14 999.803 828.469 999.317 770.403 999.317 C 747.351 999.317 724.3 999.089 701.253 999.089 C 667.689 999.089 634.136 999.574 600.637 1001.948 C 548.392 1005.652 496.065 1006.244 443.725 1006.244 C 435.82 1006.244 427.907 1006.231 420 1006.212 C 419.488 1006.21 418.979 1006.21 418.465 1006.21 C 389.485 1006.21 360.616 1008.101 331.68 1009.439 C 302.609 1010.781 274.34 1012.986 245.44 1012.986 C 242.832 1012.986 240.219 1012.968 237.599 1012.929 C 208.72 1012.509 164.748 1003.595 144.144 980.877 C 131.913 967.38 133.571 934.908 145.821 921.893 C 151.172 916.208 159.8 911.755 166.848 909.047 C 186.923 901.329 207.353 901.311 228.332 901.151 C 228.589 901.149 228.848 901.148 229.107 901.148 C 243.581 901.148 258.631 904.24 272.501 908.533 C 285.124 912.44 298.02 913.809 310.857 916.243 C 321.363 918.232 332.604 919.185 343.719 919.185 C 350.952 919.185 358.132 918.781 365.021 917.997 C 383.66 915.876 402.432 914.889 421.125 913.217 C 444.339 911.141 467.056 906.64 490.189 904.228 C 501.769 903.021 513.081 900.027 524.636 898.664 C 555.279 895.053 585.977 894.272 616.676 894.175 C 619.137 894.167 621.597 894.164 624.059 894.164 C 638.7 894.164 653.344 894.28 667.977 894.28 C 679.86 894.28 691.732 894.243 703.608 894.243 C 744.239 894.243 784.839 894.684 825.36 898.587 C 837.917 899.797 850.392 899.065 862.775 901.944 C 875.207 904.835 887.757 907.472 900.495 907.987 C 911.392 908.427 922.323 908.572 933.264 908.572 C 952.728 908.572 972.227 908.113 991.627 908.037 C 993.568 908.031 996.268 908.017 999.619 908.017 C 1043.028 908.017 1194.316 910.128 1183.464 952.893 C 1179.295 969.326 1155.053 990.712 1141.456 997.596 C 1124.279 1006.293 1105.495 1011.438 1086.587 1013.172 C 1070.649 1014.633 1055.113 1016.203 1039.376 1016.203 Z " fill="rgb(246,234,234)"/><path d=" M 370.001 464.851 L 367.651 448.975 L 374.392 447.673 L 378.409 458.189 L 381.312 456.095 L 381.668 469.925 L 374.843 472.223 L 370.001 464.851" fill="rgb(185,114,98)"/><path d=" M 471.98 547.34 L 411.249 531.539 L 383.117 465.201 L 369.807 470.453 L 385.663 556.136 L 455.62 592.171 L 471.98 547.34" fill="rgb(140,171,239)"/><path d=" M 992.765 540.429 L 935.223 582.42 L 885.043 560.74 L 877.68 574.277 L 915.684 600.161 L 936.987 608.124 L 992.765 581.269 L 992.765 540.429 Z " fill="rgb(214,112,134)"/><path d=" M 1032.397 277.964 L 1208.628 292.611 C 1224.94 293.967 1237.064 308.289 1235.708 324.601 L 1226.267 438.197 C 1224.917 454.444 1210.7 466.549 1194.447 465.293 L 1166.113 463.103 L 1130.061 505.717 C 1129.008 506.963 1126.976 506.139 1127.087 504.512 L 1130.112 460.111 L 1017.985 450.527 C 1001.704 449.135 989.621 434.827 990.973 418.541 L 1000.408 305.045 C 1001.763 288.733 1016.085 276.609 1032.397 277.964" fill="rgb(93,102,211)"/><path d=" M 1033.421 318.371 L 1174.179 330.377 L 1174.68 324.512 L 1033.921 312.505 L 1033.421 318.371 Z " fill="rgb(255,255,238)"/><path d=" M 1029.607 363.089 L 1197.489 377.411 L 1197.989 371.547 L 1030.108 357.225 L 1029.607 363.089 Z " fill="rgb(255,255,238)"/><path d=" M 1025.793 407.809 L 1193.675 422.131 L 1194.175 416.265 L 1026.293 401.944 L 1025.793 407.809 Z " fill="rgb(255,255,238)"/><path d=" M 901.673 738.867 L 905.051 817.195 L 895.151 950.377 L 880.337 951.431 L 862.34 830.469 L 837.441 728.111 L 901.673 738.867 Z " fill="rgb(174,174,175)"/><path d=" M 880.865 957.671 L 897.455 964.541 L 904.895 955.964 L 896.316 948.524 L 880.297 949.662 L 880.865 957.671" fill="rgb(59,51,135)"/><path d=" M 796.809 711.149 L 793.56 770.356 L 803.205 946.4 L 818.037 947.14 L 840.267 831.68 L 859.873 705.06 L 796.809 711.149 Z " fill="rgb(174,174,175)"/><path d=" M 817.639 953.392 L 801.199 960.609 L 793.581 952.19 L 802.001 944.571 L 818.04 945.371 L 817.639 953.392" fill="rgb(59,51,135)"/><path d=" M 883.052 536.732 L 836.767 531.773 C 836.767 531.773 811.019 534.525 793.547 595.675 C 783.827 629.695 780.868 683.296 780.156 724.159 C 781.249 729.988 787.6 755.521 814.453 751.191 C 860.568 743.752 885.113 736.315 905.195 740.033 C 922.303 743.752 920.856 720.199 918.975 702.225 L 912.159 646.612 L 883.052 536.732" fill="rgb(53,58,133)"/><path d=" M 874.113 479.119 C 862.448 476.547 850.44 474.243 838.761 476.556 C 836.204 477.061 833.459 477.952 832.072 480.16 C 831.533 481.015 831.249 482.001 830.987 482.977 C 828.039 493.932 824.301 510.172 831.513 520.265 C 832.888 522.191 834.736 523.719 836.72 524.959 C 839.373 526.616 842.311 527.744 845.349 528.344 C 844.721 531.068 843.847 533.735 842.737 536.301 C 845.408 540.327 857.865 540.809 860.169 536.949 C 860.299 533.609 860.427 530.268 860.556 526.927 C 862.073 526.315 863.537 525.569 864.915 524.664 C 870.239 521.157 873.747 515.835 875.784 509.881 C 878.003 503.399 881.125 497.236 883.152 490.629 C 883.891 488.223 884.472 485.475 883.207 483.299 C 881.859 480.983 878.949 480.195 876.332 479.611 C 875.593 479.447 874.855 479.281 874.113 479.119" fill="rgb(185,114,98)"/><path d=" M 835.284 485.383 C 841.049 481.673 849.7 480.077 855.123 480.471 C 871.515 481.657 877.52 493.695 878.395 508.767 C 882.911 503.028 891.384 495.808 891.896 488.423 C 892.315 482.377 891.479 474.135 888.092 468.913 C 884.923 464.028 876.82 461.345 872.001 458.515 C 867.459 455.847 862.917 453.179 858.373 450.509 C 857.429 449.955 856.459 449.389 855.379 449.203 C 854.101 448.981 852.801 449.307 851.545 449.632 C 840.809 452.407 830.075 455.181 819.337 457.956 C 817.275 458.489 814.925 459.268 814.165 461.257 C 813.703 462.469 813.975 463.821 814.252 465.087 C 815.472 470.66 817.811 476.357 818.391 482.003 C 819.045 485.283 821.001 502.095 826.809 500.155 C 828.516 497.365 828.771 493.931 830.099 490.944 C 831.081 488.737 832.945 486.887 835.284 485.383" fill="rgb(50,46,127)"/><path d=" M 836.767 531.773 L 819.66 536.979 L 757.183 602.432 L 753.464 624.003 L 783.331 673.317 L 791.396 655.243 L 778.751 618.797 L 798.835 604.664 L 825.611 544.417 L 836.767 531.773" fill="rgb(53,58,133)"/><path d=" M 732.685 936.724 L 733.893 946.12 L 716.308 957.932 L 705.704 949.744 L 713.893 939.139 L 731.476 927.327 L 732.685 936.724" fill="rgb(41,41,73)"/><path d=" M 733.28 933.569 L 719.719 813.735 L 736.035 679.58 L 732.365 651.043 L 659.488 648.275 L 656.859 694.721 L 669.092 813.917 L 715.12 939.693 L 733.28 933.569" fill="rgb(41,41,73)"/><path d=" M 652.647 515.684 L 615.989 525.668 L 573.593 600.791 L 593.676 619.385 L 621.94 585.915 L 652.647 515.684" fill="rgb(59,51,135)"/><path d=" M 606.013 661.703 L 605.821 782.632 L 630.163 938.307 L 647.683 938.132 L 657.313 794.169 L 679.853 650.077 L 606.013 661.703" fill="rgb(41,41,73)"/><path d=" M 647.656 945.521 L 628.804 955.184 L 619.236 945.805 L 628.615 936.238 L 647.561 936.048 L 647.656 945.521" fill="rgb(41,41,73)"/><path d=" M 743.577 702.832 C 743.411 697.591 743.119 693.217 743.077 691.656 C 742.701 677.599 741.449 663.573 739.689 649.615 C 738.112 637.107 736.121 606.055 733.98 593.624 C 732.213 583.361 726.055 557.743 721.604 548.221 C 710.539 524.547 713.959 522.36 665.348 515.331 C 644.044 512.249 639.008 525.527 621.591 540.795 C 619.873 542.3 619.968 551.265 619.569 553.64 C 618.868 557.821 618.116 561.995 617.253 566.149 C 616.576 569.416 615.829 572.671 614.989 575.904 L 614.992 575.903 C 614.992 575.903 600.369 642.443 590.7 656.575 C 581.031 670.705 561.056 690.463 594.471 702.527 C 600.392 704.44 606.351 706.261 612.515 707.236 C 612.515 707.236 639.843 704.197 653.897 704.304 C 666.841 704.4 679.839 705.709 692.564 707.904 C 701.073 709.327 709.756 711.393 717.368 715.369 C 724.631 719.163 729.872 724.744 737.241 728.671 C 737.939 729.043 738.704 729.428 739.497 729.317 C 743.729 728.732 743.928 713.861 743.577 702.832" fill="rgb(59,51,135)"/><path d=" M 710.976 395.24 C 710.976 395.24 704.011 391.785 704.041 390.893 C 704.073 390.001 705.244 377.399 705.244 377.399 L 709.809 374.791 L 711.729 369.42 C 711.729 369.42 706.513 360.288 707.472 357.604 C 708.431 354.917 715.393 366.792 715.393 366.792 L 717.943 374.063 L 718.593 385.803 L 710.976 395.24" fill="rgb(239,191,165)"/><path d=" M 636.745 575.189 L 650.995 564.328 L 646.617 558.036 L 635.213 563.312 L 634.525 559.376 L 623.464 570.153 L 627.129 577.309 L 636.745 575.189 Z " fill="rgb(239,191,165)"/><path d=" M 634.939 579.025 L 623.509 564.091 L 584.163 587.82 L 593.861 619.501 L 634.939 579.025" fill="rgb(59,51,135)"/><path d=" M 665.292 522.007 C 667.745 523.219 673.533 523.652 679.573 521.287 C 680.789 520.811 681.611 519.637 681.593 518.331 C 681.545 514.663 681.251 510.997 680.711 507.369 C 685.241 505.777 690.473 503.389 691.263 498.652 C 691.512 497.161 691.253 495.637 690.996 494.147 C 689.932 487.987 688.867 481.827 687.804 475.667 C 687.435 473.535 687.043 471.343 685.884 469.517 C 683.852 466.313 679.905 464.912 676.168 464.263 C 666.628 462.608 656.233 464.673 648.837 470.921 C 646.868 472.584 645.088 474.584 644.221 477.009 C 642.883 480.751 643.884 484.877 644.892 488.72 C 645.824 492.267 646.755 495.813 647.687 499.36 C 648.757 503.44 650.304 508.077 654.235 509.608 C 656.321 510.419 658.785 510.183 660.675 511.384 C 664.008 513.503 663.559 518.459 665.292 522.007" fill="rgb(239,191,165)"/><path d=" M 610.236 460.572 C 609.3 459.033 608.291 457.549 607.161 456.156 C 604.715 453.14 601.7 450.556 599.732 447.208 C 597.764 443.861 597.072 439.324 599.433 436.241 C 600.957 434.252 603.431 433.257 605.835 432.551 C 613.756 430.22 622.305 430.061 630.308 432.099 C 637.929 434.039 644.751 437.251 652.424 434.385 C 659.633 431.693 664.84 432.791 672.373 435.479 C 680.528 438.388 691.472 439.073 698.853 443.181 C 701.935 444.896 704.395 447.576 706.311 450.537 C 712.953 460.795 712.989 474.937 706.401 485.229 C 704.923 487.539 703.155 489.648 701.297 491.664 C 697.451 495.835 692.849 500.988 687.557 502.533 C 687.431 497.8 691.744 482.875 688.108 478.995 C 682.339 472.837 669.295 474.985 662.139 476.501 C 654.332 478.155 647.373 483.683 639.633 484.864 C 634.064 485.715 626.956 482.983 622.221 480.105 C 616.377 476.549 613.656 466.187 610.236 460.572" fill="rgb(41,41,73)"/><path d=" M 692.285 519.923 L 729.755 500.212 L 704.041 395.24 L 721.753 385.669 L 766.508 500.212 L 718.593 558.036 L 692.285 519.923" fill="rgb(59,51,135)"/><path d=" M 417.175 943.66 L 416.365 951.615 L 431.468 961.188 L 440.231 954.04 L 433.084 945.277 L 417.983 935.705 L 417.175 943.66" fill="rgb(41,41,73)"/><path d=" M 416.591 700.991 L 414.135 725.149 L 435.705 833.113 L 416.603 941.012 L 432.061 945.772 L 482.044 817.483 L 484.785 778.263 L 478.016 697.02 L 416.591 700.991 Z " fill="rgb(53,58,133)"/><path d=" M 533.745 709.215 L 534.241 811.279 L 514.127 942.736 L 499.339 942.638 L 490.813 821.157 L 471.392 699.605 L 533.745 709.215 Z " fill="rgb(53,58,133)"/><path d=" M 499.383 948.872 L 515.32 956.975 L 523.369 949.033 L 515.427 940.984 L 499.436 940.877 L 499.383 948.872 Z " fill="rgb(41,41,73)"/><path d=" M 546.207 694.236 C 535.54 661.189 534.403 626.489 531.3 592.064 C 530.38 581.908 529.403 571.527 525.175 562.247 C 520.32 551.588 512.293 545.964 502.944 542.891 C 491.043 538.979 476.997 539.204 464.623 538.451 C 452.881 538.081 442.495 582.219 430.517 603.615 C 423.177 616.727 415.615 628.324 410.664 642.628 C 405.912 656.355 401.349 670.324 398.584 684.607 C 394.411 706.171 383.736 721.228 393.931 728.564 C 394.865 728.872 395.765 729.179 396.62 729.484 C 413.343 735.475 430.647 739.909 448.267 742.236 C 463.897 744.299 479.773 744.675 495.469 743.127 C 516.953 741.009 537.769 737.973 556.709 726.769 C 553.208 715.925 549.708 705.081 546.207 694.236" fill="rgb(140,171,239)"/><path d=" M 458.879 505.6 C 465.567 485.407 495.036 478.373 501.887 501.843 C 503.944 508.895 505.184 516.377 503.784 523.589 C 502.385 530.803 497.977 537.723 491.251 540.679 L 491.136 540.727 C 491.399 542.597 491.661 544.469 491.924 546.341 C 491.98 546.744 492.028 547.188 491.801 547.525 C 491.544 547.909 491.033 548.009 490.576 548.077 C 488.341 548.411 486.107 548.744 483.872 549.077 C 482.765 549.243 481.611 549.405 480.545 549.064 C 478.211 548.316 477.24 545.519 477.137 543.069 C 477.112 542.484 477.119 541.892 477.128 541.3 C 463.904 536.769 454.505 518.8 458.879 505.6" fill="rgb(185,114,98)"/><path d=" M 494.78 471.119 C 500.177 470.316 504.772 475.549 509.751 478.296 C 513.892 480.583 518.588 481.188 522.881 483.083 C 527.175 484.976 531.393 488.931 531.484 493.88 C 535.835 491.616 540.547 489.295 545.421 490.233 C 550.296 491.173 554.821 496.993 552.88 501.791 C 551.14 506.085 545.536 507.097 543.671 511.327 C 540.723 518.015 548.696 528.404 543.255 532.84 C 541.945 533.907 540.167 534.165 538.88 535.263 C 537.284 536.627 536.771 538.969 536.06 541.051 C 532.839 550.491 523.324 556.656 513.925 555.395 C 508.083 552.656 503.421 547.001 501.333 540.527 C 498.817 532.721 502.993 529.996 503.697 522.669 C 504.468 514.663 501.921 506.184 496.881 499.965 C 493.6 495.919 488.907 492.432 483.945 491.959 C 481.929 491.767 482.564 493.448 480.296 491.888 C 479.321 491.219 477.993 488.685 477.717 487.472 C 483.144 483.107 487.681 472.175 494.78 471.119" fill="rgb(50,46,127)"/><path d=" M 436.421 481.5 C 433.637 482.276 430.615 482.161 427.963 483.324 C 423.98 485.071 424.221 489.205 423.093 492.796 C 421.845 496.773 420.031 502.111 417.408 505.203 C 415.519 507.432 412.873 508.701 410.571 510.421 C 408.269 512.14 406.152 514.68 406.201 517.779 C 406.248 520.716 408.223 523.353 408.511 526.285 C 408.863 530.659 408.107 532.897 409.455 537.367 C 410.151 539.673 410.929 542.116 412.66 543.689 C 414.941 545.76 418.191 545.721 421.044 545.244 C 423.896 544.767 426.845 543.975 429.66 544.921 C 435.761 546.973 434.623 553.145 436.247 558.317 C 438.719 566.189 447.845 570.783 454.828 567.984 C 460.748 565.611 464.173 558.737 463.907 551.951 C 463.773 548.553 462.42 545.388 462.321 541.987 C 462.227 538.707 464.076 534.165 461.104 531.563 C 460.379 530.929 459.451 530.595 458.8 529.872 C 458.275 529.288 457.983 528.505 457.8 527.723 C 457.167 525.013 457.764 522.056 459.361 519.981 C 460.511 518.491 462.156 517.4 462.86 515.601 C 463.667 513.539 463.028 511.128 462.891 508.849 C 462.561 503.341 465.573 497.94 470.161 495.813 C 473.185 494.413 475.909 493.585 478.552 491.453 C 478.955 491.129 484.967 485.816 485.121 486.964 C 484.852 484.965 483.685 483.217 482.504 481.613 C 480.56 478.977 478.403 476.409 475.667 474.831 C 466.816 469.725 466.389 481.591 459.284 480.029 C 457.571 479.653 456.28 478.083 454.739 477.144 C 451.824 475.373 448.247 476.007 445.267 477.333 C 442.287 478.661 439.556 480.628 436.421 481.5" fill="rgb(50,46,127)"/><path d=" M 1016.936 746.476 L 1081.939 724.664 L 1065.453 836.971 L 1070.732 941.98 L 1058.903 941.98 L 1031.344 848.732 L 1018.989 756.037 L 1016.936 746.476" fill="rgb(93,102,211)"/><path d=" M 1058.204 940.584 L 1071.373 940.629 L 1074.417 951.829 L 1074.083 951.917 L 1074.165 951.929 L 1052.04 964.197 L 1041.663 965.052 L 1040.687 953.192 L 1043.539 951.226 L 1058.204 940.584" fill="rgb(41,41,73)"/><path d=" M 966.369 747.157 L 980.611 947.14 L 991.812 948.524 L 1008.641 837.78 L 1033.788 734.66 L 966.369 747.157" fill="rgb(93,102,211)"/><path d=" M 980.053 945.132 L 962.916 954.21 L 964.267 962.213 L 994.531 958.534 L 993.087 947.019 L 980.053 945.132 Z " fill="rgb(41,41,73)"/><path d=" M 1099.665 778.925 C 1101.023 746.216 1071.808 642.2 1071.808 642.2 L 1071.813 642.199 C 1068.724 632.425 1066.367 622.484 1064.956 612.517 C 1063.952 605.421 1042.691 524.779 1044.099 524.676 C 1029.453 525.745 1001.213 522.283 990.364 532.685 C 990.056 532.983 989.759 533.291 989.479 533.611 C 981.021 543.256 976.628 562.787 972.628 574.805 C 967.375 590.595 963.34 606.791 960.584 623.2 C 958.175 637.549 956.744 652.044 955.732 666.553 C 954.861 679.027 955.552 691.429 955.127 703.7 C 954.657 717.284 950.583 732.011 947.543 745.225 C 944.483 758.533 940.597 771.683 935.223 784.252 C 949.763 790.688 965.96 792.427 981.861 792.487 C 997.763 792.548 1013.643 791.015 1029.543 791.257 C 1042.988 791.465 1056.597 792.929 1069.772 790.235 C 1080.248 788.089 1089.917 783.427 1099.667 778.925 L 1099.665 778.925" fill="rgb(214,112,134)"/><path d=" M 993.957 490.473 C 987.273 493.776 980.305 502.289 980.736 510.215 C 980.943 514.031 983.053 516.996 983.113 521.089 C 983.261 529.159 995.496 537.607 988.008 545.389 C 984.159 549.389 978.141 550.173 972.62 550.728 C 971.949 550.795 971.247 550.859 970.627 550.595 C 969.605 550.164 969.108 548.955 969.132 547.847 C 969.155 546.739 969.583 545.685 969.917 544.629 C 973.432 533.584 968.127 520.703 967.5 509.448 C 966.875 498.216 969.533 486.089 978.743 478.769 C 984.917 480.652 989.519 483.26 992.555 488.957 L 993.957 490.473" fill="rgb(41,41,73)"/><path d=" M 998.111 538.412 C 990.496 537.452 984.024 531.833 980.476 525.027 C 976.929 518.221 975.945 510.36 975.909 502.685 C 975.788 477.147 1007.391 475.423 1020.095 493.655 C 1031.167 509.544 1020.251 541.199 998.111 538.412" fill="rgb(239,191,165)"/><path d=" M 1036.369 541.527 C 1032.447 540.409 1028.561 539.176 1025.525 535.863 C 1020.616 530.507 1019.151 520.42 1016.839 513.747 C 1014.403 506.712 1011.523 499.112 1005.129 495.299 C 1000.953 492.808 996.751 493 992.175 493.82 C 989.041 494.381 989.153 495.587 986.184 494.428 C 983.909 493.54 981.427 490.043 980.52 487.892 C 978.989 484.263 979.727 479.975 981.648 476.537 C 984.605 471.247 988.723 468.1 994.495 466.835 C 1014.755 462.393 1032.397 471.461 1042.032 490.217 C 1046.665 499.231 1046.711 510.271 1051.457 518.889 C 1054.387 524.211 1058.767 527.28 1061.427 533.037 C 1068.332 547.975 1080.935 566.337 1083.459 582.691 C 1083.551 583.295 1083.611 583.973 1083.24 584.461 C 1082.483 585.452 1080.917 584.732 1079.937 583.961 C 1074.216 579.461 1068.495 574.96 1062.773 570.46 C 1060.528 568.692 1058.251 566.892 1056.577 564.575 C 1052.415 558.803 1052.312 550.3 1046.72 545.899 C 1043.668 543.497 1040.003 542.56 1036.369 541.527" fill="rgb(41,41,73)"/><path d=" M 1131.257 510.588 C 1135.084 511.301 1145.053 508.633 1147.344 505.115 C 1152.629 496.995 1140.088 499.495 1135.559 499.385 C 1136.077 497.812 1136.627 496.307 1136.827 494.696 C 1137.011 493.22 1123.552 497.055 1122.255 498.465 C 1119.143 501.848 1120.563 504.404 1120.844 508.683 C 1124.319 509.235 1127.789 509.94 1131.257 510.588 Z " fill="rgb(239,191,165)"/><path d=" M 1025.417 592.219 L 1098.963 579.981 L 1132.828 511.305 L 1119.364 500.212 L 1083.528 547.768 L 1046.084 546.177 L 1011.427 547.679 L 1025.417 592.219" fill="rgb(214,112,134)"/><path d=" M 287.288 742.232 L 222.936 718.567 L 236.2 831.3 L 228.515 928.559 L 228.307 929.205 L 228.461 929.224 L 227.948 935.705 L 239.297 937.767 L 269.957 844.032 L 284.961 751.731 L 287.288 742.232" fill="rgb(239,191,165)"/><path d=" M 240.479 935.079 L 227.313 934.745 L 223.951 945.855 L 224.283 945.953 L 224.199 945.963 L 245.965 958.86 L 256.313 960.009 L 257.629 948.183 L 254.833 946.135 L 240.479 935.079" fill="rgb(41,41,73)"/><path d=" M 331.121 744.168 L 311.224 943.033 L 300.055 945.772 L 286.275 833.543 L 264.091 729.747 L 331.121 744.168 Z " fill="rgb(239,191,165)"/><path d=" M 311.776 941.669 L 328.648 951.236 L 327.067 959.196 L 296.92 954.652 L 298.695 943.183 L 311.776 941.669 Z " fill="rgb(41,41,73)"/><path d=" M 361.293 792.643 C 365.364 789.815 365.452 784.892 365.444 779.963 C 365.432 770.703 363.767 761.239 361.644 752.241 C 357.603 735.361 353.023 715.032 351.007 693.16 C 345.801 636.633 327.949 598.7 327.949 598.7 L 322.191 583.34 C 321.045 581.343 319.857 579.367 318.617 577.42 C 311.423 566.132 298.932 546.947 285.572 543.807 C 285.293 543.741 285.012 543.677 284.729 543.616 C 270.684 540.532 252.687 541.964 239.993 548.792 C 237.584 550.087 235.443 551.813 233.316 553.528 C 227.109 558.535 222.047 561.247 219.371 568.876 C 217.048 575.501 216.508 582.729 215.227 589.593 C 212.624 603.541 211.072 617.656 208.993 631.685 C 205.097 657.993 201.788 684.385 197.619 710.652 C 195.473 724.172 193.312 737.715 192.299 751.375 C 191.403 763.453 180.507 775.716 174.384 786.54 C 172.253 790.307 202.853 800.068 205.595 800.705 C 218.288 803.66 231.791 802.907 244.876 802.965 C 273.551 803.095 302.231 802.211 330.843 800.313 C 340.351 799.684 352.068 797.868 360.504 793.136 C 360.783 792.979 361.045 792.815 361.293 792.643" fill="rgb(71,78,187)"/><path d=" M 268.98 542.071 C 268.98 542.071 252.828 537.709 250.596 574.155 C 248.365 610.6 244.645 702.829 239.44 728.119 C 234.233 753.408 226.423 803.011 226.423 803.011 L 275.885 804.729 L 332.413 800.265 C 332.413 800.265 313.075 764.564 310.099 739.276 C 307.124 713.987 312.331 618.783 299.687 583.081 C 287.041 547.379 284.389 542.711 268.98 542.071" fill="rgb(140,171,239)"/><path d=" M 342.083 623.245 L 345.801 627.707 L 359.189 609.113 L 305.637 549.609 L 285.555 543.66 L 295.223 569.693 L 342.083 623.245" fill="rgb(71,78,187)"/><path d=" M 297.323 607.848 L 285.569 598.891 L 289.179 593.7 L 298.585 598.052 L 299.153 594.805 L 308.277 603.695 L 305.253 609.597 L 297.323 607.848" fill="rgb(239,191,165)"/><path d=" M 343.361 605.559 L 342.833 606.716 L 306.197 599.649 L 300.796 611.667 L 345.801 627.707 L 343.361 605.559" fill="rgb(71,78,187)"/><path d=" M 291.508 513.195 C 293.952 520.533 290.416 528.359 287.311 535.045 C 284.556 540.976 283.6 544.879 290.589 546.479 C 294.528 547.381 301.517 549.064 304.972 546.048 C 307.587 543.763 306.116 536.708 304.844 533.905 C 303.872 531.765 301.3 530.679 300.385 528.513 C 300.009 527.621 299.955 526.629 299.941 525.661 C 299.887 521.704 300.433 517.74 301.559 513.947 C 302.323 511.371 303.357 508.84 303.587 506.164 C 303.921 502.281 301.177 497.759 299.735 494.192 C 297.051 487.556 287.711 478.656 279.889 483.864 C 278.109 485.051 277.072 487.056 276.205 489.012 C 275.688 490.18 275.195 491.399 275.18 492.676 C 275.12 497.771 279.772 498.631 282.984 501.056 C 286.945 504.045 289.948 508.512 291.508 513.195 Z " fill="rgb(41,41,73)"/><path d=" M 276.633 541.829 C 283.417 540.232 288.721 534.536 291.269 528.049 C 293.819 521.563 293.952 514.369 293.247 507.436 C 290.901 484.363 262.199 485.844 252.48 503.528 C 244.009 518.94 256.909 546.476 276.633 541.829" fill="rgb(239,191,165)"/><path d=" M 276.627 539.344 C 276.512 541.972 276.399 544.6 276.284 547.228 C 276.268 547.613 276.236 548.035 275.967 548.311 C 275.66 548.625 275.167 548.631 274.728 548.616 C 272.585 548.541 270.444 548.468 268.303 548.393 C 267.241 548.357 266.137 548.308 265.201 547.807 C 263.152 546.707 262.728 543.929 263.056 541.628 C 263.383 539.325 264.208 537.007 263.72 534.733 C 268.143 536.912 272.344 531.988 276.767 534.167 L 276.627 539.344" fill="rgb(239,191,165)"/><path d=" M 267.369 467.435 C 259.833 469.996 255 477.617 247.647 480.663 C 243.428 482.408 238.437 482.629 234.996 485.629 C 227.284 492.351 233.483 506.455 227.147 514.487 C 225.829 516.156 224.053 517.419 222.731 519.084 C 219.877 522.677 219.504 527.581 219.251 532.161 C 219.192 533.192 219.183 534.315 219.361 535.352 C 220.352 545.929 235.708 545.257 241.808 544.58 C 248.503 543.836 246.272 540.117 246.272 540.117 L 246.028 539.82 C 245.387 535.525 247.152 530.944 250.527 528.208 C 251.779 527.193 253.26 526.384 254.143 525.035 C 256.124 522.008 254.232 517.997 254.524 514.391 C 255.696 499.865 280.076 502.977 286.955 492.637 C 295.392 479.955 281.603 462.6 267.369 467.435" fill="rgb(41,41,73)"/><path d=" M 347.104 266.751 L 137.151 283.801 C 136.341 283.867 135.745 284.621 135.817 285.487 L 148.992 441.871 C 149.065 442.736 149.78 443.385 150.588 443.319 L 198.044 439.465 L 234.392 481.685 C 235.455 482.919 237.504 482.104 237.392 480.492 L 234.36 436.516 L 316.44 429.851 C 341.605 427.807 360.168 404.325 357.9 377.401 L 348.7 268.199 C 348.628 267.333 347.912 266.685 347.104 266.751" fill="rgb(214,112,134)"/><path d=" M 323.723 300.312 L 192.944 310.932 L 192.493 305.583 L 323.273 294.961 L 323.723 300.312" fill="rgb(255,255,238)"/><path d=" M 327.16 341.107 L 171.177 353.775 L 170.727 348.424 L 326.709 335.756 L 327.16 341.107 Z " fill="rgb(255,255,238)"/><path d=" M 330.597 381.901 L 174.615 394.569 L 174.164 389.22 L 330.145 376.552 L 330.597 381.901 Z " fill="rgb(255,255,238)"/><path d=" M 770.389 320.416 C 770.389 275.124 822.405 238.407 886.569 238.407 C 950.735 238.407 1002.749 275.124 1002.749 320.416 C 1002.749 365.709 950.735 402.425 886.569 402.425 C 884.02 402.425 881.489 402.364 878.98 402.249 C 877.841 402.196 876.952 403.221 877.157 404.343 L 886.415 454.833 C 886.737 456.593 884.545 457.671 883.348 456.34 L 822.897 389.172 C 822.739 388.996 822.545 388.855 822.332 388.753 C 791.027 374.061 770.389 348.943 770.389 320.416" fill="rgb(59,51,135)"/><path d=" M 935.993 330.451 C 929.293 330.451 929.281 320.037 935.993 320.037 C 942.695 320.037 942.705 330.451 935.993 330.451 Z " fill="rgb(236,233,222)"/><path d=" M 889.132 330.451 C 882.431 330.451 882.419 320.037 889.132 320.037 C 895.832 320.037 895.843 330.451 889.132 330.451 Z " fill="rgb(236,233,222)"/><path d=" M 830.553 330.451 C 823.852 330.451 823.841 320.037 830.553 320.037 C 837.253 320.037 837.264 330.451 830.553 330.451 Z " fill="rgb(236,233,222)"/><path d=" M 188.04 441.764 L 192.444 426.331 L 199.121 427.924 L 198.447 439.161 L 201.955 438.448 L 196.579 451.196 L 189.413 450.476 L 188.04 441.764" fill="rgb(239,191,165)"/><path d=" M 246.949 558.955 L 198.132 519.525 L 199.847 447.491 L 185.555 446.788 L 164.681 531.388 L 213.564 593.057 L 246.949 558.955" fill="rgb(71,78,187)"/><path d=" M 873.235 540.692 L 905.051 506.32 L 897.555 413.167 L 911.535 407.027 L 930.552 501.521 L 924.732 525.072 L 889.064 574.277 L 873.235 540.692 Z " fill="rgb(53,58,133)"/><path d=" M 911.535 407.027 L 911.535 385.669 L 901.765 379.963 L 897.067 388.627 L 897.067 397.323 L 891.996 399.409 L 897.555 413.167 L 911.535 407.027" fill="rgb(185,114,98)"/><path d=" M 574.609 205.615 L 744.667 205.288 C 760.408 205.257 773.193 217.995 773.223 233.735 L 773.433 343.353 C 773.464 359.029 760.827 371.788 745.151 371.908 L 717.823 372.117 L 686.751 415.891 C 685.843 417.168 683.829 416.545 683.804 414.977 L 683.083 372.185 L 574.861 372.139 C 559.147 372.132 546.403 359.407 546.372 343.692 L 546.163 234.171 C 546.132 218.429 558.868 205.644 574.609 205.615" fill="rgb(71,78,187)"/><path d=" M 578.883 244.248 L 714.736 244.283 L 714.737 238.623 L 578.884 238.588 L 578.883 244.248 Z " fill="rgb(255,255,239)"/><path d=" M 578.872 287.409 L 740.905 287.451 L 740.907 281.791 L 578.873 281.749 L 578.872 287.409 Z " fill="rgb(255,255,239)"/><path d=" M 578.861 330.572 L 740.893 330.612 L 740.895 324.952 L 578.861 324.911 L 578.861 330.572 Z " fill="rgb(255,255,239)"/><path d=" M 571.216 353.372 C 570.859 331.679 553.101 314.361 531.46 314.475 C 531.477 313.793 531.489 313.109 531.479 312.42 C 531.041 285.924 509.208 264.799 482.712 265.236 C 468.295 265.473 455.477 272.055 446.849 282.267 C 438.564 273.131 426.544 267.468 413.244 267.687 C 389.573 268.077 370.543 286.933 369.64 310.304 C 368.637 310.244 367.628 310.209 366.607 310.225 C 344.761 310.585 327.344 328.587 327.704 350.432 C 327.995 368.005 339.704 382.704 355.643 387.597 C 353.743 392.248 352.729 397.349 352.817 402.691 C 353.167 423.832 370.587 440.685 391.727 440.336 C 393.348 440.309 394.943 440.179 396.507 439.956 L 397.181 480.901 C 397.237 482.676 399.528 483.348 400.157 482.433 L 425.509 445.595 C 431.628 449.512 438.923 451.741 446.733 451.612 C 460.899 451.379 473.131 443.473 479.561 431.928 C 486.197 435.933 493.997 438.192 502.319 438.055 C 525.927 437.665 544.748 418.212 544.359 394.605 C 544.341 393.579 544.276 392.564 544.188 391.556 C 560.132 386.24 571.508 371.069 571.216 353.372" fill="rgb(238,213,213)"/><path d=" M 495.887 358.811 C 490.045 358.908 490.185 367.985 496.036 367.889 C 501.877 367.793 501.737 358.715 495.887 358.811 Z " fill="rgb(214,112,134)"/><path d=" M 455.036 359.485 C 449.195 359.581 449.333 368.66 455.185 368.563 C 461.027 368.467 460.887 359.389 455.036 359.485 Z " fill="rgb(214,112,134)"/><path d=" M 403.972 360.328 C 398.131 360.424 398.271 369.501 404.121 369.405 C 409.963 369.309 409.823 360.231 403.972 360.328 Z " fill="rgb(214,112,134)"/><path d=" M 531.717 429.424 L 522.877 416.029 L 516.988 419.557 L 521.009 430.071 L 517.449 430.447 L 526.411 440.988 L 533.028 438.147 L 531.717 429.424 Z " fill="rgb(185,114,98)"/><path d=" M 502.817 549.331 L 545.473 506.621 L 522.18 438.436 L 535.599 433.469 L 580.944 507.877 L 522.511 580.304 L 502.817 549.331" fill="rgb(140,171,239)"/></g></g></svg>