<svg xmlns="http://www.w3.org/2000/svg" width="70" height="70" viewBox="0 0 70 70" >
  
<defs fill="none" stroke="none"><mask id="maskSivxrv2q71nx"><rect x="35" y="0" width="35" height="70" rx="0" ry="0" fill="#ffffff"></rect></mask></defs><g class="content"><g class="base"><g fill="none" fill-rule="evenodd" stroke="none" class="main-fill">
    
    <path fill="none" d="M1.00765,11.2385583 C1.66080833,9.03035 3.416875,8.622425 3.72954167,8.567825 C5.44955833,4.5059 9.53009167,1.64686667 14.2753917,1.64686667 C19.0404083,1.64686667 23.1209417,4.51750833 24.83985,8.59104167 C24.8910083,8.60498333 24.9479417,8.618925 25.0095417,8.63636667 L25.0095417,3.173975 C24.406375,2.927575 23.9728417,2.34068333 23.9728417,1.64680833 C23.9705083,0.736866667 24.7270917,0 25.639425,0 C26.5645333,0 27.3187833,0.736866667 27.3187833,1.64686667 C27.3187833,2.426725 26.77255,3.07755 26.0356833,3.25301667 L26.0356833,9.14888333 C26.564475,9.535925 27.1339833,10.1855833 27.452425,11.2385583 C27.452425,11.2385583 28.006825,13.9488417 27.0839917,14.6333833 C27.0839917,14.6333833 26.6411833,15.259825 25.3372,15.749125 C25.2314417,16.1303333 25.1186833,16.5057083 24.980375,16.8810833 C24.494575,16.9461833 23.9738917,17.0461083 23.4241583,17.1577 C24.219125,15.771175 24.6793167,14.1801333 24.6793167,12.4984417 C24.6793167,7.0686 19.9724,2.66968333 14.1787917,2.66968333 C8.37940833,2.66968333 3.6771,7.06865833 3.6771,12.4984417 C3.6771,14.230125 4.153625,15.8537167 4.99969167,17.2692917 C4.522,17.1623667 4.059475,17.0752167 3.624775,16.9950083 C3.47369167,16.6103 3.34121667,16.2070417 3.23195833,15.7991167 C3.22845833,15.7967833 3.21801667,15.7967833 3.21451667,15.7956167 C1.83849167,15.3028167 1.36546667,14.63455 1.36546667,14.63455 C0.448583333,13.9487833 1.00765,11.2385583 1.00765,11.2385583 L1.00765,11.2385583 Z M13.94645,23.3499 C9.92524167,18.5162833 0,18.0653083 0,18.0653083 L0,21.7669083 C8.98735833,21.8157333 13.94645,27.8929 13.94645,27.8929 L13.94645,27.8929 C13.94645,27.8929 18.9079333,21.8157333 27.8929,21.7669083 L27.8929,18.0653083 C27.8929583,18.0653083 17.9746583,18.5162833 13.94645,23.3499 L13.94645,23.3499 Z M23.4312167,14.2032917 C23.4312167,15.3608583 23.2115333,16.4579917 22.8233833,17.4853583 C19.7505,18.1722333 16.0465667,19.5029333 13.94645,22.0365833 L13.94645,22.0365833 C11.932375,19.61225 8.44223333,18.283825 5.44955833,17.5714 C5.03696667,16.5312 4.80450833,15.3922417 4.80450833,14.20335 C4.80450833,9.13610833 8.974525,5.02425 14.1219167,5.02425 C19.2612583,5.023025 23.4312167,9.12794167 23.4312167,14.2032917 L23.4312167,14.2032917 Z M9.723,12.748225 C9.723,12.1776083 9.25814167,11.7161917 8.677025,11.7161917 C8.10174167,11.7161917 7.62988333,12.1764417 7.62988333,12.748225 C7.62988333,13.3188417 8.10174167,13.7790917 8.677025,13.7790917 C9.25814167,13.7733167 9.723,13.3189 9.723,12.748225 L9.723,12.748225 Z M12.204325,10.1448667 C12.204325,9.27319167 11.4825667,8.55615833 10.5958417,8.55615833 C9.70789167,8.55615833 8.98735833,9.27091667 8.98735833,10.1448667 C8.98735833,11.0177083 9.70795,11.7289667 10.5958417,11.7289667 C11.4825667,11.7289667 12.204325,11.0177083 12.204325,10.1448667 L12.204325,10.1448667 Z" transform="translate(21 21)" stroke="none" class="main-fill"></path>
  </g></g><g class="masked" mask="url('#maskSivxrv2q71nx')"><g fill="none" fill-rule="evenodd" stroke="none" class="main-fill--darken">
    
    <path fill="none" d="M1.00765,11.2385583 C1.66080833,9.03035 3.416875,8.622425 3.72954167,8.567825 C5.44955833,4.5059 9.53009167,1.64686667 14.2753917,1.64686667 C19.0404083,1.64686667 23.1209417,4.51750833 24.83985,8.59104167 C24.8910083,8.60498333 24.9479417,8.618925 25.0095417,8.63636667 L25.0095417,3.173975 C24.406375,2.927575 23.9728417,2.34068333 23.9728417,1.64680833 C23.9705083,0.736866667 24.7270917,0 25.639425,0 C26.5645333,0 27.3187833,0.736866667 27.3187833,1.64686667 C27.3187833,2.426725 26.77255,3.07755 26.0356833,3.25301667 L26.0356833,9.14888333 C26.564475,9.535925 27.1339833,10.1855833 27.452425,11.2385583 C27.452425,11.2385583 28.006825,13.9488417 27.0839917,14.6333833 C27.0839917,14.6333833 26.6411833,15.259825 25.3372,15.749125 C25.2314417,16.1303333 25.1186833,16.5057083 24.980375,16.8810833 C24.494575,16.9461833 23.9738917,17.0461083 23.4241583,17.1577 C24.219125,15.771175 24.6793167,14.1801333 24.6793167,12.4984417 C24.6793167,7.0686 19.9724,2.66968333 14.1787917,2.66968333 C8.37940833,2.66968333 3.6771,7.06865833 3.6771,12.4984417 C3.6771,14.230125 4.153625,15.8537167 4.99969167,17.2692917 C4.522,17.1623667 4.059475,17.0752167 3.624775,16.9950083 C3.47369167,16.6103 3.34121667,16.2070417 3.23195833,15.7991167 C3.22845833,15.7967833 3.21801667,15.7967833 3.21451667,15.7956167 C1.83849167,15.3028167 1.36546667,14.63455 1.36546667,14.63455 C0.448583333,13.9487833 1.00765,11.2385583 1.00765,11.2385583 L1.00765,11.2385583 Z M13.94645,23.3499 C9.92524167,18.5162833 0,18.0653083 0,18.0653083 L0,21.7669083 C8.98735833,21.8157333 13.94645,27.8929 13.94645,27.8929 L13.94645,27.8929 C13.94645,27.8929 18.9079333,21.8157333 27.8929,21.7669083 L27.8929,18.0653083 C27.8929583,18.0653083 17.9746583,18.5162833 13.94645,23.3499 L13.94645,23.3499 Z M23.4312167,14.2032917 C23.4312167,15.3608583 23.2115333,16.4579917 22.8233833,17.4853583 C19.7505,18.1722333 16.0465667,19.5029333 13.94645,22.0365833 L13.94645,22.0365833 C11.932375,19.61225 8.44223333,18.283825 5.44955833,17.5714 C5.03696667,16.5312 4.80450833,15.3922417 4.80450833,14.20335 C4.80450833,9.13610833 8.974525,5.02425 14.1219167,5.02425 C19.2612583,5.023025 23.4312167,9.12794167 23.4312167,14.2032917 L23.4312167,14.2032917 Z M9.723,12.748225 C9.723,12.1776083 9.25814167,11.7161917 8.677025,11.7161917 C8.10174167,11.7161917 7.62988333,12.1764417 7.62988333,12.748225 C7.62988333,13.3188417 8.10174167,13.7790917 8.677025,13.7790917 C9.25814167,13.7733167 9.723,13.3189 9.723,12.748225 L9.723,12.748225 Z M12.204325,10.1448667 C12.204325,9.27319167 11.4825667,8.55615833 10.5958417,8.55615833 C9.70789167,8.55615833 8.98735833,9.27091667 8.98735833,10.1448667 C8.98735833,11.0177083 9.70795,11.7289667 10.5958417,11.7289667 C11.4825667,11.7289667 12.204325,11.0177083 12.204325,10.1448667 L12.204325,10.1448667 Z" transform="translate(21 21)" stroke="none" class="main-fill--darken"></path>
  </g></g></g><style>
          .main-fill {fill: #B12048;}
          .main-stroke {stroke: #B12048;}
          .secondary-fill {fill: #F6E8E9;}
          .secondary-stroke {stroke: #F6E8E9;}

          .main-fill--darken {fill: #70142e;}
          .main-stroke--darken {stroke: #70142e;}
          .secondary-fill--darken {fill: #e0b1b4;}
          .secondary-stroke--darken {stroke: #e0b1b4;}

          .main-fill--darkener {fill: #450c1c;}
          .main-stroke--darkener {stroke: #450c1c;}
          .secondary-fill--darkener {fill: #d28c91;}
          .secondary-stroke--darkener {stroke: #d28c91;}
        </style></svg>