<?xml version="1.0" standalone="no"?><!-- Generator: Gravit.io --><svg xmlns="http://www.w3.org/2000/svg" xmlns:xlink="http://www.w3.org/1999/xlink" style="isolation:isolate" viewBox="0 0 34.588 34.588" width="34.588" height="34.588"><defs><clipPath id="_clipPath_qZnB5xAKrV8DzTPcRp9WDxG2it13avKK"><rect width="34.588" height="34.588"/></clipPath></defs><g clip-path="url(#_clipPath_qZnB5xAKrV8DzTPcRp9WDxG2it13avKK)"><g><g><path d=" M 3.706 0 L 3.706 11.529 L 7.412 9.059 L 17.706 9.059 L 17.706 0 L 3.706 0 Z  M 25.529 7.412 C 23.483 7.412 21.824 9.071 21.824 11.118 C 21.824 13.164 23.483 14.824 25.529 14.824 C 27.576 14.824 29.235 13.164 29.235 11.118 C 29.235 9.071 27.576 7.412 25.529 7.412 Z  M 9.059 17.294 C 7.012 17.294 5.353 18.953 5.353 21 C 5.353 23.047 7.012 24.706 9.059 24.706 C 11.106 24.706 12.765 23.047 12.765 21 C 12.765 18.953 11.106 17.294 9.059 17.294 Z  M 25.529 17.294 C 20.526 17.294 16.471 20.612 16.471 24.706 L 34.588 24.706 C 34.588 20.612 30.532 17.294 25.529 17.294 Z  M 9.059 27.176 C 4.056 27.176 0 30.495 0 34.588 L 18.118 34.588 C 18.118 30.495 14.062 27.176 9.059 27.176 Z " fill-rule="evenodd" fill="none"/></g></g><g><g><path d=" M 3.706 0 L 3.706 11.529 L 7.412 9.059 L 17.706 9.059 L 17.706 0 L 3.706 0 Z  M 25.529 7.412 C 23.483 7.412 21.824 9.071 21.824 11.118 C 21.824 13.164 23.483 14.824 25.529 14.824 C 27.576 14.824 29.235 13.164 29.235 11.118 C 29.235 9.071 27.576 7.412 25.529 7.412 Z  M 9.059 17.294 C 7.012 17.294 5.353 18.953 5.353 21 C 5.353 23.047 7.012 24.706 9.059 24.706 C 11.106 24.706 12.765 23.047 12.765 21 C 12.765 18.953 11.106 17.294 9.059 17.294 Z  M 25.529 17.294 C 20.526 17.294 16.471 20.612 16.471 24.706 L 34.588 24.706 C 34.588 20.612 30.532 17.294 25.529 17.294 Z  M 9.059 27.176 C 4.056 27.176 0 30.495 0 34.588 L 18.118 34.588 C 18.118 30.495 14.062 27.176 9.059 27.176 Z " fill-rule="evenodd" fill="none"/></g></g></g></svg>