<svg xmlns="http://www.w3.org/2000/svg" width="70" height="70" viewBox="0 0 70 70" >
  
<defs fill="none" stroke="none"><mask id="maskSiwp1hydahkh"><rect x="35" y="0" width="35" height="70" rx="0" ry="0" fill="#ffffff"></rect></mask></defs><g class="content"><g class="base"><g fill="none" fill-rule="evenodd" stroke="none" class="main-fill">
    
    
    <path fill="none" d="M3.70588235,0.149132941 L3.70588235,11.6785447 L7.41176471,9.20795647 L17.7058824,9.20795647 L17.7058824,0.149132941 L3.70588235,0.149132941 Z M25.5294118,7.56089765 C23.4827094,7.56089765 21.8235294,9.22007759 21.8235294,11.26678 C21.8235294,13.3134824 23.4827094,14.9726624 25.5294118,14.9726624 C27.5761142,14.9726624 29.2352941,13.3134824 29.2352941,11.26678 C29.2352941,9.22007759 27.5761142,7.56089765 25.5294118,7.56089765 Z M9.05882353,17.4432506 C7.01212112,17.4432506 5.35294118,19.1024305 5.35294118,21.1491329 C5.35294118,23.1958354 7.01212112,24.8550153 9.05882353,24.8550153 C11.1055259,24.8550153 12.7647059,23.1958354 12.7647059,21.1491329 C12.7647059,19.1024305 11.1055259,17.4432506 9.05882353,17.4432506 Z M25.5294118,17.4432506 C20.5263631,17.4432506 16.4705882,20.7616212 16.4705882,24.8550153 L34.5882353,24.8550153 C34.5882353,20.7616212 30.5324596,17.4432506 25.5294118,17.4432506 Z M9.05882353,27.3256035 C4.05577488,27.3256035 0,30.6439741 0,34.7373682 L18.1176471,34.7373682 C18.1176471,30.6439741 14.0618714,27.3256035 9.05882353,27.3256035 Z" transform="translate(17.706 17.557)" stroke="none" class="main-fill"></path>
  </g></g><g class="masked" mask="url('#maskSiwp1hydahkh')"><g fill="none" fill-rule="evenodd" stroke="none" class="main-fill--darken">
    
    
    <path fill="none" d="M3.70588235,0.149132941 L3.70588235,11.6785447 L7.41176471,9.20795647 L17.7058824,9.20795647 L17.7058824,0.149132941 L3.70588235,0.149132941 Z M25.5294118,7.56089765 C23.4827094,7.56089765 21.8235294,9.22007759 21.8235294,11.26678 C21.8235294,13.3134824 23.4827094,14.9726624 25.5294118,14.9726624 C27.5761142,14.9726624 29.2352941,13.3134824 29.2352941,11.26678 C29.2352941,9.22007759 27.5761142,7.56089765 25.5294118,7.56089765 Z M9.05882353,17.4432506 C7.01212112,17.4432506 5.35294118,19.1024305 5.35294118,21.1491329 C5.35294118,23.1958354 7.01212112,24.8550153 9.05882353,24.8550153 C11.1055259,24.8550153 12.7647059,23.1958354 12.7647059,21.1491329 C12.7647059,19.1024305 11.1055259,17.4432506 9.05882353,17.4432506 Z M25.5294118,17.4432506 C20.5263631,17.4432506 16.4705882,20.7616212 16.4705882,24.8550153 L34.5882353,24.8550153 C34.5882353,20.7616212 30.5324596,17.4432506 25.5294118,17.4432506 Z M9.05882353,27.3256035 C4.05577488,27.3256035 0,30.6439741 0,34.7373682 L18.1176471,34.7373682 C18.1176471,30.6439741 14.0618714,27.3256035 9.05882353,27.3256035 Z" transform="translate(17.706 17.557)" stroke="none" class="main-fill--darken"></path>
  </g></g></g><style>
          .main-fill {fill: #B12048;}
          .main-stroke {stroke: #B12048;}
          .secondary-fill {fill: #F6E8E9;}
          .secondary-stroke {stroke: #F6E8E9;}

          .main-fill--darken {fill: #70142e;}
          .main-stroke--darken {stroke: #70142e;}
          .secondary-fill--darken {fill: #e0b1b4;}
          .secondary-stroke--darken {stroke: #e0b1b4;}

          .main-fill--darkener {fill: #450c1c;}
          .main-stroke--darkener {stroke: #450c1c;}
          .secondary-fill--darkener {fill: #d28c91;}
          .secondary-stroke--darkener {stroke: #d28c91;}
        </style></svg>