<?xml version="1.0" standalone="no"?><!-- Generator: Gravit.io --><svg xmlns="http://www.w3.org/2000/svg" xmlns:xlink="http://www.w3.org/1999/xlink" style="isolation:isolate" viewBox="0 0 666.667 666.667" width="666.667" height="666.667"><defs><clipPath id="_clipPath_hQdBqH3rM656GorgnUrovkd3B6LZYHd9"><rect width="666.667" height="666.667"/></clipPath></defs><g clip-path="url(#_clipPath_hQdBqH3rM656GorgnUrovkd3B6LZYHd9)"><g><path d=" M 255.948 524.716 C 337.565 524.716 403.696 526.587 403.696 528.907 C 403.696 531.187 337.565 533.059 255.948 533.059 C 174.371 533.059 108.239 531.187 108.239 528.907 C 108.239 526.587 174.371 524.716 255.948 524.716 L 255.948 524.716 Z " fill-rule="evenodd" fill="rgb(70,70,72)"/><path d=" M 236.511 441.316 L 265.207 441.316 L 284.124 516.004 L 216.955 516.004 L 236.511 441.316 Z " fill-rule="evenodd" fill="rgb(70,70,72)"/><path d=" M 269.397 457.963 L 274.467 477.865 L 226.933 477.865 L 232.161 457.963 L 269.397 457.963 Z " fill-rule="evenodd" fill="rgb(47,45,46)"/><path d=" M 124.802 293.772 L 376.317 293.772 C 388.371 293.772 398.268 303.825 398.268 316.157 L 398.268 441.927 C 398.268 454.259 388.371 464.355 376.317 464.355 L 124.802 464.355 C 112.709 464.355 102.811 454.259 102.811 441.927 L 102.811 316.157 C 102.811 303.825 112.709 293.772 124.802 293.772 L 124.802 293.772 Z " fill-rule="evenodd" fill="rgb(70,70,72)"/><path d=" M 135.057 306.919 L 366.063 306.919 C 375.36 306.919 383.024 314.693 383.024 324.216 L 383.024 433.909 C 383.024 443.393 375.36 451.207 366.063 451.207 L 135.057 451.207 C 125.719 451.207 118.057 443.393 118.057 433.909 L 118.057 324.216 C 118.057 314.693 125.719 306.919 135.057 306.919 L 135.057 306.919 Z " fill-rule="evenodd" fill="rgb(148,149,149)"/><path d=" M 136.256 311.803 L 364.864 311.803 C 372.485 311.803 378.752 318.192 378.752 325.968 L 378.752 432.117 C 378.752 439.892 372.485 446.281 364.864 446.281 L 136.256 446.281 C 128.592 446.281 122.367 439.892 122.367 432.117 L 122.367 325.968 C 122.367 318.192 128.592 311.803 136.256 311.803 L 136.256 311.803" fill-rule="evenodd" fill="rgb(126,210,179)"/><path d=" M 190.415 507.905 L 310.665 507.905 C 315.893 507.905 320.124 512.26 320.124 517.551 L 320.124 517.551 C 320.124 522.883 315.893 527.197 310.665 527.197 L 190.415 527.197 C 185.227 527.197 180.956 522.883 180.956 517.551 L 180.956 517.551 C 180.956 512.26 185.227 507.905 190.415 507.905 L 190.415 507.905" fill-rule="evenodd" fill="rgb(95,96,98)"/><path d=" M 359.755 455.073 C 360.992 455.073 362.029 456.132 362.029 457.393 C 362.029 458.696 360.992 459.755 359.755 459.755 C 358.479 459.755 357.441 458.696 357.441 457.393 C 357.441 456.132 358.479 455.073 359.755 455.073 L 359.755 455.073 Z " fill-rule="evenodd" fill="rgb(239,238,15)"/><path d=" M 152.06 346.36 L 190.495 324.747 C 191.692 324.095 193.208 324.501 193.887 325.721 L 193.887 325.721 C 194.527 326.944 194.085 328.491 192.889 329.183 L 154.456 350.755 C 153.257 351.445 151.741 350.999 151.103 349.779 L 151.103 349.779 C 150.424 348.557 150.863 347.012 152.06 346.36 L 152.06 346.36 Z " fill-rule="evenodd" fill="rgb(95,96,98)"/><path d=" M 144.477 366.669 L 211.447 329.06 C 213.523 327.88 216.157 328.653 217.315 330.809 L 217.315 330.809 C 218.472 332.927 217.713 335.615 215.639 336.753 L 148.668 374.403 C 146.593 375.543 143.919 374.768 142.801 372.652 L 142.801 372.652 C 141.644 370.535 142.401 367.849 144.477 366.669 L 144.477 366.669" fill-rule="evenodd" fill="rgb(95,96,98)"/><path d=" M 363.147 401.063 L 303.163 434.761 C 301.287 435.82 298.932 435.131 297.893 433.216 L 297.893 433.216 C 296.896 431.304 297.575 428.901 299.411 427.844 L 359.436 394.143 C 361.272 393.127 363.627 393.819 364.663 395.731 L 364.663 395.731 C 365.7 397.603 365.024 400.004 363.147 401.063 L 363.147 401.063" fill-rule="evenodd" fill="rgb(95,96,98)"/><path d=" M 356.363 419.296 L 321.919 438.631 C 320.843 439.243 319.485 438.833 318.927 437.735 L 318.927 437.735 C 318.328 436.636 318.727 435.252 319.764 434.683 L 354.207 415.307 C 355.285 414.739 356.643 415.145 357.241 416.204 L 357.241 416.204 C 357.8 417.303 357.441 418.687 356.363 419.296 L 356.363 419.296" fill-rule="evenodd" fill="rgb(95,96,98)"/><path d=" M 341.915 311.803 L 364.864 311.803 C 372.485 311.803 378.752 318.192 378.752 325.968 L 378.752 359.628 C 365.743 364.879 351.733 366.181 347.863 364.552 L 345.908 365.123 L 340.199 368.135 L 347.744 381.729 L 325.512 394.591 L 327.468 398.132 L 327.468 398.132 L 244.093 446.281 L 136.256 446.281 C 136.016 446.281 135.777 446.281 135.537 446.281 C 133.701 443.881 132.584 440.828 132.584 437.572 L 132.584 411.644 L 285.801 323.117 L 287.796 326.659 L 310.027 313.797 L 317.609 327.473 L 336.807 317.379 L 337.484 318.681 L 341.756 312.373 L 341.915 311.803 Z " fill-rule="evenodd" fill="rgb(85,175,144)"/><path d=" M 318.288 318.477 L 335.251 356.739 C 335.251 356.739 345.985 364.145 368.417 356.251 C 390.887 348.395 412.677 338.179 412.677 338.179 L 393.879 286.037 C 393.879 286.037 381.507 271.588 363.307 279.404 C 345.108 287.177 332.296 295.929 332.296 295.929 L 318.288 318.477" fill-rule="evenodd" fill="rgb(249,171,124)"/><path d=" M 331.659 348.679 L 335.251 356.739 C 335.251 356.739 345.985 364.145 368.417 356.251 C 390.887 348.395 412.677 338.179 412.677 338.179 L 406.132 319.984 L 331.659 348.679" fill-rule="evenodd" fill="rgb(199,128,87)"/><path d=" M 279.136 337.039 L 326.549 312.168 L 347.541 353.687 L 300.129 378.595 L 279.136 337.039" fill-rule="evenodd" fill="rgb(249,171,124)"/><path d=" M 342.795 344.324 L 347.541 353.687 L 300.129 378.595 L 295.379 369.233 L 342.795 344.324" fill-rule="evenodd" fill="rgb(199,128,87)"/><path d=" M 299.769 308.587 L 269.557 326.048 L 307.273 393.98 L 337.525 376.519 L 299.769 308.587" fill-rule="evenodd" fill="rgb(210,201,233)"/><path d=" M 294.183 370.372 L 307.273 393.98 L 337.525 376.519 L 324.393 352.912 L 294.183 370.372" fill-rule="evenodd" fill="rgb(190,180,224)"/><path d=" M 316.891 371.84 C 319.405 370.372 322.599 371.268 324.035 373.833 C 325.472 376.396 324.593 379.695 322.039 381.119 C 319.525 382.584 316.333 381.689 314.896 379.124 C 313.46 376.559 314.376 373.263 316.891 371.84 L 316.891 371.84" fill-rule="evenodd" fill="rgb(210,201,233)"/><path d=" M 122.367 406.393 L 275.584 317.908 L 317.251 392.921 L 224.419 446.527 L 136.256 446.527 C 128.592 446.527 122.367 440.136 122.367 432.361 L 122.367 406.393" fill-rule="evenodd" fill="rgb(97,43,47)"/><path d=" M 302.164 365.773 L 317.251 392.881 L 224.419 446.527 L 162.357 446.527 L 302.164 365.773 Z " fill-rule="evenodd" fill="rgb(76,33,35)"/><path d=" M 317.411 372.775 C 319.405 371.635 321.919 372.367 323.077 374.403 C 324.195 376.439 323.516 379.043 321.52 380.183 C 319.485 381.321 316.971 380.631 315.813 378.595 C 314.696 376.559 315.415 373.956 317.411 372.775 L 317.411 372.775 Z " fill-rule="evenodd" fill="rgb(122,124,125)"/><path d=" M 318.528 374.809 C 318.887 374.607 319.365 374.729 319.565 375.095 C 319.764 375.46 319.644 375.949 319.285 376.152 C 318.887 376.396 318.448 376.233 318.208 375.867 C 318.009 375.503 318.128 375.013 318.528 374.809 L 318.528 374.809" fill-rule="evenodd" fill="rgb(96,46,21)"/><path d=" M 319.644 376.804 C 320.004 376.601 320.483 376.723 320.683 377.088 C 320.883 377.496 320.763 377.944 320.363 378.188 C 320.004 378.391 319.565 378.269 319.325 377.861 C 319.125 377.496 319.245 377.008 319.644 376.804 L 319.644 376.804" fill-rule="evenodd" fill="rgb(96,46,21)"/><path d=" M 488.188 178.301 C 500.001 174.841 512.373 181.801 515.805 193.849 C 519.197 205.937 512.373 218.555 500.56 222.015 C 499.801 222.259 499.043 222.421 498.285 222.584 L 493.176 204.472 L 490.143 193.727 L 485.993 179.075 C 486.709 178.789 487.429 178.545 488.188 178.301 L 488.188 178.301 Z " fill-rule="evenodd" fill="rgb(237,31,36)"/><path d=" M 350.017 271.468 L 395.156 370.372 L 438.02 357.755 L 367.377 263.612 L 350.017 271.468" fill-rule="evenodd" fill="rgb(210,201,233)"/><path d=" M 392.563 371.147 L 441.931 356.616 C 444.365 355.883 446.92 357.349 447.637 359.832 L 447.637 359.832 C 448.316 362.313 446.92 364.96 444.485 365.652 L 395.156 380.183 C 392.723 380.916 390.128 379.449 389.409 376.967 L 389.409 376.967 C 388.729 374.484 390.128 371.84 392.563 371.147 L 392.563 371.147" fill-rule="evenodd" fill="rgb(95,96,98)"/><path d=" M 371.328 202.275 L 472.503 131.453 L 490.143 193.727 L 493.176 204.472 L 510.817 266.745 L 388.172 261.861 L 381.267 237.441 L 378.233 226.695 L 371.328 202.275" fill-rule="evenodd" fill="rgb(210,201,233)"/><path d=" M 493.216 204.553 L 510.817 266.745 L 388.172 261.861 L 381.267 237.521 L 493.216 204.553" fill-rule="evenodd" fill="rgb(176,165,217)"/><path d=" M 475.615 121.075 L 475.615 121.075 C 478.689 120.179 481.921 122.009 482.8 125.143 L 522.829 266.5 C 523.708 269.636 521.952 272.932 518.879 273.868 L 518.879 273.868 C 515.805 274.764 512.573 272.932 511.655 269.799 L 471.665 128.4 C 470.748 125.267 472.543 121.969 475.615 121.075 L 475.615 121.075" fill-rule="evenodd" fill="rgb(95,96,98)"/><path d=" M 504.351 201.256 L 522.829 266.5 C 523.708 269.636 521.952 272.932 518.879 273.868 L 518.879 273.868 C 515.805 274.764 512.573 272.932 511.655 269.799 L 493.216 204.553 L 504.351 201.256" fill-rule="evenodd" fill="rgb(70,70,72)"/><path d=" M 327.827 211.432 L 367.536 199.751 C 372.765 198.204 378.273 201.297 379.751 206.629 L 393.04 253.559 C 394.559 258.889 391.525 264.467 386.296 266.013 L 346.585 277.695 C 341.396 279.241 335.888 276.148 334.372 270.816 L 321.121 223.887 C 319.605 218.595 322.639 212.979 327.827 211.432 L 327.827 211.432" fill-rule="evenodd" fill="rgb(151,142,207)"/><path d=" M 387.932 235.528 L 393.04 253.559 C 394.559 258.889 391.525 264.467 386.296 266.013 L 346.585 277.695 C 341.396 279.241 335.888 276.148 334.372 270.816 L 329.304 252.827 L 387.932 235.528 Z " fill-rule="evenodd" fill="rgb(130,123,197)"/><path d=" M 312.861 224.579 L 320.763 222.259 C 320.843 222.788 320.963 223.357 321.121 223.887 L 334.372 270.816 C 334.531 271.385 334.732 271.915 334.971 272.403 L 327.028 274.764 C 323.077 275.903 318.927 273.584 317.809 269.555 L 307.751 234.021 C 306.595 229.992 308.909 225.759 312.861 224.579 L 312.861 224.579" fill-rule="evenodd" fill="rgb(95,96,98)"/><path d=" M 329.304 252.827 L 334.372 270.816 C 334.531 271.385 334.732 271.915 334.971 272.403 L 327.028 274.764 C 323.077 275.903 318.927 273.584 317.809 269.555 L 314.297 257.223 L 329.304 252.827" fill-rule="evenodd" fill="rgb(70,70,72)"/><path d=" M 414.992 177.935 L 450.872 153.839 C 452.828 152.536 455.461 153.107 456.737 155.1 L 456.737 155.1 C 458.055 157.095 457.496 159.781 455.541 161.084 L 419.661 185.22 C 417.705 186.523 415.072 185.952 413.795 183.959 L 413.795 183.959 C 412.476 181.964 413.036 179.277 414.992 177.935 L 414.992 177.935" fill-rule="evenodd" fill="rgb(255,255,255)"/><path d=" M 404.493 185.016 L 405.135 184.569 C 407.089 183.265 409.763 183.836 411.04 185.831 L 411.04 185.831 C 412.317 187.784 411.8 190.511 409.844 191.813 L 409.164 192.261 C 407.208 193.564 404.576 193.035 403.299 191.04 L 403.299 191.04 C 401.981 189.047 402.539 186.319 404.493 185.016 L 404.493 185.016" fill-rule="evenodd" fill="rgb(255,255,255)"/><path d=" M 532.409 185.545 L 565.853 175.899 C 568.925 175.004 572.119 176.836 572.997 179.969 L 572.997 179.969 C 573.875 183.104 572.08 186.4 569.007 187.255 L 535.561 196.943 C 532.528 197.797 529.297 195.965 528.417 192.872 L 528.417 192.872 C 527.58 189.737 529.375 186.441 532.409 185.545 L 532.409 185.545 Z " fill-rule="evenodd" fill="rgb(237,31,36)"/><path d=" M 536.44 232.637 L 570.124 241.348 C 573.237 242.121 575.112 245.377 574.355 248.511 L 574.355 248.511 C 573.556 251.644 570.403 253.599 567.289 252.784 L 533.605 244.115 C 530.532 243.301 528.655 240.085 529.416 236.952 L 529.416 236.952 C 530.215 233.777 533.364 231.864 536.44 232.637 L 536.44 232.637" fill-rule="evenodd" fill="rgb(237,31,36)"/><path d=" M 514.449 151.681 L 538.635 126.283 C 540.869 123.964 540.829 120.219 538.516 117.94 L 538.516 117.94 C 536.24 115.661 532.568 115.741 530.333 118.061 L 506.108 143.46 C 503.913 145.78 503.951 149.565 506.227 151.804 L 506.227 151.804 C 508.541 154.083 512.213 154.043 514.449 151.681 L 514.449 151.681" fill-rule="evenodd" fill="rgb(237,31,36)"/><path d=" M 387.493 331.34 L 388.052 331.096 C 384.659 332.439 380.789 330.647 379.472 327.149 L 378.273 323.932 C 376.997 320.431 378.752 316.484 382.185 315.181 C 378.752 316.484 374.881 314.693 373.604 311.232 L 372.408 307.977 C 371.089 304.476 372.847 300.528 376.277 299.225 L 375.84 299.388 C 372.645 300.609 369.055 298.981 367.859 295.724 L 366.74 292.673 C 365.541 289.417 367.139 285.753 370.332 284.532 L 399.228 273.42 C 402.419 272.199 406.012 273.828 407.208 277.084 L 408.327 280.136 C 409.525 283.392 407.927 287.056 404.735 288.277 L 407.249 287.3 C 410.681 285.957 414.553 287.748 415.829 291.249 L 417.028 294.503 C 418.345 297.964 416.587 301.911 413.156 303.215 C 416.587 301.911 420.459 303.703 421.737 307.203 L 422.932 310.419 C 424.212 313.919 422.495 317.867 419.063 319.169 L 415.711 320.472 C 418.823 319.251 422.335 320.88 423.492 324.053 L 424.611 327.027 C 425.768 330.2 424.171 333.783 421.059 334.963 L 392.881 345.831 C 389.767 347.012 386.255 345.423 385.059 342.251 L 383.98 339.277 C 382.784 336.103 384.38 332.52 387.493 331.34 L 387.493 331.34 Z " fill-rule="evenodd" fill="rgb(249,171,124)"/><path d=" M 387.493 331.34 L 388.052 331.096 C 384.82 332.357 381.188 330.809 379.711 327.717 L 423.135 310.988 C 424.052 314.325 422.295 317.908 419.063 319.169 L 415.711 320.472 C 416.148 320.309 416.587 320.187 417.028 320.107 L 386.296 331.951 C 386.655 331.707 387.053 331.503 387.493 331.34 L 387.493 331.34" fill-rule="evenodd" fill="rgb(199,128,87)"/><path d=" M 381.667 315.547 L 382.224 315.303 C 378.992 316.564 375.36 315.019 373.884 311.925 L 417.267 295.196 C 418.185 298.533 416.469 302.116 413.195 303.377 L 409.844 304.679 C 410.283 304.519 410.761 304.395 411.2 304.313 L 380.429 316.157 C 380.789 315.915 381.227 315.711 381.667 315.547 L 381.667 315.547" fill-rule="evenodd" fill="rgb(199,128,87)"/><path d=" M 375.24 299.308 L 375.8 299.104 C 372.765 300.283 369.295 298.696 367.816 295.563 L 408.487 279.892 C 409.404 283.229 407.848 286.771 404.815 287.911 L 401.661 289.132 C 402.06 288.969 402.5 288.888 402.937 288.805 L 374.124 299.917 C 374.441 299.673 374.841 299.469 375.24 299.308 L 375.24 299.308" fill-rule="evenodd" fill="rgb(199,128,87)"/><path d=" M 390.087 346.196 C 387.972 345.953 385.936 344.487 384.939 342.289 L 424.731 326.984 C 425.568 329.996 424.411 333.131 421.976 334.556 C 421.696 334.719 421.459 334.84 421.179 334.921 C 412.956 338.097 403.537 341.921 394.359 345.423 C 393.04 345.953 392.563 346.521 390.087 346.196 L 390.087 346.196 Z " fill-rule="evenodd" fill="rgb(199,128,87)"/><path d=" M 325.951 315.099 C 325.951 315.099 331.499 289.376 340.239 284.492 C 348.979 279.608 363.147 273.136 370.492 275.416 C 377.875 277.695 387.372 304.965 382.265 307.408 C 377.156 309.889 376.837 312.128 372.527 308.667 C 368.216 305.208 363.627 290.84 363.627 290.84 C 363.627 290.84 355.167 291.329 354.047 297.883 C 352.452 307.447 371.848 316.361 348.94 325.683 C 336.288 330.809 331.977 330.281 331.977 330.281 L 325.951 315.099" fill-rule="evenodd" fill="rgb(199,128,87)"/><path d=" M 322.639 312.78 C 322.639 312.78 328.225 287.096 336.925 282.171 C 345.668 277.287 359.836 270.816 367.219 273.096 C 374.561 275.375 384.061 302.645 378.953 305.127 C 373.844 307.611 373.524 309.808 369.213 306.348 C 364.943 302.889 360.315 288.521 360.315 288.521 C 360.315 288.521 351.853 289.009 350.775 295.563 C 349.139 305.127 368.536 314.041 345.668 323.361 C 333.015 328.532 328.665 328.001 328.665 328.001 L 322.639 312.78" fill-rule="evenodd" fill="rgb(249,171,124)"/><path d=" M 262.709 169.912 L 191.199 169.912 C 179.631 169.912 170.131 178.496 170.131 188.991 L 170.131 222.103 C 170.131 232.599 179.631 241.181 191.199 241.181 L 247.287 241.181 L 278.131 278.081 L 263.503 241.147 C 274.713 240.787 283.736 232.347 283.736 222.103 L 283.736 188.991 C 283.736 178.496 274.276 169.912 262.709 169.912 L 262.709 169.912 Z " fill-rule="evenodd" fill="rgb(73,105,187)"/><path d=" M 265.849 182.572 L 188.02 182.572 C 185.713 182.572 183.807 184.303 183.807 186.395 L 183.807 186.395 C 183.807 188.487 185.713 190.22 188.02 190.22 L 265.849 190.22 C 268.155 190.22 270.063 188.487 270.063 186.395 L 270.063 186.395 C 270.063 184.303 268.155 182.572 265.849 182.572 L 265.849 182.572 Z " fill-rule="evenodd" fill="rgb(255,255,255)"/><path d=" M 265.849 200.533 L 188.02 200.533 C 185.713 200.533 183.807 202.265 183.807 204.357 L 183.807 204.357 C 183.807 206.449 185.713 208.18 188.02 208.18 L 265.849 208.18 C 268.155 208.18 270.063 206.449 270.063 204.357 L 270.063 204.357 C 270.063 202.265 268.155 200.533 265.849 200.533 L 265.849 200.533 Z " fill-rule="evenodd" fill="rgb(255,255,255)"/><path d=" M 265.849 218.531 L 188.02 218.531 C 185.713 218.531 183.807 220.228 183.807 222.356 L 183.807 222.356 C 183.807 224.448 185.713 226.141 188.02 226.141 L 265.849 226.141 C 268.155 226.141 270.063 224.448 270.063 222.356 L 270.063 222.356 C 270.063 220.228 268.155 218.531 265.849 218.531 L 265.849 218.531 Z " fill-rule="evenodd" fill="rgb(255,255,255)"/><path d=" M 138.609 221.689 L 97.25 221.689 C 90.559 221.689 85.065 226.655 85.065 232.724 L 85.065 251.875 C 85.065 257.945 90.559 262.909 97.25 262.909 L 129.69 262.909 L 147.528 284.251 L 139.068 262.889 C 145.552 262.68 150.771 257.799 150.771 251.875 L 150.771 232.724 C 150.771 226.655 145.299 221.689 138.609 221.689 L 138.609 221.689 Z " fill-rule="evenodd" fill="rgb(128,204,40)"/><path d=" M 140.425 229.011 L 95.412 229.011 C 94.078 229.011 92.975 230.012 92.975 231.223 L 92.975 231.223 C 92.975 232.432 94.078 233.435 95.412 233.435 L 140.425 233.435 C 141.759 233.435 142.861 232.432 142.861 231.223 L 142.861 231.223 C 142.861 230.012 141.759 229.011 140.425 229.011 L 140.425 229.011 Z " fill-rule="evenodd" fill="rgb(255,255,255)"/><path d=" M 140.425 239.4 L 95.412 239.4 C 94.078 239.4 92.975 240.401 92.975 241.611 L 92.975 241.611 C 92.975 242.821 94.078 243.823 95.412 243.823 L 140.425 243.823 C 141.759 243.823 142.861 242.821 142.861 241.611 L 142.861 241.611 C 142.861 240.401 141.759 239.4 140.425 239.4 L 140.425 239.4 Z " fill-rule="evenodd" fill="rgb(255,255,255)"/><path d=" M 140.425 249.809 L 95.412 249.809 C 94.078 249.809 92.975 250.791 92.975 252.021 L 92.975 252.021 C 92.975 253.231 94.078 254.211 95.412 254.211 L 140.425 254.211 C 141.759 254.211 142.861 253.231 142.861 252.021 L 142.861 252.021 C 142.861 250.791 141.759 249.809 140.425 249.809 L 140.425 249.809 Z " fill-rule="evenodd" fill="rgb(255,255,255)"/><path d=" M 494.08 296.133 L 551.997 296.133 C 561.367 296.133 569.061 303.085 569.061 311.585 L 569.061 338.404 C 569.061 346.905 561.367 353.857 551.997 353.857 L 506.571 353.857 L 481.588 383.743 L 493.436 353.828 C 484.357 353.536 477.049 346.7 477.049 338.404 L 477.049 311.585 C 477.049 303.085 484.711 296.133 494.08 296.133 L 494.08 296.133 Z " fill-rule="evenodd" fill="rgb(253,221,16)"/><path d=" M 491.536 306.387 L 554.572 306.387 C 556.44 306.387 557.984 307.789 557.984 309.483 L 557.984 309.483 C 557.984 311.177 556.44 312.581 554.572 312.581 L 491.536 312.581 C 489.669 312.581 488.124 311.177 488.124 309.483 L 488.124 309.483 C 488.124 307.789 489.669 306.387 491.536 306.387 L 491.536 306.387 Z " fill-rule="evenodd" fill="rgb(255,255,255)"/><path d=" M 491.536 320.935 L 554.572 320.935 C 556.44 320.935 557.984 322.337 557.984 324.031 L 557.984 324.031 C 557.984 325.727 556.44 327.128 554.572 327.128 L 491.536 327.128 C 489.669 327.128 488.124 325.727 488.124 324.031 L 488.124 324.031 C 488.124 322.337 489.669 320.935 491.536 320.935 L 491.536 320.935 Z " fill-rule="evenodd" fill="rgb(255,255,255)"/><path d=" M 491.536 335.512 L 554.572 335.512 C 556.44 335.512 557.984 336.885 557.984 338.609 L 557.984 338.609 C 557.984 340.304 556.44 341.676 554.572 341.676 L 491.536 341.676 C 489.669 341.676 488.124 340.304 488.124 338.609 L 488.124 338.609 C 488.124 336.885 489.669 335.512 491.536 335.512 L 491.536 335.512 Z " fill-rule="evenodd" fill="rgb(255,255,255)"/><path d=" M 429.441 399.216 L 466.153 399.216 C 472.092 399.216 476.971 403.623 476.971 409.011 L 476.971 426.009 C 476.971 431.397 472.092 435.805 466.153 435.805 L 437.36 435.805 L 421.525 454.748 L 429.033 435.787 C 423.279 435.601 418.647 431.268 418.647 426.009 L 418.647 409.011 C 418.647 403.623 423.504 399.216 429.441 399.216 L 429.441 399.216" fill-rule="evenodd" fill="rgb(241,81,27)"/><path d=" M 427.829 405.715 L 467.785 405.715 C 468.971 405.715 469.949 406.603 469.949 407.677 L 469.949 407.677 C 469.949 408.751 468.971 409.64 467.785 409.64 L 427.829 409.64 C 426.645 409.64 425.667 408.751 425.667 407.677 L 425.667 407.677 C 425.667 406.603 426.645 405.715 427.829 405.715 L 427.829 405.715 Z " fill-rule="evenodd" fill="rgb(255,255,255)"/><path d=" M 427.829 414.936 L 467.785 414.936 C 468.971 414.936 469.949 415.825 469.949 416.899 L 469.949 416.899 C 469.949 417.973 468.971 418.861 467.785 418.861 L 427.829 418.861 C 426.645 418.861 425.667 417.973 425.667 416.899 L 425.667 416.899 C 425.667 415.825 426.645 414.936 427.829 414.936 L 427.829 414.936 Z " fill-rule="evenodd" fill="rgb(255,255,255)"/><path d=" M 427.829 424.176 L 467.785 424.176 C 468.971 424.176 469.949 425.047 469.949 426.139 L 469.949 426.139 C 469.949 427.213 468.971 428.084 467.785 428.084 L 427.829 428.084 C 426.645 428.084 425.667 427.213 425.667 426.139 L 425.667 426.139 C 425.667 425.047 426.645 424.176 427.829 424.176 L 427.829 424.176 Z " fill-rule="evenodd" fill="rgb(255,255,255)"/><path d=" M 326.741 631.457 C 326.739 631.455 326.739 631.451 326.739 631.441 C 326.739 631.451 326.739 631.455 326.741 631.457 Z " fill="rgb(44,41,42)"/><path d=" M 326.855 632.181 C 326.857 632.181 326.857 632.181 326.859 632.181 C 326.813 631.973 326.781 631.771 326.753 631.569 C 326.781 631.773 326.813 631.976 326.855 632.181" fill="rgb(44,41,42)"/><path d=" M 327.603 634.279 C 327.599 634.268 327.595 634.26 327.588 634.249 C 327.595 634.26 327.599 634.268 327.603 634.279 Z " fill="rgb(44,41,42)"/><path d=" M 327.532 634.139 C 327.512 634.1 327.495 634.06 327.475 634.022 C 327.495 634.064 327.512 634.1 327.532 634.139 Z " fill="rgb(44,41,42)"/><path d=" M 327.065 632.988 C 327.176 633.337 327.308 633.676 327.464 633.997 C 327.307 633.668 327.176 633.329 327.068 632.988 L 327.065 632.988 Z " fill="rgb(44,41,42)"/></g></g></svg>