<?xml version="1.0" standalone="no"?><!-- Generator: Gravit.io --><svg xmlns="http://www.w3.org/2000/svg" xmlns:xlink="http://www.w3.org/1999/xlink" style="isolation:isolate" viewBox="0 0 2266.667 1693.333" width="2266.667" height="1693.333"><defs><clipPath id="_clipPath_LLq1WmlyAX5tknx7emlkUmEOSUi60ppc"><rect width="2266.667" height="1693.333"/></clipPath></defs><g clip-path="url(#_clipPath_LLq1WmlyAX5tknx7emlkUmEOSUi60ppc)"><g><g><g opacity="0"><path d=" M 2266.656 0.002 L 2266.656 1693.333 L 0 1693.333 L 0 0.002 L 2266.656 0.002 Z " fill="rgb(255,255,255)"/></g></g><path d=" M 1107.413 1617.333 C 897.533 1617.333 687.287 1607.373 477.399 1598.267 C 384.18 1594.227 226.751 1591.386 197.241 1474.427 C 183.796 1421.133 215.449 1364.187 261.04 1333.493 C 290.716 1313.521 323.636 1302.864 357.883 1296.841 L 351.28 1392.08 L 318.797 1528.8 L 331.24 1537.32 L 342.731 1535.107 L 401.965 1403.333 L 429.888 1333.333 C 432.215 1333.6 434.545 1333.84 436.876 1334.08 L 454.072 1401.72 L 454.704 1539.96 L 469.019 1544.707 L 479.445 1539.387 L 499.928 1396.373 L 510.988 1285.488 C 511.197 1285.472 511.407 1285.457 511.617 1285.441 C 526.095 1284.367 540.712 1282.816 555.208 1280.531 L 555.208 1444.64 L 1668.213 1444.64 C 1724.48 1444.64 1770.08 1399.04 1770.08 1342.787 L 1770.08 1170.135 L 1773.12 1169.471 L 1783.96 1234.512 L 1797.52 1410.907 L 1819.013 1410.907 L 1851.707 1187.175 L 1866.267 1234.512 L 1854.507 1393.267 L 1877.56 1397.867 L 1930.947 1205.113 L 1929.147 1148.025 L 1926.867 1135.807 L 1926.867 1135.803 L 1926.867 1135.803 L 1958.133 1128.957 L 1916.973 934.928 L 1875.813 829.093 L 1793.493 817.335 L 1770.08 848.556 L 1770.08 763.701 C 1785.267 766.016 1800.427 768.552 1815.547 771.329 C 1855.987 778.756 1896.827 788.172 1932.44 808.708 C 1968.067 829.244 1998.24 862.564 2006.147 902.913 C 2008.853 916.772 2008.867 931.319 2004.8 944.843 C 1994.693 978.417 1961.453 1001.107 1951.24 1034.649 C 1936.573 1082.805 1971.253 1114.724 2013.787 1119.688 C 2049.293 1123.832 2099.747 1150.857 2079.707 1196.268 C 2072.267 1213.131 2054.133 1222.593 2036.44 1227.745 C 2018.747 1232.897 1999.973 1235.159 1983.653 1243.719 C 1962.533 1254.803 1947.32 1276.493 1944.093 1300.135 C 1935.267 1364.947 1996.267 1382.173 2043 1401.987 C 2069.693 1413.293 2096.76 1434.907 2096.653 1463.893 C 2096.48 1505.52 2045.16 1524.093 2004.147 1531.213 C 1914.547 1546.787 1825.067 1563.493 1735.067 1576.733 C 1526.507 1607.4 1317.14 1617.333 1107.413 1617.333 Z  M 1289.303 1506.867 C 1284.887 1506.867 1280.471 1508.547 1277.109 1511.907 C 1273.852 1515.16 1272.059 1519.493 1272.059 1524.093 C 1272.059 1528.707 1273.852 1533.04 1277.109 1536.293 C 1280.365 1539.547 1284.696 1541.347 1289.303 1541.347 C 1293.909 1541.347 1298.239 1539.547 1301.495 1536.293 C 1304.752 1533.04 1306.545 1528.707 1306.545 1524.093 C 1306.545 1519.493 1304.752 1515.16 1301.495 1511.907 C 1298.133 1508.547 1293.719 1506.867 1289.303 1506.867 Z  M 1204.169 1506.867 C 1199.753 1506.867 1195.337 1508.547 1191.976 1511.907 C 1188.72 1515.16 1186.925 1519.493 1186.925 1524.093 C 1186.925 1528.707 1188.72 1533.04 1191.976 1536.293 C 1195.233 1539.547 1199.564 1541.347 1204.169 1541.347 C 1208.775 1541.347 1213.105 1539.547 1216.361 1536.293 C 1219.619 1533.04 1221.413 1528.707 1221.413 1524.093 C 1221.413 1519.493 1219.619 1515.16 1216.361 1511.907 C 1213 1508.547 1208.585 1506.867 1204.169 1506.867 Z  M 1119.036 1506.867 C 1114.62 1506.867 1110.205 1508.547 1106.844 1511.907 C 1103.587 1515.16 1101.793 1519.493 1101.793 1524.093 C 1101.793 1528.707 1103.587 1533.04 1106.844 1536.293 C 1110.1 1539.547 1114.431 1541.347 1119.037 1541.347 C 1123.643 1541.347 1127.972 1539.547 1131.229 1536.293 C 1134.485 1533.04 1136.28 1528.707 1136.28 1524.093 C 1136.28 1519.493 1134.485 1515.16 1131.229 1511.907 C 1127.868 1508.547 1123.452 1506.867 1119.036 1506.867 Z  M 1033.903 1506.867 C 1029.488 1506.867 1025.072 1508.547 1021.709 1511.907 C 1018.453 1515.16 1016.659 1519.493 1016.659 1524.093 C 1016.659 1528.707 1018.453 1533.04 1021.709 1536.293 C 1024.967 1539.547 1029.296 1541.347 1033.903 1541.347 C 1038.509 1541.347 1042.839 1539.547 1046.096 1536.293 C 1049.353 1533.04 1051.147 1528.707 1051.147 1524.093 C 1051.147 1519.493 1049.353 1515.16 1046.096 1511.907 C 1042.735 1508.547 1038.319 1506.867 1033.903 1506.867 Z  M 1289.303 1538.133 C 1285.553 1538.133 1282.027 1536.68 1279.376 1534.027 C 1276.724 1531.373 1275.264 1527.853 1275.264 1524.093 C 1275.264 1520.347 1276.724 1516.827 1279.376 1514.173 C 1282.113 1511.44 1285.708 1510.067 1289.303 1510.067 C 1292.897 1510.067 1296.492 1511.44 1299.229 1514.173 C 1301.88 1516.827 1303.341 1520.347 1303.341 1524.093 C 1303.341 1527.853 1301.88 1531.373 1299.229 1534.027 C 1296.577 1536.68 1293.052 1538.133 1289.303 1538.133 Z  M 1204.169 1538.133 C 1200.419 1538.133 1196.895 1536.68 1194.241 1534.027 C 1191.592 1531.373 1190.132 1527.853 1190.132 1524.093 C 1190.132 1520.347 1191.592 1516.827 1194.244 1514.173 C 1196.979 1511.44 1200.575 1510.067 1204.169 1510.067 C 1207.764 1510.067 1211.359 1511.44 1214.096 1514.173 C 1216.748 1516.827 1218.208 1520.347 1218.208 1524.093 C 1218.208 1527.853 1216.748 1531.373 1214.096 1534.027 C 1211.444 1536.68 1207.92 1538.133 1204.169 1538.133 M 1119.037 1538.133 C 1115.287 1538.133 1111.761 1536.68 1109.109 1534.027 C 1106.459 1531.373 1104.997 1527.853 1104.997 1524.093 C 1104.997 1520.347 1106.459 1516.827 1109.109 1514.173 C 1111.847 1511.44 1115.441 1510.067 1119.037 1510.067 C 1122.631 1510.067 1126.227 1511.44 1128.963 1514.173 C 1131.615 1516.827 1133.075 1520.347 1133.075 1524.093 C 1133.075 1527.853 1131.615 1531.373 1128.963 1534.027 C 1126.311 1536.68 1122.785 1538.133 1119.037 1538.133 Z  M 1033.903 1538.133 C 1030.153 1538.133 1026.628 1536.68 1023.976 1534.027 C 1021.325 1531.373 1019.864 1527.853 1019.864 1524.093 C 1019.864 1520.347 1021.325 1516.827 1023.976 1514.173 C 1026.713 1511.44 1030.308 1510.067 1033.903 1510.067 C 1037.497 1510.067 1041.093 1511.44 1043.829 1514.173 C 1046.481 1516.827 1047.941 1520.347 1047.941 1524.093 C 1047.941 1527.853 1046.481 1531.373 1043.829 1534.027 L 1043.829 1534.027 C 1041.179 1536.68 1037.653 1538.133 1033.903 1538.133 Z  M 555.208 1114.071 C 508.965 1100.627 463.232 1086.415 429.059 1052.253 C 379.799 1003.007 391.609 932.763 431.013 880.604 C 462.217 839.301 506.677 809.721 555.208 791.005 L 555.208 857.36 L 517.456 857.36 L 517.456 1057.713 L 555.208 1057.713 L 555.208 1114.071" fill="rgb(247,246,246)"/><path d=" M 1378.333 370.443 L 1391.36 373.284 L 1401.16 366.776 L 1403.587 368.151 L 1402.013 371.215 L 1411.693 368.141 L 1419.333 371.229 L 1421.907 381.888 L 1417.227 392.208 L 1406.373 393.635 L 1394.347 388.645 L 1376.333 385.529 L 1378.333 370.443 Z " fill="rgb(234,205,176)"/><path d=" M 1391.907 364.869 L 1279.097 298.747 L 1224.667 186.147 L 1182.539 235.4 L 1240.571 365.18 L 1386.6 390.332 L 1391.907 364.869 Z " fill="rgb(232,159,64)"/><path d=" M 1855.44 1397 L 1855.44 1408.627 L 1878.68 1420.24 L 1890.293 1408.627 L 1878.68 1397 L 1855.44 1385.387 L 1855.44 1397 Z " fill="rgb(161,102,82)"/><path d=" M 1866.267 1087.52 L 1819.013 1410.907 L 1797.52 1410.907 L 1783.96 1234.512 L 1754.56 1058.121 L 1866.267 1087.52" fill="rgb(46,70,97)"/><path d=" M 1819.24 1046.361 L 1819.24 1081.639 L 1866.267 1234.512 L 1854.507 1393.267 L 1877.56 1397.867 L 1930.947 1205.113 L 1929.147 1148.025 L 1907.427 1031.599 L 1819.24 1046.361 Z " fill="rgb(46,70,97)"/><path d=" M 453.876 1536.427 C 454.049 1535.293 454.533 1533.987 455.297 1532.44 C 457.332 1528.333 459.42 1523.813 462.189 1520.133 C 464.687 1516.827 469.688 1517.64 473.417 1518.12 C 479.199 1518.893 484.979 1519.653 490.761 1520.413 C 491.028 1520.453 491.307 1520.493 491.523 1520.653 C 492.1 1521.093 491.832 1522 491.509 1522.653 C 488.448 1528.827 485.388 1535.013 482.327 1541.187 C 481.756 1542.347 481.149 1543.547 480.113 1544.307 C 478.915 1545.187 477.343 1545.333 475.856 1545.373 C 469.987 1545.547 464.063 1544.533 458.601 1542.373 C 454.871 1540.907 453.456 1539.173 453.876 1536.427" fill="rgb(39,37,37)"/><path d=" M 419.148 1264.352 L 454.072 1401.72 L 454.704 1539.96 L 469.019 1544.707 L 479.445 1539.387 L 499.928 1396.373 L 513.952 1255.763 L 419.148 1264.352" fill="rgb(202,181,161)"/><path d=" M 317.549 1530.147 C 318.029 1529.107 318.857 1527.987 320.017 1526.707 C 323.107 1523.333 326.368 1519.56 330.043 1516.8 C 333.359 1514.307 337.941 1516.453 341.389 1517.96 C 346.735 1520.293 352.079 1522.627 357.424 1524.96 C 357.671 1525.067 357.928 1525.187 358.089 1525.4 C 358.524 1525.987 358.015 1526.773 357.527 1527.307 C 352.875 1532.413 348.224 1537.507 343.572 1542.6 C 342.705 1543.547 341.792 1544.52 340.587 1544.973 C 339.191 1545.48 337.639 1545.2 336.196 1544.827 C 330.509 1543.373 325.097 1540.76 320.445 1537.173 C 317.268 1534.72 316.385 1532.68 317.549 1530.147" fill="rgb(39,37,37)"/><path d=" M 360.845 1254.12 L 351.28 1392.08 L 318.797 1528.8 L 331.24 1537.32 L 342.731 1535.107 L 401.965 1403.333 L 454.327 1272.083 L 360.845 1254.12" fill="rgb(202,181,161)"/><path d=" M 436.876 1334.08 C 434.545 1333.84 432.215 1333.6 429.888 1333.333 L 434.04 1322.931 L 436.876 1334.08 Z " fill="rgb(232,231,231)"/><path d=" M 483.683 1337.147 C 470.799 1337.147 453.901 1335.853 436.876 1334.08 L 434.04 1322.931 L 436.276 1317.327 L 508.28 1310.256 L 505.699 1333.613 C 503.16 1336.147 494.96 1337.147 483.683 1337.147" fill="rgb(190,171,152)"/><path d=" M 429.888 1333.333 C 396.02 1329.599 363.727 1324.452 363.727 1324.452 L 436.276 1317.327 L 434.04 1322.931 L 429.888 1333.333 Z " fill="rgb(190,171,152)"/><path d=" M 1135.231 181.627 C 1143.339 179.853 1151.447 178.08 1159.553 176.293 C 1158.861 169.72 1157.641 163.187 1155.911 156.8 C 1162.465 153.587 1169.943 149.053 1170.295 141.76 C 1170.405 139.467 1169.745 137.213 1169.091 135.013 C 1166.392 125.907 1163.693 116.787 1160.992 107.68 C 1160.059 104.533 1159.079 101.28 1157.005 98.733 C 1153.367 94.267 1147.161 92.84 1141.404 92.533 C 1126.709 91.72 1111.384 96.68 1101.327 107.427 C 1098.649 110.293 1096.316 113.627 1095.437 117.44 C 1094.081 123.32 1096.324 129.373 1098.528 135 C 1100.564 140.187 1102.599 145.373 1104.635 150.56 C 1106.975 156.533 1110.132 163.267 1116.337 164.88 C 1119.632 165.733 1123.309 164.933 1126.376 166.413 C 1131.783 169.027 1131.984 176.587 1135.231 181.627" fill="rgb(234,205,176)"/><path d=" M 1041.217 98.653 C 1039.529 96.493 1037.743 94.44 1035.791 92.533 C 1031.563 88.413 1026.555 85.053 1022.989 80.347 C 1019.424 75.64 1017.573 68.907 1020.592 63.84 C 1022.54 60.56 1026.097 58.627 1029.601 57.133 C 1041.145 52.213 1054.024 50.453 1066.467 52.107 C 1078.316 53.68 1089.185 57.32 1100.259 51.64 C 1110.665 46.293 1118.72 47.027 1130.571 49.747 C 1143.396 52.693 1160.04 51.787 1171.912 56.68 C 1176.868 58.72 1181.056 62.333 1184.475 66.453 C 1196.32 80.76 1198.885 102.107 1190.765 118.813 C 1188.944 122.56 1186.648 126.067 1184.2 129.44 C 1179.135 136.413 1173.101 145.013 1165.388 148.28 C 1164.359 141.16 1168.219 117.867 1162.043 112.653 C 1152.241 104.373 1132.931 109.933 1122.395 113.493 C 1110.904 117.373 1101.38 126.96 1089.905 130.107 C 1081.649 132.387 1070.435 129.52 1062.775 126.013 C 1053.321 121.68 1047.376 106.52 1041.217 98.653" fill="rgb(58,48,41)"/><path d=" M 1668.213 1444.64 L 555.208 1444.64 L 555.208 549.963 L 1770.08 549.963 L 1770.08 1342.787 C 1770.08 1399.04 1724.48 1444.64 1668.213 1444.64" fill="rgb(228,229,232)"/><path d=" M 1597.747 1092.561 L 732.356 1092.561 L 732.356 1057.713 L 1382.853 1057.713 L 1382.853 892.208 L 1597.747 892.208 L 1597.747 1092.561 Z " fill="rgb(215,215,218)"/><path d=" M 1033.903 1541.347 C 1029.296 1541.347 1024.967 1539.547 1021.709 1536.293 C 1018.453 1533.04 1016.659 1528.707 1016.659 1524.093 C 1016.659 1519.493 1018.453 1515.16 1021.709 1511.907 C 1025.072 1508.547 1029.488 1506.867 1033.903 1506.867 C 1038.319 1506.867 1042.735 1508.547 1046.096 1511.907 C 1049.353 1515.16 1051.147 1519.493 1051.147 1524.093 C 1051.147 1528.707 1049.353 1533.04 1046.096 1536.293 C 1042.839 1539.547 1038.509 1541.347 1033.903 1541.347 Z  M 1033.903 1510.067 C 1030.308 1510.067 1026.713 1511.44 1023.976 1514.173 C 1021.325 1516.827 1019.864 1520.347 1019.864 1524.093 C 1019.864 1527.853 1021.325 1531.373 1023.976 1534.027 C 1026.628 1536.68 1030.153 1538.133 1033.903 1538.133 C 1037.653 1538.133 1041.179 1536.68 1043.829 1534.027 L 1043.829 1534.027 C 1046.481 1531.373 1047.941 1527.853 1047.941 1524.093 C 1047.941 1520.347 1046.481 1516.827 1043.829 1514.173 C 1041.093 1511.44 1037.497 1510.067 1033.903 1510.067 Z " fill="rgb(203,202,203)"/><path d=" M 1119.037 1541.347 C 1114.431 1541.347 1110.1 1539.547 1106.844 1536.293 C 1103.587 1533.04 1101.793 1528.707 1101.793 1524.093 C 1101.793 1519.493 1103.587 1515.16 1106.844 1511.907 C 1110.205 1508.547 1114.62 1506.867 1119.036 1506.867 C 1123.452 1506.867 1127.868 1508.547 1131.229 1511.907 C 1134.485 1515.16 1136.28 1519.493 1136.28 1524.093 C 1136.28 1528.707 1134.485 1533.04 1131.229 1536.293 C 1127.972 1539.547 1123.643 1541.347 1119.037 1541.347 Z  M 1119.037 1510.067 C 1115.441 1510.067 1111.847 1511.44 1109.109 1514.173 C 1106.459 1516.827 1104.997 1520.347 1104.997 1524.093 C 1104.997 1527.853 1106.459 1531.373 1109.109 1534.027 C 1111.761 1536.68 1115.287 1538.133 1119.037 1538.133 C 1122.785 1538.133 1126.311 1536.68 1128.963 1534.027 C 1131.615 1531.373 1133.075 1527.853 1133.075 1524.093 C 1133.075 1520.347 1131.615 1516.827 1128.963 1514.173 C 1126.227 1511.44 1122.631 1510.067 1119.037 1510.067 Z " fill="rgb(203,202,203)"/><path d=" M 1204.169 1541.347 C 1199.564 1541.347 1195.233 1539.547 1191.976 1536.293 C 1188.72 1533.04 1186.925 1528.707 1186.925 1524.093 C 1186.925 1519.493 1188.72 1515.16 1191.976 1511.907 C 1195.337 1508.547 1199.753 1506.867 1204.169 1506.867 C 1208.585 1506.867 1213 1508.547 1216.361 1511.907 C 1219.619 1515.16 1221.413 1519.493 1221.413 1524.093 C 1221.413 1528.707 1219.619 1533.04 1216.361 1536.293 C 1213.105 1539.547 1208.775 1541.347 1204.169 1541.347 Z  M 1204.169 1510.067 C 1200.575 1510.067 1196.979 1511.44 1194.244 1514.173 C 1191.592 1516.827 1190.132 1520.347 1190.132 1524.093 C 1190.132 1527.853 1191.592 1531.373 1194.241 1534.027 C 1196.895 1536.68 1200.419 1538.133 1204.169 1538.133 C 1207.92 1538.133 1211.444 1536.68 1214.096 1534.027 C 1216.748 1531.373 1218.208 1527.853 1218.208 1524.093 C 1218.208 1520.347 1216.748 1516.827 1214.096 1514.173 C 1211.359 1511.44 1207.764 1510.067 1204.169 1510.067" fill="rgb(203,202,203)"/><path d=" M 1289.303 1541.347 C 1284.696 1541.347 1280.365 1539.547 1277.109 1536.293 C 1273.852 1533.04 1272.059 1528.707 1272.059 1524.093 C 1272.059 1519.493 1273.852 1515.16 1277.109 1511.907 C 1280.471 1508.547 1284.887 1506.867 1289.303 1506.867 C 1293.719 1506.867 1298.133 1508.547 1301.495 1511.907 C 1304.752 1515.16 1306.545 1519.493 1306.545 1524.093 C 1306.545 1528.707 1304.752 1533.04 1301.495 1536.293 C 1298.239 1539.547 1293.909 1541.347 1289.303 1541.347 Z  M 1289.303 1510.067 C 1285.708 1510.067 1282.113 1511.44 1279.376 1514.173 C 1276.724 1516.827 1275.264 1520.347 1275.264 1524.093 C 1275.264 1527.853 1276.724 1531.373 1279.376 1534.027 C 1282.027 1536.68 1285.553 1538.133 1289.303 1538.133 C 1293.052 1538.133 1296.577 1536.68 1299.229 1534.027 C 1301.88 1531.373 1303.341 1527.853 1303.341 1524.093 C 1303.341 1520.347 1301.88 1516.827 1299.229 1514.173 C 1296.492 1511.44 1292.897 1510.067 1289.303 1510.067 Z " fill="rgb(203,202,203)"/><path d=" M 1609.053 801.879 L 743.656 801.879 L 743.656 601.527 L 1116.336 601.527 C 1119.079 623.423 1121.821 645.319 1124.564 667.215 L 1152.313 665.909 L 1161.717 601.527 L 1199.185 601.527 L 1203.916 662.383 L 1229.595 662.383 L 1244.593 601.527 L 1609.053 601.527 L 1609.053 801.879 Z " fill="rgb(215,215,218)"/><path d=" M 753.932 1358.36 L 1619.32 1358.36 L 1619.32 1158.004 L 753.932 1158.004 L 753.932 1358.36 Z " fill="rgb(255,255,243)"/><path d=" M 940.281 1256.963 C 940.281 1289.297 914.069 1315.511 881.735 1315.511 C 849.4 1315.511 823.188 1289.297 823.188 1256.963 C 823.188 1224.628 849.4 1198.416 881.735 1198.416 C 914.069 1198.416 940.281 1224.628 940.281 1256.963 Z " fill="rgb(242,208,66)"/><path d=" M 1003.167 1237.015 L 1571 1237.015 L 1571 1214.092 L 1003.167 1214.092 L 1003.167 1237.015 Z " fill="rgb(219,219,210)"/><path d=" M 1003.167 1299.832 L 1571 1299.832 L 1571 1276.912 L 1003.167 1276.912 L 1003.167 1299.832 Z " fill="rgb(219,219,210)"/><path d=" M 559.815 547.584 L 1774.693 547.584 L 1774.693 498.128 L 559.815 498.128 L 559.815 547.584 Z " fill="rgb(143,151,155)"/><path d=" M 1840.267 597.268 L 1560.32 597.268 C 1558.947 597.268 1557.84 596.061 1557.84 594.575 L 1557.84 325.72 C 1557.84 324.227 1558.947 323.027 1560.32 323.027 L 1914.707 323.027 C 1916.08 323.027 1917.187 324.227 1917.187 325.72 L 1917.187 513.461 C 1917.187 559.747 1882.747 597.268 1840.267 597.268" fill="rgb(132,165,153)"/><path d=" M 1701.893 585.568 L 1700.587 672.779 C 1700.547 675.545 1697 676.652 1695.4 674.399 L 1626.92 578.331 C 1625.52 576.367 1627.027 573.657 1629.427 573.808 L 1700.307 578.237 C 1702.147 578.353 1703.4 580.153 1702.88 581.92 L 1702.013 584.788 C 1701.933 585.041 1701.893 585.304 1701.893 585.568 Z " fill="rgb(132,165,153)"/><path d=" M 1870.773 377.091 L 1650.027 377.091 L 1650.027 367.892 L 1870.773 367.892 L 1870.773 377.091 Z " fill="rgb(255,255,243)"/><path d=" M 1870.773 447.225 L 1607.48 447.225 L 1607.48 438.028 L 1870.773 438.028 L 1870.773 447.225 Z " fill="rgb(255,255,243)"/><path d=" M 1870.773 517.36 L 1607.48 517.36 L 1607.48 508.161 L 1870.773 508.161 L 1870.773 517.36 Z " fill="rgb(255,255,243)"/><path d=" M 1875.813 829.093 L 1916.973 934.928 L 1958.133 1128.957 L 1766.173 1170.991 L 1740.867 1134.725 L 1740.573 887.891 L 1793.493 817.335 L 1875.813 829.093 Z " fill="rgb(161,102,82)"/><path d=" M 1811.133 808.452 L 1805.253 826.091 L 1852.293 837.851 L 1858.173 808.452 L 1811.133 808.452 Z " fill="rgb(161,102,82)"/><path d=" M 1927.2 881.06 L 1960.067 842.839 L 1982.64 857.82 L 1942.84 898.945 L 1927.2 881.06" fill="rgb(39,52,42)"/><path d=" M 1930.253 880.716 L 1960.747 847.423 L 1977.587 858.592 L 1943.4 894.881 L 1930.253 880.716" fill="rgb(252,251,241)"/><path d=" M 1941.413 923.639 C 1945.413 916.94 1949.813 915.404 1954.013 911.287 C 1956.947 908.404 1962.6 885.216 1957.373 883.812 C 1956.147 884.468 1956.227 886.207 1955.747 887.509 C 1955.187 889.056 1953.68 890.093 1952.12 890.608 C 1950.56 891.124 1948.893 891.211 1947.253 891.457 C 1940.213 892.52 1931.56 905.648 1931.72 912.735 C 1938.707 918.176 1934.427 918.199 1941.413 923.639" fill="rgb(234,205,176)"/><path d=" M 1891 973.52 L 1949.813 915.404 L 1933.267 906.931 L 1887.333 927.283 L 1823.333 877.888 C 1823.333 877.888 1765.667 885.796 1800.707 927.151 L 1891 973.52 Z " fill="rgb(168,109,92)"/><path d=" M 1805.2 800.353 C 1802.56 795.84 1801.84 790.405 1802.213 785.188 C 1803.027 773.992 1809.32 762.808 1819.573 758.232 C 1835.333 751.193 1854.24 761.1 1870.773 756.133 C 1872.667 762.661 1874.533 769.296 1874.627 776.095 C 1874.827 790.607 1866.187 804.889 1853.24 811.445 C 1840.293 818.003 1823.667 816.515 1812.093 807.764 C 1809.387 805.717 1806.92 803.281 1805.2 800.353" fill="rgb(242,231,218)"/><path d=" M 1867.147 756.133 L 1809.493 762.387 L 1808.467 807.764 L 1789.72 798.836 L 1781.733 726.809 L 1859.987 713.235 L 1902.667 739.584 L 1876.76 767.287 L 1867.147 756.133 Z " fill="rgb(227,200,90)"/><path d=" M 1802.96 754.865 L 1806.333 713.235 L 1817.147 706.273 L 1852.133 714.597 L 1840.88 716.551 L 1817.147 716.551 L 1807.613 755.296 C 1813.093 757.333 1817.147 764.601 1817.147 773.256 C 1817.147 783.491 1811.48 791.788 1804.493 791.788 C 1797.507 791.788 1791.84 783.491 1791.84 773.256 C 1791.84 763.783 1796.693 755.973 1802.96 754.865 Z " fill="rgb(124,43,74)"/><path d=" M 545.635 938.075 C 545.721 937.883 545.809 937.672 545.755 937.469 C 545.681 937.192 545.38 937.051 545.111 936.947 C 542.759 936.029 540.407 935.112 538.055 934.195 C 537.719 934.065 537.363 933.932 537.009 933.997 C 536.604 934.072 536.293 934.387 536.015 934.689 C 534.053 936.813 532.251 939.085 530.627 941.477 C 528.329 940.512 525.931 939.788 523.481 939.324 C 519.829 949.369 516.177 959.416 512.525 969.461 C 516.611 969.472 520.695 969.481 524.78 969.492 C 525.311 969.493 525.865 969.489 526.336 969.247 C 526.891 968.96 527.235 968.395 527.552 967.856 C 533.436 957.827 540.745 949.264 545.635 938.075" fill="rgb(235,206,177)"/><path d=" M 422.519 1071.429 L 470.259 1084.34 L 537.78 959.141 L 516.691 948.025 L 451.117 1016.183 L 421.211 986.241 L 386.044 1032.388 L 422.519 1071.429" fill="rgb(174,204,220)"/><path d=" M 453.633 954.375 C 461.36 961.617 465.836 980.86 469.673 989.596 C 493.444 1043.592 513.833 1098.996 533.412 1154.625 C 543.224 1182.509 552.828 1210.465 562.553 1238.379 C 564.341 1243.512 584.067 1305.216 585.437 1305.052 C 492.821 1316.157 421.512 1331.395 328.981 1321.889 C 318.276 1320.768 317.867 1255.36 317.261 1246.975 C 314.26 1205.372 313.823 1163.443 318.792 1121.971 C 322.5 1091.023 329.257 1060.353 339.959 1031.048 C 348.371 1008.013 361.42 966.931 385.275 955.291 C 398.056 949.053 439.071 945.209 451.585 952.8 C 452.292 953.228 452.973 953.757 453.633 954.375" fill="rgb(174,204,220)"/><path d=" M 495.591 910.813 C 489.403 925.031 477.764 936.028 466.427 946.608 C 439.297 971.924 412.167 997.243 385.035 1022.559 C 383.864 1023.651 382.66 1024.765 381.181 1025.381 C 378.639 1026.44 375.747 1025.86 373.057 1025.264 C 344.603 1018.961 316.147 1012.657 287.692 1006.355 C 300.576 975.455 315.38 945.356 331.987 916.288 C 343.965 895.321 357.391 874.34 377.056 860.327 C 396.613 846.388 440.972 828.808 465.185 835.657 C 494.765 844.024 506.821 885.017 495.591 910.813" fill="rgb(242,208,66)"/><path d=" M 517.456 1057.713 L 1382.853 1057.713 L 1382.853 857.36 L 517.456 857.36 L 517.456 1057.713 Z " fill="rgb(255,255,243)"/><path d=" M 709.901 957.536 C 709.901 989.871 683.688 1016.084 651.353 1016.084 C 619.019 1016.084 592.807 989.871 592.807 957.536 C 592.807 925.201 619.019 898.989 651.353 898.989 C 683.688 898.989 709.901 925.201 709.901 957.536 Z " fill="rgb(108,175,146)"/><path d=" M 768.305 941.588 L 1336.133 941.588 L 1336.133 918.668 L 768.305 918.668 L 768.305 941.588 Z " fill="rgb(219,219,210)"/><path d=" M 768.305 1004.408 L 1336.133 1004.408 L 1336.133 981.486 L 768.305 981.486 L 768.305 1004.408 Z " fill="rgb(219,219,210)"/><path d=" M 611.148 990.204 C 611.277 990.039 611.415 989.856 611.409 989.645 C 611.404 989.359 611.144 989.149 610.909 988.984 C 608.841 987.533 606.776 986.084 604.708 984.633 C 604.415 984.425 604.1 984.212 603.741 984.192 C 603.331 984.167 602.953 984.4 602.611 984.627 C 600.199 986.224 597.908 988.001 595.761 989.937 C 593.76 988.453 591.603 987.18 589.335 986.145 C 583.396 995.033 577.457 1003.92 571.52 1012.808 C 575.485 1013.792 579.451 1014.773 583.416 1015.756 C 583.931 1015.884 584.471 1016.012 584.985 1015.888 C 585.593 1015.743 586.061 1015.273 586.497 1014.825 C 594.6 1006.485 603.736 999.909 611.148 990.204" fill="rgb(235,206,177)"/><path d=" M 459.832 1090.427 L 503.128 1114.327 L 598.505 1008.799 L 580.667 992.979 L 500.757 1043.573 L 478.836 1007.375 L 433.697 1043.827 L 459.832 1090.427" fill="rgb(174,204,220)"/><path d=" M 1274.42 480.504 L 1229.595 662.383 L 1203.916 662.383 L 1191.672 504.863 L 1124.491 460.229 L 1212.939 397.363 L 1256.165 443.771 L 1274.42 480.504" fill="rgb(64,79,90)"/><path d=" M 1203.872 661.844 L 1204.052 662.22 L 1214.569 684.275 L 1230.824 685.777 L 1240.659 678.128 L 1228.775 661.844 L 1203.872 661.844 Z " fill="rgb(57,40,28)"/><path d=" M 1051.045 434.304 C 1043.723 437.021 1041.965 442.135 1042.243 452.679 C 1042.687 469.62 1048.423 486.385 1058.451 500.048 C 1059.208 501.08 1060.037 502.135 1061.201 502.668 C 1062.215 503.133 1063.368 503.151 1064.483 503.16 C 1078.409 503.281 1100.427 503.715 1106.556 518.537 C 1112.36 532.575 1110.291 553.253 1112.175 568.295 C 1116.304 601.268 1120.435 634.241 1124.564 667.215 L 1152.313 665.909 L 1180.461 473.188 L 1182.327 423.171 L 1152.268 410.309 C 1133.261 416.835 1111.533 428.301 1091.691 431.103 C 1086.251 431.871 1080.759 431.831 1075.269 431.791 C 1069.295 431.748 1063.324 431.704 1057.424 432.703 C 1054.936 433.124 1052.825 433.644 1051.045 434.304" fill="rgb(64,79,90)"/><path d=" M 1124.491 666.635 L 1124.704 667.031 L 1137.191 690.329 L 1154.832 691.125 L 1165.071 682.36 L 1151.401 665.368 L 1124.491 666.635" fill="rgb(57,40,28)"/><path d=" M 1219.82 447.751 C 1213.805 447.751 1207.743 447.152 1201.584 446.02 C 1209.355 446.597 1216.58 447.244 1221.707 447.731 C 1221.079 447.744 1220.449 447.751 1219.82 447.751 Z " fill="rgb(57,67,75)"/><path d=" M 1038.849 443.779 C 1038.499 460.548 1039.003 483.148 1045.159 483.975 C 1046.313 484.131 1047.42 483.533 1048.428 482.957 C 1059.076 476.875 1066.608 468.315 1077.104 462.437 C 1088.104 456.28 1100.688 453.005 1113.029 450.715 C 1131.484 447.187 1150.348 444.999 1169.149 444.656 C 1189.565 444.284 1229.309 448.484 1229.309 448.484 C 1240.785 446.467 1251.749 442.331 1262.741 438.496 C 1281.627 431.905 1300.915 426.1 1318.635 416.869 C 1324.321 413.908 1340.013 405.155 1334.4 397.233 C 1330.157 391.235 1315.739 387.22 1309.241 383.535 C 1294.725 375.304 1280.773 365.908 1268.489 354.627 C 1251.028 338.587 1238.144 318.907 1230.08 296.76 C 1226.009 285.573 1223.075 274.013 1220.651 262.373 C 1219.337 256.08 1218.185 249.747 1217.104 243.4 C 1216.491 239.8 1216.499 226.16 1213.981 223.907 C 1188.459 200.96 1180.951 180.853 1150.045 185.867 C 1079.531 197.28 1084.529 200.56 1068.796 236.707 C 1062.469 251.24 1053.895 290.28 1051.476 305.907 C 1048.545 324.827 1045.835 343.8 1043.725 362.832 C 1041.371 384.075 1039.755 405.413 1039.413 426.785 C 1039.375 429.16 1039.016 435.811 1038.849 443.779" fill="rgb(232,159,64)"/><path d=" M 1103.437 149.8 L 1075.015 206.867 L 1219.545 248.56 L 1223.861 210.453 L 1103.437 149.8" fill="rgb(65,91,89)"/><path d=" M 1178.243 159.587 L 1144.721 170.6 L 1092.324 211.853 L 1086.321 449.903 L 1181.956 436.241 L 1159.665 234.187 L 1210.2 203.573 L 1223.861 187.44 L 1178.243 159.587" fill="rgb(66,99,98)"/><path d=" M 2043.027 545.021 C 2043.027 500.113 1991.453 463.709 1927.827 463.709 C 1864.213 463.709 1812.64 500.113 1812.64 545.021 C 1812.64 589.928 1864.213 626.332 1927.827 626.332 C 1931.107 626.332 1934.36 626.229 1937.56 626.04 L 1926.867 684.412 L 1991.2 612.927 C 2022.413 598.381 2043.027 573.401 2043.027 545.021 Z " fill="rgb(239,203,85)"/><path d=" M 1989.28 547.601 C 1982.64 547.601 1982.627 557.927 1989.28 557.927 C 1995.933 557.927 1995.933 547.601 1989.28 547.601 Z " fill="rgb(241,239,226)"/><path d=" M 1942.827 547.601 C 1936.173 547.601 1936.16 557.927 1942.827 557.927 C 1949.467 557.927 1949.48 547.601 1942.827 547.601 Z " fill="rgb(241,239,226)"/><path d=" M 1884.733 547.601 C 1878.093 547.601 1878.08 557.927 1884.733 557.927 C 1891.387 557.927 1891.4 547.601 1884.733 547.601 Z " fill="rgb(241,239,226)"/><line x1="1926.867" y1="1135.807" x2="1926.867" y2="1135.803"/><path d=" M 1775.707 1184.989 L 1773.373 1170.991 L 1841.893 1155.281 L 1845.413 1166.711 L 1775.707 1184.989 Z " fill="rgb(44,59,77)"/><path d=" M 1845.413 1166.711 L 1841.893 1155.281 L 1926.867 1135.803 L 1926.867 1135.807 L 1928 1145.051 L 1845.413 1166.711 Z " fill="rgb(44,59,77)"/><path d=" M 814.596 549.963 L 759.601 549.963 L 767.677 547.584 L 822.673 547.584 L 814.596 549.963 Z  M 695.528 549.963 L 664.643 549.963 L 663.943 547.584 L 694.828 547.584 L 695.528 549.963 Z  M 990.604 498.128 L 935.608 498.128 L 1039.343 467.579 C 1039.935 474.476 1041.063 480.193 1043.084 482.672 L 990.604 498.128 Z  M 680.263 498.128 L 649.377 498.128 L 630.668 434.6 L 659.089 426.229 L 680.263 498.128 Z " fill="rgb(212,211,211)"/><path d=" M 676.611 590.599 L 664.643 549.963 L 695.528 549.963 L 700.641 567.325 L 759.601 549.963 L 814.596 549.963 L 676.611 590.599 Z " fill="rgb(190,191,193)"/><path d=" M 822.673 547.584 L 767.677 547.584 L 935.608 498.128 L 990.604 498.128 L 822.673 547.584 Z  M 694.828 547.584 L 663.943 547.584 L 649.377 498.128 L 680.263 498.128 L 694.828 547.584 Z " fill="rgb(122,128,131)"/><path d=" M 1053.856 479.5 C 1061.853 473.911 1068.477 467.268 1077.104 462.437 C 1088.104 456.28 1100.688 453.005 1113.029 450.715 C 1131.484 447.187 1150.348 444.999 1169.149 444.656 C 1170.016 444.64 1170.917 444.632 1171.848 444.632 C 1171.983 444.632 1172.116 444.632 1172.251 444.633 L 1053.856 479.5" fill="rgb(59,71,79)"/><path d=" M 1334.187 396.943 C 1330.815 392.564 1322.063 389.251 1315.201 386.337 L 1332.991 381.099 L 1367.693 387.076 L 1334.187 396.943 M 1391.36 373.284 L 1390.213 373.032 L 1391.907 364.869 L 1390.64 364.123 L 1507.933 329.573 L 1512.32 344.48 L 1419.48 371.824 L 1419.333 371.229 L 1411.693 368.141 L 1402.013 371.215 L 1403.587 368.151 L 1401.16 366.776 L 1391.36 373.284 Z " fill="rgb(212,211,211)"/><path d=" M 1388.56 380.929 L 1390.213 373.032 L 1391.36 373.284 L 1401.16 366.776 L 1403.587 368.151 L 1402.013 371.215 L 1411.693 368.141 L 1419.333 371.229 L 1419.48 371.824 L 1388.56 380.929" fill="rgb(195,171,148)"/><path d=" M 1367.693 387.076 L 1332.991 381.099 L 1390.64 364.123 L 1391.907 364.869 L 1390.213 373.032 L 1388.56 380.929 L 1367.693 387.076 Z " fill="rgb(193,135,59)"/><path d=" M 1043.084 482.672 C 1041.063 480.193 1039.935 474.476 1039.343 467.579 L 1111.643 446.285 L 1181.956 436.241 L 1180.816 425.915 L 1315.201 386.337 C 1322.063 389.251 1330.815 392.564 1334.187 396.943 L 1172.251 444.633 C 1172.116 444.632 1171.983 444.632 1171.848 444.632 C 1170.917 444.632 1170.016 444.64 1169.149 444.656 C 1150.348 444.999 1131.484 447.187 1113.029 450.715 C 1100.688 453.005 1088.104 456.28 1077.104 462.437 C 1068.477 467.268 1061.853 473.911 1053.856 479.5 L 1043.084 482.672 Z " fill="rgb(193,135,59)"/><path d=" M 1111.643 446.285 L 1180.816 425.915 L 1181.956 436.241 L 1111.643 446.285" fill="rgb(61,87,86)"/><path d=" M 1530.787 322.853 L 700.641 567.325 L 644.041 375.133 L 1474.187 130.653 L 1530.787 322.853" fill="rgb(255,255,243)"/><path d=" M 846.313 423.475 C 855.448 454.493 837.709 487.043 806.691 496.177 C 775.673 505.312 743.124 487.572 733.989 456.555 C 724.855 425.537 742.593 392.988 773.611 383.853 C 804.629 374.719 837.179 392.457 846.313 423.475 Z " fill="rgb(58,101,151)"/><path d=" M 901 386.573 L 894.525 364.587 L 1439.227 204.173 L 1445.707 226.16 L 901 386.573" fill="rgb(219,219,210)"/><path d=" M 918.747 446.833 L 912.272 424.847 L 1456.973 264.427 L 1463.453 286.413 L 918.747 446.833" fill="rgb(219,219,210)"/><path d=" M 800.048 378.897 C 798.036 378.897 795.993 378.065 794.389 376.895 C 792.417 375.457 790.993 373.572 789.573 371.793 C 785.061 366.137 780.267 361.236 775.283 357.067 C 770.696 353.24 766.047 350.333 762.695 346.4 C 761.591 345.107 760.083 342.773 759.72 342.493 L 818.891 323.907 C 820.125 325.373 821.975 329.893 821.525 331.56 C 820.968 333.64 819.572 335.747 820.415 337.987 C 820.856 339.147 821.873 340.213 822.889 341.28 C 827.544 346.133 832.552 351.347 837.955 356.973 C 839.699 358.787 841.612 361.083 840.787 362.971 C 840.272 364.147 838.824 364.676 837.157 364.676 C 835.676 364.676 834.023 364.257 832.699 363.503 C 829.952 361.936 828.351 359.507 826.817 357.307 C 822.687 351.373 818.075 346.133 813.136 341.627 C 809.388 338.2 804.549 334.933 799.095 334.933 C 798.745 334.933 798.391 334.947 798.036 334.973 C 792.968 335.373 789.109 338.547 785.729 341.587 C 786.532 347.733 799.181 348.387 803.819 354.347 C 805.321 356.28 805.703 358.707 805.101 360.96 C 804.852 361.893 803.048 365.908 801.176 365.908 C 800.86 365.908 800.541 365.793 800.229 365.532 C 799.837 365.203 799.72 364.665 799.949 364.263 C 800.339 363.579 801.559 363.309 801.587 362.549 C 801.595 362.329 801.492 362.115 801.384 361.912 C 800.72 360.664 799.804 359.52 798.697 358.56 C 797.748 357.733 796.556 357.507 795.62 356.747 C 794.744 356.053 793.82 355.4 792.847 354.813 C 791.604 354.067 789.721 352.973 787.977 352.973 C 787.6 352.973 787.229 353.027 786.873 353.147 C 784.429 353.947 787.435 356.2 788.412 357.48 C 789.901 359.413 791.363 361.447 792.787 363.571 C 795.843 368.124 798.753 373.123 801.485 378.579 L 801.561 378.729 C 801.064 378.844 800.556 378.897 800.048 378.897" fill="rgb(231,231,220)"/><path d=" M 718.932 258.333 C 714.969 265.16 716.843 275.093 718.883 282.44 C 721.901 293.307 728.621 301.347 734.88 310.413 C 735.34 311.08 735.888 311.8 736.688 311.92 C 737.627 312.08 738.512 311.267 738.748 310.347 C 738.984 309.413 738.721 308.44 738.369 307.56 C 737.216 304.667 735.135 302.267 733.355 299.707 C 727.461 291.24 725.055 280.507 727.685 270.533 C 728.719 266.613 731.236 262.04 726.508 255.533 C 723.423 251.293 721.451 254 718.932 258.333 Z " fill="rgb(89,89,91)"/><path d=" M 747.427 279.893 C 754.704 275.627 763.233 273.533 771.569 271.613 C 780.663 269.52 790.22 267.507 798.88 269.24 C 803.323 270.133 808.051 272.427 810.917 276.453 C 812.155 278.2 812.972 280.267 813.039 282.413 C 813.069 283.4 813.075 284.533 813.02 285.48 C 812.937 286.88 812.124 287.293 811.109 288.027 C 809.837 288.947 808.959 290.347 807.991 291.613 C 803.479 297.56 796.861 299.8 790.539 302.853 C 784.177 305.92 777.74 308.8 771.099 311.173 C 760.279 315.04 740.732 320.507 733.621 310.52 C 726.971 301.173 737.789 285.547 747.427 279.893" fill="rgb(89,89,91)"/><path d=" M 798.384 285.48 C 799.811 286.093 801.401 286.093 802.936 286.027 C 807.856 285.827 812.037 287.307 816.687 285.72 C 832.423 280.333 825.612 258.627 809.84 257.827 C 797.817 257.213 783.035 278.76 798.384 285.48 Z " fill="rgb(89,89,91)"/><path d=" M 748.816 299.96 C 745.681 298.653 742.269 297.893 739.044 297.413 C 738.333 297.293 737.603 297.2 736.903 297.36 C 736.187 297.533 735.559 297.96 735.012 298.453 C 731.711 301.427 731.348 307.093 734.244 310.467 C 735.175 311.547 736.359 312.387 737.564 313.147 C 740.973 315.307 744.684 317.04 747.792 319.613 C 753.496 324.347 753.115 329.787 753.541 336.533 C 753.583 337.173 753.624 337.827 753.823 338.44 C 754.772 341.373 756.511 343.867 760.087 343.013 C 761.075 342.773 761.98 341.867 761.833 340.867 C 761.579 339.12 759.549 339.453 758.745 338.347 C 757.916 337.2 758.759 335.493 759.019 334.28 C 759.705 331.08 760.273 327.84 760.592 324.587 C 761.188 318.52 761.005 311.52 757.311 306.36 C 755.165 303.36 752.147 301.347 748.816 299.96" fill="rgb(89,89,91)"/><path d=" M 780.655 322.587 C 781.283 323.253 781.936 323.987 782.044 324.893 C 782.135 325.667 781.815 326.427 781.5 327.133 C 780.815 328.693 780.128 330.253 779.441 331.813 C 778.805 333.253 778.091 334.787 776.735 335.6 C 775.379 336.413 773.209 336.013 772.804 334.48 C 772.288 332.547 774.745 331.2 775.576 329.373 C 776.583 327.147 774.997 324.6 773.179 322.973 C 769.933 320.08 765.667 318.347 761.319 318.16 C 759.888 318.107 758.423 318.2 757.056 317.773 C 755.691 317.347 754.409 316.213 754.364 314.787 C 754.176 308.667 761.991 305.667 766.2 308.507 C 771.397 312.027 776.361 318.013 780.655 322.587" fill="rgb(89,89,91)"/><path d=" M 802.689 319.893 C 802.565 320.787 802.405 321.747 801.809 322.36 C 801.305 322.867 800.579 323.04 799.887 323.2 C 798.373 323.547 796.86 323.88 795.347 324.213 C 793.941 324.533 792.428 324.84 791.072 324.2 C 789.716 323.573 788.771 321.587 789.64 320.373 C 790.749 318.84 793.113 320.067 794.908 319.68 C 800.564 318.48 798.672 308.76 795.115 305.96 C 794.376 305.373 793.559 304.92 792.78 304.413 C 791.117 303.32 789.537 301.907 788.311 300.267 C 786.777 298.213 787.24 298.84 788.353 297.533 C 790.657 294.827 793.519 292.587 797.188 292.813 C 800.643 293.027 804.34 296.2 804.608 300.107 C 805.035 306.333 803.537 313.8 802.689 319.893" fill="rgb(89,89,91)"/><path d=" M 801.547 304.853 C 802.041 306.987 802.54 309.12 803.311 311.173 C 804.176 313.467 805.387 315.667 805.825 318.08 C 806.275 320.533 805.883 323.053 806.225 325.533 C 806.347 326.413 806.589 327.333 807.2 327.947 C 807.811 328.56 808.884 328.707 809.379 328.027 C 810.425 323.587 811.477 318.96 810.575 314.373 C 809.827 310.587 807.761 306.987 807.871 303.147 C 807.941 300.667 808.911 298.413 809.117 295.96 C 809.307 293.733 809.56 291 808.213 289.04 C 807.46 287.947 806.289 287.773 805.669 286.64 C 805.568 286.453 805.427 286.253 805.233 286.253 L 804.94 286.427 C 803.245 288.093 799.113 290.68 798.861 293.227 C 798.711 294.747 799.737 297.067 800.091 298.587 C 800.576 300.68 801.061 302.76 801.547 304.853" fill="rgb(89,89,91)"/><path d=" M 791.213 270.107 C 791.213 270.107 798.345 285.627 809.463 287.893 L 812.34 286.893 C 812.34 286.893 798.912 280.493 792.741 267.88 L 791.213 270.107 Z " fill="rgb(232,159,64)"/><path d=" M 1797.333 1409.333 L 1797.36 1420.24 L 1820.6 1431.853 L 1832.213 1420.24 L 1820.6 1408.627 L 1797.36 1408.627 L 1797.333 1409.333 L 1797.333 1409.333" fill="rgb(46,70,97)"/><path d=" M 815.072 250.08 C 815.211 249.947 815.429 250.053 815.428 250.253 C 815.423 251.613 815.896 252.947 816.361 254.253 C 817.481 257.36 818.601 260.467 819.721 263.573 C 818.965 261.467 807.644 272.787 806.561 264.88 C 805.933 260.293 811.845 253.28 815.072 250.08" fill="rgb(89,89,91)"/><path d=" M 808.084 250.787 C 808.223 250.653 808.441 250.76 808.44 250.96 C 808.436 252.32 808.908 253.667 809.375 254.96 C 810.495 258.067 811.613 261.173 812.733 264.28 C 811.977 262.173 800.656 273.493 799.575 265.587 C 798.945 261 804.857 253.987 808.084 250.787" fill="rgb(89,89,91)"/><path d=" M 1009.833 314.84 L 1006.784 327.333 L 1012.82 336.92 L 1011.437 339.227 L 1008.523 337.64 L 1011.253 347.04 L 1008.096 354.333 L 997.763 356.547 L 987.933 351.787 L 986.817 341.307 L 991.913 329.827 L 995.347 312.56 L 1009.833 314.84 Z " fill="rgb(234,205,176)"/><path d=" M 1016.684 328.267 L 1028.416 251.907 L 1074.88 237.72 L 1083.915 209.32 L 1074.88 206.747 L 1095.531 165.44 L 992.277 210.613 L 986.372 328.067 L 1016.684 328.267 Z " fill="rgb(232,159,64)"/><path d=" M 602.86 673.947 C 602.86 724.059 562.236 764.683 512.124 764.683 C 462.012 764.683 421.388 724.059 421.388 673.947 C 421.388 623.835 462.012 583.211 512.124 583.211 C 562.236 583.211 602.86 623.835 602.86 673.947 Z " fill="rgb(124,43,74)"/><path d=" M 557.793 661.345 L 524.725 661.345 L 524.725 628.277 L 499.523 628.277 L 499.523 661.345 L 466.453 661.345 L 466.453 686.549 L 499.523 686.549 L 499.523 719.616 L 524.725 719.616 L 524.725 686.549 L 557.793 686.549 L 557.793 661.345 Z " fill="rgb(255,255,255)"/><path d=" M 814.667 289.333 C 814.667 290.8 813.472 292 812 292 C 810.528 292 809.333 290.8 809.333 289.333 C 809.333 287.867 810.528 286.667 812 286.667 C 813.472 286.667 814.667 287.867 814.667 289.333 Z " fill="rgb(124,43,74)"/></g></g></svg>