<svg width="50" height="32" viewBox="0 0 50 32" fill="none" xmlns="http://www.w3.org/2000/svg">
<g clip-path="url(#clip0)">
<path d="M50 2.8125H0V27.8125H50V2.8125Z" fill="#F6F6F6"/>
<path fill-rule="evenodd" clip-rule="evenodd" d="M46.25 3.16083e-07C43.75 5.52015e-07 17.2815 -5.00995e-07 2.5 3.16083e-07C1.25 3.8518e-07 0 1.25 0 2.5V6.25H50C50 6.25 50 12.0537 50 3.75C50 1.25 48.75 3.16083e-07 46.25 3.16083e-07Z" fill="#1A1F71"/>
<path fill-rule="evenodd" clip-rule="evenodd" d="M0 25C0 25 3.01992e-07 25 0 27.5C-1.44637e-07 30 1.25 31.25 3.75 31.25C17.6947 31.25 43.75 31.25 46.25 31.25C48.75 31.25 50 30 50 27.5V25H0Z" fill="#F7B600"/>
<path fill-rule="evenodd" clip-rule="evenodd" d="M34.8787 9.30691C34.1778 9.03828 33.0796 8.75 31.7084 8.75C28.2135 8.75 25.7516 10.5485 25.7306 13.1259C25.7109 15.0312 27.4882 16.094 28.8299 16.7283C30.2067 17.3782 30.6695 17.7928 30.6629 18.3731C30.6542 19.2619 29.5634 19.668 28.5468 19.668C27.1311 19.668 26.379 19.467 25.2174 18.9719L24.7616 18.7612L24.2651 21.7295C25.0912 22.0996 26.6189 22.4203 28.2052 22.4369C31.9231 22.4369 34.3368 20.6591 34.3643 17.9068C34.3778 16.3983 33.4353 15.2504 31.3946 14.3041C30.1583 13.6907 29.4012 13.2814 29.4092 12.6603C29.4092 12.1091 30.0501 11.5198 31.4346 11.5198C32.5915 11.5014 33.4293 11.7592 34.0821 12.0278L34.399 12.1808L34.8787 9.30691Z" fill="#1A1F71"/>
<path fill-rule="evenodd" clip-rule="evenodd" d="M43.9494 8.99323H41.2163C40.3697 8.99323 39.7363 9.22935 39.3644 10.0928L34.1113 22.2445H37.8254C37.8254 22.2445 38.4329 20.6106 38.5701 20.2519C38.976 20.2519 42.5841 20.2576 43.1 20.2576C43.2057 20.7218 43.5303 22.2445 43.5303 22.2445H46.8122L43.9494 8.99323ZM39.5882 17.5398C39.8807 16.7758 40.9972 13.8331 40.9972 13.8331C40.9763 13.8684 41.2875 13.0654 41.4663 12.5675L41.7053 13.7108C41.7053 13.7108 42.3825 16.8759 42.5241 17.5396L39.5882 17.5398Z" fill="#1A1F71"/>
<path fill-rule="evenodd" clip-rule="evenodd" d="M18.5156 22.2401L20.7271 8.98041H24.2641L22.0512 22.2401H18.5156Z" fill="#1A1F71"/>
<path fill-rule="evenodd" clip-rule="evenodd" d="M15.5493 8.99017L12.0864 18.0323L11.7175 16.1948C11.0728 14.0765 9.06429 11.7815 6.81885 10.6325L9.98523 22.2288L13.7275 22.2244L19.296 8.99017H15.5493Z" fill="#1A1F71"/>
<path fill-rule="evenodd" clip-rule="evenodd" d="M8.87362 8.98193H3.17016L3.125 9.25781C7.56225 10.3554 10.4983 13.0078 11.7171 16.1947L10.4769 10.1014C10.2628 9.26175 9.64181 9.01121 8.87362 8.98193Z" fill="#F7B600"/>
</g>
<defs>
<clipPath id="clip0">
<rect width="50" height="31.25" fill="white"/>
</clipPath>
</defs>
</svg>
