<?xml version="1.0" encoding="UTF-8" standalone="no"?><!-- Generator: Gravit.io --><svg xmlns="http://www.w3.org/2000/svg" xmlns:xlink="http://www.w3.org/1999/xlink" style="isolation:isolate" viewBox="0 0 600 600" width="600pt" height="600pt"><defs><clipPath id="_clipPath_gWIBj9OagdSmvorXy2DfIaDShLFXqtdl"><rect width="600" height="600"/></clipPath></defs><g clip-path="url(#_clipPath_gWIBj9OagdSmvorXy2DfIaDShLFXqtdl)"><clipPath id="_clipPath_7OnefcWD5JpMmc41qk3s0j54SjjGC8h4"><rect x="0" y="0" width="600" height="600" transform="matrix(1,0,0,1,0,0)" fill="rgb(255,255,255)"/></clipPath><g clip-path="url(#_clipPath_7OnefcWD5JpMmc41qk3s0j54SjjGC8h4)"><g><g><g opacity="0.8"><linearGradient id="_lgradient_6" x1="0.07245412435302928" y1="0.24880588773756102" x2="0.7041777494240675" y2="0.23028325177614734" gradientTransform="matrix(492.004,0,0,615.269,232.298,173.066)" gradientUnits="userSpaceOnUse"><stop offset="1.3043478260869565%" stop-opacity="1" style="stop-color:rgb(255,186,195)"/><stop offset="61.192976161778404%" stop-opacity="1" style="stop-color:rgb(197,193,255)"/><stop offset="97.82608695652173%" stop-opacity="1" style="stop-color:rgb(44,216,213)"/></linearGradient><path d=" M 283.156 712.325 L 232.95 303.121 C 227.133 255.713 260.9 212.502 308.307 206.685 L 577.009 173.718 C 624.417 167.901 667.628 201.668 673.445 249.075 L 723.651 658.28 C 729.467 705.688 695.701 748.899 648.293 754.716 L 379.591 787.683 C 332.184 793.5 288.972 759.733 283.156 712.325 Z " fill="url(#_lgradient_6)"/></g><g opacity="0.85"><linearGradient id="_lgradient_7" x1="0.2726239824393784" y1="0.7326559351746098" x2="0.5751845117711176" y2="0.06623170654500865" gradientTransform="matrix(461.537,0,0,465.303,171.353,239.138)" gradientUnits="userSpaceOnUse"><stop offset="1.3043478260869565%" stop-opacity="1" style="stop-color:rgb(255,186,195)"/><stop offset="32.16381552771973%" stop-opacity="1" style="stop-color:rgb(197,193,255)"/><stop offset="98.69565217391305%" stop-opacity="1" style="stop-color:rgb(44,216,213)"/></linearGradient><path d=" M 478.936 269.319 L 618.149 456.739 C 642.76 489.872 635.841 536.752 602.708 561.363 L 429.931 689.701 C 396.798 714.311 349.917 707.392 325.306 674.259 L 186.093 486.84 C 161.482 453.707 168.401 406.826 201.534 382.215 L 374.311 253.878 C 407.444 229.267 454.325 236.186 478.936 269.319 Z " fill="url(#_lgradient_7)"/></g><g opacity="0.9"><path d=" M 640.095 312.563 L 768.695 489.116 C 796.966 527.928 788.407 582.39 749.595 610.661 L 595.087 723.204 C 556.275 751.475 501.812 742.916 473.542 704.104 L 344.941 527.551 C 316.671 488.739 325.229 434.276 364.041 406.006 L 518.55 293.463 C 557.362 265.192 611.824 273.75 640.095 312.563 Z " fill="rgb(33,180,183)"/></g></g></g></g></g></svg>