<?xml version="1.0" encoding="UTF-8" standalone="no"?><!-- Generator: Gravit.io --><svg xmlns="http://www.w3.org/2000/svg" xmlns:xlink="http://www.w3.org/1999/xlink" style="isolation:isolate" viewBox="0 0 600 600" width="600pt" height="600pt"><defs><clipPath id="_clipPath_oLAXJ3vG3gVw74DnlwebHVagnk83Zoor"><rect width="600" height="600"/></clipPath></defs><g clip-path="url(#_clipPath_oLAXJ3vG3gVw74DnlwebHVagnk83Zoor)"><g style="isolation:isolate"><defs><linearGradient id="_lgradient_3" x1="0.47671445669534573" y1="0.4712325007758422" x2="0.9894063454067701" y2="0.5006392777605368"><stop offset="2.1739130434782608%" style="stop-color:#D86076"/><stop offset="97.82608695652173%" style="stop-color:#EE7752"/></linearGradient></defs><path d="M 444.198 881.367 L 75.946 522.934 C 33.283 481.408 32.359 413.058 73.884 370.395 L 309.247 128.584 C 350.773 85.92 419.124 84.997 461.787 126.522 L 830.039 484.955 C 872.702 526.481 873.626 594.831 832.1 637.495 L 596.737 879.306 C 555.212 921.969 486.861 922.892 444.198 881.367 Z" style="stroke:none;fill:url(#_lgradient_3);stroke-miterlimit:10;"/><defs><linearGradient id="_lgradient_4" x1="0.47671445669534573" y1="0.4712325007758422" x2="0.9894063454067701" y2="0.5006392777605368"><stop offset="2.1739130434782608%" style="stop-color:#D86076"/><stop offset="97.82608695652173%" style="stop-color:#EE7752"/></linearGradient></defs><path d="M 478.936 269.319 L 618.149 456.739 C 642.76 489.872 635.841 536.752 602.708 561.363 L 429.931 689.701 C 396.798 714.311 349.917 707.392 325.306 674.259 L 186.093 486.84 C 161.482 453.707 168.401 406.826 201.534 382.215 L 374.311 253.878 C 407.444 229.267 454.325 236.186 478.936 269.319 Z" style="stroke:none;fill:url(#_lgradient_4);stroke-miterlimit:10;"/><path d="M 640.095 312.563 L 768.695 489.116 C 796.966 527.928 788.407 582.39 749.595 610.661 L 595.087 723.204 C 556.275 751.475 501.812 742.916 473.542 704.104 L 344.941 527.551 C 316.671 488.739 325.229 434.276 364.041 406.006 L 518.55 293.463 C 557.362 265.192 611.824 273.75 640.095 312.563 Z" style="stroke:none;fill:#A92C5C;stroke-miterlimit:10;opacity:0.9;"/></g></g></svg>