<?xml version="1.0" standalone="no"?><!-- Generator: Gravit.io --><svg xmlns="http://www.w3.org/2000/svg" xmlns:xlink="http://www.w3.org/1999/xlink" style="isolation:isolate" viewBox="0 0 512 512" width="512" height="512"><defs><clipPath id="_clipPath_qKwS8jYVMPqfCqP8nOGwZUXqQVcCXDlt"><rect width="512" height="512"/></clipPath></defs><g clip-path="url(#_clipPath_qKwS8jYVMPqfCqP8nOGwZUXqQVcCXDlt)"><path d=" M 456 160 L 432 160 L 432 208 L 456 208 C 464.826 207.974 471.974 200.826 472 192 L 472 176 C 471.974 167.174 464.826 160.026 456 160 L 456 160 Z " fill="rgb(136,14,79)"/><path d=" M 488 496 L 488 360 C 488 333.49 466.51 312 440 312 L 408 312 C 403.582 312 400 308.418 400 304 L 400 248 L 336 248 L 336 304 C 336 308.418 332.418 312 328 312 L 296 312 C 269.49 312 248 333.49 248 360 L 248 496" fill="rgb(255,212,181)"/><path d=" M 488 496 L 488 360 C 488 333.49 466.51 312 440 312 L 416 312 L 368 440 L 320 312 L 296 312 C 269.49 312 248 333.49 248 360 L 248 496" fill="rgb(194,24,91)"/><path d=" M 398 360 L 338 360 L 368 440 L 398 360 L 398 360 Z " fill="rgb(252,228,236)"/><path d=" M 296 312 L 280 352 L 320 360 L 312 384 L 368 440 L 320 312 L 296 312 L 296 312 Z " fill="rgb(236,64,122)"/><path d=" M 440 312 L 456 352 L 416 360 L 424 384 L 368 440 L 416 312 L 440 312 L 440 312 Z " fill="rgb(236,64,122)"/><path d=" M 304 496 L 288 496 L 288 466.8 C 270.527 443.894 268.722 412.67 283.44 387.904 L 297.184 396.088 C 285.378 415.959 287.368 441.112 302.152 458.88 C 303.348 460.318 304.001 462.13 304 464 L 304 496 Z " fill="rgb(136,14,79)"/><path d=" M 448 496 L 432 496 L 432 464 C 431.999 462.13 432.652 460.318 433.848 458.88 C 448.632 441.112 450.622 415.959 438.816 396.088 L 452.56 387.904 C 467.278 412.67 465.473 443.894 448 466.8 L 448 496 Z " fill="rgb(136,14,79)"/><rect x="360" y="464" width="16" height="16" transform="matrix(1,0,0,1,0,0)" fill="rgb(136,14,79)"/><path d=" M 400 280.424 L 400 248 L 336 248 L 336 280.424 C 356.138 290.526 379.862 290.526 400 280.424 Z " fill="rgb(245,192,154)"/><circle vector-effect="non-scaling-stroke" cx="424" cy="64" r="40" fill="rgb(253,175,51)"/><path d=" M 368 272 L 368 272 C 328.235 272 296 239.765 296 200 L 296 107.08 C 320 75.08 408 67.08 440 107.08 L 440 200 C 440 239.765 407.765 272 368 272 Z " fill="rgb(255,212,181)"/><path d=" M 332 192 C 325.373 192 320 186.627 320 180 C 320 173.373 325.373 168 332 168 C 338.627 168 344 173.373 344 180 C 344 186.627 338.627 192 332 192 Z " fill="rgb(122,62,26)"/><path d=" M 404 192 C 397.373 192 392 186.627 392 180 C 392 173.373 397.373 168 404 168 C 410.627 168 416 173.373 416 180 C 416 186.627 410.627 192 404 192 Z " fill="rgb(122,62,26)"/><path d=" M 296 160 L 280 160 C 271.174 160.026 264.026 167.174 264 176 L 264 192 C 264.026 200.826 271.174 207.974 280 208 L 296.48 208" fill="rgb(136,14,79)"/><path d=" M 310.064 287.76 C 287.676 282.194 271.97 262.078 272 239.008 L 272 192 L 288 192 L 288 239.008 C 287.977 254.729 298.679 268.439 313.936 272.232 L 310.064 287.76 Z " fill="rgb(136,14,79)"/><path d=" M 368 232 C 354.745 232 344 221.255 344 208 L 360 208 C 360 212.418 363.582 216 368 216 C 372.418 216 376 212.418 376 208 L 392 208 C 392 221.255 381.255 232 368 232 Z " fill="rgb(230,157,133)"/><path d=" M 372.192 56 L 363.808 56 C 318.583 54.972 281.074 90.776 280 136 L 280 160 L 288.384 160 C 330.631 160.145 371.046 142.765 400 112 L 400 112 C 405.218 138.081 418.039 162.034 436.848 180.84 L 440 184 L 456 160 L 456 136 C 454.926 90.776 417.417 54.972 372.192 56 Z " fill="rgb(253,187,61)"/><path d="M 48 296 L 224 296 C 237.246 296 248 306.754 248 320 L 248 439.992 C 248 453.238 237.246 463.992 224 463.992 L 48 463.992 C 34.754 463.992 24 453.238 24 439.992 L 24 320 C 24 306.754 34.754 296 48 296 Z" style="stroke:none;fill:#F8BBD0;stroke-miterlimit:10;"/><path d=" M 96 496 L 112 392 L 160 392 L 160 496" fill="rgb(244,143,177)"/><rect x="160" y="392" width="16" height="72" transform="matrix(1,0,0,1,0,0)" fill="rgb(240,98,146)"/><rect x="48" y="320" width="16" height="16" transform="matrix(1,0,0,1,0,0)" fill="rgb(237,237,235)"/><rect x="48" y="352" width="16" height="56" transform="matrix(1,0,0,1,0,0)" fill="rgb(237,237,235)"/></g></svg>