<?xml version="1.0" standalone="no"?><!-- Generator: Gravit.io --><svg xmlns="http://www.w3.org/2000/svg" xmlns:xlink="http://www.w3.org/1999/xlink" style="isolation:isolate" viewBox="0 0 512.001 512.001" width="512.001" height="512.001"><defs><clipPath id="_clipPath_Z5Mmopi167m4lwvHrA5xnaPuLHNnWLhx"><rect width="512.001" height="512.001"/></clipPath></defs><g clip-path="url(#_clipPath_Z5Mmopi167m4lwvHrA5xnaPuLHNnWLhx)"><path d=" M 247.173 35.31 L 459.035 35.31 C 478.456 35.31 494.345 51.2 494.345 70.62 L 494.345 194.206 C 494.345 213.627 478.455 229.516 459.035 229.516 L 344.276 229.516 L 344.276 262.998 C 344.276 266.931 339.521 268.899 336.742 266.119 L 300.138 229.517 L 247.172 229.517 C 227.751 229.517 211.862 213.627 211.862 194.207 L 211.862 70.621 C 211.863 51.2 227.752 35.31 247.173 35.31 Z " fill="rgb(194,24,91)"/><path d=" M 449.906 105.931 L 317.794 105.931 L 317.794 88.276 L 388.115 88.276 C 392.816 88.276 396.919 84.728 397.224 80.038 C 397.557 74.897 393.49 70.621 388.415 70.621 L 317.794 70.621 L 317.794 35.31 L 300.139 35.31 C 300.139 35.31 300.139 151.5 300.139 158.896 C 300.139 178.317 284.249 194.206 264.829 194.206 L 211.863 194.206 C 211.863 200.658 213.743 206.642 216.798 211.861 L 264.829 211.861 C 294.034 211.861 317.795 188.1 317.795 158.895 L 352.832 158.895 C 357.256 158.895 361.209 155.757 361.839 151.377 C 362.622 145.92 358.416 141.24 353.105 141.24 L 317.795 141.24 L 317.795 123.585 L 450.209 123.585 C 455.284 123.585 459.351 119.31 459.018 114.168 C 458.712 109.479 454.608 105.931 449.906 105.931 Z " fill="rgb(240,98,146)"/><g><path d=" M 450.207 88.276 L 423.724 88.276 C 418.845 88.276 414.896 84.323 414.896 79.448 C 414.896 74.573 418.844 70.62 423.724 70.62 L 450.207 70.62 C 455.086 70.62 459.035 74.573 459.035 79.448 C 459.035 84.323 455.087 88.276 450.207 88.276 Z " fill="rgb(236,64,122)"/><path d=" M 450.207 158.897 L 388.414 158.897 C 383.535 158.897 379.586 154.944 379.586 150.069 C 379.586 145.194 383.534 141.241 388.414 141.241 L 450.207 141.241 C 455.086 141.241 459.035 145.194 459.035 150.069 C 459.035 154.944 455.087 158.897 450.207 158.897 Z " fill="rgb(236,64,122)"/></g><g><path d=" M 450.207 194.207 L 326.621 194.207 C 321.742 194.207 317.793 190.254 317.793 185.379 C 317.793 180.504 321.741 176.551 326.621 176.551 L 450.207 176.551 C 455.086 176.551 459.035 180.504 459.035 185.379 C 459.035 190.254 455.087 194.207 450.207 194.207 Z " fill="rgb(240,98,146)"/></g><path d=" M 264.828 0 L 52.966 0 C 33.545 0 17.656 15.89 17.656 35.31 L 17.656 158.896 C 17.656 178.317 33.546 194.206 52.966 194.206 L 167.725 194.206 L 167.725 227.688 C 167.725 231.621 172.48 233.589 175.259 230.809 L 211.863 194.207 L 264.829 194.207 C 284.25 194.207 300.139 178.317 300.139 158.897 L 300.139 35.31 C 300.138 15.89 284.249 0 264.828 0 Z " fill="rgb(233,30,99)"/><path d=" M 88.276 52.966 L 61.794 52.966 C 56.915 52.966 52.966 49.013 52.966 44.138 C 52.966 39.263 56.914 35.31 61.794 35.31 L 88.277 35.31 C 93.156 35.31 97.105 39.263 97.105 44.138 C 97.105 49.013 93.156 52.966 88.276 52.966 Z " fill="rgb(244,143,177)"/><g><path d=" M 256.001 52.966 L 123.587 52.966 C 118.708 52.966 114.759 49.013 114.759 44.138 C 114.759 39.263 118.707 35.31 123.587 35.31 L 256.001 35.31 C 260.88 35.31 264.829 39.263 264.829 44.138 C 264.829 49.013 260.88 52.966 256.001 52.966 Z " fill="rgb(248,187,208)"/><path d=" M 256.001 88.276 L 61.794 88.276 C 56.915 88.276 52.966 84.323 52.966 79.448 C 52.966 74.573 56.914 70.62 61.794 70.62 L 256.001 70.62 C 260.88 70.62 264.829 74.573 264.829 79.448 C 264.828 84.323 260.88 88.276 256.001 88.276 Z " fill="rgb(248,187,208)"/></g><path d=" M 256.001 123.586 L 229.518 123.586 C 224.639 123.586 220.69 119.633 220.69 114.758 C 220.69 109.883 224.638 105.93 229.518 105.93 L 256.001 105.93 C 260.88 105.93 264.829 109.883 264.829 114.758 C 264.828 119.634 260.88 123.586 256.001 123.586 Z " fill="rgb(244,143,177)"/><g><path d=" M 194.207 123.586 L 61.794 123.586 C 56.915 123.586 52.966 119.633 52.966 114.758 C 52.966 109.883 56.914 105.93 61.794 105.93 L 194.208 105.93 C 199.087 105.93 203.036 109.883 203.036 114.758 C 203.035 119.634 199.087 123.586 194.207 123.586 Z " fill="rgb(248,187,208)"/><path d=" M 256.001 158.897 L 61.794 158.897 C 56.915 158.897 52.966 154.944 52.966 150.069 C 52.966 145.194 56.914 141.241 61.794 141.241 L 256.001 141.241 C 260.88 141.241 264.829 145.194 264.829 150.069 C 264.828 154.944 260.88 158.897 256.001 158.897 Z " fill="rgb(248,187,208)"/></g><path d=" M 169.083 442.738 L 169.083 414.218 L 95.746 414.218 L 95.746 442.738 L 132.414 475.331 L 169.083 442.738 Z " fill="rgb(230,175,120)"/><path d=" M 225.78 456.078 L 175.365 444.216 C 174.604 444.037 173.903 443.733 173.249 443.364 L 132.415 467.182 L 93.172 442.21 C 92.156 443.167 90.896 443.877 89.463 444.214 L 39.048 456.076 C 31.686 457.81 26.483 464.379 26.483 471.941 L 26.483 503.851 C 26.483 508.351 30.131 512 34.632 512 L 230.197 512 C 234.697 512 238.346 508.352 238.346 503.851 L 238.346 471.941 C 238.345 464.38 233.143 457.81 225.78 456.078 Z " fill="rgb(217,228,245)"/><path d=" M 95.746 414.218 L 95.746 444.309 C 141.939 460.951 169.083 419.299 169.083 419.299 L 169.083 414.218 L 95.746 414.218 L 95.746 414.218 L 95.746 414.218 Z " fill="rgb(210,155,110)"/><path d=" M 79.449 320.509 L 83 398.618 C 83.332 405.915 86.91 412.681 92.753 417.064 L 109.599 429.698 C 113.831 432.872 118.977 434.587 124.266 434.587 L 140.563 434.587 C 145.852 434.587 150.999 432.871 155.23 429.698 L 172.076 417.064 C 177.92 412.681 181.497 405.915 181.829 398.618 L 185.379 320.508 L 79.449 320.508 L 79.449 320.509 Z " fill="rgb(240,192,135)"/><path d=" M 120.191 336.807 C 136.488 336.807 160.934 332.733 166.732 320.51 L 79.449 320.51 L 82.999 398.62 C 83.331 405.917 86.909 412.683 92.752 417.066 L 109.598 429.701 C 113.83 432.875 118.976 434.59 124.265 434.59 L 132.414 434.59 C 124.265 434.59 107.968 418.293 107.968 397.921 C 107.968 387.958 107.968 361.252 107.968 349.029 C 107.969 344.954 112.042 336.807 120.191 336.807 Z " fill="rgb(230,175,120)"/><g><path d=" M 208.435 485.558 L 234.836 461.842 C 237.048 464.644 238.346 468.168 238.346 471.942 L 238.346 503.852 C 238.346 508.352 234.698 512.001 230.197 512.001 L 201.677 512.001 L 201.677 500.714 C 201.677 494.931 204.134 489.421 208.435 485.558 Z " fill="rgb(198,208,223)"/><path d=" M 56.393 485.558 L 29.992 461.842 C 27.78 464.644 26.482 468.168 26.482 471.942 L 26.482 503.852 C 26.482 508.352 30.13 512.001 34.631 512.001 L 63.151 512.001 L 63.151 500.714 C 63.152 494.931 60.695 489.421 56.393 485.558 Z " fill="rgb(198,208,223)"/></g><path d=" M 142.6 512 L 122.228 512 L 124.775 475.331 L 140.054 475.331 L 142.6 512 Z " fill="rgb(91,93,110)"/><path d=" M 142.6 467.182 L 122.228 467.182 L 122.228 469.536 C 122.228 474.987 126.646 479.405 132.097 479.405 L 132.729 479.405 C 138.18 479.405 142.598 474.987 142.598 469.536 L 142.598 467.182 L 142.6 467.182 L 142.6 467.182 Z " fill="rgb(81,82,98)"/><g><path d=" M 95.174 433.666 L 132.414 467.182 C 132.414 467.182 121.984 472.447 109.114 483.058 C 106.459 485.247 102.443 484.36 101.019 481.227 L 83.523 442.735 L 89.058 434.433 C 90.436 432.367 93.327 432.004 95.174 433.666 Z " fill="rgb(198,208,223)"/><path d=" M 169.655 433.666 L 132.415 467.182 C 132.415 467.182 142.845 472.447 155.715 483.058 C 158.37 485.247 162.386 484.36 163.81 481.227 L 181.306 442.735 L 175.771 434.433 C 174.393 432.367 171.502 432.004 169.655 433.666 Z " fill="rgb(198,208,223)"/></g><path d=" M 157.115 293.517 L 160.935 320.51 C 178.371 323.997 180.883 351.359 181.245 359.175 C 181.311 360.593 181.764 361.963 182.533 363.156 L 189.186 373.475 C 189.186 373.475 186.908 356.413 197.335 344.955 C 197.334 344.954 200.913 277.22 157.115 293.517 Z " fill="rgb(120,85,80)"/><path d=" M 193.273 371.731 L 188.672 390.135 C 188.127 392.315 186.167 393.845 183.919 393.845 L 183.919 393.845 C 181.448 393.845 179.365 392.006 179.058 389.555 L 176.705 370.731 C 176.076 365.697 180.001 361.251 185.074 361.251 L 185.091 361.251 C 190.577 361.252 194.604 366.408 193.273 371.731 Z " fill="rgb(240,192,135)"/><path d=" M 83.353 286.218 L 89.38 290.334 C 62.134 310.451 67.226 344.955 67.226 344.955 C 75.375 353.104 75.375 373.475 75.375 373.475 L 83.524 365.326 C 83.524 365.326 80.379 341.787 95.747 332.732 C 110.007 324.329 122.485 328.658 135.216 328.658 C 169.338 328.658 178.887 315.798 177.232 300.138 C 176.376 292.034 163.986 275.156 132.415 275.692 C 119.673 275.908 95.746 279.766 83.353 286.218 Z " fill="rgb(105,75,75)"/><path d=" M 80.977 325.092 C 80.977 325.092 76.648 308.03 89.38 290.333 C 62.134 310.45 67.226 344.954 67.226 344.954 C 75.375 353.103 75.375 373.474 75.375 373.474 L 83.524 365.325 C 83.524 365.325 80.379 341.786 95.747 332.731 C 110.007 324.328 122.485 328.657 135.216 328.657 C 140.765 328.657 145.602 328.285 149.908 327.648 C 123.629 328.531 108.138 308.626 80.977 325.092 Z " fill="rgb(90,65,70)"/><path d=" M 71.556 371.731 L 76.157 390.135 C 76.702 392.315 78.662 393.845 80.91 393.845 L 80.91 393.845 C 83.381 393.845 85.464 392.006 85.771 389.555 L 88.124 370.731 C 88.753 365.697 84.828 361.251 79.755 361.251 L 79.738 361.251 C 74.252 361.252 70.225 366.408 71.556 371.731 Z " fill="rgb(230,175,120)"/><path d=" M 181.306 503.851 L 160.934 503.851 C 156.434 503.851 152.785 507.499 152.785 512 L 152.785 512 L 189.454 512 L 189.454 512 C 189.454 507.499 185.806 503.851 181.306 503.851 Z " fill="rgb(228,234,246)"/><path d=" M 361.932 278.328 C 279.741 278.328 288.854 378.278 289.229 450.71 C 289.243 453.445 290.676 455.912 293.019 457.324 C 302.127 462.815 327.14 475.651 361.932 475.651 C 396.724 475.651 421.737 462.815 430.845 457.324 C 433.188 455.912 434.621 453.445 434.635 450.71 C 435.01 378.28 444.123 278.328 361.932 278.328 Z " fill="rgb(105,75,75)"/><path d=" M 356.636 278.535 C 280.195 282.821 288.862 379.891 289.229 450.71 C 289.243 453.445 290.676 455.912 293.019 457.324 C 302.127 462.815 327.14 475.651 361.932 475.651 L 382.703 330.255" fill="rgb(90,65,70)"/><path d=" M 361.932 278.328 C 315.198 278.328 311.952 334.798 311.952 334.798 C 338.889 330.254 355.441 341.613 382.703 330.254 L 361.932 475.651 C 396.725 475.651 421.737 462.815 430.845 457.324 C 433.188 455.912 434.621 453.445 434.635 450.71 C 435.01 378.28 444.123 278.328 361.932 278.328 Z " fill="rgb(105,75,75)"/><path d=" M 434.634 450.71 C 434.956 388.471 441.675 305.972 391.425 283.97 C 390.549 288.523 388.961 301.233 393.087 309.484 C 403.473 330.255 413.858 330.255 424.243 345.833 C 434.629 402.953 404.4 463.579 394.359 471.832 L 394.359 471.832 C 412.148 467.601 424.899 460.907 430.843 457.324 C 433.187 455.912 434.62 453.446 434.634 450.71 Z " fill="rgb(120,85,80)"/><path d=" M 440.621 466.464 L 394.286 447.158 C 390.416 445.546 387.895 441.764 387.895 437.571 L 387.895 425.023 L 335.968 425.023 L 335.968 437.571 C 335.968 441.764 333.447 445.546 329.577 447.158 L 283.242 466.464 C 277.437 468.883 273.655 474.554 273.655 480.844 L 273.655 501.615 C 273.655 507.351 278.305 512.001 284.041 512.001 L 439.821 512.001 C 445.557 512.001 450.207 507.351 450.207 501.615 L 450.207 480.844 C 450.207 474.554 446.426 468.883 440.621 466.464 Z " fill="rgb(230,175,120)"/><path d=" M 440.621 466.464 L 395.821 447.797 L 361.932 462.423 L 328.043 447.797 L 283.243 466.464 C 277.438 468.883 273.656 474.554 273.656 480.844 L 273.656 501.615 C 273.656 507.351 278.306 512.001 284.042 512.001 L 439.822 512.001 C 445.558 512.001 450.208 507.351 450.208 501.615 L 450.208 480.844 C 450.207 474.554 446.426 468.883 440.621 466.464 Z " fill="rgb(233,30,99)"/><path d=" M 387.895 425.022 L 335.968 425.022 L 335.968 437.57 C 335.968 441.763 333.447 445.545 329.577 447.157 L 322.341 450.173 C 377.72 464.294 387.895 425.022 387.895 425.022 Z " fill="rgb(210,155,110)"/><g><path d=" M 298.966 486.552 L 278.123 469.973 C 275.33 472.829 273.656 476.691 273.656 480.844 L 273.656 501.615 C 273.656 507.351 278.306 512.001 284.042 512.001 L 304.813 512.001 L 304.813 498.718 C 304.812 493.984 302.661 489.508 298.966 486.552 Z " fill="rgb(194,24,91)"/><path d=" M 450.207 501.614 L 450.207 480.843 C 450.207 476.722 448.561 472.886 445.808 470.037 L 424.898 486.551 C 421.203 489.507 419.052 493.983 419.052 498.715 L 419.052 512 L 439.823 512 C 445.558 512 450.207 507.35 450.207 501.614 Z " fill="rgb(194,24,91)"/><path d=" M 362.711 501.614 L 361.153 501.614 C 358.715 501.614 356.739 499.638 356.739 497.2 L 356.739 462.435 L 367.125 462.435 L 367.125 497.2 C 367.124 499.638 365.148 501.614 362.711 501.614 Z " fill="rgb(194,24,91)"/><path d=" M 361.932 462.423 L 332.212 440.133 C 330.304 438.702 327.586 439.167 326.263 441.151 L 320.39 449.96 L 338.611 475.47 C 339.996 477.409 342.726 477.788 344.586 476.3 L 361.932 462.423 L 361.932 462.423 Z " fill="rgb(194,24,91)"/><path d=" M 361.932 462.423 L 391.652 440.133 C 393.56 438.702 396.278 439.167 397.601 441.151 L 403.474 449.96 L 385.253 475.47 C 383.868 477.409 381.138 477.788 379.278 476.3 L 361.932 462.423 L 361.932 462.423 Z " fill="rgb(194,24,91)"/></g><path d=" M 387.895 325.063 C 361.932 351.026 310.978 330.256 310.978 371.797 L 314.202 402.397 C 314.824 409.242 318.792 415.336 324.8 418.674 L 354.366 435.099 C 359.071 437.713 364.791 437.713 369.496 435.099 L 399.062 418.674 C 405.07 415.336 409.038 409.242 409.66 402.397 L 413.382 366.055 C 413.647 363.472 413.703 360.873 413.616 358.281 C 411.674 345.063 393.087 335.448 387.895 325.063 Z " fill="rgb(240,192,135)"/><path d=" M 310.978 371.797 L 314.202 402.397 C 314.824 409.242 318.792 415.336 324.8 418.674 L 354.366 435.099 C 357.631 436.913 361.375 437.382 364.939 436.679 L 364.939 436.679 C 364.939 436.679 350.033 432.161 341.161 408.146 C 338.443 400.789 334.671 361.844 337.916 357.084 C 344.331 347.676 380.106 346.698 390.677 329.245 C 390.155 328.597 389.673 327.948 389.233 327.298 C 389.198 327.246 389.155 327.193 389.119 327.14 C 388.66 326.449 388.244 325.757 387.895 325.062 C 361.932 351.027 310.978 330.255 310.978 371.797 Z " fill="rgb(230,175,120)"/><path d=" M 399.838 501.614 L 386.337 501.614 C 381.462 501.614 377.509 505.567 377.509 510.442 L 377.509 512 L 408.665 512 L 408.665 510.442 C 408.666 505.567 404.713 501.614 399.838 501.614 Z " fill="rgb(194,24,91)"/></g></svg>