<?xml version="1.0" encoding="UTF-8" standalone="no"?><!-- Generator: Gravit.io --><svg xmlns="http://www.w3.org/2000/svg" xmlns:xlink="http://www.w3.org/1999/xlink" style="isolation:isolate" viewBox="0 0 150 150" width="150pt" height="150pt"><defs><clipPath id="_clipPath_DM1LXHb9uMiB3xTS70IQbfhR6UOVvl2B"><rect width="150" height="150"/></clipPath></defs><g clip-path="url(#_clipPath_DM1LXHb9uMiB3xTS70IQbfhR6UOVvl2B)"><path d=" M 124.777 21.003 L 30.634 19.755 C 21.142 19.63 13.274 27.292 13.149 36.783 L 12.528 83.627 C 12.402 93.118 20.065 100.986 29.556 101.112 L 55.517 101.456 L 71.925 118.305 C 74.393 120.84 78.448 120.893 80.983 118.425 L 97.832 102.017 L 123.7 102.36 C 133.19 102.485 141.058 94.823 141.185 85.331 L 141.806 38.488 C 141.931 28.997 134.269 21.128 124.777 21.003" fill="rgb(153,37,50)"/><path d=" M 121.818 20.98 L 30.129 19.764 C 20.885 19.643 13.222 27.106 13.099 36.349 L 12.495 81.972 C 12.372 91.215 19.835 98.879 29.079 99.001 L 54.363 99.336 L 70.343 115.746 C 72.747 118.214 76.697 118.266 79.165 115.862 L 95.575 99.882 L 120.768 100.216 C 130.011 100.338 137.674 92.875 137.798 83.631 L 138.402 38.009 C 138.525 28.766 131.062 21.102 121.818 20.98" fill="rgb(240,58,77)"/><path d=" M 78 77.206 L 70.231 68.903 C 71.696 66.134 72.59 63.01 72.702 59.668 C 73.091 47.894 63.864 38.034 52.091 37.644 C 40.317 37.254 30.457 46.481 30.067 58.255 C 29.676 70.028 38.904 79.889 50.677 80.279 C 55.292 80.432 59.602 79.091 63.174 76.714 L 78 77.206" fill="rgb(255,255,255)"/><text transform="matrix(1,0,0,1,80,74.479)" style="font-family:'Open Sans';font-weight:700;font-size:36px;font-style:normal;fill:#ffffff;stroke:none;">10</text></g></svg>