<?xml version="1.0" encoding="UTF-8" standalone="no"?><!-- Generator: Gravit.io --><svg xmlns="http://www.w3.org/2000/svg" xmlns:xlink="http://www.w3.org/1999/xlink" style="isolation:isolate" viewBox="0 0 600 600" width="600pt" height="600pt"><defs><clipPath id="_clipPath_NeUKt1Uk1X1z8oLeBff3xjSuDveo54mn"><rect width="600" height="600"/></clipPath></defs><g clip-path="url(#_clipPath_NeUKt1Uk1X1z8oLeBff3xjSuDveo54mn)"><rect width="600" height="600" style="fill:rgb(250,250,250)"/><g><g><g><g style="opacity:0.8;"><g opacity="0.8"><linearGradient id="_lgradient_10" x1="-0.4426442899184063" y1="0.24189460634758297" x2="0.9794675163716157" y2="0.6498331218598509" gradientTransform="matrix(492.004,0,0,615.269,232.298,173.066)" gradientUnits="userSpaceOnUse"><stop offset="48.69565217391305%" stop-opacity="1" style="stop-color:rgb(56,239,125)"/><stop offset="79.4985251964937%" stop-opacity="1" style="stop-color:rgb(20,159,141)"/><stop offset="100%" stop-opacity="1" style="stop-color:rgb(17,153,142)"/></linearGradient><path d=" M 283.156 712.325 L 232.95 303.121 C 227.133 255.713 260.9 212.502 308.307 206.685 L 577.009 173.718 C 624.417 167.901 667.628 201.668 673.445 249.075 L 723.651 658.28 C 729.467 705.688 695.701 748.899 648.293 754.716 L 379.591 787.683 C 332.184 793.5 288.972 759.733 283.156 712.325 Z " fill="url(#_lgradient_10)"/></g></g><g style="opacity:0.85;"><g opacity="0.85"><linearGradient id="_lgradient_11" x1="-0.2082799172547837" y1="0.8223831381845813" x2="0.6759641796549337" y2="0.4269173656958456" gradientTransform="matrix(461.537,0,0,465.303,171.353,239.138)" gradientUnits="userSpaceOnUse"><stop offset="49.130434782608695%" stop-opacity="1" style="stop-color:rgb(56,239,125)"/><stop offset="97.82608695652173%" stop-opacity="1" style="stop-color:rgb(17,153,142)"/></linearGradient><path d=" M 478.936 269.319 L 618.149 456.739 C 642.76 489.872 635.841 536.752 602.708 561.363 L 429.931 689.701 C 396.798 714.311 349.917 707.392 325.306 674.259 L 186.093 486.84 C 161.482 453.707 168.401 406.826 201.534 382.215 L 374.311 253.878 C 407.444 229.267 454.325 236.186 478.936 269.319 Z " fill="url(#_lgradient_11)"/></g></g><g style="opacity:0.9;"><g opacity="0.9"><path d=" M 640.095 312.563 L 768.695 489.116 C 796.966 527.928 788.407 582.39 749.595 610.661 L 595.087 723.204 C 556.275 751.475 501.812 742.916 473.542 704.104 L 344.941 527.551 C 316.671 488.739 325.229 434.276 364.041 406.006 L 518.55 293.463 C 557.362 265.192 611.824 273.75 640.095 312.563 Z " fill="rgb(17,153,142)"/></g></g></g></g></g></g></svg>