<svg xmlns="http://www.w3.org/2000/svg" width="70" height="70" viewBox="0 0 70 70">
  
<defs fill="none" stroke="none"><mask id="maskSiwp1hyda38pp"><rect x="35" y="0" width="35" height="70" rx="0" ry="0" fill="#ffffff"></rect></mask></defs><g class="content"><g class="base"><g fill="none" fill-rule="evenodd" stroke="none" class="main-fill">
    
    
    <path fill="none" d="M14,0.149132941 C12.6312945,0.149132941 11.5294118,1.25101529 11.5294118,2.61972118 L11.5294118,4.26678 L19.7647059,4.26678 C22.0173928,4.26678 23.8823529,6.13174059 23.8823529,8.38442706 L23.8823529,17.4432506 L29.6470588,24.0314859 L29.6470588,17.4432506 L32.1176471,17.4432506 C33.4863525,17.4432506 34.5882353,16.3413682 34.5882353,14.9726624 L34.5882353,2.61972118 C34.5882353,1.25101529 33.4863525,0.149132941 32.1176471,0.149132941 L14,0.149132941 Z M2.47058824,5.91383882 C1.10188276,5.91383882 0,7.01572118 0,8.38442706 L0,19.0903094 C0,20.4590153 1.10188276,21.5608976 2.47058824,21.5608976 L4.94117647,21.5608976 L4.94117647,28.9726624 L10.7058824,21.5608976 L19.7647059,21.5608976 C21.1334114,21.5608976 22.2352941,20.4590153 22.2352941,19.0903094 L22.2352941,8.38442706 C22.2352941,7.01572118 21.1334114,5.91383882 19.7647059,5.91383882 L2.47058824,5.91383882 Z M6.58823529,12.5020741 C7.27046888,12.5020741 7.82352941,13.0551153 7.82352941,13.7373682 C7.82352941,14.41958 7.27046888,14.9726624 6.58823529,14.9726624 C5.90600171,14.9726624 5.35294118,14.41958 5.35294118,13.7373682 C5.35294118,13.0551153 5.90600171,12.5020741 6.58823529,12.5020741 Z M11.5294118,12.5020741 C12.2116454,12.5020741 12.7647059,13.0551153 12.7647059,13.7373682 C12.7647059,14.41958 12.2116454,14.9726624 11.5294118,14.9726624 C10.8471782,14.9726624 10.2941176,14.41958 10.2941176,13.7373682 C10.2941176,13.0551153 10.8471782,12.5020741 11.5294118,12.5020741 Z M16.4705882,12.5020741 C17.1528218,12.5020741 17.7058824,13.0551153 17.7058824,13.7373682 C17.7058824,14.41958 17.1528218,14.9726624 16.4705882,14.9726624 C15.7883546,14.9726624 15.2352941,14.41958 15.2352941,13.7373682 C15.2352941,13.0551153 15.7883546,12.5020741 16.4705882,12.5020741 Z" transform="translate(17.706 20.44)" stroke="none" class="main-fill"></path>
  </g></g><g class="masked" mask="url('#maskSiwp1hyda38pp')"><g fill="none" fill-rule="evenodd" stroke="none" class="main-fill--darken">
    
    
    <path fill="none" d="M14,0.149132941 C12.6312945,0.149132941 11.5294118,1.25101529 11.5294118,2.61972118 L11.5294118,4.26678 L19.7647059,4.26678 C22.0173928,4.26678 23.8823529,6.13174059 23.8823529,8.38442706 L23.8823529,17.4432506 L29.6470588,24.0314859 L29.6470588,17.4432506 L32.1176471,17.4432506 C33.4863525,17.4432506 34.5882353,16.3413682 34.5882353,14.9726624 L34.5882353,2.61972118 C34.5882353,1.25101529 33.4863525,0.149132941 32.1176471,0.149132941 L14,0.149132941 Z M2.47058824,5.91383882 C1.10188276,5.91383882 0,7.01572118 0,8.38442706 L0,19.0903094 C0,20.4590153 1.10188276,21.5608976 2.47058824,21.5608976 L4.94117647,21.5608976 L4.94117647,28.9726624 L10.7058824,21.5608976 L19.7647059,21.5608976 C21.1334114,21.5608976 22.2352941,20.4590153 22.2352941,19.0903094 L22.2352941,8.38442706 C22.2352941,7.01572118 21.1334114,5.91383882 19.7647059,5.91383882 L2.47058824,5.91383882 Z M6.58823529,12.5020741 C7.27046888,12.5020741 7.82352941,13.0551153 7.82352941,13.7373682 C7.82352941,14.41958 7.27046888,14.9726624 6.58823529,14.9726624 C5.90600171,14.9726624 5.35294118,14.41958 5.35294118,13.7373682 C5.35294118,13.0551153 5.90600171,12.5020741 6.58823529,12.5020741 Z M11.5294118,12.5020741 C12.2116454,12.5020741 12.7647059,13.0551153 12.7647059,13.7373682 C12.7647059,14.41958 12.2116454,14.9726624 11.5294118,14.9726624 C10.8471782,14.9726624 10.2941176,14.41958 10.2941176,13.7373682 C10.2941176,13.0551153 10.8471782,12.5020741 11.5294118,12.5020741 Z M16.4705882,12.5020741 C17.1528218,12.5020741 17.7058824,13.0551153 17.7058824,13.7373682 C17.7058824,14.41958 17.1528218,14.9726624 16.4705882,14.9726624 C15.7883546,14.9726624 15.2352941,14.41958 15.2352941,13.7373682 C15.2352941,13.0551153 15.7883546,12.5020741 16.4705882,12.5020741 Z" transform="translate(17.706 20.44)" stroke="none" class="main-fill--darken"></path>
  </g></g></g><style>
          .main-fill {fill: #B12048;}
          .main-stroke {stroke: #B12048;}
          .secondary-fill {fill: #F6E8E9;}
          .secondary-stroke {stroke: #F6E8E9;}

          .main-fill--darken {fill: #70142e;}
          .main-stroke--darken {stroke: #70142e;}
          .secondary-fill--darken {fill: #e0b1b4;}
          .secondary-stroke--darken {stroke: #e0b1b4;}

          .main-fill--darkener {fill: #450c1c;}
          .main-stroke--darkener {stroke: #450c1c;}
          .secondary-fill--darkener {fill: #d28c91;}
          .secondary-stroke--darkener {stroke: #d28c91;}
        </style></svg>