<svg xmlns="http://www.w3.org/2000/svg" width="70" height="70" viewBox="0 0 70 70" style="width: 100%; height: 100%;">
  
<defs fill="none" stroke="none"><mask id="maskSivxrv2q7gzv"><rect x="35" y="0" width="35" height="70" rx="0" ry="0" fill="#ffffff"></rect></mask></defs><g class="content"><g class="base"><g fill="none" fill-rule="evenodd" stroke="none" class="main-fill">
    
    
  </g><g fill="none" transform="translate(22.283 21)" stroke="none" class="main-fill">
      <path d="M10.6033667 1.691025C12.4931333 1.691025 14.0284083 3.217025 14.0284083 5.09745833 14.0284083 6.98605833 12.4943 8.51083333 10.6033667 8.51083333 8.71943333 8.51083333 7.18415833 6.98483333 7.18415833 5.09745833 7.18415833 3.2158 8.71826667 1.691025 10.6033667 1.691025L10.6033667 1.691025zM19.07465 0C21.6535667 0 23.7374083 2.082675 23.7374083 4.64765 23.7374083 7.21845833 21.6582333 9.30113333 19.07465 9.30113333 16.5073417 9.30113333 14.4165583 7.21845833 14.4165583 4.64765 14.4165583 2.082675 16.5073417 0 19.07465 0L19.07465 0zM25.4249333 16.482375C25.4249333 12.980625 22.585675 10.1460333 19.07465 10.1460333 17.4336167 10.1460333 15.9413333 10.7864167 14.81865 11.81145 14.0655667 10.2320167 12.4744667 9.12794167 10.6033083 9.12794167 9.24816667 9.12794167 8.03716667 9.723 7.18176667 10.6504417 6.54255 9.45105 5.28855833 8.62125833 3.8311 8.62125833 1.722875 8.62125833.0179083333 10.3250583.0179083333 12.4240083.0179083333 12.5076583.0202416667 12.5972.0306833333 12.68085L.0179083333 12.68085.0179083333 19.2787 5.94399167 19.2787 5.94399167 22.1435667 12.7231417 22.1435667 12.7231417 27.8930167 25.4237083 27.8930167 25.4237083 16.8949667 25.4097667 16.8949667C25.4191583 16.757825 25.4249333 16.6206833 25.4249333 16.482375L25.4249333 16.482375z" fill="none" stroke="none" class="main-fill"></path>
      <circle cx="3.831" cy="5.326" r="2.79" fill="none" stroke="none" class="main-fill"></circle>
    </g></g><g class="masked" mask="url('#maskSivxrv2q7gzv')"><g fill="none" fill-rule="evenodd" stroke="none" class="main-fill--darken">
    
    
  </g><g fill="none" transform="translate(22.283 21)" stroke="none" class="main-fill--darken">
      <path d="M10.6033667 1.691025C12.4931333 1.691025 14.0284083 3.217025 14.0284083 5.09745833 14.0284083 6.98605833 12.4943 8.51083333 10.6033667 8.51083333 8.71943333 8.51083333 7.18415833 6.98483333 7.18415833 5.09745833 7.18415833 3.2158 8.71826667 1.691025 10.6033667 1.691025L10.6033667 1.691025zM19.07465 0C21.6535667 0 23.7374083 2.082675 23.7374083 4.64765 23.7374083 7.21845833 21.6582333 9.30113333 19.07465 9.30113333 16.5073417 9.30113333 14.4165583 7.21845833 14.4165583 4.64765 14.4165583 2.082675 16.5073417 0 19.07465 0L19.07465 0zM25.4249333 16.482375C25.4249333 12.980625 22.585675 10.1460333 19.07465 10.1460333 17.4336167 10.1460333 15.9413333 10.7864167 14.81865 11.81145 14.0655667 10.2320167 12.4744667 9.12794167 10.6033083 9.12794167 9.24816667 9.12794167 8.03716667 9.723 7.18176667 10.6504417 6.54255 9.45105 5.28855833 8.62125833 3.8311 8.62125833 1.722875 8.62125833.0179083333 10.3250583.0179083333 12.4240083.0179083333 12.5076583.0202416667 12.5972.0306833333 12.68085L.0179083333 12.68085.0179083333 19.2787 5.94399167 19.2787 5.94399167 22.1435667 12.7231417 22.1435667 12.7231417 27.8930167 25.4237083 27.8930167 25.4237083 16.8949667 25.4097667 16.8949667C25.4191583 16.757825 25.4249333 16.6206833 25.4249333 16.482375L25.4249333 16.482375z" fill="none" stroke="none" class="main-fill--darken"></path>
      <circle cx="3.831" cy="5.326" r="2.79" fill="none" stroke="none" class="main-fill--darken"></circle>
    </g></g></g><style>
          .main-fill {fill: #B12048;}
          .main-stroke {stroke: #B12048;}
          .secondary-fill {fill: #F6E8E9;}
          .secondary-stroke {stroke: #F6E8E9;}

          .main-fill--darken {fill: #70142e;}
          .main-stroke--darken {stroke: #70142e;}
          .secondary-fill--darken {fill: #e0b1b4;}
          .secondary-stroke--darken {stroke: #e0b1b4;}

          .main-fill--darkener {fill: #450c1c;}
          .main-stroke--darkener {stroke: #450c1c;}
          .secondary-fill--darkener {fill: #d28c91;}
          .secondary-stroke--darkener {stroke: #d28c91;}
        </style></svg>