<svg xmlns="http://www.w3.org/2000/svg" width="70" height="70" viewBox="0 0 70 70" style="width: 100%; height: 100%;"><desc>Made with illustrio</desc>
  
<g class="base"><g fill="none" fill-rule="evenodd" stroke="none" class="main-fill">
    
    
  </g><g fill="none" transform="translate(21 25.455)" stroke="none" class="main-fill">
      <path d="M5.72790909 7.37163636C4.28145455 7.37163636 2.96227273 7.91509091 1.953 8.80281818 2.97563636 5.50836364 5.06481818 2.57409091 7.59563636 1.197 7.90427273 1.029 8.01881818.642727273 7.85018182.334090909 7.68281818.0260909091 7.29654545-.0884545455 6.98727273.0795454545 3.00427273 2.24636364.000636363636 7.84381818.000636363636 13.0989091.000636363636 16.2571818 2.57027273 18.8261818 5.72790909 18.8261818 8.88554545 18.8261818 11.4551818 16.2571818 11.4551818 13.0989091 11.4551818 9.94127273 8.88618182 7.37163636 5.72790909 7.37163636L5.72790909 7.37163636zM21.6376364 7.37163636C20.1911818 7.37163636 18.872 7.91509091 17.8627273 8.80281818 18.8853636 5.50836364 20.9745455 2.57409091 23.5047273 1.197 23.8133636 1.029 23.9279091.642727273 23.7592727.334090909 23.5919091.0260909091 23.205-.0884545455 22.897.0795454545 18.9133636 2.24636364 15.9103636 7.84381818 15.9103636 13.0989091 15.9103636 16.2571818 18.4793636 18.8261818 21.6376364 18.8261818 24.7959091 18.8261818 27.3649091 16.2571818 27.3649091 13.0989091 27.3649091 9.94127273 24.7959091 7.37163636 21.6376364 7.37163636L21.6376364 7.37163636z" fill="none" stroke="none" class="main-fill"></path>
    </g></g><style>
          .main-fill {fill: #21B4B7;}
          .main-stroke {stroke: #21B4B7;}
          .secondary-fill {fill: #fff;}
          .secondary-stroke {stroke: #fff;}

          .main-fill--darken {fill: #157476;}
          .main-stroke--darken {stroke: #157476;}
          .secondary-fill--darken {fill: #d9d9d9;}
          .secondary-stroke--darken {stroke: #d9d9d9;}

          .main-fill--darkener {fill: #0e4a4b;}
          .main-stroke--darkener {stroke: #0e4a4b;}
          .secondary-fill--darkener {fill: #bfbfbf;}
          .secondary-stroke--darkener {stroke: #bfbfbf;}
        </style></svg>