<?xml version="1.0" standalone="no"?><!-- Generator: Gravit.io --><svg xmlns="http://www.w3.org/2000/svg" xmlns:xlink="http://www.w3.org/1999/xlink" style="isolation:isolate" viewBox="0 0 50 50" width="50" height="50"><defs><clipPath id="_clipPath_5VxxcS76YMqXFHip6mJiCYsaCS4iNfim"><rect width="50" height="50"/></clipPath></defs><g clip-path="url(#_clipPath_5VxxcS76YMqXFHip6mJiCYsaCS4iNfim)"><g><path d=" M 24.939 16.372 L 24.939 30.061 L 11.251 30.061 C 11.251 37.627 17.384 43.749 24.939 43.749 C 32.494 43.749 38.628 37.616 38.628 30.061 C 38.628 22.506 32.506 16.372 24.939 16.372 L 24.939 16.372 Z " fill="rgb(248,177,178)"/><path d=" M 24.939 28.146 C 24.125 28.146 23.426 28.662 23.151 29.373 L 11.251 29.373 C 10.872 29.373 10.563 29.683 10.563 30.061 C 10.563 30.439 10.872 30.749 11.251 30.749 L 23.151 30.749 C 23.426 31.471 24.125 31.975 24.939 31.975 C 25.994 31.975 26.854 31.116 26.854 30.061 C 26.854 29.006 25.994 28.146 24.939 28.146 Z  M 41.964 17.129 L 43.913 15.18 L 39.912 11.179 L 37.963 13.128 L 38.937 14.102 L 37.321 15.742 C 34.243 13.07 30.381 11.468 26.315 11.179 L 26.315 9.093 L 31.096 9.093 L 31.096 0.964 L 18.783 0.964 L 18.783 9.093 L 23.563 9.093 L 23.563 11.168 C 13.761 11.878 6 20.075 6 30.061 C 6 40.505 14.495 49 24.939 49 C 35.383 49 43.878 40.505 43.878 30.061 C 43.878 25.338 42.136 21.004 39.258 17.679 L 40.886 16.051 L 41.964 17.129 L 41.964 17.129 Z  M 21.534 6.341 L 21.534 3.716 L 28.344 3.716 L 28.344 6.341 L 21.534 6.341 Z  M 41.127 30.061 C 41.127 38.992 33.87 46.249 24.939 46.249 C 16.008 46.249 8.751 38.992 8.751 30.061 C 8.751 21.13 16.008 13.873 24.939 13.873 C 33.87 13.873 41.127 21.142 41.127 30.061 Z " fill="rgb(216,27,96)"/></g></g></svg>