<?xml version="1.0" encoding="UTF-8" standalone="no"?><!-- Generator: Gravit.io --><svg xmlns="http://www.w3.org/2000/svg" xmlns:xlink="http://www.w3.org/1999/xlink" style="isolation:isolate" viewBox="0 0 600 600" width="600pt" height="600pt"><defs><clipPath id="_clipPath_98NQC0xtZI1NseBRd5UuD260Gh2NdmE6"><rect width="600" height="600"/></clipPath></defs><g clip-path="url(#_clipPath_98NQC0xtZI1NseBRd5UuD260Gh2NdmE6)"><clipPath id="_clipPath_C4jYa87MVE9DqM5BXpu6B2GrOQHBXuWO"><rect x="0" y="0" width="600" height="600" transform="matrix(1,0,0,1,0,0)" fill="rgb(255,255,255)"/></clipPath><g clip-path="url(#_clipPath_C4jYa87MVE9DqM5BXpu6B2GrOQHBXuWO)"><g><clipPath id="_clipPath_LoDLzezeQvNwDuJbvvCB6susxkOcEoGk"><rect x="0" y="0" width="600" height="600" transform="matrix(1,0,0,1,0,0)" fill="rgb(255,255,255)"/></clipPath><g clip-path="url(#_clipPath_LoDLzezeQvNwDuJbvvCB6susxkOcEoGk)"><g><g><rect x="0" y="0" width="600" height="600" transform="matrix(1,0,0,1,0,0)" fill="rgb(250,250,250)"/><clipPath id="_clipPath_fJjqeRr1GtxnoQuoOuWUqbx0YYYYgzXa"><rect x="0" y="0" width="600" height="600" transform="matrix(1,0,0,1,0,0)" fill="rgb(255,255,255)"/></clipPath><g clip-path="url(#_clipPath_fJjqeRr1GtxnoQuoOuWUqbx0YYYYgzXa)"><g><g><g><g><g style="opacity:0.8;"><g style="opacity:0.8;"><g opacity="0.8"><linearGradient id="_lgradient_2" x1="-0.38946311063381056" y1="0.7736318582777526" x2="0.7427788958217615" y2="0.09968281842517668" gradientTransform="matrix(492.004,0,0,615.269,232.298,173.066)" gradientUnits="userSpaceOnUse"><stop offset="48.75%" stop-opacity="1" style="stop-color:rgb(119,116,0)"/><stop offset="98.75%" stop-opacity="1" style="stop-color:rgb(176,167,0)"/></linearGradient><path d=" M 283.156 712.325 L 232.95 303.121 C 227.133 255.713 260.9 212.502 308.307 206.685 L 577.009 173.718 C 624.417 167.901 667.628 201.668 673.445 249.075 L 723.651 658.28 C 729.467 705.688 695.701 748.899 648.293 754.716 L 379.591 787.683 C 332.184 793.5 288.972 759.733 283.156 712.325 Z " fill="url(#_lgradient_2)"/></g></g></g><g style="opacity:0.85;"><g style="opacity:0.85;"><g opacity="0.85"><linearGradient id="_lgradient_3" x1="-0.1896195713226969" y1="1.4848573439054764" x2="0.6041853304117011" y2="0.020607258563621667" gradientTransform="matrix(461.537,0,0,465.303,171.353,239.138)" gradientUnits="userSpaceOnUse"><stop offset="48.62660508012468%" stop-opacity="1" style="stop-color:rgb(87,65,68)"/><stop offset="97.5%" stop-opacity="1" style="stop-color:rgb(190,165,168)"/></linearGradient><path d=" M 478.936 269.319 L 618.149 456.739 C 642.76 489.872 635.841 536.752 602.708 561.363 L 429.931 689.701 C 396.798 714.311 349.917 707.392 325.306 674.259 L 186.093 486.84 C 161.482 453.707 168.401 406.826 201.534 382.215 L 374.311 253.878 C 407.444 229.267 454.325 236.186 478.936 269.319 Z " fill="url(#_lgradient_3)"/></g></g></g><g style="opacity:0.9;"><g style="opacity:0.9;"><g opacity="0.9"><path d=" M 640.095 312.563 L 768.695 489.116 C 796.966 527.928 788.407 582.39 749.595 610.661 L 595.087 723.204 C 556.275 751.475 501.812 742.916 473.542 704.104 L 344.941 527.551 C 316.671 488.739 325.229 434.276 364.041 406.006 L 518.55 293.463 C 557.362 265.192 611.824 273.75 640.095 312.563 Z " fill="rgb(216,27,96)"/></g></g></g></g></g></g></g></g></g></g></g></g></g></g></svg>