<?xml version="1.0" encoding="UTF-8" standalone="no"?><!-- Generator: Gravit.io --><svg xmlns="http://www.w3.org/2000/svg" xmlns:xlink="http://www.w3.org/1999/xlink" style="isolation:isolate" viewBox="0 0 600 600" width="600pt" height="600pt"><defs><clipPath id="_clipPath_CTBM2Xf0GHJrSNOzNpyb8nnwCX31xADH"><rect width="600" height="600"/></clipPath></defs><g clip-path="url(#_clipPath_CTBM2Xf0GHJrSNOzNpyb8nnwCX31xADH)"><clipPath id="_clipPath_xQCWChNHtQUz8u7ljEAPYCnWBDQf5HTV"><rect x="0" y="0" width="600" height="600" transform="matrix(1,0,0,1,0,0)" fill="rgb(255,255,255)"/></clipPath><g clip-path="url(#_clipPath_xQCWChNHtQUz8u7ljEAPYCnWBDQf5HTV)"><g><rect x="0" y="0" width="600" height="600" transform="matrix(1,0,0,1,0,0)" fill="rgb(250,250,250)"/><clipPath id="_clipPath_PGTeE2aUBioNc9Q8eiKJPcnsym6cnaIG"><rect x="0" y="0" width="600" height="600" transform="matrix(1,0,0,1,0,0)" fill="rgb(255,255,255)"/></clipPath><g clip-path="url(#_clipPath_PGTeE2aUBioNc9Q8eiKJPcnsym6cnaIG)"><g><g><g><g style="opacity:0.8;"><g opacity="0.8"><linearGradient id="_lgradient_20" x1="-0.3206134322337402" y1="0.5471951922363759" x2="0.5787189499904664" y2="0.03750050268198013" gradientTransform="matrix(492.004,0,0,615.269,232.298,173.066)" gradientUnits="userSpaceOnUse"><stop offset="48.75%" stop-opacity="1" style="stop-color:rgb(98,186,172)"/><stop offset="97.5%" stop-opacity="1" style="stop-color:rgb(255,156,199)"/></linearGradient><path d=" M 283.156 712.325 L 232.95 303.121 C 227.133 255.713 260.9 212.502 308.307 206.685 L 577.009 173.718 C 624.417 167.901 667.628 201.668 673.445 249.075 L 723.651 658.28 C 729.467 705.688 695.701 748.899 648.293 754.716 L 379.591 787.683 C 332.184 793.5 288.972 759.733 283.156 712.325 Z " fill="url(#_lgradient_20)"/></g></g><g style="opacity:0.85;"><g opacity="0.85"><linearGradient id="_lgradient_21" x1="0.9578467091950711" y1="-0.4131024900791721" x2="0.11508420128187091" y2="0.5217009296084762" gradientTransform="matrix(461.537,0,0,465.303,171.353,239.138)" gradientUnits="userSpaceOnUse"><stop offset="48.62660508012468%" stop-opacity="1" style="stop-color:rgb(249,68,122)"/><stop offset="81.22981105256997%" stop-opacity="1" style="stop-color:rgb(78,127,119)"/><stop offset="97.08333333333333%" stop-opacity="1" style="stop-color:rgb(75,128,119)"/></linearGradient><path d=" M 478.936 269.319 L 618.149 456.739 C 642.76 489.872 635.841 536.752 602.708 561.363 L 429.931 689.701 C 396.798 714.311 349.917 707.392 325.306 674.259 L 186.093 486.84 C 161.482 453.707 168.401 406.826 201.534 382.215 L 374.311 253.878 C 407.444 229.267 454.325 236.186 478.936 269.319 Z " fill="url(#_lgradient_21)"/></g></g><g style="opacity:0.9;"><g opacity="0.9"><path d=" M 640.095 312.563 L 768.695 489.116 C 796.966 527.928 788.407 582.39 749.595 610.661 L 595.087 723.204 C 556.275 751.475 501.812 742.916 473.542 704.104 L 344.941 527.551 C 316.671 488.739 325.229 434.276 364.041 406.006 L 518.55 293.463 C 557.362 265.192 611.824 273.75 640.095 312.563 Z " fill="rgb(216,27,96)"/></g></g></g></g></g></g></g></g></g></svg>